<?xml version="1.0" standalone="no"?>
<!DOCTYPE svg PUBLIC "-//W3C//DTD SVG 20010904//EN"
 "http://www.w3.org/TR/2001/REC-SVG-20010904/DTD/svg10.dtd">
<svg version="1.0" xmlns="http://www.w3.org/2000/svg"
 width="337.000000pt" height="337.000000pt" viewBox="0 0 337.000000 337.000000"
 preserveAspectRatio="xMidYMid meet">
<metadata>
Created by potrace 1.14, written by Peter Selinger 2001-2017
</metadata>
<g transform="translate(0.000000,337.000000) scale(0.100000,-0.100000)"
fill="#000000" stroke="none">
<path d="M1174 2863 c-10 -10 -14 -39 -14 -99 l0 -84 -27 0 c-16 -1 -112 -1
-215 0 -156 0 -189 -3 -202 -16 -14 -13 -16 -49 -16 -230 l0 -214 -83 0 c-93
0 -117 -13 -117 -63 0 -46 23 -57 116 -57 l84 0 0 -170 c0 -129 -3 -170 -12
-171 -7 -1 -48 -2 -91 -3 -84 -1 -97 -9 -97 -58 0 -47 22 -58 116 -58 l84 0
-2 -172 -3 -173 -87 0 c-48 -1 -90 -4 -94 -8 -12 -11 -14 -68 -4 -88 9 -17 22
-19 100 -19 l90 0 0 -218 c0 -156 3 -221 12 -230 9 -9 74 -12 230 -12 l218 0
0 -88 c0 -98 7 -112 56 -112 47 0 59 22 61 109 0 42 2 79 2 84 1 4 78 7 171 7
l170 0 0 -84 c0 -95 11 -116 60 -116 46 0 58 21 59 97 0 38 0 76 0 86 1 15 16
17 171 17 194 0 173 13 172 -107 -1 -73 13 -93 63 -93 46 0 55 20 55 119 l0
81 214 0 c174 0 217 3 229 15 12 11 15 54 15 219 0 113 3 210 7 216 3 5 44 10
90 10 92 0 105 8 105 64 0 39 -29 52 -115 51 -42 -1 -79 3 -82 7 -4 8 -6 144
-4 296 l1 42 84 0 c101 0 121 13 112 68 -3 19 -8 37 -11 40 -3 4 -46 6 -95 7
l-90 0 -1 28 c0 35 0 248 0 287 l1 30 83 0 c45 0 87 4 94 8 19 12 27 61 13 88
-13 23 -18 24 -102 24 l-88 0 -1 38 c0 20 0 116 0 212 -1 216 2 212 -114 210
-44 -1 -140 -1 -212 -1 l-133 1 0 83 c0 45 -4 88 -9 96 -5 8 -26 15 -46 16
-50 3 -63 -21 -63 -113 0 -40 -2 -75 -5 -78 -7 -7 -328 -7 -335 0 -3 4 -5 41
-5 84 2 92 -11 113 -64 107 -20 -2 -39 -9 -44 -17 -5 -7 -9 -50 -9 -95 l0 -83
-67 -1 c-184 -1 -264 0 -271 5 -4 2 -7 37 -6 78 2 89 -12 117 -57 116 -17 -1
-37 -7 -45 -15z"/>
</g>
</svg>
