<?xml version="1.0" encoding="UTF-8"?>
<svg xmlns="http://www.w3.org/2000/svg" xmlns:xlink="http://www.w3.org/1999/xlink" width="550px" height="px" viewBox="0 0 550 550" version="1.1">
<g id="surface1">
<path style=" stroke:none;fill-rule:evenodd;fill:rgb(19.607843%,36.862745%,39.215686%);fill-opacity:1;" d="M 431.292969 366.972656 L 431.292969 385.078125 C 437.019531 385.078125 442.445312 385.078125 447.945312 385.078125 C 453.214844 385.078125 455.203125 387.0625 455.203125 392.332031 C 455.253906 399.515625 455.253906 406.667969 455.203125 413.796875 C 455.203125 419.222656 453.214844 421.132812 447.640625 421.132812 C 442.292969 421.132812 436.945312 421.132812 431.367188 421.132812 L 431.367188 433.203125 L 444.964844 433.203125 C 446.339844 433.203125 447.714844 433.203125 449.089844 433.203125 C 452.910156 433.429688 455.277344 435.875 455.203125 439.390625 C 455.125 442.75 452.757812 445.117188 449.089844 445.195312 C 443.285156 445.269531 437.402344 445.195312 431.140625 445.195312 L 431.140625 469.105469 C 431.140625 473.152344 431.214844 477.125 431.140625 481.171875 C 431.0625 484.992188 428.847656 487.132812 425.027344 487.359375 C 424.035156 487.359375 423.042969 487.359375 422.046875 487.359375 L 102.894531 487.359375 C 95.410156 487.359375 93.957031 485.910156 93.957031 478.347656 C 93.957031 438.066406 93.957031 397.808594 93.957031 357.578125 C 93.957031 357.269531 93.957031 356.992188 93.957031 356.734375 C 93.957031 356.429688 93.957031 356.152344 93.957031 355.894531 C 93.957031 355.589844 93.957031 355.308594 93.957031 355.054688 C 94.007812 354.75 94.035156 354.46875 94.035156 354.214844 C 94.1875 352.6875 94.875 351.390625 96.019531 350.394531 C 97.167969 349.402344 98.542969 348.867188 100.070312 348.867188 C 101.519531 348.867188 102.972656 349.480469 104.042969 350.472656 C 105.109375 351.464844 105.796875 352.839844 105.953125 354.292969 C 105.953125 354.597656 105.976562 354.878906 106.027344 355.132812 C 106.027344 355.4375 106.027344 355.71875 106.027344 355.972656 C 106.027344 356.277344 106.027344 356.558594 106.027344 356.8125 C 106.027344 357.117188 106.027344 357.398438 106.027344 357.652344 L 106.027344 475.214844 L 250.554688 475.214844 C 250.554688 469.410156 250.554688 463.578125 250.554688 457.722656 C 250.554688 454.359375 252.082031 452.144531 255.292969 451.457031 C 259.109375 450.542969 262.472656 453.292969 262.546875 457.492188 C 262.625 463.296875 262.546875 469.179688 262.546875 475.214844 L 274.695312 475.214844 C 274.695312 469.410156 274.617188 463.527344 274.695312 457.722656 C 274.695312 454.132812 276.679688 451.765625 279.8125 451.382812 C 283.554688 450.847656 286.535156 453.445312 286.609375 457.492188 C 286.765625 463.296875 286.6875 469.027344 286.6875 475.0625 L 298.757812 475.0625 C 298.757812 469.714844 298.757812 464.292969 298.757812 458.792969 C 298.757812 453.902344 300.742188 451.382812 304.640625 451.304688 C 308.535156 451.304688 310.671875 453.902344 310.75 458.640625 C 310.75 464.0625 310.75 469.410156 310.75 475.140625 L 322.820312 475.140625 C 322.820312 469.714844 322.820312 464.214844 322.820312 458.792969 C 322.820312 453.902344 324.882812 451.382812 328.777344 451.304688 C 332.597656 451.304688 334.8125 453.902344 334.8125 458.714844 C 334.8125 464.0625 334.8125 469.484375 334.8125 475.140625 L 346.882812 475.140625 C 346.882812 469.691406 346.882812 464.242188 346.882812 458.792969 C 346.882812 453.902344 349.019531 451.304688 352.839844 451.304688 C 356.734375 451.304688 358.875 453.902344 358.875 458.714844 C 358.875 464.0625 358.875 469.484375 358.875 475.140625 L 370.945312 475.140625 C 370.945312 469.691406 370.945312 464.214844 370.945312 458.714844 C 370.945312 453.902344 373.082031 451.304688 376.980469 451.304688 C 380.875 451.304688 382.9375 453.902344 383.015625 458.714844 C 383.015625 464.140625 383.015625 469.484375 383.015625 475.140625 L 418.917969 475.140625 L 418.917969 138.1875 L 401.957031 138.1875 C 395.695312 138.1875 389.429688 138.265625 383.167969 138.1875 C 379.347656 138.109375 376.902344 135.589844 376.980469 132.078125 C 377.054688 128.714844 379.421875 126.269531 383.015625 126.195312 C 397.070312 126.144531 411.097656 126.144531 425.105469 126.195312 C 428.921875 126.195312 431.0625 128.5625 431.140625 132.457031 C 431.214844 136.203125 431.140625 139.945312 431.140625 144.222656 C 435.035156 144.222656 438.703125 144.222656 442.445312 144.222656 C 446.644531 144.296875 449.167969 146.515625 449.167969 150.179688 C 449.242188 153.769531 446.722656 156.140625 442.597656 156.214844 C 440.6875 156.214844 438.855469 156.214844 436.945312 156.214844 L 431.367188 156.214844 L 431.367188 168.285156 C 435.035156 168.285156 438.777344 168.207031 442.519531 168.285156 C 446.644531 168.359375 449.167969 170.578125 449.167969 174.242188 C 449.167969 177.910156 446.644531 180.203125 442.519531 180.277344 C 440.6875 180.355469 438.777344 180.277344 436.867188 180.277344 L 431.445312 180.277344 L 431.445312 192.347656 C 435.109375 192.347656 438.855469 192.347656 442.519531 192.347656 C 446.722656 192.421875 449.167969 194.714844 449.167969 198.382812 C 449.167969 201.972656 446.644531 204.265625 442.519531 204.339844 C 438.929688 204.417969 435.265625 204.339844 431.367188 204.339844 L 431.367188 240.472656 C 436.917969 240.472656 442.417969 240.472656 447.867188 240.472656 C 453.140625 240.472656 455.203125 242.535156 455.203125 247.652344 C 455.203125 268.992188 455.203125 290.328125 455.203125 311.667969 C 455.203125 316.171875 452.984375 318.695312 449.242188 318.695312 C 445.5 318.695312 443.207031 316.171875 443.207031 311.742188 C 443.207031 293.5625 443.207031 275.382812 443.207031 257.203125 L 443.207031 252.769531 L 431.367188 252.769531 L 431.367188 354.75 L 443.207031 354.75 C 443.207031 349.019531 443.285156 343.140625 443.207031 337.332031 C 443.207031 334.355469 444.507812 332.214844 447.257812 331.222656 C 448.097656 330.839844 449.089844 330.765625 450.007812 330.839844 C 450.921875 330.917969 451.839844 331.296875 452.605469 331.832031 C 453.367188 332.367188 454.054688 333.054688 454.515625 333.894531 C 454.972656 334.734375 455.203125 335.652344 455.203125 336.644531 C 455.355469 344.742188 455.277344 352.917969 455.203125 361.089844 C 455.125 364.757812 452.757812 366.894531 448.859375 366.972656 C 445.957031 367.046875 443.054688 366.972656 440.152344 366.972656 Z M 431.367188 408.910156 L 442.902344 408.910156 L 442.902344 397.222656 L 431.367188 397.222656 Z M 431.367188 408.910156 "/>
<path style=" stroke:none;fill-rule:evenodd;fill:rgb(19.607843%,36.862745%,39.215686%);fill-opacity:1;" d="M 202.355469 276.605469 L 214.421875 276.605469 L 214.421875 165 C 214.421875 164.695312 214.421875 164.414062 214.421875 164.160156 C 214.421875 163.855469 214.421875 163.574219 214.421875 163.320312 C 214.421875 163.015625 214.421875 162.734375 214.421875 162.480469 C 214.472656 162.171875 214.5 161.894531 214.5 161.640625 C 214.652344 160.109375 215.339844 158.8125 216.484375 157.820312 C 217.554688 156.828125 219.007812 156.292969 220.457031 156.292969 C 221.984375 156.292969 223.359375 156.828125 224.507812 157.820312 C 225.578125 158.8125 226.265625 160.1875 226.417969 161.640625 C 226.417969 161.894531 226.441406 162.121094 226.492188 162.328125 C 226.492188 162.53125 226.492188 162.757812 226.492188 163.015625 C 226.492188 163.21875 226.492188 163.421875 226.492188 163.625 C 226.492188 163.828125 226.492188 164.058594 226.492188 164.3125 C 226.492188 203.066406 226.492188 241.820312 226.492188 280.578125 C 226.492188 286.992188 224.734375 288.75 218.167969 288.75 L 150.027344 288.75 C 144.070312 288.75 142.160156 286.839844 142.160156 280.882812 C 142.160156 241.871094 142.160156 202.863281 142.160156 163.855469 C 142.160156 158.203125 144.070312 156.292969 149.875 156.292969 C 164.644531 156.292969 179.4375 156.292969 194.257812 156.292969 C 200.519531 156.292969 202.355469 158.046875 202.355469 164.3125 C 202.355469 200.164062 202.355469 236.015625 202.355469 271.867188 Z M 154.457031 168.515625 L 154.457031 276.375 L 166.070312 276.375 L 166.070312 168.515625 Z M 178.519531 168.515625 L 178.519531 276.375 L 190.132812 276.375 L 190.132812 168.515625 Z M 178.519531 168.515625 "/>
<path style=" stroke:none;fill-rule:evenodd;fill:rgb(19.607843%,36.862745%,39.215686%);fill-opacity:1;" d="M 292.570312 216.484375 L 292.570312 204.417969 C 288.75 204.417969 285.007812 204.492188 281.265625 204.417969 C 277.140625 204.339844 274.617188 202.046875 274.617188 198.457031 C 274.617188 194.792969 277.140625 192.5 281.265625 192.421875 C 284.929688 192.421875 288.519531 192.421875 291.882812 192.421875 C 292.722656 188.910156 292.492188 184.632812 294.554688 182.570312 C 296.542969 180.429688 300.742188 180.507812 304.714844 179.359375 C 304.714844 176.917969 304.714844 173.554688 304.714844 170.195312 C 304.714844 165 306.625 162.402344 310.597656 162.328125 C 314.570312 162.328125 316.707031 164.921875 316.707031 170.042969 C 316.707031 173.046875 316.734375 176.050781 316.785156 179.054688 C 316.785156 179.15625 316.785156 179.257812 316.785156 179.359375 C 316.785156 179.410156 316.785156 179.488281 316.785156 179.589844 C 316.835938 179.691406 316.859375 179.769531 316.859375 179.820312 C 316.859375 179.921875 316.886719 180.023438 316.9375 180.125 L 328.777344 180.125 C 328.777344 176.457031 328.777344 172.792969 328.777344 169.046875 C 328.855469 164.847656 331.070312 162.402344 334.734375 162.328125 C 338.328125 162.328125 340.695312 164.769531 340.769531 168.972656 C 340.847656 172.5625 340.769531 176.230469 340.769531 180.125 L 352.839844 180.125 C 352.839844 176.457031 352.839844 172.714844 352.839844 169.046875 C 352.917969 164.847656 355.207031 162.328125 358.875 162.328125 C 362.464844 162.328125 364.832031 164.847656 364.910156 168.972656 C 364.910156 172.5625 364.910156 176.230469 364.910156 179.589844 C 368.421875 180.429688 372.625 180.203125 374.765625 182.1875 C 376.828125 184.25 376.828125 188.453125 377.972656 192.421875 C 380.570312 192.421875 384.007812 192.421875 387.445312 192.421875 C 392.332031 192.421875 394.929688 194.484375 395.007812 198.304688 C 395.007812 202.355469 392.410156 204.417969 387.292969 204.417969 C 384.234375 204.417969 381.257812 204.417969 378.277344 204.492188 C 378.175781 204.492188 378.074219 204.492188 377.972656 204.492188 C 377.921875 204.492188 377.84375 204.519531 377.742188 204.570312 C 377.640625 204.570312 377.566406 204.570312 377.515625 204.570312 C 377.410156 204.570312 377.308594 204.59375 377.207031 204.644531 L 377.207031 216.484375 C 380.875 216.484375 384.542969 216.484375 388.285156 216.484375 C 392.410156 216.5625 394.929688 218.855469 395.007812 222.445312 C 395.007812 226.109375 392.484375 228.480469 388.359375 228.480469 C 384.769531 228.554688 381.105469 228.480469 377.207031 228.480469 L 377.207031 240.546875 C 380.875 240.546875 384.617188 240.546875 388.285156 240.546875 C 392.484375 240.625 394.929688 242.917969 395.007812 246.507812 C 395.007812 250.171875 392.484375 252.464844 388.359375 252.542969 C 384.769531 252.617188 381.332031 252.617188 377.820312 252.695312 C 377.667969 252.695312 377.589844 252.769531 377.667969 252.695312 C 376.902344 256.132812 377.054688 260.332031 375.070312 262.472656 C 373.082031 264.535156 368.804688 264.535156 364.910156 265.679688 C 364.910156 268.507812 364.910156 272.171875 364.910156 275.917969 C 364.832031 280.117188 362.617188 282.640625 358.953125 282.640625 C 355.359375 282.714844 352.992188 280.195312 352.917969 276.070312 C 352.839844 272.480469 352.917969 268.8125 352.917969 264.917969 L 340.847656 264.917969 C 340.847656 268.582031 340.847656 272.25 340.847656 275.992188 C 340.769531 280.117188 338.480469 282.640625 334.890625 282.714844 C 331.222656 282.714844 328.929688 280.195312 328.855469 276.070312 C 328.777344 274.160156 328.855469 272.328125 328.855469 270.417969 L 328.855469 264.917969 L 316.785156 264.917969 C 316.785156 268.582031 316.785156 272.328125 316.785156 276.070312 C 316.707031 280.195312 314.339844 282.714844 310.75 282.714844 C 307.082031 282.714844 304.792969 280.195312 304.792969 275.992188 C 304.714844 272.402344 304.792969 268.734375 304.792969 265.453125 C 301.203125 264.609375 297 264.765625 294.859375 262.777344 C 292.722656 260.714844 292.796875 256.515625 291.652344 252.542969 C 288.828125 252.542969 285.082031 252.617188 281.339844 252.542969 C 277.214844 252.542969 274.695312 250.25 274.695312 246.660156 C 274.617188 242.992188 277.140625 240.703125 281.265625 240.625 C 283.097656 240.546875 285.007812 240.625 286.917969 240.625 L 292.417969 240.625 L 292.417969 228.480469 C 288.75 228.480469 285.082031 228.554688 281.339844 228.480469 C 277.214844 228.480469 274.695312 226.1875 274.695312 222.519531 C 274.617188 218.929688 277.140625 216.5625 281.265625 216.484375 C 283.171875 216.484375 285.082031 216.484375 286.917969 216.484375 Z M 305.019531 252.3125 L 364.757812 252.3125 L 364.757812 192.578125 L 305.019531 192.578125 Z M 305.019531 252.3125 "/>
<path style=" stroke:none;fill-rule:nonzero;fill:rgb(19.607843%,36.862745%,39.215686%);fill-opacity:1;" d="M 106.027344 138.1875 L 106.027344 327.9375 C 106.027344 328.292969 106.027344 328.625 106.027344 328.929688 C 106.027344 329.234375 106.027344 329.542969 106.027344 329.847656 C 106.027344 330.152344 106.027344 330.457031 106.027344 330.765625 C 106.027344 331.121094 106.003906 331.453125 105.953125 331.757812 C 105.722656 333.132812 105.035156 334.507812 103.964844 335.421875 C 102.820312 336.339844 101.445312 336.875 99.992188 336.875 C 98.542969 336.875 97.167969 336.339844 96.097656 335.421875 C 94.953125 334.429688 94.265625 333.132812 94.035156 331.679688 C 94.035156 331.425781 94.035156 331.171875 94.035156 330.917969 C 94.035156 330.660156 94.007812 330.40625 93.957031 330.152344 C 93.957031 329.949219 93.957031 329.71875 93.957031 329.464844 C 93.957031 329.210938 93.984375 328.957031 94.035156 328.703125 C 94.035156 263.972656 94.035156 199.246094 94.035156 134.519531 C 94.035156 127.796875 95.640625 126.195312 102.4375 126.195312 L 356.429688 126.195312 C 357.5 126.195312 358.492188 126.117188 359.484375 126.195312 C 362.769531 126.5 362.769531 137.804688 359.640625 138.109375 C 359.332031 138.160156 359.027344 138.1875 358.722656 138.1875 C 358.417969 138.1875 358.109375 138.1875 357.804688 138.1875 C 357.5 138.1875 357.195312 138.1875 356.890625 138.1875 C 356.53125 138.1875 356.203125 138.1875 355.894531 138.1875 Z M 106.027344 138.1875 "/>
<path style=" stroke:none;fill-rule:evenodd;fill:rgb(19.607843%,36.862745%,39.215686%);fill-opacity:1;" d="M 328.625 379.042969 C 305.148438 379.042969 281.695312 379.042969 258.269531 379.042969 C 252.464844 379.042969 250.554688 377.132812 250.554688 371.402344 C 250.554688 360.351562 250.554688 349.328125 250.554688 338.328125 C 250.554688 332.828125 252.542969 330.917969 258.042969 330.917969 L 399.515625 330.917969 C 405.089844 330.917969 407.078125 332.902344 407.078125 338.328125 C 407.078125 349.480469 407.078125 360.632812 407.078125 371.785156 C 407.078125 376.980469 405.015625 379.042969 399.742188 379.042969 C 376.011719 379.042969 352.304688 379.042969 328.625 379.042969 Z M 370.792969 343.140625 L 359.179688 343.140625 C 358.1875 352.992188 357.195312 355.132812 352.992188 354.902344 C 345.046875 354.367188 347.417969 347.796875 346.730469 343.140625 L 334.964844 343.140625 C 334.355469 347.875 336.570312 354.445312 329.234375 354.75 C 320.984375 355.132812 323.277344 347.875 322.667969 343.140625 L 310.828125 343.140625 C 310.367188 347.875 312.429688 354.445312 305.171875 354.75 C 296.921875 355.132812 299.214844 347.875 298.605469 343.140625 L 286.765625 343.140625 C 286.230469 347.875 288.367188 354.445312 281.035156 354.75 C 272.785156 355.054688 275.152344 347.875 274.464844 343.140625 L 262.855469 343.140625 L 262.855469 366.667969 L 394.855469 366.667969 L 394.855469 343.140625 L 383.242188 343.140625 C 382.25 352.992188 381.027344 355.132812 376.671875 354.902344 C 372.394531 354.75 371.328125 352.609375 370.792969 343.140625 Z M 370.792969 343.140625 "/>
<path style=" stroke:none;fill-rule:nonzero;fill:rgb(19.607843%,36.862745%,39.215686%);fill-opacity:1;" d="M 394.855469 427.242188 L 394.855469 403.332031 L 383.167969 403.332031 C 382.480469 408.070312 384.769531 415.328125 376.519531 414.945312 C 369.265625 414.640625 371.402344 408.070312 370.867188 403.332031 L 359.027344 403.332031 C 358.417969 408.070312 360.707031 414.5625 352.765625 415.097656 C 348.640625 415.402344 347.644531 413.265625 346.578125 403.332031 L 334.964844 403.332031 C 334.355469 408.070312 336.570312 415.097656 328.703125 414.945312 C 321.0625 414.867188 323.203125 408.144531 322.667969 403.332031 L 310.828125 403.332031 C 310.292969 408.144531 312.507812 415.097656 304.5625 414.945312 C 296.921875 414.867188 299.214844 408.144531 298.527344 403.332031 L 286.765625 403.332031 C 286.152344 408.144531 288.367188 415.097656 280.5 414.945312 C 272.859375 414.867188 275.078125 408.070312 274.464844 403.332031 L 262.855469 403.332031 L 262.855469 427.242188 L 266.75 427.242188 C 291.09375 427.242188 315.410156 427.242188 339.703125 427.242188 C 343.902344 427.242188 346.421875 429.078125 346.804688 432.359375 C 347.339844 436.257812 344.667969 439.234375 340.3125 439.234375 C 329.695312 439.3125 319 439.234375 308.382812 439.234375 L 258.652344 439.234375 C 252.390625 439.234375 250.554688 437.480469 250.554688 431.292969 C 250.554688 420.242188 250.554688 409.214844 250.554688 398.214844 C 250.554688 393.171875 252.617188 391.109375 257.582031 391.109375 C 304.996094 391.109375 352.40625 391.109375 399.820312 391.109375 C 405.015625 391.109375 407.078125 393.097656 407.078125 398.367188 C 407.078125 409.519531 407.078125 420.671875 407.078125 431.828125 C 407.078125 437.097656 405.015625 439.234375 399.894531 439.234375 C 388.589844 439.234375 377.308594 439.234375 366.054688 439.234375 C 361.472656 439.234375 358.953125 437.019531 358.953125 433.277344 C 358.875 429.535156 361.472656 427.242188 365.902344 427.242188 C 375.453125 427.167969 384.921875 427.242188 394.855469 427.242188 Z M 394.855469 427.242188 "/>
<path style=" stroke:none;fill-rule:nonzero;fill:rgb(19.607843%,36.862745%,39.215686%);fill-opacity:1;" d="M 226.339844 427.242188 L 226.339844 367.277344 L 130.320312 367.277344 L 130.320312 427.242188 L 134.214844 427.242188 C 152.652344 427.242188 171.085938 427.242188 189.519531 427.242188 C 192.421875 427.242188 195.019531 428.082031 195.707031 430.910156 C 196.167969 432.820312 195.785156 435.492188 194.714844 437.097656 C 193.796875 438.394531 191.277344 439.160156 189.519531 439.160156 C 168.054688 439.3125 146.589844 439.3125 125.125 439.234375 C 120.160156 439.234375 118.097656 437.097656 118.097656 432.132812 C 118.097656 408.808594 118.097656 385.484375 118.097656 362.160156 C 118.097656 357.117188 120.160156 354.980469 125.125 354.980469 C 160.621094 354.980469 196.117188 354.980469 231.609375 354.980469 C 236.347656 354.980469 238.484375 357.117188 238.484375 361.929688 C 238.484375 385.355469 238.484375 408.808594 238.484375 432.285156 C 238.484375 437.019531 236.347656 439.234375 231.609375 439.234375 C 226.109375 439.285156 220.609375 439.285156 215.109375 439.234375 C 210.910156 439.234375 208.390625 436.945312 208.390625 433.277344 C 208.390625 429.6875 210.832031 427.320312 215.035156 427.242188 C 216.867188 427.167969 218.777344 427.242188 220.6875 427.242188 Z M 226.339844 427.242188 "/>
<path style=" stroke:none;fill-rule:evenodd;fill:rgb(19.607843%,36.862745%,39.215686%);fill-opacity:1;" d="M 184.097656 318.542969 C 184.148438 318.441406 184.171875 318.339844 184.171875 318.234375 C 184.222656 318.132812 184.25 318.03125 184.25 317.929688 C 184.25 317.828125 184.25 317.703125 184.25 317.546875 C 184.300781 317.445312 184.328125 317.34375 184.328125 317.242188 C 183.640625 307.769531 186.464844 306.394531 195.171875 306.777344 C 200.980469 307.007812 206.707031 306.777344 212.515625 306.777344 C 218.546875 306.777344 220.382812 308.609375 220.382812 314.570312 C 220.382812 315.792969 220.382812 317.089844 220.382812 318.847656 C 222.445312 318.847656 224.203125 318.769531 226.035156 318.847656 C 229.929688 319 232.375 321.214844 232.453125 324.730469 C 232.527344 328.394531 230.007812 330.765625 225.882812 330.839844 C 224.277344 330.917969 222.597656 330.839844 220.382812 330.839844 C 220.382812 332.902344 220.457031 334.8125 220.382812 336.796875 C 220.230469 340.542969 218.089844 342.832031 214.195312 342.832031 C 206.300781 342.933594 198.40625 342.933594 190.515625 342.832031 C 186.542969 342.832031 184.480469 340.542969 184.328125 336.417969 C 184.25 334.734375 184.328125 332.980469 184.328125 331.070312 L 172.257812 331.070312 C 172.257812 332.75 172.257812 334.582031 172.257812 336.417969 C 172.105469 340.542969 170.042969 342.832031 166.070312 342.832031 C 158.175781 342.933594 150.28125 342.933594 142.390625 342.832031 C 138.492188 342.832031 136.355469 340.617188 136.203125 336.796875 C 136.125 334.964844 136.203125 333.132812 136.203125 331.070312 C 131.234375 330.382812 124.742188 332.671875 124.207031 324.804688 C 123.902344 320.527344 125.890625 319.609375 136.203125 318.542969 C 136.203125 316.785156 136.125 314.953125 136.203125 313.117188 C 136.277344 309.222656 138.417969 306.929688 142.160156 306.855469 C 150.15625 306.753906 158.175781 306.753906 166.222656 306.855469 C 169.964844 306.929688 172.105469 309.222656 172.257812 313.117188 C 172.332031 314.796875 172.257812 316.554688 172.257812 318.617188 Z M 148.347656 330.609375 L 159.957031 330.609375 L 159.957031 318.921875 L 148.347656 318.921875 Z M 196.546875 330.6875 L 208.160156 330.6875 L 208.160156 319.078125 L 196.546875 319.078125 Z M 196.546875 330.6875 "/>
<path style=" stroke:none;fill-rule:nonzero;fill:rgb(19.607843%,36.862745%,39.215686%);fill-opacity:1;" d="M 340.695312 318.847656 C 321.394531 318.847656 302.09375 318.847656 282.792969 318.847656 C 281.492188 318.847656 280.195312 319 279.046875 318.617188 C 276.070312 317.703125 274.390625 315.5625 274.617188 312.429688 C 274.921875 309.070312 276.832031 307.082031 280.195312 306.855469 C 284.015625 306.703125 287.910156 306.777344 291.804688 306.777344 L 397.605469 306.777344 C 398.597656 306.777344 399.589844 306.777344 400.582031 306.777344 C 404.554688 306.929688 407 309.144531 407.078125 312.660156 C 407.152344 316.328125 404.632812 318.769531 400.582031 318.769531 C 386.984375 318.847656 373.464844 318.769531 359.945312 318.769531 Z M 340.695312 318.847656 "/>
<path style=" stroke:none;fill-rule:evenodd;fill:rgb(19.607843%,36.862745%,39.215686%);fill-opacity:1;" d="M 160.492188 379.042969 C 164.160156 379.042969 167.828125 379.042969 171.417969 379.042969 C 176 379.117188 178.214844 381.179688 178.292969 385.609375 C 178.34375 393.25 178.34375 400.890625 178.292969 408.527344 C 178.214844 412.804688 176 415.097656 171.796875 415.097656 C 164.007812 415.199219 156.214844 415.199219 148.421875 415.097656 C 144.453125 415.097656 142.234375 412.804688 142.234375 408.757812 C 142.132812 400.964844 142.132812 393.171875 142.234375 385.382812 C 142.234375 381.332031 144.453125 379.117188 148.5 379.042969 C 152.546875 378.964844 156.519531 379.042969 160.492188 379.042969 Z M 166.070312 391.265625 L 154.382812 391.265625 L 154.382812 402.875 L 166.070312 402.875 Z M 166.070312 391.265625 "/>
<path style=" stroke:none;fill-rule:nonzero;fill:rgb(19.607843%,36.862745%,39.215686%);fill-opacity:1;" d="M 250.480469 177.527344 C 250.480469 182.1875 250.554688 186.847656 250.480469 191.429688 C 250.480469 195.859375 248.1875 198.457031 244.445312 198.382812 C 240.777344 198.304688 238.5625 195.859375 238.5625 191.660156 C 238.511719 182.136719 238.511719 172.589844 238.5625 163.015625 C 238.5625 158.8125 240.777344 156.367188 244.445312 156.292969 C 248.1875 156.214844 250.480469 158.8125 250.480469 163.242188 C 250.554688 167.980469 250.480469 172.792969 250.480469 177.527344 Z M 250.480469 177.527344 "/>
<path style=" stroke:none;fill-rule:nonzero;fill:rgb(19.607843%,36.862745%,39.215686%);fill-opacity:1;" d="M 118.097656 273.394531 C 118.097656 270.570312 118.019531 267.667969 118.097656 264.765625 C 118.171875 260.945312 120.695312 258.578125 124.207031 258.652344 C 127.570312 258.730469 130.015625 261.097656 130.089844 264.6875 C 130.191406 270.695312 130.191406 276.707031 130.089844 282.714844 C 130.015625 286.304688 127.492188 288.671875 124.132812 288.671875 C 120.769531 288.75 118.328125 286.382812 118.097656 282.867188 C 118.097656 282.613281 118.097656 282.359375 118.097656 282.105469 Z M 118.097656 273.394531 "/>
<path style=" stroke:none;fill-rule:nonzero;fill:rgb(19.607843%,36.862745%,39.215686%);fill-opacity:1;" d="M 238.484375 273.394531 C 238.484375 270.570312 238.410156 267.667969 238.484375 264.765625 C 238.640625 261.019531 241.160156 258.578125 244.671875 258.652344 C 248.035156 258.730469 250.402344 261.097656 250.480469 264.6875 C 250.582031 270.695312 250.582031 276.730469 250.480469 282.792969 C 250.402344 286.304688 247.882812 288.671875 244.519531 288.671875 C 241.160156 288.75 238.714844 286.382812 238.484375 282.792969 C 238.484375 282.589844 238.484375 282.359375 238.484375 282.105469 Z M 238.484375 273.394531 "/>
<path style=" stroke:none;fill-rule:nonzero;fill:rgb(19.607843%,36.862745%,39.215686%);fill-opacity:1;" d="M 202.203125 391.035156 C 200.140625 391.035156 198.152344 391.1875 196.167969 391.035156 C 192.652344 390.882812 190.285156 388.359375 190.359375 385 C 190.4375 381.714844 192.652344 379.269531 196.015625 379.117188 C 200.242188 378.964844 204.492188 378.964844 208.769531 379.117188 C 212.132812 379.269531 214.347656 381.792969 214.347656 385 C 214.421875 388.359375 212.054688 390.882812 208.542969 391.035156 C 206.402344 391.1875 204.265625 391.035156 202.203125 391.035156 Z M 202.203125 391.035156 "/>
<path style=" stroke:none;fill-rule:nonzero;fill:rgb(19.607843%,36.862745%,39.215686%);fill-opacity:1;" d="M 202.582031 403.179688 C 204.722656 403.179688 206.859375 403.027344 209 403.179688 C 209.765625 403.230469 210.476562 403.433594 211.140625 403.792969 C 211.851562 404.097656 212.464844 404.554688 212.972656 405.167969 C 213.480469 405.726562 213.839844 406.363281 214.042969 407.078125 C 214.296875 407.789062 214.398438 408.527344 214.347656 409.292969 C 214.195312 412.652344 212.359375 414.867188 209.078125 415.019531 C 207.957031 415.121094 206.835938 415.171875 205.714844 415.171875 C 204.542969 415.222656 203.398438 415.25 202.277344 415.25 C 201.15625 415.25 200.035156 415.222656 198.917969 415.171875 C 197.796875 415.171875 196.675781 415.121094 195.554688 415.019531 C 192.5 414.867188 190.359375 412.269531 190.359375 409.140625 C 190.308594 408.375 190.410156 407.636719 190.667969 406.921875 C 190.972656 406.210938 191.378906 405.574219 191.890625 405.015625 C 192.398438 404.453125 192.984375 404.019531 193.644531 403.714844 C 194.359375 403.410156 195.097656 403.230469 195.859375 403.179688 C 198.078125 403.027344 200.367188 403.179688 202.582031 403.179688 Z M 202.582031 403.179688 "/>
<path style=" stroke:none;fill-rule:nonzero;fill:rgb(19.607843%,36.862745%,39.215686%);fill-opacity:1;" d="M 118.097656 165 C 118.097656 164.695312 118.097656 164.414062 118.097656 164.160156 C 118.097656 163.855469 118.097656 163.574219 118.097656 163.320312 C 118.097656 163.015625 118.097656 162.734375 118.097656 162.480469 C 118.097656 162.171875 118.097656 161.894531 118.097656 161.640625 C 118.25 160.109375 118.9375 158.8125 120.082031 157.820312 C 121.152344 156.828125 122.605469 156.292969 124.054688 156.292969 C 125.582031 156.292969 126.957031 156.828125 128.105469 157.820312 C 129.171875 158.8125 129.859375 160.1875 130.015625 161.640625 C 130.066406 162.199219 130.089844 162.757812 130.089844 163.320312 C 130.140625 163.878906 130.167969 164.464844 130.167969 165.078125 C 130.167969 165.636719 130.167969 166.195312 130.167969 166.757812 C 130.117188 167.316406 130.089844 167.878906 130.089844 168.4375 C 129.859375 171.953125 127.417969 174.320312 124.054688 174.320312 C 120.695312 174.320312 118.328125 171.953125 118.097656 168.359375 C 118.019531 167.292969 118.097656 166.144531 118.097656 165 Z M 118.097656 165 "/>
<path style=" stroke:none;fill-rule:nonzero;fill:rgb(19.607843%,36.862745%,39.215686%);fill-opacity:1;" d="M 244.445312 234.589844 C 246.890625 234.515625 249.105469 236.042969 250.019531 238.257812 C 251.015625 240.472656 250.480469 243.070312 248.722656 244.828125 C 247.042969 246.507812 244.445312 247.042969 242.152344 246.125 C 239.9375 245.132812 238.484375 242.917969 238.484375 240.472656 C 238.484375 239.707031 238.640625 238.96875 238.945312 238.257812 C 239.25 237.492188 239.683594 236.832031 240.242188 236.269531 C 240.804688 235.710938 241.441406 235.277344 242.152344 234.972656 C 242.917969 234.71875 243.679688 234.589844 244.445312 234.589844 Z M 244.445312 234.589844 "/>
<path style=" stroke:none;fill-rule:nonzero;fill:rgb(19.607843%,36.862745%,39.215686%);fill-opacity:1;" d="M 280.578125 270.722656 C 283.019531 270.644531 285.234375 272.097656 286.152344 274.390625 C 287.144531 276.605469 286.609375 279.203125 284.855469 280.957031 C 283.171875 282.640625 280.578125 283.171875 278.285156 282.179688 C 276.070312 281.265625 274.617188 279.046875 274.617188 276.605469 C 274.617188 275.839844 274.769531 275.078125 275.078125 274.3125 C 275.382812 273.597656 275.816406 272.964844 276.375 272.402344 C 276.933594 271.84375 277.570312 271.410156 278.285156 271.105469 C 279.046875 270.796875 279.8125 270.671875 280.578125 270.722656 Z M 280.578125 270.722656 "/>
<path style=" stroke:none;fill-rule:nonzero;fill:rgb(19.607843%,36.862745%,39.215686%);fill-opacity:1;" d="M 388.972656 270.722656 C 391.417969 270.644531 393.632812 272.097656 394.546875 274.390625 C 395.464844 276.605469 395.007812 279.203125 393.25 280.957031 C 391.570312 282.640625 388.972656 283.171875 386.679688 282.257812 C 384.464844 281.265625 383.015625 279.046875 383.015625 276.679688 C 383.015625 275.867188 383.167969 275.101562 383.472656 274.390625 C 383.777344 273.625 384.183594 272.964844 384.695312 272.402344 C 385.253906 271.84375 385.917969 271.410156 386.679688 271.105469 C 387.394531 270.796875 388.15625 270.671875 388.972656 270.722656 Z M 388.972656 270.722656 "/>
<path style=" stroke:none;fill-rule:nonzero;fill:rgb(19.607843%,36.862745%,39.215686%);fill-opacity:1;" d="M 286.609375 168.4375 C 286.535156 170.882812 285.007812 173.019531 282.792969 173.9375 C 280.5 174.777344 277.902344 174.167969 276.222656 172.410156 C 274.617188 170.652344 274.160156 167.980469 275.152344 165.765625 C 276.222656 163.625 278.4375 162.171875 280.882812 162.328125 C 281.695312 162.328125 282.460938 162.503906 283.171875 162.859375 C 283.886719 163.167969 284.523438 163.597656 285.082031 164.160156 C 285.59375 164.769531 286 165.433594 286.304688 166.144531 C 286.558594 166.910156 286.660156 167.671875 286.609375 168.4375 Z M 286.609375 168.4375 "/>
<path style=" stroke:none;fill-rule:nonzero;fill:rgb(19.607843%,36.862745%,39.215686%);fill-opacity:1;" d="M 389.046875 162.328125 C 391.492188 162.328125 393.707031 163.855469 394.625 166.070312 C 395.542969 168.359375 394.929688 170.957031 393.171875 172.640625 C 391.417969 174.320312 388.820312 174.777344 386.605469 173.785156 C 384.390625 172.792969 382.9375 170.578125 383.015625 168.132812 C 383.015625 167.367188 383.191406 166.605469 383.546875 165.839844 C 383.855469 165.128906 384.285156 164.492188 384.847656 163.929688 C 385.40625 163.421875 386.070312 163.015625 386.832031 162.707031 C 387.546875 162.402344 388.285156 162.277344 389.046875 162.328125 Z M 389.046875 162.328125 "/>
<path style=" stroke:none;fill-rule:nonzero;fill:rgb(19.607843%,36.862745%,39.215686%);fill-opacity:1;" d="M 124.054688 198.382812 C 121.609375 198.382812 119.472656 196.929688 118.554688 194.640625 C 117.640625 192.421875 118.171875 189.828125 119.929688 188.070312 C 121.609375 186.390625 124.207031 185.929688 126.5 186.921875 C 128.714844 187.839844 130.167969 190.054688 130.089844 192.5 C 130.089844 193.316406 129.9375 194.078125 129.632812 194.792969 C 129.328125 195.503906 128.894531 196.140625 128.332031 196.703125 C 127.773438 197.261719 127.109375 197.695312 126.347656 198 C 125.632812 198.304688 124.871094 198.433594 124.054688 198.382812 Z M 124.054688 198.382812 "/>
<path style=" stroke:none;fill-rule:nonzero;fill:rgb(19.607843%,36.862745%,39.215686%);fill-opacity:1;" d="M 124.054688 222.445312 C 121.609375 222.445312 119.472656 220.992188 118.554688 218.703125 C 117.640625 216.484375 118.171875 213.890625 119.929688 212.207031 C 121.609375 210.453125 124.207031 209.992188 126.5 210.984375 C 128.714844 211.902344 130.167969 214.195312 130.089844 216.5625 C 130.089844 217.378906 129.9375 218.140625 129.632812 218.855469 C 129.328125 219.617188 128.894531 220.28125 128.332031 220.839844 C 127.773438 221.347656 127.109375 221.757812 126.347656 222.0625 C 125.632812 222.367188 124.871094 222.496094 124.054688 222.445312 Z M 124.054688 222.445312 "/>
<path style=" stroke:none;fill-rule:nonzero;fill:rgb(19.607843%,36.862745%,39.215686%);fill-opacity:1;" d="M 244.671875 210.453125 C 247.117188 210.527344 249.257812 212.054688 250.097656 214.347656 C 251.015625 216.640625 250.402344 219.160156 248.644531 220.839844 C 246.8125 222.519531 244.214844 222.980469 242 221.910156 C 239.785156 220.917969 238.410156 218.703125 238.484375 216.257812 C 238.535156 215.441406 238.714844 214.679688 239.019531 213.964844 C 239.328125 213.253906 239.785156 212.617188 240.394531 212.054688 C 240.957031 211.546875 241.617188 211.140625 242.382812 210.832031 C 243.09375 210.578125 243.859375 210.453125 244.671875 210.453125 Z M 244.671875 210.453125 "/>
<path style=" stroke:none;fill-rule:nonzero;fill:rgb(19.607843%,36.862745%,39.215686%);fill-opacity:1;" d="M 130.089844 240.703125 C 130.015625 243.144531 128.484375 245.285156 126.269531 246.203125 C 123.980469 247.042969 121.382812 246.429688 119.703125 244.671875 C 118.019531 242.917969 117.640625 240.320312 118.632812 238.105469 C 119.625 235.890625 121.917969 234.4375 124.359375 234.589844 C 125.125 234.589844 125.863281 234.742188 126.578125 235.046875 C 127.339844 235.40625 127.976562 235.863281 128.484375 236.421875 C 129.046875 236.984375 129.453125 237.644531 129.707031 238.410156 C 130.015625 239.171875 130.140625 239.9375 130.089844 240.703125 Z M 130.089844 240.703125 "/>
<path style=" stroke:none;fill-rule:nonzero;fill:rgb(19.607843%,36.862745%,39.215686%);fill-opacity:1;" d="M 136.277344 451.304688 C 138.722656 451.382812 140.859375 452.910156 141.777344 455.125 C 142.617188 457.417969 142.007812 460.015625 140.25 461.695312 C 138.492188 463.375 135.894531 463.757812 133.679688 462.765625 C 131.464844 461.769531 130.089844 459.480469 130.167969 457.035156 C 130.167969 456.269531 130.320312 455.53125 130.625 454.820312 C 130.980469 454.105469 131.441406 453.46875 132 452.910156 C 132.558594 452.347656 133.222656 451.941406 133.984375 451.6875 C 134.699219 451.382812 135.464844 451.253906 136.277344 451.304688 Z M 136.277344 451.304688 "/>
<path style=" stroke:none;fill-rule:nonzero;fill:rgb(19.607843%,36.862745%,39.215686%);fill-opacity:1;" d="M 160.1875 463.296875 C 157.742188 463.296875 155.605469 461.847656 154.6875 459.554688 C 153.769531 457.339844 154.304688 454.742188 156.0625 452.984375 C 157.742188 451.304688 160.339844 450.847656 162.632812 451.839844 C 164.847656 452.757812 166.296875 454.972656 166.222656 457.417969 C 166.222656 458.230469 166.070312 458.996094 165.765625 459.707031 C 165.457031 460.421875 165.027344 461.058594 164.464844 461.617188 C 163.90625 462.179688 163.242188 462.609375 162.480469 462.917969 C 161.765625 463.171875 161.003906 463.296875 160.1875 463.296875 Z M 160.1875 463.296875 "/>
<path style=" stroke:none;fill-rule:nonzero;fill:rgb(19.607843%,36.862745%,39.215686%);fill-opacity:1;" d="M 184.402344 463.296875 C 181.957031 463.375 179.742188 461.921875 178.828125 459.707031 C 177.832031 457.492188 178.292969 454.894531 180.046875 453.140625 C 181.730469 451.382812 184.328125 450.847656 186.542969 451.765625 C 188.832031 452.679688 190.285156 454.820312 190.285156 457.265625 C 190.335938 458.078125 190.207031 458.84375 189.902344 459.554688 C 189.597656 460.320312 189.164062 460.980469 188.605469 461.542969 C 188.042969 462.101562 187.40625 462.535156 186.695312 462.839844 C 185.980469 463.144531 185.21875 463.296875 184.402344 463.296875 Z M 184.402344 463.296875 "/>
<path style=" stroke:none;fill-rule:nonzero;fill:rgb(19.607843%,36.862745%,39.215686%);fill-opacity:1;" d="M 214.347656 457.339844 C 214.347656 459.785156 212.894531 462 210.605469 462.839844 C 208.390625 463.757812 205.792969 463.222656 204.109375 461.464844 C 202.355469 459.707031 201.894531 457.109375 202.890625 454.894531 C 203.882812 452.679688 206.097656 451.230469 208.542969 451.304688 C 209.304688 451.304688 210.070312 451.457031 210.832031 451.765625 C 211.546875 452.070312 212.183594 452.503906 212.742188 453.0625 C 213.304688 453.671875 213.710938 454.335938 213.964844 455.046875 C 214.269531 455.8125 214.398438 456.578125 214.347656 457.339844 Z M 214.347656 457.339844 "/>
<path style=" stroke:none;fill-rule:evenodd;fill:rgb(19.607843%,36.862745%,39.215686%);fill-opacity:1;" d="M 335.042969 204.492188 C 338.9375 204.492188 342.832031 204.417969 346.730469 204.492188 C 350.546875 204.570312 352.765625 206.785156 352.839844 210.605469 C 352.941406 218.496094 352.941406 226.390625 352.839844 234.285156 C 352.765625 238.257812 350.472656 240.472656 346.421875 240.472656 C 338.632812 240.574219 330.867188 240.574219 323.125 240.472656 C 319.078125 240.472656 316.859375 238.179688 316.785156 234.132812 C 316.734375 226.390625 316.734375 218.625 316.785156 210.832031 C 316.859375 206.632812 319.078125 204.492188 323.429688 204.417969 C 327.328125 204.417969 331.144531 204.492188 335.042969 204.492188 Z M 328.929688 228.328125 L 340.617188 228.328125 L 340.617188 216.714844 L 328.929688 216.714844 Z M 328.929688 228.328125 "/>
<path style=" stroke:none;fill-rule:nonzero;fill:rgb(19.607843%,36.862745%,39.215686%);fill-opacity:1;" d="M 359.484375 126.195312 L 383.015625 126.195312 L 383.167969 138.1875 L 359.640625 138.109375 "/>
<path style=" stroke:none;fill-rule:nonzero;fill:rgb(19.607843%,36.862745%,39.215686%);fill-opacity:1;" d="M 105.953125 331.757812 L 105.953125 354.367188 L 94.035156 354.214844 L 94.035156 331.679688 "/>
<path style=" stroke:none;fill-rule:nonzero;fill:rgb(19.607843%,36.862745%,39.215686%);fill-opacity:1;" d="M 455.203125 311.742188 L 455.203125 336.644531 L 443.207031 337.332031 L 443.207031 311.820312 Z M 455.203125 311.742188 "/>
<path style=" stroke:none;fill-rule:nonzero;fill:rgb(19.607843%,36.862745%,39.215686%);fill-opacity:1;" d="M 226.417969 164.3125 L 226.417969 168.515625 L 194.257812 168.515625 L 194.257812 156.292969 L 220.304688 156.292969 C 228.480469 156.292969 226.417969 164.3125 226.417969 164.3125 Z M 226.417969 164.3125 "/>
<path style=" stroke:none;fill-rule:nonzero;fill:rgb(19.607843%,36.862745%,39.215686%);fill-opacity:1;" d="M 340.3125 439.234375 L 339.703125 427.242188 L 365.902344 427.242188 L 366.054688 439.234375 Z M 340.3125 439.234375 "/>
<path style=" stroke:none;fill-rule:nonzero;fill:rgb(19.607843%,36.862745%,39.215686%);fill-opacity:1;" d="M 189.445312 439.160156 L 189.519531 427.167969 L 215.035156 427.242188 L 215.109375 439.234375 Z M 189.445312 439.160156 "/>
</g>
</svg>
