<?xml version="1.0" encoding="UTF-8"?>
<svg xmlns="http://www.w3.org/2000/svg" xmlns:xlink="http://www.w3.org/1999/xlink" width="550px" height="px" viewBox="0 0 550 550" version="1.1">
<g id="surface1">
<path style=" stroke:none;fill-rule:evenodd;fill:rgb(19.607843%,36.862745%,39.215686%);fill-opacity:1;" d="M 99.039062 132.859375 C 99.039062 125.570312 100.71875 123.953125 108.007812 123.953125 L 378.023438 123.953125 C 385.5 123.953125 387.054688 125.570312 387.054688 133.171875 C 387.054688 190.308594 387.035156 247.449219 386.992188 304.585938 C 386.992188 307.824219 387.988281 309.320312 390.855469 310.753906 C 424.492188 328.503906 444.234375 356.097656 448.96875 393.96875 C 455.507812 447.414062 419.820312 499.546875 363.324219 510.386719 C 332.117188 516.363281 303.589844 509.203125 278.238281 490.015625 C 277.65625 489.558594 277.054688 489.125 276.433594 488.707031 C 275.808594 488.375 275.144531 488.085938 274.4375 487.835938 C 273.734375 487.628906 273.007812 487.464844 272.257812 487.339844 C 271.59375 487.214844 270.890625 487.152344 270.140625 487.152344 C 216.035156 487.277344 161.886719 487.296875 107.695312 487.214844 C 100.71875 487.214844 99.039062 485.46875 99.039062 478.429688 Z M 111.804688 136.660156 L 111.804688 474.507812 L 261.734375 474.507812 C 260.796875 473.199219 260.175781 472.328125 259.429688 471.394531 C 257.640625 469.066406 255.917969 466.660156 254.257812 464.167969 C 252.640625 461.71875 251.101562 459.183594 249.648438 456.570312 C 248.238281 453.992188 246.929688 451.335938 245.726562 448.59375 C 244.5625 445.898438 243.503906 443.136719 242.546875 440.3125 C 241.675781 437.632812 240.429688 437.074219 237.875 437.074219 C 205.652344 437.15625 173.429688 437.15625 141.207031 437.074219 L 136.910156 437.074219 L 136.910156 424.550781 L 238 424.550781 C 237.441406 416.082031 236.941406 407.921875 236.382812 399.386719 L 136.847656 399.386719 L 136.847656 387.054688 L 142.453125 387.054688 C 173.222656 387.054688 203.992188 387.035156 234.761719 386.992188 C 236.132812 386.992188 238.375 386.121094 238.75 385.1875 C 241.179688 377.585938 243.234375 369.863281 245.539062 361.765625 L 136.847656 361.765625 L 136.847656 349.496094 L 141.640625 349.496094 C 175.402344 349.496094 209.222656 349.246094 243.046875 349.621094 C 249.898438 349.746094 254.382812 348.4375 258.308594 342.207031 C 262.417969 335.730469 268.335938 330.5 273.753906 324.332031 L 136.910156 324.332031 L 136.910156 311.875 L 141.890625 311.875 C 190.683594 311.875 239.476562 311.855469 288.265625 311.8125 C 289.015625 311.769531 289.78125 311.730469 290.570312 311.6875 C 291.320312 311.5625 292.066406 311.417969 292.8125 311.25 C 293.5625 311.042969 294.308594 310.835938 295.054688 310.628906 C 295.761719 310.335938 296.46875 310.046875 297.175781 309.757812 C 315.550781 301.160156 334.796875 297.609375 354.914062 300.039062 C 361.457031 300.847656 367.871094 302.21875 374.347656 303.402344 L 374.347656 136.660156 Z M 249.273438 405.554688 C 249.214844 457.128906 291.382812 499.671875 342.832031 499.796875 C 394.53125 499.984375 436.886719 457.875 437.195312 406.054688 C 437.507812 354.664062 395.152344 312 343.703125 311.875 C 291.878906 311.75 249.398438 353.855469 249.273438 405.554688 Z M 249.273438 405.554688 "/>
<path style=" stroke:none;fill-rule:evenodd;fill:rgb(19.607843%,36.862745%,39.215686%);fill-opacity:1;" d="M 144.945312 286.773438 C 138.464844 286.773438 136.597656 284.902344 136.597656 278.363281 L 136.597656 157.402344 C 136.597656 150.859375 138.464844 149.054688 144.945312 149.054688 L 341.398438 149.054688 C 347.566406 149.054688 349.496094 150.984375 349.496094 157.214844 C 349.496094 197.699219 349.496094 238.167969 349.496094 278.613281 C 349.496094 284.902344 347.566406 286.773438 341.398438 286.773438 Z M 149.367188 274.066406 L 336.789062 274.066406 L 336.789062 161.824219 L 149.367188 161.824219 Z M 149.367188 274.066406 "/>
<path style=" stroke:none;fill-rule:evenodd;fill:rgb(19.607843%,36.862745%,39.215686%);fill-opacity:1;" d="M 285.589844 467.09375 L 276.433594 457.9375 C 280.792969 453.453125 284.902344 448.71875 289.574219 444.671875 C 291.007812 443.425781 293.996094 443.675781 296.238281 443.425781 C 298.171875 443.238281 300.101562 443.425781 302.21875 443.425781 C 301.472656 439.75 300.910156 436.386719 299.914062 433.023438 C 299.832031 432.691406 299.664062 432.421875 299.417969 432.214844 C 299.210938 431.964844 299 431.757812 298.792969 431.589844 C 298.503906 431.425781 298.234375 431.28125 297.984375 431.15625 C 297.652344 431.03125 297.339844 430.925781 297.050781 430.84375 C 291.753906 430.71875 286.398438 430.78125 280.855469 430.78125 L 280.855469 418.386719 C 285.960938 418.386719 291.070312 418.199219 296.179688 418.449219 C 299.105469 418.574219 300.039062 417.578125 300.289062 414.773438 C 300.664062 411.847656 301.535156 408.917969 302.40625 405.242188 C 288.890625 409.605469 284.09375 398.203125 276.183594 391.664062 L 286.335938 382.632812 C 288.203125 384.8125 290.695312 387.617188 293 390.480469 C 293.375 391.019531 293.8125 391.476562 294.308594 391.851562 C 294.808594 392.265625 295.367188 392.597656 295.992188 392.847656 C 296.574219 393.140625 297.195312 393.304688 297.859375 393.347656 C 298.523438 393.386719 299.167969 393.367188 299.789062 393.285156 C 300.121094 393.242188 300.433594 393.203125 300.726562 393.160156 C 301.058594 393.117188 301.390625 393.097656 301.722656 393.097656 C 302.054688 393.097656 302.386719 393.117188 302.71875 393.160156 C 303.007812 393.203125 303.339844 393.242188 303.714844 393.285156 C 308.882812 394.53125 311.125 390.730469 313.617188 387.492188 C 314.054688 386.867188 313.804688 385.5625 313.492188 384.625 C 309.945312 372.976562 312 362.453125 320.222656 353.359375 C 321.714844 351.738281 321.40625 350.617188 320.28125 349.058594 C 319.410156 347.8125 318.457031 346.628906 317.417969 345.507812 C 316.339844 344.386719 315.195312 343.351562 313.992188 342.394531 C 312.789062 341.441406 311.542969 340.566406 310.253906 339.777344 C 308.925781 338.988281 307.578125 338.304688 306.207031 337.722656 C 304.152344 336.914062 303.589844 335.980469 304.398438 333.863281 C 305.582031 331.058594 306.457031 328.070312 307.515625 324.832031 C 309.839844 325.496094 312.0625 326.367188 314.179688 327.445312 C 316.339844 328.527344 318.371094 329.792969 320.28125 331.246094 C 322.234375 332.65625 324.042969 334.234375 325.703125 335.980469 C 327.363281 337.683594 328.859375 339.53125 330.1875 341.523438 C 332.054688 344.203125 333.550781 344.574219 336.726562 344.140625 C 337.890625 343.972656 339.074219 343.847656 340.277344 343.765625 C 341.480469 343.683594 342.6875 343.660156 343.890625 343.703125 C 345.054688 343.703125 346.234375 343.765625 347.441406 343.890625 C 348.644531 343.972656 349.828125 344.117188 350.992188 344.324219 C 353.171875 344.574219 354.105469 344.324219 355.351562 342.582031 C 356.722656 340.503906 358.277344 338.535156 360.023438 336.664062 C 361.726562 334.835938 363.574219 333.175781 365.566406 331.683594 C 367.519531 330.1875 369.613281 328.859375 371.855469 327.695312 C 374.101562 326.53125 376.40625 325.578125 378.769531 324.832031 C 379.953125 328.316406 381.324219 331.558594 382.136719 334.921875 C 382.257812 335.667969 380.890625 337.226562 379.890625 337.722656 C 373.101562 341.085938 368.246094 345.324219 365.003906 351.179688 C 367.246094 354.726562 369.925781 358.03125 371.671875 361.703125 C 372.542969 363.449219 373.207031 365.253906 373.664062 367.125 C 374.160156 368.949219 374.472656 370.839844 374.597656 372.792969 C 374.722656 374.703125 374.660156 376.632812 374.410156 378.585938 C 374.160156 380.453125 373.726562 382.300781 373.101562 384.128906 C 372.042969 387.429688 376.03125 393.160156 379.519531 393.285156 C 380.265625 393.285156 381.054688 393.304688 381.886719 393.347656 C 382.675781 393.347656 383.441406 393.347656 384.191406 393.347656 C 385.019531 393.347656 385.808594 393.324219 386.558594 393.285156 C 387.347656 393.285156 388.113281 393.261719 388.863281 393.222656 C 389.234375 393.179688 389.589844 393.097656 389.921875 392.972656 C 390.210938 392.890625 390.523438 392.765625 390.855469 392.597656 C 391.144531 392.472656 391.4375 392.308594 391.726562 392.101562 C 391.976562 391.894531 392.246094 391.664062 392.535156 391.414062 C 395.464844 388.488281 398.203125 385.375 401.007812 382.445312 L 410.289062 391.476562 C 405.929688 395.777344 401.878906 400.324219 397.394531 404.121094 C 395.777344 405.492188 392.847656 405.492188 390.417969 405.742188 C 389.921875 405.785156 389.421875 405.804688 388.925781 405.804688 C 388.425781 405.84375 387.925781 405.867188 387.429688 405.867188 C 386.929688 405.867188 386.410156 405.867188 385.871094 405.867188 C 385.375 405.824219 384.875 405.804688 384.378906 405.804688 C 385.125 409.542969 385.621094 413.03125 386.683594 416.457031 C 386.929688 417.328125 388.675781 418.199219 389.796875 418.261719 C 395.027344 418.449219 400.261719 418.386719 405.679688 418.386719 L 405.679688 430.84375 C 400.449219 430.84375 395.277344 430.96875 390.167969 430.84375 C 387.742188 430.78125 386.621094 431.40625 386.308594 434.019531 C 385.996094 437.136719 385.0625 440.0625 384.4375 443.175781 C 389.359375 444.546875 395.089844 441.496094 399.324219 446.539062 C 402.691406 450.464844 406.675781 453.890625 410.414062 457.691406 L 401.007812 467.03125 C 398.515625 464.230469 395.960938 461.675781 393.65625 458.8125 C 391.789062 456.445312 389.484375 456.070312 386.558594 455.882812 C 380.890625 455.449219 377.089844 456.941406 372.976562 461.550781 C 356.160156 480.613281 326.324219 478.867188 310.941406 458.5 C 310.648438 458.125 310.316406 457.773438 309.945312 457.441406 C 309.570312 457.109375 309.175781 456.839844 308.761719 456.628906 C 308.304688 456.339844 307.824219 456.152344 307.328125 456.070312 C 306.828125 455.945312 306.332031 455.882812 305.832031 455.882812 C 298.792969 454.886719 293.1875 456.878906 289.078125 462.796875 C 287.957031 464.167969 286.898438 465.476562 285.589844 467.09375 Z M 336.726562 461.117188 L 336.726562 412.03125 C 329.6875 412.03125 322.898438 412.09375 316.171875 411.96875 C 313.742188 411.910156 313.429688 413.277344 313.058594 415.023438 C 310.378906 428.351562 312.808594 440.621094 321.40625 451.335938 C 322.359375 452.582031 323.417969 453.722656 324.582031 454.761719 C 325.703125 455.757812 326.925781 456.691406 328.257812 457.566406 C 329.542969 458.394531 330.914062 459.101562 332.367188 459.683594 C 333.777344 460.304688 335.230469 460.785156 336.726562 461.117188 Z M 349.621094 461.238281 C 351.613281 460.492188 353.359375 460.054688 354.914062 459.246094 C 371.046875 451.398438 377.648438 430.035156 373.039062 413.902344 C 372.917969 413.652344 372.769531 413.425781 372.605469 413.214844 C 372.480469 413.007812 372.3125 412.84375 372.105469 412.71875 C 371.855469 412.550781 371.628906 412.40625 371.421875 412.28125 C 371.171875 412.199219 370.945312 412.117188 370.734375 412.03125 C 363.820312 412.03125 356.96875 412.03125 349.621094 412.03125 Z M 360.957031 378.523438 C 363.449219 371.671875 360.210938 363.199219 353.730469 358.839844 C 352.050781 357.71875 350.179688 356.847656 348.125 356.285156 C 346.195312 355.785156 344.140625 355.539062 342.082031 355.664062 C 340.027344 355.847656 338.035156 356.285156 336.105469 357.09375 C 334.234375 357.90625 332.492188 359.027344 330.933594 360.394531 C 325.328125 365.378906 322.960938 373.289062 325.765625 378.523438 C 337.351562 373.101562 348.996094 373.039062 360.957031 378.648438 Z M 320.65625 399.203125 C 320.699219 399.203125 320.71875 399.203125 320.71875 399.203125 Z M 365.816406 399.078125 C 356.347656 383.195312 330.3125 383.195312 320.71875 399.078125 Z M 365.816406 399.078125 "/>
<path style=" stroke:none;fill-rule:evenodd;fill:rgb(19.607843%,36.862745%,39.215686%);fill-opacity:1;" d="M 255.253906 205.363281 L 243.296875 205.363281 L 243.296875 192.96875 L 255.566406 192.96875 L 255.566406 174.28125 L 268.023438 174.28125 L 268.023438 192.71875 L 280.417969 192.71875 L 280.417969 174.40625 L 292.9375 174.40625 L 292.9375 192.71875 L 305.394531 192.71875 L 305.394531 205.238281 L 293.375 205.238281 L 293.375 230.339844 L 305.457031 230.339844 L 305.457031 242.796875 L 293.1875 242.796875 L 293.1875 261.546875 L 280.730469 261.546875 L 280.730469 243.171875 L 268.273438 243.171875 L 268.273438 261.421875 L 255.753906 261.421875 L 255.753906 243.171875 L 243.296875 243.171875 L 243.296875 230.589844 L 255.253906 230.589844 Z M 268.335938 230.277344 L 280.355469 230.277344 L 280.355469 205.613281 L 268.335938 205.613281 Z M 268.335938 230.277344 "/>
<path style=" stroke:none;fill-rule:nonzero;fill:rgb(19.607843%,36.862745%,39.215686%);fill-opacity:1;" d="M 218.257812 236.816406 L 230.027344 236.816406 C 231.460938 246.472656 223.300781 257.621094 212.710938 260.796875 C 208.914062 261.917969 204.988281 262.105469 201.1875 261.421875 C 197.328125 260.796875 193.714844 259.242188 190.601562 256.9375 C 187.484375 254.632812 184.933594 251.578125 183.1875 248.152344 C 181.445312 244.664062 180.507812 240.867188 180.449219 236.878906 C 180.363281 224.132812 180.363281 211.363281 180.449219 198.574219 C 180.632812 192.09375 183.375 185.929688 187.984375 181.382812 C 192.65625 176.773438 198.882812 174.21875 205.363281 174.21875 C 211.902344 174.21875 218.195312 176.710938 222.863281 181.257812 C 227.535156 185.804688 230.277344 191.96875 230.527344 198.511719 C 230.527344 200.566406 230.527344 202.621094 230.527344 205.050781 L 217.945312 205.050781 C 217.945312 203.246094 218.007812 201.3125 217.945312 199.445312 C 217.632812 192.09375 212.214844 186.550781 205.363281 186.613281 C 198.636719 186.613281 193.03125 192.09375 192.96875 199.507812 C 192.84375 211.40625 192.90625 223.238281 192.96875 235.074219 C 192.96875 242.859375 197.265625 248.214844 204.304688 249.089844 C 210.53125 249.835938 216.011719 245.539062 217.882812 238.3125 C 217.945312 237.9375 218.070312 237.566406 218.257812 236.816406 Z M 218.257812 236.816406 "/>
</g>
</svg>
