<?xml version="1.0" encoding="UTF-8"?>
<svg xmlns="http://www.w3.org/2000/svg" xmlns:xlink="http://www.w3.org/1999/xlink" width="550px" height="px" viewBox="0 0 550 550" version="1.1">
<g id="surface1">
<path style="fill-rule:nonzero;fill:rgb(19.607843%,36.862745%,39.215686%);fill-opacity:1;stroke-width:0.6;stroke-linecap:butt;stroke-linejoin:miter;stroke:rgb(19.607843%,36.862745%,39.215686%);stroke-opacity:1;stroke-miterlimit:4;" d="M 608.998295 188.601136 L 608.998295 503.299432 C 608.998295 506.597727 608.297727 509.998295 606.998864 513.102273 C 605.7 516.201136 603.9 518.998295 601.501705 521.401705 C 599.098295 523.8 596.301136 525.6 593.202273 526.898864 C 590.001136 528.197727 586.697727 528.898295 583.399432 528.898295 L 137.597727 528.898295 C 134.299432 528.898295 130.898864 528.197727 127.8 526.898864 C 124.701136 525.6 121.898864 523.8 119.500568 521.401705 C 117.102273 518.998295 115.2 516.201136 113.998295 513.102273 C 112.699432 509.998295 111.998864 506.597727 111.998864 503.299432 L 111.998864 188.601136 C 111.998864 185.297727 112.699432 181.902273 113.998295 178.798295 C 115.2 175.699432 117.102273 172.902273 119.500568 170.498864 C 121.898864 168.100568 124.701136 166.300568 127.8 165.001705 C 130.898864 163.697727 134.299432 163.002273 137.597727 163.002273 L 177.197727 163.002273 L 177.197727 177.898295 L 137.597727 177.898295 C 136.201705 177.898295 134.800568 178.2 133.501705 178.798295 C 132.197727 179.299432 131.098295 180.102273 130.101136 181.099432 C 129.098864 182.101705 128.301136 183.201136 127.8 184.5 C 127.201705 185.798864 126.9 187.2 126.9 188.601136 L 126.9 503.299432 C 126.9 504.700568 127.201705 506.101705 127.8 507.400568 C 128.301136 508.602273 129.098864 509.798864 130.101136 510.801136 C 131.098295 511.798295 132.197727 512.601136 133.501705 513.102273 C 134.800568 513.700568 136.201705 514.002273 137.597727 514.002273 L 583.399432 514.002273 C 584.800568 514.002273 586.099432 513.700568 587.398295 513.102273 C 588.702273 512.601136 589.898864 511.798295 590.901136 510.801136 C 591.898295 509.798864 592.701136 508.602273 593.202273 507.400568 C 593.800568 506.101705 594.102273 504.700568 594.102273 503.299432 L 594.102273 188.601136 C 594.102273 187.2 593.800568 185.798864 593.202273 184.5 C 592.701136 183.201136 591.898295 182.101705 590.901136 181.099432 C 589.898864 180.102273 588.702273 179.299432 587.398295 178.798295 C 586.099432 178.2 584.800568 177.898295 583.399432 177.898295 L 531.398864 177.898295 L 531.501136 163.002273 L 583.399432 163.002273 C 586.697727 163.002273 590.098295 163.697727 593.202273 165.001705 C 596.301136 166.198295 599.098295 168.100568 601.501705 170.498864 C 603.9 172.902273 605.7 175.699432 606.998864 178.798295 C 608.297727 181.902273 608.998295 185.297727 608.998295 188.601136 Z M 608.998295 188.601136 " transform="matrix(0.763889,0,0,0.763889,0,0)"/>
<path style="fill-rule:nonzero;fill:rgb(19.607843%,36.862745%,39.215686%);fill-opacity:1;stroke-width:0.6;stroke-linecap:butt;stroke-linejoin:miter;stroke:rgb(19.607843%,36.862745%,39.215686%);stroke-opacity:1;stroke-miterlimit:4;" d="M 583.000568 203.200568 L 583.000568 452.899432 L 138.001705 452.899432 L 138.001705 203.200568 L 174.001705 203.4 L 174.001705 218.301136 L 152.897727 218.101705 L 152.897727 437.901136 L 189.398864 437.901136 L 189.398864 440.897727 L 546.698864 440.897727 L 546.698864 437.901136 L 568.099432 437.901136 L 568.099432 218.101705 L 531.398864 218.101705 L 531.398864 203.200568 Z M 583.000568 203.200568 " transform="matrix(0.763889,0,0,0.763889,0,0)"/>
<path style="fill-rule:evenodd;fill:rgb(19.607843%,36.862745%,39.215686%);fill-opacity:1;stroke-width:0.6;stroke-linecap:butt;stroke-linejoin:miter;stroke:rgb(19.607843%,36.862745%,39.215686%);stroke-opacity:1;stroke-miterlimit:4;" d="M 280.201705 603.598295 C 278.897727 603.598295 277.501705 603.199432 276.3 602.498864 C 275.200568 601.798295 274.198295 600.801136 273.6 599.502273 C 273.001705 598.300568 272.7 597.001705 272.802273 595.600568 C 272.899432 594.199432 273.298295 592.900568 274.101136 591.801136 L 276.698864 588.001705 C 291.098864 567.598295 297.501136 544.801705 295.2 522.199432 C 295.097727 521.1 295.2 520.097727 295.501705 519.100568 C 295.900568 518.098295 296.401705 517.198295 297.102273 516.400568 C 297.797727 515.597727 298.697727 514.999432 299.597727 514.600568 C 300.6 514.201705 301.602273 513.9 302.701705 514.002273 L 418.397727 514.002273 C 419.4 514.002273 420.499432 514.201705 421.399432 514.600568 C 422.401705 514.999432 423.199432 515.597727 423.9 516.400568 C 424.600568 517.198295 425.198864 518.098295 425.500568 519.100568 C 425.802273 520.097727 425.899432 521.1 425.802273 522.199432 C 423.598295 544.801705 429.898295 567.598295 444.298295 588.001705 L 446.901136 591.801136 C 447.698864 592.900568 448.2 594.199432 448.302273 595.600568 C 448.302273 597.001705 448.097727 598.300568 447.402273 599.502273 C 446.798864 600.801136 445.801705 601.798295 444.702273 602.498864 C 443.500568 603.199432 442.201705 603.598295 440.800568 603.598295 Z M 310.5 528.898295 C 311.001136 549.398864 305.401705 569.802273 294.100568 588.6 L 426.799432 588.6 C 415.498295 569.802273 409.898864 549.398864 410.4 528.898295 Z M 310.5 528.898295 " transform="matrix(0.763889,0,0,0.763889,0,0)"/>
<path style="fill-rule:evenodd;fill:rgb(19.607843%,36.862745%,39.215686%);fill-opacity:1;stroke-width:0.6;stroke-linecap:butt;stroke-linejoin:miter;stroke:rgb(19.607843%,36.862745%,39.215686%);stroke-opacity:1;stroke-miterlimit:4;" d="M 460.201705 637.2 L 260.800568 637.2 C 254.398295 637.2 248.200568 634.602273 243.598295 630.102273 C 239.098295 625.5 236.500568 619.302273 236.500568 612.9 C 236.500568 606.497727 239.098295 600.3 243.598295 595.697727 C 248.200568 591.197727 254.398295 588.6 260.800568 588.6 L 460.201705 588.6 C 466.598864 588.6 472.801705 591.197727 477.301705 595.697727 C 481.898864 600.3 484.399432 606.497727 484.399432 612.9 C 484.399432 619.302273 481.898864 625.5 477.301705 630.102273 C 472.801705 634.602273 466.598864 637.2 460.201705 637.2 Z M 260.800568 603.598295 C 258.3 603.598295 255.998864 604.498295 254.198864 606.298295 C 252.501136 608.001136 251.498864 610.399432 251.498864 612.9 C 251.498864 615.400568 252.501136 617.701705 254.198864 619.501705 C 255.998864 621.199432 258.3 622.201705 260.800568 622.201705 L 460.201705 622.201705 C 462.702273 622.201705 464.998295 621.199432 466.798295 619.501705 C 468.501136 617.701705 469.498295 615.400568 469.498295 612.9 C 469.498295 610.399432 468.501136 608.001136 466.798295 606.298295 C 464.998295 604.498295 462.702273 603.598295 460.201705 603.598295 Z M 260.800568 603.598295 " transform="matrix(0.763889,0,0,0.763889,0,0)"/>
<path style="fill-rule:nonzero;fill:rgb(19.607843%,36.862745%,39.215686%);fill-opacity:1;stroke-width:0.6;stroke-linecap:butt;stroke-linejoin:miter;stroke:rgb(19.607843%,36.862745%,39.215686%);stroke-opacity:1;stroke-miterlimit:4;" d="M 174.001705 203.297727 L 531.398864 203.297727 L 531.398864 218.198864 L 174.001705 218.198864 Z M 174.001705 203.297727 " transform="matrix(0.763889,0,0,0.763889,0,0)"/>
<path style="fill-rule:nonzero;fill:rgb(19.607843%,36.862745%,39.215686%);fill-opacity:1;stroke-width:0.6;stroke-linecap:butt;stroke-linejoin:miter;stroke:rgb(19.607843%,36.862745%,39.215686%);stroke-opacity:1;stroke-miterlimit:4;" d="M 177.197727 177.898295 L 177.197727 163.002273 L 531.501136 163.002273 L 531.398864 177.898295 Z M 177.197727 177.898295 " transform="matrix(0.763889,0,0,0.763889,0,0)"/>
<path style=" stroke:none;fill-rule:nonzero;fill:rgb(19.607843%,36.862745%,39.215686%);fill-opacity:1;" d="M 224.355469 274.234375 L 234.820312 274.234375 C 235.046875 283.480469 232.222656 291.578125 227.027344 298.910156 C 215.875 314.492188 196.546875 320.832031 178.597656 314.953125 C 160.875 309.144531 149.109375 292.722656 149.109375 273.777344 C 149.109375 259.570312 149.109375 245.359375 149.109375 231.152344 C 149.109375 209.078125 166.222656 190.132812 187.765625 188.296875 C 210.605469 186.390625 230.542969 201.667969 234.359375 224.125 C 234.667969 226.265625 234.820312 228.480469 235.125 230.921875 L 225.578125 230.921875 C 223.132812 224.734375 221.605469 218.394531 218.394531 213.203125 C 211.445312 201.894531 197.464844 196.777344 184.785156 199.832031 C 171.1875 203.117188 161.027344 213.660156 160.265625 228.171875 C 160.007812 232.453125 159.832031 236.703125 159.730469 240.929688 C 159.628906 245.207031 159.601562 249.484375 159.652344 253.765625 C 159.703125 258.042969 159.804688 262.320312 159.957031 266.597656 C 160.109375 270.875 160.339844 275.128906 160.644531 279.355469 C 161.714844 294.632812 176.457031 306.320312 192.042969 306.320312 C 207.625 306.242188 221.375 294.554688 223.667969 279.277344 C 223.894531 277.75 224.125 276.144531 224.355469 274.234375 Z M 224.355469 274.234375 "/>
<path style=" stroke:none;fill-rule:nonzero;fill:rgb(19.607843%,36.862745%,39.215686%);fill-opacity:1;" d="M 275.535156 180.582031 L 417.464844 180.582031 L 417.464844 188.984375 L 275.535156 188.984375 Z M 275.535156 180.582031 "/>
<path style=" stroke:none;fill-rule:nonzero;fill:rgb(19.607843%,36.862745%,39.215686%);fill-opacity:1;" d="M 275.535156 198.152344 L 417.542969 198.152344 L 417.542969 206.554688 L 275.535156 206.554688 Z M 275.535156 198.152344 "/>
<path style=" stroke:none;fill-rule:nonzero;fill:rgb(19.607843%,36.862745%,39.215686%);fill-opacity:1;" d="M 275.6875 294.632812 L 417.464844 294.632812 L 417.464844 303.035156 L 275.6875 303.035156 Z M 275.6875 294.632812 "/>
<path style=" stroke:none;fill-rule:nonzero;fill:rgb(19.607843%,36.862745%,39.215686%);fill-opacity:1;" d="M 275.535156 312.125 L 417.542969 312.125 L 417.542969 320.527344 L 275.535156 320.527344 Z M 275.535156 312.125 "/>
<path style=" stroke:none;fill-rule:nonzero;fill:rgb(19.607843%,36.862745%,39.215686%);fill-opacity:1;" d="M 336.339844 215.570312 L 370.257812 215.570312 C 370.257812 218.089844 370.332031 220.609375 370.105469 223.054688 C 370.105469 223.515625 368.5 224.203125 367.660156 224.203125 C 358.085938 224.304688 348.511719 224.304688 338.9375 224.203125 C 338.097656 224.203125 336.570312 223.359375 336.492188 222.828125 C 336.1875 220.457031 336.339844 218.167969 336.339844 215.570312 Z M 336.339844 215.570312 "/>
<path style=" stroke:none;fill-rule:nonzero;fill:rgb(19.607843%,36.862745%,39.215686%);fill-opacity:1;" d="M 383.855469 215.570312 L 417.695312 215.570312 C 417.695312 218.089844 417.847656 220.609375 417.617188 223.132812 C 417.542969 223.515625 416.015625 224.203125 415.097656 224.203125 C 405.523438 224.304688 395.949219 224.304688 386.375 224.203125 C 385.535156 224.203125 384.007812 223.359375 383.929688 222.828125 C 383.703125 220.457031 383.855469 218.167969 383.855469 215.570312 Z M 383.855469 215.570312 "/>
<path style=" stroke:none;fill-rule:nonzero;fill:rgb(19.607843%,36.862745%,39.215686%);fill-opacity:1;" d="M 336.339844 276.910156 L 370.257812 276.910156 C 370.257812 279.429688 370.332031 281.953125 370.105469 284.472656 C 370.105469 284.855469 368.5 285.542969 367.660156 285.617188 C 358.085938 285.667969 348.511719 285.667969 338.9375 285.617188 C 338.097656 285.617188 336.570312 284.777344 336.492188 284.242188 C 336.1875 281.875 336.339844 279.507812 336.339844 276.910156 Z M 336.339844 276.910156 "/>
<path style=" stroke:none;fill-rule:nonzero;fill:rgb(19.607843%,36.862745%,39.215686%);fill-opacity:1;" d="M 383.855469 285.464844 C 383.804688 284.90625 383.777344 284.320312 383.777344 283.707031 C 383.777344 283.097656 383.777344 282.511719 383.777344 281.953125 C 383.777344 281.339844 383.804688 280.730469 383.855469 280.117188 C 383.855469 279.507812 383.878906 278.921875 383.929688 278.359375 C 384.007812 277.828125 385.535156 276.984375 386.375 276.984375 C 395.949219 276.882812 405.523438 276.882812 415.097656 276.984375 C 416.015625 276.984375 417.542969 277.828125 417.617188 278.359375 C 417.617188 278.921875 417.644531 279.507812 417.695312 280.117188 C 417.746094 280.730469 417.769531 281.316406 417.769531 281.875 C 417.769531 282.484375 417.769531 283.097656 417.769531 283.707031 C 417.769531 284.320312 417.746094 284.90625 417.695312 285.464844 Z M 383.855469 285.464844 "/>
</g>
</svg>
