<?xml version="1.0" encoding="UTF-8"?>
<svg xmlns="http://www.w3.org/2000/svg" xmlns:xlink="http://www.w3.org/1999/xlink" width="550px" height="px" viewBox="0 0 550 550" version="1.1">
<g id="surface1">
<path style="fill-rule:nonzero;fill:rgb(19.607843%,36.862745%,39.215686%);fill-opacity:1;stroke-width:0.6;stroke-linecap:butt;stroke-linejoin:miter;stroke:rgb(19.607843%,36.862745%,39.215686%);stroke-opacity:1;stroke-miterlimit:4;" d="M 608.001136 188.601136 L 608.001136 502.598864 C 608.001136 505.902273 607.300568 509.297727 606.001705 512.401705 C 604.8 515.500568 602.897727 518.297727 600.499432 520.701136 C 598.101136 523.002273 595.298864 524.899432 592.2 526.198295 C 589.101136 527.502273 585.797727 528.197727 582.402273 528.197727 L 137.597727 528.197727 C 134.202273 528.197727 130.898864 527.502273 127.8 526.198295 C 124.701136 524.899432 121.898864 523.002273 119.500568 520.701136 C 117.102273 518.297727 115.2 515.500568 113.998295 512.401705 C 112.699432 509.297727 111.998864 505.902273 111.998864 502.598864 L 111.998864 188.601136 C 111.998864 185.200568 112.699432 181.902273 113.998295 178.798295 C 115.2 175.699432 117.102273 172.902273 119.500568 170.498864 C 121.898864 168.100568 124.701136 166.198295 127.8 165.001705 C 130.898864 163.697727 134.202273 163.002273 137.597727 163.002273 L 177.100568 163.002273 L 177.100568 177.898295 L 137.597727 177.898295 C 136.201705 177.898295 134.800568 178.2 133.501705 178.701136 C 132.197727 179.299432 131.001136 180 129.998864 181.002273 C 129.001705 181.999432 128.301136 183.201136 127.697727 184.5 C 127.201705 185.798864 126.9 187.2 126.9 188.601136 L 126.9 502.598864 C 126.9 504 127.201705 505.401136 127.697727 506.7 C 128.301136 507.998864 129.001705 509.098295 129.998864 510.100568 C 131.001136 511.097727 132.197727 511.900568 133.501705 512.401705 C 134.800568 513 136.201705 513.301705 137.597727 513.301705 L 582.402273 513.301705 C 583.798295 513.301705 585.199432 513 586.498295 512.401705 C 587.802273 511.900568 588.998864 511.097727 590.001136 510.100568 C 590.998295 509.098295 591.698864 507.998864 592.302273 506.7 C 592.798295 505.401136 593.1 504 593.1 502.598864 L 593.1 188.601136 C 593.1 187.2 592.798295 185.798864 592.302273 184.5 C 591.698864 183.201136 590.998295 181.999432 590.001136 181.002273 C 588.998864 180 587.802273 179.299432 586.498295 178.701136 C 585.199432 178.2 583.798295 177.898295 582.402273 177.898295 L 530.601136 177.898295 L 530.601136 163.002273 L 582.402273 163.002273 C 585.797727 163.002273 589.101136 163.697727 592.2 165.001705 C 595.298864 166.198295 598.101136 168.100568 600.499432 170.498864 C 602.897727 172.902273 604.8 175.699432 606.001705 178.798295 C 607.300568 181.902273 608.001136 185.200568 608.001136 188.601136 Z M 608.001136 188.601136 " transform="matrix(0.763889,0,0,0.763889,0,0)"/>
<path style="fill-rule:nonzero;fill:rgb(19.607843%,36.862745%,39.215686%);fill-opacity:1;stroke-width:0.6;stroke-linecap:butt;stroke-linejoin:miter;stroke:rgb(19.607843%,36.862745%,39.215686%);stroke-opacity:1;stroke-miterlimit:4;" d="M 582.100568 203.098295 L 582.100568 452.301136 L 137.899432 452.301136 L 137.899432 203.098295 L 173.899432 203.297727 L 173.899432 218.198864 L 152.800568 217.999432 L 152.800568 437.4 L 189.301705 437.4 L 189.301705 440.401705 L 545.901136 440.401705 L 545.901136 437.4 L 567.199432 437.4 L 567.199432 217.999432 L 530.601136 217.999432 L 530.601136 203.098295 Z M 582.100568 203.098295 " transform="matrix(0.763889,0,0,0.763889,0,0)"/>
<path style="fill-rule:evenodd;fill:rgb(19.607843%,36.862745%,39.215686%);fill-opacity:1;stroke-width:0.6;stroke-linecap:butt;stroke-linejoin:miter;stroke:rgb(19.607843%,36.862745%,39.215686%);stroke-opacity:1;stroke-miterlimit:4;" d="M 279.9 602.698295 C 278.498864 602.698295 277.2 602.299432 275.998295 601.598864 C 274.898864 600.898295 273.901705 599.901136 273.298295 598.699432 C 272.7 597.497727 272.398295 596.101705 272.500568 594.700568 C 272.500568 593.401705 273.001705 592.097727 273.799432 590.998295 L 276.402273 587.198864 C 290.7 566.800568 297.102273 543.998864 294.801136 521.401705 C 294.698864 520.399432 294.801136 519.402273 295.2 518.4 C 295.501705 517.397727 295.997727 516.497727 296.698295 515.7 C 297.398864 514.902273 298.298864 514.298864 299.198864 513.9 C 300.201136 513.501136 301.198295 513.301705 302.200568 513.301705 L 417.799432 513.301705 C 418.801705 513.301705 419.901136 513.501136 420.801136 513.9 C 421.798295 514.298864 422.601136 514.902273 423.301705 515.7 C 424.002273 516.497727 424.498295 517.397727 424.902273 518.4 C 425.198864 519.402273 425.301136 520.399432 425.198864 521.401705 C 422.897727 543.998864 429.3 566.800568 443.597727 587.198864 L 446.200568 590.998295 C 446.998295 592.097727 447.499432 593.401705 447.601705 594.700568 C 447.698864 596.101705 447.402273 597.497727 446.798864 598.699432 C 446.098295 599.901136 445.198295 600.898295 444.001705 601.598864 C 442.902273 602.299432 441.501136 602.698295 440.202273 602.698295 Z M 310.101136 528.197727 C 310.602273 548.601136 304.997727 568.999432 293.798864 587.802273 L 426.201136 587.802273 C 415.002273 568.999432 409.397727 548.601136 409.801705 528.197727 Z M 310.101136 528.197727 " transform="matrix(0.763889,0,0,0.763889,0,0)"/>
<path style="fill-rule:evenodd;fill:rgb(19.607843%,36.862745%,39.215686%);fill-opacity:1;stroke-width:0.6;stroke-linecap:butt;stroke-linejoin:miter;stroke:rgb(19.607843%,36.862745%,39.215686%);stroke-opacity:1;stroke-miterlimit:4;" d="M 459.501136 636.197727 L 260.498864 636.197727 C 254.101705 636.197727 247.898864 633.702273 243.398864 629.1 C 238.801705 624.6 236.301136 618.402273 236.301136 612 C 236.301136 605.597727 238.801705 599.4 243.398864 594.9 C 247.898864 590.297727 254.101705 587.802273 260.498864 587.802273 L 459.501136 587.802273 C 465.898295 587.802273 472.101136 590.297727 476.601136 594.9 C 481.198295 599.4 483.698864 605.597727 483.698864 612 C 483.698864 618.402273 481.198295 624.6 476.601136 629.1 C 472.101136 633.702273 465.898295 636.197727 459.501136 636.197727 Z M 260.498864 602.698295 C 257.998295 602.698295 255.702273 603.700568 253.902273 605.398295 C 252.199432 607.198295 251.202273 609.499432 251.202273 612 C 251.202273 614.500568 252.199432 616.801705 253.902273 618.601705 C 255.702273 620.299432 257.998295 621.301705 260.498864 621.301705 L 459.501136 621.301705 C 462.001705 621.301705 464.297727 620.299432 466.097727 618.601705 C 467.800568 616.801705 468.797727 614.500568 468.797727 612 C 468.797727 609.499432 467.800568 607.198295 466.097727 605.398295 C 464.297727 603.700568 462.001705 602.698295 459.501136 602.698295 Z M 260.498864 602.698295 " transform="matrix(0.763889,0,0,0.763889,0,0)"/>
<path style="fill-rule:nonzero;fill:rgb(19.607843%,36.862745%,39.215686%);fill-opacity:1;stroke-width:0.6;stroke-linecap:butt;stroke-linejoin:miter;stroke:rgb(19.607843%,36.862745%,39.215686%);stroke-opacity:1;stroke-miterlimit:4;" d="M 173.899432 203.200568 L 530.601136 203.200568 L 530.601136 218.101705 L 173.899432 218.101705 Z M 173.899432 203.200568 " transform="matrix(0.763889,0,0,0.763889,0,0)"/>
<path style="fill-rule:nonzero;fill:rgb(19.607843%,36.862745%,39.215686%);fill-opacity:1;stroke-width:0.6;stroke-linecap:butt;stroke-linejoin:miter;stroke:rgb(19.607843%,36.862745%,39.215686%);stroke-opacity:1;stroke-miterlimit:4;" d="M 177.100568 177.898295 L 177.100568 163.002273 L 530.601136 163.002273 L 530.601136 177.898295 Z M 177.100568 177.898295 " transform="matrix(0.763889,0,0,0.763889,0,0)"/>
<path style=" stroke:none;fill-rule:nonzero;fill:rgb(19.607843%,36.862745%,39.215686%);fill-opacity:1;" d="M 243.296875 220.992188 C 243.296875 248.289062 243.296875 275.585938 243.296875 302.882812 C 243.296875 307.082031 241.542969 309.453125 238.179688 309.453125 C 235.125 309.527344 233.292969 307.921875 232.757812 304.945312 C 232.757812 304.691406 232.730469 304.460938 232.679688 304.257812 C 232.679688 304.003906 232.679688 303.773438 232.679688 303.570312 C 232.679688 303.316406 232.679688 303.058594 232.679688 302.804688 C 232.679688 302.601562 232.679688 302.371094 232.679688 302.117188 C 232.679688 267.640625 232.679688 233.140625 232.679688 198.609375 C 232.679688 197.769531 232.375 196.777344 232.757812 196.167969 C 233.828125 194.484375 234.894531 192.117188 236.421875 191.660156 C 238.027344 191.125 240.320312 192.347656 242.078125 193.1875 C 242.992188 193.644531 243.375 195.097656 243.984375 196.089844 C 260.792969 224.152344 277.621094 252.183594 294.480469 280.195312 C 294.632812 280.5 294.808594 280.804688 295.015625 281.109375 C 295.21875 281.417969 295.445312 281.695312 295.703125 281.953125 C 295.90625 282.207031 296.160156 282.460938 296.464844 282.714844 C 296.71875 282.96875 296.972656 283.199219 297.230469 283.402344 L 297.230469 199.222656 C 297.230469 198.96875 297.230469 198.714844 297.230469 198.457031 C 297.230469 198.152344 297.230469 197.871094 297.230469 197.617188 C 297.230469 197.363281 297.230469 197.109375 297.230469 196.855469 C 297.28125 196.597656 297.304688 196.320312 297.304688 196.015625 C 297.609375 193.109375 299.980469 190.894531 302.804688 191.125 C 305.707031 191.429688 307.542969 193.035156 307.847656 196.089844 C 307.847656 196.292969 307.871094 196.472656 307.921875 196.625 C 307.921875 196.777344 307.921875 196.957031 307.921875 197.160156 C 307.921875 197.3125 307.921875 197.492188 307.921875 197.695312 C 307.921875 197.847656 307.921875 198.027344 307.921875 198.230469 C 307.921875 232.960938 307.921875 267.691406 307.921875 302.421875 C 307.921875 303.265625 308.152344 304.257812 307.769531 304.867188 C 306.855469 306.394531 305.859375 308.535156 304.484375 308.992188 C 302.882812 309.527344 300.667969 308.765625 298.984375 307.921875 C 297.917969 307.390625 297.304688 305.785156 296.542969 304.5625 C 279.683594 276.453125 262.828125 248.339844 245.972656 220.230469 C 245.285156 219.160156 244.597656 218.167969 243.296875 216.257812 Z M 243.296875 220.992188 "/>
<path style=" stroke:none;fill-rule:nonzero;fill:rgb(19.607843%,36.862745%,39.215686%);fill-opacity:1;" d="M 141.472656 199.222656 C 141.472656 192.652344 143 191.125 149.570312 191.125 C 169.429688 191.125 189.292969 191.125 209.152344 191.125 C 209.40625 191.125 209.636719 191.125 209.839844 191.125 C 210.09375 191.125 210.324219 191.125 210.527344 191.125 C 210.78125 191.125 211.035156 191.125 211.292969 191.125 C 211.496094 191.125 211.722656 191.152344 211.980469 191.203125 C 214.882812 191.507812 217.171875 193.953125 216.945312 196.625 C 216.640625 199.527344 215.109375 201.515625 211.980469 201.742188 C 210.679688 201.820312 209.382812 201.820312 208.082031 201.820312 C 190.820312 201.820312 173.632812 201.894531 156.367188 201.742188 C 153.390625 201.742188 152.242188 202.355469 152.320312 205.640625 C 152.546875 217.632812 152.472656 229.703125 152.320312 241.769531 C 152.320312 244.445312 153.082031 245.054688 155.679688 245.054688 C 174.015625 244.980469 192.347656 244.980469 210.679688 245.054688 C 214.421875 245.054688 216.867188 247.117188 216.945312 250.25 C 217.019531 253.382812 214.652344 255.519531 210.832031 255.671875 C 209.917969 255.671875 208.921875 255.671875 208.007812 255.671875 L 157.667969 255.671875 C 157.464844 255.671875 157.285156 255.671875 157.132812 255.671875 C 156.929688 255.722656 156.75 255.75 156.597656 255.75 C 156.394531 255.75 156.214844 255.722656 156.0625 255.671875 C 155.859375 255.671875 155.679688 255.671875 155.527344 255.671875 C 153.082031 255.367188 152.320312 256.359375 152.320312 258.804688 C 152.472656 271.105469 152.472656 283.402344 152.320312 295.703125 C 152.320312 298.453125 153.160156 298.910156 155.757812 298.910156 C 174.089844 298.832031 192.347656 298.832031 210.679688 298.910156 C 215.570312 298.910156 218.472656 302.804688 216.257812 306.472656 C 215.339844 307.921875 213.125 309.375 211.519531 309.375 C 189.980469 309.527344 168.515625 309.527344 147.046875 309.453125 C 143.535156 309.453125 141.625 307.390625 141.472656 303.492188 C 141.394531 300.054688 141.472656 296.617188 141.472656 293.179688 C 141.472656 278.871094 141.472656 264.585938 141.472656 250.328125 C 141.472656 233.316406 141.472656 216.28125 141.472656 199.222656 Z M 141.472656 199.222656 "/>
<path style=" stroke:none;fill-rule:nonzero;fill:rgb(19.607843%,36.862745%,39.215686%);fill-opacity:1;" d="M 334.734375 274.542969 C 335.578125 288.445312 348.105469 299.292969 362.082031 298.832031 C 376.214844 298.375 387.671875 287.070312 388.132812 273.015625 C 388.359375 266.445312 388.359375 266.445312 381.714844 266.445312 C 375.453125 266.445312 369.1875 266.445312 362.921875 266.445312 C 358.339844 266.367188 356.125 264.6875 356.125 261.171875 C 356.046875 257.582031 358.417969 255.671875 362.847656 255.671875 C 372.777344 255.671875 382.707031 255.671875 392.640625 255.671875 C 396 255.671875 398.671875 257.046875 398.902344 260.5625 C 399.4375 269.804688 399.667969 278.972656 395.542969 287.679688 C 387.980469 303.796875 370.792969 312.355469 353.296875 308.6875 C 336.796875 305.328125 324.117188 290.355469 323.734375 273.015625 C 323.355469 257.890625 323.277344 242.765625 323.734375 227.640625 C 324.195312 208.234375 339.625 192.5 358.570312 191.203125 C 363.152344 190.894531 367.734375 191.355469 372.167969 192.730469 C 376.519531 194.027344 380.644531 196.167969 384.234375 198.917969 C 387.902344 201.742188 391.035156 205.179688 393.402344 209.078125 C 395.847656 212.972656 397.527344 217.25 398.367188 221.757812 C 398.46875 222.316406 398.546875 222.851562 398.597656 223.359375 C 398.699219 223.871094 398.777344 224.40625 398.828125 224.964844 C 398.878906 225.472656 398.929688 226.007812 398.980469 226.570312 C 398.980469 227.078125 398.980469 227.589844 398.980469 228.097656 C 399.132812 231.535156 396.839844 234.054688 393.859375 234.207031 C 391.109375 234.359375 388.742188 232.144531 388.207031 228.9375 C 387.828125 226.109375 387.75 223.285156 386.910156 220.609375 C 383.167969 208.617188 371.019531 200.597656 359.105469 202.046875 C 345.429688 203.652344 335.5 213.355469 334.734375 226.722656 C 334.203125 234.589844 334.582031 242.535156 334.582031 250.480469 L 334.660156 250.480469 C 334.660156 258.5 334.277344 266.519531 334.734375 274.542969 Z M 334.734375 274.542969 "/>
<path style=" stroke:none;fill-rule:nonzero;fill:rgb(19.607843%,36.862745%,39.215686%);fill-opacity:1;" d="M 243.296875 216.257812 L 243.296875 220.992188 C 243.296875 248.289062 243.296875 275.585938 243.296875 302.882812 C 243.296875 307.082031 241.542969 309.453125 238.179688 309.453125 C 235.125 309.527344 233.292969 307.921875 232.757812 304.945312 C 232.757812 304.691406 232.730469 304.460938 232.679688 304.257812 C 232.679688 304.003906 232.679688 303.773438 232.679688 303.570312 C 232.679688 303.316406 232.679688 303.058594 232.679688 302.804688 C 232.679688 302.601562 232.679688 302.371094 232.679688 302.117188 C 232.679688 267.640625 232.679688 233.140625 232.679688 198.609375 C 232.679688 197.769531 232.375 196.777344 232.757812 196.167969 C 233.828125 194.484375 234.894531 192.117188 236.421875 191.660156 C 238.027344 191.125 240.320312 192.347656 242.078125 193.1875 C 242.992188 193.644531 243.375 195.097656 243.984375 196.089844 C 260.792969 224.097656 277.621094 252.132812 294.480469 280.195312 C 294.632812 280.5 294.808594 280.804688 295.015625 281.109375 C 295.21875 281.417969 295.445312 281.695312 295.703125 281.953125 C 295.90625 282.207031 296.160156 282.460938 296.464844 282.714844 C 296.71875 282.96875 296.972656 283.199219 297.230469 283.402344 L 297.230469 199.222656 C 297.230469 198.96875 297.230469 198.714844 297.230469 198.457031 C 297.230469 198.203125 297.230469 197.949219 297.230469 197.695312 C 297.230469 197.390625 297.230469 197.109375 297.230469 196.855469 C 297.28125 196.597656 297.304688 196.34375 297.304688 196.089844 C 297.609375 193.109375 299.980469 190.972656 302.804688 191.203125 C 305.707031 191.429688 307.542969 193.109375 307.847656 196.089844 C 307.847656 196.292969 307.871094 196.472656 307.921875 196.625 C 307.921875 196.828125 307.921875 197.007812 307.921875 197.160156 C 307.921875 197.363281 307.921875 197.542969 307.921875 197.695312 C 307.921875 197.898438 307.921875 198.078125 307.921875 198.230469 C 307.921875 232.960938 307.921875 267.691406 307.921875 302.421875 C 307.921875 303.265625 308.152344 304.257812 307.769531 304.867188 C 306.855469 306.472656 305.9375 308.535156 304.484375 308.992188 C 302.882812 309.527344 300.667969 308.765625 298.984375 308 C 297.917969 307.390625 297.304688 305.785156 296.542969 304.5625 C 279.683594 276.453125 262.828125 248.339844 245.972656 220.230469 C 245.285156 219.160156 244.597656 218.167969 243.296875 216.257812 Z M 243.296875 216.257812 "/>
<path style=" stroke:none;fill-rule:nonzero;fill:rgb(19.607843%,36.862745%,39.215686%);fill-opacity:1;" d="M 141.472656 250.328125 C 141.472656 233.265625 141.472656 216.257812 141.472656 199.296875 C 141.472656 192.652344 143 191.125 149.570312 191.125 C 169.429688 191.125 189.292969 191.125 209.152344 191.125 C 209.355469 191.125 209.585938 191.125 209.839844 191.125 C 210.09375 191.125 210.324219 191.125 210.527344 191.125 C 210.78125 191.125 211.035156 191.125 211.292969 191.125 C 211.496094 191.175781 211.722656 191.203125 211.980469 191.203125 C 214.882812 191.507812 217.171875 193.953125 216.945312 196.703125 C 216.640625 199.605469 215.109375 201.515625 211.980469 201.742188 C 210.679688 201.894531 209.382812 201.894531 208.082031 201.894531 C 190.820312 201.894531 173.632812 201.972656 156.367188 201.820312 C 153.390625 201.742188 152.242188 202.355469 152.320312 205.640625 C 152.546875 217.707031 152.472656 229.703125 152.320312 241.769531 C 152.320312 244.519531 153.082031 245.132812 155.679688 245.054688 C 174.015625 244.980469 192.347656 244.980469 210.605469 245.054688 C 214.421875 245.054688 216.867188 247.195312 216.945312 250.25 C 217.019531 253.382812 214.578125 255.597656 210.832031 255.671875 C 209.917969 255.75 208.921875 255.671875 208.007812 255.671875 L 157.667969 255.671875 C 157.515625 255.722656 157.335938 255.75 157.132812 255.75 C 156.980469 255.75 156.800781 255.75 156.597656 255.75 C 156.445312 255.75 156.265625 255.75 156.0625 255.75 C 155.910156 255.75 155.730469 255.722656 155.527344 255.671875 C 153.082031 255.367188 152.320312 256.359375 152.320312 258.804688 C 152.472656 271.105469 152.472656 283.402344 152.320312 295.703125 C 152.320312 298.453125 153.234375 298.984375 155.757812 298.984375 C 174.089844 298.832031 192.347656 298.910156 210.679688 298.910156 C 215.570312 298.910156 218.472656 302.804688 216.257812 306.472656 C 215.339844 307.921875 213.125 309.375 211.519531 309.375 C 190.054688 309.605469 168.515625 309.527344 147.046875 309.527344 C 143.535156 309.527344 141.703125 307.390625 141.546875 303.492188 C 141.394531 300.054688 141.472656 296.617188 141.472656 293.179688 C 141.472656 278.871094 141.472656 264.585938 141.472656 250.328125 Z M 141.472656 250.328125 "/>
<path style=" stroke:none;fill-rule:nonzero;fill:rgb(19.607843%,36.862745%,39.215686%);fill-opacity:1;" d="M 334.660156 250.480469 C 334.660156 258.5 334.277344 266.519531 334.734375 274.542969 C 335.578125 288.445312 348.105469 299.292969 362.082031 298.832031 C 376.214844 298.375 387.671875 287.070312 388.132812 273.089844 C 388.359375 266.445312 388.359375 266.445312 381.714844 266.445312 C 375.453125 266.445312 369.1875 266.519531 362.921875 266.445312 C 358.265625 266.445312 356.125 264.6875 356.046875 261.171875 C 356.046875 257.660156 358.417969 255.75 362.847656 255.75 C 372.777344 255.671875 382.707031 255.75 392.640625 255.75 C 396 255.75 398.671875 257.125 398.902344 260.640625 C 399.4375 269.804688 399.589844 279.046875 395.542969 287.757812 C 387.980469 303.796875 370.792969 312.355469 353.296875 308.765625 C 336.796875 305.328125 324.117188 290.429688 323.734375 273.089844 C 323.355469 257.964844 323.277344 242.765625 323.734375 227.714844 C 324.195312 208.3125 339.546875 192.578125 358.570312 191.203125 C 363.152344 190.894531 367.734375 191.429688 372.089844 192.730469 C 376.519531 194.105469 380.644531 196.167969 384.234375 198.992188 C 387.902344 201.820312 390.957031 205.179688 393.402344 209.152344 C 395.847656 213.046875 397.527344 217.328125 398.367188 221.832031 C 398.46875 222.34375 398.546875 222.878906 398.597656 223.4375 C 398.699219 223.945312 398.777344 224.457031 398.828125 224.964844 C 398.878906 225.527344 398.902344 226.058594 398.902344 226.570312 C 398.953125 227.128906 398.980469 227.664062 398.980469 228.171875 C 399.132812 231.535156 396.839844 234.132812 393.859375 234.285156 C 391.035156 234.359375 388.742188 232.222656 388.207031 229.015625 C 387.75 226.1875 387.671875 223.285156 386.910156 220.609375 C 383.089844 208.617188 371.019531 200.671875 359.105469 202.046875 C 345.429688 203.730469 335.5 213.429688 334.660156 226.722656 C 334.203125 234.667969 334.582031 242.609375 334.582031 250.480469 Z M 334.660156 250.480469 "/>
</g>
</svg>
