<?xml version="1.0" encoding="UTF-8"?>
<svg xmlns="http://www.w3.org/2000/svg" xmlns:xlink="http://www.w3.org/1999/xlink" width="550px" height="px" viewBox="0 0 550 550" version="1.1">
<g id="surface1">
<path style="fill-rule:nonzero;fill:rgb(19.607843%,36.862745%,39.215686%);fill-opacity:1;stroke-width:0.6;stroke-linecap:butt;stroke-linejoin:miter;stroke:rgb(19.607843%,36.862745%,39.215686%);stroke-opacity:1;stroke-miterlimit:4;" d="M 608.701705 188.698295 L 608.701705 503.800568 C 608.701705 507.098864 608.001136 510.499432 606.799432 513.598295 C 605.500568 516.702273 603.598295 519.499432 601.2 521.897727 C 598.801705 524.301136 595.999432 526.198295 592.900568 527.502273 C 589.801705 528.801136 586.401136 529.399432 583.000568 529.399432 L 136.697727 529.399432 C 133.302273 529.399432 129.998864 528.801136 126.797727 527.502273 C 123.698864 526.198295 120.901705 524.301136 118.498295 521.897727 C 116.1 519.499432 114.3 516.702273 113.001136 513.598295 C 111.702273 510.499432 111.001705 507.098864 111.001705 503.800568 L 111.001705 188.698295 C 111.001705 185.297727 111.702273 181.999432 113.001136 178.900568 C 114.3 175.699432 116.1 172.902273 118.498295 170.498864 C 120.901705 168.100568 123.698864 166.300568 126.797727 165.001705 C 129.998864 163.697727 133.302273 163.002273 136.697727 163.002273 L 176.297727 163.002273 L 176.297727 178.000568 L 136.697727 178.000568 C 135.301705 178.000568 133.900568 178.2 132.601705 178.798295 C 131.297727 179.299432 130.101136 180.102273 129.098864 181.099432 C 128.101705 182.101705 127.298864 183.298295 126.797727 184.602273 C 126.199432 185.901136 126 187.302273 126 188.698295 L 126 503.800568 C 126 505.201705 126.199432 506.597727 126.797727 507.901705 C 127.298864 509.200568 128.101705 510.3 129.098864 511.302273 C 130.101136 512.299432 131.297727 513.102273 132.601705 513.598295 C 133.900568 514.201705 135.301705 514.498295 136.697727 514.498295 L 583.000568 514.498295 C 584.498864 514.498295 585.797727 514.201705 587.101705 513.700568 C 588.400568 513.102273 589.602273 512.299432 590.599432 511.302273 C 591.601705 510.3 592.399432 509.200568 592.900568 507.901705 C 593.498864 506.597727 593.800568 505.201705 593.800568 503.800568 L 593.800568 188.698295 C 593.800568 187.302273 593.498864 185.901136 592.900568 184.602273 C 592.399432 183.298295 591.601705 182.101705 590.599432 181.099432 C 589.602273 180.102273 588.400568 179.299432 587.101705 178.798295 C 585.797727 178.2 584.498864 178.000568 583.000568 178.000568 L 531 178.000568 L 531.102273 163.002273 L 583.000568 163.002273 C 586.401136 163.002273 589.801705 163.697727 592.900568 165.001705 C 595.999432 166.300568 598.801705 168.100568 601.2 170.498864 C 603.598295 172.902273 605.500568 175.699432 606.799432 178.900568 C 608.001136 181.999432 608.701705 185.297727 608.701705 188.698295 Z M 608.701705 188.698295 " transform="matrix(0.763889,0,0,0.763889,0,0)"/>
<path style="fill-rule:nonzero;fill:rgb(19.607843%,36.862745%,39.215686%);fill-opacity:1;stroke-width:0.6;stroke-linecap:butt;stroke-linejoin:miter;stroke:rgb(19.607843%,36.862745%,39.215686%);stroke-opacity:1;stroke-miterlimit:4;" d="M 582.698864 203.297727 L 582.698864 453.298295 L 136.999432 453.298295 L 136.999432 203.297727 L 173.101705 203.4 L 173.101705 218.398295 L 151.997727 218.198864 L 151.997727 438.3 L 188.601136 438.3 L 188.601136 441.398864 L 546.402273 441.398864 L 546.402273 438.3 L 567.700568 438.3 L 567.700568 218.198864 L 531 218.198864 L 531 203.297727 Z M 582.698864 203.297727 " transform="matrix(0.763889,0,0,0.763889,0,0)"/>
<path style="fill-rule:evenodd;fill:rgb(19.607843%,36.862745%,39.215686%);fill-opacity:1;stroke-width:0.6;stroke-linecap:butt;stroke-linejoin:miter;stroke:rgb(19.607843%,36.862745%,39.215686%);stroke-opacity:1;stroke-miterlimit:4;" d="M 279.501136 604.201705 C 278.1 604.201705 276.801136 603.797727 275.599432 603.102273 C 274.397727 602.401705 273.497727 601.399432 272.802273 600.197727 C 272.198864 599.001136 271.902273 597.6 271.999432 596.198864 C 272.101705 594.9 272.597727 593.601136 273.298295 592.399432 L 275.998295 588.702273 C 290.301136 568.201705 296.698295 545.297727 294.499432 522.700568 C 294.402273 521.698295 294.499432 520.598864 294.801136 519.601705 C 295.097727 518.599432 295.701136 517.699432 296.401705 516.901705 C 297.102273 516.098864 297.9 515.500568 298.902273 515.101705 C 299.899432 514.697727 300.901705 514.498295 301.898864 514.498295 L 417.799432 514.498295 C 418.898864 514.498295 419.901136 514.697727 420.898295 515.101705 C 421.798295 515.500568 422.698295 516.201136 423.398864 516.901705 C 424.099432 517.699432 424.600568 518.599432 424.999432 519.601705 C 425.301136 520.598864 425.398295 521.698295 425.301136 522.700568 C 423 545.297727 429.402273 568.201705 443.802273 588.702273 L 446.4 592.399432 C 447.197727 593.601136 447.698864 594.9 447.698864 596.198864 C 447.801136 597.6 447.499432 599.001136 446.901136 600.197727 C 446.297727 601.399432 445.300568 602.401705 444.201136 603.102273 C 442.999432 603.797727 441.598295 604.201705 440.299432 604.201705 Z M 309.901705 529.399432 C 310.300568 550.002273 304.701136 570.400568 293.4 589.198295 L 426.298295 589.198295 C 415.002273 570.400568 409.397727 550.002273 409.801705 529.399432 Z M 309.901705 529.399432 " transform="matrix(0.763889,0,0,0.763889,0,0)"/>
<path style="fill-rule:evenodd;fill:rgb(19.607843%,36.862745%,39.215686%);fill-opacity:1;stroke-width:0.6;stroke-linecap:butt;stroke-linejoin:miter;stroke:rgb(19.607843%,36.862745%,39.215686%);stroke-opacity:1;stroke-miterlimit:4;" d="M 459.700568 637.900568 L 259.997727 637.900568 C 253.600568 637.900568 247.397727 635.297727 242.800568 630.700568 C 238.300568 626.200568 235.697727 619.997727 235.697727 613.600568 C 235.697727 607.101136 238.300568 600.898295 242.800568 596.398295 C 247.397727 591.801136 253.600568 589.198295 259.997727 589.198295 L 459.700568 589.198295 C 466.097727 589.198295 472.300568 591.801136 476.897727 596.398295 C 481.397727 600.898295 484.000568 607.101136 484.000568 613.600568 C 484.000568 619.997727 481.397727 626.200568 476.897727 630.700568 C 472.300568 635.297727 466.097727 637.900568 459.700568 637.900568 Z M 259.997727 604.201705 C 257.502273 604.201705 255.201136 605.198864 253.401136 606.901705 C 251.698295 608.701705 250.701136 611.1 250.701136 613.600568 C 250.701136 615.998864 251.698295 618.402273 253.401136 620.202273 C 255.201136 621.9 257.502273 622.902273 259.997727 622.902273 L 459.700568 622.902273 C 462.201136 622.902273 464.502273 621.9 466.302273 620.202273 C 468 618.402273 469.002273 615.998864 469.002273 613.600568 C 469.002273 611.1 468 608.701705 466.302273 606.901705 C 464.502273 605.198864 462.201136 604.201705 459.700568 604.201705 Z M 259.997727 604.201705 " transform="matrix(0.763889,0,0,0.763889,0,0)"/>
<path style="fill-rule:nonzero;fill:rgb(19.607843%,36.862745%,39.215686%);fill-opacity:1;stroke-width:0.6;stroke-linecap:butt;stroke-linejoin:miter;stroke:rgb(19.607843%,36.862745%,39.215686%);stroke-opacity:1;stroke-miterlimit:4;" d="M 173.101705 203.4 L 531 203.4 L 531 218.301136 L 173.101705 218.301136 Z M 173.101705 203.4 " transform="matrix(0.763889,0,0,0.763889,0,0)"/>
<path style="fill-rule:nonzero;fill:rgb(19.607843%,36.862745%,39.215686%);fill-opacity:1;stroke-width:0.6;stroke-linecap:butt;stroke-linejoin:miter;stroke:rgb(19.607843%,36.862745%,39.215686%);stroke-opacity:1;stroke-miterlimit:4;" d="M 176.297727 178.000568 L 176.297727 163.002273 L 531.102273 163.002273 L 531 178.000568 Z M 176.297727 178.000568 " transform="matrix(0.763889,0,0,0.763889,0,0)"/>
<path style=" stroke:none;fill-rule:evenodd;fill:rgb(19.607843%,36.862745%,39.215686%);fill-opacity:1;" d="M 317.777344 253.230469 C 317.777344 258.5 317.703125 263.769531 317.777344 268.964844 C 317.828125 269.527344 317.804688 270.058594 317.703125 270.570312 C 317.546875 271.128906 317.34375 271.640625 317.089844 272.097656 C 316.785156 272.605469 316.453125 273.039062 316.097656 273.394531 C 315.691406 273.753906 315.230469 274.058594 314.722656 274.3125 C 300.921875 282.003906 287.09375 289.691406 273.242188 297.382812 C 272.785156 297.636719 272.328125 297.839844 271.867188 297.992188 C 271.359375 298.144531 270.847656 298.222656 270.339844 298.222656 C 269.78125 298.222656 269.246094 298.171875 268.734375 298.070312 C 268.226562 297.96875 267.742188 297.789062 267.285156 297.535156 C 253.585938 291.421875 239.859375 285.3125 226.109375 279.203125 C 223.667969 278.132812 222.519531 276.453125 222.519531 273.703125 C 222.621094 263.109375 222.621094 252.515625 222.519531 241.921875 C 222.519531 241.414062 222.570312 240.90625 222.671875 240.394531 C 222.777344 239.886719 222.929688 239.402344 223.132812 238.945312 C 223.386719 238.484375 223.667969 238.054688 223.972656 237.644531 C 224.328125 237.289062 224.734375 236.957031 225.195312 236.652344 C 231.078125 232.296875 236.882812 227.867188 242.765625 223.515625 C 242.96875 223.359375 243.195312 223.207031 243.453125 223.054688 C 243.65625 222.902344 243.882812 222.75 244.140625 222.597656 C 244.394531 222.496094 244.621094 222.367188 244.828125 222.214844 C 245.082031 222.113281 245.335938 222.011719 245.589844 221.910156 C 258.933594 215.953125 272.300781 209.992188 285.695312 204.035156 C 289.667969 202.277344 291.195312 202.660156 293.945312 205.867188 C 301.046875 214.421875 308.078125 222.980469 315.257812 231.382812 C 315.714844 231.890625 316.121094 232.425781 316.480469 232.984375 C 316.785156 233.546875 317.066406 234.15625 317.320312 234.820312 C 317.523438 235.429688 317.675781 236.066406 317.777344 236.730469 C 317.828125 237.390625 317.855469 238.054688 317.855469 238.714844 C 317.703125 243.527344 317.777344 248.417969 317.777344 253.230469 Z M 305.171875 234.820312 C 304.945312 234.4375 304.792969 234.207031 304.640625 233.980469 C 299.292969 227.5625 294.019531 221.144531 288.597656 214.804688 C 288.445312 214.703125 288.292969 214.628906 288.140625 214.578125 C 287.984375 214.472656 287.832031 214.421875 287.679688 214.421875 C 287.527344 214.371094 287.347656 214.347656 287.144531 214.347656 C 286.992188 214.347656 286.839844 214.371094 286.6875 214.421875 C 276.222656 219.007812 265.910156 223.589844 255.519531 228.171875 C 254.296875 228.707031 254.144531 229.320312 254.984375 230.390625 C 260.257812 237.644531 265.453125 245.054688 270.722656 252.3125 C 271.105469 252.847656 272.480469 253.230469 273.015625 252.921875 C 283.402344 247.269531 293.792969 241.464844 304.179688 235.660156 C 304.230469 235.609375 304.308594 235.558594 304.410156 235.507812 C 304.511719 235.457031 304.613281 235.378906 304.714844 235.277344 C 304.765625 235.226562 304.84375 235.152344 304.945312 235.046875 C 304.996094 234.996094 305.070312 234.921875 305.171875 234.820312 Z M 265.375 274.695312 C 265.375 271.484375 265.527344 268.355469 265.375 265.144531 C 265.296875 264.304688 264.609375 263.082031 263.921875 262.777344 C 253.992188 258.269531 244.0625 253.917969 234.207031 249.410156 C 232.375 248.644531 232.222656 249.332031 232.222656 250.859375 C 232.296875 257.046875 232.222656 263.3125 232.296875 269.578125 C 232.347656 269.78125 232.402344 269.984375 232.453125 270.1875 C 232.503906 270.390625 232.605469 270.59375 232.757812 270.796875 C 232.859375 271.003906 232.984375 271.179688 233.140625 271.332031 C 233.292969 271.484375 233.445312 271.613281 233.597656 271.714844 C 243.605469 276.222656 253.609375 280.652344 263.617188 285.160156 C 265.222656 285.847656 265.453125 285.3125 265.453125 283.859375 C 265.296875 280.804688 265.375 277.75 265.375 274.695312 Z M 308.152344 256.054688 C 308.152344 253.078125 308.078125 250.097656 308.230469 247.195312 C 308.304688 244.980469 307.695312 244.902344 305.9375 245.894531 C 296.3125 251.292969 286.660156 256.640625 276.984375 261.9375 C 275.382812 262.777344 274.921875 263.847656 275 265.453125 C 275.078125 271.105469 275 276.757812 275 282.410156 C 275 285.082031 275.078125 285.160156 277.445312 283.785156 C 285.847656 279.125 294.019531 274.160156 302.652344 269.957031 C 307.160156 267.742188 308.992188 264.992188 308.230469 260.179688 C 307.921875 258.882812 308.152344 257.429688 308.152344 256.054688 Z M 254.984375 247.652344 C 254.984375 247.601562 254.984375 247.550781 254.984375 247.5 C 254.933594 247.449219 254.910156 247.398438 254.910156 247.347656 C 254.859375 247.246094 254.832031 247.167969 254.832031 247.117188 C 254.78125 247.066406 254.730469 247.015625 254.679688 246.964844 C 251.777344 242.839844 248.875 238.792969 245.894531 234.742188 C 245.667969 234.4375 244.671875 234.4375 244.292969 234.667969 C 242.230469 236.042969 240.242188 237.570312 238.332031 239.097656 C 237.417969 239.707031 237.417969 240.242188 238.484375 240.703125 C 243.605469 242.992188 248.722656 245.285156 253.839844 247.578125 C 253.941406 247.578125 254.042969 247.578125 254.144531 247.578125 C 254.246094 247.628906 254.324219 247.652344 254.375 247.652344 C 254.476562 247.652344 254.578125 247.652344 254.679688 247.652344 C 254.78125 247.652344 254.882812 247.652344 254.984375 247.652344 Z M 254.984375 247.652344 "/>
<path style=" stroke:none;fill-rule:nonzero;fill:rgb(19.607843%,36.862745%,39.215686%);fill-opacity:1;" d="M 209.992188 237.1875 C 210.527344 237.875 211.140625 238.792969 211.902344 239.632812 C 213.355469 241.234375 216.179688 242.917969 216.027344 244.367188 C 215.875 246.125 213.355469 247.730469 211.828125 249.410156 C 210.402344 250.886719 208.921875 252.339844 207.394531 253.765625 C 204.875 256.054688 202.429688 256.207031 200.0625 253.917969 C 197.234375 251.242188 194.5625 248.417969 191.8125 245.742188 C 190.742188 244.75 190.820312 244.0625 191.890625 243.144531 C 193.1875 241.921875 194.410156 240.625 195.632812 239.328125 C 196.546875 238.484375 197.3125 237.109375 198.6875 238.714844 C 199.144531 238.257812 199.832031 237.796875 199.984375 237.1875 C 200.445312 234.691406 201.03125 232.246094 201.742188 229.855469 C 202.457031 227.410156 203.320312 225.042969 204.339844 222.75 C 205.308594 220.40625 206.402344 218.140625 207.625 215.953125 C 208.898438 213.761719 210.273438 211.648438 211.75 209.609375 C 224.046875 192.578125 240.625 182.339844 261.632812 179.820312 C 283.402344 177.296875 302.421875 183.640625 318.769531 198.230469 C 320.453125 199.757812 320.757812 200.75 318.847656 202.277344 C 317.167969 203.652344 315.792969 206.171875 314.035156 206.402344 C 312.660156 206.632812 310.828125 204.1875 309.296875 202.964844 C 274.160156 174.625 221.605469 191.734375 210.605469 235.046875 Z M 209.992188 237.1875 "/>
<path style=" stroke:none;fill-rule:nonzero;fill:rgb(19.607843%,36.862745%,39.215686%);fill-opacity:1;" d="M 336.796875 245.359375 C 338.097656 246.125 339.472656 246.582031 340.464844 247.5 C 343.214844 250.019531 345.734375 252.769531 348.484375 255.367188 C 349.632812 256.4375 349.632812 257.203125 348.484375 258.269531 C 346.957031 259.570312 345.734375 261.097656 344.207031 262.394531 C 343.75 262.777344 342.605469 263.234375 342.375 263.007812 C 340.3125 261.25 340.617188 263.160156 340.390625 264.152344 C 333.820312 293.257812 316.171875 312.355469 287.375 319.839844 C 262.929688 326.105469 240.855469 319.992188 221.832031 303.265625 C 220.078125 301.660156 219.542969 300.589844 221.605469 298.984375 C 223.359375 297.609375 224.734375 295.089844 226.492188 294.859375 C 227.867188 294.707031 229.625 297.152344 231.230469 298.453125 C 266.0625 326.640625 318.617188 309.605469 329.769531 266.519531 C 330.382812 264.382812 330.078125 263.007812 328.472656 261.554688 C 326.867188 260.105469 324.347656 258.421875 324.347656 256.820312 C 324.421875 255.292969 326.945312 253.609375 328.472656 252.082031 C 328.828125 251.675781 329.210938 251.269531 329.617188 250.859375 C 329.972656 250.453125 330.355469 250.070312 330.765625 249.714844 C 331.121094 249.359375 331.503906 248.976562 331.910156 248.570312 C 332.316406 248.214844 332.722656 247.855469 333.132812 247.5 C 334.125 246.582031 335.421875 246.125 336.796875 245.359375 Z M 336.796875 245.359375 "/>
<path style=" stroke:none;fill-rule:nonzero;fill:rgb(19.607843%,36.862745%,39.215686%);fill-opacity:1;" d="M 254.757812 246.964844 C 254.757812 247.015625 254.78125 247.066406 254.832031 247.117188 C 254.832031 247.167969 254.859375 247.246094 254.910156 247.347656 C 254.910156 247.398438 254.933594 247.449219 254.984375 247.5 C 254.984375 247.550781 255.011719 247.601562 255.0625 247.652344 C 254.960938 247.652344 254.859375 247.652344 254.757812 247.652344 C 254.65625 247.652344 254.554688 247.652344 254.453125 247.652344 C 254.347656 247.652344 254.246094 247.628906 254.144531 247.578125 C 254.042969 247.578125 253.96875 247.550781 253.917969 247.5 Z M 254.757812 246.964844 "/>
<path style=" stroke:none;fill-rule:nonzero;fill:rgb(19.607843%,36.862745%,39.215686%);fill-opacity:1;" d="M 238.484375 240.703125 C 237.417969 240.167969 237.492188 239.707031 238.332031 239.097656 C 240.320312 237.570312 242.230469 236.042969 244.292969 234.667969 C 244.671875 234.4375 245.742188 234.4375 245.894531 234.742188 Z M 238.484375 240.703125 "/>
</g>
</svg>
