<?xml version="1.0" encoding="UTF-8"?>
<svg xmlns="http://www.w3.org/2000/svg" xmlns:xlink="http://www.w3.org/1999/xlink" width="550px" height="px" viewBox="0 0 550 550" version="1.1">
<g id="surface1">
<path style="fill-rule:evenodd;fill:rgb(19.607843%,36.862745%,39.215686%);fill-opacity:1;stroke-width:3.8;stroke-linecap:butt;stroke-linejoin:miter;stroke:rgb(19.607843%,36.862745%,39.215686%);stroke-opacity:1;stroke-miterlimit:4;" d="M 359.800568 637.798295 L 157.801705 637.798295 C 157.33125 637.798295 156.865909 637.798295 156.400568 637.798295 C 155.935227 637.864773 155.434091 637.864773 154.902273 637.798295 C 154.431818 637.798295 153.966477 637.798295 153.501136 637.798295 C 152.964205 637.798295 152.468182 637.767614 151.997727 637.701136 C 151.000568 637.634659 150.064773 637.399432 149.200568 637.000568 C 148.33125 636.601705 147.533523 636.034091 146.802273 635.297727 C 146.065909 634.632955 145.498295 633.865909 145.099432 633.001705 C 144.700568 632.065909 144.434659 631.135227 144.301705 630.199432 C 144.235227 629.734091 144.199432 629.232955 144.199432 628.701136 C 144.132955 628.235795 144.102273 627.765341 144.102273 627.3 C 144.102273 626.768182 144.102273 626.267045 144.102273 625.801705 C 144.035795 625.33125 144.035795 624.865909 144.102273 624.400568 C 144.102273 569.597727 144.102273 514.8 144 460.002273 C 144 448.501705 146.500568 438.197727 154.401136 429.601705 C 163.298864 419.798864 174.702273 415.999432 187.598864 415.999432 C 218.53125 415.999432 249.46875 415.999432 280.401136 415.999432 C 282.001705 415.999432 283.5 415.902273 284.998295 415.999432 C 287.897727 416.198864 288.700568 414.797727 288.598295 412.097727 C 288.501136 406.099432 288.301705 399.998864 288.700568 394.000568 C 288.9 389.500568 287.202273 388.600568 283.101136 388.600568 C 264.098864 388.8 244.999432 388.600568 226.002273 388.697727 C 212.701705 388.697727 202.101136 383.502273 193.699432 373.397727 C 192.43125 371.802273 191.265341 370.099432 190.201705 368.299432 C 189.199432 366.565909 188.335227 364.735227 187.598864 362.802273 C 186.867614 360.864205 186.264205 358.900568 185.798864 356.901136 C 185.4 354.835227 185.164773 352.8 185.098295 350.800568 C 184.801705 347.200568 183.400568 346.5 180.301705 346.602273 C 172.099432 346.699432 163.8 346.699432 155.597727 346.602273 C 147.400568 346.5 144.102273 343.298864 144.102273 335.198864 C 144.035795 295.798295 144.035795 256.397727 144.102273 217.002273 C 144.102273 208.8 147.298295 205.798295 155.597727 205.598864 C 163.902273 205.501705 172.099432 205.501705 180.301705 205.598864 C 183.497727 205.701136 184.602273 204.801136 185.001136 201.400568 C 187.701136 181.298864 198.9 168.499432 217.099432 164.500568 C 217.902273 164.301136 218.7 164.168182 219.497727 164.101705 C 220.300568 163.96875 221.098295 163.866477 221.901136 163.8 C 222.698864 163.733523 223.501705 163.697727 224.299432 163.697727 C 225.102273 163.697727 225.9 163.697727 226.697727 163.697727 C 260.698295 163.63125 294.698864 163.600568 328.699432 163.600568 C 336.001705 163.600568 335.301136 164.398295 335.301136 157.101136 C 335.301136 149.098295 335.198864 140.998295 335.398295 133.000568 C 335.500568 129.702273 334.697727 127.697727 331.501705 125.800568 C 311.098295 113.701705 300.998864 91.498295 304.798295 68.901136 C 309.098864 44.202273 326.802273 26.299432 351.102273 22.602273 C 388.002273 16.997727 415.099432 45.398864 415.8 75.702273 C 416.301136 97.399432 406.999432 114.100568 388.8 125.601136 C 385.501705 127.697727 384.499432 129.799432 384.601705 133.399432 C 384.801136 141.601705 384.601705 149.798864 384.698864 158.001136 C 384.698864 163.600568 384.698864 163.600568 390.298295 163.600568 C 424.099432 163.600568 457.900568 164.301136 491.599432 163.401136 C 511.399432 162.9 532.401136 175.801705 534.901705 201.098864 C 535.300568 204.801136 536.502273 205.798295 540 205.701136 C 547.997727 205.501705 556.000568 205.598864 564.100568 205.701136 C 572.798864 205.798295 575.897727 208.8 575.897727 217.401136 C 575.964205 256.602273 575.964205 295.798295 575.897727 334.999432 C 575.897727 343.498295 572.701705 346.602273 564.100568 346.699432 C 556.097727 346.801705 548.1 346.801705 540.102273 346.602273 C 536.599432 346.602273 535.397727 347.4 534.901705 351.199432 C 532.401136 370.498295 521.401705 383.4 504 387.598295 C 500.001136 388.600568 495.797727 388.600568 491.701705 388.697727 C 473.599432 388.8 455.4 388.697727 437.200568 388.697727 C 431.498864 388.697727 431.498864 388.8 431.401705 394.399432 C 431.401705 399.298295 431.401705 404.299432 431.401705 409.300568 C 431.401705 415.999432 431.401705 416.101705 437.901136 416.101705 C 456.565909 416.101705 475.2 416.101705 493.798295 416.101705 C 507.201136 416.101705 520.598864 415.902273 534.001705 416.101705 C 554.502273 416.398295 569.899432 428.098295 574.598864 446.901136 C 574.864773 447.898295 575.064205 448.93125 575.202273 450 C 575.401705 451.002273 575.534659 451.999432 575.601136 453.001705 C 575.734091 453.998864 575.800568 455.031818 575.800568 456.100568 C 575.867045 457.097727 575.897727 458.1 575.897727 459.102273 C 575.897727 514.600568 575.897727 570.001705 576 625.397727 C 576 633.497727 573.197727 637.997727 563.098295 637.997727 C 495.301705 637.701136 427.602273 637.798295 359.800568 637.798295 Z M 359.299432 370.298864 C 403.435227 370.298864 447.601705 370.298864 491.798864 370.298864 C 507.702273 370.298864 516.497727 361.999432 516.6 346.101136 C 516.732955 299.567045 516.732955 253.032955 516.6 206.498864 C 516.6 190.401136 507.702273 181.8 491.502273 181.8 C 403.834091 181.8 316.165909 181.8 228.497727 181.8 C 212.200568 181.8 203.4 190.298864 203.4 206.498864 C 203.267045 253.032955 203.267045 299.567045 203.4 346.101136 C 203.4 361.999432 212.200568 370.298864 228.098864 370.298864 C 271.835795 370.298864 315.567614 370.298864 359.299432 370.298864 Z M 360 434.7 L 298.298864 434.7 C 261 434.7 223.798295 434.7 186.601705 434.7 C 170.897727 434.802273 162.398864 443.301136 162.398864 458.800568 C 162.398864 510.264205 162.398864 561.76875 162.398864 613.298864 C 162.398864 620.299432 162 619.598864 168.698864 619.598864 C 188.631818 619.598864 208.534091 619.598864 228.400568 619.598864 C 233.897727 619.598864 234 619.598864 234 613.902273 C 234 588.835227 234 563.732386 234 538.598864 C 234 529.2 236.899432 526.198295 246.400568 526.198295 C 322.133523 526.198295 397.866477 526.198295 473.599432 526.198295 C 482.998295 526.198295 485.897727 529.2 485.897727 538.701136 C 485.897727 563.768182 485.897727 588.865909 485.897727 613.999432 C 485.897727 619.598864 486 619.598864 491.502273 619.598864 C 511.435227 619.598864 531.368182 619.598864 551.301136 619.598864 C 557.401705 619.598864 557.498864 619.598864 557.498864 613.201705 C 557.498864 578.132386 557.498864 543.068182 557.498864 507.998864 C 557.498864 490.898864 557.498864 473.798864 557.401705 456.698864 C 557.401705 446.599432 551.500568 438.3 542.198864 435.702273 C 538.501705 434.7 534.497727 434.7 530.698295 434.7 C 473.768182 434.7 416.86875 434.7 360 434.7 Z M 360 544.602273 C 325.999432 544.602273 292.034659 544.602273 258.100568 544.602273 C 252.301705 544.602273 252.199432 544.699432 252.199432 550.099432 C 252.199432 571.5 252.301705 592.900568 252.102273 614.398295 C 252 618.698864 253.401136 619.701136 257.502273 619.701136 C 325.902273 619.568182 394.266477 619.568182 462.6 619.701136 C 466.900568 619.701136 468 618.402273 468 614.198864 C 467.800568 593.299432 467.897727 572.297727 467.897727 551.301136 C 467.897727 544.602273 467.897727 544.602273 461.198864 544.602273 C 427.397727 544.602273 393.632386 544.602273 359.897727 544.602273 Z M 397.697727 77.998295 C 397.8 57.6 380.7 40.198295 360.199432 40.101136 C 339.801136 40.101136 322.501705 57.201136 322.399432 77.701705 C 322.399432 98.1 339.402273 115.302273 359.897727 115.501705 C 380.198864 115.701136 397.600568 98.401705 397.697727 77.998295 Z M 360.102273 415.902273 C 376.000568 415.902273 392.001136 415.8 408.001705 415.999432 C 412.399432 416.101705 413.601136 414.700568 413.401705 410.502273 C 413.1 405.398864 413.299432 400.198295 413.299432 394.997727 C 413.299432 388.600568 413.299432 388.600568 406.999432 388.600568 C 381.334091 388.600568 355.632955 388.600568 329.901136 388.600568 C 323.800568 388.600568 317.802273 388.8 311.701705 388.498295 C 307.600568 388.298864 306.501136 389.802273 306.700568 393.698864 C 306.767045 395.1 306.833523 396.501136 306.9 397.902273 C 306.9 399.298295 306.9 400.699432 306.9 402.100568 C 306.9 403.501705 306.9 404.933523 306.9 406.401136 C 306.833523 407.802273 306.767045 409.198295 306.700568 410.599432 C 306.398864 414.797727 307.8 416.101705 312.100568 415.999432 C 328.101136 415.8 344.101705 415.902273 360.102273 415.902273 Z M 162.501136 276.601705 C 162.501136 288.501136 162.501136 300.400568 162.501136 312.3 C 162.501136 317.301136 162.797727 322.2 163.002273 327.201136 C 168.100568 327.497727 173.198864 327.901705 178.302273 327.998864 C 184.801705 328.101136 184.898864 327.998864 184.898864 321.100568 C 184.898864 294.3 184.898864 267.46875 184.898864 240.601705 C 184.898864 235.401136 184.5 230.297727 184.300568 225.199432 C 178.997727 224.897727 173.7 224.401705 168.3 224.299432 C 162.598295 224.202273 162.501136 224.401705 162.501136 230.502273 C 162.501136 245.832955 162.501136 261.199432 162.501136 276.601705 Z M 535.198295 276.601705 C 535.198295 288.501136 535.198295 300.400568 535.198295 312.3 C 535.198295 317.301136 535.5 322.2 535.699432 327.201136 C 540.797727 327.497727 545.998295 327.901705 551.101705 327.998864 C 557.498864 328.101136 557.601136 327.998864 557.601136 321.100568 C 557.601136 294.3 557.601136 267.46875 557.601136 240.601705 C 557.601136 235.401136 557.202273 230.297727 556.997727 225.199432 C 551.7 224.897727 546.402273 224.401705 541.099432 224.299432 C 535.300568 224.202273 535.198295 224.401705 535.198295 230.502273 C 535.198295 245.832955 535.198295 261.199432 535.198295 276.601705 Z M 353.500568 148.5 L 353.500568 154.902273 C 353.500568 164.398295 353.500568 164.398295 363.098864 163.600568 C 363.298295 163.600568 363.6 163.600568 363.702273 163.498295 C 364.699432 162.700568 366.3 161.800568 366.402273 160.900568 C 366.601705 152.800568 366.499432 144.598295 366.402273 136.401136 C 366.402273 135.501136 365.297727 133.798295 364.602273 133.798295 C 361.201705 133.598864 357.499432 133.097727 354.497727 134.299432 C 353.301136 134.800568 353.7 139.300568 353.500568 142.000568 C 353.398295 144.199432 353.500568 146.301136 353.500568 148.5 Z M 353.500568 148.5 " transform="matrix(0.763889,0,0,0.763889,0,0)"/>
<path style="fill-rule:evenodd;fill:rgb(19.607843%,36.862745%,39.215686%);fill-opacity:1;stroke-width:3.8;stroke-linecap:butt;stroke-linejoin:miter;stroke:rgb(19.607843%,36.862745%,39.215686%);stroke-opacity:1;stroke-miterlimit:4;" d="M 486 255.497727 C 485.897727 277.598864 467.897727 295.701136 446.001136 295.900568 C 423.598295 295.997727 405.398864 277.598864 405.501136 254.802273 C 405.598295 232.798295 423.598295 214.900568 445.801705 214.900568 C 468 214.798295 486 233.1 486 255.497727 Z M 445.699432 277.097727 C 448.598864 277.097727 451.401136 276.601705 454.101136 275.502273 C 456.801136 274.397727 459.199432 272.899432 461.198864 270.797727 C 463.300568 268.798295 464.901136 266.4 466.000568 263.802273 C 467.1 261.199432 467.698295 258.3 467.698295 255.497727 C 467.800568 243.199432 457.900568 233.498864 445.300568 233.601136 C 433.298864 233.698295 423.501136 243.598295 423.700568 255.497727 C 423.700568 258.402273 424.298864 261.199432 425.398295 263.802273 C 426.497727 266.502273 428.200568 268.900568 430.2 270.9 C 432.301705 272.899432 434.7 274.397727 437.4 275.502273 C 439.997727 276.601705 442.902273 277.097727 445.699432 277.097727 Z M 445.699432 277.097727 " transform="matrix(0.763889,0,0,0.763889,0,0)"/>
<path style="fill-rule:nonzero;fill:rgb(19.607843%,36.862745%,39.215686%);fill-opacity:1;stroke-width:3.8;stroke-linecap:butt;stroke-linejoin:miter;stroke:rgb(19.607843%,36.862745%,39.215686%);stroke-opacity:1;stroke-miterlimit:4;" d="M 360 325.201705 C 376.665341 325.201705 393.335795 325.201705 410.001136 325.201705 C 418.397727 325.201705 423.102273 328.397727 423.199432 334.401136 C 423.301705 340.302273 418.5 343.902273 410.200568 343.902273 C 376.731818 343.902273 343.232386 343.902273 309.702273 343.902273 C 301.5 343.902273 296.698295 340.2 296.897727 334.298864 C 297 328.5 301.5 325.201705 309.497727 325.201705 C 326.301136 325.099432 343.201705 325.201705 360 325.201705 Z M 360 325.201705 " transform="matrix(0.763889,0,0,0.763889,0,0)"/>
<path style=" stroke:none;fill-rule:evenodd;fill:rgb(19.607843%,36.862745%,39.215686%);fill-opacity:1;" d="M 152.703125 341.6875 C 163.015625 341.765625 171.644531 350.394531 171.644531 360.632812 C 171.644531 370.867188 163.015625 379.652344 152.777344 379.652344 C 142.160156 379.652344 133.757812 370.945312 133.910156 360.171875 C 134.0625 350.089844 142.695312 341.535156 152.703125 341.6875 Z M 157.515625 360.859375 C 157.515625 360.25 157.410156 359.640625 157.207031 359.027344 C 157.003906 358.46875 156.699219 357.957031 156.292969 357.5 C 155.832031 357.042969 155.324219 356.683594 154.765625 356.429688 C 154.203125 356.175781 153.617188 356.046875 153.007812 356.046875 C 150.257812 355.894531 148.195312 357.578125 147.964844 360.25 C 147.863281 360.910156 147.914062 361.546875 148.117188 362.160156 C 148.320312 362.769531 148.652344 363.332031 149.109375 363.839844 C 149.570312 364.347656 150.105469 364.730469 150.714844 364.984375 C 151.328125 365.242188 151.964844 365.367188 152.625 365.367188 C 153.234375 365.367188 153.820312 365.265625 154.382812 365.0625 C 154.992188 364.859375 155.527344 364.554688 155.984375 364.144531 C 156.445312 363.6875 156.800781 363.179688 157.054688 362.617188 C 157.308594 362.058594 157.464844 361.472656 157.515625 360.859375 Z M 157.515625 360.859375 "/>
<path style=" stroke:none;fill-rule:evenodd;fill:rgb(19.607843%,36.862745%,39.215686%);fill-opacity:1;" d="M 416.015625 360.632812 C 416.015625 363.152344 415.554688 365.597656 414.640625 367.890625 C 413.722656 370.179688 412.347656 372.242188 410.589844 374.078125 C 408.832031 375.832031 406.769531 377.207031 404.480469 378.203125 C 402.1875 379.117188 399.742188 379.652344 397.222656 379.652344 C 387.0625 379.730469 378.277344 370.945312 378.277344 360.707031 C 378.277344 350.472656 386.984375 341.6875 397.222656 341.6875 C 399.667969 341.6875 402.109375 342.222656 404.402344 343.140625 C 406.695312 344.132812 408.757812 345.507812 410.515625 347.265625 C 412.269531 349.019531 413.644531 351.160156 414.640625 353.453125 C 415.554688 355.742188 416.015625 358.1875 416.015625 360.632812 Z M 397.453125 356.046875 C 396.230469 355.972656 395.007812 356.355469 394.089844 357.195312 C 393.171875 357.957031 392.5625 359.105469 392.484375 360.328125 C 392.410156 361.625 392.792969 362.769531 393.632812 363.765625 C 394.472656 364.679688 395.617188 365.214844 396.839844 365.292969 C 399.742188 365.519531 402.035156 363.535156 402.035156 360.785156 C 402.035156 360.121094 401.933594 359.511719 401.730469 358.953125 C 401.527344 358.390625 401.195312 357.882812 400.734375 357.421875 C 400.328125 356.964844 399.84375 356.609375 399.285156 356.355469 C 398.671875 356.152344 398.0625 356.046875 397.453125 356.046875 Z M 397.453125 356.046875 "/>
</g>
</svg>
