<?xml version="1.0" encoding="UTF-8"?>
<svg xmlns="http://www.w3.org/2000/svg" xmlns:xlink="http://www.w3.org/1999/xlink" width="550px" height="550px" viewBox="0 0 550 550" version="1.1">
<g id="surface1">
<path style=" stroke:none;fill-rule:evenodd;fill:rgb(19.607843%,36.862745%,39.215686%);fill-opacity:1;" d="M 317.242188 270.339844 C 322.285156 275.230469 327.402344 280.269531 332.445312 285.3125 C 337.484375 290.355469 337.484375 294.480469 332.519531 299.519531 C 327.785156 304.359375 322.996094 309.121094 318.160156 313.804688 C 313.347656 318.542969 309.296875 318.542969 304.484375 313.804688 C 299.367188 308.6875 294.328125 303.492188 288.75 297.765625 C 284.320312 302.347656 280.269531 306.472656 276.375 310.671875 C 273.703125 313.5 270.644531 315.257812 266.671875 314.035156 C 262.777344 312.890625 261.480469 309.679688 260.714844 306.089844 C 255.417969 283.070312 250.097656 260.054688 244.75 237.035156 C 242.917969 228.707031 247.421875 224.046875 255.597656 225.957031 C 278.921875 231.304688 302.21875 236.679688 325.492188 242.078125 C 334.125 244.140625 335.882812 250.9375 329.695312 257.277344 C 325.722656 261.328125 321.671875 265.296875 317.703125 269.347656 C 317.652344 269.398438 317.625 269.472656 317.625 269.578125 C 317.574219 269.628906 317.523438 269.703125 317.472656 269.804688 C 317.421875 269.90625 317.394531 269.984375 317.394531 270.035156 C 317.34375 270.136719 317.292969 270.238281 317.242188 270.339844 Z M 316.859375 292.1875 C 311.589844 286.992188 306.546875 282.027344 301.507812 276.984375 C 296.390625 271.867188 296.390625 267.972656 301.507812 262.703125 C 304.027344 260.179688 306.546875 257.660156 309.453125 254.679688 L 262.929688 244.0625 L 273.777344 290.8125 C 276.527344 287.910156 278.589844 285.695312 280.804688 283.480469 C 286.992188 277.214844 290.582031 277.214844 296.769531 283.402344 C 301.507812 288.214844 306.167969 293.105469 311.132812 298.296875 Z M 316.859375 292.1875 "/>
<path style=" stroke:none;fill-rule:nonzero;fill:rgb(19.607843%,36.862745%,39.215686%);fill-opacity:1;" d="M 262.167969 196.015625 C 262.167969 197.921875 262.242188 199.832031 262.167969 201.667969 C 261.785156 206.019531 258.730469 209.078125 254.679688 209.304688 C 250.632812 209.609375 246.890625 206.9375 246.429688 202.660156 C 246.328125 201.488281 246.253906 200.34375 246.203125 199.222656 C 246.097656 198.050781 246.046875 196.90625 246.046875 195.785156 C 246.046875 194.664062 246.097656 193.519531 246.203125 192.347656 C 246.253906 191.226562 246.328125 190.082031 246.429688 188.910156 C 246.890625 184.632812 250.554688 182.109375 254.679688 182.339844 C 258.730469 182.570312 261.785156 185.625 262.089844 189.980469 C 262.242188 191.964844 262.167969 194.027344 262.167969 196.015625 Z M 262.167969 196.015625 "/>
<path style=" stroke:none;fill-rule:nonzero;fill:rgb(19.607843%,36.862745%,39.215686%);fill-opacity:1;" d="M 270.035156 211.445312 C 270.339844 210.296875 270.265625 208.769531 271.027344 208.007812 C 274.769531 204.035156 278.359375 199.757812 282.640625 196.394531 C 285.617188 194.027344 289.132812 195.402344 291.730469 197.921875 C 294.25 200.367188 294.859375 204.796875 292.570312 207.546875 C 291.753906 208.464844 290.941406 209.382812 290.125 210.296875 C 289.308594 211.164062 288.46875 212.03125 287.605469 212.894531 C 286.789062 213.761719 285.921875 214.601562 285.007812 215.417969 C 284.140625 216.230469 283.25 217.046875 282.332031 217.859375 C 281.824219 218.320312 281.238281 218.703125 280.578125 219.007812 C 279.914062 219.261719 279.203125 219.414062 278.4375 219.464844 C 277.722656 219.515625 277.035156 219.441406 276.375 219.234375 C 275.660156 218.980469 275.027344 218.652344 274.464844 218.242188 C 272.402344 216.640625 271.027344 214.269531 269.347656 212.132812 Z M 270.035156 211.445312 "/>
<path style=" stroke:none;fill-rule:nonzero;fill:rgb(19.607843%,36.862745%,39.215686%);fill-opacity:1;" d="M 214.957031 243.296875 C 212.515625 243.222656 210.070312 243.222656 207.703125 242.917969 C 206.785156 242.765625 205.917969 242.457031 205.105469 242 C 204.339844 241.542969 203.652344 240.980469 203.042969 240.320312 C 202.429688 239.605469 201.972656 238.816406 201.667969 237.953125 C 201.308594 237.085938 201.132812 236.195312 201.132812 235.277344 C 201.132812 231.765625 203.578125 228.097656 207.167969 227.714844 C 208.390625 227.613281 209.636719 227.535156 210.910156 227.484375 C 212.183594 227.433594 213.457031 227.410156 214.730469 227.410156 C 216.003906 227.410156 217.277344 227.433594 218.546875 227.484375 C 219.820312 227.535156 221.09375 227.613281 222.367188 227.714844 C 226.1875 228.097656 228.480469 231.839844 228.25 235.734375 C 228.199219 236.601562 228.019531 237.441406 227.714844 238.257812 C 227.359375 239.070312 226.902344 239.808594 226.339844 240.472656 C 225.730469 241.132812 225.042969 241.667969 224.277344 242.078125 C 223.464844 242.484375 222.621094 242.765625 221.757812 242.917969 C 219.542969 243.222656 217.25 243.222656 214.957031 243.296875 Z M 214.957031 243.296875 "/>
<path style=" stroke:none;fill-rule:nonzero;fill:rgb(19.607843%,36.862745%,39.215686%);fill-opacity:1;" d="M 238.105469 259.570312 C 237.953125 260.179688 238.027344 261.707031 237.339844 262.472656 C 233.597656 266.445312 230.007812 270.644531 225.730469 274.007812 C 222.75 276.296875 219.160156 275.152344 216.5625 272.480469 C 214.042969 269.804688 213.277344 266.140625 215.570312 263.234375 C 218.703125 259.265625 222.292969 255.445312 226.339844 252.464844 C 231.304688 248.875 238.027344 252.847656 238.105469 259.570312 Z M 238.105469 259.570312 "/>
<path style=" stroke:none;fill-rule:nonzero;fill:rgb(19.607843%,36.862745%,39.215686%);fill-opacity:1;" d="M 238.105469 211.0625 C 238.179688 217.328125 231.535156 221.605469 226.570312 218.089844 C 222.367188 215.109375 218.777344 211.0625 215.492188 207.089844 C 214.984375 206.480469 214.601562 205.792969 214.347656 205.027344 C 214.144531 204.265625 214.066406 203.472656 214.117188 202.660156 C 214.21875 201.894531 214.449219 201.15625 214.804688 200.445312 C 215.160156 199.730469 215.644531 199.121094 216.257812 198.609375 C 218.242188 196.929688 221.910156 195.171875 223.972656 195.9375 C 230.234375 198.078125 234.207031 203.421875 237.796875 208.847656 C 238.179688 209.457031 238.027344 210.453125 238.105469 211.0625 Z M 238.105469 211.0625 "/>
<path style="fill-rule:nonzero;fill:rgb(19.607843%,36.862745%,39.215686%);fill-opacity:1;stroke-width:0.6;stroke-linecap:butt;stroke-linejoin:miter;stroke:rgb(19.607843%,36.862745%,39.215686%);stroke-opacity:1;stroke-miterlimit:4;" d="M 608.001136 187.598864 L 608.001136 502.302273 C 608.001136 505.600568 607.300568 509.001136 606.001705 512.1 C 604.8 515.198864 602.897727 518.001136 600.499432 520.399432 C 598.101136 522.797727 595.298864 524.7 592.2 525.901705 C 589.101136 527.200568 585.700568 527.901136 582.402273 527.901136 L 136.600568 527.901136 C 133.302273 527.901136 129.901705 527.200568 126.797727 525.901705 C 123.698864 524.597727 120.901705 522.797727 118.498295 520.399432 C 116.1 518.001136 114.197727 515.198864 113.001136 512.1 C 111.702273 509.001136 111.001705 505.600568 111.001705 502.302273 L 111.001705 187.598864 C 111.001705 184.300568 111.702273 180.9 113.001136 177.801136 C 114.197727 174.702273 116.1 171.9 118.498295 169.501705 C 120.901705 167.098295 123.698864 165.298295 126.797727 163.999432 C 129.901705 162.700568 133.302273 162 136.600568 162 L 176.200568 162 L 176.200568 176.901136 L 136.600568 176.901136 C 135.199432 176.901136 133.798295 177.197727 132.499432 177.801136 C 131.200568 178.302273 130.101136 179.1 129.098864 180.102273 C 128.101705 181.099432 127.298864 182.198864 126.797727 183.497727 C 126.199432 184.801705 125.897727 186.197727 125.897727 187.598864 L 125.897727 502.302273 C 125.897727 503.698295 126.199432 505.099432 126.797727 506.398295 C 127.298864 507.702273 128.101705 508.801705 129.098864 509.798864 C 130.101136 510.801136 131.200568 511.598864 132.499432 512.1 C 133.798295 512.698295 135.199432 513 136.600568 513 L 582.402273 513 C 583.798295 513 585.199432 512.698295 586.498295 512.1 C 587.802273 511.598864 588.901705 510.801136 589.898864 509.798864 C 590.901136 508.801705 591.698864 507.702273 592.2 506.398295 C 592.798295 505.099432 593.1 503.698295 593.1 502.302273 L 593.1 187.598864 C 593.1 186.197727 592.798295 184.801705 592.2 183.497727 C 591.698864 182.198864 590.901136 181.099432 589.898864 180.102273 C 588.901705 179.1 587.802273 178.302273 586.498295 177.801136 C 585.199432 177.197727 583.798295 176.901136 582.402273 176.901136 L 530.401705 176.901136 L 530.498864 162 L 582.402273 162 C 585.700568 162 589.101136 162.700568 592.2 163.999432 C 595.298864 165.201136 598.101136 167.098295 600.499432 169.501705 C 602.897727 171.9 604.8 174.702273 606.001705 177.801136 C 607.300568 180.9 608.001136 184.300568 608.001136 187.598864 Z M 608.001136 187.598864 " transform="matrix(0.763889,0,0,0.763889,0,0)"/>
<path style="fill-rule:nonzero;fill:rgb(19.607843%,36.862745%,39.215686%);fill-opacity:1;stroke-width:0.6;stroke-linecap:butt;stroke-linejoin:miter;stroke:rgb(19.607843%,36.862745%,39.215686%);stroke-opacity:1;stroke-miterlimit:4;" d="M 581.998295 202.198295 L 581.998295 451.902273 L 136.999432 451.902273 L 136.999432 202.198295 L 172.999432 202.397727 L 172.999432 217.298864 L 151.900568 217.099432 L 151.900568 436.898864 L 188.498864 436.898864 L 188.498864 439.997727 L 545.701705 439.997727 L 545.701705 436.898864 L 567.102273 436.898864 L 567.102273 217.099432 L 530.401705 217.099432 L 530.401705 202.198295 Z M 581.998295 202.198295 " transform="matrix(0.763889,0,0,0.763889,0,0)"/>
<path style="fill-rule:evenodd;fill:rgb(19.607843%,36.862745%,39.215686%);fill-opacity:1;stroke-width:0.6;stroke-linecap:butt;stroke-linejoin:miter;stroke:rgb(19.607843%,36.862745%,39.215686%);stroke-opacity:1;stroke-miterlimit:4;" d="M 279.199432 602.601136 C 277.900568 602.601136 276.499432 602.202273 275.4 601.501705 C 274.198295 600.801136 273.201136 599.798864 272.597727 598.602273 C 271.999432 597.298295 271.697727 595.999432 271.8 594.598295 C 271.902273 593.299432 272.301136 591.898295 273.098864 590.798864 L 275.701705 587.101705 C 290.101705 566.601136 296.498864 543.799432 294.197727 521.202273 C 294.100568 520.097727 294.197727 519.100568 294.499432 518.098295 C 294.898295 517.101136 295.399432 516.201136 296.1 515.398295 C 296.800568 514.600568 297.700568 514.002273 298.600568 513.598295 C 299.597727 513.199432 300.6 513 301.699432 513 L 417.400568 513 C 418.397727 513 419.502273 513.199432 420.402273 513.598295 C 421.399432 514.002273 422.202273 514.600568 422.897727 515.398295 C 423.598295 516.201136 424.201705 517.101136 424.498295 518.098295 C 424.8 519.100568 424.902273 520.097727 424.8 521.202273 C 422.601136 543.799432 428.998295 566.601136 443.301136 587.101705 L 445.898864 590.798864 C 446.701705 591.898295 447.197727 593.299432 447.3 594.598295 C 447.402273 595.999432 447.100568 597.298295 446.4 598.602273 C 445.801705 599.798864 444.799432 600.801136 443.7 601.501705 C 442.498295 602.202273 441.199432 602.601136 439.798295 602.601136 Z M 309.497727 527.901136 C 309.998864 548.401705 304.399432 568.8 293.098295 587.597727 L 425.802273 587.597727 C 414.598295 568.8 408.998864 548.401705 409.397727 527.901136 Z M 309.497727 527.901136 " transform="matrix(0.763889,0,0,0.763889,0,0)"/>
<path style="fill-rule:evenodd;fill:rgb(19.607843%,36.862745%,39.215686%);fill-opacity:1;stroke-width:0.6;stroke-linecap:butt;stroke-linejoin:miter;stroke:rgb(19.607843%,36.862745%,39.215686%);stroke-opacity:1;stroke-miterlimit:4;" d="M 459.199432 636.197727 L 259.798295 636.197727 C 253.401136 636.197727 247.198295 633.6 242.601136 629.1 C 238.101136 624.497727 235.498295 618.3 235.498295 611.897727 C 235.498295 605.500568 238.101136 599.297727 242.601136 594.700568 C 247.198295 590.200568 253.401136 587.597727 259.798295 587.597727 L 459.199432 587.597727 C 465.601705 587.597727 471.799432 590.200568 476.299432 594.700568 C 480.901705 599.297727 483.499432 605.500568 483.499432 611.897727 C 483.499432 618.3 480.901705 624.497727 476.299432 629.1 C 471.799432 633.6 465.601705 636.197727 459.199432 636.197727 Z M 259.798295 602.601136 C 257.297727 602.601136 255.001705 603.598295 253.201705 605.301136 C 251.498864 607.101136 250.501705 609.402273 250.501705 611.897727 C 250.501705 614.398295 251.498864 616.801705 253.201705 618.499432 C 255.001705 620.299432 257.297727 621.199432 259.798295 621.199432 L 459.199432 621.199432 C 461.7 621.199432 464.001136 620.299432 465.801136 618.499432 C 467.498864 616.801705 468.501136 614.398295 468.501136 611.897727 C 468.501136 609.402273 467.498864 607.101136 465.801136 605.301136 C 464.001136 603.598295 461.7 602.601136 459.199432 602.601136 Z M 259.798295 602.601136 " transform="matrix(0.763889,0,0,0.763889,0,0)"/>
<path style="fill-rule:nonzero;fill:rgb(19.607843%,36.862745%,39.215686%);fill-opacity:1;stroke-width:0.6;stroke-linecap:butt;stroke-linejoin:miter;stroke:rgb(19.607843%,36.862745%,39.215686%);stroke-opacity:1;stroke-miterlimit:4;" d="M 172.999432 202.300568 L 530.401705 202.300568 L 530.401705 217.201705 L 172.999432 217.201705 Z M 172.999432 202.300568 " transform="matrix(0.763889,0,0,0.763889,0,0)"/>
<path style="fill-rule:nonzero;fill:rgb(19.607843%,36.862745%,39.215686%);fill-opacity:1;stroke-width:0.6;stroke-linecap:butt;stroke-linejoin:miter;stroke:rgb(19.607843%,36.862745%,39.215686%);stroke-opacity:1;stroke-miterlimit:4;" d="M 176.200568 176.901136 L 176.200568 162 L 530.498864 162 L 530.401705 176.901136 Z M 176.200568 176.901136 " transform="matrix(0.763889,0,0,0.763889,0,0)"/>
</g>
</svg>
