<?xml version="1.0" encoding="UTF-8"?>
<svg xmlns="http://www.w3.org/2000/svg" xmlns:xlink="http://www.w3.org/1999/xlink" width="550px" height="px" viewBox="0 0 550 550" version="1.1">
<g id="surface1">
<path style="fill:none;stroke-width:12.5;stroke-linecap:butt;stroke-linejoin:miter;stroke:rgb(19.607843%,36.862745%,39.215686%);stroke-opacity:1;stroke-miterlimit:4;" d="M 129.098864 358.097727 C 129.998864 354.702273 130.898864 351.199432 131.901136 347.798864 C 140.001136 319.699432 166.5 299.7 195.801136 299.597727 C 215.800568 299.597727 235.902273 299.500568 255.901705 299.7 C 259.302273 299.7 260.498864 298.999432 260.401705 295.399432 C 260.299432 275.4 260.299432 255.400568 260.299432 235.600568 C 260.299432 226.697727 262.099432 217.999432 265.5 209.899432 C 268.798295 201.702273 273.799432 194.4 280.099432 188.1 C 286.302273 181.902273 293.701705 176.798864 301.801705 173.398295 C 309.998864 170.1 318.6 168.402273 327.497727 168.402273 C 348.765341 168.335795 370.032955 168.335795 391.300568 168.402273 C 428.098295 168.402273 458.1 198.398864 458.202273 235.201705 C 458.202273 255.400568 458.299432 275.4 458.1 295.501705 C 458.1 298.902273 458.897727 299.7 462.298295 299.7 C 482.297727 299.500568 502.2 299.597727 522.102273 299.597727 C 531 299.597727 539.698295 301.300568 547.997727 304.701136 C 556.097727 308.101705 563.502273 313.000568 569.802273 319.300568 C 576.102273 325.498295 581.001136 333 584.401705 341.202273 C 587.802273 349.399432 589.5 358.2 589.5 367.000568 C 589.566477 388.135227 589.566477 409.264773 589.5 430.399432 C 589.5 439.2 587.7 447.898295 584.299432 455.998295 C 580.898864 464.200568 576 471.6 569.7 477.797727 C 563.502273 484.000568 556.097727 488.899432 547.997727 492.3 C 539.800568 495.700568 531.102273 497.398295 522.301705 497.398295 C 502.302273 497.500568 482.4 497.597727 462.497727 497.301136 C 458.800568 497.301136 458.1 498.400568 458.1 501.898295 C 458.299432 521.601136 458.202273 541.401136 458.202273 561.201136 C 458.1 594.501136 434.7 622.201705 401.701705 627.898295 C 401.56875 627.964773 401.4 628.03125 401.200568 628.097727 C 401.067614 628.164205 400.898864 628.235795 400.699432 628.302273 C 400.566477 628.36875 400.433523 628.435227 400.300568 628.501705 C 400.101136 628.634659 399.932386 628.731818 399.799432 628.798295 L 318.901705 628.798295 C 318.702273 628.731818 318.533523 628.634659 318.400568 628.501705 C 318.201136 628.435227 318.032386 628.36875 317.899432 628.302273 C 317.7 628.235795 317.53125 628.164205 317.398295 628.097727 C 317.198864 628.03125 316.999432 627.964773 316.8 627.898295 C 283.699432 622.099432 260.401705 594.501136 260.401705 560.899432 C 260.401705 541.099432 260.299432 521.401705 260.498864 501.601705 C 260.498864 498.298295 259.701136 497.301136 256.300568 497.398295 C 236.234659 497.464773 216.16875 497.464773 196.097727 497.398295 C 188.897727 497.398295 181.8 496.201705 174.901705 493.900568 C 168.100568 491.599432 161.601136 488.198864 155.802273 483.801136 C 150.100568 479.500568 145.002273 474.197727 140.998295 468.301705 C 136.902273 462.298295 133.701136 455.798864 131.798864 448.798295 C 130.898864 445.602273 129.998864 442.298864 129.098864 439.097727 Z M 275.701705 385.000568 C 265.699432 385.000568 260.401705 390.201136 260.401705 400.101136 C 260.401705 421.900568 260.299432 443.899432 260.498864 465.698864 C 260.498864 469.298864 259.900568 470.500568 255.901705 470.500568 C 236.802273 470.301136 217.600568 470.500568 198.398864 470.500568 C 173.597727 470.398295 156.201136 452.899432 156.098864 427.898864 C 156.032386 408.298295 156.032386 388.667045 156.098864 369 C 156.201136 343.902273 173.597727 326.500568 198.797727 326.500568 C 252 326.500568 305.202273 326.500568 358.399432 326.500568 C 369.301705 326.500568 376.097727 316.401136 371.398295 307.201705 C 368.800568 302.001136 364.5 299.597727 358.701136 299.597727 C 336.400568 299.597727 313.997727 299.500568 291.702273 299.7 C 288.199432 299.7 287.299432 298.697727 287.299432 295.2 C 287.401705 276.100568 287.299432 256.898864 287.401705 237.702273 C 287.401705 212.798864 304.900568 195.3 329.798864 195.3 C 349.399432 195.233523 369 195.233523 388.600568 195.3 C 413.800568 195.3 431.202273 212.701705 431.202273 237.901705 C 431.299432 285.402273 431.202273 332.897727 431.401705 380.398295 C 431.401705 384.100568 430.501705 385.2 426.702273 385.2 C 401.200568 384.898295 375.801136 385.000568 350.299432 385.000568 Z M 359.800568 470.500568 C 348.801136 470.500568 342.301705 481.397727 347.599432 490.699432 C 350.299432 495.398864 354.497727 497.500568 359.897727 497.500568 C 382.101136 497.500568 404.299432 497.597727 426.497727 497.398295 C 430.501705 497.301136 431.401705 498.400568 431.401705 502.302273 C 431.1 521.800568 431.401705 541.298864 431.202273 560.802273 C 430.997727 580.101136 419.001136 595.8 400.801705 600.402273 C 399.799432 600.601705 398.802273 600.801136 397.8 601.000568 C 396.797727 601.133523 395.800568 601.266477 394.798295 601.399432 C 393.801136 601.532386 392.798864 601.598864 391.801705 601.598864 C 390.799432 601.665341 389.766477 601.701136 388.697727 601.701136 C 369.102273 601.900568 349.501705 601.900568 329.798864 601.798295 C 304.997727 601.701136 287.401705 584.299432 287.401705 559.401136 C 287.299432 511.798295 287.401705 464.098295 287.299432 416.398295 C 287.202273 412.399432 288.598295 411.898295 292.101136 411.898295 C 342.199432 412.097727 392.200568 411.801136 442.298864 412.2 C 452.398295 412.302273 458.601136 405.501136 458.299432 396.199432 C 457.900568 374.4 458.299432 352.8 458.1 331.000568 C 458.1 327.6 458.800568 326.398295 462.497727 326.500568 C 481.801705 326.7 501.197727 326.500568 520.501705 326.597727 C 544.898864 326.7 562.397727 344.198864 562.602273 368.498864 C 562.66875 388.431818 562.66875 408.364773 562.602273 428.297727 C 562.397727 453.001705 545.001136 470.500568 520.302273 470.500568 C 493.701136 470.500568 467.202273 470.500568 440.698295 470.500568 C 413.698295 470.500568 386.800568 470.500568 359.800568 470.500568 Z M 359.800568 470.500568 " transform="matrix(0.763889,0,0,0.763889,0,0)"/>
<path style="fill:none;stroke-width:12.5;stroke-linecap:butt;stroke-linejoin:miter;stroke:rgb(19.607843%,36.862745%,39.215686%);stroke-opacity:1;stroke-miterlimit:4;" d="M 341.299432 249.402273 C 341.202273 254.802273 337.898864 259.798295 332.800568 261.700568 C 327.702273 263.802273 321.898295 262.498295 318.098864 258.601705 C 314.401705 254.7 313.302273 248.798864 315.501136 243.797727 C 317.7 238.801705 322.701136 235.600568 328.198295 235.8 C 329.901136 235.8 331.701136 236.198864 333.301705 236.899432 C 334.902273 237.6 336.400568 238.602273 337.602273 239.901136 C 338.798864 241.2 339.801136 242.601136 340.399432 244.298864 C 341.1 245.899432 341.299432 247.602273 341.299432 249.402273 Z M 341.299432 249.402273 " transform="matrix(0.763889,0,0,0.763889,0,0)"/>
<path style="fill:none;stroke-width:12.5;stroke-linecap:butt;stroke-linejoin:miter;stroke:rgb(19.607843%,36.862745%,39.215686%);stroke-opacity:1;stroke-miterlimit:4;" d="M 404.299432 547.997727 C 404.202273 553.397727 400.898864 558.301705 395.800568 560.398295 C 390.702273 562.300568 384.898295 561.098864 381.098864 557.202273 C 377.299432 553.198295 376.2 547.501705 378.398864 542.500568 C 380.7 537.402273 385.701136 534.201136 391.101136 534.400568 C 392.901136 534.400568 394.598864 534.799432 396.199432 535.5 C 397.8 536.200568 399.298295 537.197727 400.5 538.501705 C 401.701705 539.698295 402.698864 541.201705 403.302273 542.802273 C 403.900568 544.5 404.299432 546.197727 404.299432 547.997727 Z M 404.299432 547.997727 " transform="matrix(0.763889,0,0,0.763889,0,0)"/>
</g>
</svg>
