<?xml version="1.0" encoding="UTF-8"?>
<svg xmlns="http://www.w3.org/2000/svg" xmlns:xlink="http://www.w3.org/1999/xlink" width="550px" height="px" viewBox="0 0 550 550" version="1.1">
<g id="surface1">
<path style=" stroke:none;fill-rule:evenodd;fill:rgb(19.607843%,36.862745%,39.215686%);fill-opacity:1;" d="M 277.671875 393.328125 C 331.808594 393.328125 385.917969 393.328125 440 393.328125 C 445.042969 393.328125 449.777344 392.5625 453.902344 389.582031 C 459.9375 385.304688 462.609375 379.269531 462.609375 371.9375 C 462.609375 350.546875 462.609375 329.160156 462.765625 307.769531 C 462.765625 307.160156 462.789062 306.574219 462.839844 306.015625 C 462.941406 305.453125 463.09375 304.894531 463.296875 304.332031 C 463.453125 303.773438 463.65625 303.238281 463.910156 302.730469 C 464.164062 302.21875 464.445312 301.734375 464.75 301.277344 C 466.507812 298.984375 469.332031 298.679688 472.007812 299.902344 C 474.910156 301.125 476.054688 303.492188 476.054688 306.625 C 476.054688 318.082031 476.054688 329.542969 476.054688 341 C 476.054688 351.921875 476.132812 362.847656 476.054688 373.769531 C 475.980469 378.046875 475.140625 382.328125 473.457031 386.296875 C 471.777344 390.269531 469.332031 393.859375 466.355469 396.917969 C 463.296875 399.972656 459.632812 402.417969 455.734375 404.097656 C 451.765625 405.777344 447.484375 406.617188 443.207031 406.695312 C 414.105469 406.769531 385 406.695312 355.894531 406.695312 C 351.542969 406.695312 351.542969 406.695312 353.605469 410.515625 C 355.335938 413.773438 357.320312 416.855469 359.5625 419.757812 C 361.804688 422.660156 364.296875 425.332031 367.046875 427.777344 C 369.746094 430.273438 372.652344 432.515625 375.757812 434.5 C 378.863281 436.484375 382.097656 438.167969 385.457031 439.542969 C 390.882812 441.910156 396.230469 444.429688 401.804688 446.035156 C 405.703125 447.105469 410.054688 446.570312 414.179688 447.027344 C 417.3125 447.410156 420.671875 447.484375 423.5 448.707031 C 431.292969 451.992188 435.417969 458.105469 435.722656 466.660156 C 435.875 470.859375 435.722656 475.0625 435.722656 479.265625 C 435.722656 484.992188 433.355469 487.285156 427.546875 487.285156 C 414.410156 487.285156 267.820312 487.285156 254.679688 487.285156 C 250.480469 487.285156 247.804688 484.382812 247.804688 480.484375 C 247.804688 476.742188 250.554688 474.144531 254.527344 473.917969 C 255.671875 473.839844 256.820312 473.917969 257.890625 473.917969 C 310.800781 473.917969 363.6875 473.890625 416.546875 473.839844 C 418.457031 473.839844 421.285156 475.519531 422.277344 472.542969 C 423.804688 467.957031 421.820312 462.6875 418.230469 461.3125 C 417.871094 461.160156 417.515625 461.03125 417.160156 460.929688 C 416.804688 460.828125 416.445312 460.753906 416.089844 460.703125 C 415.683594 460.652344 415.300781 460.597656 414.945312 460.546875 C 414.535156 460.546875 414.15625 460.546875 413.796875 460.546875 C 321.0625 460.546875 228.351562 460.546875 135.667969 460.546875 C 128.792969 460.546875 125.203125 465.667969 127.109375 472.542969 C 127.160156 472.695312 127.238281 472.847656 127.339844 473 C 127.492188 473.152344 127.621094 473.28125 127.722656 473.382812 C 127.875 473.535156 128.027344 473.636719 128.179688 473.6875 C 128.332031 473.789062 128.511719 473.867188 128.714844 473.917969 C 128.96875 473.96875 129.25 473.992188 129.554688 473.992188 C 129.808594 473.992188 130.089844 474.019531 130.394531 474.070312 C 130.652344 474.070312 130.929688 474.042969 131.234375 473.992188 C 131.492188 473.992188 131.769531 473.992188 132.078125 473.992188 L 224.8125 473.992188 C 225.882812 473.992188 227.027344 473.917969 228.171875 473.992188 C 229.777344 474.222656 231.230469 475.0625 232.296875 476.285156 C 233.367188 477.507812 233.980469 479.109375 233.902344 480.714844 C 233.902344 482.394531 233.292969 483.921875 232.222656 485.144531 C 231.078125 486.367188 229.625 487.132812 228.019531 487.359375 C 227.179688 487.359375 226.339844 487.359375 225.5 487.359375 L 122.527344 487.359375 C 115.5 487.359375 113.589844 485.375 113.589844 478.421875 L 113.589844 468.339844 C 113.589844 455.429688 121.917969 446.875 134.75 447.027344 C 159.578125 447.5625 187.609375 428.234375 195.328125 411.277344 C 195.785156 410.359375 196.242188 409.519531 196.703125 408.679688 C 197.464844 407.382812 197.234375 406.617188 195.632812 406.769531 C 194.640625 406.769531 193.644531 406.769531 192.652344 406.769531 C 166.628906 406.769531 140.632812 406.769531 114.660156 406.769531 C 90.828125 406.769531 73.332031 389.277344 73.332031 365.519531 C 73.332031 296.820312 73.332031 228.148438 73.332031 159.5 C 73.332031 139.332031 87.769531 124.820312 107.859375 124.820312 C 144.933594 124.820312 181.984375 124.820312 219.007812 124.820312 C 219.414062 124.820312 219.796875 124.820312 220.152344 124.820312 C 220.558594 124.820312 220.941406 124.84375 221.296875 124.894531 C 221.65625 124.945312 222.035156 124.996094 222.445312 125.046875 C 222.800781 125.152344 223.15625 125.253906 223.515625 125.355469 C 224.226562 125.609375 224.863281 125.964844 225.421875 126.421875 C 226.035156 126.882812 226.519531 127.441406 226.875 128.105469 C 227.230469 128.765625 227.484375 129.453125 227.640625 130.167969 C 227.742188 130.929688 227.714844 131.667969 227.5625 132.382812 C 227.511719 133.09375 227.332031 133.808594 227.027344 134.519531 C 226.722656 135.183594 226.316406 135.769531 225.804688 136.277344 C 225.246094 136.839844 224.632812 137.269531 223.972656 137.578125 C 223.308594 137.882812 222.597656 138.058594 221.832031 138.109375 C 221.527344 138.160156 221.222656 138.1875 220.917969 138.1875 C 220.609375 138.238281 220.304688 138.265625 220 138.265625 C 219.695312 138.265625 219.363281 138.265625 219.007812 138.265625 C 218.703125 138.214844 218.394531 138.1875 218.089844 138.1875 L 109.390625 138.1875 C 94.953125 138.1875 86.703125 146.359375 86.703125 160.722656 C 86.703125 228.65625 86.703125 296.617188 86.703125 364.605469 C 86.703125 378.125 93.804688 388.515625 105.796875 391.953125 C 106.664062 392.207031 107.554688 392.410156 108.472656 392.5625 C 109.339844 392.714844 110.230469 392.84375 111.144531 392.945312 C 112.011719 393.097656 112.902344 393.199219 113.820312 393.25 C 114.734375 393.300781 115.652344 393.300781 116.570312 393.25 C 170.246094 393.300781 223.945312 393.328125 277.671875 393.328125 Z M 274.617188 447.027344 C 304.917969 447.027344 335.246094 447.027344 365.597656 447.027344 C 365.851562 447.027344 366.105469 447.003906 366.359375 446.953125 C 366.617188 446.902344 366.871094 446.847656 367.125 446.796875 C 367.378906 446.796875 367.632812 446.746094 367.890625 446.644531 C 368.144531 446.59375 368.371094 446.542969 368.578125 446.492188 C 368.421875 446.339844 368.269531 446.1875 368.117188 446.035156 C 367.914062 445.882812 367.734375 445.730469 367.582031 445.578125 C 367.378906 445.421875 367.175781 445.269531 366.972656 445.117188 C 366.820312 444.964844 366.640625 444.8125 366.4375 444.660156 C 363.332031 442.570312 360.378906 440.253906 357.578125 437.707031 C 354.777344 435.160156 352.179688 432.410156 349.785156 429.457031 C 347.441406 426.554688 345.304688 423.472656 343.367188 420.214844 C 341.433594 416.957031 339.726562 413.570312 338.25 410.054688 C 337.179688 407.457031 335.882812 406.695312 333.054688 406.695312 C 294.148438 406.796875 255.265625 406.796875 216.410156 406.695312 C 213.582031 406.695312 212.054688 407.382812 210.832031 410.285156 C 209.40625 413.695312 207.753906 417.007812 205.867188 420.214844 C 203.984375 423.421875 201.871094 426.453125 199.527344 429.304688 C 197.183594 432.207031 194.664062 434.90625 191.964844 437.402344 C 189.265625 439.949219 186.390625 442.265625 183.332031 444.355469 C 182.722656 444.8125 182.109375 445.117188 181.578125 445.5 C 181.472656 445.601562 181.398438 445.703125 181.347656 445.804688 C 181.246094 445.90625 181.167969 446.007812 181.117188 446.109375 C 181.015625 446.214844 180.941406 446.316406 180.890625 446.417969 C 180.839844 446.519531 180.761719 446.621094 180.660156 446.722656 C 180.8125 446.773438 180.941406 446.796875 181.042969 446.796875 C 181.195312 446.847656 181.320312 446.875 181.421875 446.875 C 181.578125 446.925781 181.703125 446.953125 181.804688 446.953125 C 181.957031 447.003906 182.085938 447.027344 182.1875 447.027344 C 183.207031 447.027344 184.199219 447.027344 185.167969 447.027344 Z M 274.617188 447.027344 "/>
<path style=" stroke:none;fill-rule:evenodd;fill:rgb(19.607843%,36.862745%,39.215686%);fill-opacity:1;" d="M 301.582031 210.832031 C 301.582031 210.832031 301.582031 210.859375 301.582031 210.910156 C 301.582031 210.960938 301.582031 210.984375 301.582031 210.984375 C 301.582031 211.035156 301.582031 211.089844 301.582031 211.140625 C 301.582031 211.140625 301.582031 211.164062 301.582031 211.214844 C 300.207031 218.625 302.882812 223.4375 309.757812 227.257812 C 319.304688 232.679688 328.167969 239.402344 337.410156 245.4375 C 338.070312 245.792969 338.683594 246.253906 339.242188 246.8125 C 339.753906 247.320312 340.210938 247.90625 340.617188 248.570312 C 341.027344 249.230469 341.355469 249.917969 341.609375 250.632812 C 341.816406 251.34375 341.941406 252.082031 341.992188 252.847656 C 343.519531 267.4375 345.277344 282.027344 346.804688 296.617188 C 346.804688 297.332031 346.90625 298.019531 347.109375 298.679688 C 347.316406 299.34375 347.621094 299.980469 348.027344 300.589844 C 348.433594 301.152344 348.894531 301.683594 349.402344 302.195312 C 349.964844 302.652344 350.546875 303.035156 351.160156 303.339844 C 362.160156 309.375 368.042969 318.847656 368.652344 331.453125 C 368.882812 336.722656 366.359375 339.320312 361.167969 339.320312 C 346.042969 339.320312 330.941406 339.320312 315.867188 339.320312 C 311.132812 339.320312 308.382812 336.796875 308.304688 332.75 C 308.230469 328.546875 311.054688 325.953125 316.019531 325.953125 C 327.328125 325.953125 338.65625 325.953125 350.015625 325.953125 C 350.320312 325.953125 350.597656 325.925781 350.855469 325.875 C 351.160156 325.824219 351.464844 325.773438 351.769531 325.722656 C 352.027344 325.671875 352.304688 325.621094 352.609375 325.570312 C 352.917969 325.519531 353.195312 325.441406 353.453125 325.339844 C 353.347656 325.035156 353.246094 324.753906 353.144531 324.5 C 353.042969 324.195312 352.917969 323.914062 352.765625 323.660156 C 352.660156 323.355469 352.535156 323.074219 352.382812 322.820312 C 352.28125 322.515625 352.152344 322.234375 352 321.980469 C 347.953125 315.714844 342.070312 312.734375 334.734375 312.582031 C 328.625 312.429688 322.4375 312.582031 316.25 312.582031 C 311.207031 312.582031 309.144531 310.980469 308.230469 306.015625 C 306.320312 295.015625 304.410156 284.015625 302.652344 273.015625 C 302.652344 272.554688 302.578125 272.121094 302.421875 271.714844 C 302.269531 271.308594 302.066406 270.925781 301.8125 270.570312 C 301.558594 270.160156 301.253906 269.832031 300.894531 269.578125 C 300.589844 269.320312 300.234375 269.09375 299.828125 268.890625 C 295.472656 266.902344 291.269531 264.765625 287.070312 262.546875 C 284.929688 261.328125 284.089844 261.9375 283.097656 264 C 278.285156 273.777344 273.320312 283.402344 268.582031 293.257812 C 266.75 297 264.304688 299.0625 260.027344 299.445312 C 243.984375 300.894531 228.019531 302.652344 212.054688 304.105469 C 207.777344 304.410156 204.953125 305.480469 202.507812 309.679688 C 196.703125 319.992188 187.304688 325.339844 175.390625 325.953125 C 169.8125 326.179688 167.367188 323.660156 167.367188 318.234375 C 167.367188 303.265625 167.367188 288.316406 167.367188 273.394531 C 167.367188 268.046875 169.660156 265.679688 174.929688 265.605469 C 175.796875 265.605469 176.636719 265.605469 177.453125 265.605469 C 193.796875 266.902344 209.6875 263.695312 225.578125 260.5625 C 229.089844 259.796875 228.9375 257.355469 229.320312 255.0625 C 230.921875 245.742188 232.375 236.347656 233.980469 227.027344 C 235.203125 219.847656 236.804688 218.625 243.984375 218.625 C 257.355469 218.625 270.796875 218.546875 284.242188 218.703125 C 287.222656 218.777344 288.445312 218.167969 288.214844 214.882812 C 287.910156 209 288.519531 203.117188 288.0625 197.3125 C 287.527344 190.820312 293.792969 186.847656 299.75 190.742188 C 306.394531 195.171875 313.269531 199.070312 320.222656 203.042969 C 320.628906 203.296875 321.089844 203.5 321.597656 203.652344 C 322.054688 203.855469 322.539062 204.007812 323.046875 204.109375 C 323.507812 204.265625 323.992188 204.339844 324.5 204.339844 C 325.007812 204.390625 325.519531 204.417969 326.027344 204.417969 C 338.097656 203.117188 350.167969 201.589844 362.234375 200.0625 C 366.285156 199.527344 368.957031 196.472656 368.652344 193.109375 C 368.269531 189.445312 365.214844 186.921875 360.785156 187.535156 C 351.363281 188.65625 341.96875 189.953125 332.597656 191.429688 C 328.625 192.042969 325.339844 191.582031 322.132812 188.910156 C 313.117188 181.347656 303.875 174.089844 294.632812 166.910156 C 294.277344 166.605469 293.867188 166.347656 293.410156 166.144531 C 293.003906 165.890625 292.570312 165.6875 292.109375 165.535156 C 291.703125 165.382812 291.269531 165.253906 290.8125 165.152344 C 290.304688 165.101562 289.820312 165.050781 289.359375 165 C 274.3125 164.921875 259.1875 164.542969 244.0625 165.078125 C 236.042969 165.382812 228.097656 167.367188 220.078125 168.589844 C 218.015625 168.972656 215.953125 169.734375 213.964844 169.734375 C 207.546875 169.660156 204.570312 172.714844 202.734375 178.828125 C 199.527344 189.0625 195.25 198.992188 191.660156 209.078125 C 191.558594 209.535156 191.480469 210.019531 191.429688 210.527344 C 191.429688 210.984375 191.457031 211.46875 191.507812 211.980469 C 191.609375 212.4375 191.734375 212.894531 191.890625 213.355469 C 192.042969 213.8125 192.246094 214.246094 192.5 214.652344 C 193.265625 215.796875 196.015625 216.179688 197.3125 215.796875 C 198.6875 215.417969 199.832031 213.734375 200.671875 212.359375 C 205.257812 205.027344 209.765625 197.617188 214.042969 190.132812 C 216.105469 186.542969 218.777344 184.9375 222.902344 185.167969 C 228.785156 185.394531 234.667969 185.167969 240.546875 185.242188 C 245.285156 185.242188 247.652344 187.6875 247.730469 192.5 C 247.832031 194.589844 247.832031 196.675781 247.730469 198.765625 C 247.730469 200.292969 247.195312 201.742188 246.277344 202.890625 C 245.285156 204.035156 243.984375 204.875 242.457031 205.179688 C 241.007812 205.484375 239.480469 205.257812 238.105469 204.570312 C 236.804688 203.957031 235.660156 202.8125 235.046875 201.4375 C 234.285156 199.757812 233.902344 198.078125 231.457031 198.609375 C 228.707031 199.222656 225.421875 197.160156 223.359375 200.980469 C 219.390625 208.058594 215.1875 214.984375 210.757812 221.757812 C 208.542969 225.042969 205.257812 227.5625 201.515625 228.859375 C 197.695312 230.160156 193.570312 230.160156 189.75 228.859375 C 186.007812 227.5625 182.722656 225.042969 180.507812 221.679688 C 178.292969 218.394531 177.222656 214.421875 177.453125 210.453125 C 177.503906 209.789062 177.578125 209.152344 177.679688 208.542969 C 177.832031 207.929688 177.984375 207.320312 178.140625 206.707031 C 178.292969 206.097656 178.445312 205.511719 178.597656 204.953125 C 178.800781 204.339844 179.03125 203.730469 179.285156 203.117188 C 183.945312 190.4375 188.832031 177.832031 193.417969 165.152344 C 194.945312 160.875 197.390625 158.507812 202.046875 157.894531 C 205.5625 157.386719 209.078125 156.851562 212.589844 156.292969 L 213.277344 156.292969 L 213.734375 156.214844 L 214.347656 156.0625 L 216.410156 155.757812 L 217.859375 155.527344 L 219.007812 155.375 L 230.617188 153.542969 L 233.828125 153.007812 L 236.195312 152.703125 L 238.332031 152.320312 L 239.328125 152.167969 L 239.707031 152.089844 L 240.546875 152.015625 L 242.609375 151.707031 C 243.679688 151.554688 244.140625 151.328125 244.140625 150.792969 C 244.140625 150.691406 244.140625 150.589844 244.140625 150.484375 C 244.089844 150.382812 244.0625 150.308594 244.0625 150.257812 C 244.011719 150.15625 243.960938 150.054688 243.910156 149.953125 C 243.859375 149.902344 243.808594 149.824219 243.757812 149.722656 C 243.347656 148.804688 242.96875 147.890625 242.609375 146.972656 C 242.304688 146.054688 242.027344 145.089844 241.769531 144.070312 C 241.566406 143.101562 241.390625 142.132812 241.234375 141.167969 C 241.132812 140.148438 241.082031 139.15625 241.082031 138.1875 L 254.527344 138.1875 C 254.605469 141.625 256.054688 144.984375 258.578125 147.429688 C 261.019531 149.875 264.382812 151.25 267.894531 151.25 C 271.332031 151.25 274.695312 149.953125 277.214844 147.507812 C 279.734375 145.140625 281.1875 141.777344 281.339844 138.339844 C 281.339844 138.238281 281.339844 138.160156 281.339844 138.109375 L 294.480469 138.109375 C 294.429688 138.722656 294.351562 139.332031 294.25 139.945312 C 294.171875 140.097656 294.25 140.25 294.171875 140.328125 C 294.097656 140.480469 294.097656 140.632812 294.097656 140.785156 C 293.714844 142.847656 293.257812 144.984375 292.796875 147.046875 C 292.722656 147.277344 292.570312 147.507812 292.570312 147.734375 C 292.570312 147.734375 292.570312 147.761719 292.570312 147.8125 C 292.492188 148.117188 292.492188 148.269531 292.417969 148.652344 C 292.339844 148.957031 292.265625 149.109375 292.265625 149.1875 C 291.957031 150.714844 291.195312 151.402344 293.5625 151.785156 C 294.097656 151.859375 294.632812 151.9375 295.242188 152.089844 C 295.320312 152.089844 295.472656 152.167969 295.625 152.167969 C 296.082031 152.269531 296.515625 152.394531 296.921875 152.546875 C 297.332031 152.703125 297.738281 152.855469 298.144531 153.007812 C 298.554688 153.210938 298.933594 153.414062 299.292969 153.617188 C 299.648438 153.820312 300.03125 154.050781 300.4375 154.304688 L 300.667969 154.535156 C 309.679688 161.410156 318.542969 168.515625 327.25 175.695312 C 327.707031 176.101562 328.21875 176.457031 328.777344 176.765625 C 329.285156 177.070312 329.847656 177.296875 330.457031 177.453125 C 331.070312 177.605469 331.679688 177.707031 332.292969 177.757812 C 332.902344 177.757812 333.515625 177.707031 334.125 177.605469 C 342.296875 176.382812 350.394531 175.3125 358.570312 174.089844 C 369.953125 172.410156 380.492188 179.667969 381.945312 190.4375 C 383.546875 202.277344 375.679688 212.285156 363.6875 213.660156 C 351.007812 215.109375 338.25 216.867188 325.492188 218.472656 C 324.679688 218.625 323.863281 218.703125 323.046875 218.703125 C 322.183594 218.703125 321.34375 218.625 320.527344 218.472656 C 319.714844 218.320312 318.921875 218.089844 318.160156 217.785156 C 317.394531 217.429688 316.65625 217.019531 315.945312 216.5625 C 312.125 214.042969 308 211.902344 304.105469 209.382812 C 301.8125 207.929688 301.277344 208.695312 301.582031 210.832031 Z M 193.644531 293.410156 C 193.746094 292.085938 193.824219 290.734375 193.875 289.359375 C 193.976562 287.984375 194.027344 286.609375 194.027344 285.234375 C 194.027344 283.910156 194.027344 282.5625 194.027344 281.1875 C 194.105469 280.5 192.652344 279.277344 191.8125 279.203125 C 188.910156 278.972656 185.929688 279.203125 183.027344 279.125 C 181.195312 279.046875 180.660156 279.734375 180.660156 281.492188 C 180.734375 286 180.660156 290.355469 180.660156 295.015625 C 180.660156 299.597656 180.734375 304.179688 180.660156 308.839844 C 180.582031 311.285156 181.5 311.359375 183.332031 310.292969 C 188.453125 307.390625 192.269531 303.339844 193.1875 297.457031 C 193.339844 296.132812 193.492188 294.785156 193.644531 293.410156 Z M 294.785156 233.671875 C 294.429688 233.417969 294.046875 233.214844 293.640625 233.0625 C 293.230469 232.859375 292.796875 232.707031 292.339844 232.605469 C 291.933594 232.503906 291.5 232.425781 291.042969 232.375 C 290.632812 232.273438 290.203125 232.222656 289.742188 232.222656 C 283.328125 232.070312 277.0625 232.144531 270.492188 232.144531 C 263.921875 232.144531 257.277344 232.375 250.707031 232.070312 C 247.347656 231.917969 246.507812 233.292969 246.046875 236.269531 C 244.597656 246.203125 242.765625 256.054688 241.234375 265.984375 C 240.625 269.804688 238.5625 271.945312 234.820312 272.632812 C 228.632812 273.777344 222.445312 275 216.332031 276.296875 C 207.546875 278.054688 207.546875 278.132812 207.546875 286.992188 C 207.546875 291.269531 207.546875 291.269531 211.980469 290.8125 C 225.652344 289.4375 239.25 288.0625 252.847656 286.765625 C 253.457031 286.765625 254.070312 286.660156 254.679688 286.457031 C 255.292969 286.304688 255.851562 286.050781 256.359375 285.695312 C 256.871094 285.339844 257.304688 284.929688 257.660156 284.472656 C 258.066406 283.964844 258.398438 283.429688 258.652344 282.867188 C 263.921875 271.945312 269.347656 261.097656 274.847656 250.25 C 277.140625 245.742188 280.5 244.445312 284.777344 246.507812 C 293.484375 250.707031 302.042969 255.0625 310.671875 259.417969 C 311.285156 259.671875 311.84375 260.027344 312.355469 260.484375 C 312.863281 260.894531 313.296875 261.378906 313.652344 261.9375 C 314.058594 262.445312 314.367188 263.03125 314.570312 263.695312 C 314.824219 264.304688 314.976562 264.941406 315.027344 265.605469 C 316.25 273.546875 317.855469 281.492188 319.078125 289.515625 C 320.605469 299.980469 320.527344 299.902344 330.917969 299.367188 C 332.980469 299.292969 333.515625 298.757812 333.285156 296.695312 C 331.832031 284.242188 330.609375 271.714844 329.007812 259.265625 C 328.957031 258.804688 328.828125 258.347656 328.625 257.890625 C 328.472656 257.480469 328.269531 257.074219 328.015625 256.667969 C 327.757812 256.257812 327.480469 255.902344 327.171875 255.597656 C 326.867188 255.242188 326.511719 254.933594 326.105469 254.679688 C 315.792969 247.578125 305.328125 240.546875 294.785156 233.671875 Z M 242.917969 107.171875 C 243.222656 106.105469 243.605469 105.058594 244.0625 104.042969 C 244.519531 102.972656 245.03125 101.953125 245.589844 100.984375 C 246.152344 100.019531 246.761719 99.078125 247.421875 98.160156 C 246.8125 99.078125 246.226562 100.042969 245.667969 101.0625 C 245.105469 102.03125 244.621094 103.023438 244.214844 104.042969 C 243.757812 105.058594 243.347656 106.105469 242.992188 107.171875 C 242.636719 108.242188 242.355469 109.339844 242.152344 110.457031 C 242.355469 109.339844 242.609375 108.242188 242.917969 107.171875 Z M 286.535156 84.484375 L 273.929688 84.484375 C 278.207031 84.484375 282.410156 84.484375 286.535156 84.484375 Z M 286.535156 84.484375 "/>
<path style=" stroke:none;fill-rule:evenodd;fill:rgb(19.607843%,36.862745%,39.215686%);fill-opacity:1;" d="M 322.054688 366.4375 C 291.703125 366.4375 261.351562 366.4375 231 366.4375 C 228.097656 366.4375 226.417969 366.972656 224.8125 369.796875 C 223.132812 372.855469 220.609375 375.375 217.632812 377.207031 C 214.578125 378.964844 211.140625 379.957031 207.625 379.957031 C 204.109375 379.957031 200.671875 379.042969 197.617188 377.285156 C 194.640625 375.527344 192.117188 373.007812 190.359375 369.953125 C 188.679688 367.046875 186.847656 366.359375 183.792969 366.4375 C 171.796875 366.515625 159.730469 366.4375 147.734375 366.515625 C 144.375 366.515625 142.007812 365.214844 140.785156 362.082031 C 139.714844 359.257812 140.328125 356.355469 142.921875 354.597656 C 143.332031 354.394531 143.738281 354.191406 144.144531 353.984375 C 144.605469 353.78125 145.0625 353.628906 145.519531 353.527344 C 145.980469 353.375 146.4375 353.273438 146.894531 353.222656 C 147.40625 353.171875 147.890625 353.144531 148.347656 353.144531 C 160.519531 352.992188 172.691406 352.992188 184.859375 353.144531 C 187.382812 353.144531 188.757812 352.535156 190.054688 350.167969 C 190.820312 348.5625 191.8125 347.035156 193.035156 345.734375 C 194.257812 344.4375 195.632812 343.292969 197.160156 342.375 C 198.6875 341.457031 200.367188 340.769531 202.125 340.3125 C 203.804688 339.855469 205.640625 339.625 207.394531 339.703125 C 215.265625 339.703125 221.296875 343.140625 224.890625 349.9375 C 226.417969 352.839844 228.171875 353.144531 230.769531 353.144531 C 291.320312 353.09375 351.898438 353.09375 412.5 353.144531 C 413.722656 353.144531 415.019531 353.070312 416.242188 353.144531 C 417.847656 353.296875 419.296875 354.140625 420.367188 355.285156 C 421.4375 356.507812 421.972656 358.035156 422.046875 359.640625 C 422.046875 361.242188 421.515625 362.847656 420.519531 364.070312 C 419.453125 365.292969 418.078125 366.132812 416.472656 366.4375 C 416.167969 366.4375 415.859375 366.4375 415.554688 366.4375 C 415.199219 366.4375 414.867188 366.4375 414.5625 366.4375 C 414.257812 366.4375 413.953125 366.4375 413.644531 366.4375 C 413.339844 366.4375 413.035156 366.4375 412.730469 366.4375 Z M 214.117188 359.640625 C 214.117188 356.964844 212.515625 354.519531 209.992188 353.453125 C 207.472656 352.382812 204.570312 352.992188 202.660156 354.980469 C 200.75 356.890625 200.140625 359.792969 201.207031 362.3125 C 202.277344 364.832031 204.796875 366.4375 207.472656 366.4375 C 208.390625 366.386719 209.230469 366.183594 209.992188 365.828125 C 210.808594 365.46875 211.519531 364.960938 212.132812 364.296875 C 212.742188 363.6875 213.226562 362.972656 213.582031 362.160156 C 213.941406 361.394531 214.117188 360.554688 214.117188 359.640625 Z M 214.117188 359.640625 "/>
<path style=" stroke:none;fill-rule:evenodd;fill:rgb(19.607843%,36.862745%,39.215686%);fill-opacity:1;" d="M 408.910156 272.25 C 408.910156 255.035156 408.910156 237.824219 408.910156 220.609375 C 408.910156 214.195312 411.046875 212.054688 417.390625 212.054688 C 425.382812 212.054688 433.355469 212.054688 441.296875 212.054688 C 446.875 212.054688 449.167969 214.421875 449.167969 220 C 449.167969 254.933594 449.167969 289.894531 449.167969 324.882812 C 449.167969 330.457031 446.875 332.828125 441.296875 332.828125 C 433.046875 332.828125 424.796875 332.828125 416.546875 332.828125 C 411.355469 332.828125 408.984375 330.382812 408.984375 325.109375 C 408.933594 307.492188 408.910156 289.871094 408.910156 272.25 Z M 435.796875 232.296875 C 435.796875 225.421875 435.796875 225.421875 429.152344 225.421875 C 422.429688 225.421875 422.355469 225.421875 422.355469 232.144531 C 422.355469 238.867188 422.355469 238.867188 429.230469 238.867188 C 435.796875 238.945312 435.796875 238.945312 435.796875 232.375 Z M 429.078125 252.234375 C 422.355469 252.234375 422.355469 252.234375 422.355469 258.730469 C 422.355469 265.679688 422.355469 265.679688 429.304688 265.679688 C 435.796875 265.679688 435.796875 265.679688 435.796875 259.035156 C 435.796875 252.390625 435.796875 252.234375 429 252.234375 Z M 435.796875 285.769531 C 435.796875 279.125 435.796875 279.125 429.304688 279.125 L 428.921875 279.125 C 422.355469 279.125 422.355469 279.125 422.355469 285.695312 C 422.355469 292.570312 422.355469 292.570312 429.078125 292.570312 C 435.796875 292.570312 435.796875 292.644531 435.796875 285.847656 Z M 428.921875 319.382812 C 435.796875 319.382812 435.796875 319.382812 435.796875 312.660156 L 435.796875 312.277344 C 435.796875 305.859375 435.796875 305.859375 429.457031 305.859375 C 422.355469 305.859375 422.355469 305.859375 422.355469 312.8125 C 422.355469 319.457031 422.355469 319.457031 428.921875 319.457031 Z M 428.921875 319.382812 "/>
<path style=" stroke:none;fill-rule:nonzero;fill:rgb(19.607843%,36.862745%,39.215686%);fill-opacity:1;" d="M 380.265625 124.820312 C 400.683594 124.820312 421.105469 124.820312 441.527344 124.820312 C 461.695312 124.820312 476.054688 139.257812 476.054688 159.421875 C 476.054688 198.585938 476.054688 237.722656 476.054688 276.832031 C 476.054688 277.140625 476.054688 277.417969 476.054688 277.671875 C 476.054688 277.980469 476.054688 278.257812 476.054688 278.515625 C 476.054688 278.820312 476.03125 279.097656 475.980469 279.355469 C 475.980469 279.660156 475.980469 279.941406 475.980469 280.195312 C 475.671875 281.796875 474.832031 283.171875 473.609375 284.167969 C 472.390625 285.160156 470.859375 285.695312 469.257812 285.695312 C 467.652344 285.695312 466.125 285.082031 464.902344 284.089844 C 463.757812 283.019531 462.917969 281.644531 462.6875 280.042969 C 462.6875 279.734375 462.6875 279.429688 462.6875 279.125 C 462.636719 278.820312 462.609375 278.488281 462.609375 278.132812 C 462.609375 277.828125 462.636719 277.519531 462.6875 277.214844 C 462.6875 276.910156 462.6875 276.605469 462.6875 276.296875 L 462.6875 161.332031 C 462.6875 146.132812 454.742188 138.1875 439.390625 138.1875 L 317.703125 138.1875 C 317.394531 138.1875 317.089844 138.1875 316.785156 138.1875 C 316.429688 138.1875 316.097656 138.1875 315.792969 138.1875 C 315.484375 138.1875 315.179688 138.1875 314.875 138.1875 C 314.570312 138.1875 314.265625 138.160156 313.957031 138.109375 C 312.355469 137.882812 310.980469 137.042969 309.910156 135.820312 C 308.917969 134.597656 308.382812 133.070312 308.382812 131.464844 C 308.382812 129.859375 308.917969 128.332031 309.984375 127.109375 C 310.980469 125.890625 312.429688 125.125 313.957031 124.820312 C 314.265625 124.820312 314.542969 124.820312 314.796875 124.820312 C 315.105469 124.769531 315.410156 124.742188 315.714844 124.742188 C 315.96875 124.742188 316.25 124.742188 316.554688 124.742188 C 316.808594 124.742188 317.089844 124.769531 317.394531 124.820312 Z M 380.265625 124.820312 "/>
<path style=" stroke:none;fill-rule:nonzero;fill:rgb(19.607843%,36.862745%,39.215686%);fill-opacity:1;" d="M 120.234375 212.054688 C 115.90625 212.054688 111.578125 212.054688 107.25 212.054688 C 102.894531 212.054688 100.144531 209.382812 100.144531 205.410156 C 100.070312 201.515625 102.820312 198.6875 107.019531 198.6875 C 115.832031 198.636719 124.640625 198.636719 133.453125 198.6875 C 137.730469 198.6875 140.402344 201.589844 140.328125 205.484375 C 140.25 209.457031 137.578125 211.980469 133.222656 212.054688 C 128.867188 212.132812 124.589844 212.054688 120.234375 212.054688 Z M 120.234375 212.054688 "/>
<path style=" stroke:none;fill-rule:nonzero;fill:rgb(19.607843%,36.862745%,39.215686%);fill-opacity:1;" d="M 120.542969 225.5 C 124.667969 225.5 128.867188 225.421875 133.070312 225.5 C 137.652344 225.578125 140.480469 228.25 140.328125 232.296875 C 140.25 236.195312 137.578125 238.792969 133.222656 238.867188 C 124.515625 238.917969 115.832031 238.917969 107.171875 238.867188 C 102.894531 238.867188 100.144531 236.117188 100.144531 232.222656 C 100.144531 228.328125 102.820312 225.578125 107.097656 225.5 C 111.527344 225.421875 116.035156 225.5 120.542969 225.5 Z M 120.542969 225.5 "/>
<path style=" stroke:none;fill-rule:nonzero;fill:rgb(19.607843%,36.862745%,39.215686%);fill-opacity:1;" d="M 120.007812 265.757812 C 115.832031 265.757812 111.628906 265.757812 107.402344 265.757812 C 102.820312 265.679688 100.070312 263.007812 100.144531 258.957031 C 100.144531 255.0625 102.894531 252.390625 107.25 252.390625 C 115.90625 252.339844 124.589844 252.339844 133.296875 252.390625 C 137.578125 252.390625 140.328125 255.0625 140.328125 258.957031 C 140.328125 263.007812 137.652344 265.679688 132.992188 265.679688 C 128.714844 265.757812 124.359375 265.757812 120.007812 265.757812 Z M 120.007812 265.757812 "/>
<path style=" stroke:none;fill-rule:nonzero;fill:rgb(19.607843%,36.862745%,39.215686%);fill-opacity:1;" d="M 116.722656 292.570312 C 113.515625 292.570312 110.304688 292.644531 107.097656 292.570312 C 102.820312 292.492188 100.144531 289.820312 100.144531 285.847656 C 100.144531 281.953125 102.894531 279.277344 107.171875 279.277344 C 113.640625 279.175781 120.082031 279.175781 126.5 279.277344 C 130.855469 279.277344 133.605469 281.875 133.679688 285.769531 C 133.757812 289.894531 130.929688 292.492188 126.347656 292.644531 C 123.140625 292.644531 119.929688 292.570312 116.722656 292.570312 Z M 116.722656 292.570312 "/>
<path style=" stroke:none;fill-rule:nonzero;fill:rgb(19.607843%,36.862745%,39.215686%);fill-opacity:1;" d="M 113.285156 319.457031 C 111.070312 319.457031 108.855469 319.535156 106.5625 319.457031 C 105.722656 319.457031 104.804688 319.230469 104.042969 318.921875 C 103.203125 318.542969 102.515625 318.007812 101.902344 317.394531 C 101.292969 316.785156 100.832031 316.019531 100.527344 315.179688 C 100.222656 314.339844 100.070312 313.5 100.144531 312.582031 C 100.070312 311.742188 100.222656 310.902344 100.527344 310.140625 C 100.832031 309.375 101.292969 308.609375 101.902344 308 C 102.515625 307.390625 103.203125 306.929688 103.964844 306.625 C 104.730469 306.242188 105.570312 306.089844 106.410156 306.089844 C 111.144531 305.886719 115.90625 305.886719 120.695312 306.089844 C 121.535156 306.089844 122.296875 306.242188 123.140625 306.625 C 123.902344 306.929688 124.589844 307.464844 125.125 308.078125 C 125.734375 308.609375 126.195312 309.375 126.5 310.140625 C 126.804688 310.902344 126.957031 311.742188 126.882812 312.582031 C 126.957031 313.5 126.804688 314.339844 126.5 315.179688 C 126.195312 316.019531 125.734375 316.707031 125.125 317.394531 C 124.515625 318.007812 123.75 318.464844 122.984375 318.847656 C 122.144531 319.152344 121.304688 319.382812 120.390625 319.304688 C 118.097656 319.535156 115.730469 319.457031 113.285156 319.457031 Z M 113.285156 319.457031 "/>
<path style=" stroke:none;fill-rule:nonzero;fill:rgb(19.607843%,36.862745%,39.215686%);fill-opacity:1;" d="M 254.453125 127.339844 C 254.605469 130.929688 254.375 134.519531 254.527344 138.1875 L 241.082031 138.1875 C 241.082031 136.609375 241.082031 135.003906 241.082031 133.375 C 241.160156 130.546875 241.160156 127.644531 241.160156 124.820312 L 255.828125 124.820312 C 254.910156 125.046875 254.375 125.734375 254.453125 127.339844 Z M 254.453125 127.339844 "/>
<path style=" stroke:none;fill-rule:nonzero;fill:rgb(19.607843%,36.862745%,39.215686%);fill-opacity:1;" d="M 219.007812 124.820312 L 241.234375 124.820312 C 241.234375 127.644531 241.234375 130.546875 241.082031 133.375 C 241.082031 134.980469 241.007812 136.582031 241.082031 138.1875 L 218.167969 138.1875 Z M 219.007812 124.820312 "/>
<path style=" stroke:none;fill-rule:nonzero;fill:rgb(19.607843%,36.862745%,39.215686%);fill-opacity:1;" d="M 294.707031 136.203125 C 294.707031 136.8125 294.554688 137.5 294.480469 138.109375 L 281.339844 138.109375 C 281.492188 134.597656 281.265625 131.007812 281.417969 127.417969 C 281.492188 125.8125 281.035156 125.125 280.042969 124.820312 L 294.859375 124.820312 C 294.859375 128.640625 294.859375 132.457031 294.707031 136.203125 Z M 294.707031 136.203125 "/>
<path style=" stroke:none;fill-rule:nonzero;fill:rgb(19.607843%,36.862745%,39.215686%);fill-opacity:1;" d="M 314.035156 124.894531 L 313.957031 138.109375 L 294.480469 138.109375 C 294.582031 137.449219 294.65625 136.8125 294.707031 136.203125 C 294.859375 132.382812 294.859375 128.640625 294.859375 124.820312 Z M 314.035156 124.894531 "/>
<path style=" stroke:none;fill-rule:nonzero;fill:rgb(19.607843%,36.862745%,39.215686%);fill-opacity:1;" d="M 462.609375 276.296875 L 476.054688 276.832031 L 476.054688 306.625 L 462.765625 307.769531 Z M 462.609375 276.296875 "/>
<path style=" stroke:none;fill-rule:nonzero;fill:rgb(19.607843%,36.862745%,39.215686%);fill-opacity:1;" d="M 225.347656 487.285156 L 224.734375 473.917969 L 257.890625 473.917969 L 254.679688 487.207031 Z M 225.347656 487.285156 "/>
<path style=" stroke:none;fill-rule:nonzero;fill:rgb(19.607843%,36.862745%,39.215686%);fill-opacity:1;" d="M 235.046875 201.4375 L 247.730469 198.765625 L 248.492188 225.5 L 233.902344 227.105469 Z M 235.046875 201.4375 "/>
<path style=" stroke:none;fill-rule:nonzero;fill:rgb(19.607843%,36.862745%,39.215686%);fill-opacity:1;" d="M 319.992188 295.015625 L 323.507812 332.980469 L 308.230469 332.980469 L 308.152344 306.167969 "/>
<path style=" stroke:none;fill-rule:evenodd;fill:rgb(19.607843%,36.862745%,39.215686%);fill-opacity:1;" d="M 294.859375 124.742188 L 280.117188 124.742188 C 279.964844 124.691406 279.8125 124.667969 279.660156 124.667969 C 279.558594 124.617188 279.429688 124.589844 279.277344 124.589844 C 279.175781 124.589844 279.046875 124.589844 278.894531 124.589844 C 278.742188 124.589844 278.617188 124.589844 278.515625 124.589844 C 275 124.667969 271.640625 124.589844 268.046875 124.589844 C 264.382812 124.589844 260.792969 124.667969 257.125 124.589844 C 257.023438 124.589844 256.921875 124.589844 256.820312 124.589844 C 256.71875 124.589844 256.617188 124.589844 256.515625 124.589844 C 256.410156 124.589844 256.308594 124.589844 256.207031 124.589844 C 256.105469 124.640625 256.003906 124.667969 255.902344 124.667969 L 241.234375 124.667969 C 241.183594 123.496094 241.183594 122.296875 241.234375 121.078125 C 241.234375 119.855469 241.285156 118.65625 241.390625 117.484375 C 241.441406 116.265625 241.542969 115.066406 241.695312 113.894531 C 241.796875 112.671875 241.949219 111.476562 242.152344 110.304688 C 242.40625 109.183594 242.6875 108.089844 242.992188 107.019531 C 243.347656 105.953125 243.757812 104.90625 244.214844 103.890625 C 244.671875 102.871094 245.15625 101.878906 245.667969 100.910156 C 246.226562 99.890625 246.8125 98.921875 247.421875 98.007812 L 247.730469 97.625 C 248.59375 96.453125 249.535156 95.359375 250.554688 94.339844 C 251.574219 93.320312 252.644531 92.378906 253.765625 91.515625 C 254.882812 90.648438 256.054688 89.832031 257.277344 89.070312 C 258.5 88.355469 259.773438 87.71875 261.097656 87.160156 L 261.171875 87.160156 C 262.039062 86.804688 262.90625 86.472656 263.769531 86.167969 C 264.6875 85.859375 265.578125 85.605469 266.445312 85.402344 C 267.359375 85.199219 268.277344 85.019531 269.195312 84.867188 C 270.109375 84.714844 271.054688 84.589844 272.019531 84.484375 L 286.609375 84.484375 C 292.492188 84.5625 294.785156 86.777344 294.785156 92.582031 C 294.785156 100.375 294.785156 108.167969 294.785156 116.035156 C 294.785156 119.015625 294.859375 121.917969 294.859375 124.742188 Z M 281.339844 109.160156 C 281.265625 106.105469 281.417969 103.046875 281.265625 99.917969 C 281.214844 99.714844 281.160156 99.507812 281.109375 99.304688 C 281.007812 99.152344 280.90625 98.972656 280.804688 98.769531 C 280.652344 98.617188 280.5 98.464844 280.347656 98.3125 C 280.195312 98.210938 280.015625 98.109375 279.8125 98.007812 C 271.640625 95.867188 260.257812 101.367188 256.742188 108.929688 C 255.902344 110.765625 256.132812 111.375 258.269531 111.375 C 261.707031 111.296875 265.375 111.375 268.734375 111.375 C 272.097656 111.375 275.457031 111.375 278.820312 111.375 C 280.421875 111.453125 281.492188 111.144531 281.339844 109.160156 Z M 281.339844 109.160156 "/>
<path style=" stroke:none;fill-rule:nonzero;fill:rgb(19.607843%,36.862745%,39.215686%);fill-opacity:1;" d="M 242.152344 110.457031 C 241.949219 111.628906 241.796875 112.828125 241.695312 114.046875 C 241.542969 115.21875 241.414062 116.417969 241.3125 117.640625 C 241.261719 118.808594 241.210938 120.007812 241.160156 121.230469 C 241.160156 122.402344 241.160156 123.597656 241.160156 124.820312 C 241.058594 123.648438 241.007812 122.453125 241.007812 121.230469 C 241.007812 120.007812 241.058594 118.785156 241.160156 117.5625 C 241.210938 116.390625 241.3125 115.195312 241.464844 113.972656 C 241.667969 112.800781 241.898438 111.628906 242.152344 110.457031 Z M 242.152344 110.457031 "/>
<path style=" stroke:none;fill-rule:nonzero;fill:rgb(19.607843%,36.862745%,39.215686%);fill-opacity:1;" d="M 261.097656 87.3125 C 259.773438 87.871094 258.5 88.507812 257.277344 89.222656 C 256.054688 89.984375 254.859375 90.800781 253.6875 91.667969 C 252.566406 92.53125 251.523438 93.472656 250.554688 94.492188 C 249.535156 95.511719 248.59375 96.582031 247.730469 97.703125 C 248.542969 96.53125 249.460938 95.433594 250.480469 94.417969 C 251.445312 93.398438 252.492188 92.429688 253.609375 91.515625 C 254.730469 90.648438 255.929688 89.859375 257.203125 89.144531 C 258.421875 88.433594 259.722656 87.820312 261.097656 87.3125 Z M 261.097656 87.3125 "/>
<path style=" stroke:none;fill-rule:nonzero;fill:rgb(19.607843%,36.862745%,39.215686%);fill-opacity:1;" d="M 261.25 87.234375 C 262.066406 86.878906 262.929688 86.546875 263.847656 86.242188 C 264.714844 85.9375 265.605469 85.683594 266.519531 85.480469 C 267.4375 85.277344 268.355469 85.097656 269.269531 84.945312 C 270.1875 84.792969 271.105469 84.664062 272.019531 84.5625 C 269.269531 84.792969 264.304688 85.328125 261.25 87.234375 Z M 261.25 87.234375 "/>
<path style=" stroke:none;fill-rule:nonzero;fill:rgb(19.607843%,36.862745%,39.215686%);fill-opacity:1;" d="M 294.785156 92.582031 C 294.785156 86.777344 292.492188 84.5625 286.609375 84.484375 C 295.777344 83.644531 294.785156 92.582031 294.785156 92.582031 Z M 294.785156 92.582031 "/>
<path style=" stroke:none;fill-rule:nonzero;fill:rgb(19.607843%,36.862745%,39.215686%);fill-opacity:1;" d="M 294.785156 116.035156 C 294.785156 108.167969 294.785156 100.375 294.785156 92.582031 L 294.859375 124.820312 C 294.859375 121.917969 294.785156 119.015625 294.785156 116.035156 Z M 294.785156 116.035156 "/>
<path style=" stroke:none;fill-rule:nonzero;fill:rgb(19.607843%,36.862745%,39.215686%);fill-opacity:1;" d="M 300.667969 154.457031 L 297.6875 164.160156 C 297.6875 164.160156 267.359375 161.792969 265.527344 160.953125 C 263.695312 160.1875 213.890625 167.671875 213.890625 167.671875 L 212.589844 156.292969 L 213.277344 156.292969 L 213.734375 156.214844 L 214.347656 156.0625 L 216.410156 155.757812 L 217.859375 155.605469 L 219.007812 155.375 L 230.617188 153.617188 L 233.828125 153.082031 L 236.195312 152.703125 L 238.332031 152.394531 L 239.25 152.242188 L 239.707031 152.167969 L 240.472656 152.015625 L 242.535156 151.707031 C 243.679688 151.554688 244.0625 151.171875 244.140625 150.792969 C 244.140625 150.742188 244.140625 150.664062 244.140625 150.5625 C 244.089844 150.460938 244.0625 150.359375 244.0625 150.257812 C 244.011719 150.15625 243.960938 150.078125 243.910156 150.027344 C 243.859375 149.925781 243.808594 149.847656 243.757812 149.796875 C 240.929688 146.132812 241.082031 138.265625 241.082031 138.265625 L 254.527344 138.265625 C 254.605469 141.703125 256.054688 145.0625 258.5 147.507812 C 261.019531 149.953125 264.382812 151.328125 267.820312 151.328125 C 271.332031 151.328125 274.695312 150.027344 277.214844 147.582031 C 279.734375 145.140625 281.1875 141.855469 281.339844 138.339844 C 281.339844 138.289062 281.339844 138.238281 281.339844 138.1875 L 294.480469 138.1875 C 294.480469 138.339844 294.480469 138.492188 294.480469 138.644531 C 294.429688 138.796875 294.402344 138.953125 294.402344 139.105469 C 294.351562 139.257812 294.328125 139.410156 294.328125 139.5625 C 294.277344 139.714844 294.25 139.867188 294.25 140.019531 C 294.25 140.171875 294.171875 140.25 294.171875 140.402344 C 294.171875 140.554688 294.171875 140.707031 294.097656 140.859375 C 293.714844 142.769531 293.105469 145.292969 292.722656 147.125 C 292.671875 147.378906 292.621094 147.609375 292.570312 147.8125 C 292.570312 147.8125 292.570312 147.839844 292.570312 147.890625 C 292.519531 148.195312 292.46875 148.449219 292.417969 148.652344 C 292.339844 148.882812 292.265625 149.1875 292.265625 149.265625 C 292.109375 149.875 289.742188 151.402344 293.5625 151.859375 C 293.714844 151.859375 293.84375 151.859375 293.945312 151.859375 C 294.097656 151.910156 294.25 151.9375 294.402344 151.9375 C 294.503906 151.988281 294.632812 152.015625 294.785156 152.015625 C 294.9375 152.066406 295.066406 152.117188 295.167969 152.167969 C 295.320312 152.167969 295.472656 152.242188 295.625 152.242188 C 296.03125 152.34375 296.441406 152.472656 296.847656 152.625 C 297.253906 152.777344 297.660156 152.957031 298.070312 153.160156 C 298.476562 153.3125 298.859375 153.492188 299.214844 153.695312 C 299.621094 153.898438 300.003906 154.128906 300.359375 154.382812 L 300.515625 154.457031 Z M 300.667969 154.457031 "/>
<path style=" stroke:none;fill-rule:nonzero;fill:rgb(19.607843%,36.862745%,39.215686%);fill-opacity:1;" d="M 243.453125 136.660156 C 243.402344 136.8125 243.324219 136.964844 243.222656 137.117188 C 243.121094 137.269531 242.992188 137.398438 242.839844 137.5 C 242.6875 137.601562 242.535156 137.703125 242.382812 137.804688 C 242.230469 137.90625 242.050781 137.984375 241.847656 138.035156 C 241.695312 138.085938 241.515625 138.136719 241.3125 138.1875 C 241.160156 138.1875 240.980469 138.1875 240.777344 138.1875 C 240.574219 138.1875 240.394531 138.160156 240.242188 138.109375 C 240.039062 138.058594 239.859375 137.984375 239.707031 137.882812 C 239.554688 137.832031 239.402344 137.730469 239.25 137.578125 C 239.097656 137.472656 238.96875 137.371094 238.867188 137.269531 C 238.765625 137.117188 238.664062 136.964844 238.5625 136.8125 C 238.460938 136.660156 238.382812 136.480469 238.332031 136.277344 C 238.28125 136.125 238.230469 135.945312 238.179688 135.742188 C 238.179688 135.539062 238.179688 135.359375 238.179688 135.207031 C 238.179688 135.003906 238.207031 134.828125 238.257812 134.671875 C 238.308594 134.316406 238.382812 133.960938 238.484375 133.605469 L 238.332031 134.367188 C 238.382812 133.808594 238.433594 133.246094 238.484375 132.6875 C 238.535156 132.128906 238.5625 131.566406 238.5625 131.007812 C 238.5625 130.445312 238.5625 129.886719 238.5625 129.328125 C 238.511719 128.765625 238.460938 128.207031 238.410156 127.644531 C 238.410156 127.109375 238.640625 126.578125 238.945312 126.042969 C 239.25 125.582031 239.632812 125.277344 240.167969 125.046875 C 240.703125 124.820312 241.234375 124.742188 241.769531 124.894531 C 242.304688 124.972656 242.839844 125.277344 243.222656 125.660156 C 243.324219 125.761719 243.425781 125.890625 243.527344 126.042969 C 243.628906 126.195312 243.730469 126.371094 243.832031 126.578125 C 243.882812 126.730469 243.933594 126.90625 243.984375 127.109375 C 244.035156 127.265625 244.0625 127.441406 244.0625 127.644531 C 244.113281 128.359375 244.140625 129.070312 244.140625 129.785156 C 244.140625 130.496094 244.140625 131.210938 244.140625 131.921875 C 244.089844 132.636719 244.035156 133.324219 243.984375 133.984375 C 243.882812 134.699219 243.78125 135.410156 243.679688 136.125 C 243.628906 136.328125 243.554688 136.507812 243.453125 136.660156 Z M 243.453125 136.660156 "/>
<path style=" stroke:none;fill-rule:nonzero;fill:rgb(19.607843%,36.862745%,39.215686%);fill-opacity:1;" d="M 292.109375 128.484375 C 292.109375 128.28125 292.085938 128.078125 292.035156 127.875 C 292.035156 127.722656 292.058594 127.542969 292.109375 127.339844 C 292.109375 127.1875 292.136719 127.007812 292.1875 126.804688 C 292.238281 126.652344 292.316406 126.472656 292.417969 126.269531 C 292.722656 125.8125 293.105469 125.429688 293.640625 125.203125 C 294.097656 124.972656 294.632812 124.820312 295.167969 124.894531 C 295.777344 124.972656 296.234375 125.203125 296.695312 125.582031 C 297.078125 125.964844 297.382812 126.421875 297.535156 126.957031 C 297.636719 127.316406 297.714844 127.671875 297.765625 128.027344 C 297.816406 128.382812 297.867188 128.742188 297.917969 129.097656 C 297.96875 129.453125 298.019531 129.808594 298.070312 130.167969 C 298.070312 130.523438 298.070312 130.878906 298.070312 131.234375 C 298.070312 132.457031 297.992188 133.679688 297.992188 134.902344 C 297.992188 135.308594 297.917969 135.667969 297.765625 135.972656 C 297.609375 136.328125 297.40625 136.632812 297.152344 136.890625 C 296.898438 137.144531 296.59375 137.347656 296.234375 137.5 C 295.878906 137.652344 295.523438 137.730469 295.167969 137.730469 C 294.808594 137.730469 294.453125 137.652344 294.097656 137.5 C 293.742188 137.347656 293.433594 137.144531 293.179688 136.890625 C 292.925781 136.632812 292.722656 136.328125 292.570312 135.972656 C 292.417969 135.667969 292.339844 135.308594 292.339844 134.902344 L 292.417969 132.457031 C 292.46875 132.203125 292.492188 131.972656 292.492188 131.769531 C 292.492188 131.566406 292.492188 131.363281 292.492188 131.160156 C 292.492188 130.957031 292.492188 130.753906 292.492188 130.546875 C 292.492188 130.34375 292.46875 130.140625 292.417969 129.9375 L 292.570312 130.625 C 292.417969 129.859375 292.265625 129.171875 292.1875 128.410156 Z M 292.109375 128.484375 "/>
<path style=" stroke:none;fill-rule:nonzero;fill:rgb(19.607843%,36.862745%,39.215686%);fill-opacity:1;" d="M 292.492188 132.609375 C 292.492188 132.457031 292.492188 132.332031 292.492188 132.230469 C 292.492188 132.078125 292.519531 131.949219 292.570312 131.847656 C 292.621094 131.746094 292.644531 131.644531 292.644531 131.542969 C 292.695312 131.390625 292.773438 131.261719 292.875 131.160156 L 293.257812 130.625 C 293.359375 130.523438 293.460938 130.445312 293.5625 130.394531 C 293.664062 130.292969 293.765625 130.21875 293.867188 130.167969 C 293.96875 130.117188 294.070312 130.066406 294.171875 130.015625 C 294.277344 129.964844 294.402344 129.910156 294.554688 129.859375 L 295.242188 129.785156 C 295.445312 129.785156 295.652344 129.808594 295.855469 129.859375 C 296.007812 129.910156 296.183594 129.964844 296.390625 130.015625 C 296.542969 130.117188 296.695312 130.21875 296.847656 130.320312 C 297 130.421875 297.152344 130.523438 297.304688 130.625 C 297.355469 130.675781 297.433594 130.753906 297.535156 130.855469 C 297.585938 130.90625 297.636719 130.980469 297.6875 131.082031 C 297.738281 131.132812 297.765625 131.210938 297.765625 131.3125 C 297.816406 131.363281 297.867188 131.441406 297.917969 131.542969 C 297.96875 131.644531 297.992188 131.71875 297.992188 131.769531 C 298.042969 131.871094 298.070312 131.972656 298.070312 132.078125 C 298.121094 132.179688 298.144531 132.28125 298.144531 132.382812 C 298.144531 132.484375 298.144531 132.585938 298.144531 132.6875 C 298.144531 132.738281 298.144531 132.816406 298.144531 132.917969 C 298.144531 133.019531 298.144531 133.121094 298.144531 133.222656 C 298.144531 133.324219 298.144531 133.425781 298.144531 133.527344 C 298.144531 133.578125 298.144531 133.65625 298.144531 133.757812 C 298.144531 133.910156 298.144531 134.035156 298.144531 134.140625 C 298.09375 134.292969 298.070312 134.417969 298.070312 134.519531 C 298.019531 134.621094 297.96875 134.722656 297.917969 134.828125 C 297.867188 134.980469 297.816406 135.105469 297.765625 135.207031 L 297.304688 135.742188 C 297.253906 135.84375 297.179688 135.921875 297.078125 135.972656 C 296.972656 136.074219 296.871094 136.152344 296.769531 136.203125 C 296.667969 136.253906 296.542969 136.304688 296.390625 136.355469 C 296.285156 136.40625 296.183594 136.457031 296.082031 136.507812 L 295.320312 136.582031 C 295.21875 136.582031 295.117188 136.582031 295.015625 136.582031 C 294.964844 136.582031 294.886719 136.558594 294.785156 136.507812 C 294.683594 136.507812 294.582031 136.480469 294.480469 136.429688 C 294.378906 136.429688 294.300781 136.40625 294.25 136.355469 C 294.148438 136.304688 294.046875 136.277344 293.945312 136.277344 C 293.894531 136.226562 293.816406 136.175781 293.714844 136.125 C 293.664062 136.074219 293.589844 136.023438 293.484375 135.972656 C 293.433594 135.921875 293.382812 135.84375 293.332031 135.742188 C 293.230469 135.691406 293.15625 135.640625 293.105469 135.589844 C 293.054688 135.488281 293.003906 135.410156 292.953125 135.359375 C 292.902344 135.257812 292.847656 135.183594 292.796875 135.132812 C 292.796875 135.03125 292.773438 134.929688 292.722656 134.828125 C 292.671875 134.777344 292.644531 134.699219 292.644531 134.597656 C 292.59375 134.496094 292.542969 134.394531 292.492188 134.292969 C 292.492188 134.191406 292.492188 134.089844 292.492188 133.984375 C 292.492188 133.933594 292.492188 133.859375 292.492188 133.757812 C 292.492188 133.65625 292.492188 133.554688 292.492188 133.453125 C 292.492188 133.347656 292.492188 133.246094 292.492188 133.144531 C 292.492188 133.09375 292.492188 133.019531 292.492188 132.917969 C 292.492188 132.816406 292.492188 132.714844 292.492188 132.609375 Z M 292.492188 132.609375 "/>
<path style=" stroke:none;fill-rule:nonzero;fill:rgb(19.607843%,36.862745%,39.215686%);fill-opacity:1;" d="M 296.542969 137.269531 C 296.441406 137.320312 296.339844 137.398438 296.234375 137.5 C 296.132812 137.550781 296.03125 137.601562 295.929688 137.652344 C 295.828125 137.753906 295.726562 137.804688 295.625 137.804688 C 295.523438 137.855469 295.421875 137.90625 295.320312 137.957031 L 294.554688 138.035156 C 294.402344 138.035156 294.277344 138.035156 294.171875 138.035156 C 294.070312 138.035156 293.945312 138.007812 293.792969 137.957031 C 293.691406 137.90625 293.589844 137.882812 293.484375 137.882812 C 293.332031 137.832031 293.207031 137.753906 293.105469 137.652344 L 292.570312 137.269531 C 292.519531 137.167969 292.441406 137.09375 292.339844 137.042969 C 292.289062 136.992188 292.238281 136.914062 292.1875 136.8125 C 292.136719 136.761719 292.109375 136.683594 292.109375 136.582031 C 292.058594 136.480469 292.007812 136.40625 291.957031 136.355469 C 291.90625 136.152344 291.855469 135.972656 291.804688 135.820312 C 291.753906 135.617188 291.730469 135.4375 291.730469 135.285156 C 291.730469 135.082031 291.753906 134.878906 291.804688 134.671875 C 291.855469 134.519531 291.90625 134.34375 291.957031 134.140625 C 292.007812 134.089844 292.058594 134.011719 292.109375 133.910156 C 292.109375 133.859375 292.136719 133.78125 292.1875 133.679688 C 292.238281 133.628906 292.289062 133.554688 292.339844 133.453125 C 292.441406 133.402344 292.519531 133.347656 292.570312 133.296875 L 292.109375 133.832031 C 292.109375 133.832031 292.136719 133.808594 292.1875 133.757812 C 292.1875 133.757812 292.1875 133.730469 292.1875 133.679688 C 292.238281 133.679688 292.265625 133.65625 292.265625 133.605469 C 292.265625 133.554688 292.265625 133.527344 292.265625 133.527344 L 292.035156 134.214844 C 292.085938 134.0625 292.136719 133.933594 292.1875 133.832031 C 292.1875 133.730469 292.214844 133.605469 292.265625 133.453125 C 292.316406 133.347656 292.367188 133.222656 292.417969 133.070312 C 292.417969 132.96875 292.441406 132.839844 292.492188 132.6875 C 292.492188 132.585938 292.519531 132.484375 292.570312 132.382812 C 292.621094 132.28125 292.671875 132.179688 292.722656 132.078125 C 292.824219 131.972656 292.902344 131.871094 292.953125 131.769531 C 293.054688 131.667969 293.128906 131.566406 293.179688 131.464844 L 293.792969 131.007812 C 293.894531 130.957031 293.996094 130.90625 294.097656 130.855469 C 294.199219 130.804688 294.328125 130.777344 294.480469 130.777344 C 294.582031 130.726562 294.683594 130.703125 294.785156 130.703125 C 294.9375 130.652344 295.066406 130.625 295.167969 130.625 L 295.929688 130.777344 C 296.082031 130.828125 296.261719 130.878906 296.464844 130.929688 C 296.617188 131.03125 296.746094 131.132812 296.847656 131.234375 C 297 131.339844 297.152344 131.464844 297.304688 131.617188 C 297.40625 131.769531 297.507812 131.921875 297.609375 132.078125 C 297.660156 132.128906 297.714844 132.203125 297.765625 132.304688 C 297.765625 132.355469 297.789062 132.433594 297.839844 132.535156 C 297.890625 132.636719 297.917969 132.738281 297.917969 132.839844 C 297.917969 132.941406 297.917969 133.019531 297.917969 133.070312 C 297.96875 133.171875 297.992188 133.273438 297.992188 133.375 C 297.992188 133.476562 297.992188 133.578125 297.992188 133.679688 C 297.992188 133.78125 297.992188 133.859375 297.992188 133.910156 C 297.992188 134.011719 297.96875 134.113281 297.917969 134.214844 C 297.917969 134.316406 297.917969 134.394531 297.917969 134.445312 C 297.867188 134.546875 297.839844 134.648438 297.839844 134.75 C 297.789062 134.800781 297.765625 134.878906 297.765625 134.980469 C 297.714844 135.082031 297.660156 135.15625 297.609375 135.207031 C 297.609375 135.257812 297.609375 135.308594 297.609375 135.359375 C 297.609375 135.410156 297.585938 135.4375 297.535156 135.4375 C 297.535156 135.488281 297.535156 135.539062 297.535156 135.589844 C 297.535156 135.640625 297.507812 135.667969 297.457031 135.667969 C 297.457031 135.769531 297.433594 135.84375 297.382812 135.894531 C 297.382812 135.996094 297.355469 136.074219 297.304688 136.125 C 297.253906 136.175781 297.230469 136.253906 297.230469 136.355469 C 297.179688 136.40625 297.152344 136.457031 297.152344 136.507812 C 297.101562 136.609375 297.050781 136.683594 297 136.734375 C 296.949219 136.785156 296.898438 136.839844 296.847656 136.890625 C 296.796875 136.992188 296.746094 137.066406 296.695312 137.117188 C 296.644531 137.167969 296.59375 137.21875 296.542969 137.269531 Z M 296.542969 137.269531 "/>
<path style=" stroke:none;fill-rule:nonzero;fill:rgb(19.607843%,36.862745%,39.215686%);fill-opacity:1;" d="M 284.167969 141.089844 C 283.964844 141.089844 283.785156 141.066406 283.632812 141.015625 C 283.429688 140.964844 283.25 140.910156 283.097656 140.859375 C 282.894531 140.808594 282.714844 140.734375 282.5625 140.632812 C 282.410156 140.53125 282.28125 140.402344 282.179688 140.25 C 281.925781 139.996094 281.722656 139.691406 281.570312 139.332031 C 281.417969 139.027344 281.339844 138.671875 281.339844 138.265625 C 281.339844 137.90625 281.417969 137.550781 281.570312 137.195312 C 281.722656 136.890625 281.925781 136.582031 282.179688 136.277344 C 282.28125 136.175781 282.410156 136.074219 282.5625 135.972656 C 282.714844 135.871094 282.894531 135.769531 283.097656 135.667969 C 283.25 135.617188 283.402344 135.566406 283.554688 135.515625 C 283.757812 135.515625 283.964844 135.515625 284.167969 135.515625 C 285.007812 135.589844 285.847656 135.589844 286.765625 135.589844 C 286.96875 135.589844 287.171875 135.589844 287.375 135.589844 C 287.578125 135.589844 287.808594 135.589844 288.0625 135.589844 C 288.265625 135.589844 288.46875 135.589844 288.671875 135.589844 C 288.878906 135.589844 289.082031 135.566406 289.285156 135.515625 L 288.597656 135.667969 C 288.648438 135.617188 288.722656 135.589844 288.828125 135.589844 C 288.929688 135.539062 289.003906 135.515625 289.054688 135.515625 C 289.15625 135.464844 289.234375 135.4375 289.285156 135.4375 C 289.386719 135.386719 289.488281 135.335938 289.589844 135.285156 C 289.742188 135.234375 289.921875 135.207031 290.125 135.207031 C 290.328125 135.15625 290.507812 135.132812 290.660156 135.132812 C 290.863281 135.132812 291.066406 135.15625 291.269531 135.207031 C 291.421875 135.207031 291.601562 135.234375 291.804688 135.285156 C 292.492188 135.515625 293.105469 135.972656 293.484375 136.660156 C 293.867188 137.269531 293.945312 138.035156 293.792969 138.722656 C 293.5625 139.484375 293.105469 140.097656 292.417969 140.480469 C 291.804688 140.785156 291.042969 140.9375 290.277344 140.707031 C 290.226562 140.707031 290.203125 140.707031 290.203125 140.707031 C 290.203125 140.707031 290.175781 140.707031 290.125 140.707031 L 290.8125 140.785156 L 290.660156 140.785156 L 291.421875 140.707031 C 291.320312 140.707031 291.246094 140.734375 291.195312 140.785156 C 291.144531 140.785156 291.09375 140.785156 291.042969 140.785156 C 290.941406 140.835938 290.863281 140.859375 290.8125 140.859375 C 290.761719 140.910156 290.710938 140.9375 290.660156 140.9375 C 290.558594 140.988281 290.457031 141.015625 290.355469 141.015625 C 290.253906 141.066406 290.125 141.089844 289.972656 141.089844 C 289.871094 141.140625 289.769531 141.167969 289.667969 141.167969 C 289.566406 141.167969 289.464844 141.191406 289.359375 141.242188 C 289.207031 141.242188 289.054688 141.242188 288.902344 141.242188 C 288.75 141.242188 288.621094 141.242188 288.519531 141.242188 C 288.367188 141.242188 288.214844 141.269531 288.0625 141.320312 C 287.910156 141.320312 287.757812 141.292969 287.605469 141.242188 C 286.457031 141.320312 285.3125 141.242188 284.167969 141.167969 Z M 284.167969 141.089844 "/>
<path style=" stroke:none;fill-rule:nonzero;fill:rgb(19.607843%,36.862745%,39.215686%);fill-opacity:1;" d="M 291.117188 140.859375 C 291.015625 140.859375 290.890625 140.835938 290.734375 140.785156 C 290.632812 140.785156 290.507812 140.757812 290.355469 140.707031 C 290.253906 140.707031 290.152344 140.683594 290.046875 140.632812 C 289.945312 140.582031 289.820312 140.53125 289.667969 140.480469 L 289.132812 140.019531 C 289.03125 139.917969 288.953125 139.816406 288.902344 139.714844 C 288.800781 139.613281 288.722656 139.511719 288.671875 139.410156 C 288.621094 139.308594 288.570312 139.207031 288.519531 139.105469 C 288.46875 139.003906 288.445312 138.902344 288.445312 138.796875 L 288.292969 138.035156 C 288.292969 137.933594 288.292969 137.832031 288.292969 137.730469 C 288.292969 137.628906 288.316406 137.527344 288.367188 137.421875 C 288.367188 137.320312 288.394531 137.246094 288.445312 137.195312 C 288.496094 137.09375 288.546875 136.992188 288.597656 136.890625 C 288.648438 136.734375 288.722656 136.582031 288.828125 136.429688 C 288.878906 136.277344 288.980469 136.125 289.132812 135.972656 C 289.285156 135.871094 289.4375 135.769531 289.589844 135.667969 C 289.742188 135.566406 289.894531 135.488281 290.046875 135.4375 C 290.152344 135.386719 290.226562 135.335938 290.277344 135.285156 C 290.378906 135.285156 290.480469 135.257812 290.582031 135.207031 C 290.683594 135.207031 290.785156 135.207031 290.890625 135.207031 C 290.992188 135.207031 291.09375 135.207031 291.195312 135.207031 L 291.421875 135.207031 C 291.578125 135.207031 291.703125 135.207031 291.804688 135.207031 C 291.90625 135.207031 292.035156 135.234375 292.1875 135.285156 C 292.289062 135.335938 292.390625 135.359375 292.492188 135.359375 C 292.644531 135.410156 292.773438 135.488281 292.875 135.589844 L 293.410156 135.972656 C 293.511719 136.074219 293.589844 136.175781 293.640625 136.277344 C 293.742188 136.378906 293.816406 136.480469 293.867188 136.582031 C 293.917969 136.683594 293.96875 136.785156 294.019531 136.890625 C 294.070312 136.992188 294.097656 137.117188 294.097656 137.269531 L 294.25 137.957031 C 294.25 138.058594 294.25 138.160156 294.25 138.265625 C 294.25 138.367188 294.222656 138.46875 294.171875 138.570312 C 294.171875 138.671875 294.148438 138.773438 294.097656 138.875 C 294.046875 138.925781 294.019531 139.003906 294.019531 139.105469 C 293.96875 139.207031 293.917969 139.28125 293.867188 139.332031 C 293.867188 139.433594 293.84375 139.511719 293.792969 139.5625 C 293.742188 139.664062 293.691406 139.742188 293.640625 139.792969 C 293.535156 139.894531 293.460938 139.96875 293.410156 140.019531 C 293.257812 140.121094 293.105469 140.222656 292.953125 140.328125 C 292.796875 140.429688 292.644531 140.53125 292.492188 140.632812 C 292.339844 140.683594 292.160156 140.734375 291.957031 140.785156 C 291.804688 140.785156 291.628906 140.808594 291.421875 140.859375 Z M 291.117188 140.859375 "/>
<path style=" stroke:none;fill-rule:nonzero;fill:rgb(19.607843%,36.862745%,39.215686%);fill-opacity:1;" d="M 291.421875 140.859375 C 291.320312 140.859375 291.21875 140.835938 291.117188 140.785156 C 290.964844 140.785156 290.839844 140.757812 290.734375 140.707031 C 290.582031 140.707031 290.457031 140.683594 290.355469 140.632812 C 290.253906 140.582031 290.152344 140.53125 290.046875 140.480469 L 289.4375 140.019531 C 289.386719 139.917969 289.308594 139.816406 289.207031 139.714844 C 289.15625 139.613281 289.105469 139.511719 289.054688 139.410156 C 288.953125 139.308594 288.902344 139.207031 288.902344 139.105469 C 288.851562 139.003906 288.800781 138.902344 288.75 138.796875 L 288.671875 138.035156 C 288.671875 137.933594 288.671875 137.832031 288.671875 137.730469 C 288.671875 137.628906 288.671875 137.527344 288.671875 137.421875 C 288.722656 137.320312 288.75 137.246094 288.75 137.195312 C 288.800781 137.09375 288.851562 136.992188 288.902344 136.890625 C 288.953125 136.734375 289.03125 136.582031 289.132812 136.429688 C 289.234375 136.277344 289.335938 136.125 289.4375 135.972656 C 289.589844 135.871094 289.742188 135.769531 289.894531 135.667969 C 290.046875 135.566406 290.203125 135.488281 290.355469 135.4375 C 290.457031 135.386719 290.558594 135.335938 290.660156 135.285156 C 290.761719 135.285156 290.839844 135.257812 290.890625 135.207031 C 290.992188 135.207031 291.09375 135.207031 291.195312 135.207031 C 291.296875 135.207031 291.398438 135.207031 291.5 135.207031 L 291.652344 135.207031 C 291.804688 135.207031 291.933594 135.207031 292.035156 135.207031 C 292.136719 135.207031 292.265625 135.234375 292.417969 135.285156 C 292.519531 135.335938 292.621094 135.359375 292.722656 135.359375 C 292.875 135.410156 293.003906 135.488281 293.105469 135.589844 L 293.640625 135.972656 C 293.742188 136.074219 293.816406 136.175781 293.867188 136.277344 C 293.96875 136.378906 294.046875 136.480469 294.097656 136.582031 C 294.148438 136.683594 294.199219 136.785156 294.25 136.890625 C 294.300781 136.992188 294.351562 137.117188 294.402344 137.269531 L 294.480469 137.957031 C 294.480469 138.058594 294.480469 138.160156 294.480469 138.265625 C 294.480469 138.367188 294.453125 138.46875 294.402344 138.570312 C 294.402344 138.671875 294.378906 138.773438 294.328125 138.875 C 294.328125 138.925781 294.300781 139.003906 294.25 139.105469 C 294.199219 139.207031 294.148438 139.28125 294.097656 139.332031 C 294.097656 139.433594 294.070312 139.511719 294.019531 139.5625 C 293.96875 139.664062 293.917969 139.742188 293.867188 139.792969 C 293.765625 139.894531 293.691406 139.96875 293.640625 140.019531 C 293.535156 140.121094 293.382812 140.222656 293.179688 140.328125 C 293.027344 140.429688 292.875 140.53125 292.722656 140.632812 C 292.570312 140.683594 292.390625 140.734375 292.1875 140.785156 C 292.035156 140.785156 291.855469 140.808594 291.652344 140.859375 Z M 291.421875 140.859375 "/>
<path style=" stroke:none;fill-rule:nonzero;fill:rgb(19.607843%,36.862745%,39.215686%);fill-opacity:1;" d="M 291.730469 140.859375 C 295.320312 140.859375 295.320312 135.207031 291.730469 135.207031 C 288.140625 135.207031 288.140625 140.859375 291.730469 140.859375 Z M 291.730469 140.859375 "/>
<path style=" stroke:none;fill-rule:nonzero;fill:rgb(19.607843%,36.862745%,39.215686%);fill-opacity:1;" d="M 293.179688 122.832031 C 293.484375 122.984375 293.765625 123.191406 294.019531 123.445312 C 294.277344 123.699219 294.480469 124.003906 294.632812 124.359375 C 294.785156 124.667969 294.859375 124.996094 294.859375 125.355469 C 294.859375 125.761719 294.785156 126.117188 294.632812 126.421875 C 294.53125 126.78125 294.328125 127.085938 294.019531 127.339844 C 293.765625 127.59375 293.484375 127.796875 293.179688 127.953125 C 292.824219 128.105469 292.46875 128.179688 292.109375 128.179688 C 289.820312 128.105469 287.453125 128.105469 285.160156 128.105469 C 284.804688 128.054688 284.445312 127.976562 284.089844 127.875 C 283.785156 127.722656 283.480469 127.519531 283.171875 127.265625 C 282.917969 126.957031 282.714844 126.652344 282.5625 126.347656 C 282.460938 125.992188 282.382812 125.632812 282.332031 125.277344 C 282.382812 125.074219 282.410156 124.894531 282.410156 124.742188 C 282.460938 124.539062 282.511719 124.359375 282.5625 124.207031 C 282.664062 124.003906 282.765625 123.828125 282.867188 123.671875 C 282.96875 123.519531 283.070312 123.394531 283.171875 123.292969 C 283.328125 123.140625 283.480469 123.011719 283.632812 122.910156 C 283.785156 122.808594 283.9375 122.730469 284.089844 122.679688 C 284.292969 122.628906 284.472656 122.578125 284.625 122.527344 C 284.828125 122.476562 285.007812 122.453125 285.160156 122.453125 C 287.453125 122.453125 289.820312 122.453125 292.109375 122.605469 C 292.46875 122.605469 292.824219 122.679688 293.179688 122.832031 Z M 293.179688 122.832031 "/>
<path style=" stroke:none;fill-rule:nonzero;fill:rgb(19.607843%,36.862745%,39.215686%);fill-opacity:1;" d="M 285.082031 122.375 C 285.183594 122.375 285.3125 122.402344 285.464844 122.453125 C 285.566406 122.453125 285.667969 122.476562 285.769531 122.527344 C 285.921875 122.527344 286.050781 122.554688 286.152344 122.605469 C 286.253906 122.65625 286.355469 122.707031 286.457031 122.757812 L 287.070312 123.214844 C 287.171875 123.316406 287.246094 123.417969 287.296875 123.519531 C 287.347656 123.621094 287.425781 123.722656 287.527344 123.828125 C 287.578125 123.929688 287.628906 124.03125 287.679688 124.132812 C 287.730469 124.234375 287.757812 124.335938 287.757812 124.4375 L 287.910156 125.203125 C 287.910156 125.304688 287.910156 125.40625 287.910156 125.507812 C 287.859375 125.609375 287.832031 125.710938 287.832031 125.8125 C 287.832031 125.914062 287.808594 125.992188 287.757812 126.042969 C 287.707031 126.144531 287.65625 126.246094 287.605469 126.347656 C 287.554688 126.5 287.476562 126.652344 287.375 126.804688 C 287.273438 126.957031 287.171875 127.109375 287.070312 127.265625 C 286.917969 127.367188 286.765625 127.46875 286.609375 127.570312 C 286.457031 127.671875 286.304688 127.746094 286.152344 127.796875 C 286.050781 127.847656 285.949219 127.902344 285.847656 127.953125 C 285.796875 127.953125 285.71875 127.976562 285.617188 128.027344 C 285.515625 128.027344 285.414062 128.027344 285.3125 128.027344 C 285.210938 128.078125 285.109375 128.078125 285.007812 128.027344 L 284.855469 128.027344 L 284.015625 127.953125 L 283.707031 127.875 C 283.605469 127.824219 283.480469 127.773438 283.328125 127.722656 C 283.222656 127.671875 283.121094 127.621094 283.019531 127.570312 C 282.917969 127.519531 282.816406 127.46875 282.714844 127.417969 C 282.613281 127.316406 282.535156 127.214844 282.484375 127.109375 L 282.027344 126.578125 C 281.976562 126.472656 281.925781 126.371094 281.875 126.269531 C 281.824219 126.117188 281.773438 125.992188 281.722656 125.890625 C 281.671875 125.785156 281.644531 125.660156 281.644531 125.507812 C 281.644531 125.40625 281.644531 125.304688 281.644531 125.203125 L 281.722656 124.4375 C 281.773438 124.335938 281.796875 124.234375 281.796875 124.132812 C 281.847656 124.082031 281.902344 124.003906 281.953125 123.902344 C 281.953125 123.800781 281.976562 123.722656 282.027344 123.671875 C 282.128906 123.621094 282.207031 123.546875 282.257812 123.445312 C 282.359375 123.292969 282.460938 123.164062 282.5625 123.0625 C 282.714844 122.910156 282.867188 122.808594 283.019531 122.757812 C 283.171875 122.65625 283.351562 122.578125 283.554688 122.527344 C 283.707031 122.476562 283.886719 122.425781 284.089844 122.375 C 284.140625 122.375 284.21875 122.375 284.320312 122.375 C 284.421875 122.375 284.523438 122.375 284.625 122.375 C 284.726562 122.375 284.828125 122.375 284.929688 122.375 C 285.03125 122.425781 285.109375 122.453125 285.160156 122.453125 C 285.210938 122.453125 285.261719 122.476562 285.3125 122.527344 C 285.3125 122.527344 285.339844 122.527344 285.390625 122.527344 C 285.441406 122.527344 285.464844 122.527344 285.464844 122.527344 C 285.515625 122.527344 285.566406 122.527344 285.617188 122.527344 L 284.855469 122.453125 L 285.082031 122.453125 Z M 285.082031 122.375 "/>
<path style=" stroke:none;fill-rule:nonzero;fill:rgb(19.607843%,36.862745%,39.215686%);fill-opacity:1;" d="M 283.707031 127.265625 C 287.296875 127.265625 287.296875 121.609375 283.707031 121.609375 C 280.117188 121.609375 280.117188 127.265625 283.707031 127.265625 Z M 283.707031 127.265625 "/>
<path style=" stroke:none;fill-rule:nonzero;fill:rgb(19.607843%,36.862745%,39.215686%);fill-opacity:1;" d="M 283.707031 127.265625 C 283.554688 127.265625 283.429688 127.265625 283.328125 127.265625 C 283.222656 127.214844 283.097656 127.1875 282.945312 127.1875 C 282.84375 127.136719 282.742188 127.085938 282.640625 127.035156 C 282.484375 126.984375 282.359375 126.933594 282.257812 126.882812 L 281.722656 126.421875 C 281.621094 126.371094 281.542969 126.296875 281.492188 126.195312 C 281.390625 126.09375 281.316406 125.992188 281.265625 125.890625 C 281.214844 125.785156 281.160156 125.683594 281.109375 125.582031 C 281.058594 125.429688 281.007812 125.304688 280.957031 125.203125 L 280.882812 124.4375 C 280.882812 124.335938 280.882812 124.234375 280.882812 124.132812 C 280.882812 124.082031 280.90625 124.003906 280.957031 123.902344 C 280.957031 123.800781 280.984375 123.699219 281.035156 123.597656 C 281.035156 123.496094 281.058594 123.417969 281.109375 123.367188 C 281.160156 123.265625 281.214844 123.164062 281.265625 123.0625 C 281.265625 123.011719 281.289062 122.933594 281.339844 122.832031 C 281.390625 122.78125 281.441406 122.707031 281.492188 122.605469 C 281.59375 122.554688 281.671875 122.503906 281.722656 122.453125 C 281.773438 122.347656 281.847656 122.273438 281.953125 122.222656 C 282.003906 122.171875 282.054688 122.121094 282.105469 122.070312 C 282.207031 122.019531 282.28125 121.96875 282.332031 121.917969 C 282.433594 121.917969 282.535156 121.890625 282.640625 121.839844 C 282.691406 121.789062 282.765625 121.765625 282.867188 121.765625 C 282.96875 121.714844 283.070312 121.6875 283.171875 121.6875 C 283.277344 121.636719 283.378906 121.609375 283.480469 121.609375 C 283.53125 121.609375 283.605469 121.609375 283.707031 121.609375 L 283.9375 121.609375 C 284.039062 121.609375 284.167969 121.609375 284.320312 121.609375 C 284.421875 121.660156 284.546875 121.6875 284.703125 121.6875 C 284.804688 121.738281 284.90625 121.789062 285.007812 121.839844 C 285.160156 121.890625 285.285156 121.941406 285.390625 121.992188 L 285.921875 122.453125 C 286.027344 122.554688 286.101562 122.628906 286.152344 122.679688 C 286.253906 122.78125 286.332031 122.882812 286.382812 122.984375 C 286.433594 123.089844 286.484375 123.214844 286.535156 123.367188 C 286.585938 123.46875 286.636719 123.570312 286.6875 123.671875 L 286.765625 124.4375 C 286.765625 124.539062 286.765625 124.617188 286.765625 124.667969 C 286.765625 124.769531 286.738281 124.871094 286.6875 124.972656 C 286.6875 125.074219 286.660156 125.175781 286.609375 125.277344 C 286.609375 125.378906 286.585938 125.457031 286.535156 125.507812 C 286.433594 125.710938 286.332031 125.890625 286.230469 126.042969 C 286.179688 126.195312 286.078125 126.320312 285.921875 126.421875 C 285.820312 126.578125 285.695312 126.703125 285.542969 126.804688 C 285.390625 126.855469 285.210938 126.933594 285.007812 127.035156 C 284.957031 127.085938 284.878906 127.109375 284.777344 127.109375 C 284.675781 127.160156 284.574219 127.1875 284.472656 127.1875 C 284.371094 127.238281 284.269531 127.265625 284.167969 127.265625 C 284.066406 127.265625 283.988281 127.265625 283.9375 127.265625 Z M 283.707031 127.265625 "/>
<path style=" stroke:none;fill-rule:nonzero;fill:rgb(19.607843%,36.862745%,39.215686%);fill-opacity:1;" d="M 243.984375 127.339844 C 247.652344 127.339844 247.652344 121.765625 243.984375 121.765625 C 240.394531 121.765625 240.394531 127.339844 243.984375 127.339844 Z M 243.984375 127.339844 "/>
<path style=" stroke:none;fill-rule:nonzero;fill:rgb(19.607843%,36.862745%,39.215686%);fill-opacity:1;" d="M 243.984375 127.339844 C 247.652344 127.339844 247.652344 121.765625 243.984375 121.765625 C 240.394531 121.765625 240.394531 127.339844 243.984375 127.339844 Z M 243.984375 127.339844 "/>
<path style=" stroke:none;fill-rule:nonzero;fill:rgb(19.607843%,36.862745%,39.215686%);fill-opacity:1;" d="M 243.679688 127.265625 C 243.527344 127.265625 243.402344 127.238281 243.296875 127.1875 C 243.144531 127.1875 243.019531 127.160156 242.917969 127.109375 C 242.816406 127.058594 242.714844 127.007812 242.609375 126.957031 L 242 126.5 C 241.898438 126.347656 241.796875 126.195312 241.695312 126.042969 C 241.59375 125.890625 241.492188 125.734375 241.390625 125.582031 C 241.339844 125.429688 241.285156 125.253906 241.234375 125.046875 C 241.234375 124.84375 241.234375 124.667969 241.234375 124.515625 C 241.234375 124.308594 241.234375 124.132812 241.234375 123.980469 C 241.285156 123.777344 241.363281 123.597656 241.464844 123.445312 C 241.515625 123.242188 241.59375 123.0625 241.695312 122.910156 C 241.796875 122.757812 241.898438 122.628906 242 122.527344 C 242.152344 122.375 242.304688 122.246094 242.457031 122.144531 C 242.609375 122.042969 242.765625 121.96875 242.917969 121.917969 C 243.121094 121.867188 243.296875 121.816406 243.453125 121.765625 C 243.65625 121.714844 243.832031 121.6875 243.984375 121.6875 C 244.546875 121.789062 245.105469 121.867188 245.667969 121.917969 C 246.226562 121.96875 246.785156 121.992188 247.347656 121.992188 C 247.855469 122.042969 248.390625 122.070312 248.953125 122.070312 C 249.511719 122.121094 250.070312 122.121094 250.632812 122.070312 C 251.167969 122.070312 251.703125 122.222656 252.160156 122.527344 C 252.617188 122.832031 253 123.292969 253.230469 123.828125 C 253.457031 124.359375 253.457031 124.894531 253.382812 125.429688 C 253.304688 125.964844 253 126.5 252.617188 126.882812 C 252.464844 126.984375 252.3125 127.085938 252.160156 127.1875 C 252.007812 127.289062 251.855469 127.390625 251.703125 127.492188 C 251.546875 127.542969 251.371094 127.59375 251.167969 127.644531 C 251.015625 127.695312 250.835938 127.722656 250.632812 127.722656 C 250.070312 127.722656 249.511719 127.722656 248.953125 127.722656 C 248.390625 127.671875 247.855469 127.644531 247.347656 127.644531 C 246.785156 127.59375 246.226562 127.542969 245.667969 127.492188 C 245.105469 127.441406 244.546875 127.390625 243.984375 127.339844 C 243.882812 127.339844 243.78125 127.316406 243.679688 127.265625 Z M 243.679688 127.265625 "/>
<path style=" stroke:none;fill-rule:nonzero;fill:rgb(19.607843%,36.862745%,39.215686%);fill-opacity:1;" d="M 250.785156 127.722656 C 250.632812 127.722656 250.503906 127.695312 250.402344 127.644531 C 250.25 127.644531 250.121094 127.621094 250.019531 127.570312 C 249.917969 127.570312 249.792969 127.542969 249.640625 127.492188 C 249.535156 127.441406 249.433594 127.390625 249.332031 127.339844 L 248.796875 126.882812 C 248.695312 126.78125 248.621094 126.679688 248.570312 126.578125 C 248.46875 126.472656 248.390625 126.371094 248.339844 126.269531 C 248.289062 126.167969 248.238281 126.066406 248.1875 125.964844 C 248.136719 125.863281 248.085938 125.761719 248.035156 125.660156 L 247.957031 124.894531 C 247.957031 124.691406 247.984375 124.515625 248.035156 124.359375 C 248.085938 124.15625 248.136719 123.980469 248.1875 123.828125 C 248.238281 123.671875 248.316406 123.519531 248.417969 123.367188 C 248.519531 123.214844 248.644531 123.0625 248.796875 122.910156 C 248.847656 122.859375 248.902344 122.78125 248.953125 122.679688 C 249.054688 122.628906 249.128906 122.578125 249.179688 122.527344 C 249.28125 122.476562 249.359375 122.453125 249.410156 122.453125 C 249.511719 122.402344 249.613281 122.347656 249.714844 122.296875 C 249.765625 122.246094 249.84375 122.222656 249.945312 122.222656 C 250.046875 122.171875 250.148438 122.144531 250.25 122.144531 C 250.300781 122.09375 250.378906 122.070312 250.480469 122.070312 C 250.582031 122.070312 250.683594 122.070312 250.785156 122.070312 L 251.777344 122.070312 C 251.929688 122.070312 252.058594 122.070312 252.160156 122.070312 C 252.261719 122.121094 252.390625 122.144531 252.542969 122.144531 C 252.644531 122.195312 252.746094 122.246094 252.847656 122.296875 C 253 122.347656 253.128906 122.402344 253.230469 122.453125 L 253.765625 122.910156 C 253.867188 123.011719 253.941406 123.089844 253.992188 123.140625 C 254.09375 123.242188 254.171875 123.34375 254.222656 123.445312 C 254.273438 123.546875 254.324219 123.671875 254.375 123.828125 C 254.425781 123.929688 254.453125 124.03125 254.453125 124.132812 L 254.605469 124.894531 C 254.605469 124.996094 254.605469 125.097656 254.605469 125.203125 C 254.605469 125.304688 254.578125 125.378906 254.527344 125.429688 C 254.527344 125.53125 254.503906 125.632812 254.453125 125.734375 C 254.402344 125.839844 254.375 125.941406 254.375 126.042969 C 254.324219 126.09375 254.273438 126.167969 254.222656 126.269531 C 254.222656 126.320312 254.195312 126.398438 254.144531 126.5 C 254.09375 126.550781 254.042969 126.628906 253.992188 126.730469 C 253.890625 126.78125 253.816406 126.832031 253.765625 126.882812 C 253.714844 126.984375 253.660156 127.058594 253.609375 127.109375 C 253.507812 127.160156 253.433594 127.214844 253.382812 127.265625 C 253.28125 127.316406 253.203125 127.367188 253.152344 127.417969 C 253.050781 127.417969 252.949219 127.441406 252.847656 127.492188 C 252.796875 127.542969 252.71875 127.570312 252.617188 127.570312 C 252.515625 127.621094 252.414062 127.671875 252.3125 127.722656 C 252.210938 127.722656 252.109375 127.722656 252.007812 127.722656 C 251.90625 127.722656 251.828125 127.722656 251.777344 127.722656 Z M 250.785156 127.722656 "/>
<path style=" stroke:none;fill-rule:nonzero;fill:rgb(19.607843%,36.862745%,39.215686%);fill-opacity:1;" d="M 252.007812 127.339844 C 255.597656 127.339844 255.597656 121.765625 252.007812 121.765625 C 248.417969 121.765625 248.417969 127.339844 252.007812 127.339844 Z M 252.007812 127.339844 "/>
<path style=" stroke:none;fill-rule:nonzero;fill:rgb(19.607843%,36.862745%,39.215686%);fill-opacity:1;" d="M 252.3125 126.957031 C 255.902344 126.957031 255.902344 121.382812 252.3125 121.382812 C 248.644531 121.382812 248.644531 126.957031 252.3125 126.957031 Z M 252.3125 126.957031 "/>
<path style=" stroke:none;fill-rule:nonzero;fill:rgb(19.607843%,36.862745%,39.215686%);fill-opacity:1;" d="M 253.152344 125.890625 C 256.820312 125.890625 256.820312 120.3125 253.152344 120.3125 C 249.5625 120.3125 249.5625 125.890625 253.152344 125.890625 Z M 253.152344 125.890625 "/>
<path style=" stroke:none;fill-rule:nonzero;fill:rgb(19.607843%,36.862745%,39.215686%);fill-opacity:1;" d="M 242 140.707031 C 241.464844 140.171875 241.160156 139.484375 241.160156 138.722656 C 241.160156 137.957031 241.464844 137.269531 242 136.734375 C 242.535156 136.203125 243.222656 135.894531 243.984375 135.894531 C 246.53125 135.894531 249.105469 135.945312 251.703125 136.046875 C 252.058594 136.046875 252.414062 136.125 252.769531 136.277344 C 253.128906 136.378906 253.433594 136.582031 253.6875 136.890625 C 253.941406 137.144531 254.144531 137.421875 254.296875 137.730469 C 254.402344 138.085938 254.476562 138.441406 254.527344 138.796875 C 254.527344 139.207031 254.453125 139.5625 254.296875 139.867188 C 254.144531 140.222656 253.941406 140.53125 253.6875 140.785156 C 253.433594 141.039062 253.128906 141.242188 252.769531 141.394531 C 252.414062 141.546875 252.058594 141.625 251.703125 141.625 C 249.105469 141.546875 246.507812 141.546875 243.984375 141.546875 C 243.222656 141.546875 242.535156 141.242188 242 140.707031 Z M 242 140.707031 "/>
<path style=" stroke:none;fill-rule:nonzero;fill:rgb(19.607843%,36.862745%,39.215686%);fill-opacity:1;" d="M 251.703125 135.894531 C 251.855469 135.894531 251.980469 135.894531 252.082031 135.894531 C 252.183594 135.894531 252.3125 135.921875 252.464844 135.972656 C 252.566406 136.023438 252.667969 136.074219 252.769531 136.125 C 252.871094 136.125 253 136.175781 253.152344 136.277344 L 253.6875 136.660156 C 253.789062 136.761719 253.867188 136.863281 253.917969 136.964844 C 254.019531 137.066406 254.09375 137.167969 254.144531 137.269531 C 254.195312 137.371094 254.246094 137.472656 254.296875 137.578125 C 254.347656 137.679688 254.375 137.804688 254.375 137.957031 L 254.527344 138.644531 C 254.527344 138.746094 254.527344 138.847656 254.527344 138.953125 C 254.527344 139.054688 254.503906 139.15625 254.453125 139.257812 C 254.453125 139.359375 254.425781 139.460938 254.375 139.5625 C 254.324219 139.613281 254.296875 139.691406 254.296875 139.792969 C 254.246094 139.894531 254.195312 139.96875 254.144531 140.019531 C 254.144531 140.121094 254.121094 140.199219 254.070312 140.25 C 254.019531 140.351562 253.96875 140.429688 253.917969 140.480469 C 253.816406 140.582031 253.738281 140.65625 253.6875 140.707031 C 253.636719 140.757812 253.585938 140.808594 253.535156 140.859375 C 253.433594 140.910156 253.355469 140.964844 253.304688 141.015625 C 253.203125 141.066406 253.128906 141.117188 253.078125 141.167969 C 252.972656 141.21875 252.871094 141.242188 252.769531 141.242188 C 252.71875 141.292969 252.644531 141.34375 252.542969 141.394531 C 252.441406 141.445312 252.339844 141.472656 252.234375 141.472656 C 252.132812 141.472656 252.03125 141.472656 251.929688 141.472656 C 251.828125 141.523438 251.726562 141.523438 251.625 141.472656 C 251.574219 141.523438 251.496094 141.546875 251.394531 141.546875 C 251.292969 141.546875 251.191406 141.546875 251.089844 141.546875 C 250.988281 141.546875 250.886719 141.546875 250.785156 141.546875 C 250.734375 141.546875 250.65625 141.523438 250.554688 141.472656 C 250.402344 141.472656 250.25 141.472656 250.097656 141.472656 C 249.945312 141.421875 249.792969 141.394531 249.640625 141.394531 C 249.484375 141.34375 249.332031 141.320312 249.179688 141.320312 C 249.027344 141.269531 248.875 141.21875 248.722656 141.167969 C 248.621094 141.117188 248.492188 141.066406 248.339844 141.015625 C 248.238281 141.015625 248.136719 140.964844 248.035156 140.859375 C 247.933594 140.808594 247.832031 140.757812 247.730469 140.707031 C 247.628906 140.605469 247.550781 140.53125 247.5 140.480469 L 247.042969 139.867188 C 246.992188 139.765625 246.941406 139.664062 246.890625 139.5625 C 246.839844 139.460938 246.785156 139.332031 246.734375 139.179688 C 246.683594 139.078125 246.660156 138.976562 246.660156 138.875 C 246.609375 138.722656 246.582031 138.59375 246.582031 138.492188 L 246.734375 137.730469 C 246.734375 137.628906 246.761719 137.550781 246.8125 137.5 C 246.8125 137.398438 246.839844 137.296875 246.890625 137.195312 C 246.941406 137.144531 246.992188 137.066406 247.042969 136.964844 C 247.09375 136.914062 247.144531 136.863281 247.195312 136.8125 C 247.246094 136.710938 247.296875 136.632812 247.347656 136.582031 C 247.398438 136.480469 247.472656 136.40625 247.578125 136.355469 C 247.628906 136.304688 247.679688 136.253906 247.730469 136.203125 C 247.832031 136.152344 247.90625 136.097656 247.957031 136.046875 C 248.058594 135.996094 248.160156 135.945312 248.265625 135.894531 C 248.316406 135.894531 248.390625 135.871094 248.492188 135.820312 C 248.59375 135.820312 248.671875 135.792969 248.722656 135.742188 C 248.824219 135.742188 248.925781 135.742188 249.027344 135.742188 C 249.128906 135.691406 249.230469 135.667969 249.332031 135.667969 C 249.382812 135.667969 249.460938 135.667969 249.5625 135.667969 C 249.664062 135.667969 249.765625 135.667969 249.867188 135.667969 C 249.96875 135.667969 250.070312 135.691406 250.171875 135.742188 C 250.222656 135.742188 250.300781 135.769531 250.402344 135.820312 C 250.453125 135.820312 250.53125 135.84375 250.632812 135.894531 C 250.734375 135.894531 250.808594 135.894531 250.859375 135.894531 C 250.964844 135.945312 251.039062 135.972656 251.089844 135.972656 L 250.402344 135.820312 C 250.503906 135.871094 250.605469 135.894531 250.707031 135.894531 C 250.808594 135.894531 250.910156 135.894531 251.015625 135.894531 C 251.117188 135.894531 251.21875 135.894531 251.320312 135.894531 C 251.421875 135.894531 251.523438 135.871094 251.625 135.820312 Z M 251.703125 135.894531 "/>
<path style=" stroke:none;fill-rule:nonzero;fill:rgb(19.607843%,36.862745%,39.215686%);fill-opacity:1;" d="M 252.234375 136.277344 C 252.441406 136.328125 252.617188 136.378906 252.769531 136.429688 C 252.921875 136.53125 253.078125 136.632812 253.230469 136.734375 C 253.382812 136.839844 253.535156 136.941406 253.6875 137.042969 C 253.789062 137.195312 253.890625 137.347656 253.992188 137.5 C 254.09375 137.652344 254.195312 137.804688 254.296875 137.957031 C 254.347656 138.109375 254.402344 138.289062 254.453125 138.492188 C 254.503906 138.644531 254.527344 138.824219 254.527344 139.027344 C 254.527344 139.230469 254.503906 139.410156 254.453125 139.5625 C 254.402344 139.765625 254.347656 139.945312 254.296875 140.097656 C 254.195312 140.25 254.09375 140.402344 253.992188 140.554688 C 253.890625 140.707031 253.789062 140.859375 253.6875 141.015625 C 253.535156 141.167969 253.382812 141.292969 253.230469 141.394531 C 253.078125 141.496094 252.921875 141.574219 252.769531 141.625 C 252.617188 141.675781 252.441406 141.726562 252.234375 141.777344 C 252.082031 141.828125 251.90625 141.855469 251.703125 141.855469 C 250.988281 141.804688 250.300781 141.753906 249.640625 141.703125 C 248.925781 141.703125 248.214844 141.675781 247.5 141.625 C 246.839844 141.523438 246.152344 141.445312 245.4375 141.394531 C 244.777344 141.292969 244.089844 141.21875 243.375 141.167969 C 243.222656 141.117188 243.070312 141.039062 242.917969 140.9375 C 242.714844 140.835938 242.558594 140.734375 242.457031 140.632812 C 242.304688 140.53125 242.152344 140.402344 242 140.25 C 241.898438 140.148438 241.796875 140.019531 241.695312 139.867188 C 241.542969 139.511719 241.441406 139.15625 241.390625 138.796875 C 241.339844 138.441406 241.339844 138.085938 241.390625 137.730469 C 241.492188 137.371094 241.667969 137.042969 241.921875 136.734375 C 242.128906 136.429688 242.382812 136.175781 242.6875 135.972656 C 242.890625 135.921875 243.070312 135.871094 243.222656 135.820312 C 243.425781 135.71875 243.605469 135.667969 243.757812 135.667969 C 243.960938 135.617188 244.140625 135.617188 244.292969 135.667969 C 244.496094 135.667969 244.699219 135.691406 244.902344 135.742188 C 245.257812 135.792969 245.617188 135.84375 245.972656 135.894531 L 245.285156 135.820312 C 246.277344 135.972656 247.347656 135.972656 248.492188 135.972656 C 249.5625 136.046875 250.554688 136.125 251.703125 136.203125 C 251.855469 136.203125 252.03125 136.226562 252.234375 136.277344 Z M 252.234375 136.277344 "/>
<path style=" stroke:none;fill-rule:nonzero;fill:rgb(19.607843%,36.862745%,39.215686%);fill-opacity:1;" d="M 244.0625 135.667969 C 244.164062 135.667969 244.292969 135.667969 244.445312 135.667969 C 244.546875 135.667969 244.648438 135.691406 244.75 135.742188 C 244.902344 135.792969 245.03125 135.820312 245.132812 135.820312 C 245.234375 135.871094 245.335938 135.945312 245.4375 136.046875 L 246.046875 136.429688 C 246.097656 136.53125 246.175781 136.632812 246.277344 136.734375 C 246.328125 136.839844 246.40625 136.941406 246.507812 137.042969 C 246.558594 137.144531 246.609375 137.246094 246.660156 137.347656 C 246.710938 137.449219 246.734375 137.578125 246.734375 137.730469 L 246.890625 138.417969 C 246.890625 138.519531 246.863281 138.621094 246.8125 138.722656 C 246.8125 138.824219 246.8125 138.925781 246.8125 139.027344 C 246.8125 139.128906 246.785156 139.230469 246.734375 139.332031 C 246.683594 139.382812 246.632812 139.460938 246.582031 139.5625 C 246.582031 139.664062 246.558594 139.742188 246.507812 139.792969 C 246.457031 139.894531 246.40625 139.96875 246.355469 140.019531 C 246.304688 140.121094 246.253906 140.199219 246.203125 140.25 C 246.152344 140.351562 246.097656 140.429688 246.046875 140.480469 C 245.894531 140.582031 245.742188 140.683594 245.589844 140.785156 C 245.4375 140.886719 245.285156 140.964844 245.132812 141.015625 C 244.929688 141.117188 244.75 141.191406 244.597656 141.242188 C 244.394531 141.242188 244.214844 141.269531 244.0625 141.320312 C 243.910156 141.320312 243.78125 141.292969 243.679688 141.242188 C 243.578125 141.242188 243.453125 141.21875 243.296875 141.167969 C 243.195312 141.167969 243.09375 141.140625 242.992188 141.089844 C 242.839844 141.039062 242.714844 140.988281 242.609375 140.9375 L 242.078125 140.480469 C 241.972656 140.378906 241.898438 140.277344 241.847656 140.171875 C 241.746094 140.070312 241.667969 139.96875 241.617188 139.867188 C 241.566406 139.765625 241.515625 139.664062 241.464844 139.5625 C 241.414062 139.460938 241.363281 139.359375 241.3125 139.257812 L 241.234375 138.492188 C 241.234375 138.390625 241.234375 138.289062 241.234375 138.1875 C 241.234375 138.085938 241.261719 137.984375 241.3125 137.882812 C 241.3125 137.832031 241.339844 137.753906 241.390625 137.652344 C 241.390625 137.550781 241.414062 137.449219 241.464844 137.347656 C 241.515625 137.296875 241.566406 137.21875 241.617188 137.117188 C 241.617188 137.015625 241.644531 136.941406 241.695312 136.890625 C 241.746094 136.785156 241.796875 136.710938 241.847656 136.660156 C 241.949219 136.609375 242.027344 136.558594 242.078125 136.507812 C 242.128906 136.40625 242.203125 136.328125 242.304688 136.277344 C 242.355469 136.226562 242.40625 136.175781 242.457031 136.125 C 242.558594 136.074219 242.636719 136.023438 242.6875 135.972656 C 242.789062 135.921875 242.890625 135.894531 242.992188 135.894531 C 243.042969 135.84375 243.121094 135.792969 243.222656 135.742188 C 243.324219 135.742188 243.425781 135.71875 243.527344 135.667969 C 243.628906 135.667969 243.730469 135.667969 243.832031 135.667969 C 243.933594 135.667969 244.011719 135.667969 244.0625 135.667969 Z M 244.0625 135.667969 "/>
<path style=" stroke:none;fill-rule:nonzero;fill:rgb(19.607843%,36.862745%,39.215686%);fill-opacity:1;" d="M 243.984375 141.242188 C 247.578125 141.242188 247.578125 135.589844 243.984375 135.589844 C 240.394531 135.589844 240.320312 141.242188 243.984375 141.242188 Z M 243.984375 141.242188 "/>
<path style=" stroke:none;fill-rule:nonzero;fill:rgb(19.607843%,36.862745%,39.215686%);fill-opacity:1;" d="M 242.457031 140.785156 C 242 140.480469 241.617188 140.019531 241.390625 139.484375 C 241.160156 139.027344 241.160156 138.417969 241.234375 137.882812 C 241.3125 137.347656 241.617188 136.8125 242 136.429688 C 242.152344 136.328125 242.304688 136.226562 242.457031 136.125 C 242.609375 136.023438 242.765625 135.921875 242.917969 135.820312 C 243.070312 135.769531 243.246094 135.71875 243.453125 135.667969 C 243.605469 135.667969 243.78125 135.667969 243.984375 135.667969 C 244.597656 135.617188 245.234375 135.589844 245.894531 135.589844 C 246.507812 135.539062 247.117188 135.515625 247.730469 135.515625 C 248.339844 135.515625 248.976562 135.539062 249.640625 135.589844 C 250.25 135.589844 250.859375 135.617188 251.472656 135.667969 C 251.675781 135.667969 251.855469 135.691406 252.007812 135.742188 C 252.210938 135.792969 252.390625 135.84375 252.542969 135.894531 C 252.746094 135.996094 252.921875 136.097656 253.078125 136.203125 C 253.230469 136.304688 253.355469 136.40625 253.457031 136.507812 C 253.839844 136.890625 254.144531 137.421875 254.222656 137.957031 C 254.375 138.492188 254.296875 139.027344 254.070312 139.5625 C 253.839844 140.097656 253.535156 140.480469 253.078125 140.785156 C 252.617188 141.167969 252.082031 141.320312 251.472656 141.320312 C 250.859375 141.269531 250.25 141.21875 249.640625 141.167969 C 248.976562 141.167969 248.339844 141.167969 247.730469 141.167969 C 247.117188 141.167969 246.507812 141.167969 245.894531 141.167969 C 245.234375 141.167969 244.597656 141.191406 243.984375 141.242188 C 243.453125 141.242188 242.917969 141.089844 242.457031 140.785156 Z M 242.457031 140.785156 "/>
<path style=" stroke:none;fill-rule:nonzero;fill:rgb(19.607843%,36.862745%,39.215686%);fill-opacity:1;" d="M 251.472656 141.320312 C 251.371094 141.320312 251.242188 141.320312 251.089844 141.320312 C 250.988281 141.320312 250.886719 141.292969 250.785156 141.242188 C 250.632812 141.191406 250.503906 141.167969 250.402344 141.167969 C 250.300781 141.117188 250.199219 141.039062 250.097656 140.9375 L 249.484375 140.554688 C 249.433594 140.453125 249.359375 140.351562 249.257812 140.25 C 249.207031 140.148438 249.128906 140.046875 249.027344 139.945312 C 248.976562 139.84375 248.925781 139.742188 248.875 139.640625 C 248.824219 139.535156 248.796875 139.410156 248.796875 139.257812 L 248.644531 138.570312 C 248.644531 138.46875 248.644531 138.367188 248.644531 138.265625 C 248.695312 138.160156 248.722656 138.058594 248.722656 137.957031 C 248.722656 137.855469 248.746094 137.753906 248.796875 137.652344 C 248.847656 137.601562 248.902344 137.527344 248.953125 137.421875 C 248.953125 137.320312 248.976562 137.246094 249.027344 137.195312 C 249.078125 137.09375 249.128906 137.015625 249.179688 136.964844 C 249.230469 136.863281 249.28125 136.785156 249.332031 136.734375 C 249.382812 136.632812 249.433594 136.558594 249.484375 136.507812 C 249.535156 136.457031 249.613281 136.40625 249.714844 136.355469 C 249.765625 136.304688 249.84375 136.253906 249.945312 136.203125 C 249.996094 136.152344 250.070312 136.097656 250.171875 136.046875 C 250.222656 135.996094 250.300781 135.972656 250.402344 135.972656 C 250.503906 135.921875 250.605469 135.871094 250.707031 135.820312 C 250.757812 135.769531 250.835938 135.742188 250.9375 135.742188 C 251.039062 135.742188 251.140625 135.742188 251.242188 135.742188 C 251.34375 135.691406 251.445312 135.691406 251.546875 135.742188 L 251.625 135.742188 C 251.777344 135.742188 251.90625 135.742188 252.007812 135.742188 C 252.109375 135.742188 252.234375 135.769531 252.390625 135.820312 C 252.492188 135.820312 252.59375 135.84375 252.695312 135.894531 C 252.847656 135.945312 252.972656 136.023438 253.078125 136.125 L 253.609375 136.507812 C 253.714844 136.609375 253.789062 136.710938 253.839844 136.8125 C 253.941406 136.914062 254.019531 137.015625 254.070312 137.117188 C 254.121094 137.21875 254.171875 137.320312 254.222656 137.421875 C 254.273438 137.527344 254.324219 137.628906 254.375 137.730469 L 254.453125 138.492188 C 254.453125 138.59375 254.453125 138.695312 254.453125 138.796875 C 254.453125 138.902344 254.425781 139.003906 254.375 139.105469 C 254.375 139.207031 254.347656 139.28125 254.296875 139.332031 C 254.296875 139.433594 254.273438 139.535156 254.222656 139.640625 C 254.171875 139.742188 254.144531 139.816406 254.144531 139.867188 C 254.09375 139.96875 254.042969 140.046875 253.992188 140.097656 C 253.941406 140.199219 253.890625 140.277344 253.839844 140.328125 C 253.789062 140.378906 253.714844 140.453125 253.609375 140.554688 C 253.558594 140.605469 253.507812 140.65625 253.457031 140.707031 C 253.355469 140.757812 253.28125 140.808594 253.230469 140.859375 C 253.128906 140.910156 253.050781 140.964844 253 141.015625 C 252.898438 141.066406 252.796875 141.089844 252.695312 141.089844 C 252.644531 141.140625 252.566406 141.191406 252.464844 141.242188 C 252.363281 141.292969 252.261719 141.320312 252.160156 141.320312 C 252.058594 141.320312 251.980469 141.320312 251.929688 141.320312 C 251.828125 141.371094 251.726562 141.394531 251.625 141.394531 L 251.546875 141.394531 Z M 251.472656 141.320312 "/>
<path style=" stroke:none;fill-rule:nonzero;fill:rgb(19.607843%,36.862745%,39.215686%);fill-opacity:1;" d="M 251.625 141.394531 C 255.214844 141.394531 255.214844 135.742188 251.625 135.742188 C 248.035156 135.742188 248.035156 141.394531 251.625 141.394531 Z M 251.625 141.394531 "/>
<path style=" stroke:none;fill-rule:nonzero;fill:rgb(19.607843%,36.862745%,39.215686%);fill-opacity:1;" d="M 251.777344 141.546875 C 255.367188 141.546875 255.367188 135.972656 251.777344 135.972656 C 248.109375 135.972656 248.109375 141.546875 251.777344 141.546875 Z M 251.777344 141.546875 "/>
</g>
</svg>
