<?xml version="1.0" encoding="UTF-8"?>
<svg xmlns="http://www.w3.org/2000/svg" xmlns:xlink="http://www.w3.org/1999/xlink" width="550px" height="px" viewBox="0 0 550 550" version="1.1">
<g id="surface1">
<path style="fill:none;stroke-width:8.8;stroke-linecap:butt;stroke-linejoin:miter;stroke:rgb(19.607843%,36.862745%,39.215686%);stroke-opacity:1;stroke-miterlimit:4;" d="M 235.201705 318.901705 L 235.201705 297.398864 L 213.698864 297.398864 L 213.698864 275.798864 L 235.201705 275.798864 L 235.201705 254.301136 L 256.801705 254.301136 L 256.801705 275.798864 L 278.299432 275.798864 L 278.299432 297.398864 L 256.801705 297.398864 L 256.801705 318.901705 Z M 235.201705 318.901705 " transform="matrix(0.763889,0,0,0.763889,0,0)"/>
<path style="fill:none;stroke-width:8.8;stroke-linecap:butt;stroke-linejoin:miter;stroke:rgb(19.607843%,36.862745%,39.215686%);stroke-opacity:1;stroke-miterlimit:4;" d="M 451.697727 323.601136 L 450.398864 340.399432 L 471.901705 340.399432 L 471.901705 361.902273 L 493.399432 361.902273 L 493.399432 383.4 L 514.902273 383.4 L 514.902273 404.897727 L 536.4 404.897727 L 536.4 426.400568 L 557.897727 426.400568 L 557.897727 447.898295 L 127.697727 447.898295 L 127.697727 361.902273 L 149.200568 361.902273 L 149.200568 340.399432 L 170.698295 340.399432 L 170.698295 318.901705 L 192.201136 318.901705 L 192.201136 340.399432 L 213.698864 340.399432 L 213.698864 361.902273 L 235.201705 361.902273 L 235.201705 383.4 L 256.801705 383.4 L 256.801705 361.902273 L 278.299432 361.902273 L 278.299432 340.399432 L 299.802273 340.399432 L 299.802273 318.901705 L 321.3 318.901705 L 321.3 297.398864 L 342.797727 297.398864 L 342.797727 275.798864 L 364.300568 275.798864 L 364.300568 254.301136 L 385.798295 254.301136 L 385.798295 275.798864 L 407.301136 275.798864 L 407.301136 297.398864 L 424.002273 297.398864 " transform="matrix(0.763889,0,0,0.763889,0,0)"/>
<path style="fill-rule:nonzero;fill:rgb(19.607843%,36.862745%,39.215686%);fill-opacity:1;stroke-width:0.6;stroke-linecap:butt;stroke-linejoin:miter;stroke:rgb(19.607843%,36.862745%,39.215686%);stroke-opacity:1;stroke-miterlimit:4;" d="M 550.902273 438.898295 L 550.902273 245.198864 C 555.898295 239.798864 560.86875 234.332386 565.798295 228.799432 L 565.798295 453.799432 L 120.201136 453.799432 L 120.201136 203.798864 L 497.7 203.798864 C 492.499432 208.733523 487.334659 213.734659 482.200568 218.802273 L 135.199432 218.802273 L 135.199432 438.898295 " transform="matrix(0.763889,0,0,0.763889,0,0)"/>
<path style="fill-rule:evenodd;fill:rgb(19.607843%,36.862745%,39.215686%);fill-opacity:1;stroke-width:0.6;stroke-linecap:butt;stroke-linejoin:miter;stroke:rgb(19.607843%,36.862745%,39.215686%);stroke-opacity:1;stroke-miterlimit:4;" d="M 591.801136 199.002273 L 591.801136 504.301705 C 591.801136 507.702273 591.197727 511.000568 589.898864 514.099432 C 588.6 517.198295 586.697727 520.000568 584.299432 522.398864 C 581.901136 524.802273 579.098864 526.699432 576 527.998295 C 572.901136 529.302273 569.500568 529.900568 566.202273 529.900568 L 408.001705 529.900568 C 407.500568 550.401136 413.897727 570.702273 426.901705 589.198295 L 427.300568 589.801705 L 442.8 589.801705 C 449.202273 589.801705 455.4 592.302273 460.002273 596.899432 C 464.502273 601.399432 467.1 607.602273 467.1 614.101705 C 467.1 620.498864 464.502273 626.701705 460.002273 631.201705 C 455.4 635.798864 449.202273 638.401705 442.8 638.401705 L 243.199432 638.401705 C 236.7 638.401705 230.599432 635.798864 226.002273 631.201705 C 221.4 626.701705 218.899432 620.498864 218.899432 614.101705 C 218.899432 607.602273 221.4 601.399432 226.002273 596.899432 C 230.599432 592.302273 236.7 589.801705 243.199432 589.801705 L 258.698864 589.801705 L 259.097727 589.198295 C 271.999432 570.702273 278.498864 550.401136 277.997727 529.900568 L 119.899432 529.900568 C 116.498864 529.900568 113.200568 529.302273 109.999432 527.998295 C 106.900568 526.699432 104.098295 524.802273 101.7 522.398864 C 99.301705 520.000568 97.399432 517.198295 96.197727 514.099432 C 94.898864 511.000568 94.198295 507.702273 94.198295 504.301705 L 94.198295 189.301705 C 94.198295 185.901136 94.898864 182.500568 96.197727 179.401705 C 97.399432 176.297727 99.301705 173.500568 101.7 171.102273 C 104.098295 168.698864 106.900568 166.801705 109.999432 165.497727 C 113.200568 164.301136 116.498864 163.600568 119.899432 163.600568 L 542.7 163.600568 L 526.602273 177.601705 L 525.497727 178.501705 L 119.899432 178.501705 C 118.401136 178.501705 117.102273 178.798295 115.798295 179.401705 C 114.499432 179.897727 113.297727 180.700568 112.300568 181.697727 C 111.298295 182.7 110.500568 183.901705 109.999432 185.200568 C 109.401136 186.499432 109.099432 187.798295 109.099432 189.301705 L 109.099432 504.301705 C 109.099432 505.697727 109.401136 507.098864 109.999432 508.397727 C 110.500568 509.701705 111.298295 510.898295 112.300568 511.900568 C 113.297727 512.800568 114.499432 513.598295 115.798295 514.201705 C 117.102273 514.697727 118.401136 514.999432 119.899432 514.999432 L 566.202273 514.999432 C 567.598295 514.999432 568.999432 514.697727 570.298295 514.201705 C 571.602273 513.598295 572.701705 512.800568 573.698864 511.900568 C 574.701136 510.898295 575.498864 509.701705 576 508.397727 C 576.598295 507.098864 576.9 505.697727 576.9 504.301705 L 576.9 216.102273 Z M 243.102273 604.8 C 240.698864 604.8 238.300568 605.802273 236.500568 607.5 C 234.797727 609.3 233.800568 611.601136 233.800568 614.101705 C 233.800568 616.602273 234.797727 619.000568 236.500568 620.698295 C 238.300568 622.498295 240.698864 623.500568 243.102273 623.500568 L 442.8 623.500568 C 445.198295 623.500568 447.601705 622.498295 449.401705 620.698295 C 451.099432 619.000568 452.101705 616.602273 452.101705 614.101705 C 452.101705 611.601136 451.099432 609.3 449.401705 607.5 C 447.601705 605.802273 445.198295 604.8 442.8 604.8 Z M 292.898864 529.997727 C 293.297727 550.600568 287.698295 570.998864 276.402273 589.801705 L 409.300568 589.801705 C 398.101705 570.998864 392.502273 550.600568 392.901136 529.997727 Z M 292.898864 529.997727 " transform="matrix(0.763889,0,0,0.763889,0,0)"/>
<path style="fill-rule:evenodd;fill:rgb(19.607843%,36.862745%,39.215686%);fill-opacity:1;stroke-width:0.6;stroke-linecap:butt;stroke-linejoin:miter;stroke:rgb(19.607843%,36.862745%,39.215686%);stroke-opacity:1;stroke-miterlimit:4;" d="M 576.9 193.397727 L 576.9 216.102273 L 571.397727 222.402273 C 569.53125 224.534659 567.664773 226.667045 565.798295 228.799432 L 565.798295 206.1 Z M 490.198295 284.599432 C 497.265341 278.064205 504.199432 271.431818 511.000568 264.702273 C 517.868182 257.967614 524.633523 251.135795 531.301705 244.201705 C 537.898295 237.267614 544.433523 230.200568 550.902273 223.000568 L 550.902273 245.198864 C 544.765909 251.734091 538.568182 258.197727 532.298864 264.6 C 525.968182 271.002273 519.565909 277.302273 513.102273 283.5 C 506.633523 289.697727 500.098295 295.834091 493.501705 301.898864 C 486.833523 307.902273 480.098864 313.834091 473.297727 319.699432 L 473.001136 320.001136 C 461.132386 330.13125 449.064205 339.934091 436.801705 349.399432 L 434.7 351.398864 C 435.497727 355.198295 435.799432 359.1 435.6 363.001705 C 435.497727 367.000568 434.802273 370.8 433.697727 374.599432 C 432.598295 378.301705 430.997727 381.998864 428.998295 385.302273 C 426.998864 388.697727 424.600568 391.801705 421.900568 394.598864 C 419.599432 397.099432 398.899432 418.397727 360.598295 418.397727 C 358.864773 418.397727 357.167045 418.367045 355.5 418.300568 C 353.832955 418.234091 352.165909 418.131818 350.498864 417.998864 C 348.831818 417.799432 347.164773 417.6 345.497727 417.400568 C 343.835795 417.134659 342.16875 416.86875 340.501705 416.597727 C 324.398864 413.698295 312.499432 410.998295 305.401705 408.799432 C 300.702273 407.301136 293.599432 405 293.001136 398.597727 C 292.934659 397.667045 293.031818 396.767045 293.297727 395.897727 C 293.502273 395.033523 293.865341 394.2 294.402273 393.402273 C 294.867614 392.665909 295.465909 392.031818 296.202273 391.5 C 296.867045 390.901705 297.634091 390.467045 298.498295 390.201136 C 302.502273 388.8 306.598295 388.401136 310.602273 388.002273 C 311.134091 387.935795 311.701705 387.864205 312.3 387.797727 C 312.831818 387.73125 313.36875 387.664773 313.900568 387.598295 C 314.432386 387.531818 315 387.434659 315.598295 387.301705 C 316.135227 387.235227 316.667045 387.132955 317.198864 387 C 324.199432 385.399432 335.899432 382.699432 339.601705 376.701136 C 341.299432 374.001136 341.202273 370.600568 340.798295 365.4 C 340.665341 364.464205 340.568182 363.533523 340.501705 362.597727 C 340.501705 361.667045 340.501705 360.73125 340.501705 359.800568 C 340.501705 358.864773 340.501705 357.934091 340.501705 356.998295 C 340.568182 356.067614 340.665341 355.131818 340.798295 354.201136 C 341.698295 347.798864 343.902273 341.601136 347.297727 336.098864 C 350.698295 330.499432 355.198295 325.697727 360.598295 322.000568 C 365.901136 318.201136 371.899432 315.598295 378.301705 314.299432 C 384.698864 312.898295 391.300568 312.898295 397.600568 314.299432 L 399.6 312.197727 C 409.131818 299.86875 418.934659 287.800568 428.998295 275.998295 C 429.13125 275.865341 429.264205 275.732386 429.402273 275.599432 C 446.267045 255.932386 463.898864 237.001705 482.297727 218.802273 L 503.698295 218.802273 C 483.233523 238.397727 463.699432 258.898295 445.101136 280.298864 L 468.700568 303.898295 C 475.967045 297.567614 483.13125 291.134659 490.198295 284.599432 Z M 457.302273 313.701136 L 435.400568 291.702273 C 427.535795 300.968182 419.865341 310.397727 412.399432 320.001136 C 414.132955 320.998295 415.764205 322.097727 417.298295 323.299432 C 418.898864 324.567614 420.402273 325.902273 421.798295 327.298295 C 423.199432 328.699432 424.498295 330.167045 425.7 331.701136 C 426.901705 333.301705 428.001136 334.932955 428.998295 336.6 C 438.601705 329.134091 448.03125 321.499432 457.302273 313.701136 Z M 457.302273 313.701136 " transform="matrix(0.763889,0,0,0.763889,0,0)"/>
<path style="fill-rule:nonzero;fill:rgb(19.607843%,36.862745%,39.215686%);fill-opacity:1;stroke-width:0.6;stroke-linecap:butt;stroke-linejoin:miter;stroke:rgb(19.607843%,36.862745%,39.215686%);stroke-opacity:1;stroke-miterlimit:4;" d="M 565.399432 163.600568 L 548.202273 178.501705 L 525.497727 178.501705 L 526.602273 177.601705 L 542.7 163.600568 Z M 565.399432 163.600568 " transform="matrix(0.763889,0,0,0.763889,0,0)"/>
<path style="fill-rule:nonzero;fill:rgb(19.607843%,36.862745%,39.215686%);fill-opacity:1;stroke-width:0.6;stroke-linecap:butt;stroke-linejoin:miter;stroke:rgb(19.607843%,36.862745%,39.215686%);stroke-opacity:1;stroke-miterlimit:4;" d="M 591.801136 189.301705 L 591.801136 199.002273 L 576.9 216.199432 L 576.9 193.397727 L 589.602273 178.798295 C 589.934659 179.601136 590.267045 180.434659 590.599432 181.298864 C 590.865341 182.168182 591.100568 183.032386 591.3 183.901705 C 591.432955 184.765909 591.565909 185.665909 591.698864 186.601705 C 591.765341 187.465909 591.801136 188.365909 591.801136 189.301705 Z M 591.801136 189.301705 " transform="matrix(0.763889,0,0,0.763889,0,0)"/>
<path style="fill-rule:nonzero;fill:rgb(19.607843%,36.862745%,39.215686%);fill-opacity:1;stroke-width:0.6;stroke-linecap:butt;stroke-linejoin:miter;stroke:rgb(19.607843%,36.862745%,39.215686%);stroke-opacity:1;stroke-miterlimit:4;" d="M 565.798295 206.1 L 565.798295 228.799432 C 560.86875 234.332386 555.898295 239.798864 550.902273 245.198864 L 550.902273 223.000568 C 553.965341 219.6 557.033523 216.132955 560.101705 212.599432 Z M 565.798295 206.1 " transform="matrix(0.763889,0,0,0.763889,0,0)"/>
<path style="fill-rule:nonzero;fill:rgb(19.607843%,36.862745%,39.215686%);fill-opacity:1;stroke-width:0.6;stroke-linecap:butt;stroke-linejoin:miter;stroke:rgb(19.607843%,36.862745%,39.215686%);stroke-opacity:1;stroke-miterlimit:4;" d="M 519.601705 203.798864 C 514.268182 208.733523 508.965341 213.734659 503.698295 218.802273 L 482.200568 218.802273 C 487.334659 213.734659 492.499432 208.733523 497.7 203.798864 Z M 519.601705 203.798864 " transform="matrix(0.763889,0,0,0.763889,0,0)"/>
<path style="fill-rule:nonzero;fill:rgb(19.607843%,36.862745%,39.215686%);fill-opacity:1;stroke-width:0.6;stroke-linecap:butt;stroke-linejoin:miter;stroke:rgb(19.607843%,36.862745%,39.215686%);stroke-opacity:1;stroke-miterlimit:4;" d="M 624.497727 161.498864 L 591.801136 199.002273 L 591.801136 189.301705 C 591.801136 188.365909 591.765341 187.465909 591.698864 186.601705 C 591.565909 185.665909 591.432955 184.765909 591.3 183.901705 C 591.100568 183.032386 590.865341 182.168182 590.599432 181.298864 C 590.267045 180.434659 589.934659 179.601136 589.602273 178.798295 L 608.701705 156.901705 L 592.097727 140.297727 L 565.399432 163.600568 L 542.597727 163.600568 L 587.500568 124.501705 C 588.231818 123.831818 589.034659 123.366477 589.898864 123.100568 C 590.834659 122.768182 591.765341 122.599432 592.701136 122.599432 C 593.631818 122.665909 594.531818 122.901136 595.401136 123.3 C 596.265341 123.632386 597.032386 124.133523 597.702273 124.798295 L 624.201136 151.2 C 624.865909 151.93125 625.397727 152.734091 625.801705 153.598295 C 626.134091 154.467614 626.333523 155.367614 626.4 156.298295 C 626.4 157.234091 626.23125 158.134091 625.898864 158.998295 C 625.632955 159.934091 625.167614 160.767614 624.497727 161.498864 Z M 624.497727 161.498864 " transform="matrix(0.763889,0,0,0.763889,0,0)"/>
<path style="fill-rule:nonzero;fill:rgb(19.607843%,36.862745%,39.215686%);fill-opacity:1;stroke-width:0.6;stroke-linecap:butt;stroke-linejoin:miter;stroke:rgb(19.607843%,36.862745%,39.215686%);stroke-opacity:1;stroke-miterlimit:4;" d="M 548.202273 178.501705 L 536.4 188.897727 C 530.734091 193.765909 525.134659 198.73125 519.601705 203.798864 L 497.7 203.798864 C 506.832955 195.197727 516.098864 186.765341 525.497727 178.501705 Z M 548.202273 178.501705 " transform="matrix(0.763889,0,0,0.763889,0,0)"/>
<path style="fill:none;stroke-width:8.8;stroke-linecap:butt;stroke-linejoin:miter;stroke:rgb(19.607843%,36.862745%,39.215686%);stroke-opacity:1;stroke-miterlimit:4;" d="M 235.201705 318.901705 L 235.201705 297.398864 L 213.698864 297.398864 L 213.698864 275.798864 L 235.201705 275.798864 L 235.201705 254.301136 L 256.801705 254.301136 L 256.801705 275.798864 L 278.299432 275.798864 L 278.299432 297.398864 L 256.801705 297.398864 L 256.801705 318.901705 Z M 235.201705 318.901705 " transform="matrix(0.763889,0,0,0.763889,0,0)"/>
<path style="fill:none;stroke-width:8.8;stroke-linecap:butt;stroke-linejoin:miter;stroke:rgb(19.607843%,36.862745%,39.215686%);stroke-opacity:1;stroke-miterlimit:4;" d="M 451.697727 323.601136 L 450.398864 340.399432 L 471.901705 340.399432 L 471.901705 361.902273 L 493.399432 361.902273 L 493.399432 383.4 L 514.902273 383.4 L 514.902273 404.897727 L 536.4 404.897727 L 536.4 426.400568 L 557.897727 426.400568 L 557.897727 447.898295 L 127.697727 447.898295 L 127.697727 361.902273 L 149.200568 361.902273 L 149.200568 340.399432 L 170.698295 340.399432 L 170.698295 318.901705 L 192.201136 318.901705 L 192.201136 340.399432 L 213.698864 340.399432 L 213.698864 361.902273 L 235.201705 361.902273 L 235.201705 383.4 L 256.801705 383.4 L 256.801705 361.902273 L 278.299432 361.902273 L 278.299432 340.399432 L 299.802273 340.399432 L 299.802273 318.901705 L 321.3 318.901705 L 321.3 297.398864 L 342.797727 297.398864 L 342.797727 275.798864 L 364.300568 275.798864 L 364.300568 254.301136 L 385.798295 254.301136 L 385.798295 275.798864 L 407.301136 275.798864 L 407.301136 297.398864 L 424.002273 297.398864 " transform="matrix(0.763889,0,0,0.763889,0,0)"/>
<path style="fill-rule:nonzero;fill:rgb(19.607843%,36.862745%,39.215686%);fill-opacity:1;stroke-width:0.6;stroke-linecap:butt;stroke-linejoin:miter;stroke:rgb(19.607843%,36.862745%,39.215686%);stroke-opacity:1;stroke-miterlimit:4;" d="M 550.902273 438.898295 L 550.902273 245.198864 C 555.898295 239.798864 560.86875 234.332386 565.798295 228.799432 L 565.798295 453.799432 L 120.201136 453.799432 L 120.201136 203.798864 L 497.7 203.798864 C 492.499432 208.733523 487.334659 213.734659 482.200568 218.802273 L 135.199432 218.802273 L 135.199432 438.898295 " transform="matrix(0.763889,0,0,0.763889,0,0)"/>
<path style="fill-rule:evenodd;fill:rgb(19.607843%,36.862745%,39.215686%);fill-opacity:1;stroke-width:0.6;stroke-linecap:butt;stroke-linejoin:miter;stroke:rgb(19.607843%,36.862745%,39.215686%);stroke-opacity:1;stroke-miterlimit:4;" d="M 591.801136 199.002273 L 591.801136 504.301705 C 591.801136 507.702273 591.197727 511.000568 589.898864 514.099432 C 588.6 517.198295 586.697727 520.000568 584.299432 522.398864 C 581.901136 524.802273 579.098864 526.699432 576 527.998295 C 572.901136 529.302273 569.500568 529.900568 566.202273 529.900568 L 408.001705 529.900568 C 407.500568 550.401136 413.897727 570.702273 426.901705 589.198295 L 427.300568 589.801705 L 442.8 589.801705 C 449.202273 589.801705 455.4 592.302273 460.002273 596.899432 C 464.502273 601.399432 467.1 607.602273 467.1 614.101705 C 467.1 620.498864 464.502273 626.701705 460.002273 631.201705 C 455.4 635.798864 449.202273 638.401705 442.8 638.401705 L 243.199432 638.401705 C 236.7 638.401705 230.599432 635.798864 226.002273 631.201705 C 221.4 626.701705 218.899432 620.498864 218.899432 614.101705 C 218.899432 607.602273 221.4 601.399432 226.002273 596.899432 C 230.599432 592.302273 236.7 589.801705 243.199432 589.801705 L 258.698864 589.801705 L 259.097727 589.198295 C 271.999432 570.702273 278.498864 550.401136 277.997727 529.900568 L 119.899432 529.900568 C 116.498864 529.900568 113.200568 529.302273 109.999432 527.998295 C 106.900568 526.699432 104.098295 524.802273 101.7 522.398864 C 99.301705 520.000568 97.399432 517.198295 96.197727 514.099432 C 94.898864 511.000568 94.198295 507.702273 94.198295 504.301705 L 94.198295 189.301705 C 94.198295 185.901136 94.898864 182.500568 96.197727 179.401705 C 97.399432 176.297727 99.301705 173.500568 101.7 171.102273 C 104.098295 168.698864 106.900568 166.801705 109.999432 165.497727 C 113.200568 164.301136 116.498864 163.600568 119.899432 163.600568 L 542.7 163.600568 L 526.602273 177.601705 L 525.497727 178.501705 L 119.899432 178.501705 C 118.401136 178.501705 117.102273 178.798295 115.798295 179.401705 C 114.499432 179.897727 113.297727 180.700568 112.300568 181.697727 C 111.298295 182.7 110.500568 183.901705 109.999432 185.200568 C 109.401136 186.499432 109.099432 187.798295 109.099432 189.301705 L 109.099432 504.301705 C 109.099432 505.697727 109.401136 507.098864 109.999432 508.397727 C 110.500568 509.701705 111.298295 510.898295 112.300568 511.900568 C 113.297727 512.800568 114.499432 513.598295 115.798295 514.201705 C 117.102273 514.697727 118.401136 514.999432 119.899432 514.999432 L 566.202273 514.999432 C 567.598295 514.999432 568.999432 514.697727 570.298295 514.201705 C 571.602273 513.598295 572.701705 512.800568 573.698864 511.900568 C 574.701136 510.898295 575.498864 509.701705 576 508.397727 C 576.598295 507.098864 576.9 505.697727 576.9 504.301705 L 576.9 216.102273 Z M 243.102273 604.8 C 240.698864 604.8 238.300568 605.802273 236.500568 607.5 C 234.797727 609.3 233.800568 611.601136 233.800568 614.101705 C 233.800568 616.602273 234.797727 619.000568 236.500568 620.698295 C 238.300568 622.498295 240.698864 623.500568 243.102273 623.500568 L 442.8 623.500568 C 445.198295 623.500568 447.601705 622.498295 449.401705 620.698295 C 451.099432 619.000568 452.101705 616.602273 452.101705 614.101705 C 452.101705 611.601136 451.099432 609.3 449.401705 607.5 C 447.601705 605.802273 445.198295 604.8 442.8 604.8 Z M 292.898864 529.997727 C 293.297727 550.600568 287.698295 570.998864 276.402273 589.801705 L 409.300568 589.801705 C 398.101705 570.998864 392.502273 550.600568 392.901136 529.997727 Z M 292.898864 529.997727 " transform="matrix(0.763889,0,0,0.763889,0,0)"/>
<path style="fill-rule:evenodd;fill:rgb(19.607843%,36.862745%,39.215686%);fill-opacity:1;stroke-width:0.6;stroke-linecap:butt;stroke-linejoin:miter;stroke:rgb(19.607843%,36.862745%,39.215686%);stroke-opacity:1;stroke-miterlimit:4;" d="M 576.9 193.397727 L 576.9 216.102273 L 571.397727 222.402273 C 569.53125 224.534659 567.664773 226.667045 565.798295 228.799432 L 565.798295 206.1 Z M 490.198295 284.599432 C 497.265341 278.064205 504.199432 271.431818 511.000568 264.702273 C 517.868182 257.967614 524.633523 251.135795 531.301705 244.201705 C 537.898295 237.267614 544.433523 230.200568 550.902273 223.000568 L 550.902273 245.198864 C 544.765909 251.734091 538.568182 258.197727 532.298864 264.6 C 525.968182 271.002273 519.565909 277.302273 513.102273 283.5 C 506.633523 289.697727 500.098295 295.834091 493.501705 301.898864 C 486.833523 307.902273 480.098864 313.834091 473.297727 319.699432 L 473.001136 320.001136 C 461.132386 330.13125 449.064205 339.934091 436.801705 349.399432 L 434.7 351.398864 C 435.497727 355.198295 435.799432 359.1 435.6 363.001705 C 435.497727 367.000568 434.802273 370.8 433.697727 374.599432 C 432.598295 378.301705 430.997727 381.998864 428.998295 385.302273 C 426.998864 388.697727 424.600568 391.801705 421.900568 394.598864 C 419.599432 397.099432 398.899432 418.397727 360.598295 418.397727 C 358.864773 418.397727 357.167045 418.367045 355.5 418.300568 C 353.832955 418.234091 352.165909 418.131818 350.498864 417.998864 C 348.831818 417.799432 347.164773 417.6 345.497727 417.400568 C 343.835795 417.134659 342.16875 416.86875 340.501705 416.597727 C 324.398864 413.698295 312.499432 410.998295 305.401705 408.799432 C 300.702273 407.301136 293.599432 405 293.001136 398.597727 C 292.934659 397.667045 293.031818 396.767045 293.297727 395.897727 C 293.502273 395.033523 293.865341 394.2 294.402273 393.402273 C 294.867614 392.665909 295.465909 392.031818 296.202273 391.5 C 296.867045 390.901705 297.634091 390.467045 298.498295 390.201136 C 302.502273 388.8 306.598295 388.401136 310.602273 388.002273 C 311.134091 387.935795 311.701705 387.864205 312.3 387.797727 C 312.831818 387.73125 313.36875 387.664773 313.900568 387.598295 C 314.432386 387.531818 315 387.434659 315.598295 387.301705 C 316.135227 387.235227 316.667045 387.132955 317.198864 387 C 324.199432 385.399432 335.899432 382.699432 339.601705 376.701136 C 341.299432 374.001136 341.202273 370.600568 340.798295 365.4 C 340.665341 364.464205 340.568182 363.533523 340.501705 362.597727 C 340.501705 361.667045 340.501705 360.73125 340.501705 359.800568 C 340.501705 358.864773 340.501705 357.934091 340.501705 356.998295 C 340.568182 356.067614 340.665341 355.131818 340.798295 354.201136 C 341.698295 347.798864 343.902273 341.601136 347.297727 336.098864 C 350.698295 330.499432 355.198295 325.697727 360.598295 322.000568 C 365.901136 318.201136 371.899432 315.598295 378.301705 314.299432 C 384.698864 312.898295 391.300568 312.898295 397.600568 314.299432 L 399.6 312.197727 C 409.131818 299.86875 418.934659 287.800568 428.998295 275.998295 C 429.13125 275.865341 429.264205 275.732386 429.402273 275.599432 C 446.267045 255.932386 463.898864 237.001705 482.297727 218.802273 L 503.698295 218.802273 C 483.233523 238.397727 463.699432 258.898295 445.101136 280.298864 L 468.700568 303.898295 C 475.967045 297.567614 483.13125 291.134659 490.198295 284.599432 Z M 457.302273 313.701136 L 435.400568 291.702273 C 427.535795 300.968182 419.865341 310.397727 412.399432 320.001136 C 414.132955 320.998295 415.764205 322.097727 417.298295 323.299432 C 418.898864 324.567614 420.402273 325.902273 421.798295 327.298295 C 423.199432 328.699432 424.498295 330.167045 425.7 331.701136 C 426.901705 333.301705 428.001136 334.932955 428.998295 336.6 C 438.601705 329.134091 448.03125 321.499432 457.302273 313.701136 Z M 457.302273 313.701136 " transform="matrix(0.763889,0,0,0.763889,0,0)"/>
<path style="fill-rule:nonzero;fill:rgb(19.607843%,36.862745%,39.215686%);fill-opacity:1;stroke-width:0.6;stroke-linecap:butt;stroke-linejoin:miter;stroke:rgb(19.607843%,36.862745%,39.215686%);stroke-opacity:1;stroke-miterlimit:4;" d="M 565.399432 163.600568 L 548.202273 178.501705 L 525.497727 178.501705 L 526.602273 177.601705 L 542.7 163.600568 Z M 565.399432 163.600568 " transform="matrix(0.763889,0,0,0.763889,0,0)"/>
<path style="fill-rule:nonzero;fill:rgb(19.607843%,36.862745%,39.215686%);fill-opacity:1;stroke-width:0.6;stroke-linecap:butt;stroke-linejoin:miter;stroke:rgb(19.607843%,36.862745%,39.215686%);stroke-opacity:1;stroke-miterlimit:4;" d="M 591.801136 189.301705 L 591.801136 199.002273 L 576.9 216.199432 L 576.9 193.397727 L 589.602273 178.798295 C 589.934659 179.601136 590.267045 180.434659 590.599432 181.298864 C 590.865341 182.168182 591.100568 183.032386 591.3 183.901705 C 591.432955 184.765909 591.565909 185.665909 591.698864 186.601705 C 591.765341 187.465909 591.801136 188.365909 591.801136 189.301705 Z M 591.801136 189.301705 " transform="matrix(0.763889,0,0,0.763889,0,0)"/>
<path style="fill-rule:nonzero;fill:rgb(19.607843%,36.862745%,39.215686%);fill-opacity:1;stroke-width:0.6;stroke-linecap:butt;stroke-linejoin:miter;stroke:rgb(19.607843%,36.862745%,39.215686%);stroke-opacity:1;stroke-miterlimit:4;" d="M 565.798295 206.1 L 565.798295 228.799432 C 560.86875 234.332386 555.898295 239.798864 550.902273 245.198864 L 550.902273 223.000568 C 553.965341 219.6 557.033523 216.132955 560.101705 212.599432 Z M 565.798295 206.1 " transform="matrix(0.763889,0,0,0.763889,0,0)"/>
<path style="fill-rule:nonzero;fill:rgb(19.607843%,36.862745%,39.215686%);fill-opacity:1;stroke-width:0.6;stroke-linecap:butt;stroke-linejoin:miter;stroke:rgb(19.607843%,36.862745%,39.215686%);stroke-opacity:1;stroke-miterlimit:4;" d="M 519.601705 203.798864 C 514.268182 208.733523 508.965341 213.734659 503.698295 218.802273 L 482.200568 218.802273 C 487.334659 213.734659 492.499432 208.733523 497.7 203.798864 Z M 519.601705 203.798864 " transform="matrix(0.763889,0,0,0.763889,0,0)"/>
<path style="fill-rule:nonzero;fill:rgb(19.607843%,36.862745%,39.215686%);fill-opacity:1;stroke-width:0.6;stroke-linecap:butt;stroke-linejoin:miter;stroke:rgb(19.607843%,36.862745%,39.215686%);stroke-opacity:1;stroke-miterlimit:4;" d="M 624.497727 161.498864 L 591.801136 199.002273 L 591.801136 189.301705 C 591.801136 188.365909 591.765341 187.465909 591.698864 186.601705 C 591.565909 185.665909 591.432955 184.765909 591.3 183.901705 C 591.100568 183.032386 590.865341 182.168182 590.599432 181.298864 C 590.267045 180.434659 589.934659 179.601136 589.602273 178.798295 L 608.701705 156.901705 L 592.097727 140.297727 L 565.399432 163.600568 L 542.597727 163.600568 C 542.597727 163.600568 595.002273 122.001136 597.702273 124.798295 L 624.201136 151.2 C 624.865909 151.93125 625.397727 152.734091 625.801705 153.598295 C 626.134091 154.467614 626.333523 155.367614 626.4 156.298295 C 626.4 157.234091 626.23125 158.134091 625.898864 158.998295 C 625.632955 159.934091 625.167614 160.767614 624.497727 161.498864 Z M 624.497727 161.498864 " transform="matrix(0.763889,0,0,0.763889,0,0)"/>
<path style="fill-rule:nonzero;fill:rgb(19.607843%,36.862745%,39.215686%);fill-opacity:1;stroke-width:0.6;stroke-linecap:butt;stroke-linejoin:miter;stroke:rgb(19.607843%,36.862745%,39.215686%);stroke-opacity:1;stroke-miterlimit:4;" d="M 548.202273 178.501705 L 536.4 188.897727 C 530.734091 193.765909 525.134659 198.73125 519.601705 203.798864 L 497.7 203.798864 C 506.832955 195.197727 516.098864 186.765341 525.497727 178.501705 Z M 548.202273 178.501705 " transform="matrix(0.763889,0,0,0.763889,0,0)"/>
<path style="fill-rule:nonzero;fill:rgb(19.607843%,36.862745%,39.215686%);fill-opacity:1;stroke-width:0.6;stroke-linecap:butt;stroke-linejoin:miter;stroke:rgb(19.607843%,36.862745%,39.215686%);stroke-opacity:1;stroke-miterlimit:4;" d="M 597.702273 124.798295 L 624.201136 151.302273 C 629.498864 156.6 626.001136 158.901136 624.497727 161.498864 C 622.999432 164.101705 576.9 216.102273 550.902273 245.198864 C 524.802273 274.300568 473.297727 319.699432 473.297727 319.699432 L 468.700568 303.898295 C 514.002273 268.501705 608.701705 156.901705 608.701705 156.901705 L 592.097727 140.297727 L 503.698295 218.802273 C 497.899432 221.502273 412.399432 320.001136 412.399432 320.001136 L 399.497727 312.197727 C 412.302273 290.899432 482.200568 218.802273 482.200568 218.802273 C 482.998295 212.4 587.597727 124.501705 587.597727 124.501705 C 593.401705 119.500568 597.702273 124.798295 597.702273 124.798295 Z M 597.702273 124.798295 " transform="matrix(0.763889,0,0,0.763889,0,0)"/>
</g>
</svg>
