<?xml version="1.0" encoding="UTF-8"?>
<svg xmlns="http://www.w3.org/2000/svg" xmlns:xlink="http://www.w3.org/1999/xlink" width="550px" height="px" viewBox="0 0 550 550" version="1.1">
<g id="surface1">
<path style="fill-rule:nonzero;fill:rgb(19.607843%,36.862745%,39.215686%);fill-opacity:1;stroke-width:0.6;stroke-linecap:butt;stroke-linejoin:miter;stroke:rgb(19.607843%,36.862745%,39.215686%);stroke-opacity:1;stroke-miterlimit:4;" d="M 610.000568 186.898295 L 610.000568 503.498864 C 610.000568 506.899432 609.3 510.3 608.001136 513.398864 C 606.702273 516.497727 604.8 519.402273 602.401705 521.698295 C 599.998295 524.101705 597.201136 525.998864 594.102273 527.297727 C 590.901136 528.601705 587.597727 529.302273 584.202273 529.302273 L 135.700568 529.302273 C 132.3 529.302273 129.001705 528.601705 125.800568 527.297727 C 122.701705 525.998864 119.899432 524.101705 117.501136 521.800568 C 115.097727 519.402273 113.200568 516.497727 111.901705 513.398864 C 110.597727 510.3 109.902273 506.899432 109.902273 503.498864 L 109.902273 186.898295 C 109.902273 183.6 110.597727 180.199432 111.901705 177.100568 C 113.200568 173.899432 115.097727 171.102273 117.398864 168.698864 C 119.802273 166.300568 122.701705 164.398295 125.800568 163.099432 C 128.899432 161.800568 132.3 161.1 135.700568 161.1 L 175.5 161.1 L 175.5 176.200568 L 135.700568 176.200568 C 134.299432 176.200568 132.898295 176.502273 131.599432 176.998295 C 130.300568 177.499432 129.098864 178.302273 128.101705 179.299432 C 127.099432 180.301705 126.301705 181.498295 125.698295 182.802273 C 125.202273 184.101136 124.900568 185.502273 124.900568 186.898295 L 124.900568 503.498864 C 124.900568 504.9 125.202273 506.301136 125.698295 507.6 C 126.301705 508.898864 127.099432 510.100568 128.101705 511.097727 C 129.098864 512.1 130.300568 512.897727 131.599432 513.501136 C 132.898295 514.002273 134.299432 514.298864 135.700568 514.298864 L 584.202273 514.298864 C 585.598295 514.298864 586.999432 514.002273 588.298295 513.501136 C 589.602273 512.897727 590.798864 512.1 591.801136 511.097727 C 592.798295 510.100568 593.601136 508.898864 594.102273 507.6 C 594.700568 506.301136 595.002273 504.9 595.002273 503.498864 L 595.002273 186.898295 C 595.002273 185.502273 594.700568 184.101136 594.102273 182.802273 C 593.601136 181.498295 592.798295 180.301705 591.801136 179.299432 C 590.798864 178.302273 589.602273 177.499432 588.298295 176.998295 C 586.999432 176.502273 585.598295 176.200568 584.202273 176.200568 L 532.002273 176.200568 L 532.002273 161.1 L 584.202273 161.1 C 587.597727 161.1 590.901136 161.800568 594 163.099432 C 597.201136 164.398295 599.998295 166.300568 602.401705 168.698864 C 604.8 171.102273 606.702273 173.899432 608.001136 177.100568 C 609.3 180.199432 610.000568 183.497727 610.000568 186.898295 Z M 610.000568 186.898295 " transform="matrix(0.763889,0,0,0.763889,0,0)"/>
<path style="fill-rule:nonzero;fill:rgb(19.607843%,36.862745%,39.215686%);fill-opacity:1;stroke-width:0.6;stroke-linecap:butt;stroke-linejoin:miter;stroke:rgb(19.607843%,36.862745%,39.215686%);stroke-opacity:1;stroke-miterlimit:4;" d="M 583.900568 201.6 L 583.900568 452.802273 L 136.002273 452.802273 L 136.002273 201.6 L 172.298864 201.799432 L 172.298864 216.797727 L 151.097727 216.598295 L 151.097727 437.798864 L 187.798295 437.798864 L 187.798295 440.800568 L 547.399432 440.800568 L 547.399432 437.798864 L 568.8 437.798864 L 568.8 216.598295 L 531.9 216.598295 L 531.9 201.6 Z M 583.900568 201.6 " transform="matrix(0.763889,0,0,0.763889,0,0)"/>
<path style="fill-rule:evenodd;fill:rgb(19.607843%,36.862745%,39.215686%);fill-opacity:1;stroke-width:0.6;stroke-linecap:butt;stroke-linejoin:miter;stroke:rgb(19.607843%,36.862745%,39.215686%);stroke-opacity:1;stroke-miterlimit:4;" d="M 279.199432 604.498295 C 277.798295 604.498295 276.499432 604.099432 275.297727 603.398864 C 274.101136 602.601136 273.201136 601.598864 272.500568 600.402273 C 271.902273 599.200568 271.600568 597.799432 271.697727 596.398295 C 271.8 595.099432 272.198864 593.800568 273.001705 592.598864 L 275.701705 588.901705 C 290.101705 568.298864 296.498864 545.297727 294.3 522.598295 C 294.100568 521.498864 294.3 520.501705 294.601705 519.499432 C 294.898295 518.502273 295.501705 517.5 296.202273 516.799432 C 296.897727 516.001705 297.700568 515.398295 298.697727 514.902273 C 299.7 514.498295 300.702273 514.298864 301.801705 514.298864 L 418.198295 514.298864 C 419.297727 514.298864 420.3 514.498295 421.302273 514.999432 C 422.202273 515.398295 423.102273 516.001705 423.797727 516.799432 C 424.498295 517.602273 424.999432 518.502273 425.398295 519.499432 C 425.7 520.501705 425.802273 521.498864 425.7 522.598295 C 423.398864 545.297727 429.801136 568.298864 444.298295 588.901705 L 446.901136 592.598864 C 447.698864 593.800568 448.2 595.099432 448.302273 596.398295 C 448.399432 597.799432 448.097727 599.200568 447.402273 600.402273 C 446.798864 601.598864 445.801705 602.601136 444.702273 603.398864 C 443.500568 604.099432 442.099432 604.498295 440.800568 604.498295 Z M 309.702273 529.302273 C 310.101136 550.002273 304.501705 570.497727 293.200568 589.397727 L 426.702273 589.397727 C 415.298864 570.497727 409.699432 550.002273 410.098295 529.302273 Z M 309.702273 529.302273 " transform="matrix(0.763889,0,0,0.763889,0,0)"/>
<path style="fill-rule:evenodd;fill:rgb(19.607843%,36.862745%,39.215686%);fill-opacity:1;stroke-width:0.6;stroke-linecap:butt;stroke-linejoin:miter;stroke:rgb(19.607843%,36.862745%,39.215686%);stroke-opacity:1;stroke-miterlimit:4;" d="M 460.298864 638.299432 L 259.701136 638.299432 C 253.201705 638.299432 246.998864 635.701705 242.401705 631.099432 C 237.799432 626.502273 235.201705 620.299432 235.201705 613.8 C 235.201705 607.397727 237.799432 601.2 242.401705 596.597727 C 246.998864 592.000568 253.201705 589.397727 259.701136 589.397727 L 460.298864 589.397727 C 466.701136 589.397727 473.001136 592.000568 477.501136 596.597727 C 482.098295 601.2 484.701136 607.397727 484.701136 613.8 C 484.701136 620.299432 482.098295 626.502273 477.501136 631.099432 C 473.001136 635.701705 466.701136 638.299432 460.298864 638.299432 Z M 259.701136 604.498295 C 257.200568 604.498295 254.802273 605.398295 253.002273 607.198295 C 251.202273 608.998295 250.302273 611.401705 250.302273 613.8 C 250.302273 616.300568 251.202273 618.698864 253.002273 620.498864 C 254.802273 622.201705 257.200568 623.198864 259.701136 623.198864 L 460.298864 623.198864 C 462.799432 623.198864 465.100568 622.201705 466.900568 620.498864 C 468.700568 618.698864 469.697727 616.300568 469.697727 613.8 C 469.697727 611.401705 468.700568 608.998295 466.900568 607.198295 C 465.100568 605.398295 462.799432 604.498295 460.298864 604.498295 Z M 259.701136 604.498295 " transform="matrix(0.763889,0,0,0.763889,0,0)"/>
<path style="fill-rule:nonzero;fill:rgb(19.607843%,36.862745%,39.215686%);fill-opacity:1;stroke-width:0.6;stroke-linecap:butt;stroke-linejoin:miter;stroke:rgb(19.607843%,36.862745%,39.215686%);stroke-opacity:1;stroke-miterlimit:4;" d="M 172.298864 201.702273 L 531.9 201.702273 L 531.9 216.700568 L 172.298864 216.700568 Z M 172.298864 201.702273 " transform="matrix(0.763889,0,0,0.763889,0,0)"/>
<path style="fill-rule:nonzero;fill:rgb(19.607843%,36.862745%,39.215686%);fill-opacity:1;stroke-width:0.6;stroke-linecap:butt;stroke-linejoin:miter;stroke:rgb(19.607843%,36.862745%,39.215686%);stroke-opacity:1;stroke-miterlimit:4;" d="M 175.5 176.200568 L 175.5 161.1 L 532.002273 161.1 L 532.002273 176.200568 Z M 175.5 176.200568 " transform="matrix(0.763889,0,0,0.763889,0,0)"/>
<path style=" stroke:none;fill-rule:nonzero;fill:rgb(19.607843%,36.862745%,39.215686%);fill-opacity:1;" d="M 362.769531 256.285156 C 362.261719 256.488281 361.753906 256.667969 361.242188 256.820312 C 360.734375 256.972656 360.25 257.097656 359.792969 257.203125 C 359.28125 257.355469 358.746094 257.480469 358.1875 257.582031 C 357.679688 257.632812 357.167969 257.710938 356.660156 257.8125 C 356.609375 257.8125 356.558594 257.8125 356.507812 257.8125 C 356.457031 257.8125 356.429688 257.8125 356.429688 257.8125 C 356.378906 257.863281 356.328125 257.890625 356.277344 257.890625 C 356.226562 257.890625 356.175781 257.914062 356.125 257.964844 C 356.175781 257.914062 356.226562 257.863281 356.277344 257.8125 C 356.277344 257.761719 356.304688 257.710938 356.355469 257.660156 C 356.40625 257.609375 356.457031 257.558594 356.507812 257.507812 C 356.507812 257.457031 356.53125 257.40625 356.582031 257.355469 C 356.8125 257.046875 356.890625 256.742188 357.117188 256.359375 C 357.117188 256.308594 357.144531 256.257812 357.195312 256.207031 C 357.195312 256.15625 357.21875 256.105469 357.269531 256.054688 C 357.269531 256.003906 357.269531 255.929688 357.269531 255.828125 C 357.320312 255.777344 357.347656 255.722656 357.347656 255.671875 C 357.347656 255.621094 357.347656 255.570312 357.347656 255.519531 C 357.398438 255.46875 357.421875 255.417969 357.421875 255.367188 C 357.421875 255.316406 357.421875 255.265625 357.421875 255.214844 C 357.421875 255.164062 357.421875 255.089844 357.421875 254.984375 C 357.882812 254.933594 358.316406 254.859375 358.722656 254.757812 C 359.128906 254.65625 359.5625 254.554688 360.019531 254.453125 C 360.429688 254.347656 360.835938 254.222656 361.242188 254.070312 C 361.652344 253.917969 362.058594 253.765625 362.464844 253.609375 C 362.566406 254.527344 362.667969 255.417969 362.769531 256.285156 Z M 360.632812 238.410156 C 360.683594 238.867188 360.734375 239.300781 360.785156 239.707031 L 358.570312 239.707031 C 357.195312 239.707031 356.964844 239.480469 356.582031 238.179688 C 356.582031 238.078125 356.558594 237.976562 356.507812 237.875 C 356.507812 237.824219 356.507812 237.773438 356.507812 237.722656 C 356.507812 237.671875 356.507812 237.621094 356.507812 237.570312 C 356.507812 237.519531 356.507812 237.441406 356.507812 237.339844 C 356.507812 237.289062 356.480469 237.238281 356.429688 237.1875 C 356.378906 237.085938 356.355469 236.957031 356.355469 236.804688 C 356.304688 236.703125 356.277344 236.601562 356.277344 236.5 C 356.226562 236.347656 356.175781 236.21875 356.125 236.117188 C 356.125 236.015625 356.125 235.890625 356.125 235.734375 C 356.125 235.632812 356.125 235.53125 356.125 235.429688 C 356.125 235.277344 356.097656 235.152344 356.046875 235.046875 C 356.046875 234.945312 356.046875 234.820312 356.046875 234.667969 C 356.046875 234.566406 356.046875 234.464844 356.046875 234.359375 C 357.269531 234.667969 358.265625 235.558594 359.027344 237.035156 L 360.480469 237.035156 C 360.53125 237.492188 360.582031 237.953125 360.632812 238.410156 Z M 358.644531 220.457031 C 359.027344 222.980469 359.257812 225.5 359.5625 228.019531 C 359.410156 228.171875 359.230469 228.277344 359.027344 228.328125 C 358.824219 228.429688 358.621094 228.503906 358.417969 228.554688 C 358.214844 228.605469 358.007812 228.65625 357.804688 228.707031 C 357.601562 228.757812 357.371094 228.785156 357.117188 228.785156 C 357.117188 228.785156 357.09375 228.757812 357.042969 228.707031 C 356.992188 228.707031 356.941406 228.707031 356.890625 228.707031 C 356.839844 228.707031 356.8125 228.707031 356.8125 228.707031 C 356.761719 228.707031 356.710938 228.707031 356.660156 228.707031 C 356.660156 227.792969 356.632812 226.902344 356.582031 226.035156 C 356.632812 226.035156 356.683594 226.058594 356.734375 226.109375 C 356.785156 226.109375 356.839844 226.109375 356.890625 226.109375 C 356.941406 226.109375 356.992188 226.109375 357.042969 226.109375 C 357.09375 226.160156 357.144531 226.1875 357.195312 226.1875 C 357.398438 226.136719 357.601562 226.085938 357.804688 226.035156 C 358.007812 225.933594 358.1875 225.804688 358.339844 225.652344 C 358.492188 225.5 358.621094 225.320312 358.722656 225.117188 C 358.824219 224.964844 358.875 224.761719 358.875 224.507812 C 358.875 224.304688 358.847656 224.097656 358.796875 223.894531 C 358.695312 223.691406 358.570312 223.488281 358.417969 223.285156 C 358.265625 223.132812 358.085938 223.003906 357.882812 222.902344 C 357.679688 222.851562 357.472656 222.828125 357.269531 222.828125 C 357.167969 222.828125 357.066406 222.828125 356.964844 222.828125 C 356.914062 222.828125 356.839844 222.828125 356.734375 222.828125 C 356.683594 222.878906 356.609375 222.902344 356.507812 222.902344 C 356.457031 222.953125 356.40625 223.003906 356.355469 223.054688 C 356.304688 222.851562 356.277344 222.671875 356.277344 222.519531 C 356.226562 222.316406 356.175781 222.140625 356.125 221.984375 C 356.074219 221.78125 356.046875 221.605469 356.046875 221.453125 C 355.996094 221.246094 355.945312 221.070312 355.894531 220.917969 C 355.894531 220.867188 355.871094 220.816406 355.820312 220.765625 C 355.820312 220.765625 355.820312 220.738281 355.820312 220.6875 C 355.769531 220.636719 355.742188 220.585938 355.742188 220.535156 C 355.742188 220.484375 355.71875 220.457031 355.667969 220.457031 C 355.820312 220.40625 355.945312 220.355469 356.046875 220.304688 C 356.203125 220.253906 356.328125 220.230469 356.429688 220.230469 C 356.582031 220.179688 356.710938 220.152344 356.8125 220.152344 C 356.964844 220.152344 357.117188 220.152344 357.269531 220.152344 C 357.371094 220.152344 357.472656 220.152344 357.578125 220.152344 C 357.730469 220.152344 357.855469 220.179688 357.957031 220.230469 C 358.058594 220.230469 358.1875 220.253906 358.339844 220.304688 C 358.441406 220.355469 358.542969 220.382812 358.644531 220.382812 Z M 358.644531 220.457031 "/>
<path style=" stroke:none;fill-rule:evenodd;fill:rgb(19.607843%,36.862745%,39.215686%);fill-opacity:1;" d="M 363.078125 294.328125 C 355.820312 310.980469 333.515625 313.195312 322.667969 298.144531 C 320.605469 295.394531 319.230469 292.035156 318.007812 288.75 C 315.945312 283.480469 314.339844 277.980469 312.507812 272.632812 C 312.277344 271.945312 311.589844 271.484375 310.902344 270.644531 C 307.695312 278.667969 302.804688 282.410156 296.160156 282.332031 C 288.75 282.179688 284.015625 278.207031 281.492188 271.257812 L 258.957031 271.257812 C 256.285156 278.589844 251.242188 282.792969 243.296875 282.257812 C 236.421875 281.875 232.144531 277.828125 229.625 270.722656 C 228.859375 271.5625 228.097656 272.019531 227.867188 272.707031 C 225.730469 279.046875 223.820312 285.542969 221.375 291.804688 C 216.179688 305.707031 200.828125 312.125 188.144531 305.785156 C 180.582031 302.042969 176.839844 295.472656 175.3125 287.453125 C 175.3125 287.347656 175.285156 287.246094 175.234375 287.144531 C 175.234375 286.992188 175.210938 286.867188 175.160156 286.765625 C 175.109375 286.660156 175.082031 286.558594 175.082031 286.457031 C 175.03125 286.304688 174.980469 286.179688 174.929688 286.078125 L 174.929688 278.285156 C 175.464844 274.617188 176 270.953125 176.457031 267.285156 C 177.910156 254.910156 179.285156 242.535156 180.8125 230.160156 C 181.421875 224.507812 181.804688 218.777344 183.027344 213.277344 C 186.3125 199.296875 199.757812 188.832031 214.347656 188.832031 C 251.574219 188.730469 288.800781 188.730469 326.027344 188.832031 C 328.117188 188.832031 330.203125 189.035156 332.292969 189.445312 C 334.328125 189.902344 336.339844 190.515625 338.328125 191.277344 C 340.261719 192.09375 342.09375 193.085938 343.828125 194.257812 C 345.609375 195.429688 347.238281 196.753906 348.714844 198.230469 C 348.664062 198.28125 348.589844 198.304688 348.484375 198.304688 C 348.382812 198.355469 348.308594 198.40625 348.257812 198.457031 C 348.15625 198.507812 348.078125 198.558594 348.027344 198.609375 C 347.925781 198.660156 347.847656 198.738281 347.796875 198.839844 C 347.644531 198.992188 347.492188 199.144531 347.339844 199.296875 C 347.238281 199.503906 347.160156 199.679688 347.109375 199.832031 C 347.007812 200.035156 346.957031 200.242188 346.957031 200.445312 C 346.90625 200.699219 346.882812 200.929688 346.882812 201.132812 C 346.882812 203.472656 346.882812 205.84375 346.882812 208.234375 C 342.222656 201.207031 334.125 196.167969 325.570312 196.320312 C 317.167969 196.472656 308.839844 196.320312 300.4375 196.320312 L 298.296875 196.320312 C 298.296875 199.296875 298.296875 201.972656 298.296875 204.570312 C 298.296875 208.617188 298.453125 212.667969 298.070312 216.714844 C 297.6875 221.832031 292.875 226.035156 287.757812 226.1875 C 285.160156 226.265625 283.480469 224.890625 283.25 222.75 C 283.097656 220.609375 284.625 219.082031 287.144531 218.703125 C 289.054688 218.472656 290.582031 217.480469 290.660156 215.492188 C 290.8125 209.152344 290.734375 202.890625 290.734375 196.472656 L 249.945312 196.472656 C 249.867188 196.625 249.792969 196.777344 249.792969 196.855469 C 249.742188 202.457031 249.714844 208.03125 249.714844 213.582031 C 249.714844 217.328125 250.328125 218.089844 253.992188 218.777344 C 254.453125 218.828125 254.882812 218.980469 255.292969 219.234375 C 255.699219 219.492188 256.054688 219.796875 256.359375 220.152344 C 256.617188 220.558594 256.820312 220.96875 256.972656 221.375 C 257.125 221.832031 257.175781 222.292969 257.125 222.75 C 257.125 223.257812 257.023438 223.71875 256.820312 224.125 C 256.617188 224.53125 256.335938 224.890625 255.980469 225.195312 C 255.621094 225.550781 255.214844 225.804688 254.757812 225.957031 C 254.347656 226.109375 253.890625 226.1875 253.382812 226.1875 C 253.179688 226.1875 252.949219 226.1875 252.695312 226.1875 C 252.492188 226.1875 252.261719 226.160156 252.007812 226.109375 C 251.804688 226.109375 251.574219 226.085938 251.320312 226.035156 C 251.117188 225.984375 250.886719 225.933594 250.632812 225.882812 C 245.285156 224.507812 242.152344 220.152344 242.152344 214.269531 C 242.078125 208.390625 242.152344 202.507812 242.152344 196.394531 L 240.394531 196.394531 C 231.609375 196.394531 222.828125 196.320312 213.964844 196.394531 C 203.652344 196.472656 192.957031 204.265625 190.667969 214.421875 C 188.984375 221.757812 188.527344 229.320312 187.609375 236.804688 C 186.160156 249.105469 184.707031 261.402344 183.332031 273.703125 C 182.796875 278.4375 182.035156 283.019531 183.105469 287.757812 C 185.320312 297 193.265625 302.347656 202.203125 300.207031 C 209 298.527344 212.972656 293.714844 215.109375 287.296875 C 217.328125 280.5 219.695312 273.777344 221.832031 266.980469 C 222.597656 264.535156 224.125 263.464844 226.570312 263.542969 C 227.714844 263.617188 228.785156 263.542969 229.777344 263.542969 C 232.222656 256.742188 236.804688 252.617188 243.910156 252.390625 C 251.546875 252.234375 256.4375 256.4375 259.035156 263.542969 L 281.492188 263.542969 C 283.9375 256.667969 288.597656 252.542969 295.855469 252.464844 C 303.339844 252.390625 308.152344 256.515625 310.671875 263.617188 L 313.117188 263.617188 C 317.015625 263.617188 317.703125 264.152344 318.921875 267.742188 C 321.292969 274.847656 323.507812 282.027344 326.027344 289.054688 C 329.390625 298.144531 338.785156 302.804688 347.265625 299.75 C 354.445312 297.304688 358.953125 289.132812 357.957031 280.421875 C 355.589844 259.875 352.839844 239.402344 350.855469 218.777344 C 350.804688 218.167969 350.703125 217.53125 350.546875 216.867188 C 350.445312 216.257812 350.320312 215.644531 350.167969 215.035156 C 349.964844 214.421875 349.757812 213.8125 349.554688 213.203125 C 349.300781 212.640625 349.046875 212.054688 348.792969 211.445312 C 348.894531 211.292969 348.996094 211.113281 349.097656 210.910156 C 349.148438 210.707031 349.199219 210.503906 349.25 210.296875 C 349.351562 210.144531 349.402344 209.96875 349.402344 209.765625 C 349.453125 209.507812 349.480469 209.28125 349.480469 209.078125 C 349.632812 206.707031 349.554688 204.339844 349.632812 201.894531 C 349.632812 201.539062 349.632812 201.15625 349.632812 200.75 L 351.160156 200.75 C 352.027344 201.820312 352.816406 202.914062 353.527344 204.035156 C 354.242188 205.15625 354.878906 206.328125 355.4375 207.546875 C 355.996094 208.769531 356.480469 210.019531 356.890625 211.292969 C 357.296875 212.566406 357.601562 213.863281 357.804688 215.1875 C 358.109375 216.917969 358.390625 218.675781 358.644531 220.457031 C 358.542969 220.40625 358.417969 220.355469 358.265625 220.304688 C 358.160156 220.304688 358.058594 220.28125 357.957031 220.230469 C 357.804688 220.230469 357.679688 220.230469 357.578125 220.230469 C 357.472656 220.179688 357.347656 220.152344 357.195312 220.152344 C 357.09375 220.152344 356.964844 220.152344 356.8125 220.152344 C 356.660156 220.203125 356.53125 220.230469 356.429688 220.230469 C 356.277344 220.28125 356.152344 220.304688 356.046875 220.304688 C 355.894531 220.355469 355.769531 220.40625 355.667969 220.457031 C 355.667969 220.507812 355.691406 220.558594 355.742188 220.609375 C 355.742188 220.609375 355.742188 220.636719 355.742188 220.6875 C 355.792969 220.738281 355.820312 220.789062 355.820312 220.839844 C 355.820312 220.890625 355.84375 220.941406 355.894531 220.992188 C 355.945312 221.144531 355.972656 221.296875 355.972656 221.453125 C 356.023438 221.65625 356.074219 221.832031 356.125 221.984375 C 356.175781 222.191406 356.203125 222.367188 356.203125 222.519531 C 356.253906 222.722656 356.277344 222.902344 356.277344 223.054688 C 356.378906 223.003906 356.457031 222.980469 356.507812 222.980469 C 356.609375 222.929688 356.683594 222.902344 356.734375 222.902344 C 356.839844 222.851562 356.914062 222.828125 356.964844 222.828125 C 357.066406 222.828125 357.144531 222.828125 357.195312 222.828125 C 357.449219 222.828125 357.679688 222.878906 357.882812 222.980469 C 358.085938 223.082031 358.265625 223.207031 358.417969 223.359375 C 358.570312 223.515625 358.671875 223.691406 358.722656 223.894531 C 358.824219 224.097656 358.875 224.328125 358.875 224.582031 C 358.875 224.785156 358.824219 224.992188 358.722656 225.195312 C 358.621094 225.398438 358.492188 225.578125 358.339844 225.730469 C 358.1875 225.882812 358.007812 225.984375 357.804688 226.035156 C 357.601562 226.136719 357.398438 226.1875 357.195312 226.1875 C 357.144531 226.1875 357.09375 226.1875 357.042969 226.1875 C 356.992188 226.1875 356.941406 226.1875 356.890625 226.1875 C 356.839844 226.136719 356.785156 226.109375 356.734375 226.109375 C 356.683594 226.109375 356.632812 226.085938 356.582031 226.035156 C 356.632812 226.953125 356.660156 227.867188 356.660156 228.785156 C 356.660156 228.785156 356.683594 228.785156 356.734375 228.785156 C 356.785156 228.785156 356.839844 228.785156 356.890625 228.785156 C 356.941406 228.785156 356.964844 228.785156 356.964844 228.785156 C 357.015625 228.785156 357.066406 228.785156 357.117188 228.785156 C 357.320312 228.785156 357.527344 228.757812 357.730469 228.707031 C 357.984375 228.707031 358.214844 228.683594 358.417969 228.632812 C 358.621094 228.582031 358.824219 228.503906 359.027344 228.402344 C 359.179688 228.300781 359.359375 228.199219 359.5625 228.097656 C 359.867188 231.078125 360.171875 234.054688 360.480469 237.035156 L 359.027344 237.035156 C 358.265625 235.558594 357.269531 234.667969 356.046875 234.359375 C 356.046875 234.464844 356.046875 234.566406 356.046875 234.667969 C 356.046875 234.820312 356.046875 234.945312 356.046875 235.046875 C 356.097656 235.152344 356.125 235.277344 356.125 235.429688 C 356.125 235.53125 356.125 235.632812 356.125 235.734375 C 356.125 235.890625 356.125 236.015625 356.125 236.117188 C 356.175781 236.21875 356.226562 236.347656 356.277344 236.5 C 356.277344 236.601562 356.304688 236.703125 356.355469 236.804688 C 356.355469 236.957031 356.378906 237.085938 356.429688 237.1875 C 356.480469 237.238281 356.507812 237.289062 356.507812 237.339844 C 356.507812 237.441406 356.507812 237.519531 356.507812 237.570312 C 356.507812 237.621094 356.507812 237.671875 356.507812 237.722656 C 356.507812 237.773438 356.507812 237.824219 356.507812 237.875 C 356.582031 238.027344 356.582031 238.105469 356.582031 238.179688 C 356.964844 239.480469 357.195312 239.707031 358.570312 239.707031 L 360.785156 239.707031 C 361.34375 244.34375 361.90625 248.976562 362.464844 253.609375 C 362.058594 253.765625 361.652344 253.917969 361.242188 254.070312 C 360.835938 254.222656 360.429688 254.347656 360.019531 254.453125 C 359.5625 254.554688 359.128906 254.65625 358.722656 254.757812 C 358.316406 254.859375 357.882812 254.960938 357.421875 255.0625 C 357.421875 255.113281 357.421875 255.164062 357.421875 255.214844 C 357.421875 255.265625 357.421875 255.316406 357.421875 255.367188 C 357.421875 255.417969 357.398438 255.46875 357.347656 255.519531 C 357.347656 255.570312 357.347656 255.621094 357.347656 255.671875 C 357.347656 255.722656 357.320312 255.800781 357.269531 255.902344 C 357.269531 255.953125 357.269531 256.003906 357.269531 256.054688 C 357.21875 256.105469 357.195312 256.15625 357.195312 256.207031 C 357.144531 256.257812 357.117188 256.335938 357.117188 256.4375 C 356.890625 256.742188 356.8125 257.046875 356.582031 257.355469 C 356.53125 257.40625 356.507812 257.457031 356.507812 257.507812 C 356.457031 257.558594 356.40625 257.609375 356.355469 257.660156 C 356.304688 257.710938 356.277344 257.761719 356.277344 257.8125 C 356.226562 257.863281 356.175781 257.914062 356.125 257.964844 C 356.175781 257.914062 356.226562 257.890625 356.277344 257.890625 C 356.328125 257.890625 356.378906 257.863281 356.429688 257.8125 C 356.429688 257.8125 356.457031 257.8125 356.507812 257.8125 C 356.558594 257.8125 356.609375 257.8125 356.660156 257.8125 C 357.167969 257.710938 357.679688 257.632812 358.1875 257.582031 C 358.746094 257.480469 359.28125 257.355469 359.792969 257.203125 C 360.25 257.097656 360.734375 256.972656 361.242188 256.820312 C 361.753906 256.667969 362.261719 256.488281 362.769531 256.285156 C 363.484375 262.597656 364.222656 268.890625 364.984375 275.152344 C 365.828125 281.722656 365.828125 288.140625 363.078125 294.328125 Z M 247.269531 274.234375 C 248.109375 273.855469 248.953125 273.320312 249.640625 272.632812 C 250.328125 271.945312 250.859375 271.105469 251.242188 270.1875 C 251.625 269.347656 251.777344 268.355469 251.777344 267.359375 C 251.855469 265.375 251.089844 263.464844 249.714844 262.015625 C 248.339844 260.5625 246.429688 259.796875 244.445312 259.796875 C 242.382812 259.796875 240.472656 260.5625 239.097656 262.015625 C 237.722656 263.464844 236.957031 265.375 237.035156 267.359375 C 237.035156 268.355469 237.1875 269.347656 237.570312 270.1875 C 237.953125 271.105469 238.484375 271.945312 239.171875 272.632812 C 239.859375 273.320312 240.703125 273.855469 241.542969 274.234375 C 242.457031 274.617188 243.453125 274.847656 244.445312 274.847656 C 245.359375 274.847656 246.355469 274.617188 247.269531 274.234375 Z M 296.082031 274.847656 C 297.078125 274.847656 297.992188 274.617188 298.910156 274.3125 C 299.828125 273.929688 300.667969 273.394531 301.355469 272.707031 C 302.042969 271.945312 302.578125 271.179688 302.957031 270.265625 C 303.339844 269.347656 303.492188 268.429688 303.492188 267.4375 C 303.570312 265.453125 302.804688 263.464844 301.429688 262.015625 C 300.054688 260.640625 298.144531 259.796875 296.160156 259.796875 C 294.171875 259.796875 292.265625 260.5625 290.8125 262.015625 C 289.4375 263.390625 288.671875 265.375 288.671875 267.359375 C 288.671875 268.355469 288.902344 269.269531 289.285156 270.1875 C 289.589844 271.105469 290.203125 271.945312 290.8125 272.632812 C 291.5 273.320312 292.339844 273.855469 293.257812 274.234375 C 294.097656 274.617188 295.089844 274.847656 296.082031 274.847656 Z M 296.082031 274.847656 "/>
<path style=" stroke:none;fill-rule:evenodd;fill:rgb(19.607843%,36.862745%,39.215686%);fill-opacity:1;" d="M 227.945312 222.367188 C 234.4375 223.207031 238.714844 227.410156 238.945312 233.0625 C 239.25 239.328125 235.507812 243.453125 228.019531 245.054688 C 227.257812 252.007812 222.519531 256.207031 216.332031 256.207031 C 210.453125 256.207031 206.9375 252.542969 205.027344 245.132812 C 196.703125 244.140625 193.722656 237.796875 194.027344 232.984375 C 194.410156 227.257812 198.535156 223.285156 205.027344 222.367188 C 207.320312 214.195312 210.832031 210.984375 217.480469 211.292969 C 222.828125 211.519531 226.644531 215.570312 227.945312 222.367188 Z M 216.5625 248.570312 C 216.96875 248.570312 217.378906 248.492188 217.785156 248.339844 C 218.191406 248.1875 218.574219 247.984375 218.929688 247.730469 C 219.234375 247.421875 219.492188 247.066406 219.695312 246.660156 C 219.898438 246.304688 220.027344 245.894531 220.078125 245.4375 C 220.230469 244.140625 220.152344 242.765625 220.230469 241.390625 C 220.382812 238.792969 221.832031 237.492188 224.355469 237.339844 C 225.5 237.339844 226.722656 237.417969 227.945312 237.339844 C 230.007812 237.1875 231.230469 235.890625 231.382812 233.902344 C 231.457031 231.917969 230.464844 230.464844 228.480469 230.160156 C 228.171875 230.109375 227.84375 230.058594 227.484375 230.007812 C 227.128906 230.007812 226.796875 229.980469 226.492188 229.929688 C 226.136719 229.929688 225.78125 229.929688 225.421875 229.929688 C 225.117188 229.929688 224.785156 229.929688 224.429688 229.929688 C 221.679688 229.855469 220.382812 228.554688 220.230469 225.804688 C 220.152344 224.660156 220.230469 223.4375 220.152344 222.292969 C 220.152344 221.375 219.695312 220.382812 219.082031 219.769531 C 218.394531 219.082031 217.402344 218.703125 216.484375 218.703125 C 215.492188 218.703125 214.578125 219.082031 213.890625 219.769531 C 213.203125 220.457031 212.820312 221.375 212.894531 222.367188 C 212.820312 223.515625 212.894531 224.734375 212.820312 225.882812 C 212.667969 228.480469 211.292969 229.855469 208.695312 229.929688 C 208.390625 229.929688 208.058594 229.929688 207.703125 229.929688 C 207.34375 229.929688 206.988281 229.929688 206.632812 229.929688 C 206.328125 229.929688 205.996094 229.957031 205.640625 230.007812 C 205.28125 230.007812 204.953125 230.03125 204.644531 230.082031 C 202.582031 230.464844 201.515625 231.839844 201.667969 233.902344 C 201.820312 236.042969 203.042969 237.1875 205.179688 237.339844 C 206.25 237.417969 207.394531 237.339844 208.464844 237.339844 C 211.214844 237.339844 212.742188 238.792969 212.820312 241.542969 C 212.894531 242.765625 212.820312 243.910156 212.894531 245.054688 C 212.894531 245.566406 212.972656 246.023438 213.125 246.429688 C 213.328125 246.890625 213.609375 247.269531 213.964844 247.578125 C 214.320312 247.933594 214.703125 248.1875 215.109375 248.339844 C 215.570312 248.492188 216.054688 248.570312 216.5625 248.570312 Z M 216.5625 248.570312 "/>
<path style=" stroke:none;fill-rule:nonzero;fill:rgb(19.607843%,36.862745%,39.215686%);fill-opacity:1;" d="M 340.082031 237.109375 C 340.746094 237.058594 341.40625 237.058594 342.070312 237.109375 C 342.679688 237.160156 343.292969 237.265625 343.902344 237.417969 C 344.566406 237.519531 345.203125 237.671875 345.8125 237.875 C 345.558594 238.433594 345.277344 238.945312 344.972656 239.402344 C 344.667969 239.910156 344.308594 240.371094 343.902344 240.777344 C 343.546875 241.234375 343.140625 241.617188 342.679688 241.921875 C 342.222656 242.28125 341.738281 242.609375 341.230469 242.917969 C 340.769531 243.171875 340.3125 243.402344 339.855469 243.605469 C 339.394531 243.808594 338.910156 244.011719 338.402344 244.214844 C 337.945312 244.367188 337.484375 244.519531 337.027344 244.671875 C 336.519531 244.828125 336.007812 244.980469 335.5 245.132812 C 334.203125 250.019531 332.140625 253.230469 329.3125 254.910156 C 328.90625 255.164062 328.472656 255.367188 328.015625 255.519531 C 327.554688 255.722656 327.097656 255.878906 326.640625 255.980469 C 326.179688 256.082031 325.695312 256.15625 325.1875 256.207031 C 324.730469 256.257812 324.246094 256.257812 323.734375 256.207031 C 322.769531 256.207031 321.828125 256.054688 320.910156 255.75 C 319.992188 255.496094 319.128906 255.113281 318.3125 254.605469 C 317.496094 254.09375 316.757812 253.484375 316.097656 252.769531 C 315.433594 252.109375 314.902344 251.34375 314.492188 250.480469 L 324.195312 250.480469 C 324.347656 249.765625 324.550781 249.105469 324.804688 248.492188 C 326.410156 248.1875 327.554688 246.890625 327.632812 244.980469 C 327.734375 244.214844 327.785156 243.527344 327.785156 242.917969 C 330.230469 239.859375 333.667969 237.953125 338.171875 237.265625 C 338.835938 237.160156 339.472656 237.109375 340.082031 237.109375 Z M 317.855469 213.203125 C 318.160156 213.046875 318.441406 212.921875 318.695312 212.820312 C 319 212.667969 319.28125 212.539062 319.535156 212.4375 C 319.839844 212.335938 320.144531 212.234375 320.453125 212.132812 C 320.707031 212.03125 320.984375 211.953125 321.292969 211.902344 C 320.121094 213.226562 319 214.601562 317.929688 216.027344 C 316.910156 217.503906 315.96875 219.007812 315.105469 220.535156 C 314.238281 222.113281 313.472656 223.742188 312.8125 225.421875 C 312.097656 227.054688 311.515625 228.734375 311.054688 230.464844 C 309.757812 231 309.144531 232.222656 309.144531 233.828125 C 309.144531 234.03125 309.171875 234.234375 309.222656 234.4375 C 309.222656 234.589844 309.246094 234.769531 309.296875 234.972656 C 309.402344 235.125 309.476562 235.277344 309.527344 235.429688 C 309.628906 235.632812 309.730469 235.785156 309.832031 235.890625 C 309.78125 236.144531 309.757812 236.398438 309.757812 236.652344 C 309.65625 237.265625 309.578125 237.875 309.527344 238.484375 C 309.476562 239.097656 309.425781 239.707031 309.375 240.320312 C 309.324219 240.980469 309.296875 241.617188 309.296875 242.230469 C 309.246094 242.839844 309.246094 243.453125 309.296875 244.0625 C 308.738281 243.859375 308.179688 243.628906 307.617188 243.375 C 307.109375 243.121094 306.625 242.816406 306.167969 242.457031 C 305.65625 242.152344 305.199219 241.796875 304.792969 241.390625 C 304.332031 240.980469 303.925781 240.546875 303.570312 240.089844 C 303.621094 238.765625 303.746094 237.417969 303.953125 236.042969 C 304.105469 234.667969 304.332031 233.316406 304.640625 231.992188 C 304.894531 230.667969 305.222656 229.34375 305.632812 228.019531 C 306.039062 226.746094 306.496094 225.472656 307.007812 224.203125 C 307.414062 223.945312 307.847656 223.71875 308.304688 223.515625 C 308.765625 223.308594 309.246094 223.132812 309.757812 222.980469 C 310.214844 222.828125 310.699219 222.699219 311.207031 222.597656 C 311.667969 222.496094 312.152344 222.417969 312.660156 222.367188 C 313.042969 218.546875 314.339844 215.035156 317.855469 213.203125 Z M 317.855469 213.203125 "/>
<path style=" stroke:none;fill-rule:nonzero;fill:rgb(19.607843%,36.862745%,39.215686%);fill-opacity:1;" d="M 324.804688 248.492188 C 324.550781 249.105469 324.347656 249.765625 324.195312 250.480469 L 314.492188 250.480469 C 314.238281 250.070312 314.007812 249.640625 313.804688 249.179688 C 313.652344 248.722656 313.5 248.289062 313.347656 247.882812 C 313.195312 247.421875 313.042969 246.964844 312.890625 246.507812 C 312.785156 246.046875 312.683594 245.589844 312.582031 245.132812 C 312.328125 245.03125 312.046875 244.953125 311.742188 244.902344 C 311.488281 244.800781 311.207031 244.722656 310.902344 244.671875 C 310.648438 244.570312 310.367188 244.46875 310.0625 244.367188 C 309.808594 244.265625 309.554688 244.164062 309.296875 244.0625 C 309.296875 243.453125 309.296875 242.839844 309.296875 242.230469 C 309.296875 241.617188 309.324219 241.007812 309.375 240.394531 C 309.425781 239.734375 309.476562 239.097656 309.527344 238.484375 C 309.578125 237.875 309.65625 237.265625 309.757812 236.652344 C 309.757812 236.398438 309.78125 236.167969 309.832031 235.964844 C 310.035156 236.167969 310.242188 236.347656 310.445312 236.5 C 310.648438 236.703125 310.878906 236.855469 311.132812 236.957031 C 311.386719 237.109375 311.667969 237.214844 311.972656 237.265625 C 312.226562 237.316406 312.507812 237.339844 312.8125 237.339844 C 313.957031 237.417969 315.105469 237.339844 316.328125 237.339844 C 318.695312 237.417969 320.144531 238.792969 320.296875 241.160156 C 320.453125 242.457031 320.296875 243.757812 320.453125 245.054688 C 320.605469 247.269531 322.054688 248.570312 324.195312 248.492188 C 324.246094 248.492188 324.296875 248.492188 324.347656 248.492188 C 324.398438 248.492188 324.449219 248.492188 324.5 248.492188 C 324.550781 248.492188 324.601562 248.492188 324.652344 248.492188 C 324.703125 248.492188 324.753906 248.492188 324.804688 248.492188 Z M 324.804688 248.492188 "/>
<path style=" stroke:none;fill-rule:nonzero;fill:rgb(19.607843%,36.862745%,39.215686%);fill-opacity:1;" d="M 306.929688 224.203125 C 306.472656 225.472656 306.039062 226.746094 305.632812 228.019531 C 305.222656 229.34375 304.867188 230.667969 304.5625 231.992188 C 304.308594 233.367188 304.078125 234.71875 303.875 236.042969 C 303.722656 237.417969 303.621094 238.792969 303.570312 240.167969 C 302.042969 238.179688 301.378906 235.761719 301.582031 232.910156 C 301.632812 231.992188 301.785156 231.128906 302.042969 230.3125 C 302.296875 229.445312 302.652344 228.632812 303.109375 227.867188 C 303.621094 227.105469 304.179688 226.417969 304.792969 225.804688 C 305.453125 225.144531 306.167969 224.609375 306.929688 224.203125 Z M 306.929688 224.203125 "/>
<path style=" stroke:none;fill-rule:nonzero;fill:rgb(19.607843%,36.862745%,39.215686%);fill-opacity:1;" d="M 346.5 233.671875 C 346.5 234.03125 346.5 234.386719 346.5 234.742188 C 346.449219 235.097656 346.398438 235.457031 346.347656 235.8125 C 346.296875 236.167969 346.21875 236.527344 346.117188 236.882812 C 346.015625 237.238281 345.890625 237.570312 345.734375 237.875 C 345.125 237.671875 344.515625 237.519531 343.902344 237.417969 C 343.292969 237.265625 342.65625 237.160156 341.992188 237.109375 C 341.382812 237.058594 340.746094 237.058594 340.082031 237.109375 C 339.472656 237.109375 338.835938 237.160156 338.171875 237.265625 C 333.667969 237.953125 330.230469 239.859375 327.785156 242.917969 C 328.242188 237.875 328.929688 237.796875 335.347656 237.339844 C 335.855469 237.339844 336.339844 237.238281 336.796875 237.035156 C 337.257812 236.832031 337.640625 236.527344 337.945312 236.117188 C 338.300781 235.761719 338.554688 235.355469 338.707031 234.894531 C 338.859375 234.386719 338.910156 233.878906 338.859375 233.367188 C 338.859375 232.960938 338.785156 232.578125 338.632812 232.222656 C 338.53125 231.867188 338.328125 231.535156 338.019531 231.230469 C 337.765625 230.921875 337.460938 230.667969 337.105469 230.464844 C 336.746094 230.261719 336.367188 230.160156 335.957031 230.160156 C 335.601562 230.109375 335.246094 230.058594 334.890625 230.007812 C 334.582031 230.007812 334.253906 230.007812 333.894531 230.007812 C 333.539062 229.957031 333.207031 229.929688 332.902344 229.929688 C 332.546875 229.929688 332.191406 229.929688 331.832031 229.929688 C 329.234375 229.855469 327.859375 228.554688 327.707031 225.957031 C 327.632812 224.734375 327.707031 223.4375 327.632812 222.214844 C 327.632812 221.757812 327.53125 221.296875 327.328125 220.839844 C 327.121094 220.433594 326.867188 220.078125 326.5625 219.769531 C 326.207031 219.414062 325.796875 219.160156 325.339844 219.007812 C 324.933594 218.855469 324.472656 218.777344 323.964844 218.777344 C 321.980469 218.929688 320.605469 220 320.453125 222.140625 C 320.296875 223.4375 320.453125 224.8125 320.296875 226.1875 C 320.144531 228.632812 318.769531 229.855469 316.328125 229.929688 C 315.96875 229.929688 315.640625 229.929688 315.332031 229.929688 C 314.976562 229.929688 314.621094 229.957031 314.265625 230.007812 C 313.957031 230.007812 313.628906 230.007812 313.269531 230.007812 C 312.914062 230.058594 312.582031 230.082031 312.277344 230.082031 C 312.125 230.132812 311.996094 230.160156 311.894531 230.160156 C 311.792969 230.160156 311.71875 230.183594 311.667969 230.234375 C 311.566406 230.285156 311.464844 230.3125 311.359375 230.3125 C 311.257812 230.363281 311.15625 230.414062 311.054688 230.464844 C 311.515625 228.734375 312.097656 227.054688 312.8125 225.421875 C 313.472656 223.742188 314.238281 222.140625 315.105469 220.609375 C 315.96875 219.03125 316.910156 217.53125 317.929688 216.105469 C 319 214.628906 320.121094 213.226562 321.292969 211.902344 C 321.648438 211.800781 321.980469 211.722656 322.285156 211.671875 C 322.589844 211.621094 322.921875 211.570312 323.277344 211.519531 C 323.582031 211.46875 323.914062 211.445312 324.269531 211.445312 C 324.578125 211.394531 324.90625 211.367188 325.265625 211.367188 C 330.535156 211.445312 334.203125 215.644531 335.347656 222.214844 C 343.140625 224.429688 346.5 227.867188 346.5 233.671875 Z M 346.5 233.671875 "/>
<path style=" stroke:none;fill-rule:nonzero;fill:rgb(19.607843%,36.862745%,39.215686%);fill-opacity:1;" d="M 270.265625 233.671875 C 273.675781 233.671875 277.0625 233.671875 280.421875 233.671875 C 283.019531 233.671875 284.703125 235.125 284.777344 237.265625 C 284.855469 239.554688 283.25 241.160156 280.578125 241.234375 C 273.703125 241.285156 266.828125 241.285156 259.953125 241.234375 C 257.277344 241.234375 255.671875 239.632812 255.75 237.265625 C 255.828125 234.972656 257.507812 233.671875 260.179688 233.597656 C 263.542969 233.597656 266.902344 233.621094 270.265625 233.671875 Z M 270.265625 233.671875 "/>
<path style=" stroke:none;fill-rule:nonzero;fill:rgb(19.607843%,36.862745%,39.215686%);fill-opacity:1;" d="M 270.265625 248.570312 C 271.714844 248.570312 273.242188 248.492188 274.695312 248.570312 C 277.0625 248.722656 278.742188 250.328125 278.742188 252.390625 C 278.742188 254.453125 277.0625 256.132812 274.695312 256.207031 C 271.742188 256.257812 268.761719 256.257812 265.757812 256.207031 C 263.390625 256.132812 261.785156 254.453125 261.785156 252.390625 C 261.785156 250.328125 263.390625 248.722656 265.757812 248.570312 C 267.285156 248.492188 268.734375 248.570312 270.265625 248.570312 Z M 270.265625 248.570312 "/>
<path style=" stroke:none;fill-rule:nonzero;fill:rgb(19.607843%,36.862745%,39.215686%);fill-opacity:1;" d="M 274.007812 222.445312 C 274.007812 223.359375 273.625 224.355469 272.9375 225.042969 C 272.25 225.804688 271.332031 226.1875 270.339844 226.265625 C 269.421875 226.265625 268.429688 225.882812 267.742188 225.195312 C 266.980469 224.582031 266.597656 223.589844 266.519531 222.671875 C 266.519531 221.679688 266.902344 220.6875 267.515625 220 C 268.203125 219.234375 269.195312 218.855469 270.109375 218.777344 C 271.105469 218.777344 272.097656 219.160156 272.785156 219.847656 C 273.546875 220.457031 273.929688 221.453125 274.007812 222.445312 Z M 274.007812 222.445312 "/>
<path style="fill-rule:evenodd;fill:rgb(19.607843%,36.862745%,39.215686%);fill-opacity:1;stroke-width:0.6;stroke-linecap:butt;stroke-linejoin:miter;stroke:rgb(19.607843%,36.862745%,39.215686%);stroke-opacity:1;stroke-miterlimit:4;" d="M 532.600568 350.698295 C 532.135227 351.368182 531.598295 351.935795 531 352.401136 C 530.401705 352.932955 529.731818 353.367614 529.000568 353.7 C 528.264205 354.032386 527.502273 354.298295 526.699432 354.497727 C 525.968182 354.635795 525.201136 354.702273 524.398295 354.702273 C 517.699432 354.6 511.097727 354.702273 504.398864 354.6 C 504.066477 354.6 503.764773 354.635795 503.498864 354.702273 C 503.166477 354.76875 502.864773 354.865909 502.598864 354.998864 C 502.266477 355.131818 502.000568 355.300568 501.801136 355.5 C 501.535227 355.699432 501.3 355.934659 501.100568 356.200568 C 500.297727 357.264205 499.397727 358.302273 498.400568 359.299432 C 497.398295 360.235227 496.365341 361.099432 495.301705 361.902273 C 494.166477 362.7 493.000568 363.43125 491.798864 364.101136 C 490.602273 364.765909 489.364773 365.364205 488.101705 365.901136 C 487.96875 364.699432 487.835795 363.497727 487.697727 362.301136 C 488.567045 361.96875 489.43125 361.534091 490.300568 361.002273 C 491.164773 360.531818 491.998295 360.035795 492.801136 359.498864 C 493.598864 358.900568 494.365909 358.302273 495.102273 357.698864 C 495.833523 357.034091 496.498295 356.333523 497.101705 355.602273 C 497.899432 354.799432 498.635795 353.965909 499.300568 353.101705 C 499.965341 352.165909 500.56875 351.235227 501.100568 350.299432 C 501.632386 349.302273 502.133523 348.3 502.598864 347.297727 C 502.997727 346.300568 503.335227 345.231818 503.601136 344.101705 L 471.799432 343.600568 C 471.702273 343.002273 471.702273 342.501136 471.6 341.897727 C 471.533523 341.299432 471.467045 340.701136 471.400568 340.097727 L 504.301705 340.598864 C 504.434659 340.266477 504.531818 339.934091 504.598295 339.601705 C 504.598295 339.197727 504.634091 338.834659 504.700568 338.502273 C 504.700568 338.098295 504.700568 337.735227 504.700568 337.397727 C 504.700568 336.998864 504.700568 336.635795 504.700568 336.298295 C 504.301705 324.102273 498.497727 315.398864 487.298864 310.397727 C 483.898295 308.802273 482.098295 306.398864 482.098295 302.502273 C 482.098295 299.398295 482.098295 296.401705 482.098295 293.200568 L 472.898864 293.200568 C 472.699432 292.868182 472.464205 292.566477 472.198295 292.300568 C 471.932386 292.034659 471.666477 291.76875 471.400568 291.497727 C 471.134659 291.165341 470.899432 290.86875 470.7 290.597727 C 470.434091 290.331818 470.168182 290.065909 469.902273 289.8 C 469.96875 289.8 470.035227 289.8 470.101705 289.8 C 470.234659 289.733523 470.331818 289.697727 470.398295 289.697727 C 470.53125 289.697727 470.633523 289.697727 470.7 289.697727 C 470.832955 289.63125 470.935227 289.600568 471.001705 289.600568 C 474.698864 289.600568 478.298864 289.600568 481.898864 289.600568 C 482.435795 289.600568 482.931818 289.697727 483.402273 289.902273 C 483.801136 290.035227 484.2 290.301136 484.598864 290.7 C 484.93125 291.032386 485.166477 291.43125 485.299432 291.901705 C 485.498864 292.367045 485.565341 292.832386 485.498864 293.297727 C 485.498864 296.432386 485.498864 299.567045 485.498864 302.701705 C 485.498864 303.167045 485.565341 303.632386 485.698295 304.097727 C 485.764773 304.568182 485.933523 304.997727 486.199432 305.401705 C 486.465341 305.800568 486.797727 306.132955 487.201705 306.398864 C 487.534091 306.664773 487.932955 306.9 488.398295 307.099432 C 489.267614 307.431818 490.101136 307.8 490.898864 308.198864 C 491.768182 308.664205 492.601705 309.165341 493.399432 309.702273 C 494.202273 310.167614 494.964205 310.699432 495.700568 311.297727 C 496.498295 311.834659 497.234659 312.432955 497.899432 313.097727 C 497.965909 313.097727 498.001705 313.133523 498.001705 313.2 C 498.068182 313.2 498.098864 313.2 498.098864 313.2 C 498.165341 313.266477 498.201136 313.302273 498.201136 313.302273 C 498.267614 313.36875 498.298295 313.399432 498.298295 313.399432 C 499.101136 311.798864 499.801705 310.198295 500.599432 308.7 C 500.998295 307.96875 501.335795 307.232386 501.601705 306.501136 C 501.867614 305.764773 502.067045 305.033523 502.2 304.302273 C 502.399432 303.499432 502.532386 302.732386 502.598864 302.001136 C 502.665341 301.198295 502.665341 300.400568 502.598864 299.597727 C 502.501705 285.197727 502.598864 270.700568 502.598864 256.300568 C 502.598864 255.968182 502.598864 255.635795 502.598864 255.298295 C 502.598864 254.766477 502.665341 254.301136 502.798295 253.902273 C 502.997727 253.498295 503.26875 253.135227 503.601136 252.797727 C 503.933523 252.465341 504.332386 252.199432 504.797727 252 C 505.201705 251.800568 505.63125 251.698295 506.101705 251.698295 C 508.699432 251.698295 511.266477 251.698295 513.797727 251.698295 C 514.268182 251.698295 514.733523 251.800568 515.198864 252 C 515.597727 252.132955 515.965909 252.368182 516.298295 252.700568 C 516.635795 252.966477 516.901705 253.334659 517.101136 253.8 C 517.300568 254.198864 517.433523 254.633523 517.5 255.098864 C 517.5 255.497727 517.5 255.901705 517.5 256.300568 C 517.5 271.697727 517.5 287.1 517.5 302.502273 C 517.5 302.834659 517.5 303.13125 517.5 303.402273 C 517.566477 303.734659 517.602273 304.03125 517.602273 304.302273 C 517.66875 304.634659 517.765909 304.93125 517.898864 305.202273 C 517.965341 305.468182 518.067614 305.734091 518.200568 306 C 523.401136 317.065909 528.601705 328.131818 533.802273 339.197727 C 535.699432 343.298864 535.397727 347.200568 532.600568 350.698295 Z M 530.498864 347.901136 C 530.897727 347.164773 531.199432 346.397727 531.398864 345.6 C 531.598295 344.802273 531.634091 343.999432 531.501136 343.201705 C 531.368182 342.398864 531.132955 341.631818 530.800568 340.900568 C 528.13125 335.234659 525.497727 329.599432 522.9 324 C 522.767045 323.734091 522.634091 323.498864 522.501136 323.299432 L 512.1 323.299432 C 510.698864 323.299432 509.998295 322.701136 509.998295 321.601705 C 509.998295 320.502273 510.698864 319.898864 512.1 319.898864 L 520.900568 319.898864 C 520.701136 319.300568 520.598864 318.998864 520.399432 318.702273 C 518.701705 315 516.998864 311.297727 515.301136 307.697727 C 515.101705 307.298864 514.902273 306.864205 514.697727 306.398864 C 514.564773 305.933523 514.431818 305.468182 514.298864 304.997727 C 514.232386 304.532386 514.165909 304.067045 514.099432 303.601705 C 514.032955 303.13125 514.002273 302.665909 514.002273 302.200568 C 514.002273 286.997727 514.002273 270.398864 514.002273 255.201136 L 505.999432 255.201136 L 505.999432 256.602273 C 505.932955 271.932955 505.932955 287.26875 505.999432 302.599432 C 505.999432 302.998295 505.96875 303.402273 505.902273 303.801136 C 505.902273 304.2 505.835795 304.598864 505.697727 304.997727 C 505.63125 305.401705 505.534091 305.800568 505.401136 306.199432 C 505.268182 306.598295 505.099432 307.002273 504.9 307.401136 C 503.698295 309.901705 502.501705 312.601705 501.3 315.199432 C 501.100568 315.501136 500.998295 315.797727 500.901136 316.099432 C 509.200568 327.098864 510.3 338.701705 504.598295 351.102273 C 504.598295 351.102273 504.634091 351.102273 504.700568 351.102273 C 504.700568 351.16875 504.73125 351.199432 504.797727 351.199432 C 504.797727 351.199432 504.833523 351.199432 504.9 351.199432 C 504.9 351.199432 504.935795 351.199432 505.002273 351.199432 C 511.665341 351.199432 518.297727 351.199432 524.899432 351.199432 C 525.298295 351.199432 525.666477 351.16875 525.998864 351.102273 C 526.33125 351.035795 526.699432 350.933523 527.098295 350.800568 C 527.435795 350.667614 527.732386 350.498864 527.998295 350.299432 C 528.335795 350.1 528.632386 349.900568 528.898295 349.701136 C 529.568182 349.164205 530.1 348.565909 530.498864 347.901136 Z M 530.498864 347.901136 " transform="matrix(0.763889,0,0,0.763889,0,0)"/>
<path style="fill-rule:nonzero;fill:rgb(19.607843%,36.862745%,39.215686%);fill-opacity:1;stroke-width:0.6;stroke-linecap:butt;stroke-linejoin:miter;stroke:rgb(19.607843%,36.862745%,39.215686%);stroke-opacity:1;stroke-miterlimit:4;" d="M 470.899432 293.098295 C 470.899432 293.635227 470.899432 294.13125 470.899432 294.601705 C 470.802273 297.797727 470.899432 300.901705 470.7 304.000568 C 470.766477 304.266477 470.766477 304.501705 470.7 304.701136 C 470.7 304.967045 470.664205 305.232955 470.597727 305.498864 C 470.53125 305.698295 470.464773 305.897727 470.398295 306.102273 C 470.265341 306.368182 470.132386 306.598295 469.999432 306.797727 C 469.866477 306.398864 469.697727 306.035795 469.498295 305.698295 C 469.298864 305.365909 469.099432 304.997727 468.9 304.598864 C 468.700568 304.266477 468.501136 303.934091 468.301705 303.601705 C 468.102273 303.264205 467.867045 302.901136 467.601136 302.502273 C 467.601136 299.398295 467.401705 296.698295 467.401705 293.502273 C 467.401705 293.23125 467.401705 292.965341 467.401705 292.699432 C 467.468182 292.433523 467.534659 292.167614 467.601136 291.901705 C 467.734091 291.635795 467.867045 291.400568 468 291.201136 C 468.199432 290.935227 468.368182 290.7 468.501136 290.500568 C 468.634091 290.434091 468.73125 290.367614 468.797727 290.301136 C 468.935795 290.234659 469.032955 290.168182 469.099432 290.101705 C 469.232386 290.035227 469.365341 289.96875 469.498295 289.902273 C 469.564773 289.835795 469.667045 289.8 469.8 289.8 C 470.065909 290.065909 470.331818 290.331818 470.597727 290.597727 C 470.86875 290.86875 471.134659 291.134659 471.400568 291.400568 C 471.666477 291.666477 471.932386 291.932386 472.198295 292.198295 C 472.397727 292.535795 472.632955 292.832386 472.898864 293.098295 Z M 470.899432 293.098295 " transform="matrix(0.763889,0,0,0.763889,0,0)"/>
<path style="fill-rule:evenodd;fill:rgb(19.607843%,36.862745%,39.215686%);fill-opacity:1;stroke-width:0.6;stroke-linecap:butt;stroke-linejoin:miter;stroke:rgb(19.607843%,36.862745%,39.215686%);stroke-opacity:1;stroke-miterlimit:4;" d="M 493.2 279.797727 C 497.500568 280.099432 499.801705 282.298295 499.602273 285.801136 C 499.602273 286.532386 499.433523 287.232955 499.101136 287.897727 C 498.76875 288.567614 498.334091 289.135227 497.802273 289.600568 C 497.265341 290.132386 496.667045 290.53125 496.002273 290.802273 C 495.332386 291.068182 494.631818 291.165341 493.900568 291.098864 C 490.397727 291.098864 488.500568 288.598295 488.398295 283.898864 C 484.997727 285.100568 481.699432 284.798864 478.8 282.6 C 478.401136 282.267614 478.002273 281.935227 477.598295 281.597727 C 477.265909 281.198864 476.933523 280.8 476.601136 280.401136 C 476.335227 279.935795 476.1 279.465341 475.900568 279 C 475.634659 278.534659 475.435227 278.064205 475.302273 277.598864 C 474.698864 275.599432 474.801136 273.400568 475.501705 271.401136 C 476.202273 269.498864 477.501136 267.801136 479.301136 266.599432 C 480.998864 265.5 483.100568 264.901705 485.202273 264.998864 C 487.298864 265.101136 489.298295 265.898864 490.898864 267.197727 C 493.798295 269.601136 496.002273 274.198295 493.2 279.797727 Z M 491.001136 274.801705 C 491.001136 273.932386 490.868182 273.134659 490.602273 272.398295 C 490.264773 271.600568 489.799432 270.9 489.201136 270.301705 C 488.597727 269.698295 487.932955 269.232955 487.201705 268.900568 C 486.398864 268.568182 485.565341 268.399432 484.701136 268.399432 C 482.998295 268.399432 481.397727 269.1 480.201136 270.301705 C 479.101705 271.498295 478.401136 273.098864 478.401136 274.801705 C 478.401136 276.499432 479.101705 278.1 480.201136 279.301705 C 481.397727 280.498295 482.998295 281.101705 484.701136 281.101705 C 485.565341 281.101705 486.398864 280.96875 487.201705 280.697727 C 487.932955 280.365341 488.597727 279.9 489.201136 279.301705 C 489.799432 278.698295 490.264773 277.997727 490.602273 277.2 C 490.868182 276.46875 491.001136 275.665909 491.001136 274.801705 Z M 496.201705 285.499432 C 496.201705 284.901136 496.002273 284.297727 495.598295 283.898864 C 495.199432 283.5 494.601136 283.198295 493.997727 283.198295 C 493.399432 283.198295 492.801136 283.5 492.402273 283.898864 C 491.998295 284.297727 491.798864 284.901136 491.798864 285.499432 C 491.798864 285.831818 491.865341 286.133523 491.998295 286.399432 C 492.064773 286.598864 492.197727 286.834091 492.402273 287.1 C 492.601705 287.299432 492.831818 287.432386 493.097727 287.498864 C 493.36875 287.631818 493.634659 287.698295 493.900568 287.698295 C 494.232955 287.698295 494.534659 287.667614 494.800568 287.601136 C 495.066477 287.468182 495.332386 287.299432 495.598295 287.1 C 495.797727 286.900568 495.935795 286.665341 496.002273 286.399432 C 496.135227 286.133523 496.201705 285.831818 496.201705 285.499432 Z M 496.201705 285.499432 " transform="matrix(0.763889,0,0,0.763889,0,0)"/>
<path style="fill-rule:nonzero;fill:rgb(19.607843%,36.862745%,39.215686%);fill-opacity:1;stroke-width:0.6;stroke-linecap:butt;stroke-linejoin:miter;stroke:rgb(19.607843%,36.862745%,39.215686%);stroke-opacity:1;stroke-miterlimit:4;" d="M 479.198864 323.800568 C 479.198864 324.265909 479.132386 324.73125 478.999432 325.201705 C 478.932955 325.667045 478.764205 326.101705 478.498295 326.500568 C 478.298864 326.899432 478.032955 327.267614 477.700568 327.6 C 477.368182 327.932386 477.035795 328.234091 476.698295 328.5 C 476.432386 328.632955 476.166477 328.765909 475.900568 328.898864 C 475.634659 329.031818 475.36875 329.134091 475.097727 329.200568 C 474.831818 329.267045 474.565909 329.333523 474.3 329.4 C 474.034091 329.4 473.768182 329.4 473.502273 329.4 C 473.435795 329.4 473.364205 329.4 473.297727 329.4 C 473.23125 329.4 473.164773 329.4 473.098295 329.4 C 473.098295 329.4 473.067614 329.4 473.001136 329.4 C 472.934659 329.4 472.868182 329.4 472.801705 329.4 C 472.801705 328.198295 472.801705 327.032386 472.801705 325.902273 C 472.868182 325.902273 472.934659 325.902273 473.001136 325.902273 C 473.067614 325.96875 473.098295 325.999432 473.098295 325.999432 C 473.164773 325.999432 473.23125 325.999432 473.297727 325.999432 C 473.364205 325.999432 473.435795 325.999432 473.502273 325.999432 C 473.834659 325.999432 474.13125 325.96875 474.402273 325.902273 C 474.601705 325.764205 474.831818 325.600568 475.097727 325.401136 C 475.302273 325.201705 475.435227 324.966477 475.501705 324.700568 C 475.634659 324.434659 475.701136 324.16875 475.701136 323.897727 C 475.767614 323.631818 475.731818 323.335227 475.598864 322.997727 C 475.465909 322.731818 475.302273 322.501705 475.097727 322.302273 C 474.898295 322.097727 474.668182 321.934091 474.402273 321.801136 C 474.13125 321.734659 473.865341 321.668182 473.599432 321.601705 C 473.466477 321.601705 473.364205 321.632386 473.297727 321.698864 C 473.164773 321.698864 473.067614 321.698864 473.001136 321.698864 C 472.868182 321.765341 472.765909 321.801136 472.699432 321.801136 C 472.566477 321.867614 472.464205 321.934091 472.397727 322.000568 C 472.33125 321.734659 472.300568 321.499432 472.300568 321.3 C 472.234091 321.034091 472.167614 320.798864 472.101136 320.599432 C 472.101136 320.333523 472.065341 320.098295 471.998864 319.898864 C 471.932386 319.632955 471.865909 319.397727 471.799432 319.198295 C 471.799432 319.131818 471.799432 319.065341 471.799432 318.998864 C 471.732955 318.932386 471.702273 318.901705 471.702273 318.901705 C 471.702273 318.835227 471.666477 318.76875 471.6 318.702273 C 471.6 318.635795 471.564205 318.564205 471.497727 318.497727 C 471.702273 318.43125 471.865909 318.400568 471.998864 318.400568 C 472.198295 318.334091 472.367045 318.298295 472.5 318.298295 C 472.699432 318.231818 472.898864 318.201136 473.098295 318.201136 C 473.23125 318.201136 473.4 318.201136 473.599432 318.201136 C 473.732386 318.201136 473.901136 318.201136 474.100568 318.201136 C 474.233523 318.201136 474.366477 318.231818 474.499432 318.298295 C 474.698864 318.298295 474.867614 318.334091 475.000568 318.400568 C 475.133523 318.400568 475.266477 318.43125 475.399432 318.497727 C 475.997727 318.702273 476.534659 318.998864 477 319.397727 C 477.465341 319.735227 477.864205 320.134091 478.201705 320.599432 C 478.534091 321.064773 478.764205 321.565909 478.902273 322.097727 C 479.101705 322.701136 479.198864 323.26875 479.198864 323.800568 Z M 479.198864 323.800568 " transform="matrix(0.763889,0,0,0.763889,0,0)"/>
<path style="fill-rule:evenodd;fill:rgb(19.607843%,36.862745%,39.215686%);fill-opacity:1;stroke-width:0.6;stroke-linecap:butt;stroke-linejoin:miter;stroke:rgb(19.607843%,36.862745%,39.215686%);stroke-opacity:1;stroke-miterlimit:4;" d="M 480.998864 257.001136 C 480.998864 257.732386 480.865909 258.432955 480.6 259.097727 C 480.334091 259.834091 479.935227 260.468182 479.398295 261 C 478.866477 261.531818 478.268182 261.935795 477.598295 262.201705 C 476.867045 262.467614 476.135795 262.600568 475.399432 262.600568 C 473.098295 262.697727 471.001705 261.301705 470.101705 259.2 C 469.201705 257.098295 469.697727 254.7 471.298295 253.002273 C 472.898864 251.401705 475.399432 250.900568 477.501136 251.698295 C 479.597727 252.598295 480.998864 254.7 480.998864 257.001136 Z M 473.200568 257.001136 C 473.200568 257.267045 473.23125 257.532955 473.297727 257.798864 C 473.435795 258.064773 473.599432 258.335795 473.798864 258.601705 C 473.998295 258.801136 474.233523 258.934091 474.499432 259.000568 C 474.765341 259.133523 475.067045 259.2 475.399432 259.2 C 475.665341 259.2 475.93125 259.164205 476.202273 259.097727 C 476.468182 258.964773 476.734091 258.801136 477 258.601705 C 477.199432 258.335795 477.332386 258.064773 477.398864 257.798864 C 477.531818 257.532955 477.598295 257.267045 477.598295 257.001136 C 477.598295 256.66875 477.531818 256.397727 477.398864 256.198295 C 477.332386 255.932386 477.199432 255.702273 477 255.497727 C 476.800568 255.231818 476.565341 255.068182 476.299432 255.001705 C 476.033523 254.86875 475.767614 254.802273 475.501705 254.802273 C 475.164205 254.735795 474.867614 254.766477 474.601705 254.899432 C 474.335795 254.965909 474.100568 255.134659 473.901136 255.400568 C 473.635227 255.6 473.466477 255.835227 473.4 256.101136 C 473.267045 256.367045 473.200568 256.632955 473.200568 256.898864 Z M 473.200568 257.001136 " transform="matrix(0.763889,0,0,0.763889,0,0)"/>
<path style="fill-rule:evenodd;fill:rgb(19.607843%,36.862745%,39.215686%);fill-opacity:1;stroke-width:0.6;stroke-linecap:butt;stroke-linejoin:miter;stroke:rgb(19.607843%,36.862745%,39.215686%);stroke-opacity:1;stroke-miterlimit:4;" d="M 469.999432 271.298864 C 468.199432 271.298864 466.501705 270.199432 465.801136 268.399432 C 465.100568 266.701705 465.499432 264.702273 466.798295 263.398295 C 468.199432 262.099432 470.101705 261.700568 471.901705 262.498295 C 473.599432 263.198864 474.698864 264.901705 474.698864 266.701705 C 474.698864 267.366477 474.565909 267.964773 474.3 268.501705 C 474.034091 269.033523 473.701705 269.534659 473.297727 270 C 472.832386 270.398864 472.33125 270.73125 471.799432 271.002273 C 471.201136 271.201705 470.597727 271.298864 469.999432 271.298864 Z M 470.101705 265.5 C 469.96875 265.5 469.8 265.535795 469.600568 265.602273 C 469.467614 265.66875 469.365341 265.735227 469.298864 265.801705 C 469.165909 265.934659 469.06875 266.067614 469.002273 266.200568 C 468.935795 266.333523 468.9 266.466477 468.9 266.599432 C 468.9 266.798864 468.9 266.967614 468.9 267.100568 C 468.966477 267.233523 469.06875 267.366477 469.201705 267.499432 C 469.268182 267.632386 469.401136 267.734659 469.600568 267.801136 C 469.733523 267.867614 469.866477 267.898295 469.999432 267.898295 C 470.198864 267.898295 470.367614 267.867614 470.500568 267.801136 C 470.633523 267.734659 470.766477 267.668182 470.899432 267.601705 C 471.032386 267.46875 471.134659 267.335795 471.201136 267.197727 C 471.201136 266.998295 471.201136 266.834659 471.201136 266.701705 C 471.201136 266.56875 471.201136 266.4 471.201136 266.200568 C 471.134659 266.067614 471.032386 265.965341 470.899432 265.898864 C 470.832955 265.765909 470.7 265.66875 470.500568 265.602273 C 470.367614 265.535795 470.234659 265.5 470.101705 265.5 Z M 470.101705 265.5 " transform="matrix(0.763889,0,0,0.763889,0,0)"/>
<path style=" stroke:none;fill-rule:nonzero;fill:rgb(19.607843%,36.862745%,39.215686%);fill-opacity:1;" d="M 348.792969 198.230469 L 351.160156 200.75 L 350.015625 211.902344 L 348.792969 211.445312 C 348.691406 211.140625 348.5625 210.859375 348.410156 210.605469 C 348.257812 210.296875 348.105469 210.019531 347.953125 209.765625 C 347.796875 209.507812 347.644531 209.230469 347.492188 208.921875 C 347.339844 208.667969 347.160156 208.414062 346.957031 208.160156 C 345.734375 206.480469 345.734375 198.230469 345.734375 198.230469 Z M 348.792969 198.230469 "/>
<path style="fill-rule:nonzero;fill:rgb(19.607843%,36.862745%,39.215686%);fill-opacity:1;stroke-width:0.6;stroke-linecap:butt;stroke-linejoin:miter;stroke:rgb(19.607843%,36.862745%,39.215686%);stroke-opacity:1;stroke-miterlimit:4;" d="M 488.101705 365.798864 C 487.032955 366.264205 486 366.668182 484.997727 367.000568 C 483.934091 367.399432 482.865341 367.767614 481.801705 368.1 C 480.732955 368.432386 479.633523 368.734091 478.498295 369 C 477.434659 369.199432 476.365909 369.398864 475.302273 369.598295 L 475.900568 365.701705 C 479.301136 365.901136 487.697727 362.301136 487.697727 362.301136 Z M 488.101705 365.798864 " transform="matrix(0.763889,0,0,0.763889,0,0)"/>
</g>
</svg>
