<?xml version="1.0" encoding="UTF-8"?>
<svg xmlns="http://www.w3.org/2000/svg" xmlns:xlink="http://www.w3.org/1999/xlink" width="550px" height="px" viewBox="0 0 550 550" version="1.1">
<g id="surface1">
<path style="fill-rule:nonzero;fill:rgb(19.607843%,36.862745%,39.215686%);fill-opacity:1;stroke-width:0.6;stroke-linecap:butt;stroke-linejoin:miter;stroke:rgb(19.607843%,36.862745%,39.215686%);stroke-opacity:1;stroke-miterlimit:4;" d="M 608.4 188.601136 L 608.4 502.900568 C 608.4 506.198864 607.801705 509.599432 606.497727 512.698295 C 605.198864 515.802273 603.301705 518.599432 600.898295 520.997727 C 598.5 523.401136 595.697727 525.298295 592.598864 526.5 C 589.5 527.798864 586.201705 528.499432 582.801136 528.499432 L 137.597727 528.499432 C 134.202273 528.499432 130.898864 527.798864 127.8 526.5 C 124.701136 525.298295 121.898864 523.401136 119.500568 520.997727 C 117.102273 518.599432 115.2 515.802273 113.998295 512.698295 C 112.699432 509.599432 111.998864 506.301136 111.998864 502.900568 L 111.998864 188.601136 C 111.998864 185.200568 112.699432 181.902273 113.998295 178.798295 C 115.302273 175.699432 117.102273 172.902273 119.500568 170.498864 C 121.898864 168.197727 124.701136 166.300568 127.8 165.001705 C 130.898864 163.697727 134.202273 163.002273 137.597727 163.002273 L 177.100568 163.002273 L 177.100568 178.000568 L 137.597727 178.000568 C 136.201705 178.000568 134.800568 178.2 133.501705 178.798295 C 132.197727 179.299432 131.001136 180.102273 129.998864 181.099432 C 129.098864 182.101705 128.301136 183.298295 127.697727 184.602273 C 127.201705 185.901136 126.9 187.2 126.9 188.601136 L 126.9 502.900568 C 126.9 504.301705 127.201705 505.697727 127.697727 507.001705 C 128.301136 508.300568 129.001705 509.4 129.998864 510.402273 C 131.001136 511.399432 132.197727 512.202273 133.501705 512.800568 C 134.800568 513.301705 136.201705 513.598295 137.597727 513.598295 L 582.801136 513.598295 C 584.202273 513.598295 585.598295 513.301705 586.902273 512.800568 C 588.201136 512.202273 589.397727 511.399432 590.4 510.499432 C 591.402273 509.502273 592.097727 508.300568 592.701136 507.001705 C 593.202273 505.697727 593.498864 504.301705 593.498864 502.900568 L 593.498864 188.601136 C 593.498864 187.2 593.202273 185.798864 592.701136 184.5 C 592.097727 183.201136 591.3 182.101705 590.297727 181.099432 C 589.397727 180.102273 588.201136 179.299432 586.902273 178.798295 C 585.598295 178.2 584.202273 178.000568 582.801136 178.000568 L 530.897727 178.000568 L 530.897727 163.002273 L 582.801136 163.002273 C 586.099432 163.002273 589.5 163.697727 592.598864 165.001705 C 595.697727 166.300568 598.5 168.100568 600.898295 170.498864 C 603.301705 172.902273 605.101705 175.699432 606.400568 178.798295 C 607.699432 181.902273 608.4 185.200568 608.4 188.601136 Z M 608.4 188.601136 " transform="matrix(0.763889,0,0,0.763889,0,0)"/>
<path style="fill-rule:nonzero;fill:rgb(19.607843%,36.862745%,39.215686%);fill-opacity:1;stroke-width:0.6;stroke-linecap:butt;stroke-linejoin:miter;stroke:rgb(19.607843%,36.862745%,39.215686%);stroke-opacity:1;stroke-miterlimit:4;" d="M 582.499432 203.098295 L 582.499432 452.500568 L 137.899432 452.500568 L 137.899432 203.098295 L 174.001705 203.4 L 174.001705 218.301136 L 152.897727 218.101705 L 152.897727 437.599432 L 189.398864 437.599432 L 189.398864 440.601136 L 546.197727 440.601136 L 546.197727 437.599432 L 567.501136 437.599432 L 567.501136 218.101705 L 530.897727 218.101705 L 530.897727 203.098295 Z M 582.499432 203.098295 " transform="matrix(0.763889,0,0,0.763889,0,0)"/>
<path style="fill-rule:evenodd;fill:rgb(19.607843%,36.862745%,39.215686%);fill-opacity:1;stroke-width:0.6;stroke-linecap:butt;stroke-linejoin:miter;stroke:rgb(19.607843%,36.862745%,39.215686%);stroke-opacity:1;stroke-miterlimit:4;" d="M 440.401705 603.102273 L 280.002273 603.102273 C 278.698295 603.102273 277.302273 602.698295 276.197727 601.997727 C 275.001136 601.302273 273.998864 600.3 273.400568 599.098295 C 272.802273 597.901705 272.500568 596.500568 272.597727 595.099432 C 272.7 593.800568 273.098864 592.501705 273.901705 591.3 L 276.499432 587.597727 C 290.899432 567.199432 297.199432 544.397727 295.000568 521.800568 C 294.898295 520.798295 295.000568 519.698864 295.302273 518.701705 C 295.598864 517.699432 296.202273 516.799432 296.897727 516.098864 C 297.598295 515.301136 298.401136 514.697727 299.398295 514.201705 C 300.298295 513.797727 301.397727 513.598295 302.4 513.598295 L 417.998864 513.598295 C 419.098295 513.598295 420.100568 513.797727 421.097727 514.201705 C 421.997727 514.697727 422.897727 515.301136 423.598295 516.001705 C 424.298864 516.799432 424.8 517.699432 425.101705 518.701705 C 425.500568 519.698864 425.597727 520.798295 425.500568 521.800568 C 423.199432 544.397727 429.601705 567.199432 443.899432 587.597727 L 446.502273 591.3 C 447.3 592.501705 447.801136 593.800568 447.898295 595.099432 C 448.000568 596.500568 447.698864 597.901705 446.998295 599.098295 C 446.4 600.3 445.397727 601.302273 444.298295 601.997727 C 443.101705 602.698295 441.797727 603.102273 440.401705 603.102273 Z M 310.300568 528.499432 C 310.801705 549 305.202273 569.398295 293.901136 588.201136 L 426.400568 588.201136 C 415.201705 569.398295 409.602273 549 410.001136 528.499432 Z M 310.300568 528.499432 " transform="matrix(0.763889,0,0,0.763889,0,0)"/>
<path style="fill-rule:evenodd;fill:rgb(19.607843%,36.862745%,39.215686%);fill-opacity:1;stroke-width:0.6;stroke-linecap:butt;stroke-linejoin:miter;stroke:rgb(19.607843%,36.862745%,39.215686%);stroke-opacity:1;stroke-miterlimit:4;" d="M 459.797727 636.698864 L 260.601136 636.698864 C 254.198864 636.698864 248.001136 634.101136 243.501136 629.601136 C 239.001136 624.998864 236.398295 618.801136 236.398295 612.398864 C 236.398295 606.001705 239.001136 599.798864 243.501136 595.298864 C 248.001136 590.701705 254.198864 588.201136 260.601136 588.201136 L 459.797727 588.201136 C 466.2 588.201136 472.397727 590.701705 476.897727 595.298864 C 481.5 599.798864 484.000568 606.001705 484.000568 612.398864 C 484.000568 618.801136 481.5 624.998864 476.897727 629.601136 C 472.397727 634.101136 466.2 636.698864 459.797727 636.698864 Z M 260.601136 603.102273 C 258.197727 603.102273 255.799432 604.099432 253.999432 605.802273 C 252.301705 607.602273 251.299432 609.898295 251.299432 612.398864 C 251.299432 614.899432 252.301705 617.297727 253.999432 619.000568 C 255.799432 620.800568 258.197727 621.700568 260.601136 621.700568 L 459.797727 621.700568 C 462.298295 621.700568 464.599432 620.800568 466.399432 619.000568 C 468.102273 617.297727 469.099432 614.899432 469.099432 612.398864 C 469.099432 609.898295 468.102273 607.602273 466.399432 605.802273 C 464.599432 604.099432 462.298295 603.102273 459.797727 603.102273 Z M 260.601136 603.102273 " transform="matrix(0.763889,0,0,0.763889,0,0)"/>
<path style="fill-rule:nonzero;fill:rgb(19.607843%,36.862745%,39.215686%);fill-opacity:1;stroke-width:0.6;stroke-linecap:butt;stroke-linejoin:miter;stroke:rgb(19.607843%,36.862745%,39.215686%);stroke-opacity:1;stroke-miterlimit:4;" d="M 174.001705 203.200568 L 530.897727 203.200568 L 530.897727 218.198864 L 174.001705 218.198864 Z M 174.001705 203.200568 " transform="matrix(0.763889,0,0,0.763889,0,0)"/>
<path style="fill-rule:nonzero;fill:rgb(19.607843%,36.862745%,39.215686%);fill-opacity:1;stroke-width:0.6;stroke-linecap:butt;stroke-linejoin:miter;stroke:rgb(19.607843%,36.862745%,39.215686%);stroke-opacity:1;stroke-miterlimit:4;" d="M 177.100568 177.898295 L 177.100568 163.002273 L 531 163.002273 L 530.897727 177.898295 Z M 177.100568 177.898295 " transform="matrix(0.763889,0,0,0.763889,0,0)"/>
<path style=" stroke:none;fill-rule:evenodd;fill:rgb(19.607843%,36.862745%,39.215686%);fill-opacity:1;" d="M 165.992188 288.597656 C 166.605469 284.394531 167.214844 280.195312 167.75 275.992188 C 169.429688 261.785156 171.035156 247.652344 172.714844 233.445312 C 173.480469 227.027344 173.859375 220.382812 175.3125 214.117188 C 179.054688 198.078125 194.410156 186.160156 211.214844 186.082031 C 253.839844 185.980469 296.464844 185.980469 339.089844 186.082031 C 356.890625 186.160156 372.546875 199.070312 375.605469 216.332031 C 377.132812 225.117188 377.742188 234.054688 378.8125 242.917969 C 380.492188 256.972656 382.019531 271.027344 383.777344 285.007812 C 384.695312 292.492188 384.769531 299.902344 381.640625 306.929688 C 373.234375 326.027344 347.722656 328.546875 335.269531 311.359375 C 332.902344 308.152344 331.296875 304.332031 329.921875 300.589844 C 327.632812 294.480469 325.796875 288.214844 323.660156 282.105469 C 323.429688 281.339844 322.589844 280.804688 321.828125 279.890625 C 318.082031 288.980469 312.507812 293.332031 304.945312 293.257812 C 296.390625 293.105469 290.964844 288.519531 288.0625 280.578125 L 262.320312 280.578125 C 259.1875 288.902344 253.382812 293.714844 244.292969 293.179688 C 236.5 292.644531 231.457031 288.0625 228.632812 279.890625 C 227.792969 280.882812 226.953125 281.417969 226.722656 282.179688 C 224.125 289.515625 221.984375 296.921875 219.234375 304.105469 C 213.277344 319.992188 195.632812 327.328125 181.117188 320.144531 C 172.484375 315.792969 168.132812 308.382812 166.453125 299.140625 C 166.402344 298.984375 166.375 298.859375 166.375 298.757812 C 166.324219 298.605469 166.273438 298.476562 166.222656 298.375 C 166.222656 298.222656 166.195312 298.09375 166.144531 297.992188 C 166.09375 297.839844 166.042969 297.6875 165.992188 297.535156 Z M 242.992188 194.792969 L 241.007812 194.792969 C 230.921875 194.792969 220.839844 194.714844 210.757812 194.792969 C 198.839844 194.792969 186.617188 203.804688 184.019531 215.417969 C 182.109375 223.820312 181.578125 232.527344 180.507812 241.160156 C 178.828125 255.214844 177.144531 269.347656 175.542969 283.402344 C 174.929688 288.75 174.089844 294.097656 175.3125 299.519531 C 177.832031 310.0625 186.921875 316.171875 197.160156 313.730469 C 204.953125 311.820312 209.535156 306.394531 211.980469 298.984375 C 214.578125 291.269531 217.171875 283.554688 219.695312 275.765625 C 220.535156 272.9375 222.292969 271.714844 225.117188 271.792969 C 226.417969 271.867188 227.640625 271.792969 228.785156 271.792969 C 231.609375 263.921875 236.804688 259.265625 244.902344 259.035156 C 253.765625 258.804688 259.339844 263.617188 262.242188 271.714844 L 288.0625 271.714844 C 290.890625 263.847656 296.234375 259.1875 304.5625 259.035156 C 313.117188 258.882812 318.617188 263.695312 321.519531 271.792969 L 324.347656 271.792969 C 328.777344 271.792969 329.542969 272.402344 330.917969 276.527344 C 333.667969 284.703125 336.1875 292.875 339.167969 300.972656 C 342.984375 311.4375 353.679688 316.707031 363.457031 313.269531 C 371.632812 310.367188 376.828125 301.046875 375.605469 291.117188 C 372.929688 267.515625 369.796875 244.0625 367.507812 220.457031 C 366.207031 206.859375 352.839844 194.410156 338.554688 194.714844 C 329.007812 194.945312 319.382812 194.714844 309.757812 194.714844 L 307.390625 194.714844 C 307.390625 198.078125 307.390625 201.132812 307.390625 204.1875 C 307.3125 208.847656 307.464844 213.429688 307.082031 218.015625 C 306.625 223.894531 301.125 228.707031 295.320312 228.9375 C 292.265625 229.015625 290.355469 227.5625 290.125 225.042969 C 289.972656 222.519531 291.652344 220.765625 294.632812 220.382812 C 296.847656 220.078125 298.527344 218.929688 298.605469 216.640625 C 298.757812 209.457031 298.605469 202.203125 298.605469 194.867188 L 251.929688 194.867188 C 251.777344 195.097656 251.703125 195.171875 251.703125 195.328125 C 251.703125 201.742188 251.675781 208.132812 251.625 214.5 C 251.625 218.777344 252.3125 219.617188 256.589844 220.457031 C 257.097656 220.558594 257.582031 220.738281 258.042969 220.992188 C 258.5 221.246094 258.90625 221.605469 259.265625 222.0625 C 259.570312 222.46875 259.796875 222.929688 259.953125 223.4375 C 260.15625 223.945312 260.230469 224.480469 260.179688 225.042969 C 260.128906 225.550781 260.003906 226.058594 259.796875 226.570312 C 259.542969 227.027344 259.214844 227.433594 258.804688 227.792969 C 258.398438 228.199219 257.941406 228.480469 257.429688 228.632812 C 256.921875 228.835938 256.410156 228.9375 255.902344 228.9375 C 255.648438 228.9375 255.367188 228.9375 255.0625 228.9375 C 254.808594 228.886719 254.554688 228.859375 254.296875 228.859375 C 254.042969 228.808594 253.789062 228.757812 253.535156 228.707031 C 253.28125 228.65625 253.027344 228.605469 252.769531 228.554688 C 246.582031 227.027344 242.992188 222.140625 242.992188 215.265625 C 242.917969 208.464844 242.992188 201.820312 242.992188 194.792969 Z M 254.070312 276.144531 C 254.070312 273.929688 253.152344 271.714844 251.546875 270.1875 C 249.945312 268.582031 247.804688 267.667969 245.589844 267.667969 C 243.296875 267.667969 241.160156 268.582031 239.554688 270.1875 C 237.953125 271.714844 237.109375 273.929688 237.109375 276.144531 C 237.109375 278.359375 237.953125 280.578125 239.554688 282.105469 C 241.160156 283.707031 243.296875 284.625 245.589844 284.625 C 247.804688 284.625 249.945312 283.707031 251.546875 282.105469 C 253.152344 280.578125 254.070312 278.359375 254.070312 276.144531 Z M 304.867188 267.667969 C 303.722656 267.667969 302.652344 267.894531 301.582031 268.277344 C 300.515625 268.660156 299.597656 269.269531 298.757812 270.109375 C 297.992188 270.875 297.382812 271.792969 296.921875 272.859375 C 296.542969 273.855469 296.3125 275 296.3125 276.144531 C 296.3125 278.359375 297.152344 280.5 298.757812 282.105469 C 300.359375 283.707031 302.5 284.625 304.714844 284.625 C 307.007812 284.625 309.144531 283.785156 310.75 282.179688 C 312.355469 280.578125 313.269531 278.4375 313.269531 276.222656 C 313.269531 275.078125 313.117188 274.007812 312.660156 272.9375 C 312.277344 271.867188 311.667969 270.953125 310.828125 270.1875 C 310.0625 269.347656 309.144531 268.734375 308.078125 268.277344 C 307.082031 267.894531 305.9375 267.667969 304.867188 267.667969 Z M 304.867188 267.667969 "/>
<path style=" stroke:none;fill-rule:evenodd;fill:rgb(19.607843%,36.862745%,39.215686%);fill-opacity:1;" d="M 226.644531 224.507812 C 234.132812 225.421875 239.019531 230.234375 239.328125 236.730469 C 239.632812 243.984375 235.429688 248.644531 226.796875 250.554688 C 225.957031 258.5 220.457031 263.3125 213.355469 263.234375 C 206.632812 263.234375 202.582031 259.109375 200.445312 250.632812 C 190.894531 249.484375 187.535156 242.152344 187.839844 236.730469 C 188.222656 230.160156 192.957031 225.578125 200.367188 224.507812 C 202.964844 215.109375 207.089844 211.445312 214.652344 211.828125 C 220.839844 212.132812 225.195312 216.714844 226.644531 224.507812 Z M 213.582031 254.527344 C 214.09375 254.578125 214.601562 254.503906 215.109375 254.296875 C 215.570312 254.144531 215.976562 253.917969 216.332031 253.609375 C 216.742188 253.253906 217.046875 252.847656 217.25 252.390625 C 217.503906 251.980469 217.65625 251.523438 217.707031 251.015625 C 217.859375 249.410156 217.707031 247.882812 217.859375 246.277344 C 218.015625 243.375 219.695312 241.847656 222.597656 241.769531 C 223.972656 241.695312 225.347656 241.847656 226.644531 241.695312 C 229.089844 241.542969 230.464844 240.089844 230.617188 237.722656 C 230.769531 235.507812 229.625 233.902344 227.332031 233.445312 C 226.925781 233.394531 226.542969 233.367188 226.1875 233.367188 C 225.78125 233.316406 225.371094 233.292969 224.964844 233.292969 C 224.609375 233.242188 224.226562 233.214844 223.820312 233.214844 C 223.410156 233.214844 223.03125 233.214844 222.671875 233.214844 C 219.542969 233.140625 218.015625 231.6875 217.785156 228.554688 C 217.785156 227.179688 217.859375 225.804688 217.707031 224.507812 C 217.554688 222.0625 215.722656 220.304688 213.429688 220.382812 C 212.921875 220.433594 212.410156 220.558594 211.902344 220.765625 C 211.394531 221.019531 210.960938 221.324219 210.605469 221.679688 C 210.246094 222.089844 209.96875 222.519531 209.765625 222.980469 C 209.558594 223.488281 209.433594 224.023438 209.382812 224.582031 C 209.382812 225.882812 209.382812 227.257812 209.382812 228.632812 C 209.230469 231.609375 207.625 233.140625 204.644531 233.214844 C 204.238281 233.214844 203.855469 233.214844 203.5 233.214844 C 203.09375 233.214844 202.710938 233.242188 202.355469 233.292969 C 201.945312 233.292969 201.539062 233.316406 201.132812 233.367188 C 200.777344 233.367188 200.394531 233.394531 199.984375 233.445312 C 197.617188 233.828125 196.394531 235.429688 196.546875 237.796875 C 196.703125 240.242188 198.152344 241.542969 200.519531 241.695312 C 201.820312 241.769531 203.117188 241.695312 204.417969 241.769531 C 207.546875 241.847656 209.230469 243.453125 209.382812 246.582031 C 209.382812 247.957031 209.304688 249.332031 209.382812 250.632812 C 209.433594 251.191406 209.558594 251.726562 209.765625 252.234375 C 209.96875 252.695312 210.273438 253.101562 210.679688 253.457031 C 211.089844 253.867188 211.546875 254.144531 212.054688 254.296875 C 212.566406 254.503906 213.074219 254.578125 213.582031 254.527344 Z M 213.582031 254.527344 "/>
<path style=" stroke:none;fill-rule:evenodd;fill:rgb(19.607843%,36.862745%,39.215686%);fill-opacity:1;" d="M 323.660156 250.554688 C 314.796875 248.492188 310.671875 243.832031 311.054688 236.578125 C 311.4375 230.160156 316.402344 225.347656 323.734375 224.507812 C 324.195312 220.230469 325.722656 216.105469 329.769531 214.042969 C 330.382812 213.683594 331.042969 213.378906 331.757812 213.125 C 332.417969 212.871094 333.105469 212.667969 333.820312 212.515625 C 334.53125 212.308594 335.269531 212.183594 336.035156 212.132812 C 336.746094 212.03125 337.460938 211.980469 338.171875 211.980469 C 344.207031 211.980469 348.410156 216.792969 349.785156 224.355469 C 358.722656 226.875 362.542969 230.847656 362.542969 237.492188 C 362.542969 244.214844 358.644531 248.265625 349.9375 250.632812 C 347.492188 259.417969 343.140625 263.617188 336.417969 263.3125 C 329.695312 263.007812 325.1875 258.578125 323.660156 250.554688 Z M 353.832031 237.1875 C 353.832031 236.730469 353.730469 236.269531 353.527344 235.8125 C 353.375 235.355469 353.144531 234.972656 352.839844 234.667969 C 352.535156 234.308594 352.152344 234.03125 351.695312 233.828125 C 351.285156 233.621094 350.855469 233.496094 350.394531 233.445312 C 349.988281 233.394531 349.605469 233.34375 349.25 233.292969 C 348.84375 233.292969 348.433594 233.265625 348.027344 233.214844 C 347.671875 233.214844 347.289062 233.214844 346.882812 233.214844 C 346.527344 233.214844 346.144531 233.214844 345.734375 233.214844 C 342.757812 233.140625 341.152344 231.609375 341 228.632812 C 340.921875 227.179688 341 225.804688 340.921875 224.355469 C 340.769531 222.0625 338.9375 220.230469 336.722656 220.382812 C 334.429688 220.609375 332.828125 221.757812 332.671875 224.203125 C 332.519531 225.804688 332.671875 227.332031 332.519531 228.9375 C 332.292969 231.6875 330.765625 233.140625 327.9375 233.214844 C 327.53125 233.214844 327.148438 233.214844 326.792969 233.214844 C 326.382812 233.214844 325.976562 233.214844 325.570312 233.214844 C 325.214844 233.265625 324.832031 233.292969 324.421875 233.292969 C 324.066406 233.34375 323.683594 233.367188 323.277344 233.367188 C 320.910156 233.75 319.6875 235.355469 319.6875 237.722656 C 319.6875 239.9375 321.519531 241.617188 323.890625 241.695312 C 325.1875 241.769531 326.5625 241.695312 327.9375 241.769531 C 330.609375 241.847656 332.292969 243.375 332.445312 246.046875 C 332.597656 247.578125 332.445312 249.027344 332.597656 250.554688 C 332.75 253.078125 334.507812 254.605469 336.875 254.527344 C 339.167969 254.453125 340.769531 252.847656 340.921875 250.402344 C 341.457031 242.230469 341.457031 242.230469 349.707031 241.695312 C 352.230469 241.542969 353.832031 239.785156 353.832031 237.1875 Z M 353.832031 237.1875 "/>
<path style=" stroke:none;fill-rule:nonzero;fill:rgb(19.607843%,36.862745%,39.215686%);fill-opacity:1;" d="M 275.152344 237.417969 C 279.074219 237.417969 282.996094 237.417969 286.917969 237.417969 C 289.820312 237.492188 291.730469 239.097656 291.804688 241.617188 C 291.882812 244.292969 290.125 246.125 286.992188 246.125 C 279.152344 246.226562 271.28125 246.226562 263.390625 246.125 C 260.257812 246.125 258.5 244.292969 258.578125 241.617188 C 258.652344 239.019531 260.5625 237.492188 263.695312 237.417969 C 267.515625 237.417969 271.332031 237.417969 275.152344 237.417969 Z M 275.152344 237.417969 "/>
<path style=" stroke:none;fill-rule:nonzero;fill:rgb(19.607843%,36.862745%,39.215686%);fill-opacity:1;" d="M 275.152344 254.605469 C 276.832031 254.605469 278.589844 254.527344 280.269531 254.605469 C 283.019531 254.679688 284.929688 256.515625 284.929688 258.882812 C 284.929688 261.328125 283.019531 263.234375 280.347656 263.3125 C 276.910156 263.390625 273.546875 263.390625 270.109375 263.3125 C 267.4375 263.234375 265.527344 261.328125 265.527344 258.957031 C 265.527344 256.589844 267.359375 254.757812 270.109375 254.605469 C 271.792969 254.527344 273.472656 254.605469 275.152344 254.605469 Z M 275.152344 254.605469 "/>
<path style=" stroke:none;fill-rule:nonzero;fill:rgb(19.607843%,36.862745%,39.215686%);fill-opacity:1;" d="M 279.429688 224.582031 C 279.507812 225.730469 279.046875 226.796875 278.285156 227.640625 C 277.519531 228.402344 276.453125 228.9375 275.304688 228.9375 C 274.160156 229.015625 273.089844 228.554688 272.25 227.792969 C 271.410156 227.027344 270.953125 225.957031 270.953125 224.8125 C 270.875 223.667969 271.257812 222.519531 272.019531 221.679688 C 272.785156 220.839844 273.855469 220.304688 275.078125 220.230469 C 276.222656 220.230469 277.292969 220.6875 278.132812 221.453125 C 278.972656 222.292969 279.429688 223.4375 279.429688 224.582031 Z M 279.429688 224.582031 "/>
</g>
</svg>
