<?xml version="1.0" encoding="UTF-8"?>
<svg xmlns="http://www.w3.org/2000/svg" xmlns:xlink="http://www.w3.org/1999/xlink" width="550px" height="px" viewBox="0 0 550 550" version="1.1">
<g id="surface1">
<path style=" stroke:none;fill-rule:evenodd;fill:rgb(19.607843%,36.862745%,39.215686%);fill-opacity:1;" d="M 102.589844 226.417969 L 447.410156 226.417969 L 447.410156 385.535156 L 102.589844 385.535156 Z M 115.195312 372.929688 L 434.804688 372.929688 L 434.804688 239.019531 L 115.195312 239.019531 Z M 115.195312 372.929688 "/>
<path style=" stroke:none;fill-rule:evenodd;fill:rgb(19.607843%,36.862745%,39.215686%);fill-opacity:1;" d="M 70.277344 197.617188 L 479.722656 197.617188 L 479.722656 414.027344 L 70.277344 414.027344 Z M 82.882812 401.421875 L 467.117188 401.421875 L 467.117188 210.527344 L 82.882812 210.527344 Z M 82.882812 401.421875 "/>
<path style=" stroke:none;fill-rule:nonzero;fill:rgb(19.607843%,36.862745%,39.215686%);fill-opacity:1;" d="M 245.667969 344.207031 L 245.667969 265.070312 L 304.332031 304.640625 Z M 245.667969 344.207031 "/>
<path style=" stroke:none;fill-rule:nonzero;fill:rgb(19.607843%,36.862745%,39.215686%);fill-opacity:1;" d="M 168.132812 443.285156 C 168.132812 443.84375 168.132812 444.378906 168.132812 444.890625 C 168.183594 445.449219 168.257812 445.984375 168.359375 446.492188 C 168.410156 447.003906 168.515625 447.535156 168.667969 448.097656 C 168.769531 448.605469 168.894531 449.117188 169.046875 449.625 L 149.875 449.625 L 149.875 437.019531 L 169.046875 437.019531 C 168.894531 437.53125 168.769531 438.039062 168.667969 438.546875 C 168.515625 439.058594 168.410156 439.59375 168.359375 440.152344 C 168.257812 440.660156 168.183594 441.171875 168.132812 441.679688 C 168.132812 442.242188 168.132812 442.777344 168.132812 443.285156 Z M 168.132812 443.285156 "/>
<path style=" stroke:none;fill-rule:nonzero;fill:rgb(19.607843%,36.862745%,39.215686%);fill-opacity:1;" d="M 449.855469 437.019531 L 449.855469 449.625 L 208.082031 449.625 C 208.441406 448.605469 208.695312 447.5625 208.847656 446.492188 C 209 445.421875 209.078125 444.355469 209.078125 443.285156 C 209.078125 442.214844 209 441.171875 208.847656 440.152344 C 208.695312 439.082031 208.441406 438.039062 208.082031 437.019531 Z M 449.855469 437.019531 "/>
<path style=" stroke:none;fill-rule:nonzero;fill:rgb(19.607843%,36.862745%,39.215686%);fill-opacity:1;" d="M 208.082031 449.625 C 206.785156 453.75 204.1875 457.339844 200.671875 459.9375 C 197.160156 462.457031 192.957031 463.832031 188.605469 463.832031 C 184.25 463.832031 180.046875 462.457031 176.535156 459.9375 C 173.019531 457.339844 170.421875 453.75 169.046875 449.625 L 183.792969 449.625 C 184.503906 450.132812 185.269531 450.515625 186.082031 450.769531 C 186.898438 451.078125 187.738281 451.230469 188.605469 451.230469 C 189.46875 451.230469 190.308594 451.078125 191.125 450.769531 C 191.941406 450.515625 192.679688 450.132812 193.339844 449.625 Z M 208.082031 449.625 "/>
<path style=" stroke:none;fill-rule:nonzero;fill:rgb(19.607843%,36.862745%,39.215686%);fill-opacity:1;" d="M 209.078125 443.285156 C 209.078125 443.84375 209.078125 444.378906 209.078125 444.890625 C 209.027344 445.449219 208.949219 445.984375 208.847656 446.492188 C 208.796875 447.003906 208.695312 447.535156 208.542969 448.097656 C 208.441406 448.605469 208.285156 449.117188 208.082031 449.625 L 193.417969 449.625 C 194.332031 448.859375 195.171875 447.945312 195.707031 446.796875 C 196.242188 445.730469 196.546875 444.507812 196.546875 443.285156 C 196.546875 442.0625 196.242188 440.917969 195.707031 439.769531 C 195.171875 438.703125 194.332031 437.707031 193.417969 437.019531 L 208.160156 437.019531 C 208.3125 437.53125 208.441406 438.039062 208.542969 438.546875 C 208.695312 439.058594 208.796875 439.59375 208.847656 440.152344 C 208.949219 440.660156 209.027344 441.171875 209.078125 441.679688 C 209.078125 442.242188 209.078125 442.777344 209.078125 443.285156 Z M 209.078125 443.285156 "/>
<path style=" stroke:none;fill-rule:nonzero;fill:rgb(19.607843%,36.862745%,39.215686%);fill-opacity:1;" d="M 183.792969 449.625 L 169.046875 449.625 C 168.742188 448.605469 168.515625 447.5625 168.359375 446.492188 C 168.207031 445.421875 168.132812 444.355469 168.132812 443.285156 C 168.132812 442.214844 168.207031 441.171875 168.359375 440.152344 C 168.515625 439.082031 168.742188 438.039062 169.046875 437.019531 L 183.867188 437.019531 C 182.875 437.707031 182.035156 438.703125 181.5 439.769531 C 180.964844 440.917969 180.734375 442.0625 180.734375 443.285156 C 180.734375 444.507812 180.964844 445.730469 181.5 446.796875 C 182.035156 447.945312 182.875 448.859375 183.867188 449.625 Z M 183.792969 449.625 "/>
<path style=" stroke:none;fill-rule:nonzero;fill:rgb(19.607843%,36.862745%,39.215686%);fill-opacity:1;" d="M 208.082031 437.019531 L 193.339844 437.019531 C 192.679688 436.511719 191.941406 436.105469 191.125 435.796875 C 190.308594 435.542969 189.46875 435.417969 188.605469 435.417969 C 187.738281 435.417969 186.898438 435.542969 186.082031 435.796875 C 185.269531 436.105469 184.53125 436.511719 183.867188 437.019531 L 169.046875 437.019531 C 170.421875 432.894531 173.019531 429.230469 176.535156 426.707031 C 180.046875 424.109375 184.25 422.734375 188.605469 422.734375 C 192.957031 422.734375 197.160156 424.109375 200.671875 426.707031 C 204.1875 429.230469 206.785156 432.894531 208.160156 437.019531 Z M 208.082031 437.019531 "/>
<path style=" stroke:none;fill-rule:nonzero;fill:rgb(19.607843%,36.862745%,39.215686%);fill-opacity:1;" d="M 100.527344 432.515625 L 113.132812 432.515625 L 113.132812 454.820312 L 100.527344 454.820312 Z M 100.527344 432.515625 "/>
<path style=" stroke:none;fill-rule:nonzero;fill:rgb(19.607843%,36.862745%,39.215686%);fill-opacity:1;" d="M 121.230469 432.515625 L 133.832031 432.515625 L 133.832031 454.820312 L 121.230469 454.820312 Z M 121.230469 432.515625 "/>
<path style=" stroke:none;fill-rule:nonzero;fill:rgb(19.607843%,36.862745%,39.215686%);fill-opacity:1;" d="M 479.722656 124.667969 L 479.722656 210.527344 L 70.277344 210.296875 L 70.277344 124.359375 L 215.035156 124.667969 C 214.984375 124.921875 214.90625 125.203125 214.804688 125.507812 C 214.753906 125.761719 214.703125 126.042969 214.652344 126.347656 C 214.601562 126.601562 214.578125 126.882812 214.578125 127.1875 C 214.578125 127.492188 214.578125 127.796875 214.578125 128.105469 L 214.578125 133.757812 C 214.578125 134.0625 214.578125 134.367188 214.578125 134.671875 C 214.578125 134.929688 214.601562 135.207031 214.652344 135.515625 C 214.703125 135.820312 214.753906 136.097656 214.804688 136.355469 C 214.90625 136.660156 214.984375 136.941406 215.035156 137.195312 L 82.882812 137.195312 L 82.882812 197.921875 L 467.117188 197.921875 L 467.117188 137.195312 L 334.964844 137.195312 C 335.015625 136.941406 335.09375 136.660156 335.195312 136.355469 C 335.246094 136.097656 335.296875 135.820312 335.347656 135.515625 C 335.398438 135.207031 335.421875 134.929688 335.421875 134.671875 C 335.472656 134.367188 335.5 134.0625 335.5 133.757812 L 335.5 128.105469 C 335.5 127.796875 335.472656 127.492188 335.421875 127.1875 C 335.421875 126.882812 335.398438 126.601562 335.347656 126.347656 C 335.296875 126.042969 335.246094 125.761719 335.195312 125.507812 C 335.09375 125.203125 335.015625 124.921875 334.964844 124.667969 Z M 479.722656 124.667969 "/>
<path style=" stroke:none;fill-rule:evenodd;fill:rgb(19.607843%,36.862745%,39.215686%);fill-opacity:1;" d="M 479.722656 487.054688 L 70.277344 487.359375 L 70.277344 401.421875 L 479.722656 401.421875 Z M 82.882812 474.757812 L 467.117188 474.757812 L 467.117188 414.027344 L 82.882812 414.027344 Z M 82.882812 474.757812 "/>
<path style="fill:none;stroke-width:8.8;stroke-linecap:butt;stroke-linejoin:miter;stroke:rgb(19.607843%,36.862745%,39.215686%);stroke-opacity:1;stroke-miterlimit:4;" d="M 170.401705 219.400568 C 170.401705 229.177841 162.475568 237.098864 152.698295 237.098864 C 142.926136 237.098864 135 229.177841 135 219.400568 C 135 209.623295 142.926136 201.702273 152.698295 201.702273 C 162.475568 201.702273 170.401705 209.623295 170.401705 219.400568 Z M 170.401705 219.400568 " transform="matrix(0.763889,0,0,0.763889,0,0)"/>
<path style="fill:none;stroke-width:8.8;stroke-linecap:butt;stroke-linejoin:miter;stroke:rgb(19.607843%,36.862745%,39.215686%);stroke-opacity:1;stroke-miterlimit:4;" d="M 584.698295 219.400568 C 584.698295 229.177841 576.777273 237.098864 567 237.098864 C 557.222727 237.098864 549.301705 229.177841 549.301705 219.400568 C 549.301705 209.623295 557.222727 201.702273 567 201.702273 C 576.777273 201.702273 584.698295 209.623295 584.698295 219.400568 Z M 584.698295 219.400568 " transform="matrix(0.763889,0,0,0.763889,0,0)"/>
<path style="fill:none;stroke-width:8.8;stroke-linecap:butt;stroke-linejoin:miter;stroke:rgb(19.607843%,36.862745%,39.215686%);stroke-opacity:1;stroke-miterlimit:4;" d="M 524.802273 219.400568 C 524.802273 229.177841 516.876136 237.098864 507.098864 237.098864 C 497.326705 237.098864 489.400568 229.177841 489.400568 219.400568 C 489.400568 209.623295 497.326705 201.702273 507.098864 201.702273 C 516.876136 201.702273 524.802273 209.623295 524.802273 219.400568 Z M 524.802273 219.400568 " transform="matrix(0.763889,0,0,0.763889,0,0)"/>
<path style=" stroke:none;fill-rule:evenodd;fill:rgb(19.607843%,36.862745%,39.215686%);fill-opacity:1;" d="M 277.902344 191.429688 L 272.171875 191.429688 C 270.796875 191.429688 269.5 191.203125 268.277344 190.742188 C 266.980469 190.285156 265.832031 189.597656 264.839844 188.757812 C 263.769531 187.917969 262.929688 186.921875 262.242188 185.777344 C 261.554688 184.632812 261.097656 183.410156 260.792969 182.109375 L 258.5 170.652344 L 248.875 177.144531 C 247.703125 177.910156 246.480469 178.445312 245.207031 178.75 C 243.910156 179.054688 242.609375 179.132812 241.3125 179.054688 C 239.9375 178.902344 238.714844 178.519531 237.492188 177.984375 C 236.269531 177.425781 235.203125 176.660156 234.285156 175.695312 L 230.234375 171.644531 C 229.320312 170.730469 228.554688 169.660156 227.945312 168.4375 C 227.410156 167.214844 227.027344 165.992188 226.875 164.617188 C 226.796875 163.320312 226.875 162.019531 227.179688 160.722656 C 227.484375 159.421875 228.019531 158.203125 228.785156 157.132812 L 235.277344 147.355469 L 223.820312 145.140625 C 222.519531 144.832031 221.296875 144.375 220.152344 143.6875 C 219.007812 143 218.015625 142.160156 217.171875 141.089844 C 216.332031 140.097656 215.644531 138.875 215.1875 137.652344 C 214.730469 136.429688 214.5 135.132812 214.5 133.757812 L 214.5 128.027344 C 214.5 126.703125 214.730469 125.40625 215.1875 124.132812 C 215.644531 122.910156 216.332031 121.765625 217.171875 120.695312 C 217.988281 119.675781 218.980469 118.835938 220.152344 118.171875 C 221.296875 117.484375 222.519531 116.953125 223.820312 116.722656 L 235.277344 114.429688 L 228.785156 104.730469 C 228.097656 103.660156 227.5625 102.4375 227.179688 101.140625 C 226.875 99.816406 226.796875 98.515625 226.953125 97.242188 C 227.027344 95.945312 227.410156 94.644531 227.945312 93.421875 C 228.554688 92.277344 229.320312 91.132812 230.234375 90.214844 L 234.285156 86.167969 C 235.203125 85.25 236.269531 84.484375 237.492188 83.953125 C 238.714844 83.339844 239.9375 82.957031 241.3125 82.882812 C 242.609375 82.730469 243.910156 82.804688 245.207031 83.1875 C 246.507812 83.492188 247.730469 84.027344 248.875 84.714844 L 258.578125 91.285156 L 260.867188 79.75 C 261.070312 78.425781 261.53125 77.203125 262.242188 76.082031 C 262.929688 74.9375 263.847656 73.945312 264.839844 73.105469 C 265.832031 72.265625 267.054688 71.578125 268.277344 71.195312 C 269.5 70.734375 270.875 70.507812 272.171875 70.507812 L 277.902344 70.507812 C 279.175781 70.507812 280.472656 70.734375 281.796875 71.195312 C 283.019531 71.578125 284.167969 72.265625 285.234375 73.105469 C 286.253906 73.917969 287.09375 74.910156 287.757812 76.082031 C 288.445312 77.230469 288.980469 78.453125 289.207031 79.75 L 291.5 91.285156 L 301.203125 84.714844 C 302.269531 83.953125 303.492188 83.417969 304.792969 83.109375 C 306.089844 82.804688 307.390625 82.730469 308.6875 82.804688 C 310.0625 82.957031 311.359375 83.339844 312.507812 83.875 C 313.730469 84.410156 314.796875 85.25 315.792969 86.167969 L 319.765625 90.214844 C 320.78125 91.132812 321.546875 92.203125 322.054688 93.421875 C 322.589844 94.644531 322.972656 95.867188 323.125 97.242188 C 323.277344 98.542969 323.125 99.839844 322.820312 101.140625 C 322.515625 102.4375 321.980469 103.660156 321.214844 104.730469 L 314.722656 114.507812 L 326.179688 116.722656 C 327.480469 117.027344 328.777344 117.484375 329.847656 118.171875 C 330.992188 118.859375 332.0625 119.703125 332.902344 120.769531 C 333.742188 121.765625 334.355469 122.984375 334.8125 124.207031 C 335.269531 125.429688 335.5 126.804688 335.5 128.105469 L 335.5 133.832031 C 335.5 135.15625 335.269531 136.457031 334.8125 137.730469 C 334.355469 138.953125 333.742188 140.097656 332.902344 141.167969 C 332.0625 142.160156 330.992188 143 329.847656 143.6875 C 328.777344 144.375 327.480469 144.910156 326.179688 145.140625 L 314.722656 147.429688 L 321.214844 157.132812 C 321.980469 158.277344 322.515625 159.5 322.820312 160.722656 C 323.125 162.019531 323.277344 163.394531 323.125 164.695312 C 322.972656 165.992188 322.589844 167.292969 322.054688 168.515625 C 321.519531 169.660156 320.757812 170.804688 319.765625 171.722656 L 315.792969 175.769531 C 314.796875 176.6875 313.730469 177.453125 312.507812 177.984375 C 311.359375 178.597656 310.0625 178.902344 308.6875 179.054688 C 307.390625 179.207031 306.089844 179.054688 304.792969 178.75 C 303.492188 178.445312 302.269531 177.910156 301.203125 177.144531 L 291.5 170.652344 L 289.207031 182.109375 C 288.902344 183.410156 288.445312 184.632812 287.757812 185.777344 C 287.070312 186.921875 286.230469 187.917969 285.160156 188.757812 C 284.167969 189.597656 283.019531 190.285156 281.722656 190.742188 C 280.5 191.125 279.203125 191.355469 277.902344 191.429688 Z M 273.015625 178.828125 L 276.984375 178.828125 L 279.429688 166.679688 C 279.582031 165.714844 279.863281 164.820312 280.269531 164.007812 C 280.679688 163.140625 281.1875 162.328125 281.796875 161.5625 C 282.410156 160.847656 283.097656 160.214844 283.859375 159.652344 C 284.625 159.09375 285.441406 158.632812 286.304688 158.277344 L 286.382812 158.277344 C 287.246094 157.871094 288.164062 157.617188 289.132812 157.515625 C 290.046875 157.359375 290.992188 157.335938 291.957031 157.4375 C 292.875 157.539062 293.792969 157.742188 294.707031 158.046875 C 295.574219 158.355469 296.414062 158.785156 297.230469 159.347656 L 307.464844 166.144531 L 310.292969 163.394531 L 303.417969 153.082031 C 302.855469 152.320312 302.421875 151.480469 302.117188 150.5625 C 301.8125 149.695312 301.609375 148.78125 301.507812 147.8125 C 301.40625 146.84375 301.429688 145.902344 301.582031 144.984375 C 301.734375 144.070312 301.992188 143.152344 302.347656 142.234375 L 302.347656 142.160156 C 302.753906 141.292969 303.238281 140.480469 303.796875 139.714844 C 304.359375 138.953125 304.996094 138.265625 305.707031 137.652344 C 306.421875 137.09375 307.210938 136.609375 308.078125 136.203125 C 308.941406 135.792969 309.832031 135.488281 310.75 135.285156 L 322.894531 132.917969 L 322.894531 128.945312 L 310.75 126.578125 C 309.832031 126.371094 308.941406 126.066406 308.078125 125.660156 C 307.261719 125.253906 306.472656 124.742188 305.707031 124.132812 C 304.996094 123.570312 304.359375 122.910156 303.796875 122.144531 C 303.238281 121.382812 302.753906 120.566406 302.347656 119.703125 L 302.347656 119.625 C 301.992188 118.757812 301.734375 117.84375 301.582031 116.875 C 301.429688 115.957031 301.40625 115.015625 301.507812 114.046875 C 301.609375 113.082031 301.8125 112.164062 302.117188 111.296875 C 302.421875 110.382812 302.855469 109.542969 303.417969 108.777344 L 310.292969 98.464844 L 307.464844 95.640625 L 297.230469 102.589844 C 295.625 103.582031 293.792969 104.269531 291.882812 104.421875 C 290.046875 104.652344 288.140625 104.347656 286.382812 103.582031 C 284.625 102.894531 283.019531 101.75 281.796875 100.296875 C 280.652344 98.769531 279.8125 97.089844 279.429688 95.179688 L 276.984375 83.035156 L 273.015625 83.035156 L 270.644531 95.179688 C 270.441406 96.097656 270.136719 96.988281 269.730469 97.855469 C 269.320312 98.71875 268.839844 99.535156 268.277344 100.296875 C 267.667969 101.011719 266.980469 101.648438 266.214844 102.207031 C 265.453125 102.769531 264.609375 103.226562 263.695312 103.582031 L 263.617188 103.660156 C 262.753906 104.015625 261.859375 104.246094 260.945312 104.347656 C 259.976562 104.5 259.035156 104.527344 258.117188 104.421875 C 257.152344 104.320312 256.234375 104.117188 255.367188 103.8125 C 254.453125 103.507812 253.609375 103.097656 252.847656 102.589844 L 242.535156 95.640625 L 239.785156 98.464844 L 246.660156 108.777344 C 247.167969 109.542969 247.578125 110.382812 247.882812 111.296875 C 248.238281 112.164062 248.441406 113.082031 248.492188 114.046875 C 248.59375 114.964844 248.59375 115.90625 248.492188 116.875 C 248.339844 117.792969 248.085938 118.707031 247.730469 119.625 L 247.730469 119.703125 C 247.320312 120.566406 246.839844 121.382812 246.277344 122.144531 C 245.71875 122.910156 245.082031 123.570312 244.367188 124.132812 C 243.65625 124.742188 242.867188 125.253906 242 125.660156 C 241.132812 126.066406 240.242188 126.347656 239.328125 126.5 L 227.179688 128.945312 L 227.179688 132.917969 L 239.328125 135.285156 C 240.242188 135.488281 241.132812 135.792969 242 136.203125 C 242.816406 136.609375 243.605469 137.117188 244.367188 137.730469 C 245.082031 138.289062 245.71875 138.953125 246.277344 139.714844 C 246.839844 140.480469 247.296875 141.292969 247.652344 142.160156 L 247.652344 142.234375 C 248.007812 143.152344 248.265625 144.070312 248.417969 144.984375 C 248.570312 145.902344 248.59375 146.84375 248.492188 147.8125 C 248.390625 148.78125 248.1875 149.695312 247.882812 150.5625 C 247.578125 151.480469 247.144531 152.320312 246.582031 153.082031 L 239.707031 163.394531 L 242.535156 166.144531 L 252.847656 159.269531 C 254.375 158.277344 256.207031 157.589844 258.117188 157.4375 C 260.027344 157.207031 261.9375 157.515625 263.695312 158.203125 C 265.453125 158.964844 266.980469 160.109375 268.203125 161.5625 C 269.421875 163.089844 270.1875 164.769531 270.570312 166.679688 Z M 254.832031 139.332031 C 251.472656 131.160156 253.304688 121.765625 259.570312 115.5 C 265.832031 109.234375 275.230469 107.402344 283.328125 110.765625 C 291.5 114.125 296.847656 122.070312 296.847656 130.929688 C 296.847656 133.832031 296.234375 136.660156 295.167969 139.257812 C 294.097656 141.929688 292.492188 144.375 290.429688 146.359375 C 288.367188 148.421875 286 150.027344 283.328125 151.097656 C 280.730469 152.242188 277.828125 152.777344 275 152.777344 C 266.140625 152.777344 258.195312 147.429688 254.832031 139.332031 Z M 275 121.6875 C 271.257812 121.6875 267.894531 123.980469 266.445312 127.417969 C 265.070312 130.855469 265.832031 134.828125 268.507812 137.5 C 271.105469 140.097656 275.078125 140.9375 278.515625 139.484375 C 282.027344 138.035156 284.242188 134.671875 284.242188 130.929688 C 284.242188 129.707031 284.015625 128.5625 283.554688 127.417969 C 283.097656 126.296875 282.410156 125.304688 281.492188 124.4375 C 280.652344 123.597656 279.660156 122.910156 278.515625 122.453125 C 277.367188 121.992188 276.222656 121.765625 275 121.765625 Z M 275 152.777344 Z M 275 152.777344 "/>
<path style=" stroke:none;fill-rule:nonzero;fill:rgb(19.607843%,36.862745%,39.215686%);fill-opacity:1;" d="M 243.679688 137.195312 L 215.035156 137.195312 C 214.984375 136.941406 214.90625 136.660156 214.804688 136.355469 C 214.753906 136.097656 214.703125 135.820312 214.652344 135.515625 C 214.601562 135.207031 214.578125 134.929688 214.578125 134.671875 C 214.527344 134.367188 214.5 134.0625 214.5 133.757812 L 214.5 128.105469 C 214.5 127.796875 214.527344 127.492188 214.578125 127.1875 C 214.578125 126.882812 214.601562 126.601562 214.652344 126.347656 C 214.703125 126.042969 214.753906 125.761719 214.804688 125.507812 C 214.90625 125.203125 214.984375 124.921875 215.035156 124.667969 L 243.679688 124.667969 C 243.375 124.871094 243.042969 125.074219 242.6875 125.277344 C 242.332031 125.480469 241.972656 125.660156 241.617188 125.8125 C 241.210938 125.964844 240.828125 126.09375 240.472656 126.195312 C 240.066406 126.347656 239.65625 126.449219 239.25 126.5 L 227.179688 128.945312 L 227.179688 132.917969 L 239.25 135.285156 C 239.65625 135.386719 240.066406 135.488281 240.472656 135.589844 C 240.828125 135.742188 241.210938 135.894531 241.617188 136.046875 C 241.972656 136.203125 242.332031 136.378906 242.6875 136.582031 C 243.042969 136.785156 243.375 136.992188 243.679688 137.195312 Z M 243.679688 137.195312 "/>
<path style=" stroke:none;fill-rule:nonzero;fill:rgb(19.607843%,36.862745%,39.215686%);fill-opacity:1;" d="M 334.964844 124.667969 L 306.320312 124.667969 C 305.859375 124.308594 305.429688 123.953125 305.019531 123.597656 C 304.664062 123.242188 304.308594 122.859375 303.953125 122.453125 C 303.644531 121.992188 303.339844 121.535156 303.035156 121.078125 C 302.78125 120.617188 302.550781 120.160156 302.347656 119.703125 L 302.347656 119.625 C 301.992188 118.757812 301.734375 117.84375 301.582031 116.875 C 301.429688 115.957031 301.40625 115.015625 301.507812 114.046875 C 301.609375 113.132812 301.8125 112.214844 302.117188 111.296875 C 302.421875 110.382812 302.855469 109.542969 303.417969 108.777344 L 310.292969 98.464844 L 307.464844 95.640625 L 297.152344 102.589844 C 295.625 103.582031 293.792969 104.269531 291.882812 104.421875 C 289.972656 104.652344 288.0625 104.347656 286.304688 103.582031 C 284.546875 102.894531 283.019531 101.75 281.796875 100.296875 C 280.578125 98.769531 279.8125 97.089844 279.429688 95.179688 L 276.984375 83.035156 L 273.015625 83.035156 L 270.644531 95.179688 C 270.441406 96.097656 270.136719 96.988281 269.730469 97.855469 C 269.320312 98.71875 268.8125 99.535156 268.203125 100.296875 C 267.589844 101.011719 266.902344 101.648438 266.140625 102.207031 C 265.375 102.769531 264.558594 103.226562 263.695312 103.582031 L 263.617188 103.582031 C 262.753906 103.941406 261.859375 104.195312 260.945312 104.347656 C 259.976562 104.5 259.035156 104.527344 258.117188 104.421875 C 257.152344 104.320312 256.234375 104.117188 255.367188 103.8125 C 254.453125 103.507812 253.609375 103.074219 252.847656 102.515625 L 242.535156 95.640625 L 239.785156 98.464844 L 246.660156 108.703125 C 247.167969 109.515625 247.578125 110.355469 247.882812 111.222656 C 248.238281 112.140625 248.441406 113.082031 248.492188 114.046875 C 248.59375 114.964844 248.570312 115.90625 248.417969 116.875 C 248.316406 117.792969 248.058594 118.683594 247.652344 119.546875 C 247.703125 119.546875 247.730469 119.546875 247.730469 119.546875 C 247.730469 119.597656 247.730469 119.625 247.730469 119.625 C 247.730469 119.625 247.703125 119.625 247.652344 119.625 C 247.449219 120.132812 247.21875 120.617188 246.964844 121.078125 C 246.710938 121.535156 246.40625 121.96875 246.046875 122.375 C 245.742188 122.832031 245.386719 123.242188 244.980469 123.597656 C 244.570312 123.953125 244.164062 124.285156 243.757812 124.589844 L 215.035156 124.589844 C 215.339844 123.621094 215.773438 122.707031 216.332031 121.839844 C 216.894531 120.972656 217.582031 120.183594 218.394531 119.472656 C 219.160156 118.757812 220 118.171875 220.917969 117.714844 C 221.832031 117.257812 222.800781 116.925781 223.820312 116.722656 L 235.277344 114.429688 L 228.785156 104.730469 C 228.097656 103.660156 227.5625 102.4375 227.179688 101.140625 C 226.875 99.816406 226.796875 98.515625 226.953125 97.242188 C 227.027344 95.945312 227.410156 94.644531 227.945312 93.421875 C 228.554688 92.277344 229.320312 91.132812 230.234375 90.214844 L 234.285156 86.167969 C 235.203125 85.25 236.269531 84.484375 237.492188 83.953125 C 238.714844 83.339844 239.9375 82.957031 241.3125 82.882812 C 242.609375 82.730469 243.910156 82.804688 245.207031 83.1875 C 246.507812 83.492188 247.730469 84.027344 248.875 84.714844 L 258.578125 91.285156 L 260.792969 79.75 C 261.097656 78.453125 261.554688 77.230469 262.242188 76.082031 C 262.929688 74.9375 263.769531 73.945312 264.839844 73.105469 C 265.832031 72.265625 267.054688 71.652344 268.277344 71.195312 C 269.5 70.734375 270.796875 70.507812 272.171875 70.507812 L 277.902344 70.507812 C 279.175781 70.507812 280.472656 70.734375 281.796875 71.195312 C 283.019531 71.578125 284.167969 72.265625 285.234375 73.105469 C 286.253906 73.917969 287.09375 74.910156 287.757812 76.082031 C 288.445312 77.230469 288.980469 78.453125 289.207031 79.75 L 291.5 91.285156 L 301.203125 84.714844 C 302.269531 83.953125 303.492188 83.417969 304.792969 83.109375 C 306.089844 82.804688 307.390625 82.730469 308.6875 82.804688 C 310.0625 82.957031 311.359375 83.339844 312.507812 83.875 C 313.730469 84.484375 314.796875 85.25 315.714844 86.167969 L 319.765625 90.214844 C 320.78125 91.132812 321.546875 92.203125 322.054688 93.421875 C 322.589844 94.644531 322.972656 95.867188 323.125 97.242188 C 323.277344 98.542969 323.125 99.839844 322.820312 101.140625 C 322.515625 102.4375 321.980469 103.660156 321.214844 104.730469 L 314.722656 114.507812 L 326.179688 116.722656 C 327.199219 116.925781 328.167969 117.28125 329.082031 117.792969 C 330 118.25 330.839844 118.808594 331.605469 119.472656 C 332.417969 120.183594 333.105469 120.972656 333.667969 121.839844 C 334.226562 122.707031 334.660156 123.648438 334.964844 124.667969 Z M 334.964844 124.667969 "/>
<path style=" stroke:none;fill-rule:nonzero;fill:rgb(19.607843%,36.862745%,39.215686%);fill-opacity:1;" d="M 335.5 128.105469 L 335.5 133.757812 C 335.5 134.0625 335.472656 134.367188 335.421875 134.671875 C 335.421875 134.929688 335.398438 135.207031 335.347656 135.515625 C 335.296875 135.820312 335.246094 136.097656 335.195312 136.355469 C 335.09375 136.660156 335.015625 136.941406 334.964844 137.195312 L 306.320312 137.195312 C 306.625 136.992188 306.957031 136.785156 307.3125 136.582031 C 307.667969 136.378906 308.027344 136.203125 308.382812 136.046875 C 308.789062 135.894531 309.171875 135.769531 309.527344 135.667969 C 309.933594 135.515625 310.34375 135.410156 310.75 135.359375 L 322.894531 132.917969 L 322.894531 128.945312 L 310.75 126.578125 C 310.34375 126.472656 309.960938 126.371094 309.605469 126.269531 C 309.195312 126.167969 308.816406 126.042969 308.457031 125.890625 C 308.050781 125.683594 307.667969 125.507812 307.3125 125.355469 C 307.007812 125.152344 306.675781 124.921875 306.320312 124.667969 L 334.964844 124.667969 C 335.066406 124.921875 335.144531 125.203125 335.195312 125.507812 C 335.246094 125.761719 335.296875 126.042969 335.347656 126.347656 C 335.398438 126.652344 335.421875 126.933594 335.421875 127.1875 C 335.472656 127.492188 335.5 127.796875 335.5 128.105469 Z M 335.5 128.105469 "/>
<path style=" stroke:none;fill-rule:nonzero;fill:rgb(19.607843%,36.862745%,39.215686%);fill-opacity:1;" d="M 334.964844 137.195312 C 334.660156 138.214844 334.226562 139.15625 333.667969 140.019531 C 333.054688 140.886719 332.367188 141.675781 331.605469 142.390625 C 330.839844 143.050781 330 143.609375 329.082031 144.070312 C 328.167969 144.527344 327.199219 144.859375 326.179688 145.0625 L 314.722656 147.355469 L 321.214844 157.054688 C 321.980469 158.175781 322.515625 159.398438 322.820312 160.722656 C 323.125 162.019531 323.203125 163.320312 323.125 164.617188 C 322.972656 165.917969 322.589844 167.214844 322.054688 168.4375 C 321.445312 169.660156 320.679688 170.730469 319.765625 171.644531 L 315.714844 175.695312 C 314.796875 176.609375 313.730469 177.375 312.507812 177.984375 C 311.285156 178.519531 310.0625 178.902344 308.6875 179.054688 C 307.390625 179.132812 306.089844 179.054688 304.792969 178.75 C 303.492188 178.445312 302.269531 177.910156 301.203125 177.144531 L 291.5 170.652344 L 289.207031 182.109375 C 288.902344 183.410156 288.445312 184.632812 287.757812 185.777344 C 287.070312 186.921875 286.230469 187.917969 285.160156 188.757812 C 284.167969 189.597656 283.019531 190.285156 281.722656 190.742188 C 280.5 191.203125 279.203125 191.429688 277.828125 191.429688 L 272.171875 191.429688 C 270.796875 191.429688 269.5 191.203125 268.277344 190.742188 C 266.980469 190.285156 265.832031 189.597656 264.839844 188.757812 C 263.769531 187.917969 262.929688 186.921875 262.242188 185.777344 C 261.554688 184.632812 261.097656 183.410156 260.792969 182.109375 L 258.5 170.652344 L 248.796875 177.144531 C 247.730469 177.910156 246.507812 178.445312 245.207031 178.75 C 243.910156 179.054688 242.609375 179.132812 241.3125 179.054688 C 239.9375 178.902344 238.714844 178.519531 237.492188 177.984375 C 236.269531 177.425781 235.203125 176.660156 234.285156 175.695312 L 230.234375 171.644531 C 229.320312 170.730469 228.554688 169.660156 227.945312 168.4375 C 227.410156 167.214844 227.027344 165.992188 226.875 164.617188 C 226.796875 163.320312 226.875 162.019531 227.179688 160.722656 C 227.484375 159.421875 228.019531 158.203125 228.785156 157.132812 L 235.277344 147.355469 L 223.820312 145.140625 C 222.800781 144.933594 221.832031 144.605469 220.917969 144.144531 C 220 143.636719 219.160156 143.050781 218.394531 142.390625 C 217.582031 141.675781 216.894531 140.886719 216.332031 140.019531 C 215.773438 139.15625 215.339844 138.238281 215.035156 137.269531 L 243.679688 137.269531 C 244.140625 137.578125 244.546875 137.90625 244.902344 138.265625 C 245.308594 138.621094 245.691406 139.003906 246.046875 139.410156 C 246.355469 139.867188 246.632812 140.328125 246.890625 140.785156 C 247.195312 141.242188 247.449219 141.703125 247.652344 142.160156 L 247.652344 142.234375 C 248.007812 143.101562 248.265625 144.019531 248.417969 144.984375 C 248.519531 145.902344 248.542969 146.84375 248.492188 147.8125 C 248.390625 148.730469 248.1875 149.644531 247.882812 150.5625 C 247.527344 151.429688 247.09375 152.269531 246.582031 153.082031 L 239.707031 163.320312 L 242.535156 166.144531 L 252.769531 159.269531 C 254.375 158.203125 256.207031 157.589844 258.042969 157.359375 C 259.953125 157.207031 261.859375 157.515625 263.617188 158.203125 C 265.375 158.964844 266.980469 160.109375 268.125 161.5625 C 269.347656 163.015625 270.1875 164.769531 270.570312 166.679688 L 272.9375 178.75 L 276.910156 178.75 L 279.355469 166.679688 C 279.507812 165.714844 279.785156 164.796875 280.195312 163.929688 C 280.601562 163.117188 281.109375 162.328125 281.722656 161.5625 C 282.332031 160.847656 283.019531 160.214844 283.785156 159.652344 C 284.546875 159.09375 285.363281 158.609375 286.230469 158.203125 L 286.304688 158.203125 C 287.222656 157.84375 288.140625 157.589844 289.054688 157.4375 C 289.972656 157.285156 290.914062 157.257812 291.882812 157.359375 C 292.796875 157.464844 293.714844 157.667969 294.632812 157.972656 C 295.496094 158.328125 296.339844 158.761719 297.152344 159.269531 L 307.390625 166.144531 L 310.214844 163.320312 L 303.339844 153.082031 C 302.832031 152.269531 302.398438 151.429688 302.042969 150.5625 C 301.734375 149.644531 301.53125 148.730469 301.429688 147.8125 C 301.328125 146.84375 301.355469 145.902344 301.507812 144.984375 C 301.660156 144.019531 301.914062 143.101562 302.269531 142.234375 C 302.269531 142.183594 302.269531 142.160156 302.269531 142.160156 C 302.472656 141.703125 302.703125 141.242188 302.957031 140.785156 C 303.265625 140.277344 303.570312 139.816406 303.875 139.410156 C 304.230469 139.003906 304.613281 138.621094 305.019531 138.265625 C 305.378906 137.855469 305.785156 137.5 306.242188 137.195312 Z M 334.964844 137.195312 "/>
<path style=" stroke:none;fill-rule:nonzero;fill:rgb(19.607843%,36.862745%,39.215686%);fill-opacity:1;" d="M 170.421875 447.945312 C 170.578125 448.859375 169.660156 449.546875 168.894531 449.546875 C 168.691406 449.546875 168.488281 449.496094 168.285156 449.394531 C 168.082031 449.34375 167.902344 449.242188 167.75 449.089844 C 167.648438 448.9375 167.546875 448.757812 167.445312 448.554688 C 167.34375 448.351562 167.292969 448.148438 167.292969 447.945312 C 167.0625 446.109375 166.679688 444.203125 166.605469 442.445312 C 166.527344 440.609375 166.984375 438.703125 168.359375 437.480469 C 168.515625 437.328125 168.691406 437.199219 168.894531 437.097656 C 169.046875 437.046875 169.226562 437.019531 169.429688 437.019531 C 169.632812 437.019531 169.839844 437.046875 170.042969 437.097656 C 170.246094 437.199219 170.421875 437.328125 170.578125 437.480469 C 170.730469 437.632812 170.832031 437.785156 170.882812 437.9375 C 170.984375 438.140625 171.035156 438.34375 171.035156 438.546875 C 171.035156 438.753906 170.984375 438.957031 170.882812 439.160156 C 170.832031 439.363281 170.730469 439.542969 170.578125 439.695312 C 170.5 439.695312 170.117188 440.152344 170.347656 439.921875 C 170.296875 439.921875 170.269531 439.949219 170.269531 440 C 170.269531 440 170.246094 440.027344 170.195312 440.078125 C 170.195312 440.128906 170.167969 440.152344 170.117188 440.152344 C 170.117188 440.203125 170.117188 440.230469 170.117188 440.230469 C 170.117188 440.28125 170.09375 440.304688 170.042969 440.304688 C 170.042969 440.355469 170.042969 440.382812 170.042969 440.382812 C 170.042969 440.433594 170.015625 440.457031 169.964844 440.457031 C 169.964844 440.457031 169.964844 440.484375 169.964844 440.535156 C 170.015625 440.382812 170.015625 440.355469 169.964844 440.457031 C 169.964844 440.507812 169.941406 440.558594 169.890625 440.609375 C 169.890625 440.660156 169.890625 440.714844 169.890625 440.765625 C 169.890625 440.765625 169.890625 440.789062 169.890625 440.839844 C 169.839844 440.890625 169.8125 440.941406 169.8125 440.992188 C 169.8125 440.992188 169.734375 441.527344 169.8125 441.144531 C 169.761719 441.195312 169.734375 441.246094 169.734375 441.296875 C 169.734375 441.347656 169.734375 441.402344 169.734375 441.453125 C 169.734375 441.503906 169.734375 441.554688 169.734375 441.605469 C 169.734375 441.65625 169.734375 441.707031 169.734375 441.757812 C 169.734375 441.859375 169.734375 441.960938 169.734375 442.0625 C 169.734375 442.164062 169.734375 442.265625 169.734375 442.367188 C 169.734375 442.46875 169.734375 442.570312 169.734375 442.671875 C 169.785156 442.777344 169.8125 442.878906 169.8125 442.980469 C 169.964844 444.660156 170.195312 446.265625 170.421875 447.945312 Z M 170.421875 447.945312 "/>
<path style=" stroke:none;fill-rule:nonzero;fill:rgb(19.607843%,36.862745%,39.215686%);fill-opacity:1;" d="M 209.839844 448.632812 C 209.789062 448.785156 209.6875 448.9375 209.535156 449.089844 C 209.382812 449.242188 209.203125 449.371094 209 449.472656 C 208.847656 449.523438 208.667969 449.546875 208.464844 449.546875 C 208.210938 449.546875 208.007812 449.523438 207.855469 449.472656 C 207.652344 449.371094 207.472656 449.242188 207.320312 449.089844 C 207.167969 448.9375 207.039062 448.785156 206.9375 448.632812 C 206.886719 448.429688 206.859375 448.222656 206.859375 448.019531 L 207.394531 443.359375 C 207.394531 443.15625 207.421875 442.980469 207.472656 442.828125 C 207.472656 442.671875 207.445312 442.519531 207.394531 442.367188 C 207.394531 442.164062 207.371094 441.984375 207.320312 441.832031 C 207.269531 441.679688 207.21875 441.527344 207.167969 441.375 L 206.328125 439.082031 C 206.277344 438.878906 206.277344 438.675781 206.328125 438.472656 C 206.328125 438.269531 206.378906 438.089844 206.480469 437.9375 C 206.582031 437.734375 206.707031 437.582031 206.859375 437.480469 C 207.015625 437.328125 207.191406 437.222656 207.394531 437.171875 C 207.597656 437.121094 207.804688 437.097656 208.007812 437.097656 C 208.210938 437.148438 208.414062 437.222656 208.617188 437.328125 C 208.820312 437.429688 208.972656 437.554688 209.078125 437.707031 C 209.230469 437.859375 209.332031 438.039062 209.382812 438.242188 C 209.917969 439.847656 210.757812 441.527344 210.527344 443.132812 C 210.375 444.761719 210.195312 446.390625 209.992188 448.019531 C 209.992188 448.222656 209.941406 448.429688 209.839844 448.632812 Z M 209.839844 448.632812 "/>
<path style=" stroke:none;fill-rule:nonzero;fill:rgb(19.607843%,36.862745%,39.215686%);fill-opacity:1;" d="M 207.855469 440.152344 C 209.917969 440.152344 209.917969 436.945312 207.855469 436.945312 C 205.867188 436.945312 205.867188 440.152344 207.855469 440.152344 Z M 207.855469 440.152344 "/>
<path style=" stroke:none;fill-rule:nonzero;fill:rgb(19.607843%,36.862745%,39.215686%);fill-opacity:1;" d="M 170.578125 439.160156 C 172.640625 439.160156 172.640625 436.027344 170.578125 436.027344 C 168.589844 436.027344 168.589844 439.160156 170.578125 439.160156 Z M 170.578125 439.160156 "/>
<path style=" stroke:none;fill-rule:nonzero;fill:rgb(19.607843%,36.862745%,39.215686%);fill-opacity:1;" d="M 169.507812 438.703125 C 169.203125 438.394531 169.046875 438.015625 169.046875 437.632812 C 169.046875 437.171875 169.203125 436.792969 169.507812 436.484375 C 169.8125 436.179688 170.195312 436.027344 170.578125 436.027344 L 180.8125 436.179688 C 181.195312 436.179688 181.652344 436.332031 181.957031 436.640625 C 182.1875 436.867188 182.417969 437.328125 182.417969 437.707031 C 182.417969 438.167969 182.1875 438.546875 181.957031 438.855469 C 181.652344 439.160156 181.195312 439.3125 180.8125 439.3125 L 170.578125 439.160156 C 170.195312 439.160156 169.8125 439.007812 169.507812 438.703125 Z M 169.507812 438.703125 "/>
<path style=" stroke:none;fill-rule:nonzero;fill:rgb(19.607843%,36.862745%,39.215686%);fill-opacity:1;" d="M 181.347656 438.703125 C 183.332031 438.703125 183.332031 435.570312 181.347656 435.570312 C 179.285156 435.570312 179.285156 438.703125 181.347656 438.703125 Z M 181.347656 438.703125 "/>
<path style=" stroke:none;fill-rule:nonzero;fill:rgb(19.607843%,36.862745%,39.215686%);fill-opacity:1;" d="M 181.957031 435.722656 C 182.160156 435.824219 182.339844 435.953125 182.492188 436.105469 C 182.644531 436.257812 182.746094 436.433594 182.796875 436.640625 C 182.902344 436.792969 182.953125 436.96875 182.953125 437.171875 C 182.953125 437.378906 182.902344 437.582031 182.796875 437.785156 C 182.695312 437.988281 182.59375 438.167969 182.492188 438.320312 C 182.339844 438.472656 182.160156 438.574219 181.957031 438.625 C 181.753906 438.726562 181.550781 438.777344 181.347656 438.777344 C 180.734375 438.828125 180.152344 438.878906 179.589844 438.929688 C 178.980469 438.980469 178.367188 439.007812 177.757812 439.007812 C 177.195312 439.007812 176.609375 439.03125 176 439.082031 C 175.390625 439.082031 174.777344 439.082031 174.167969 439.082031 C 173.785156 439.082031 173.402344 438.855469 173.097656 438.546875 C 172.792969 438.320312 172.640625 437.859375 172.640625 437.480469 C 172.640625 437.019531 172.792969 436.640625 173.097656 436.332031 C 173.402344 436.027344 173.785156 435.875 174.167969 435.875 C 174.777344 435.875 175.390625 435.875 176 435.875 C 176.609375 435.875 177.195312 435.875 177.757812 435.875 C 178.367188 435.824219 178.980469 435.796875 179.589844 435.796875 C 180.152344 435.746094 180.734375 435.695312 181.347656 435.644531 C 181.550781 435.644531 181.753906 435.671875 181.957031 435.722656 Z M 181.957031 435.722656 "/>
<path style=" stroke:none;fill-rule:nonzero;fill:rgb(19.607843%,36.862745%,39.215686%);fill-opacity:1;" d="M 193.644531 437.019531 C 193.441406 436.917969 193.289062 436.765625 193.1875 436.5625 C 193.085938 436.410156 193.035156 436.230469 193.035156 436.027344 C 192.984375 435.824219 192.984375 435.621094 193.035156 435.417969 C 193.136719 435.214844 193.238281 435.035156 193.339844 434.882812 C 193.492188 434.679688 193.644531 434.527344 193.796875 434.421875 C 194.003906 434.320312 194.207031 434.269531 194.410156 434.269531 C 194.613281 434.21875 194.816406 434.21875 195.019531 434.269531 C 197.007812 434.628906 198.992188 434.933594 200.980469 435.1875 C 201.488281 435.238281 201.996094 435.289062 202.507812 435.339844 C 203.066406 435.441406 203.601562 435.519531 204.109375 435.570312 C 204.621094 435.671875 205.128906 435.773438 205.640625 435.875 C 206.148438 435.976562 206.65625 436.078125 207.167969 436.179688 C 209.152344 436.714844 208.3125 439.769531 206.328125 439.234375 C 205.867188 439.132812 205.382812 439.03125 204.875 438.929688 C 204.417969 438.828125 203.933594 438.753906 203.421875 438.703125 C 202.964844 438.597656 202.480469 438.523438 201.972656 438.472656 C 201.515625 438.371094 201.03125 438.292969 200.519531 438.242188 C 198.382812 437.988281 196.269531 437.683594 194.179688 437.328125 C 193.976562 437.277344 193.796875 437.171875 193.644531 437.019531 Z M 193.644531 437.019531 "/>
<path style=" stroke:none;fill-rule:nonzero;fill:rgb(19.607843%,36.862745%,39.215686%);fill-opacity:1;" d="M 170.117188 450.769531 C 169.914062 450.667969 169.734375 450.566406 169.582031 450.464844 C 169.429688 450.3125 169.304688 450.132812 169.203125 449.929688 C 169.152344 449.726562 169.125 449.523438 169.125 449.320312 C 169.125 449.117188 169.175781 448.910156 169.277344 448.707031 C 169.328125 448.503906 169.429688 448.351562 169.582031 448.25 C 169.734375 448.097656 169.914062 447.96875 170.117188 447.867188 C 170.269531 447.765625 170.449219 447.714844 170.652344 447.714844 C 171.417969 447.664062 172.179688 447.613281 172.945312 447.5625 C 173.757812 447.5625 174.546875 447.535156 175.3125 447.484375 C 176.078125 447.484375 176.839844 447.511719 177.605469 447.5625 C 178.367188 447.613281 179.132812 447.664062 179.894531 447.714844 C 180.097656 447.714844 180.277344 447.765625 180.429688 447.867188 C 180.632812 447.917969 180.8125 448.019531 180.964844 448.171875 C 181.117188 448.328125 181.246094 448.503906 181.347656 448.707031 C 181.398438 448.859375 181.421875 449.066406 181.421875 449.320312 C 181.421875 449.523438 181.398438 449.703125 181.347656 449.855469 C 181.246094 450.058594 181.117188 450.234375 180.964844 450.390625 C 180.8125 450.542969 180.660156 450.667969 180.507812 450.769531 C 180.304688 450.820312 180.097656 450.847656 179.894531 450.847656 C 179.132812 450.796875 178.367188 450.746094 177.605469 450.695312 C 176.839844 450.695312 176.078125 450.695312 175.3125 450.695312 C 174.546875 450.695312 173.757812 450.695312 172.945312 450.695312 C 172.179688 450.746094 171.417969 450.820312 170.652344 450.921875 C 170.449219 450.921875 170.269531 450.871094 170.117188 450.769531 Z M 170.117188 450.769531 "/>
<path style=" stroke:none;fill-rule:nonzero;fill:rgb(19.607843%,36.862745%,39.215686%);fill-opacity:1;" d="M 179.894531 450.921875 C 179.84375 450.921875 179.769531 450.921875 179.667969 450.921875 C 179.617188 450.921875 179.566406 450.898438 179.515625 450.847656 C 179.410156 450.847656 179.335938 450.820312 179.285156 450.769531 C 179.234375 450.769531 179.183594 450.746094 179.132812 450.695312 L 178.828125 450.464844 C 178.777344 450.414062 178.722656 450.363281 178.671875 450.3125 C 178.621094 450.261719 178.570312 450.210938 178.519531 450.160156 C 178.519531 450.109375 178.496094 450.03125 178.445312 449.929688 C 178.445312 449.878906 178.417969 449.828125 178.367188 449.777344 L 178.367188 449.320312 C 178.316406 449.269531 178.316406 449.21875 178.367188 449.167969 C 178.367188 449.117188 178.367188 449.066406 178.367188 449.015625 C 178.367188 448.964844 178.367188 448.910156 178.367188 448.859375 C 178.417969 448.808594 178.445312 448.757812 178.445312 448.707031 C 178.496094 448.65625 178.519531 448.605469 178.519531 448.554688 C 178.519531 448.503906 178.546875 448.480469 178.597656 448.480469 C 178.648438 448.429688 178.671875 448.378906 178.671875 448.328125 C 178.722656 448.277344 178.777344 448.25 178.828125 448.25 C 178.828125 448.199219 178.851562 448.148438 178.902344 448.097656 C 178.953125 448.046875 179.003906 448.019531 179.054688 448.019531 C 179.054688 447.96875 179.082031 447.945312 179.132812 447.945312 C 179.183594 447.945312 179.234375 447.917969 179.285156 447.867188 C 179.335938 447.867188 179.386719 447.84375 179.4375 447.792969 C 179.488281 447.792969 179.539062 447.792969 179.589844 447.792969 C 179.640625 447.792969 179.691406 447.765625 179.742188 447.714844 C 179.792969 447.714844 179.84375 447.714844 179.894531 447.714844 C 179.945312 447.714844 179.996094 447.742188 180.046875 447.792969 C 180.097656 447.792969 180.152344 447.792969 180.203125 447.792969 C 180.253906 447.792969 180.304688 447.792969 180.355469 447.792969 C 180.355469 447.792969 180.378906 447.792969 180.429688 447.792969 C 180.734375 447.84375 181.042969 447.894531 181.347656 447.945312 C 181.449219 447.945312 181.527344 447.96875 181.578125 448.019531 C 181.628906 448.019531 181.679688 448.046875 181.730469 448.097656 C 181.78125 448.097656 181.832031 448.121094 181.882812 448.171875 C 181.933594 448.222656 181.984375 448.277344 182.035156 448.328125 L 182.339844 448.632812 C 182.339844 448.683594 182.367188 448.757812 182.417969 448.859375 C 182.417969 448.910156 182.441406 448.964844 182.492188 449.015625 C 182.492188 449.066406 182.492188 449.140625 182.492188 449.242188 C 182.492188 449.292969 182.492188 449.371094 182.492188 449.472656 L 182.492188 449.855469 C 182.441406 449.957031 182.390625 450.058594 182.339844 450.160156 C 182.289062 450.210938 182.238281 450.285156 182.1875 450.390625 C 182.136719 450.492188 182.058594 450.566406 181.957031 450.617188 C 181.90625 450.667969 181.832031 450.71875 181.730469 450.769531 C 181.679688 450.820312 181.628906 450.847656 181.578125 450.847656 C 181.578125 450.898438 181.550781 450.921875 181.5 450.921875 C 181.449219 450.921875 181.398438 450.949219 181.347656 451 C 181.296875 451 181.246094 451 181.195312 451 C 181.144531 451 181.09375 451 181.042969 451 C 180.941406 451 180.863281 451 180.8125 451 C 180.761719 451 180.710938 451 180.660156 451 C 180.609375 451 180.558594 451 180.507812 451 L 180.125 450.921875 L 180.582031 451 C 180.53125 451 180.480469 450.972656 180.429688 450.921875 C 180.378906 450.921875 180.328125 450.921875 180.277344 450.921875 C 180.226562 450.921875 180.175781 450.921875 180.125 450.921875 C 180.074219 450.921875 180.023438 450.921875 179.972656 450.921875 Z M 179.894531 450.921875 "/>
<path style=" stroke:none;fill-rule:nonzero;fill:rgb(19.607843%,36.862745%,39.215686%);fill-opacity:1;" d="M 181.421875 451.152344 C 183.410156 451.152344 183.410156 448.019531 181.421875 448.019531 C 179.359375 448.019531 179.359375 451.152344 181.421875 451.152344 Z M 181.421875 451.152344 "/>
<path style=" stroke:none;fill-rule:nonzero;fill:rgb(19.607843%,36.862745%,39.215686%);fill-opacity:1;" d="M 181.5 451.230469 C 183.5625 451.230469 183.5625 448.019531 181.5 448.019531 C 179.4375 448.019531 179.4375 451.230469 181.5 451.230469 Z M 181.5 451.230469 "/>
<path style=" stroke:none;fill-rule:nonzero;fill:rgb(19.607843%,36.862745%,39.215686%);fill-opacity:1;" d="M 182.1875 451.839844 C 184.171875 451.839844 184.171875 448.707031 182.1875 448.707031 C 180.125 448.707031 180.125 451.839844 182.1875 451.839844 Z M 182.1875 451.839844 "/>
<path style=" stroke:none;fill-rule:nonzero;fill:rgb(19.607843%,36.862745%,39.215686%);fill-opacity:1;" d="M 194.5625 452.296875 C 194.179688 452.296875 193.796875 452.144531 193.492188 451.839844 C 193.1875 451.535156 193.035156 451.152344 193.035156 450.769531 C 193.035156 450.3125 193.1875 449.929688 193.492188 449.625 C 193.796875 449.320312 194.179688 449.167969 194.5625 449.167969 C 195.070312 449.167969 195.554688 449.167969 196.015625 449.167969 C 196.472656 449.167969 196.957031 449.140625 197.464844 449.089844 C 197.921875 449.039062 198.382812 448.988281 198.839844 448.9375 C 199.296875 448.886719 199.78125 448.808594 200.292969 448.707031 C 202.226562 448.453125 204.1875 448.171875 206.171875 447.867188 C 206.378906 447.816406 206.582031 447.816406 206.785156 447.867188 C 206.988281 447.867188 207.167969 447.917969 207.320312 448.019531 C 207.523438 448.121094 207.675781 448.25 207.777344 448.402344 C 207.929688 448.605469 208.03125 448.785156 208.082031 448.9375 C 208.132812 449.140625 208.160156 449.371094 208.160156 449.625 C 208.109375 449.828125 208.03125 450.007812 207.929688 450.160156 C 207.828125 450.363281 207.703125 450.515625 207.546875 450.617188 C 207.34375 450.769531 207.167969 450.871094 207.015625 450.921875 C 204.976562 451.230469 202.941406 451.535156 200.902344 451.839844 C 200.34375 451.890625 199.808594 451.96875 199.296875 452.070312 C 198.789062 452.121094 198.253906 452.171875 197.695312 452.222656 C 197.183594 452.273438 196.675781 452.296875 196.167969 452.296875 C 195.605469 452.296875 195.070312 452.296875 194.5625 452.296875 Z M 194.5625 452.296875 "/>
</g>
</svg>
