<?xml version="1.0" encoding="UTF-8"?>
<svg xmlns="http://www.w3.org/2000/svg" xmlns:xlink="http://www.w3.org/1999/xlink" width="550px" height="px" viewBox="0 0 550 550" version="1.1">
<g id="surface1">
<path style="fill-rule:nonzero;fill:rgb(19.607843%,36.862745%,39.215686%);fill-opacity:1;stroke-width:0.6;stroke-linecap:butt;stroke-linejoin:miter;stroke:rgb(19.607843%,36.862745%,39.215686%);stroke-opacity:1;stroke-miterlimit:4;" d="M 608.901136 188.601136 L 608.901136 503.800568 C 608.901136 507.201136 608.200568 510.601705 606.901705 513.700568 C 605.7 516.799432 603.797727 519.601705 601.399432 522 C 599.001136 524.398295 596.198864 526.300568 593.1 527.599432 C 589.898864 528.801136 586.600568 529.501705 583.2 529.501705 L 136.697727 529.501705 C 133.302273 529.501705 129.998864 528.801136 126.9 527.599432 C 123.698864 526.300568 120.901705 524.398295 118.498295 522 C 116.1 519.601705 114.3 516.799432 113.001136 513.700568 C 111.702273 510.601705 111.001705 507.201136 111.001705 503.800568 L 111.001705 188.601136 C 111.001705 185.297727 111.702273 181.902273 113.001136 178.798295 C 114.3 175.699432 116.1 172.902273 118.498295 170.498864 C 120.901705 168.100568 123.698864 166.198295 126.9 164.899432 C 129.998864 163.600568 133.302273 163.002273 136.697727 162.9 L 176.297727 162.9 L 176.297727 177.898295 L 136.697727 177.898295 C 135.301705 177.898295 133.900568 178.2 132.601705 178.701136 C 131.297727 179.299432 130.101136 180.102273 129.098864 181.099432 C 128.101705 182.101705 127.298864 183.201136 126.797727 184.5 C 126.199432 185.798864 126 187.2 126 188.601136 L 126 503.800568 C 126 505.201705 126.199432 506.597727 126.797727 507.901705 C 127.298864 509.200568 128.101705 510.402273 129.098864 511.399432 C 130.101136 512.401705 131.297727 513.199432 132.601705 513.700568 C 133.900568 514.298864 135.301705 514.600568 136.697727 514.600568 L 583.2 514.600568 C 584.601136 514.600568 586.002273 514.298864 587.301136 513.700568 C 588.6 513.199432 589.801705 512.401705 590.798864 511.399432 C 591.801136 510.402273 592.598864 509.200568 593.1 507.901705 C 593.698295 506.597727 593.897727 505.298864 594 503.800568 L 594 188.601136 C 593.897727 187.2 593.698295 185.798864 593.1 184.5 C 592.598864 183.201136 591.801136 182.101705 590.798864 181.099432 C 589.801705 180.102273 588.6 179.299432 587.301136 178.701136 C 586.002273 178.2 584.601136 177.898295 583.2 177.898295 L 531.199432 177.898295 L 531.199432 162.9 L 583.2 162.9 C 586.600568 163.002273 589.898864 163.600568 592.997727 164.899432 C 596.198864 166.198295 599.001136 168.100568 601.399432 170.498864 C 603.797727 172.902273 605.7 175.699432 606.901705 178.798295 C 608.200568 181.902273 608.901136 185.297727 608.901136 188.601136 Z M 608.901136 188.601136 " transform="matrix(0.763889,0,0,0.763889,0,0)"/>
<path style="fill-rule:nonzero;fill:rgb(19.607843%,36.862745%,39.215686%);fill-opacity:1;stroke-width:0.6;stroke-linecap:butt;stroke-linejoin:miter;stroke:rgb(19.607843%,36.862745%,39.215686%);stroke-opacity:1;stroke-miterlimit:4;" d="M 582.898295 203.200568 L 582.898295 453.298295 L 136.999432 453.298295 L 136.999432 203.200568 L 173.198864 203.4 L 173.198864 218.398295 L 151.997727 218.198864 L 151.997727 438.402273 L 188.601136 438.402273 L 188.601136 441.398864 L 546.499432 441.398864 L 546.499432 438.402273 L 567.9 438.402273 L 567.9 218.198864 L 531.199432 218.198864 L 531.199432 203.200568 Z M 582.898295 203.200568 " transform="matrix(0.763889,0,0,0.763889,0,0)"/>
<path style="fill-rule:evenodd;fill:rgb(19.607843%,36.862745%,39.215686%);fill-opacity:1;stroke-width:0.6;stroke-linecap:butt;stroke-linejoin:miter;stroke:rgb(19.607843%,36.862745%,39.215686%);stroke-opacity:1;stroke-miterlimit:4;" d="M 440.401705 604.298864 L 279.501136 604.298864 C 278.202273 604.298864 276.801136 604.002273 275.701705 603.301705 C 274.5 602.498864 273.497727 601.501705 272.899432 600.3 C 272.301136 599.098295 271.999432 597.702273 272.101705 596.398295 C 272.198864 595.002273 272.597727 593.698295 273.400568 592.598864 L 275.998295 588.799432 C 290.398295 568.298864 296.800568 545.502273 294.499432 522.797727 C 294.402273 521.800568 294.499432 520.701136 294.898295 519.698864 C 295.2 518.701705 295.701136 517.801705 296.401705 516.998864 C 297.102273 516.298295 298.002273 515.7 298.902273 515.198864 C 299.899432 514.8 300.901705 514.600568 302.001136 514.600568 L 417.901705 514.600568 C 419.001136 514.600568 419.998295 514.8 421.000568 515.198864 C 421.900568 515.7 422.800568 516.298295 423.501136 516.998864 C 424.201705 517.801705 424.697727 518.701705 424.999432 519.698864 C 425.398295 520.701136 425.500568 521.800568 425.398295 522.797727 C 423.102273 545.502273 429.499432 568.298864 443.899432 588.799432 L 446.502273 592.598864 C 447.3 593.698295 447.801136 595.002273 447.801136 596.398295 C 447.898295 597.702273 447.698864 599.098295 446.998295 600.3 C 446.4 601.501705 445.397727 602.498864 444.298295 603.301705 C 443.101705 604.002273 441.700568 604.298864 440.401705 604.298864 Z M 309.901705 529.501705 C 310.397727 550.099432 304.798295 570.497727 293.502273 589.397727 L 426.497727 589.397727 C 415.201705 570.497727 409.602273 550.099432 410.001136 529.501705 Z M 309.901705 529.501705 " transform="matrix(0.763889,0,0,0.763889,0,0)"/>
<path style="fill-rule:evenodd;fill:rgb(19.607843%,36.862745%,39.215686%);fill-opacity:1;stroke-width:0.6;stroke-linecap:butt;stroke-linejoin:miter;stroke:rgb(19.607843%,36.862745%,39.215686%);stroke-opacity:1;stroke-miterlimit:4;" d="M 459.797727 637.997727 L 260.1 637.997727 C 253.600568 637.997727 247.5 635.4 242.897727 630.9 C 238.300568 626.297727 235.8 620.1 235.8 613.697727 C 235.8 607.198295 238.300568 601.097727 242.897727 596.500568 C 247.5 591.898295 253.600568 589.397727 260.1 589.397727 L 459.797727 589.397727 C 466.302273 589.397727 472.5 591.898295 477 596.500568 C 481.602273 601.097727 484.097727 607.198295 484.097727 613.697727 C 484.097727 620.1 481.602273 626.297727 477 630.9 C 472.5 635.4 466.302273 637.997727 459.797727 637.997727 Z M 260.1 604.298864 C 257.599432 604.298864 255.201136 605.301136 253.498295 607.101136 C 251.698295 608.798864 250.701136 611.202273 250.701136 613.697727 C 250.701136 616.198295 251.698295 618.499432 253.498295 620.299432 C 255.201136 622.099432 257.599432 622.999432 260.1 622.999432 L 459.797727 622.999432 C 462.298295 622.999432 464.701705 622.099432 466.399432 620.299432 C 468.199432 618.499432 469.201705 616.198295 469.201705 613.697727 C 469.201705 611.202273 468.199432 608.798864 466.399432 607.101136 C 464.701705 605.301136 462.298295 604.298864 459.797727 604.298864 Z M 260.1 604.298864 " transform="matrix(0.763889,0,0,0.763889,0,0)"/>
<path style="fill:none;stroke-width:8.8;stroke-linecap:butt;stroke-linejoin:miter;stroke:rgb(19.607843%,36.862745%,39.215686%);stroke-opacity:1;stroke-miterlimit:4;" d="M 531.199432 137.398295 L 531.199432 445.602273 L 173.198864 445.602273 L 173.198864 137.500568 C 173.198864 121.198295 181.999432 112.397727 198.301705 112.397727 L 505.902273 112.397727 C 522.301705 112.397727 531.102273 121.101136 531.199432 137.398295 Z M 531.199432 137.398295 " transform="matrix(0.763889,0,0,0.763889,0,0)"/>
<path style="fill:none;stroke-width:8.8;stroke-linecap:butt;stroke-linejoin:miter;stroke:rgb(19.607843%,36.862745%,39.215686%);stroke-opacity:1;stroke-miterlimit:4;" d="M 193.699432 447.197727 C 189.501136 447.197727 188.299432 446.297727 188.299432 441.9 C 188.401705 382.101136 188.1 311.998295 187.997727 252.199432 C 187.900568 248.200568 188.800568 246.799432 192.998864 246.901705 C 202.198295 247.198295 211.397727 247.101136 220.5 246.998864 C 225 246.998864 228.6 245.597727 229.801705 240.698864 C 230.901136 235.902273 227.198864 231.898295 221.297727 231.801136 C 211.699432 231.601705 201.998864 231.601705 192.400568 231.801136 C 188.897727 231.898295 187.997727 230.901136 187.997727 227.500568 C 188.1 201.001705 188.1 174.400568 188.1 147.799432 C 188.1 140.200568 190.8 137.500568 198.501136 137.500568 C 301.034659 137.500568 403.568182 137.500568 506.101705 137.500568 C 513.598295 137.500568 516.298295 140.297727 516.298295 147.998864 C 516.298295 174.098864 516.201136 200.101705 516.400568 226.201705 C 516.400568 230.599432 515.301136 231.801136 510.801136 231.801136 C 429.197727 231.734659 347.635227 231.698864 266.098295 231.698864 C 265.566477 231.698864 265.034659 231.698864 264.497727 231.698864 C 263.965909 231.698864 263.434091 231.734659 262.902273 231.801136 C 262.365341 231.801136 261.833523 231.831818 261.301705 231.898295 C 260.764773 231.964773 260.232955 232.03125 259.701136 232.097727 C 255.998864 233.1 253.8 235.600568 253.999432 239.599432 C 254.198864 243.301705 256.198295 245.802273 259.900568 246.497727 C 260.432386 246.564205 261 246.635795 261.598295 246.702273 C 262.135227 246.76875 262.697727 246.835227 263.301136 246.901705 C 263.832955 246.901705 264.400568 246.932386 264.998864 246.998864 C 265.535795 246.998864 266.098295 246.998864 266.701705 246.998864 C 347.768182 247.065341 428.834659 247.034659 509.901136 246.901705 C 514.902273 246.901705 516.400568 248.001136 516.400568 253.201705 C 516.201136 312.197727 516.6 381.497727 516.6 440.498864 C 516.6 447.898295 517.699432 447.100568 510.197727 447.100568 C 457.598864 447.100568 404.800568 445.602273 352.201705 445.602273 C 299.301136 445.602273 246.6 447.100568 193.699432 447.197727 Z M 193.699432 447.197727 " transform="matrix(0.763889,0,0,0.763889,0,0)"/>
<path style=" stroke:none;fill-rule:evenodd;fill:rgb(19.607843%,36.862745%,39.215686%);fill-opacity:1;" d="M 160.265625 265.910156 C 160.265625 249.003906 160.265625 232.09375 160.265625 215.1875 C 160.265625 209.457031 162.171875 207.546875 167.902344 207.546875 C 201.71875 207.546875 235.507812 207.546875 269.269531 207.546875 C 275.152344 207.546875 277.214844 209.609375 277.214844 215.417969 C 277.265625 249.078125 277.265625 282.742188 277.214844 316.402344 C 277.214844 322.4375 275.078125 324.578125 269.042969 324.578125 C 235.53125 324.578125 201.996094 324.578125 168.4375 324.578125 C 162.171875 324.578125 160.265625 322.589844 160.265625 316.171875 C 160.265625 299.417969 160.265625 282.664062 160.265625 265.910156 Z M 219.234375 219.082031 C 204.570312 219.082031 189.980469 219.160156 175.3125 219.007812 C 172.5625 219.007812 171.644531 219.769531 171.722656 222.597656 C 171.824219 237.46875 171.824219 252.363281 171.722656 267.285156 C 171.722656 270.265625 172.257812 270.796875 175.234375 269.882812 C 184.9375 266.902344 194.257812 267.667969 202.8125 273.546875 C 208.542969 277.519531 213.964844 281.953125 219.769531 285.921875 C 226.570312 290.507812 233.75 290.8125 240.777344 286.152344 C 242.535156 285.007812 244.367188 283.859375 246.125 282.714844 C 251.167969 279.582031 256.515625 277.75 262.472656 278.359375 C 265.070312 278.667969 265.527344 277.902344 265.527344 275.535156 C 265.453125 257.890625 265.453125 240.242188 265.527344 222.597656 C 265.527344 219.769531 264.765625 219.007812 261.9375 219.082031 C 247.730469 219.160156 233.445312 219.082031 219.234375 219.082031 Z M 218.472656 312.8125 C 233.0625 312.8125 247.730469 312.734375 262.394531 312.8125 C 264.765625 312.8125 265.679688 312.203125 265.527344 309.679688 C 265.375 304.179688 265.453125 298.679688 265.527344 293.179688 C 265.605469 290.964844 264.839844 290.203125 262.625 289.972656 C 256.972656 289.285156 252.847656 292.109375 248.492188 295.015625 C 236.957031 302.652344 225.195312 303.339844 213.429688 295.472656 C 209.078125 292.570312 204.953125 289.285156 200.902344 286 C 192.882812 279.582031 184.328125 277.75 174.703125 282.257812 C 172.714844 283.171875 171.644531 284.320312 171.722656 286.765625 C 171.875 294.25 171.875 301.734375 171.722656 309.296875 C 171.644531 312.125 172.484375 312.890625 175.3125 312.8125 C 189.671875 312.734375 204.035156 312.8125 218.472656 312.8125 Z M 218.472656 312.8125 "/>
<path style=" stroke:none;fill-rule:evenodd;fill:rgb(19.607843%,36.862745%,39.215686%);fill-opacity:1;" d="M 185.394531 162.097656 C 179.515625 162.097656 173.707031 162.171875 167.828125 162.097656 C 161.640625 162.019531 159.269531 157.894531 162.328125 152.472656 C 168.132812 142.285156 173.988281 132.128906 179.894531 121.992188 C 183.105469 116.644531 188.070312 116.722656 191.203125 122.144531 C 197.058594 132.179688 202.890625 142.234375 208.695312 152.320312 C 211.828125 157.820312 209.382812 162.019531 203.042969 162.097656 C 197.160156 162.171875 191.277344 162.097656 185.394531 162.097656 Z M 194.332031 150.640625 L 185.546875 135.359375 C 182.492188 140.632812 179.742188 145.445312 176.765625 150.640625 Z M 194.332031 150.640625 "/>
<path style=" stroke:none;fill-rule:nonzero;fill:rgb(19.607843%,36.862745%,39.215686%);fill-opacity:1;" d="M 296.464844 125.125 C 312.355469 125.125 328.242188 125.125 344.132812 125.125 C 348.640625 125.125 351.160156 127.492188 350.777344 131.3125 C 350.546875 134.140625 348.945312 135.894531 346.117188 136.355469 C 345.8125 136.40625 345.507812 136.457031 345.203125 136.507812 C 344.894531 136.507812 344.589844 136.507812 344.285156 136.507812 C 343.980469 136.507812 343.671875 136.507812 343.367188 136.507812 C 343.0625 136.507812 342.730469 136.507812 342.375 136.507812 L 249.027344 136.507812 C 243.984375 136.429688 241.390625 134.445312 241.464844 130.703125 C 241.542969 127.109375 244.140625 125.125 248.875 125.125 C 255.597656 125.125 262.320312 125.125 269.117188 125.125 Z M 296.464844 125.125 "/>
<path style=" stroke:none;fill-rule:nonzero;fill:rgb(19.607843%,36.862745%,39.215686%);fill-opacity:1;" d="M 334.125 274.234375 C 321.140625 274.234375 308.152344 274.3125 295.167969 274.234375 C 293.484375 274.234375 291.347656 274.234375 290.203125 273.320312 C 288.671875 272.171875 287.222656 269.957031 287.296875 268.203125 C 287.296875 266.519531 288.902344 264.457031 290.429688 263.3125 C 291.652344 262.472656 293.792969 262.546875 295.472656 262.546875 C 321.242188 262.496094 346.984375 262.496094 372.703125 262.546875 C 374.304688 262.546875 376.367188 262.394531 377.4375 263.234375 C 378.964844 264.535156 380.796875 266.597656 380.796875 268.355469 C 380.796875 270.109375 379.042969 272.25 377.4375 273.472656 C 376.367188 274.390625 374.382812 274.234375 372.777344 274.234375 C 359.867188 274.234375 347.035156 274.234375 334.125 274.234375 Z M 334.125 274.234375 "/>
<path style=" stroke:none;fill-rule:nonzero;fill:rgb(19.607843%,36.862745%,39.215686%);fill-opacity:1;" d="M 333.820312 223.972656 C 320.679688 223.972656 307.542969 224.046875 294.480469 223.820312 C 293.867188 223.769531 293.28125 223.691406 292.722656 223.589844 C 292.109375 223.4375 291.527344 223.234375 290.964844 222.980469 C 290.40625 222.777344 289.894531 222.496094 289.4375 222.140625 C 288.929688 221.832031 288.445312 221.476562 287.984375 221.070312 C 285.617188 218.472656 287.222656 213.964844 290.660156 212.894531 C 291.117188 212.742188 291.550781 212.640625 291.957031 212.589844 C 292.367188 212.488281 292.796875 212.410156 293.257812 212.359375 C 293.664062 212.308594 294.097656 212.285156 294.554688 212.285156 C 294.964844 212.234375 295.394531 212.207031 295.855469 212.207031 C 321.316406 212.207031 346.804688 212.207031 372.320312 212.207031 C 373.082031 212.207031 373.847656 212.207031 374.535156 212.207031 C 378.734375 212.589844 381.027344 214.652344 381.027344 218.089844 C 381.027344 221.605469 378.582031 223.894531 374.304688 223.894531 C 360.785156 223.972656 347.339844 223.972656 333.820312 223.972656 Z M 333.820312 223.972656 "/>
<path style=" stroke:none;fill-rule:nonzero;fill:rgb(19.607843%,36.862745%,39.215686%);fill-opacity:1;" d="M 333.742188 248.953125 C 321.164062 248.953125 308.558594 248.953125 295.929688 248.953125 C 295.574219 248.953125 295.21875 248.953125 294.859375 248.953125 C 294.554688 248.953125 294.222656 248.953125 293.867188 248.953125 C 293.511719 248.902344 293.15625 248.875 292.796875 248.875 C 292.492188 248.824219 292.160156 248.773438 291.804688 248.722656 C 288.828125 248.265625 287.144531 246.355469 287.070312 243.375 C 286.992188 240.242188 288.75 238.257812 291.882812 237.644531 C 292.085938 237.59375 292.289062 237.570312 292.492188 237.570312 C 292.695312 237.519531 292.925781 237.492188 293.179688 237.492188 C 293.382812 237.492188 293.589844 237.492188 293.792969 237.492188 C 293.996094 237.492188 294.222656 237.519531 294.480469 237.570312 L 373.542969 237.570312 C 374.230469 237.570312 374.992188 237.492188 375.757812 237.570312 C 378.890625 237.875 381.105469 240.242188 381.027344 243.222656 C 380.953125 246.660156 379.042969 248.722656 375.679688 248.796875 C 368.957031 249.027344 362.234375 248.953125 355.515625 248.953125 C 348.257812 248.953125 341 248.953125 333.742188 248.953125 Z M 333.742188 248.953125 "/>
<path style=" stroke:none;fill-rule:nonzero;fill:rgb(19.607843%,36.862745%,39.215686%);fill-opacity:1;" d="M 333.972656 299.214844 C 321.242188 299.214844 308.507812 299.214844 295.777344 299.214844 C 295.421875 299.214844 295.066406 299.214844 294.707031 299.214844 C 294.351562 299.214844 294.019531 299.214844 293.714844 299.214844 C 293.359375 299.214844 293.003906 299.191406 292.644531 299.140625 C 292.339844 299.140625 292.007812 299.113281 291.652344 299.0625 C 288.671875 298.527344 287.070312 296.542969 287.070312 293.5625 C 287.070312 290.582031 288.671875 288.597656 291.578125 287.984375 C 291.882812 287.933594 292.160156 287.910156 292.417969 287.910156 C 292.722656 287.859375 293.003906 287.832031 293.257812 287.832031 C 293.5625 287.832031 293.84375 287.832031 294.097656 287.832031 C 294.402344 287.832031 294.683594 287.832031 294.9375 287.832031 L 373.234375 287.832031 C 374 287.832031 374.765625 287.859375 375.527344 287.910156 C 378.890625 288.140625 380.796875 289.894531 381.027344 293.332031 C 381.257812 296.542969 379.042969 299.0625 375.605469 299.140625 C 366.972656 299.292969 358.339844 299.214844 349.707031 299.214844 C 344.464844 299.214844 339.21875 299.214844 333.972656 299.214844 Z M 333.972656 299.214844 "/>
<path style=" stroke:none;fill-rule:nonzero;fill:rgb(19.607843%,36.862745%,39.215686%);fill-opacity:1;" d="M 269.195312 149.339844 C 275.839844 149.339844 282.484375 149.339844 289.054688 149.339844 C 293.792969 149.339844 296.390625 151.402344 296.542969 154.992188 C 296.617188 158.660156 293.867188 161.027344 289.054688 161.027344 C 275.660156 161.078125 262.292969 161.078125 248.953125 161.027344 C 244.0625 161.027344 241.390625 158.734375 241.464844 154.992188 C 241.617188 151.480469 244.214844 149.339844 248.875 149.339844 C 255.671875 149.339844 262.472656 149.339844 269.195312 149.339844 Z M 269.195312 149.339844 "/>
<path style=" stroke:none;fill-rule:nonzero;fill:rgb(19.607843%,36.862745%,39.215686%);fill-opacity:1;" d="M 311.742188 324.5 L 295.625 324.5 C 294.785156 324.5 293.867188 324.578125 293.027344 324.5 C 289.207031 324.117188 286.992188 321.902344 287.070312 318.617188 C 287.070312 315.410156 289.132812 312.964844 292.722656 312.890625 C 305.605469 312.683594 318.464844 312.683594 331.296875 312.890625 C 334.890625 312.964844 336.953125 315.484375 336.953125 318.695312 C 336.875 321.980469 334.660156 324.347656 330.839844 324.421875 C 324.421875 324.578125 318.082031 324.5 311.742188 324.5 Z M 311.742188 324.5 "/>
<path style=" stroke:none;fill-rule:evenodd;fill:rgb(19.607843%,36.862745%,39.215686%);fill-opacity:1;" d="M 254.757812 249.332031 C 254.757812 253.992188 252.847656 258.421875 249.5625 261.632812 C 246.277344 264.917969 241.847656 266.75 237.1875 266.75 C 232.605469 266.671875 228.171875 264.839844 224.890625 261.554688 C 221.679688 258.269531 219.847656 253.839844 219.847656 249.179688 C 219.847656 246.890625 220.304688 244.671875 221.222656 242.535156 C 222.140625 240.472656 223.359375 238.5625 224.964844 236.882812 C 226.570312 235.277344 228.480469 233.980469 230.617188 233.140625 C 232.679688 232.222656 234.972656 231.765625 237.1875 231.6875 C 246.8125 231.609375 254.757812 239.554688 254.757812 249.332031 Z M 237.1875 255.0625 C 239.554688 255.0625 241.617188 253.6875 242.535156 251.546875 C 243.453125 249.332031 242.992188 246.890625 241.390625 245.207031 C 239.785156 243.527344 237.265625 242.992188 235.125 243.832031 C 232.910156 244.671875 231.457031 246.734375 231.382812 249.027344 C 231.382812 249.84375 231.535156 250.605469 231.839844 251.320312 C 232.09375 252.03125 232.503906 252.667969 233.0625 253.230469 C 233.621094 253.839844 234.257812 254.296875 234.972656 254.605469 C 235.683594 254.910156 236.421875 255.0625 237.1875 255.0625 Z M 237.1875 255.0625 "/>
</g>
</svg>
