<?xml version="1.0" encoding="UTF-8"?>
<svg xmlns="http://www.w3.org/2000/svg" xmlns:xlink="http://www.w3.org/1999/xlink" width="250px" height="250px" viewBox="0 0 250 250" version="1.1">
<g id="surface1">
<path style=" stroke:none;fill-rule:evenodd;fill:rgb(19.607843%,36.862745%,39.215686%);fill-opacity:1;" d="M 196.042969 166.804688 L 196.042969 175.035156 C 198.644531 175.035156 201.109375 175.035156 203.609375 175.035156 C 206.007812 175.035156 206.910156 175.9375 206.910156 178.332031 C 206.933594 181.597656 206.933594 184.847656 206.910156 188.089844 C 206.910156 190.554688 206.007812 191.421875 203.472656 191.421875 C 201.042969 191.421875 198.609375 191.421875 196.078125 191.421875 L 196.078125 196.910156 L 202.257812 196.910156 C 202.882812 196.910156 203.507812 196.910156 204.132812 196.910156 C 205.867188 197.015625 206.945312 198.125 206.910156 199.722656 C 206.875 201.25 205.796875 202.328125 204.132812 202.359375 C 201.492188 202.394531 198.820312 202.359375 195.972656 202.359375 L 195.972656 213.230469 C 195.972656 215.070312 196.007812 216.875 195.972656 218.714844 C 195.9375 220.453125 194.929688 221.421875 193.195312 221.527344 C 192.742188 221.527344 192.292969 221.527344 191.839844 221.527344 L 46.769531 221.527344 C 43.367188 221.527344 42.707031 220.867188 42.707031 217.429688 C 42.707031 199.121094 42.707031 180.820312 42.707031 162.535156 C 42.707031 162.394531 42.707031 162.269531 42.707031 162.152344 C 42.707031 162.015625 42.707031 161.886719 42.707031 161.769531 C 42.707031 161.632812 42.707031 161.503906 42.707031 161.390625 C 42.730469 161.25 42.742188 161.121094 42.742188 161.007812 C 42.8125 160.3125 43.125 159.722656 43.644531 159.269531 C 44.167969 158.820312 44.792969 158.578125 45.484375 158.578125 C 46.144531 158.578125 46.804688 158.855469 47.292969 159.304688 C 47.777344 159.757812 48.089844 160.382812 48.160156 161.042969 C 48.160156 161.179688 48.171875 161.308594 48.195312 161.421875 C 48.195312 161.5625 48.195312 161.691406 48.195312 161.804688 C 48.195312 161.945312 48.195312 162.070312 48.195312 162.1875 C 48.195312 162.328125 48.195312 162.453125 48.195312 162.570312 L 48.195312 216.007812 L 113.890625 216.007812 C 113.890625 213.367188 113.890625 210.71875 113.890625 208.054688 C 113.890625 206.527344 114.582031 205.519531 116.042969 205.207031 C 117.777344 204.792969 119.304688 206.042969 119.339844 207.953125 C 119.375 210.589844 119.339844 213.265625 119.339844 216.007812 L 124.859375 216.007812 C 124.859375 213.367188 124.828125 210.695312 124.859375 208.054688 C 124.859375 206.421875 125.765625 205.347656 127.1875 205.171875 C 128.890625 204.929688 130.242188 206.109375 130.277344 207.953125 C 130.347656 210.589844 130.3125 213.195312 130.3125 215.9375 L 135.796875 215.9375 C 135.796875 213.507812 135.796875 211.042969 135.796875 208.542969 C 135.796875 206.320312 136.703125 205.171875 138.472656 205.140625 C 140.242188 205.140625 141.214844 206.320312 141.25 208.472656 C 141.25 210.9375 141.25 213.367188 141.25 215.972656 L 146.734375 215.972656 C 146.734375 213.507812 146.734375 211.007812 146.734375 208.542969 C 146.734375 206.320312 147.671875 205.171875 149.445312 205.140625 C 151.179688 205.140625 152.1875 206.320312 152.1875 208.507812 C 152.1875 210.9375 152.1875 213.402344 152.1875 215.972656 L 157.671875 215.972656 C 157.671875 213.496094 157.671875 211.019531 157.671875 208.542969 C 157.671875 206.320312 158.644531 205.140625 160.382812 205.140625 C 162.152344 205.140625 163.125 206.320312 163.125 208.507812 C 163.125 210.9375 163.125 213.402344 163.125 215.972656 L 168.609375 215.972656 C 168.609375 213.496094 168.609375 211.007812 168.609375 208.507812 C 168.609375 206.320312 169.582031 205.140625 171.355469 205.140625 C 173.125 205.140625 174.0625 206.320312 174.097656 208.507812 C 174.097656 210.972656 174.097656 213.402344 174.097656 215.972656 L 190.417969 215.972656 L 190.417969 62.8125 L 182.707031 62.8125 C 179.859375 62.8125 177.015625 62.847656 174.167969 62.8125 C 172.429688 62.777344 171.320312 61.632812 171.355469 60.035156 C 171.390625 58.507812 172.464844 57.394531 174.097656 57.359375 C 180.484375 57.339844 186.863281 57.339844 193.230469 57.359375 C 194.964844 57.359375 195.9375 58.4375 195.972656 60.207031 C 196.007812 61.910156 195.972656 63.609375 195.972656 65.554688 C 197.742188 65.554688 199.410156 65.554688 201.109375 65.554688 C 203.019531 65.589844 204.167969 66.597656 204.167969 68.265625 C 204.203125 69.894531 203.054688 70.972656 201.179688 71.007812 C 200.3125 71.007812 199.480469 71.007812 198.609375 71.007812 L 196.078125 71.007812 L 196.078125 76.492188 C 197.742188 76.492188 199.445312 76.457031 201.144531 76.492188 C 203.019531 76.527344 204.167969 77.535156 204.167969 79.203125 C 204.167969 80.867188 203.019531 81.910156 201.144531 81.945312 C 200.3125 81.980469 199.445312 81.945312 198.578125 81.945312 L 196.109375 81.945312 L 196.109375 87.429688 C 197.777344 87.429688 199.480469 87.429688 201.144531 87.429688 C 203.054688 87.464844 204.167969 88.507812 204.167969 90.171875 C 204.167969 91.804688 203.019531 92.847656 201.144531 92.882812 C 199.515625 92.917969 197.847656 92.882812 196.078125 92.882812 L 196.078125 109.304688 C 198.597656 109.304688 201.097656 109.304688 203.578125 109.304688 C 205.972656 109.304688 206.910156 110.242188 206.910156 112.570312 C 206.910156 122.269531 206.910156 131.96875 206.910156 141.667969 C 206.910156 143.714844 205.902344 144.859375 204.203125 144.859375 C 202.5 144.859375 201.457031 143.714844 201.457031 141.703125 C 201.457031 133.4375 201.457031 125.171875 201.457031 116.910156 L 201.457031 114.894531 L 196.078125 114.894531 L 196.078125 161.25 L 201.457031 161.25 C 201.457031 158.644531 201.492188 155.972656 201.457031 153.332031 C 201.457031 151.980469 202.046875 151.007812 203.296875 150.554688 C 203.679688 150.382812 204.132812 150.347656 204.546875 150.382812 C 204.964844 150.417969 205.382812 150.589844 205.730469 150.832031 C 206.078125 151.078125 206.390625 151.390625 206.597656 151.769531 C 206.804688 152.152344 206.910156 152.570312 206.910156 153.019531 C 206.980469 156.703125 206.945312 160.417969 206.910156 164.132812 C 206.875 165.796875 205.796875 166.769531 204.027344 166.804688 C 202.707031 166.839844 201.390625 166.804688 200.070312 166.804688 Z M 196.078125 185.867188 L 201.320312 185.867188 L 201.320312 180.554688 L 196.078125 180.554688 Z M 196.078125 185.867188 "/>
<path style=" stroke:none;fill-rule:evenodd;fill:rgb(19.607843%,36.862745%,39.215686%);fill-opacity:1;" d="M 91.980469 125.730469 L 97.464844 125.730469 L 97.464844 75 C 97.464844 74.859375 97.464844 74.734375 97.464844 74.617188 C 97.464844 74.480469 97.464844 74.351562 97.464844 74.234375 C 97.464844 74.097656 97.464844 73.96875 97.464844 73.855469 C 97.488281 73.714844 97.5 73.589844 97.5 73.472656 C 97.570312 72.777344 97.882812 72.1875 98.402344 71.734375 C 98.890625 71.285156 99.546875 71.042969 100.207031 71.042969 C 100.902344 71.042969 101.527344 71.285156 102.046875 71.734375 C 102.535156 72.1875 102.847656 72.8125 102.917969 73.472656 C 102.917969 73.589844 102.929688 73.691406 102.953125 73.785156 C 102.953125 73.878906 102.953125 73.980469 102.953125 74.097656 C 102.953125 74.191406 102.953125 74.28125 102.953125 74.375 C 102.953125 74.46875 102.953125 74.570312 102.953125 74.6875 C 102.953125 92.304688 102.953125 109.917969 102.953125 127.535156 C 102.953125 130.453125 102.152344 131.25 99.167969 131.25 L 68.195312 131.25 C 65.484375 131.25 64.617188 130.382812 64.617188 127.671875 C 64.617188 109.941406 64.617188 92.210938 64.617188 74.480469 C 64.617188 71.910156 65.484375 71.042969 68.125 71.042969 C 74.839844 71.042969 81.5625 71.042969 88.296875 71.042969 C 91.144531 71.042969 91.980469 71.839844 91.980469 74.6875 C 91.980469 90.984375 91.980469 107.28125 91.980469 123.578125 Z M 70.207031 76.597656 L 70.207031 125.625 L 75.484375 125.625 L 75.484375 76.597656 Z M 81.144531 76.597656 L 81.144531 125.625 L 86.421875 125.625 L 86.421875 76.597656 Z M 81.144531 76.597656 "/>
<path style=" stroke:none;fill-rule:evenodd;fill:rgb(19.607843%,36.862745%,39.215686%);fill-opacity:1;" d="M 132.984375 98.402344 L 132.984375 92.917969 C 131.25 92.917969 129.546875 92.953125 127.847656 92.917969 C 125.972656 92.882812 124.828125 91.839844 124.828125 90.207031 C 124.828125 88.542969 125.972656 87.5 127.847656 87.464844 C 129.515625 87.464844 131.144531 87.464844 132.671875 87.464844 C 133.054688 85.867188 132.953125 83.921875 133.890625 82.984375 C 134.792969 82.015625 136.703125 82.046875 138.507812 81.527344 C 138.507812 80.417969 138.507812 78.890625 138.507812 77.359375 C 138.507812 75 139.375 73.820312 141.179688 73.785156 C 142.984375 73.785156 143.957031 74.964844 143.957031 77.292969 C 143.957031 78.65625 143.96875 80.023438 143.992188 81.390625 C 143.992188 81.433594 143.992188 81.480469 143.992188 81.527344 C 143.992188 81.550781 143.992188 81.585938 143.992188 81.632812 C 144.015625 81.679688 144.027344 81.714844 144.027344 81.734375 C 144.027344 81.78125 144.039062 81.828125 144.0625 81.875 L 149.445312 81.875 C 149.445312 80.207031 149.445312 78.542969 149.445312 76.839844 C 149.480469 74.929688 150.484375 73.820312 152.152344 73.785156 C 153.785156 73.785156 154.859375 74.894531 154.894531 76.804688 C 154.929688 78.4375 154.894531 80.105469 154.894531 81.875 L 160.382812 81.875 C 160.382812 80.207031 160.382812 78.507812 160.382812 76.839844 C 160.417969 74.929688 161.457031 73.785156 163.125 73.785156 C 164.757812 73.785156 165.832031 74.929688 165.867188 76.804688 C 165.867188 78.4375 165.867188 80.105469 165.867188 81.632812 C 167.464844 82.015625 169.375 81.910156 170.347656 82.8125 C 171.285156 83.75 171.285156 85.660156 171.804688 87.464844 C 172.984375 87.464844 174.546875 87.464844 176.109375 87.464844 C 178.332031 87.464844 179.515625 88.402344 179.546875 90.140625 C 179.546875 91.980469 178.367188 92.917969 176.042969 92.917969 C 174.652344 92.917969 173.296875 92.917969 171.945312 92.953125 C 171.898438 92.953125 171.851562 92.953125 171.804688 92.953125 C 171.78125 92.953125 171.746094 92.964844 171.703125 92.984375 C 171.65625 92.984375 171.621094 92.984375 171.597656 92.984375 C 171.550781 92.984375 171.503906 92.996094 171.457031 93.019531 L 171.457031 98.402344 C 173.125 98.402344 174.792969 98.402344 176.492188 98.402344 C 178.367188 98.4375 179.515625 99.480469 179.546875 101.109375 C 179.546875 102.777344 178.402344 103.855469 176.527344 103.855469 C 174.894531 103.890625 173.230469 103.855469 171.457031 103.855469 L 171.457031 109.339844 C 173.125 109.339844 174.828125 109.339844 176.492188 109.339844 C 178.402344 109.375 179.515625 110.417969 179.546875 112.046875 C 179.546875 113.714844 178.402344 114.757812 176.527344 114.792969 C 174.894531 114.828125 173.332031 114.828125 171.734375 114.859375 C 171.667969 114.859375 171.632812 114.894531 171.667969 114.859375 C 171.320312 116.421875 171.390625 118.332031 170.484375 119.304688 C 169.582031 120.242188 167.640625 120.242188 165.867188 120.765625 C 165.867188 122.046875 165.867188 123.714844 165.867188 125.417969 C 165.832031 127.328125 164.828125 128.472656 163.160156 128.472656 C 161.527344 128.507812 160.453125 127.359375 160.417969 125.484375 C 160.382812 123.855469 160.417969 122.1875 160.417969 120.417969 L 154.929688 120.417969 C 154.929688 122.082031 154.929688 123.75 154.929688 125.453125 C 154.894531 127.328125 153.855469 128.472656 152.222656 128.507812 C 150.554688 128.507812 149.515625 127.359375 149.480469 125.484375 C 149.445312 124.617188 149.480469 123.785156 149.480469 122.917969 L 149.480469 120.417969 L 143.992188 120.417969 C 143.992188 122.082031 143.992188 123.785156 143.992188 125.484375 C 143.957031 127.359375 142.882812 128.507812 141.25 128.507812 C 139.582031 128.507812 138.542969 127.359375 138.542969 125.453125 C 138.507812 123.820312 138.542969 122.152344 138.542969 120.660156 C 136.910156 120.277344 135 120.347656 134.027344 119.445312 C 133.054688 118.507812 133.089844 116.597656 132.570312 114.792969 C 131.285156 114.792969 129.582031 114.828125 127.882812 114.792969 C 126.007812 114.792969 124.859375 113.75 124.859375 112.117188 C 124.828125 110.453125 125.972656 109.410156 127.847656 109.375 C 128.679688 109.339844 129.546875 109.375 130.417969 109.375 L 132.917969 109.375 L 132.917969 103.855469 C 131.25 103.855469 129.582031 103.890625 127.882812 103.855469 C 126.007812 103.855469 124.859375 102.8125 124.859375 101.144531 C 124.828125 99.515625 125.972656 98.4375 127.847656 98.402344 C 128.714844 98.402344 129.582031 98.402344 130.417969 98.402344 Z M 138.644531 114.6875 L 165.796875 114.6875 L 165.796875 87.535156 L 138.644531 87.535156 Z M 138.644531 114.6875 "/>
<path style=" stroke:none;fill-rule:nonzero;fill:rgb(19.607843%,36.862745%,39.215686%);fill-opacity:1;" d="M 48.195312 62.8125 L 48.195312 149.0625 C 48.195312 149.222656 48.195312 149.375 48.195312 149.515625 C 48.195312 149.652344 48.195312 149.792969 48.195312 149.929688 C 48.195312 150.070312 48.195312 150.207031 48.195312 150.347656 C 48.195312 150.507812 48.183594 150.660156 48.160156 150.796875 C 48.054688 151.421875 47.742188 152.046875 47.257812 152.464844 C 46.734375 152.882812 46.109375 153.125 45.453125 153.125 C 44.792969 153.125 44.167969 152.882812 43.679688 152.464844 C 43.160156 152.015625 42.847656 151.421875 42.742188 150.765625 C 42.742188 150.648438 42.742188 150.53125 42.742188 150.417969 C 42.742188 150.300781 42.730469 150.183594 42.707031 150.070312 C 42.707031 149.976562 42.707031 149.871094 42.707031 149.757812 C 42.707031 149.640625 42.71875 149.527344 42.742188 149.410156 C 42.742188 119.988281 42.742188 90.566406 42.742188 61.144531 C 42.742188 58.089844 43.472656 57.359375 46.5625 57.359375 L 162.015625 57.359375 C 162.5 57.359375 162.953125 57.328125 163.402344 57.359375 C 164.894531 57.5 164.894531 62.640625 163.472656 62.777344 C 163.332031 62.800781 163.195312 62.8125 163.054688 62.8125 C 162.917969 62.8125 162.777344 62.8125 162.640625 62.8125 C 162.5 62.8125 162.359375 62.8125 162.222656 62.8125 C 162.058594 62.8125 161.910156 62.8125 161.769531 62.8125 Z M 48.195312 62.8125 "/>
<path style=" stroke:none;fill-rule:evenodd;fill:rgb(19.607843%,36.862745%,39.215686%);fill-opacity:1;" d="M 149.375 172.292969 C 138.703125 172.292969 128.042969 172.292969 117.394531 172.292969 C 114.757812 172.292969 113.890625 171.421875 113.890625 168.820312 C 113.890625 163.796875 113.890625 158.785156 113.890625 153.785156 C 113.890625 151.285156 114.792969 150.417969 117.292969 150.417969 L 181.597656 150.417969 C 184.132812 150.417969 185.035156 151.320312 185.035156 153.785156 C 185.035156 158.855469 185.035156 163.921875 185.035156 168.992188 C 185.035156 171.355469 184.097656 172.292969 181.703125 172.292969 C 170.914062 172.292969 160.140625 172.292969 149.375 172.292969 Z M 168.542969 155.972656 L 163.265625 155.972656 C 162.8125 160.453125 162.359375 161.421875 160.453125 161.320312 C 156.839844 161.078125 157.917969 158.089844 157.605469 155.972656 L 152.257812 155.972656 C 151.980469 158.125 152.984375 161.109375 149.652344 161.25 C 145.902344 161.421875 146.945312 158.125 146.667969 155.972656 L 141.285156 155.972656 C 141.078125 158.125 142.015625 161.109375 138.714844 161.25 C 134.964844 161.421875 136.007812 158.125 135.730469 155.972656 L 130.347656 155.972656 C 130.105469 158.125 131.078125 161.109375 127.742188 161.25 C 123.992188 161.390625 125.070312 158.125 124.757812 155.972656 L 119.480469 155.972656 L 119.480469 166.667969 L 179.480469 166.667969 L 179.480469 155.972656 L 174.203125 155.972656 C 173.75 160.453125 173.195312 161.421875 171.214844 161.320312 C 169.269531 161.25 168.785156 160.277344 168.542969 155.972656 Z M 168.542969 155.972656 "/>
<path style=" stroke:none;fill-rule:nonzero;fill:rgb(19.607843%,36.862745%,39.215686%);fill-opacity:1;" d="M 179.480469 194.203125 L 179.480469 183.332031 L 174.167969 183.332031 C 173.855469 185.484375 174.894531 188.785156 171.144531 188.609375 C 167.847656 188.472656 168.820312 185.484375 168.578125 183.332031 L 163.195312 183.332031 C 162.917969 185.484375 163.957031 188.4375 160.347656 188.679688 C 158.472656 188.820312 158.019531 187.847656 157.535156 183.332031 L 152.257812 183.332031 C 151.980469 185.484375 152.984375 188.679688 149.410156 188.609375 C 145.9375 188.578125 146.910156 185.519531 146.667969 183.332031 L 141.285156 183.332031 C 141.042969 185.519531 142.046875 188.679688 138.4375 188.609375 C 134.964844 188.578125 136.007812 185.519531 135.695312 183.332031 L 130.347656 183.332031 C 130.070312 185.519531 131.078125 188.679688 127.5 188.609375 C 124.027344 188.578125 125.035156 185.484375 124.757812 183.332031 L 119.480469 183.332031 L 119.480469 194.203125 L 121.25 194.203125 C 132.316406 194.203125 143.367188 194.203125 154.410156 194.203125 C 156.320312 194.203125 157.464844 195.035156 157.640625 196.527344 C 157.882812 198.296875 156.667969 199.652344 154.6875 199.652344 C 149.859375 199.6875 145 199.652344 140.171875 199.652344 L 117.570312 199.652344 C 114.722656 199.652344 113.890625 198.855469 113.890625 196.042969 C 113.890625 191.019531 113.890625 186.007812 113.890625 181.007812 C 113.890625 178.714844 114.828125 177.777344 117.082031 177.777344 C 138.632812 177.777344 160.183594 177.777344 181.734375 177.777344 C 184.097656 177.777344 185.035156 178.679688 185.035156 181.078125 C 185.035156 186.144531 185.035156 191.214844 185.035156 196.285156 C 185.035156 198.679688 184.097656 199.652344 181.769531 199.652344 C 176.632812 199.652344 171.503906 199.652344 166.390625 199.652344 C 164.304688 199.652344 163.160156 198.644531 163.160156 196.945312 C 163.125 195.242188 164.304688 194.203125 166.320312 194.203125 C 170.660156 194.167969 174.964844 194.203125 179.480469 194.203125 Z M 179.480469 194.203125 "/>
<path style=" stroke:none;fill-rule:nonzero;fill:rgb(19.607843%,36.862745%,39.215686%);fill-opacity:1;" d="M 102.882812 194.203125 L 102.882812 166.945312 L 59.234375 166.945312 L 59.234375 194.203125 L 61.007812 194.203125 C 69.386719 194.203125 77.765625 194.203125 86.144531 194.203125 C 87.464844 194.203125 88.644531 194.582031 88.957031 195.867188 C 89.167969 196.734375 88.992188 197.953125 88.507812 198.679688 C 88.089844 199.269531 86.945312 199.617188 86.144531 199.617188 C 76.390625 199.6875 66.632812 199.6875 56.875 199.652344 C 54.617188 199.652344 53.679688 198.679688 53.679688 196.421875 C 53.679688 185.820312 53.679688 175.21875 53.679688 164.617188 C 53.679688 162.328125 54.617188 161.355469 56.875 161.355469 C 73.007812 161.355469 89.144531 161.355469 105.277344 161.355469 C 107.429688 161.355469 108.402344 162.328125 108.402344 164.515625 C 108.402344 175.160156 108.402344 185.820312 108.402344 196.492188 C 108.402344 198.644531 107.429688 199.652344 105.277344 199.652344 C 102.777344 199.675781 100.277344 199.675781 97.777344 199.652344 C 95.867188 199.652344 94.722656 198.609375 94.722656 196.945312 C 94.722656 195.3125 95.832031 194.234375 97.742188 194.203125 C 98.578125 194.167969 99.445312 194.203125 100.3125 194.203125 Z M 102.882812 194.203125 "/>
<path style=" stroke:none;fill-rule:evenodd;fill:rgb(19.607843%,36.862745%,39.215686%);fill-opacity:1;" d="M 83.679688 144.792969 C 83.703125 144.746094 83.714844 144.699219 83.714844 144.652344 C 83.738281 144.605469 83.75 144.558594 83.75 144.515625 C 83.75 144.46875 83.75 144.410156 83.75 144.339844 C 83.773438 144.292969 83.785156 144.246094 83.785156 144.203125 C 83.472656 139.894531 84.757812 139.269531 88.714844 139.445312 C 91.355469 139.546875 93.957031 139.445312 96.597656 139.445312 C 99.339844 139.445312 100.171875 140.277344 100.171875 142.984375 C 100.171875 143.542969 100.171875 144.132812 100.171875 144.929688 C 101.109375 144.929688 101.910156 144.894531 102.742188 144.929688 C 104.515625 145 105.625 146.007812 105.660156 147.605469 C 105.695312 149.269531 104.546875 150.347656 102.671875 150.382812 C 101.945312 150.417969 101.179688 150.382812 100.171875 150.382812 C 100.171875 151.320312 100.207031 152.1875 100.171875 153.089844 C 100.105469 154.792969 99.132812 155.832031 97.359375 155.832031 C 93.773438 155.878906 90.183594 155.878906 86.597656 155.832031 C 84.792969 155.832031 83.855469 154.792969 83.785156 152.917969 C 83.75 152.152344 83.785156 151.355469 83.785156 150.484375 L 78.296875 150.484375 C 78.296875 151.25 78.296875 152.082031 78.296875 152.917969 C 78.230469 154.792969 77.292969 155.832031 75.484375 155.832031 C 71.898438 155.878906 68.308594 155.878906 64.722656 155.832031 C 62.953125 155.832031 61.980469 154.828125 61.910156 153.089844 C 61.875 152.257812 61.910156 151.421875 61.910156 150.484375 C 59.652344 150.171875 56.703125 151.214844 56.457031 147.640625 C 56.320312 145.695312 57.222656 145.277344 61.910156 144.792969 C 61.910156 143.992188 61.875 143.160156 61.910156 142.328125 C 61.945312 140.554688 62.917969 139.515625 64.617188 139.480469 C 68.253906 139.433594 71.898438 139.433594 75.554688 139.480469 C 77.257812 139.515625 78.230469 140.554688 78.296875 142.328125 C 78.332031 143.089844 78.296875 143.890625 78.296875 144.828125 Z M 67.429688 150.277344 L 72.707031 150.277344 L 72.707031 144.964844 L 67.429688 144.964844 Z M 89.339844 150.3125 L 94.617188 150.3125 L 94.617188 145.035156 L 89.339844 145.035156 Z M 89.339844 150.3125 "/>
<path style=" stroke:none;fill-rule:nonzero;fill:rgb(19.607843%,36.862745%,39.215686%);fill-opacity:1;" d="M 154.859375 144.929688 C 146.089844 144.929688 137.316406 144.929688 128.542969 144.929688 C 127.953125 144.929688 127.359375 145 126.839844 144.828125 C 125.484375 144.410156 124.722656 143.4375 124.828125 142.015625 C 124.964844 140.484375 125.832031 139.582031 127.359375 139.480469 C 129.097656 139.410156 130.867188 139.445312 132.640625 139.445312 L 180.730469 139.445312 C 181.179688 139.445312 181.632812 139.445312 182.082031 139.445312 C 183.890625 139.515625 185 140.519531 185.035156 142.117188 C 185.070312 143.785156 183.921875 144.894531 182.082031 144.894531 C 175.902344 144.929688 169.757812 144.894531 163.609375 144.894531 Z M 154.859375 144.929688 "/>
<path style=" stroke:none;fill-rule:evenodd;fill:rgb(19.607843%,36.862745%,39.215686%);fill-opacity:1;" d="M 72.953125 172.292969 C 74.617188 172.292969 76.285156 172.292969 77.917969 172.292969 C 80 172.328125 81.007812 173.265625 81.042969 175.277344 C 81.066406 178.75 81.066406 182.222656 81.042969 185.695312 C 81.007812 187.640625 80 188.679688 78.089844 188.679688 C 74.546875 188.726562 71.007812 188.726562 67.464844 188.679688 C 65.660156 188.679688 64.652344 187.640625 64.652344 185.796875 C 64.605469 182.257812 64.605469 178.714844 64.652344 175.171875 C 64.652344 173.332031 65.660156 172.328125 67.5 172.292969 C 69.339844 172.257812 71.144531 172.292969 72.953125 172.292969 Z M 75.484375 177.847656 L 70.171875 177.847656 L 70.171875 183.125 L 75.484375 183.125 Z M 75.484375 177.847656 "/>
<path style=" stroke:none;fill-rule:nonzero;fill:rgb(19.607843%,36.862745%,39.215686%);fill-opacity:1;" d="M 113.855469 80.695312 C 113.855469 82.8125 113.890625 84.929688 113.855469 87.015625 C 113.855469 89.027344 112.8125 90.207031 111.109375 90.171875 C 109.445312 90.140625 108.4375 89.027344 108.4375 87.117188 C 108.414062 82.789062 108.414062 78.449219 108.4375 74.097656 C 108.4375 72.1875 109.445312 71.078125 111.109375 71.042969 C 112.8125 71.007812 113.855469 72.1875 113.855469 74.203125 C 113.890625 76.355469 113.855469 78.542969 113.855469 80.695312 Z M 113.855469 80.695312 "/>
<path style=" stroke:none;fill-rule:nonzero;fill:rgb(19.607843%,36.862745%,39.215686%);fill-opacity:1;" d="M 53.679688 124.269531 C 53.679688 122.984375 53.644531 121.667969 53.679688 120.347656 C 53.714844 118.609375 54.859375 117.535156 56.457031 117.570312 C 57.984375 117.605469 59.097656 118.679688 59.132812 120.3125 C 59.179688 123.042969 59.179688 125.777344 59.132812 128.507812 C 59.097656 130.140625 57.953125 131.214844 56.421875 131.214844 C 54.894531 131.25 53.785156 130.171875 53.679688 128.578125 C 53.679688 128.460938 53.679688 128.34375 53.679688 128.230469 Z M 53.679688 124.269531 "/>
<path style=" stroke:none;fill-rule:nonzero;fill:rgb(19.607843%,36.862745%,39.215686%);fill-opacity:1;" d="M 108.402344 124.269531 C 108.402344 122.984375 108.367188 121.667969 108.402344 120.347656 C 108.472656 118.644531 109.617188 117.535156 111.214844 117.570312 C 112.742188 117.605469 113.820312 118.679688 113.855469 120.3125 C 113.902344 123.042969 113.902344 125.785156 113.855469 128.542969 C 113.820312 130.140625 112.671875 131.214844 111.144531 131.214844 C 109.617188 131.25 108.507812 130.171875 108.402344 128.542969 C 108.402344 128.449219 108.402344 128.34375 108.402344 128.230469 Z M 108.402344 124.269531 "/>
<path style=" stroke:none;fill-rule:nonzero;fill:rgb(19.607843%,36.862745%,39.215686%);fill-opacity:1;" d="M 91.910156 177.742188 C 90.972656 177.742188 90.070312 177.8125 89.167969 177.742188 C 87.570312 177.671875 86.492188 176.527344 86.527344 175 C 86.5625 173.507812 87.570312 172.394531 89.097656 172.328125 C 91.019531 172.257812 92.953125 172.257812 94.894531 172.328125 C 96.421875 172.394531 97.429688 173.542969 97.429688 175 C 97.464844 176.527344 96.390625 177.671875 94.792969 177.742188 C 93.820312 177.8125 92.847656 177.742188 91.910156 177.742188 Z M 91.910156 177.742188 "/>
<path style=" stroke:none;fill-rule:nonzero;fill:rgb(19.607843%,36.862745%,39.215686%);fill-opacity:1;" d="M 92.082031 183.265625 C 93.054688 183.265625 94.027344 183.195312 95 183.265625 C 95.347656 183.285156 95.671875 183.378906 95.972656 183.542969 C 96.296875 183.679688 96.574219 183.890625 96.804688 184.167969 C 97.035156 184.421875 97.199219 184.710938 97.292969 185.035156 C 97.40625 185.359375 97.453125 185.695312 97.429688 186.042969 C 97.359375 187.570312 96.527344 188.578125 95.035156 188.644531 C 94.527344 188.691406 94.015625 188.714844 93.507812 188.714844 C 92.972656 188.738281 92.453125 188.75 91.945312 188.75 C 91.433594 188.75 90.925781 188.738281 90.417969 188.714844 C 89.90625 188.714844 89.398438 188.691406 88.890625 188.644531 C 87.5 188.578125 86.527344 187.394531 86.527344 185.972656 C 86.503906 185.625 86.550781 185.289062 86.667969 184.964844 C 86.804688 184.640625 86.992188 184.351562 87.222656 184.097656 C 87.453125 183.84375 87.71875 183.644531 88.019531 183.507812 C 88.34375 183.367188 88.679688 183.285156 89.027344 183.265625 C 90.035156 183.195312 91.078125 183.265625 92.082031 183.265625 Z M 92.082031 183.265625 "/>
<path style=" stroke:none;fill-rule:nonzero;fill:rgb(19.607843%,36.862745%,39.215686%);fill-opacity:1;" d="M 53.679688 75 C 53.679688 74.859375 53.679688 74.734375 53.679688 74.617188 C 53.679688 74.480469 53.679688 74.351562 53.679688 74.234375 C 53.679688 74.097656 53.679688 73.96875 53.679688 73.855469 C 53.679688 73.714844 53.679688 73.589844 53.679688 73.472656 C 53.75 72.777344 54.0625 72.1875 54.582031 71.734375 C 55.070312 71.285156 55.730469 71.042969 56.390625 71.042969 C 57.082031 71.042969 57.707031 71.285156 58.230469 71.734375 C 58.714844 72.1875 59.027344 72.8125 59.097656 73.472656 C 59.121094 73.726562 59.132812 73.980469 59.132812 74.234375 C 59.15625 74.492188 59.167969 74.757812 59.167969 75.035156 C 59.167969 75.289062 59.167969 75.542969 59.167969 75.796875 C 59.144531 76.054688 59.132812 76.308594 59.132812 76.5625 C 59.027344 78.160156 57.917969 79.234375 56.390625 79.234375 C 54.859375 79.234375 53.785156 78.160156 53.679688 76.527344 C 53.644531 76.042969 53.679688 75.519531 53.679688 75 Z M 53.679688 75 "/>
<path style=" stroke:none;fill-rule:nonzero;fill:rgb(19.607843%,36.862745%,39.215686%);fill-opacity:1;" d="M 111.109375 106.632812 C 112.222656 106.597656 113.230469 107.292969 113.644531 108.296875 C 114.097656 109.304688 113.855469 110.484375 113.054688 111.285156 C 112.292969 112.046875 111.109375 112.292969 110.070312 111.875 C 109.0625 111.421875 108.402344 110.417969 108.402344 109.304688 C 108.402344 108.957031 108.472656 108.621094 108.609375 108.296875 C 108.75 107.953125 108.945312 107.652344 109.203125 107.394531 C 109.457031 107.140625 109.746094 106.945312 110.070312 106.804688 C 110.417969 106.691406 110.765625 106.632812 111.109375 106.632812 Z M 111.109375 106.632812 "/>
<path style=" stroke:none;fill-rule:nonzero;fill:rgb(19.607843%,36.862745%,39.215686%);fill-opacity:1;" d="M 127.535156 123.054688 C 128.644531 123.019531 129.652344 123.679688 130.070312 124.722656 C 130.519531 125.730469 130.277344 126.910156 129.480469 127.707031 C 128.714844 128.472656 127.535156 128.714844 126.492188 128.265625 C 125.484375 127.847656 124.828125 126.839844 124.828125 125.730469 C 124.828125 125.382812 124.894531 125.035156 125.035156 124.6875 C 125.171875 124.363281 125.371094 124.074219 125.625 123.820312 C 125.878906 123.566406 126.167969 123.367188 126.492188 123.230469 C 126.839844 123.089844 127.1875 123.03125 127.535156 123.054688 Z M 127.535156 123.054688 "/>
<path style=" stroke:none;fill-rule:nonzero;fill:rgb(19.607843%,36.862745%,39.215686%);fill-opacity:1;" d="M 176.804688 123.054688 C 177.917969 123.019531 178.921875 123.679688 179.339844 124.722656 C 179.757812 125.730469 179.546875 126.910156 178.75 127.707031 C 177.984375 128.472656 176.804688 128.714844 175.765625 128.296875 C 174.757812 127.847656 174.097656 126.839844 174.097656 125.765625 C 174.097656 125.394531 174.167969 125.046875 174.304688 124.722656 C 174.445312 124.375 174.628906 124.074219 174.859375 123.820312 C 175.117188 123.566406 175.417969 123.367188 175.765625 123.230469 C 176.089844 123.089844 176.433594 123.03125 176.804688 123.054688 Z M 176.804688 123.054688 "/>
<path style=" stroke:none;fill-rule:nonzero;fill:rgb(19.607843%,36.862745%,39.215686%);fill-opacity:1;" d="M 130.277344 76.5625 C 130.242188 77.671875 129.546875 78.644531 128.542969 79.0625 C 127.5 79.445312 126.320312 79.167969 125.554688 78.367188 C 124.828125 77.570312 124.617188 76.355469 125.070312 75.347656 C 125.554688 74.375 126.5625 73.714844 127.671875 73.785156 C 128.042969 73.785156 128.390625 73.867188 128.714844 74.027344 C 129.039062 74.167969 129.328125 74.363281 129.582031 74.617188 C 129.816406 74.894531 130 75.195312 130.140625 75.519531 C 130.253906 75.867188 130.300781 76.214844 130.277344 76.5625 Z M 130.277344 76.5625 "/>
<path style=" stroke:none;fill-rule:nonzero;fill:rgb(19.607843%,36.862745%,39.215686%);fill-opacity:1;" d="M 176.839844 73.785156 C 177.953125 73.785156 178.957031 74.480469 179.375 75.484375 C 179.792969 76.527344 179.515625 77.707031 178.714844 78.472656 C 177.917969 79.234375 176.734375 79.445312 175.730469 78.992188 C 174.722656 78.542969 174.0625 77.535156 174.097656 76.421875 C 174.097656 76.078125 174.179688 75.730469 174.339844 75.382812 C 174.480469 75.058594 174.675781 74.769531 174.929688 74.515625 C 175.183594 74.28125 175.484375 74.097656 175.832031 73.957031 C 176.15625 73.820312 176.492188 73.761719 176.839844 73.785156 Z M 176.839844 73.785156 "/>
<path style=" stroke:none;fill-rule:nonzero;fill:rgb(19.607843%,36.862745%,39.215686%);fill-opacity:1;" d="M 56.390625 90.171875 C 55.277344 90.171875 54.304688 89.515625 53.890625 88.472656 C 53.472656 87.464844 53.714844 86.285156 54.515625 85.484375 C 55.277344 84.722656 56.457031 84.515625 57.5 84.964844 C 58.507812 85.382812 59.167969 86.390625 59.132812 87.5 C 59.132812 87.871094 59.0625 88.21875 58.921875 88.542969 C 58.785156 88.867188 58.589844 89.15625 58.332031 89.410156 C 58.078125 89.664062 57.777344 89.859375 57.429688 90 C 57.105469 90.140625 56.757812 90.195312 56.390625 90.171875 Z M 56.390625 90.171875 "/>
<path style=" stroke:none;fill-rule:nonzero;fill:rgb(19.607843%,36.862745%,39.215686%);fill-opacity:1;" d="M 56.390625 101.109375 C 55.277344 101.109375 54.304688 100.453125 53.890625 99.410156 C 53.472656 98.402344 53.714844 97.222656 54.515625 96.457031 C 55.277344 95.660156 56.457031 95.453125 57.5 95.902344 C 58.507812 96.320312 59.167969 97.359375 59.132812 98.4375 C 59.132812 98.808594 59.0625 99.15625 58.921875 99.480469 C 58.785156 99.828125 58.589844 100.128906 58.332031 100.382812 C 58.078125 100.613281 57.777344 100.796875 57.429688 100.9375 C 57.105469 101.078125 56.757812 101.132812 56.390625 101.109375 Z M 56.390625 101.109375 "/>
<path style=" stroke:none;fill-rule:nonzero;fill:rgb(19.607843%,36.862745%,39.215686%);fill-opacity:1;" d="M 111.214844 95.660156 C 112.328125 95.695312 113.296875 96.390625 113.679688 97.429688 C 114.097656 98.472656 113.820312 99.617188 113.019531 100.382812 C 112.1875 101.144531 111.007812 101.355469 110 100.867188 C 108.992188 100.417969 108.367188 99.410156 108.402344 98.296875 C 108.425781 97.929688 108.507812 97.582031 108.644531 97.257812 C 108.785156 96.933594 108.992188 96.644531 109.269531 96.390625 C 109.527344 96.15625 109.828125 95.972656 110.171875 95.832031 C 110.496094 95.71875 110.84375 95.660156 111.214844 95.660156 Z M 111.214844 95.660156 "/>
<path style=" stroke:none;fill-rule:nonzero;fill:rgb(19.607843%,36.862745%,39.215686%);fill-opacity:1;" d="M 59.132812 109.410156 C 59.097656 110.519531 58.402344 111.492188 57.394531 111.910156 C 56.355469 112.292969 55.171875 112.015625 54.410156 111.214844 C 53.644531 110.417969 53.472656 109.234375 53.921875 108.230469 C 54.375 107.222656 55.417969 106.5625 56.527344 106.632812 C 56.875 106.632812 57.210938 106.703125 57.535156 106.839844 C 57.882812 107.003906 58.171875 107.210938 58.402344 107.464844 C 58.65625 107.71875 58.84375 108.019531 58.957031 108.367188 C 59.097656 108.714844 59.15625 109.0625 59.132812 109.410156 Z M 59.132812 109.410156 "/>
<path style=" stroke:none;fill-rule:nonzero;fill:rgb(19.607843%,36.862745%,39.215686%);fill-opacity:1;" d="M 61.945312 205.140625 C 63.054688 205.171875 64.027344 205.867188 64.445312 206.875 C 64.828125 207.917969 64.546875 209.097656 63.75 209.859375 C 62.953125 210.625 61.769531 210.796875 60.765625 210.347656 C 59.757812 209.894531 59.132812 208.855469 59.167969 207.742188 C 59.167969 207.394531 59.234375 207.058594 59.375 206.734375 C 59.535156 206.410156 59.746094 206.121094 60 205.867188 C 60.253906 205.613281 60.554688 205.429688 60.902344 205.3125 C 61.226562 205.171875 61.574219 205.117188 61.945312 205.140625 Z M 61.945312 205.140625 "/>
<path style=" stroke:none;fill-rule:nonzero;fill:rgb(19.607843%,36.862745%,39.215686%);fill-opacity:1;" d="M 72.8125 210.589844 C 71.703125 210.589844 70.730469 209.929688 70.3125 208.890625 C 69.894531 207.882812 70.140625 206.703125 70.9375 205.902344 C 71.703125 205.140625 72.882812 204.929688 73.921875 205.382812 C 74.929688 205.796875 75.589844 206.804688 75.554688 207.917969 C 75.554688 208.285156 75.484375 208.632812 75.347656 208.957031 C 75.207031 209.28125 75.011719 209.570312 74.757812 209.828125 C 74.503906 210.082031 74.203125 210.277344 73.855469 210.417969 C 73.53125 210.53125 73.183594 210.589844 72.8125 210.589844 Z M 72.8125 210.589844 "/>
<path style=" stroke:none;fill-rule:nonzero;fill:rgb(19.607843%,36.862745%,39.215686%);fill-opacity:1;" d="M 83.820312 210.589844 C 82.707031 210.625 81.703125 209.964844 81.285156 208.957031 C 80.832031 207.953125 81.042969 206.769531 81.839844 205.972656 C 82.605469 205.171875 83.785156 204.929688 84.792969 205.347656 C 85.832031 205.765625 86.492188 206.734375 86.492188 207.847656 C 86.515625 208.21875 86.457031 208.566406 86.320312 208.890625 C 86.179688 209.234375 85.984375 209.535156 85.730469 209.792969 C 85.472656 210.046875 85.183594 210.242188 84.859375 210.382812 C 84.535156 210.519531 84.191406 210.589844 83.820312 210.589844 Z M 83.820312 210.589844 "/>
<path style=" stroke:none;fill-rule:nonzero;fill:rgb(19.607843%,36.862745%,39.215686%);fill-opacity:1;" d="M 97.429688 207.882812 C 97.429688 208.992188 96.769531 210 95.730469 210.382812 C 94.722656 210.796875 93.542969 210.554688 92.777344 209.757812 C 91.980469 208.957031 91.769531 207.777344 92.222656 206.769531 C 92.671875 205.765625 93.679688 205.105469 94.792969 205.140625 C 95.140625 205.140625 95.484375 205.207031 95.832031 205.347656 C 96.15625 205.484375 96.445312 205.683594 96.703125 205.9375 C 96.957031 206.214844 97.140625 206.515625 97.257812 206.839844 C 97.394531 207.1875 97.453125 207.535156 97.429688 207.882812 Z M 97.429688 207.882812 "/>
<path style=" stroke:none;fill-rule:evenodd;fill:rgb(19.607843%,36.862745%,39.215686%);fill-opacity:1;" d="M 152.292969 92.953125 C 154.0625 92.953125 155.832031 92.917969 157.605469 92.953125 C 159.339844 92.984375 160.347656 93.992188 160.382812 95.730469 C 160.429688 99.316406 160.429688 102.90625 160.382812 106.492188 C 160.347656 108.296875 159.304688 109.304688 157.464844 109.304688 C 153.921875 109.351562 150.394531 109.351562 146.875 109.304688 C 145.035156 109.304688 144.027344 108.265625 143.992188 106.421875 C 143.96875 102.90625 143.96875 99.375 143.992188 95.832031 C 144.027344 93.921875 145.035156 92.953125 147.015625 92.917969 C 148.785156 92.917969 150.519531 92.953125 152.292969 92.953125 Z M 149.515625 103.785156 L 154.828125 103.785156 L 154.828125 98.507812 L 149.515625 98.507812 Z M 149.515625 103.785156 "/>
<path style=" stroke:none;fill-rule:nonzero;fill:rgb(19.607843%,36.862745%,39.215686%);fill-opacity:1;" d="M 163.402344 57.359375 L 174.097656 57.359375 L 174.167969 62.8125 L 163.472656 62.777344 "/>
<path style=" stroke:none;fill-rule:nonzero;fill:rgb(19.607843%,36.862745%,39.215686%);fill-opacity:1;" d="M 48.160156 150.796875 L 48.160156 161.078125 L 42.742188 161.007812 L 42.742188 150.765625 "/>
<path style=" stroke:none;fill-rule:nonzero;fill:rgb(19.607843%,36.862745%,39.215686%);fill-opacity:1;" d="M 206.910156 141.703125 L 206.910156 153.019531 L 201.457031 153.332031 L 201.457031 141.734375 Z M 206.910156 141.703125 "/>
<path style=" stroke:none;fill-rule:nonzero;fill:rgb(19.607843%,36.862745%,39.215686%);fill-opacity:1;" d="M 102.917969 74.6875 L 102.917969 76.597656 L 88.296875 76.597656 L 88.296875 71.042969 L 100.140625 71.042969 C 103.855469 71.042969 102.917969 74.6875 102.917969 74.6875 Z M 102.917969 74.6875 "/>
<path style=" stroke:none;fill-rule:nonzero;fill:rgb(19.607843%,36.862745%,39.215686%);fill-opacity:1;" d="M 154.6875 199.652344 L 154.410156 194.203125 L 166.320312 194.203125 L 166.390625 199.652344 Z M 154.6875 199.652344 "/>
<path style=" stroke:none;fill-rule:nonzero;fill:rgb(19.607843%,36.862745%,39.215686%);fill-opacity:1;" d="M 86.109375 199.617188 L 86.144531 194.167969 L 97.742188 194.203125 L 97.777344 199.652344 Z M 86.109375 199.617188 "/>
</g>
</svg>
