<?xml version="1.0" encoding="UTF-8"?>
<svg xmlns="http://www.w3.org/2000/svg" xmlns:xlink="http://www.w3.org/1999/xlink" width="250px" height="250px" viewBox="0 0 250 250" version="1.1">
<g id="surface1">
<path style=" stroke:none;fill-rule:evenodd;fill:rgb(19.607843%,36.862745%,39.215686%);fill-opacity:1;" d="M 45.015625 60.390625 C 45.015625 57.078125 45.78125 56.34375 49.09375 56.34375 L 171.828125 56.34375 C 175.226562 56.34375 175.933594 57.078125 175.933594 60.53125 C 175.933594 86.503906 175.925781 112.476562 175.90625 138.449219 C 175.90625 139.921875 176.359375 140.601562 177.660156 141.25 C 192.949219 149.320312 201.925781 161.863281 204.078125 179.078125 C 207.050781 203.371094 190.828125 227.066406 165.148438 231.992188 C 150.960938 234.710938 137.996094 231.457031 126.472656 222.734375 C 126.207031 222.527344 125.933594 222.328125 125.652344 222.140625 C 125.367188 221.988281 125.066406 221.855469 124.746094 221.742188 C 124.425781 221.648438 124.09375 221.574219 123.753906 221.515625 C 123.453125 221.460938 123.132812 221.433594 122.792969 221.433594 C 98.199219 221.488281 73.585938 221.5 48.953125 221.460938 C 45.78125 221.460938 45.015625 220.667969 45.015625 217.46875 Z M 50.820312 62.117188 L 50.820312 215.683594 L 118.96875 215.683594 C 118.542969 215.089844 118.261719 214.695312 117.921875 214.269531 C 117.109375 213.210938 116.328125 212.117188 115.570312 210.984375 C 114.835938 209.871094 114.136719 208.71875 113.476562 207.53125 C 112.835938 206.359375 112.242188 205.152344 111.691406 203.90625 C 111.164062 202.679688 110.683594 201.425781 110.25 200.140625 C 109.851562 198.925781 109.285156 198.667969 108.125 198.667969 C 93.480469 198.707031 78.832031 198.707031 64.183594 198.667969 L 62.230469 198.667969 L 62.230469 192.976562 L 108.183594 192.976562 C 107.925781 189.128906 107.699219 185.417969 107.445312 181.539062 L 62.203125 181.539062 L 62.203125 175.933594 L 64.75 175.933594 C 78.738281 175.933594 92.722656 175.925781 106.710938 175.90625 C 107.332031 175.90625 108.351562 175.507812 108.523438 175.085938 C 109.625 171.628906 110.5625 168.121094 111.609375 164.4375 L 62.203125 164.4375 L 62.203125 158.863281 L 64.382812 158.863281 C 79.726562 158.863281 95.101562 158.75 110.476562 158.917969 C 113.589844 158.976562 115.628906 158.378906 117.414062 155.550781 C 119.28125 152.605469 121.96875 150.226562 124.433594 147.421875 L 62.230469 147.421875 L 62.230469 141.761719 L 64.496094 141.761719 C 86.675781 141.761719 108.851562 141.75 131.03125 141.734375 C 131.371094 141.714844 131.71875 141.695312 132.078125 141.675781 C 132.417969 141.621094 132.757812 141.554688 133.097656 141.476562 C 133.4375 141.382812 133.777344 141.289062 134.117188 141.195312 C 134.4375 141.0625 134.757812 140.929688 135.078125 140.796875 C 143.429688 136.890625 152.179688 135.277344 161.324219 136.382812 C 164.296875 136.75 167.214844 137.371094 170.160156 137.910156 L 170.160156 62.117188 Z M 113.308594 184.34375 C 113.277344 207.785156 132.445312 227.125 155.832031 227.179688 C 179.332031 227.265625 198.585938 208.125 198.726562 184.570312 C 198.867188 161.210938 179.613281 141.816406 156.230469 141.761719 C 132.671875 141.703125 113.363281 160.84375 113.308594 184.34375 Z M 113.308594 184.34375 "/>
<path style=" stroke:none;fill-rule:evenodd;fill:rgb(19.607843%,36.862745%,39.215686%);fill-opacity:1;" d="M 65.882812 130.351562 C 62.9375 130.351562 62.089844 129.5 62.089844 126.527344 L 62.089844 71.546875 C 62.089844 68.574219 62.9375 67.753906 65.882812 67.753906 L 155.179688 67.753906 C 157.984375 67.753906 158.863281 68.628906 158.863281 71.460938 C 158.863281 89.863281 158.863281 108.257812 158.863281 126.640625 C 158.863281 129.5 157.984375 130.351562 155.179688 130.351562 Z M 67.894531 124.574219 L 153.085938 124.574219 L 153.085938 73.554688 L 67.894531 73.554688 Z M 67.894531 124.574219 "/>
<path style=" stroke:none;fill-rule:evenodd;fill:rgb(19.607843%,36.862745%,39.215686%);fill-opacity:1;" d="M 129.8125 212.316406 L 125.652344 208.152344 C 127.632812 206.117188 129.5 203.964844 131.625 202.125 C 132.277344 201.558594 133.636719 201.671875 134.65625 201.558594 C 135.53125 201.472656 136.410156 201.558594 137.371094 201.558594 C 137.03125 199.886719 136.777344 198.359375 136.324219 196.828125 C 136.289062 196.679688 136.210938 196.554688 136.097656 196.460938 C 136.003906 196.347656 135.910156 196.253906 135.816406 196.179688 C 135.683594 196.101562 135.5625 196.035156 135.449219 195.980469 C 135.296875 195.921875 135.15625 195.875 135.023438 195.839844 C 132.617188 195.78125 130.179688 195.808594 127.660156 195.808594 L 127.660156 190.175781 C 129.984375 190.175781 132.304688 190.089844 134.625 190.203125 C 135.957031 190.261719 136.382812 189.808594 136.496094 188.535156 C 136.664062 187.203125 137.0625 185.871094 137.457031 184.203125 C 131.3125 186.183594 129.132812 181.003906 125.539062 178.03125 L 130.152344 173.925781 C 131.003906 174.914062 132.136719 176.1875 133.183594 177.492188 C 133.351562 177.738281 133.550781 177.945312 133.777344 178.113281 C 134.003906 178.304688 134.257812 178.453125 134.542969 178.566406 C 134.804688 178.699219 135.089844 178.773438 135.390625 178.792969 C 135.691406 178.8125 135.984375 178.804688 136.269531 178.765625 C 136.417969 178.746094 136.5625 178.726562 136.691406 178.707031 C 136.84375 178.691406 136.996094 178.679688 137.144531 178.679688 C 137.296875 178.679688 137.449219 178.691406 137.597656 178.707031 C 137.730469 178.726562 137.882812 178.746094 138.050781 178.765625 C 140.402344 179.332031 141.421875 177.605469 142.554688 176.132812 C 142.753906 175.847656 142.640625 175.253906 142.496094 174.832031 C 140.882812 169.535156 141.816406 164.75 145.554688 160.617188 C 146.234375 159.882812 146.09375 159.371094 145.582031 158.664062 C 145.1875 158.097656 144.753906 157.558594 144.28125 157.050781 C 143.789062 156.539062 143.269531 156.066406 142.722656 155.632812 C 142.175781 155.199219 141.609375 154.804688 141.023438 154.445312 C 140.421875 154.085938 139.808594 153.773438 139.183594 153.511719 C 138.25 153.144531 137.996094 152.71875 138.363281 151.753906 C 138.902344 150.480469 139.296875 149.121094 139.777344 147.648438 C 140.835938 147.953125 141.847656 148.347656 142.808594 148.839844 C 143.789062 149.328125 144.714844 149.90625 145.582031 150.566406 C 146.46875 151.207031 147.292969 151.925781 148.046875 152.71875 C 148.800781 153.492188 149.480469 154.332031 150.085938 155.238281 C 150.933594 156.457031 151.613281 156.625 153.058594 156.425781 C 153.585938 156.351562 154.125 156.292969 154.671875 156.257812 C 155.21875 156.21875 155.765625 156.210938 156.3125 156.230469 C 156.84375 156.230469 157.378906 156.257812 157.925781 156.3125 C 158.476562 156.351562 159.011719 156.417969 159.542969 156.511719 C 160.53125 156.625 160.957031 156.511719 161.523438 155.71875 C 162.144531 154.773438 162.855469 153.878906 163.648438 153.03125 C 164.421875 152.199219 165.261719 151.445312 166.167969 150.765625 C 167.054688 150.085938 168.007812 149.480469 169.027344 148.953125 C 170.046875 148.425781 171.09375 147.988281 172.167969 147.648438 C 172.707031 149.234375 173.328125 150.707031 173.699219 152.238281 C 173.753906 152.578125 173.132812 153.285156 172.679688 153.511719 C 169.59375 155.039062 167.382812 156.964844 165.910156 159.625 C 166.929688 161.238281 168.148438 162.742188 168.941406 164.410156 C 169.335938 165.203125 169.640625 166.023438 169.847656 166.875 C 170.074219 167.703125 170.214844 168.5625 170.273438 169.449219 C 170.328125 170.320312 170.300781 171.195312 170.1875 172.082031 C 170.074219 172.933594 169.875 173.773438 169.59375 174.605469 C 169.109375 176.105469 170.921875 178.707031 172.507812 178.765625 C 172.847656 178.765625 173.207031 178.773438 173.585938 178.792969 C 173.941406 178.792969 174.292969 178.792969 174.632812 178.792969 C 175.007812 178.792969 175.367188 178.785156 175.707031 178.765625 C 176.066406 178.765625 176.414062 178.757812 176.753906 178.738281 C 176.925781 178.71875 177.085938 178.679688 177.238281 178.625 C 177.367188 178.585938 177.511719 178.53125 177.660156 178.453125 C 177.792969 178.398438 177.925781 178.320312 178.058594 178.226562 C 178.171875 178.132812 178.292969 178.03125 178.425781 177.917969 C 179.757812 176.585938 181.003906 175.167969 182.277344 173.839844 L 186.496094 177.945312 C 184.511719 179.898438 182.671875 181.964844 180.632812 183.691406 C 179.898438 184.316406 178.566406 184.316406 177.464844 184.429688 C 177.238281 184.445312 177.011719 184.457031 176.785156 184.457031 C 176.558594 184.476562 176.332031 184.484375 176.105469 184.484375 C 175.878906 184.484375 175.640625 184.484375 175.394531 184.484375 C 175.167969 184.464844 174.945312 184.457031 174.71875 184.457031 C 175.054688 186.15625 175.28125 187.742188 175.765625 189.296875 C 175.878906 189.695312 176.671875 190.089844 177.179688 190.117188 C 179.558594 190.203125 181.9375 190.175781 184.398438 190.175781 L 184.398438 195.839844 C 182.023438 195.839844 179.671875 195.894531 177.351562 195.839844 C 176.246094 195.808594 175.734375 196.09375 175.59375 197.28125 C 175.453125 198.699219 175.027344 200.027344 174.746094 201.445312 C 176.980469 202.066406 179.585938 200.679688 181.511719 202.972656 C 183.039062 204.757812 184.851562 206.3125 186.550781 208.039062 L 182.277344 212.289062 C 181.144531 211.011719 179.984375 209.851562 178.933594 208.550781 C 178.085938 207.472656 177.039062 207.304688 175.707031 207.21875 C 173.132812 207.023438 171.40625 207.699219 169.535156 209.796875 C 161.890625 218.460938 148.328125 217.667969 141.335938 208.410156 C 141.203125 208.238281 141.054688 208.078125 140.882812 207.925781 C 140.714844 207.777344 140.535156 207.652344 140.34375 207.558594 C 140.136719 207.425781 139.921875 207.34375 139.695312 207.304688 C 139.46875 207.246094 139.242188 207.21875 139.015625 207.21875 C 135.816406 206.765625 133.265625 207.671875 131.398438 210.363281 C 130.890625 210.984375 130.40625 211.578125 129.8125 212.316406 Z M 153.058594 209.597656 L 153.058594 187.289062 C 149.859375 187.289062 146.773438 187.316406 143.714844 187.257812 C 142.609375 187.230469 142.46875 187.855469 142.300781 188.648438 C 141.082031 194.707031 142.1875 200.28125 146.09375 205.152344 C 146.527344 205.71875 147.007812 206.238281 147.535156 206.710938 C 148.046875 207.164062 148.601562 207.585938 149.207031 207.984375 C 149.792969 208.363281 150.414062 208.683594 151.074219 208.945312 C 151.71875 209.230469 152.378906 209.445312 153.058594 209.597656 Z M 158.917969 209.65625 C 159.824219 209.316406 160.617188 209.117188 161.324219 208.75 C 168.65625 205.179688 171.660156 195.46875 169.5625 188.136719 C 169.507812 188.023438 169.441406 187.921875 169.367188 187.824219 C 169.308594 187.730469 169.234375 187.65625 169.140625 187.597656 C 169.027344 187.523438 168.921875 187.457031 168.828125 187.402344 C 168.714844 187.363281 168.609375 187.324219 168.515625 187.289062 C 165.375 187.289062 162.257812 187.289062 158.917969 187.289062 Z M 164.070312 172.054688 C 165.203125 168.941406 163.730469 165.089844 160.785156 163.109375 C 160.023438 162.597656 159.171875 162.203125 158.238281 161.949219 C 157.359375 161.722656 156.425781 161.609375 155.492188 161.664062 C 154.558594 161.75 153.652344 161.949219 152.773438 162.316406 C 151.925781 162.683594 151.132812 163.195312 150.425781 163.816406 C 147.875 166.082031 146.800781 169.675781 148.074219 172.054688 C 153.339844 169.59375 158.636719 169.5625 164.070312 172.113281 Z M 145.753906 181.457031 C 145.773438 181.457031 145.78125 181.457031 145.78125 181.457031 Z M 166.28125 181.398438 C 161.976562 174.179688 150.140625 174.179688 145.78125 181.398438 Z M 166.28125 181.398438 "/>
<path style=" stroke:none;fill-rule:evenodd;fill:rgb(19.607843%,36.862745%,39.215686%);fill-opacity:1;" d="M 116.023438 93.347656 L 110.589844 93.347656 L 110.589844 87.710938 L 116.167969 87.710938 L 116.167969 79.21875 L 121.828125 79.21875 L 121.828125 87.597656 L 127.464844 87.597656 L 127.464844 79.273438 L 133.152344 79.273438 L 133.152344 87.597656 L 138.816406 87.597656 L 138.816406 93.289062 L 133.351562 93.289062 L 133.351562 104.699219 L 138.84375 104.699219 L 138.84375 110.363281 L 133.265625 110.363281 L 133.265625 118.882812 L 127.605469 118.882812 L 127.605469 110.53125 L 121.941406 110.53125 L 121.941406 118.828125 L 116.25 118.828125 L 116.25 110.53125 L 110.589844 110.53125 L 110.589844 104.8125 L 116.023438 104.8125 Z M 121.96875 104.671875 L 127.433594 104.671875 L 127.433594 93.460938 L 121.96875 93.460938 Z M 121.96875 104.671875 "/>
<path style=" stroke:none;fill-rule:nonzero;fill:rgb(19.607843%,36.862745%,39.215686%);fill-opacity:1;" d="M 99.207031 107.644531 L 104.558594 107.644531 C 105.210938 112.03125 101.5 117.101562 96.6875 118.542969 C 94.960938 119.054688 93.175781 119.140625 91.449219 118.828125 C 89.695312 118.542969 88.050781 117.835938 86.636719 116.789062 C 85.222656 115.742188 84.058594 114.355469 83.265625 112.796875 C 82.472656 111.210938 82.050781 109.484375 82.023438 107.671875 C 81.984375 101.878906 81.984375 96.074219 82.023438 90.261719 C 82.105469 87.316406 83.351562 84.511719 85.449219 82.445312 C 87.570312 80.351562 90.402344 79.191406 93.347656 79.191406 C 96.320312 79.191406 99.179688 80.324219 101.300781 82.390625 C 103.425781 84.457031 104.671875 87.257812 104.785156 90.230469 C 104.785156 91.167969 104.785156 92.101562 104.785156 93.203125 L 99.066406 93.203125 C 99.066406 92.382812 99.09375 91.507812 99.066406 90.65625 C 98.925781 87.316406 96.460938 84.796875 93.347656 84.824219 C 90.289062 84.824219 87.742188 87.316406 87.710938 90.683594 C 87.65625 96.09375 87.683594 101.472656 87.710938 106.851562 C 87.710938 110.390625 89.664062 112.824219 92.863281 113.222656 C 95.695312 113.5625 98.1875 111.609375 99.039062 108.324219 C 99.066406 108.152344 99.121094 107.984375 99.207031 107.644531 Z M 99.207031 107.644531 "/>
</g>
</svg>
