<?xml version="1.0" encoding="UTF-8"?>
<svg xmlns="http://www.w3.org/2000/svg" xmlns:xlink="http://www.w3.org/1999/xlink" width="250px" height="250px" viewBox="0 0 250 250" version="1.1">
<g id="surface1">
<path style="fill-rule:nonzero;fill:rgb(19.607843%,36.862745%,39.215686%);fill-opacity:1;stroke-width:0.6;stroke-linecap:butt;stroke-linejoin:miter;stroke:rgb(19.607843%,36.862745%,39.215686%);stroke-opacity:1;stroke-miterlimit:4;" d="M 608.99625 188.595 L 608.99625 503.3025 C 608.99625 506.59875 608.29875 509.99625 607.005 513.10125 C 605.7 516.195 603.9 518.99625 601.50375 521.40375 C 599.09625 523.8 596.295 525.6 593.20125 526.905 C 589.995 528.19875 586.69875 528.89625 583.4025 528.89625 L 137.59875 528.89625 C 134.3025 528.89625 130.905 528.19875 127.8 526.905 C 124.695 525.6 121.905 523.8 119.4975 521.40375 C 117.10125 518.99625 115.2 516.195 113.99625 513.10125 C 112.7025 509.99625 112.005 506.59875 112.005 503.3025 L 112.005 188.595 C 112.005 185.29875 112.7025 181.90125 113.99625 178.79625 C 115.2 175.7025 117.10125 172.90125 119.4975 170.505 C 121.905 168.0975 124.695 166.2975 127.8 165.00375 C 130.905 163.69875 134.3025 163.00125 137.59875 163.00125 L 177.19875 163.00125 L 177.19875 177.89625 L 137.59875 177.89625 C 136.20375 177.89625 134.7975 178.2 133.50375 178.79625 C 132.19875 179.3025 131.09625 180.10125 130.095 181.1025 C 129.105 182.10375 128.295 183.195 127.8 184.5 C 127.20375 185.805 126.9 187.2 126.9 188.595 L 126.9 503.3025 C 126.9 504.6975 127.20375 506.10375 127.8 507.3975 C 128.295 508.60125 129.105 509.805 130.095 510.795 C 131.09625 511.79625 132.19875 512.595 133.50375 513.10125 C 134.7975 513.6975 136.20375 514.00125 137.59875 514.00125 L 583.4025 514.00125 C 584.7975 514.00125 586.1025 513.6975 587.39625 513.10125 C 588.70125 512.595 589.905 511.79625 590.895 510.795 C 591.89625 509.805 592.695 508.60125 593.20125 507.3975 C 593.7975 506.10375 594.10125 504.6975 594.10125 503.3025 L 594.10125 188.595 C 594.10125 187.2 593.7975 185.805 593.20125 184.5 C 592.695 183.195 591.89625 182.10375 590.895 181.1025 C 589.905 180.10125 588.70125 179.3025 587.39625 178.79625 C 586.1025 178.2 584.7975 177.89625 583.4025 177.89625 L 531.405 177.89625 L 531.495 163.00125 L 583.4025 163.00125 C 586.69875 163.00125 590.09625 163.69875 593.20125 165.00375 C 596.295 166.19625 599.09625 168.0975 601.50375 170.505 C 603.9 172.90125 605.7 175.7025 607.005 178.79625 C 608.29875 181.90125 608.99625 185.29875 608.99625 188.595 Z M 608.99625 188.595 " transform="matrix(0.347222,0,0,0.347222,0,0)"/>
<path style="fill-rule:nonzero;fill:rgb(19.607843%,36.862745%,39.215686%);fill-opacity:1;stroke-width:0.6;stroke-linecap:butt;stroke-linejoin:miter;stroke:rgb(19.607843%,36.862745%,39.215686%);stroke-opacity:1;stroke-miterlimit:4;" d="M 582.9975 203.1975 L 582.9975 452.9025 L 138.00375 452.9025 L 138.00375 203.1975 L 174.00375 203.4 L 174.00375 218.295 L 152.89875 218.10375 L 152.89875 437.895 L 189.405 437.895 L 189.405 440.89875 L 546.705 440.89875 L 546.705 437.895 L 568.1025 437.895 L 568.1025 218.10375 L 531.405 218.10375 L 531.405 203.1975 Z M 582.9975 203.1975 " transform="matrix(0.347222,0,0,0.347222,0,0)"/>
<path style="fill-rule:evenodd;fill:rgb(19.607843%,36.862745%,39.215686%);fill-opacity:1;stroke-width:0.6;stroke-linecap:butt;stroke-linejoin:miter;stroke:rgb(19.607843%,36.862745%,39.215686%);stroke-opacity:1;stroke-miterlimit:4;" d="M 280.20375 603.59625 C 278.89875 603.59625 277.50375 603.2025 276.3 602.505 C 275.1975 601.79625 274.19625 600.795 273.6 599.50125 C 273.00375 598.2975 272.7 597.00375 272.80125 595.5975 C 272.9025 594.2025 273.29625 592.8975 274.095 591.795 L 276.705 588.00375 C 291.105 567.59625 297.495 544.80375 295.2 522.2025 C 295.09875 521.1 295.2 520.09875 295.50375 519.0975 C 295.8975 518.09625 296.40375 517.19625 297.10125 516.3975 C 297.79875 515.59875 298.69875 515.0025 299.59875 514.5975 C 300.6 514.20375 301.60125 513.9 302.70375 514.00125 L 418.39875 514.00125 C 419.4 514.00125 420.5025 514.20375 421.4025 514.5975 C 422.40375 515.0025 423.2025 515.59875 423.9 516.3975 C 424.5975 517.19625 425.205 518.09625 425.4975 519.0975 C 425.80125 520.09875 425.9025 521.1 425.80125 522.2025 C 423.59625 544.80375 429.89625 567.59625 444.29625 588.00375 L 446.895 591.795 C 447.705 592.8975 448.2 594.2025 448.30125 595.5975 C 448.30125 597.00375 448.09875 598.2975 447.40125 599.50125 C 446.805 600.795 445.80375 601.79625 444.70125 602.505 C 443.4975 603.2025 442.20375 603.59625 440.7975 603.59625 Z M 310.5 528.89625 C 310.995 549.405 305.40375 569.80125 294.0975 588.6 L 426.8025 588.6 C 415.49625 569.80125 409.905 549.405 410.4 528.89625 Z M 310.5 528.89625 " transform="matrix(0.347222,0,0,0.347222,0,0)"/>
<path style="fill-rule:evenodd;fill:rgb(19.607843%,36.862745%,39.215686%);fill-opacity:1;stroke-width:0.6;stroke-linecap:butt;stroke-linejoin:miter;stroke:rgb(19.607843%,36.862745%,39.215686%);stroke-opacity:1;stroke-miterlimit:4;" d="M 460.20375 637.2 L 260.7975 637.2 C 254.39625 637.2 248.1975 634.60125 243.59625 630.10125 C 239.09625 625.5 236.4975 619.30125 236.4975 612.9 C 236.4975 606.49875 239.09625 600.3 243.59625 595.69875 C 248.1975 591.19875 254.39625 588.6 260.7975 588.6 L 460.20375 588.6 C 466.605 588.6 472.80375 591.19875 477.30375 595.69875 C 481.905 600.3 484.4025 606.49875 484.4025 612.9 C 484.4025 619.30125 481.905 625.5 477.30375 630.10125 C 472.80375 634.60125 466.605 637.2 460.20375 637.2 Z M 260.7975 603.59625 C 258.3 603.59625 256.005 604.49625 254.205 606.29625 C 252.495 607.995 251.505 610.4025 251.505 612.9 C 251.505 615.3975 252.495 617.70375 254.205 619.50375 C 256.005 621.2025 258.3 622.20375 260.7975 622.20375 L 460.20375 622.20375 C 462.70125 622.20375 464.99625 621.2025 466.79625 619.50375 C 468.495 617.70375 469.49625 615.3975 469.49625 612.9 C 469.49625 610.4025 468.495 607.995 466.79625 606.29625 C 464.99625 604.49625 462.70125 603.59625 460.20375 603.59625 Z M 260.7975 603.59625 " transform="matrix(0.347222,0,0,0.347222,0,0)"/>
<path style="fill-rule:nonzero;fill:rgb(19.607843%,36.862745%,39.215686%);fill-opacity:1;stroke-width:0.6;stroke-linecap:butt;stroke-linejoin:miter;stroke:rgb(19.607843%,36.862745%,39.215686%);stroke-opacity:1;stroke-miterlimit:4;" d="M 174.00375 203.29875 L 531.405 203.29875 L 531.405 218.205 L 174.00375 218.205 Z M 174.00375 203.29875 " transform="matrix(0.347222,0,0,0.347222,0,0)"/>
<path style="fill-rule:nonzero;fill:rgb(19.607843%,36.862745%,39.215686%);fill-opacity:1;stroke-width:0.6;stroke-linecap:butt;stroke-linejoin:miter;stroke:rgb(19.607843%,36.862745%,39.215686%);stroke-opacity:1;stroke-miterlimit:4;" d="M 177.19875 177.89625 L 177.19875 163.00125 L 531.495 163.00125 L 531.405 177.89625 Z M 177.19875 177.89625 " transform="matrix(0.347222,0,0,0.347222,0,0)"/>
<path style=" stroke:none;fill-rule:nonzero;fill:rgb(19.607843%,36.862745%,39.215686%);fill-opacity:1;" d="M 101.980469 124.652344 L 106.734375 124.652344 C 106.839844 128.855469 105.554688 132.535156 103.195312 135.867188 C 98.125 142.953125 89.339844 145.832031 81.179688 143.160156 C 73.125 140.519531 67.777344 133.054688 67.777344 124.445312 C 67.777344 117.984375 67.777344 111.527344 67.777344 105.070312 C 67.777344 95.035156 75.554688 86.421875 85.347656 85.589844 C 95.730469 84.722656 104.792969 91.667969 106.527344 101.875 C 106.667969 102.847656 106.734375 103.855469 106.875 104.964844 L 102.535156 104.964844 C 101.421875 102.152344 100.730469 99.269531 99.269531 96.910156 C 96.109375 91.769531 89.757812 89.445312 83.992188 90.832031 C 77.8125 92.328125 73.195312 97.117188 72.847656 103.714844 C 72.730469 105.660156 72.652344 107.59375 72.605469 109.515625 C 72.558594 111.457031 72.546875 113.402344 72.570312 115.347656 C 72.59375 117.292969 72.640625 119.234375 72.707031 121.179688 C 72.777344 123.125 72.882812 125.058594 73.019531 126.980469 C 73.507812 133.921875 80.207031 139.234375 87.292969 139.234375 C 94.375 139.203125 100.625 133.890625 101.667969 126.945312 C 101.769531 126.25 101.875 125.519531 101.980469 124.652344 Z M 101.980469 124.652344 "/>
<path style=" stroke:none;fill-rule:nonzero;fill:rgb(19.607843%,36.862745%,39.215686%);fill-opacity:1;" d="M 125.242188 82.082031 L 189.757812 82.082031 L 189.757812 85.902344 L 125.242188 85.902344 Z M 125.242188 82.082031 "/>
<path style=" stroke:none;fill-rule:nonzero;fill:rgb(19.607843%,36.862745%,39.215686%);fill-opacity:1;" d="M 125.242188 90.070312 L 189.792969 90.070312 L 189.792969 93.890625 L 125.242188 93.890625 Z M 125.242188 90.070312 "/>
<path style=" stroke:none;fill-rule:nonzero;fill:rgb(19.607843%,36.862745%,39.215686%);fill-opacity:1;" d="M 125.3125 133.921875 L 189.757812 133.921875 L 189.757812 137.742188 L 125.3125 137.742188 Z M 125.3125 133.921875 "/>
<path style=" stroke:none;fill-rule:nonzero;fill:rgb(19.607843%,36.862745%,39.215686%);fill-opacity:1;" d="M 125.242188 141.875 L 189.792969 141.875 L 189.792969 145.695312 L 125.242188 145.695312 Z M 125.242188 141.875 "/>
<path style=" stroke:none;fill-rule:nonzero;fill:rgb(19.607843%,36.862745%,39.215686%);fill-opacity:1;" d="M 152.882812 97.984375 L 168.296875 97.984375 C 168.296875 99.132812 168.332031 100.277344 168.230469 101.390625 C 168.230469 101.597656 167.5 101.910156 167.117188 101.910156 C 162.765625 101.957031 158.414062 101.957031 154.0625 101.910156 C 153.679688 101.910156 152.984375 101.527344 152.953125 101.285156 C 152.8125 100.207031 152.882812 99.167969 152.882812 97.984375 Z M 152.882812 97.984375 "/>
<path style=" stroke:none;fill-rule:nonzero;fill:rgb(19.607843%,36.862745%,39.215686%);fill-opacity:1;" d="M 174.480469 97.984375 L 189.859375 97.984375 C 189.859375 99.132812 189.929688 100.277344 189.828125 101.421875 C 189.792969 101.597656 189.097656 101.910156 188.679688 101.910156 C 184.328125 101.957031 179.976562 101.957031 175.625 101.910156 C 175.242188 101.910156 174.546875 101.527344 174.515625 101.285156 C 174.410156 100.207031 174.480469 99.167969 174.480469 97.984375 Z M 174.480469 97.984375 "/>
<path style=" stroke:none;fill-rule:nonzero;fill:rgb(19.607843%,36.862745%,39.215686%);fill-opacity:1;" d="M 152.882812 125.867188 L 168.296875 125.867188 C 168.296875 127.015625 168.332031 128.160156 168.230469 129.304688 C 168.230469 129.480469 167.5 129.792969 167.117188 129.828125 C 162.765625 129.847656 158.414062 129.847656 154.0625 129.828125 C 153.679688 129.828125 152.984375 129.445312 152.953125 129.203125 C 152.8125 128.125 152.882812 127.046875 152.882812 125.867188 Z M 152.882812 125.867188 "/>
<path style=" stroke:none;fill-rule:nonzero;fill:rgb(19.607843%,36.862745%,39.215686%);fill-opacity:1;" d="M 174.480469 129.757812 C 174.457031 129.503906 174.445312 129.234375 174.445312 128.957031 C 174.445312 128.679688 174.445312 128.414062 174.445312 128.160156 C 174.445312 127.882812 174.457031 127.605469 174.480469 127.328125 C 174.480469 127.046875 174.492188 126.78125 174.515625 126.527344 C 174.546875 126.285156 175.242188 125.902344 175.625 125.902344 C 179.976562 125.855469 184.328125 125.855469 188.679688 125.902344 C 189.097656 125.902344 189.792969 126.285156 189.828125 126.527344 C 189.828125 126.78125 189.839844 127.046875 189.859375 127.328125 C 189.882812 127.605469 189.894531 127.871094 189.894531 128.125 C 189.894531 128.402344 189.894531 128.679688 189.894531 128.957031 C 189.894531 129.234375 189.882812 129.503906 189.859375 129.757812 Z M 174.480469 129.757812 "/>
</g>
</svg>
