<?xml version="1.0" encoding="UTF-8"?>
<svg xmlns="http://www.w3.org/2000/svg" xmlns:xlink="http://www.w3.org/1999/xlink" width="250px" height="250px" viewBox="0 0 250 250" version="1.1">
<g id="surface1">
<path style="fill-rule:nonzero;fill:rgb(19.607843%,36.862745%,39.215686%);fill-opacity:1;stroke-width:0.6;stroke-linecap:butt;stroke-linejoin:miter;stroke:rgb(19.607843%,36.862745%,39.215686%);stroke-opacity:1;stroke-miterlimit:4;" d="M 607.995 188.595 L 607.995 502.605 C 607.995 505.90125 607.2975 509.29875 606.00375 512.40375 C 604.8 515.4975 602.89875 518.29875 600.5025 520.695 C 598.095 523.00125 595.305 524.9025 592.2 526.19625 C 589.095 527.50125 585.79875 528.19875 582.40125 528.19875 L 137.59875 528.19875 C 134.20125 528.19875 130.905 527.50125 127.8 526.19625 C 124.695 524.9025 121.905 523.00125 119.4975 520.695 C 117.10125 518.29875 115.2 515.4975 113.99625 512.40375 C 112.7025 509.29875 112.005 505.90125 112.005 502.605 L 112.005 188.595 C 112.005 185.1975 112.7025 181.90125 113.99625 178.79625 C 115.2 175.7025 117.10125 172.90125 119.4975 170.505 C 121.905 168.0975 124.695 166.19625 127.8 165.00375 C 130.905 163.69875 134.20125 163.00125 137.59875 163.00125 L 177.0975 163.00125 L 177.0975 177.89625 L 137.59875 177.89625 C 136.20375 177.89625 134.7975 178.2 133.50375 178.695 C 132.19875 179.3025 130.995 180 130.005 181.00125 C 129.00375 182.0025 128.295 183.195 127.69875 184.5 C 127.20375 185.805 126.9 187.2 126.9 188.595 L 126.9 502.605 C 126.9 504 127.20375 505.395 127.69875 506.7 C 128.295 508.005 129.00375 509.09625 130.005 510.0975 C 130.995 511.09875 132.19875 511.8975 133.50375 512.40375 C 134.7975 513 136.20375 513.30375 137.59875 513.30375 L 582.40125 513.30375 C 583.79625 513.30375 585.2025 513 586.49625 512.40375 C 587.80125 511.8975 589.005 511.09875 589.995 510.0975 C 590.99625 509.09625 591.705 508.005 592.30125 506.7 C 592.79625 505.395 593.1 504 593.1 502.605 L 593.1 188.595 C 593.1 187.2 592.79625 185.805 592.30125 184.5 C 591.705 183.195 590.99625 182.0025 589.995 181.00125 C 589.005 180 587.80125 179.3025 586.49625 178.695 C 585.2025 178.2 583.79625 177.89625 582.40125 177.89625 L 530.595 177.89625 L 530.595 163.00125 L 582.40125 163.00125 C 585.79875 163.00125 589.095 163.69875 592.2 165.00375 C 595.305 166.19625 598.095 168.0975 600.5025 170.505 C 602.89875 172.90125 604.8 175.7025 606.00375 178.79625 C 607.2975 181.90125 607.995 185.1975 607.995 188.595 Z M 607.995 188.595 " transform="matrix(0.347222,0,0,0.347222,0,0)"/>
<path style="fill-rule:nonzero;fill:rgb(19.607843%,36.862745%,39.215686%);fill-opacity:1;stroke-width:0.6;stroke-linecap:butt;stroke-linejoin:miter;stroke:rgb(19.607843%,36.862745%,39.215686%);stroke-opacity:1;stroke-miterlimit:4;" d="M 582.0975 203.09625 L 582.0975 452.295 L 137.9025 452.295 L 137.9025 203.09625 L 173.9025 203.29875 L 173.9025 218.205 L 152.7975 218.0025 L 152.7975 437.4 L 189.30375 437.4 L 189.30375 440.40375 L 545.895 440.40375 L 545.895 437.4 L 567.2025 437.4 L 567.2025 218.0025 L 530.595 218.0025 L 530.595 203.09625 Z M 582.0975 203.09625 " transform="matrix(0.347222,0,0,0.347222,0,0)"/>
<path style="fill-rule:evenodd;fill:rgb(19.607843%,36.862745%,39.215686%);fill-opacity:1;stroke-width:0.6;stroke-linecap:butt;stroke-linejoin:miter;stroke:rgb(19.607843%,36.862745%,39.215686%);stroke-opacity:1;stroke-miterlimit:4;" d="M 279.9 602.69625 C 278.505 602.69625 277.2 602.3025 275.99625 601.605 C 274.905 600.89625 273.90375 599.895 273.29625 598.7025 C 272.7 597.49875 272.39625 596.10375 272.4975 594.6975 C 272.4975 593.40375 273.00375 592.09875 273.8025 590.99625 L 276.40125 587.205 C 290.7 566.7975 297.10125 544.005 294.795 521.40375 C 294.705 520.4025 294.795 519.40125 295.2 518.4 C 295.50375 517.39875 295.99875 516.49875 296.69625 515.7 C 297.405 514.90125 298.305 514.305 299.205 513.9 C 300.195 513.495 301.19625 513.30375 302.1975 513.30375 L 417.8025 513.30375 C 418.80375 513.30375 419.895 513.495 420.795 513.9 C 421.79625 514.305 422.595 514.90125 423.30375 515.7 C 424.00125 516.49875 424.49625 517.39875 424.90125 518.4 C 425.205 519.40125 425.295 520.4025 425.205 521.40375 C 422.89875 544.005 429.3 566.7975 443.59875 587.205 L 446.1975 590.99625 C 446.99625 592.09875 447.5025 593.40375 447.60375 594.6975 C 447.705 596.10375 447.40125 597.49875 446.805 598.7025 C 446.09625 599.895 445.19625 600.89625 444.00375 601.605 C 442.90125 602.3025 441.495 602.69625 440.20125 602.69625 Z M 310.095 528.19875 C 310.60125 548.595 304.99875 569.0025 293.805 587.80125 L 426.195 587.80125 C 415.00125 569.0025 409.39875 548.595 409.80375 528.19875 Z M 310.095 528.19875 " transform="matrix(0.347222,0,0,0.347222,0,0)"/>
<path style="fill-rule:evenodd;fill:rgb(19.607843%,36.862745%,39.215686%);fill-opacity:1;stroke-width:0.6;stroke-linecap:butt;stroke-linejoin:miter;stroke:rgb(19.607843%,36.862745%,39.215686%);stroke-opacity:1;stroke-miterlimit:4;" d="M 459.495 636.19875 L 260.505 636.19875 C 254.10375 636.19875 247.905 633.70125 243.405 629.1 C 238.80375 624.6 236.295 618.40125 236.295 612 C 236.295 605.59875 238.80375 599.4 243.405 594.9 C 247.905 590.29875 254.10375 587.80125 260.505 587.80125 L 459.495 587.80125 C 465.89625 587.80125 472.095 590.29875 476.595 594.9 C 481.19625 599.4 483.705 605.59875 483.705 612 C 483.705 618.40125 481.19625 624.6 476.595 629.1 C 472.095 633.70125 465.89625 636.19875 459.495 636.19875 Z M 260.505 602.69625 C 257.99625 602.69625 255.70125 603.6975 253.90125 605.39625 C 252.2025 607.19625 251.20125 609.5025 251.20125 612 C 251.20125 614.4975 252.2025 616.80375 253.90125 618.60375 C 255.70125 620.3025 257.99625 621.30375 260.505 621.30375 L 459.495 621.30375 C 462.00375 621.30375 464.29875 620.3025 466.09875 618.60375 C 467.7975 616.80375 468.79875 614.4975 468.79875 612 C 468.79875 609.5025 467.7975 607.19625 466.09875 605.39625 C 464.29875 603.6975 462.00375 602.69625 459.495 602.69625 Z M 260.505 602.69625 " transform="matrix(0.347222,0,0,0.347222,0,0)"/>
<path style="fill-rule:nonzero;fill:rgb(19.607843%,36.862745%,39.215686%);fill-opacity:1;stroke-width:0.6;stroke-linecap:butt;stroke-linejoin:miter;stroke:rgb(19.607843%,36.862745%,39.215686%);stroke-opacity:1;stroke-miterlimit:4;" d="M 173.9025 203.1975 L 530.595 203.1975 L 530.595 218.10375 L 173.9025 218.10375 Z M 173.9025 203.1975 " transform="matrix(0.347222,0,0,0.347222,0,0)"/>
<path style="fill-rule:nonzero;fill:rgb(19.607843%,36.862745%,39.215686%);fill-opacity:1;stroke-width:0.6;stroke-linecap:butt;stroke-linejoin:miter;stroke:rgb(19.607843%,36.862745%,39.215686%);stroke-opacity:1;stroke-miterlimit:4;" d="M 177.0975 177.89625 L 177.0975 163.00125 L 530.595 163.00125 L 530.595 177.89625 Z M 177.0975 177.89625 " transform="matrix(0.347222,0,0,0.347222,0,0)"/>
<path style=" stroke:none;fill-rule:nonzero;fill:rgb(19.607843%,36.862745%,39.215686%);fill-opacity:1;" d="M 110.589844 100.453125 C 110.589844 112.859375 110.589844 125.265625 110.589844 137.671875 C 110.589844 139.582031 109.792969 140.660156 108.265625 140.660156 C 106.875 140.695312 106.042969 139.964844 105.796875 138.609375 C 105.796875 138.496094 105.785156 138.390625 105.765625 138.296875 C 105.765625 138.183594 105.765625 138.078125 105.765625 137.984375 C 105.765625 137.871094 105.765625 137.753906 105.765625 137.640625 C 105.765625 137.546875 105.765625 137.441406 105.765625 137.328125 C 105.765625 121.65625 105.765625 105.972656 105.765625 90.277344 C 105.765625 89.894531 105.625 89.445312 105.796875 89.167969 C 106.285156 88.402344 106.769531 87.328125 107.464844 87.117188 C 108.195312 86.875 109.234375 87.429688 110.035156 87.8125 C 110.453125 88.019531 110.625 88.679688 110.902344 89.132812 C 118.542969 101.886719 126.191406 114.628906 133.855469 127.359375 C 133.921875 127.5 134.003906 127.640625 134.097656 127.777344 C 134.191406 127.917969 134.292969 128.042969 134.410156 128.160156 C 134.503906 128.277344 134.617188 128.390625 134.757812 128.507812 C 134.871094 128.621094 134.988281 128.726562 135.105469 128.820312 L 135.105469 90.554688 C 135.105469 90.441406 135.105469 90.324219 135.105469 90.207031 C 135.105469 90.070312 135.105469 89.941406 135.105469 89.828125 C 135.105469 89.710938 135.105469 89.59375 135.105469 89.480469 C 135.128906 89.363281 135.140625 89.234375 135.140625 89.097656 C 135.277344 87.777344 136.355469 86.769531 137.640625 86.875 C 138.957031 87.015625 139.792969 87.742188 139.929688 89.132812 C 139.929688 89.222656 139.941406 89.304688 139.964844 89.375 C 139.964844 89.445312 139.964844 89.527344 139.964844 89.617188 C 139.964844 89.6875 139.964844 89.769531 139.964844 89.859375 C 139.964844 89.929688 139.964844 90.011719 139.964844 90.105469 C 139.964844 105.890625 139.964844 121.679688 139.964844 137.464844 C 139.964844 137.847656 140.070312 138.296875 139.894531 138.578125 C 139.480469 139.269531 139.027344 140.242188 138.402344 140.453125 C 137.671875 140.695312 136.667969 140.347656 135.902344 139.964844 C 135.417969 139.722656 135.140625 138.992188 134.792969 138.4375 C 127.128906 125.660156 119.46875 112.882812 111.804688 100.105469 C 111.492188 99.617188 111.179688 99.167969 110.589844 98.296875 Z M 110.589844 100.453125 "/>
<path style=" stroke:none;fill-rule:nonzero;fill:rgb(19.607843%,36.862745%,39.215686%);fill-opacity:1;" d="M 64.304688 90.554688 C 64.304688 87.570312 65 86.875 67.984375 86.875 C 77.015625 86.875 86.042969 86.875 95.070312 86.875 C 95.183594 86.875 95.289062 86.875 95.382812 86.875 C 95.496094 86.875 95.601562 86.875 95.695312 86.875 C 95.808594 86.875 95.925781 86.875 96.042969 86.875 C 96.132812 86.875 96.238281 86.886719 96.355469 86.910156 C 97.671875 87.046875 98.714844 88.160156 98.609375 89.375 C 98.472656 90.695312 97.777344 91.597656 96.355469 91.703125 C 95.765625 91.734375 95.171875 91.734375 94.582031 91.734375 C 86.734375 91.734375 78.921875 91.769531 71.078125 91.703125 C 69.722656 91.703125 69.203125 91.980469 69.234375 93.472656 C 69.339844 98.921875 69.304688 104.410156 69.234375 109.894531 C 69.234375 111.109375 69.582031 111.390625 70.765625 111.390625 C 79.097656 111.355469 87.429688 111.355469 95.765625 111.390625 C 97.464844 111.390625 98.578125 112.328125 98.609375 113.75 C 98.644531 115.171875 97.570312 116.144531 95.832031 116.214844 C 95.417969 116.214844 94.964844 116.214844 94.546875 116.214844 L 71.667969 116.214844 C 71.574219 116.214844 71.492188 116.214844 71.421875 116.214844 C 71.332031 116.238281 71.25 116.25 71.179688 116.25 C 71.089844 116.25 71.007812 116.238281 70.9375 116.214844 C 70.84375 116.214844 70.765625 116.214844 70.695312 116.214844 C 69.582031 116.078125 69.234375 116.527344 69.234375 117.640625 C 69.304688 123.230469 69.304688 128.820312 69.234375 134.410156 C 69.234375 135.660156 69.617188 135.867188 70.796875 135.867188 C 79.132812 135.832031 87.429688 135.832031 95.765625 135.867188 C 97.984375 135.867188 99.304688 137.640625 98.296875 139.304688 C 97.882812 139.964844 96.875 140.625 96.144531 140.625 C 86.355469 140.695312 76.597656 140.695312 66.839844 140.660156 C 65.242188 140.660156 64.375 139.722656 64.304688 137.953125 C 64.269531 136.390625 64.304688 134.828125 64.304688 133.265625 C 64.304688 126.757812 64.304688 120.265625 64.304688 113.785156 C 64.304688 106.054688 64.304688 98.308594 64.304688 90.554688 Z M 64.304688 90.554688 "/>
<path style=" stroke:none;fill-rule:nonzero;fill:rgb(19.607843%,36.862745%,39.215686%);fill-opacity:1;" d="M 152.152344 124.792969 C 152.535156 131.109375 158.230469 136.042969 164.582031 135.832031 C 171.007812 135.625 176.214844 130.484375 176.421875 124.097656 C 176.527344 121.109375 176.527344 121.109375 173.507812 121.109375 C 170.660156 121.109375 167.8125 121.109375 164.964844 121.109375 C 162.882812 121.078125 161.875 120.3125 161.875 118.714844 C 161.839844 117.082031 162.917969 116.214844 164.929688 116.214844 C 169.445312 116.214844 173.957031 116.214844 178.472656 116.214844 C 180 116.214844 181.214844 116.839844 181.320312 118.4375 C 181.5625 122.640625 181.667969 126.804688 179.792969 130.765625 C 176.355469 138.089844 168.542969 141.980469 160.589844 140.3125 C 153.089844 138.785156 147.328125 131.980469 147.152344 124.097656 C 146.980469 117.222656 146.945312 110.347656 147.152344 103.472656 C 147.359375 94.652344 154.375 87.5 162.984375 86.910156 C 165.070312 86.769531 167.152344 86.980469 169.167969 87.605469 C 171.144531 88.195312 173.019531 89.167969 174.652344 90.417969 C 176.320312 91.703125 177.742188 93.265625 178.820312 95.035156 C 179.929688 96.804688 180.695312 98.75 181.078125 100.796875 C 181.121094 101.054688 181.15625 101.296875 181.179688 101.527344 C 181.226562 101.757812 181.261719 102.003906 181.285156 102.257812 C 181.308594 102.488281 181.332031 102.730469 181.355469 102.984375 C 181.355469 103.21875 181.355469 103.449219 181.355469 103.679688 C 181.421875 105.242188 180.382812 106.390625 179.027344 106.457031 C 177.777344 106.527344 176.703125 105.519531 176.457031 104.0625 C 176.285156 102.777344 176.25 101.492188 175.867188 100.277344 C 174.167969 94.828125 168.644531 91.179688 163.230469 91.839844 C 157.015625 92.570312 152.5 96.980469 152.152344 103.054688 C 151.910156 106.632812 152.082031 110.242188 152.082031 113.855469 L 152.117188 113.855469 C 152.117188 117.5 151.945312 121.144531 152.152344 124.792969 Z M 152.152344 124.792969 "/>
<path style=" stroke:none;fill-rule:nonzero;fill:rgb(19.607843%,36.862745%,39.215686%);fill-opacity:1;" d="M 110.589844 98.296875 L 110.589844 100.453125 C 110.589844 112.859375 110.589844 125.265625 110.589844 137.671875 C 110.589844 139.582031 109.792969 140.660156 108.265625 140.660156 C 106.875 140.695312 106.042969 139.964844 105.796875 138.609375 C 105.796875 138.496094 105.785156 138.390625 105.765625 138.296875 C 105.765625 138.183594 105.765625 138.078125 105.765625 137.984375 C 105.765625 137.871094 105.765625 137.753906 105.765625 137.640625 C 105.765625 137.546875 105.765625 137.441406 105.765625 137.328125 C 105.765625 121.65625 105.765625 105.972656 105.765625 90.277344 C 105.765625 89.894531 105.625 89.445312 105.796875 89.167969 C 106.285156 88.402344 106.769531 87.328125 107.464844 87.117188 C 108.195312 86.875 109.234375 87.429688 110.035156 87.8125 C 110.453125 88.019531 110.625 88.679688 110.902344 89.132812 C 118.542969 101.863281 126.191406 114.605469 133.855469 127.359375 C 133.921875 127.5 134.003906 127.640625 134.097656 127.777344 C 134.191406 127.917969 134.292969 128.042969 134.410156 128.160156 C 134.503906 128.277344 134.617188 128.390625 134.757812 128.507812 C 134.871094 128.621094 134.988281 128.726562 135.105469 128.820312 L 135.105469 90.554688 C 135.105469 90.441406 135.105469 90.324219 135.105469 90.207031 C 135.105469 90.09375 135.105469 89.976562 135.105469 89.859375 C 135.105469 89.722656 135.105469 89.59375 135.105469 89.480469 C 135.128906 89.363281 135.140625 89.246094 135.140625 89.132812 C 135.277344 87.777344 136.355469 86.804688 137.640625 86.910156 C 138.957031 87.015625 139.792969 87.777344 139.929688 89.132812 C 139.929688 89.222656 139.941406 89.304688 139.964844 89.375 C 139.964844 89.46875 139.964844 89.546875 139.964844 89.617188 C 139.964844 89.710938 139.964844 89.792969 139.964844 89.859375 C 139.964844 89.953125 139.964844 90.035156 139.964844 90.105469 C 139.964844 105.890625 139.964844 121.679688 139.964844 137.464844 C 139.964844 137.847656 140.070312 138.296875 139.894531 138.578125 C 139.480469 139.304688 139.0625 140.242188 138.402344 140.453125 C 137.671875 140.695312 136.667969 140.347656 135.902344 140 C 135.417969 139.722656 135.140625 138.992188 134.792969 138.4375 C 127.128906 125.660156 119.46875 112.882812 111.804688 100.105469 C 111.492188 99.617188 111.179688 99.167969 110.589844 98.296875 Z M 110.589844 98.296875 "/>
<path style=" stroke:none;fill-rule:nonzero;fill:rgb(19.607843%,36.862745%,39.215686%);fill-opacity:1;" d="M 64.304688 113.785156 C 64.304688 106.03125 64.304688 98.296875 64.304688 90.589844 C 64.304688 87.570312 65 86.875 67.984375 86.875 C 77.015625 86.875 86.042969 86.875 95.070312 86.875 C 95.160156 86.875 95.265625 86.875 95.382812 86.875 C 95.496094 86.875 95.601562 86.875 95.695312 86.875 C 95.808594 86.875 95.925781 86.875 96.042969 86.875 C 96.132812 86.898438 96.238281 86.910156 96.355469 86.910156 C 97.671875 87.046875 98.714844 88.160156 98.609375 89.410156 C 98.472656 90.730469 97.777344 91.597656 96.355469 91.703125 C 95.765625 91.769531 95.171875 91.769531 94.582031 91.769531 C 86.734375 91.769531 78.921875 91.804688 71.078125 91.734375 C 69.722656 91.703125 69.203125 91.980469 69.234375 93.472656 C 69.339844 98.957031 69.304688 104.410156 69.234375 109.894531 C 69.234375 111.144531 69.582031 111.421875 70.765625 111.390625 C 79.097656 111.355469 87.429688 111.355469 95.730469 111.390625 C 97.464844 111.390625 98.578125 112.359375 98.609375 113.75 C 98.644531 115.171875 97.535156 116.179688 95.832031 116.214844 C 95.417969 116.25 94.964844 116.214844 94.546875 116.214844 L 71.667969 116.214844 C 71.597656 116.238281 71.515625 116.25 71.421875 116.25 C 71.355469 116.25 71.273438 116.25 71.179688 116.25 C 71.109375 116.25 71.03125 116.25 70.9375 116.25 C 70.867188 116.25 70.785156 116.238281 70.695312 116.214844 C 69.582031 116.078125 69.234375 116.527344 69.234375 117.640625 C 69.304688 123.230469 69.304688 128.820312 69.234375 134.410156 C 69.234375 135.660156 69.652344 135.902344 70.796875 135.902344 C 79.132812 135.832031 87.429688 135.867188 95.765625 135.867188 C 97.984375 135.867188 99.304688 137.640625 98.296875 139.304688 C 97.882812 139.964844 96.875 140.625 96.144531 140.625 C 86.390625 140.730469 76.597656 140.695312 66.839844 140.695312 C 65.242188 140.695312 64.410156 139.722656 64.339844 137.953125 C 64.269531 136.390625 64.304688 134.828125 64.304688 133.265625 C 64.304688 126.757812 64.304688 120.265625 64.304688 113.785156 Z M 64.304688 113.785156 "/>
<path style=" stroke:none;fill-rule:nonzero;fill:rgb(19.607843%,36.862745%,39.215686%);fill-opacity:1;" d="M 152.117188 113.855469 C 152.117188 117.5 151.945312 121.144531 152.152344 124.792969 C 152.535156 131.109375 158.230469 136.042969 164.582031 135.832031 C 171.007812 135.625 176.214844 130.484375 176.421875 124.132812 C 176.527344 121.109375 176.527344 121.109375 173.507812 121.109375 C 170.660156 121.109375 167.8125 121.144531 164.964844 121.109375 C 162.847656 121.109375 161.875 120.3125 161.839844 118.714844 C 161.839844 117.117188 162.917969 116.25 164.929688 116.25 C 169.445312 116.214844 173.957031 116.25 178.472656 116.25 C 180 116.25 181.214844 116.875 181.320312 118.472656 C 181.5625 122.640625 181.632812 126.839844 179.792969 130.796875 C 176.355469 138.089844 168.542969 141.980469 160.589844 140.347656 C 153.089844 138.785156 147.328125 132.015625 147.152344 124.132812 C 146.980469 117.257812 146.945312 110.347656 147.152344 103.507812 C 147.359375 94.6875 154.339844 87.535156 162.984375 86.910156 C 165.070312 86.769531 167.152344 87.015625 169.132812 87.605469 C 171.144531 88.230469 173.019531 89.167969 174.652344 90.453125 C 176.320312 91.734375 177.707031 93.265625 178.820312 95.070312 C 179.929688 96.839844 180.695312 98.785156 181.078125 100.832031 C 181.121094 101.066406 181.15625 101.308594 181.179688 101.5625 C 181.226562 101.792969 181.261719 102.027344 181.285156 102.257812 C 181.308594 102.511719 181.320312 102.753906 181.320312 102.984375 C 181.34375 103.242188 181.355469 103.484375 181.355469 103.714844 C 181.421875 105.242188 180.382812 106.421875 179.027344 106.492188 C 177.742188 106.527344 176.703125 105.554688 176.457031 104.097656 C 176.25 102.8125 176.214844 101.492188 175.867188 100.277344 C 174.132812 94.828125 168.644531 91.214844 163.230469 91.839844 C 157.015625 92.605469 152.5 97.015625 152.117188 103.054688 C 151.910156 106.667969 152.082031 110.277344 152.082031 113.855469 Z M 152.117188 113.855469 "/>
</g>
</svg>
