<?xml version="1.0" encoding="UTF-8"?>
<svg xmlns="http://www.w3.org/2000/svg" xmlns:xlink="http://www.w3.org/1999/xlink" width="250px" height="250px" viewBox="0 0 250 250" version="1.1">
<g id="surface1">
<path style="fill-rule:nonzero;fill:rgb(19.607843%,36.862745%,39.215686%);fill-opacity:1;stroke-width:0.6;stroke-linecap:butt;stroke-linejoin:miter;stroke:rgb(19.607843%,36.862745%,39.215686%);stroke-opacity:1;stroke-miterlimit:4;" d="M 608.70375 188.69625 L 608.70375 503.7975 C 608.70375 507.105 607.995 510.5025 606.8025 513.59625 C 605.4975 516.70125 603.59625 519.5025 601.2 521.89875 C 598.80375 524.295 596.0025 526.19625 592.8975 527.50125 C 589.80375 528.795 586.395 529.4025 582.9975 529.4025 L 136.69875 529.4025 C 133.30125 529.4025 130.005 528.795 126.79875 527.50125 C 123.705 526.19625 120.90375 524.295 118.49625 521.89875 C 116.1 519.5025 114.3 516.70125 112.995 513.59625 C 111.70125 510.5025 111.00375 507.105 111.00375 503.7975 L 111.00375 188.69625 C 111.00375 185.29875 111.70125 182.0025 112.995 178.8975 C 114.3 175.7025 116.1 172.90125 118.49625 170.505 C 120.90375 168.0975 123.705 166.2975 126.79875 165.00375 C 130.005 163.69875 133.30125 163.00125 136.69875 163.00125 L 176.29875 163.00125 L 176.29875 177.9975 L 136.69875 177.9975 C 135.30375 177.9975 133.8975 178.2 132.60375 178.79625 C 131.29875 179.3025 130.095 180.10125 129.105 181.1025 C 128.10375 182.10375 127.305 183.29625 126.79875 184.60125 C 126.2025 185.895 126 187.30125 126 188.69625 L 126 503.7975 C 126 505.20375 126.2025 506.59875 126.79875 507.90375 C 127.305 509.1975 128.10375 510.3 129.105 511.30125 C 130.095 512.3025 131.29875 513.10125 132.60375 513.59625 C 133.8975 514.20375 135.30375 514.49625 136.69875 514.49625 L 582.9975 514.49625 C 584.505 514.49625 585.79875 514.20375 587.10375 513.6975 C 588.3975 513.10125 589.60125 512.3025 590.6025 511.30125 C 591.60375 510.3 592.4025 509.1975 592.8975 507.90375 C 593.505 506.59875 593.7975 505.20375 593.7975 503.7975 L 593.7975 188.69625 C 593.7975 187.30125 593.505 185.895 592.8975 184.60125 C 592.4025 183.29625 591.60375 182.10375 590.6025 181.1025 C 589.60125 180.10125 588.3975 179.3025 587.10375 178.79625 C 585.79875 178.2 584.505 177.9975 582.9975 177.9975 L 531 177.9975 L 531.10125 163.00125 L 582.9975 163.00125 C 586.395 163.00125 589.80375 163.69875 592.8975 165.00375 C 596.0025 166.2975 598.80375 168.0975 601.2 170.505 C 603.59625 172.90125 605.4975 175.7025 606.8025 178.8975 C 607.995 182.0025 608.70375 185.29875 608.70375 188.69625 Z M 608.70375 188.69625 " transform="matrix(0.347222,0,0,0.347222,0,0)"/>
<path style="fill-rule:nonzero;fill:rgb(19.607843%,36.862745%,39.215686%);fill-opacity:1;stroke-width:0.6;stroke-linecap:butt;stroke-linejoin:miter;stroke:rgb(19.607843%,36.862745%,39.215686%);stroke-opacity:1;stroke-miterlimit:4;" d="M 582.705 203.29875 L 582.705 453.29625 L 137.0025 453.29625 L 137.0025 203.29875 L 173.10375 203.4 L 173.10375 218.39625 L 151.99875 218.205 L 151.99875 438.3 L 188.595 438.3 L 188.595 441.405 L 546.40125 441.405 L 546.40125 438.3 L 567.6975 438.3 L 567.6975 218.205 L 531 218.205 L 531 203.29875 Z M 582.705 203.29875 " transform="matrix(0.347222,0,0,0.347222,0,0)"/>
<path style="fill-rule:evenodd;fill:rgb(19.607843%,36.862745%,39.215686%);fill-opacity:1;stroke-width:0.6;stroke-linecap:butt;stroke-linejoin:miter;stroke:rgb(19.607843%,36.862745%,39.215686%);stroke-opacity:1;stroke-miterlimit:4;" d="M 279.495 604.20375 C 278.1 604.20375 276.795 603.79875 275.6025 603.10125 C 274.39875 602.40375 273.49875 601.4025 272.80125 600.19875 C 272.205 598.995 271.90125 597.6 272.0025 596.205 C 272.10375 594.9 272.59875 593.595 273.29625 592.4025 L 275.99625 588.70125 C 290.295 568.20375 296.69625 545.29875 294.5025 522.6975 C 294.40125 521.69625 294.5025 520.605 294.795 519.60375 C 295.09875 518.6025 295.695 517.7025 296.40375 516.90375 C 297.10125 516.105 297.9 515.4975 298.90125 515.10375 C 299.9025 514.69875 300.90375 514.49625 301.905 514.49625 L 417.8025 514.49625 C 418.905 514.49625 419.895 514.69875 420.89625 515.10375 C 421.79625 515.4975 422.69625 516.195 423.405 516.90375 C 424.1025 517.7025 424.5975 518.6025 425.0025 519.60375 C 425.295 520.605 425.39625 521.69625 425.295 522.6975 C 423 545.29875 429.40125 568.20375 443.80125 588.70125 L 446.4 592.4025 C 447.19875 593.595 447.705 594.9 447.705 596.205 C 447.795 597.6 447.5025 598.995 446.895 600.19875 C 446.29875 601.4025 445.2975 602.40375 444.195 603.10125 C 443.0025 603.79875 441.59625 604.20375 440.3025 604.20375 Z M 309.90375 529.4025 C 310.2975 550.00125 304.695 570.3975 293.4 589.19625 L 426.29625 589.19625 C 415.00125 570.3975 409.39875 550.00125 409.80375 529.4025 Z M 309.90375 529.4025 " transform="matrix(0.347222,0,0,0.347222,0,0)"/>
<path style="fill-rule:evenodd;fill:rgb(19.607843%,36.862745%,39.215686%);fill-opacity:1;stroke-width:0.6;stroke-linecap:butt;stroke-linejoin:miter;stroke:rgb(19.607843%,36.862745%,39.215686%);stroke-opacity:1;stroke-miterlimit:4;" d="M 459.6975 637.8975 L 259.99875 637.8975 C 253.5975 637.8975 247.39875 635.29875 242.7975 630.6975 C 238.2975 626.1975 235.69875 619.99875 235.69875 613.5975 C 235.69875 607.095 238.2975 600.89625 242.7975 596.39625 C 247.39875 591.795 253.5975 589.19625 259.99875 589.19625 L 459.6975 589.19625 C 466.09875 589.19625 472.2975 591.795 476.89875 596.39625 C 481.39875 600.89625 483.9975 607.095 483.9975 613.5975 C 483.9975 619.99875 481.39875 626.1975 476.89875 630.6975 C 472.2975 635.29875 466.09875 637.8975 459.6975 637.8975 Z M 259.99875 604.20375 C 257.50125 604.20375 255.195 605.205 253.395 606.90375 C 251.69625 608.70375 250.695 611.1 250.695 613.5975 C 250.695 616.005 251.69625 618.40125 253.395 620.20125 C 255.195 621.9 257.50125 622.90125 259.99875 622.90125 L 459.6975 622.90125 C 462.195 622.90125 464.50125 621.9 466.30125 620.20125 C 468 618.40125 469.00125 616.005 469.00125 613.5975 C 469.00125 611.1 468 608.70375 466.30125 606.90375 C 464.50125 605.205 462.195 604.20375 459.6975 604.20375 Z M 259.99875 604.20375 " transform="matrix(0.347222,0,0,0.347222,0,0)"/>
<path style="fill-rule:nonzero;fill:rgb(19.607843%,36.862745%,39.215686%);fill-opacity:1;stroke-width:0.6;stroke-linecap:butt;stroke-linejoin:miter;stroke:rgb(19.607843%,36.862745%,39.215686%);stroke-opacity:1;stroke-miterlimit:4;" d="M 173.10375 203.4 L 531 203.4 L 531 218.295 L 173.10375 218.295 Z M 173.10375 203.4 " transform="matrix(0.347222,0,0,0.347222,0,0)"/>
<path style="fill-rule:nonzero;fill:rgb(19.607843%,36.862745%,39.215686%);fill-opacity:1;stroke-width:0.6;stroke-linecap:butt;stroke-linejoin:miter;stroke:rgb(19.607843%,36.862745%,39.215686%);stroke-opacity:1;stroke-miterlimit:4;" d="M 176.29875 177.9975 L 176.29875 163.00125 L 531.10125 163.00125 L 531 177.9975 Z M 176.29875 177.9975 " transform="matrix(0.347222,0,0,0.347222,0,0)"/>
<path style=" stroke:none;fill-rule:evenodd;fill:rgb(19.607843%,36.862745%,39.215686%);fill-opacity:1;" d="M 144.445312 115.105469 C 144.445312 117.5 144.410156 119.894531 144.445312 122.257812 C 144.46875 122.511719 144.457031 122.753906 144.410156 122.984375 C 144.339844 123.242188 144.246094 123.472656 144.132812 123.679688 C 143.992188 123.910156 143.84375 124.109375 143.679688 124.269531 C 143.496094 124.433594 143.285156 124.570312 143.054688 124.6875 C 136.78125 128.183594 130.496094 131.679688 124.203125 135.171875 C 123.992188 135.289062 123.785156 135.382812 123.578125 135.453125 C 123.34375 135.519531 123.113281 135.554688 122.882812 135.554688 C 122.628906 135.554688 122.382812 135.53125 122.152344 135.484375 C 121.921875 135.441406 121.703125 135.359375 121.492188 135.242188 C 115.265625 132.464844 109.027344 129.6875 102.777344 126.910156 C 101.667969 126.421875 101.144531 125.660156 101.144531 124.410156 C 101.191406 119.59375 101.191406 114.78125 101.144531 109.964844 C 101.144531 109.734375 101.167969 109.503906 101.214844 109.269531 C 101.261719 109.039062 101.332031 108.820312 101.421875 108.609375 C 101.539062 108.402344 101.667969 108.207031 101.804688 108.019531 C 101.96875 107.859375 102.152344 107.707031 102.359375 107.570312 C 105.035156 105.589844 107.671875 103.578125 110.347656 101.597656 C 110.441406 101.527344 110.542969 101.457031 110.660156 101.390625 C 110.753906 101.320312 110.855469 101.25 110.972656 101.179688 C 111.089844 101.132812 111.191406 101.078125 111.285156 101.007812 C 111.402344 100.960938 111.515625 100.914062 111.632812 100.867188 C 117.695312 98.160156 123.773438 95.453125 129.859375 92.742188 C 131.667969 91.945312 132.359375 92.117188 133.609375 93.578125 C 136.839844 97.464844 140.035156 101.355469 143.296875 105.171875 C 143.507812 105.40625 143.691406 105.648438 143.855469 105.902344 C 143.992188 106.15625 144.121094 106.433594 144.234375 106.734375 C 144.328125 107.015625 144.398438 107.304688 144.445312 107.605469 C 144.46875 107.90625 144.480469 108.207031 144.480469 108.507812 C 144.410156 110.695312 144.445312 112.917969 144.445312 115.105469 Z M 138.714844 106.734375 C 138.609375 106.5625 138.542969 106.457031 138.472656 106.355469 C 136.042969 103.4375 133.644531 100.519531 131.179688 97.640625 C 131.109375 97.59375 131.042969 97.558594 130.972656 97.535156 C 130.902344 97.488281 130.832031 97.464844 130.765625 97.464844 C 130.695312 97.441406 130.613281 97.429688 130.519531 97.429688 C 130.453125 97.429688 130.382812 97.441406 130.3125 97.464844 C 125.554688 99.546875 120.867188 101.632812 116.144531 103.714844 C 115.589844 103.957031 115.519531 104.234375 115.902344 104.722656 C 118.296875 108.019531 120.660156 111.390625 123.054688 114.6875 C 123.230469 114.929688 123.855469 115.105469 124.097656 114.964844 C 128.820312 112.394531 133.542969 109.757812 138.265625 107.117188 C 138.285156 107.09375 138.320312 107.070312 138.367188 107.046875 C 138.414062 107.027344 138.460938 106.992188 138.507812 106.945312 C 138.53125 106.921875 138.566406 106.886719 138.609375 106.839844 C 138.632812 106.816406 138.667969 106.78125 138.714844 106.734375 Z M 120.625 124.859375 C 120.625 123.402344 120.695312 121.980469 120.625 120.519531 C 120.589844 120.140625 120.277344 119.582031 119.964844 119.445312 C 115.453125 117.394531 110.9375 115.417969 106.457031 113.367188 C 105.625 113.019531 105.554688 113.332031 105.554688 114.027344 C 105.589844 116.839844 105.554688 119.6875 105.589844 122.535156 C 105.613281 122.628906 105.636719 122.71875 105.660156 122.8125 C 105.683594 122.90625 105.730469 122.996094 105.796875 123.089844 C 105.84375 123.183594 105.902344 123.265625 105.972656 123.332031 C 106.042969 123.402344 106.109375 123.460938 106.179688 123.507812 C 110.730469 125.554688 115.277344 127.570312 119.828125 129.617188 C 120.554688 129.929688 120.660156 129.6875 120.660156 129.027344 C 120.589844 127.640625 120.625 126.25 120.625 124.859375 Z M 140.070312 116.390625 C 140.070312 115.035156 140.035156 113.679688 140.105469 112.359375 C 140.140625 111.355469 139.859375 111.320312 139.0625 111.769531 C 134.6875 114.222656 130.300781 116.65625 125.902344 119.0625 C 125.171875 119.445312 124.964844 119.929688 125 120.660156 C 125.035156 123.230469 125 125.796875 125 128.367188 C 125 129.582031 125.035156 129.617188 126.109375 128.992188 C 129.929688 126.875 133.644531 124.617188 137.570312 122.707031 C 139.617188 121.703125 140.453125 120.453125 140.105469 118.265625 C 139.964844 117.671875 140.070312 117.015625 140.070312 116.390625 Z M 115.902344 112.570312 C 115.902344 112.546875 115.902344 112.523438 115.902344 112.5 C 115.878906 112.476562 115.867188 112.453125 115.867188 112.429688 C 115.84375 112.382812 115.832031 112.347656 115.832031 112.328125 C 115.808594 112.304688 115.785156 112.28125 115.765625 112.257812 C 114.445312 110.382812 113.125 108.542969 111.769531 106.703125 C 111.667969 106.5625 111.214844 106.5625 111.042969 106.667969 C 110.105469 107.292969 109.203125 107.984375 108.332031 108.679688 C 107.917969 108.957031 107.917969 109.203125 108.402344 109.410156 C 110.730469 110.453125 113.054688 111.492188 115.382812 112.535156 C 115.429688 112.535156 115.472656 112.535156 115.519531 112.535156 C 115.566406 112.558594 115.601562 112.570312 115.625 112.570312 C 115.671875 112.570312 115.71875 112.570312 115.765625 112.570312 C 115.808594 112.570312 115.855469 112.570312 115.902344 112.570312 Z M 115.902344 112.570312 "/>
<path style=" stroke:none;fill-rule:nonzero;fill:rgb(19.607843%,36.862745%,39.215686%);fill-opacity:1;" d="M 95.453125 107.8125 C 95.695312 108.125 95.972656 108.542969 96.320312 108.921875 C 96.980469 109.652344 98.265625 110.417969 98.195312 111.078125 C 98.125 111.875 96.980469 112.605469 96.285156 113.367188 C 95.636719 114.039062 94.964844 114.699219 94.269531 115.347656 C 93.125 116.390625 92.015625 116.457031 90.9375 115.417969 C 89.652344 114.203125 88.4375 112.917969 87.1875 111.703125 C 86.703125 111.25 86.734375 110.9375 87.222656 110.519531 C 87.8125 109.964844 88.367188 109.375 88.921875 108.785156 C 89.339844 108.402344 89.6875 107.777344 90.3125 108.507812 C 90.519531 108.296875 90.832031 108.089844 90.902344 107.8125 C 91.109375 106.679688 91.378906 105.566406 91.703125 104.480469 C 92.027344 103.367188 92.417969 102.292969 92.882812 101.25 C 93.320312 100.183594 93.820312 99.15625 94.375 98.160156 C 94.953125 97.164062 95.578125 96.203125 96.25 95.277344 C 101.839844 87.535156 109.375 82.882812 118.921875 81.734375 C 128.820312 80.589844 137.464844 83.472656 144.894531 90.105469 C 145.660156 90.796875 145.796875 91.25 144.929688 91.945312 C 144.167969 92.570312 143.542969 93.714844 142.742188 93.820312 C 142.117188 93.921875 141.285156 92.8125 140.589844 92.257812 C 124.617188 79.375 100.730469 87.152344 95.730469 106.839844 Z M 95.453125 107.8125 "/>
<path style=" stroke:none;fill-rule:nonzero;fill:rgb(19.607843%,36.862745%,39.215686%);fill-opacity:1;" d="M 153.089844 111.527344 C 153.679688 111.875 154.304688 112.082031 154.757812 112.5 C 156.007812 113.644531 157.152344 114.894531 158.402344 116.078125 C 158.921875 116.5625 158.921875 116.910156 158.402344 117.394531 C 157.707031 117.984375 157.152344 118.679688 156.457031 119.269531 C 156.25 119.445312 155.730469 119.652344 155.625 119.546875 C 154.6875 118.75 154.828125 119.617188 154.722656 120.070312 C 151.734375 133.296875 143.714844 141.980469 130.625 145.382812 C 119.515625 148.230469 109.480469 145.453125 100.832031 137.847656 C 100.035156 137.117188 99.792969 136.632812 100.730469 135.902344 C 101.527344 135.277344 102.152344 134.132812 102.953125 134.027344 C 103.578125 133.957031 104.375 135.070312 105.105469 135.660156 C 120.9375 148.472656 144.828125 140.730469 149.894531 121.144531 C 150.171875 120.171875 150.035156 119.546875 149.304688 118.890625 C 148.578125 118.230469 147.429688 117.464844 147.429688 116.734375 C 147.464844 116.042969 148.609375 115.277344 149.304688 114.582031 C 149.46875 114.398438 149.640625 114.214844 149.828125 114.027344 C 149.988281 113.84375 150.160156 113.667969 150.347656 113.507812 C 150.507812 113.34375 150.683594 113.171875 150.867188 112.984375 C 151.054688 112.824219 151.238281 112.660156 151.421875 112.5 C 151.875 112.082031 152.464844 111.875 153.089844 111.527344 Z M 153.089844 111.527344 "/>
<path style=" stroke:none;fill-rule:nonzero;fill:rgb(19.607843%,36.862745%,39.215686%);fill-opacity:1;" d="M 115.796875 112.257812 C 115.796875 112.28125 115.808594 112.304688 115.832031 112.328125 C 115.832031 112.347656 115.84375 112.382812 115.867188 112.429688 C 115.867188 112.453125 115.878906 112.476562 115.902344 112.5 C 115.902344 112.523438 115.914062 112.546875 115.9375 112.570312 C 115.890625 112.570312 115.84375 112.570312 115.796875 112.570312 C 115.753906 112.570312 115.707031 112.570312 115.660156 112.570312 C 115.613281 112.570312 115.566406 112.558594 115.519531 112.535156 C 115.472656 112.535156 115.441406 112.523438 115.417969 112.5 Z M 115.796875 112.257812 "/>
<path style=" stroke:none;fill-rule:nonzero;fill:rgb(19.607843%,36.862745%,39.215686%);fill-opacity:1;" d="M 108.402344 109.410156 C 107.917969 109.167969 107.953125 108.957031 108.332031 108.679688 C 109.234375 107.984375 110.105469 107.292969 111.042969 106.667969 C 111.214844 106.5625 111.703125 106.5625 111.769531 106.703125 Z M 108.402344 109.410156 "/>
</g>
</svg>
