<?xml version="1.0" encoding="UTF-8"?>
<svg xmlns="http://www.w3.org/2000/svg" xmlns:xlink="http://www.w3.org/1999/xlink" width="250px" height="250px" viewBox="0 0 250 250" version="1.1">
<g id="surface1">
<path style="fill-rule:evenodd;fill:rgb(19.607843%,36.862745%,39.215686%);fill-opacity:1;stroke-width:3.8;stroke-linecap:butt;stroke-linejoin:miter;stroke:rgb(19.607843%,36.862745%,39.215686%);stroke-opacity:1;stroke-miterlimit:4;" d="M 359.7975 637.79625 L 157.80375 637.79625 C 157.33125 637.79625 156.87 637.79625 156.3975 637.79625 C 155.93625 637.86375 155.43 637.86375 154.90125 637.79625 C 154.42875 637.79625 153.9675 637.79625 153.495 637.79625 C 152.96625 637.79625 152.47125 637.7625 151.99875 637.695 C 150.9975 637.63875 150.06375 637.4025 149.1975 636.9975 C 148.33125 636.60375 147.5325 636.03 146.80125 635.29875 C 146.07 634.635 145.49625 633.87 145.1025 633.00375 C 144.6975 632.07 144.43875 631.13625 144.30375 630.2025 C 144.23625 629.73 144.2025 629.235 144.2025 628.695 C 144.135 628.23375 144.10125 627.76125 144.10125 627.3 C 144.10125 626.77125 144.10125 626.265 144.10125 625.80375 C 144.03375 625.33125 144.03375 624.87 144.10125 624.3975 C 144.10125 569.59875 144.10125 514.8 144 460.00125 C 144 448.50375 146.4975 438.19875 154.395 429.60375 C 163.305 419.805 174.70125 416.0025 187.605 416.0025 C 218.53125 416.0025 249.46875 416.0025 280.395 416.0025 C 282.00375 416.0025 283.5 415.90125 284.99625 416.0025 C 287.89875 416.205 288.6975 414.79875 288.59625 412.09875 C 288.495 406.1025 288.30375 400.005 288.6975 393.9975 C 288.9 389.4975 287.20125 388.5975 283.095 388.5975 C 264.105 388.8 245.0025 388.5975 226.00125 388.69875 C 212.70375 388.69875 202.095 383.50125 193.7025 373.39875 C 192.43125 371.80125 191.26125 370.1025 190.20375 368.3025 C 189.2025 366.57 188.33625 364.73625 187.605 362.80125 C 186.8625 360.86625 186.26625 358.8975 185.805 356.895 C 185.4 354.83625 185.16375 352.8 185.09625 350.7975 C 184.80375 347.1975 183.3975 346.5 180.30375 346.60125 C 172.1025 346.7025 163.8 346.7025 155.59875 346.60125 C 147.3975 346.5 144.10125 343.305 144.10125 335.205 C 144.03375 295.79625 144.03375 256.39875 144.10125 217.00125 C 144.10125 208.8 147.29625 205.79625 155.59875 205.605 C 163.90125 205.50375 172.1025 205.50375 180.30375 205.605 C 183.49875 205.695 184.60125 204.795 184.995 201.3975 C 187.695 181.305 198.9 168.5025 217.1025 164.4975 C 217.90125 164.295 218.7 164.17125 219.49875 164.10375 C 220.2975 163.96875 221.09625 163.8675 221.895 163.8 C 222.705 163.7325 223.50375 163.69875 224.3025 163.69875 C 225.10125 163.69875 225.9 163.69875 226.69875 163.69875 C 260.69625 163.63125 294.705 163.5975 328.7025 163.5975 C 336.00375 163.5975 335.295 164.39625 335.295 157.095 C 335.295 149.09625 335.205 140.99625 335.39625 132.9975 C 335.4975 129.70125 334.69875 127.69875 331.50375 125.7975 C 311.09625 113.70375 301.005 91.49625 304.79625 68.895 C 309.105 44.20125 326.80125 26.3025 351.10125 22.60125 C 388.00125 16.99875 415.1025 45.405 415.8 75.70125 C 416.295 97.4025 407.0025 114.0975 388.8 125.595 C 385.50375 127.69875 384.5025 129.8025 384.60375 133.4025 C 384.795 141.60375 384.60375 149.805 384.705 157.995 C 384.705 163.5975 384.705 163.5975 390.29625 163.5975 C 424.1025 163.5975 457.8975 164.295 491.6025 163.395 C 511.4025 162.9 532.395 175.80375 534.90375 201.105 C 535.2975 204.795 536.50125 205.79625 540 205.695 C 547.99875 205.50375 555.9975 205.605 564.0975 205.695 C 572.805 205.79625 575.89875 208.8 575.89875 217.395 C 575.96625 256.60125 575.96625 295.79625 575.89875 335.0025 C 575.89875 343.49625 572.70375 346.60125 564.0975 346.7025 C 556.09875 346.80375 548.1 346.80375 540.10125 346.60125 C 536.6025 346.60125 535.39875 347.4 534.90375 351.2025 C 532.395 370.49625 521.40375 383.4 504 387.59625 C 499.995 388.5975 495.79875 388.5975 491.70375 388.69875 C 473.6025 388.8 455.4 388.69875 437.1975 388.69875 C 431.505 388.69875 431.505 388.8 431.40375 394.4025 C 431.40375 399.29625 431.40375 404.3025 431.40375 409.2975 C 431.40375 416.0025 431.40375 416.10375 437.895 416.10375 C 456.57 416.10375 475.2 416.10375 493.79625 416.10375 C 507.195 416.10375 520.605 415.90125 534.00375 416.10375 C 554.50125 416.39625 569.9025 428.09625 574.605 446.895 C 574.86375 447.89625 575.06625 448.93125 575.20125 450 C 575.40375 451.00125 575.53875 452.0025 575.595 453.00375 C 575.73 454.005 575.7975 455.02875 575.7975 456.0975 C 575.865 457.09875 575.89875 458.1 575.89875 459.10125 C 575.89875 514.5975 575.89875 570.00375 576 625.39875 C 576 633.49875 573.19875 637.99875 563.09625 637.99875 C 495.30375 637.695 427.60125 637.79625 359.7975 637.79625 Z M 359.3025 370.305 C 403.43625 370.305 447.60375 370.305 491.805 370.305 C 507.70125 370.305 516.49875 362.0025 516.6 346.095 C 516.735 299.565 516.735 253.035 516.6 206.505 C 516.6 190.395 507.70125 181.8 491.50125 181.8 C 403.83 181.8 316.17 181.8 228.49875 181.8 C 212.1975 181.8 203.4 190.305 203.4 206.505 C 203.265 253.035 203.265 299.565 203.4 346.095 C 203.4 362.0025 212.1975 370.305 228.105 370.305 C 271.83375 370.305 315.5625 370.305 359.3025 370.305 Z M 360 434.7 L 298.305 434.7 C 261 434.7 223.79625 434.7 186.60375 434.7 C 170.89875 434.80125 162.405 443.295 162.405 458.7975 C 162.405 510.26625 162.405 561.76875 162.405 613.305 C 162.405 620.3025 162 619.605 168.705 619.605 C 188.62875 619.605 208.53 619.605 228.3975 619.605 C 233.89875 619.605 234 619.605 234 613.90125 C 234 588.83625 234 563.7375 234 538.605 C 234 529.2 236.9025 526.19625 246.3975 526.19625 C 322.1325 526.19625 397.8675 526.19625 473.6025 526.19625 C 482.99625 526.19625 485.89875 529.2 485.89875 538.695 C 485.89875 563.77125 485.89875 588.87 485.89875 614.0025 C 485.89875 619.605 486 619.605 491.50125 619.605 C 511.43625 619.605 531.37125 619.605 551.295 619.605 C 557.40375 619.605 557.505 619.605 557.505 613.20375 C 557.505 578.1375 557.505 543.07125 557.505 508.005 C 557.505 490.905 557.505 473.805 557.40375 456.705 C 557.40375 446.6025 551.4975 438.3 542.205 435.70125 C 538.50375 434.7 534.49875 434.7 530.69625 434.7 C 473.77125 434.7 416.86875 434.7 360 434.7 Z M 360 544.60125 C 326.0025 544.60125 292.03875 544.60125 258.0975 544.60125 C 252.30375 544.60125 252.2025 544.7025 252.2025 550.1025 C 252.2025 571.5 252.30375 592.8975 252.10125 614.39625 C 252 618.705 253.395 619.695 257.50125 619.695 C 325.90125 619.57125 394.2675 619.57125 462.6 619.695 C 466.8975 619.695 468 618.40125 468 614.205 C 467.7975 593.3025 467.89875 572.29875 467.89875 551.295 C 467.89875 544.60125 467.89875 544.60125 461.205 544.60125 C 427.39875 544.60125 393.6375 544.60125 359.89875 544.60125 Z M 397.69875 77.99625 C 397.8 57.6 380.7 40.19625 360.2025 40.095 C 339.795 40.095 322.50375 57.195 322.4025 77.70375 C 322.4025 98.1 339.40125 115.30125 359.89875 115.50375 C 380.205 115.695 397.5975 98.40375 397.69875 77.99625 Z M 360.10125 415.90125 C 375.9975 415.90125 391.995 415.8 408.00375 416.0025 C 412.4025 416.10375 413.595 414.6975 413.40375 410.50125 C 413.1 405.405 413.3025 400.19625 413.3025 394.99875 C 413.3025 388.5975 413.3025 388.5975 407.0025 388.5975 C 381.33 388.5975 355.635 388.5975 329.895 388.5975 C 323.7975 388.5975 317.80125 388.8 311.70375 388.49625 C 307.5975 388.305 306.495 389.80125 306.6975 393.705 C 306.765 395.1 306.8325 396.495 306.9 397.90125 C 306.9 399.29625 306.9 400.7025 306.9 402.0975 C 306.9 403.50375 306.9 404.9325 306.9 406.395 C 306.8325 407.80125 306.765 409.19625 306.6975 410.6025 C 306.405 414.79875 307.8 416.10375 312.0975 416.0025 C 328.095 415.8 344.10375 415.90125 360.10125 415.90125 Z M 162.495 276.60375 C 162.495 288.495 162.495 300.3975 162.495 312.3 C 162.495 317.295 162.79875 322.2 163.00125 327.195 C 168.0975 327.49875 173.205 327.90375 178.30125 328.005 C 184.80375 328.095 184.905 328.005 184.905 321.0975 C 184.905 294.3 184.905 267.46875 184.905 240.60375 C 184.905 235.395 184.5 230.29875 184.2975 225.2025 C 178.99875 224.89875 173.7 224.40375 168.3 224.3025 C 162.59625 224.20125 162.495 224.40375 162.495 230.50125 C 162.495 245.835 162.495 261.2025 162.495 276.60375 Z M 535.19625 276.60375 C 535.19625 288.495 535.19625 300.3975 535.19625 312.3 C 535.19625 317.295 535.5 322.2 535.7025 327.195 C 540.79875 327.49875 545.99625 327.90375 551.10375 328.005 C 557.505 328.095 557.595 328.005 557.595 321.0975 C 557.595 294.3 557.595 267.46875 557.595 240.60375 C 557.595 235.395 557.20125 230.29875 556.99875 225.2025 C 551.7 224.89875 546.40125 224.40375 541.1025 224.3025 C 535.2975 224.20125 535.19625 224.40375 535.19625 230.50125 C 535.19625 245.835 535.19625 261.2025 535.19625 276.60375 Z M 353.4975 148.5 L 353.4975 154.90125 C 353.4975 164.39625 353.4975 164.39625 363.105 163.5975 C 363.29625 163.5975 363.6 163.5975 363.70125 163.49625 C 364.7025 162.6975 366.3 161.7975 366.40125 160.8975 C 366.60375 152.7975 366.5025 144.59625 366.40125 136.395 C 366.40125 135.495 365.29875 133.79625 364.60125 133.79625 C 361.20375 133.605 357.5025 133.09875 354.49875 134.3025 C 353.295 134.7975 353.7 139.2975 353.4975 141.9975 C 353.39625 144.2025 353.4975 146.295 353.4975 148.5 Z M 353.4975 148.5 " transform="matrix(0.347222,0,0,0.347222,0,0)"/>
<path style="fill-rule:evenodd;fill:rgb(19.607843%,36.862745%,39.215686%);fill-opacity:1;stroke-width:3.8;stroke-linecap:butt;stroke-linejoin:miter;stroke:rgb(19.607843%,36.862745%,39.215686%);stroke-opacity:1;stroke-miterlimit:4;" d="M 486 255.49875 C 485.89875 277.605 467.89875 295.695 445.995 295.8975 C 423.59625 295.99875 405.405 277.605 405.495 254.80125 C 405.59625 232.79625 423.59625 214.8975 445.80375 214.8975 C 468 214.79625 486 233.1 486 255.49875 Z M 445.7025 277.09875 C 448.605 277.09875 451.395 276.60375 454.095 275.50125 C 456.795 274.39875 459.2025 272.9025 461.205 270.79875 C 463.2975 268.79625 464.895 266.4 465.9975 263.80125 C 467.1 261.2025 467.69625 258.3 467.69625 255.49875 C 467.7975 243.2025 457.8975 233.505 445.2975 233.595 C 433.305 233.69625 423.495 243.59625 423.6975 255.49875 C 423.6975 258.40125 424.305 261.2025 425.39625 263.80125 C 426.49875 266.50125 428.1975 268.8975 430.2 270.9 C 432.30375 272.9025 434.7 274.39875 437.4 275.50125 C 439.99875 276.60375 442.90125 277.09875 445.7025 277.09875 Z M 445.7025 277.09875 " transform="matrix(0.347222,0,0,0.347222,0,0)"/>
<path style="fill-rule:nonzero;fill:rgb(19.607843%,36.862745%,39.215686%);fill-opacity:1;stroke-width:3.8;stroke-linecap:butt;stroke-linejoin:miter;stroke:rgb(19.607843%,36.862745%,39.215686%);stroke-opacity:1;stroke-miterlimit:4;" d="M 360 325.20375 C 376.66125 325.20375 393.33375 325.20375 409.995 325.20375 C 418.39875 325.20375 423.10125 328.39875 423.2025 334.395 C 423.30375 340.30125 418.5 343.90125 410.1975 343.90125 C 376.72875 343.90125 343.2375 343.90125 309.70125 343.90125 C 301.5 343.90125 296.69625 340.2 296.89875 334.305 C 297 328.5 301.5 325.20375 309.49875 325.20375 C 326.295 325.1025 343.20375 325.20375 360 325.20375 Z M 360 325.20375 " transform="matrix(0.347222,0,0,0.347222,0,0)"/>
<path style=" stroke:none;fill-rule:evenodd;fill:rgb(19.607843%,36.862745%,39.215686%);fill-opacity:1;" d="M 69.410156 155.3125 C 74.097656 155.347656 78.019531 159.269531 78.019531 163.921875 C 78.019531 168.578125 74.097656 172.570312 69.445312 172.570312 C 64.617188 172.570312 60.796875 168.609375 60.867188 163.714844 C 60.9375 159.132812 64.859375 155.242188 69.410156 155.3125 Z M 71.597656 164.027344 C 71.597656 163.75 71.550781 163.472656 71.457031 163.195312 C 71.367188 162.941406 71.226562 162.707031 71.042969 162.5 C 70.832031 162.292969 70.601562 162.128906 70.347656 162.015625 C 70.09375 161.898438 69.828125 161.839844 69.546875 161.839844 C 68.296875 161.769531 67.359375 162.535156 67.257812 163.75 C 67.210938 164.050781 67.234375 164.339844 67.328125 164.617188 C 67.417969 164.894531 67.570312 165.152344 67.777344 165.382812 C 67.984375 165.613281 68.230469 165.785156 68.507812 165.902344 C 68.785156 166.019531 69.074219 166.078125 69.375 166.078125 C 69.652344 166.078125 69.917969 166.03125 70.171875 165.9375 C 70.453125 165.84375 70.695312 165.707031 70.902344 165.519531 C 71.109375 165.3125 71.273438 165.082031 71.390625 164.828125 C 71.503906 164.570312 71.574219 164.304688 71.597656 164.027344 Z M 71.597656 164.027344 "/>
<path style=" stroke:none;fill-rule:evenodd;fill:rgb(19.607843%,36.862745%,39.215686%);fill-opacity:1;" d="M 189.097656 163.921875 C 189.097656 165.070312 188.890625 166.179688 188.472656 167.222656 C 188.054688 168.265625 187.429688 169.203125 186.632812 170.035156 C 185.832031 170.832031 184.894531 171.457031 183.855469 171.910156 C 182.8125 172.328125 181.703125 172.570312 180.554688 172.570312 C 175.9375 172.605469 171.945312 168.609375 171.945312 163.957031 C 171.945312 159.304688 175.902344 155.3125 180.554688 155.3125 C 181.667969 155.3125 182.777344 155.554688 183.820312 155.972656 C 184.859375 156.421875 185.796875 157.046875 186.597656 157.847656 C 187.394531 158.644531 188.019531 159.617188 188.472656 160.660156 C 188.890625 161.703125 189.097656 162.8125 189.097656 163.921875 Z M 180.660156 161.839844 C 180.105469 161.804688 179.546875 161.980469 179.132812 162.359375 C 178.714844 162.707031 178.4375 163.230469 178.402344 163.785156 C 178.367188 164.375 178.542969 164.894531 178.921875 165.347656 C 179.304688 165.765625 179.828125 166.007812 180.382812 166.042969 C 181.703125 166.144531 182.742188 165.242188 182.742188 163.992188 C 182.742188 163.691406 182.695312 163.414062 182.605469 163.160156 C 182.511719 162.90625 182.359375 162.671875 182.152344 162.464844 C 181.96875 162.257812 181.746094 162.09375 181.492188 161.980469 C 181.214844 161.886719 180.9375 161.839844 180.660156 161.839844 Z M 180.660156 161.839844 "/>
</g>
</svg>
