<?xml version="1.0" encoding="UTF-8"?>
<svg xmlns="http://www.w3.org/2000/svg" xmlns:xlink="http://www.w3.org/1999/xlink" width="250px" height="250px" viewBox="0 0 250 250" version="1.1">
<g id="surface1">
<path style=" stroke:none;fill-rule:evenodd;fill:rgb(19.607843%,36.862745%,39.215686%);fill-opacity:1;" d="M 144.203125 122.882812 C 146.492188 125.105469 148.820312 127.394531 151.109375 129.6875 C 153.402344 131.980469 153.402344 133.855469 151.144531 136.144531 C 148.992188 138.34375 146.816406 140.507812 144.617188 142.640625 C 142.429688 144.792969 140.589844 144.792969 138.402344 142.640625 C 136.078125 140.3125 133.785156 137.953125 131.25 135.347656 C 129.234375 137.429688 127.394531 139.304688 125.625 141.214844 C 124.410156 142.5 123.019531 143.296875 121.214844 142.742188 C 119.445312 142.222656 118.855469 140.765625 118.507812 139.132812 C 116.097656 128.667969 113.679688 118.207031 111.25 107.742188 C 110.417969 103.957031 112.464844 101.839844 116.179688 102.707031 C 126.78125 105.140625 137.371094 107.582031 147.953125 110.035156 C 151.875 110.972656 152.671875 114.0625 149.859375 116.945312 C 148.054688 118.785156 146.214844 120.589844 144.410156 122.429688 C 144.386719 122.453125 144.375 122.488281 144.375 122.535156 C 144.351562 122.558594 144.328125 122.59375 144.304688 122.640625 C 144.28125 122.683594 144.269531 122.71875 144.269531 122.742188 C 144.246094 122.789062 144.222656 122.835938 144.203125 122.882812 Z M 144.027344 132.8125 C 141.632812 130.453125 139.339844 128.195312 137.046875 125.902344 C 134.722656 123.578125 134.722656 121.804688 137.046875 119.410156 C 138.195312 118.265625 139.339844 117.117188 140.660156 115.765625 L 119.515625 110.9375 L 124.445312 132.1875 C 125.695312 130.867188 126.632812 129.859375 127.640625 128.855469 C 130.453125 126.007812 132.082031 126.007812 134.894531 128.820312 C 137.046875 131.007812 139.167969 133.230469 141.421875 135.589844 Z M 144.027344 132.8125 "/>
<path style=" stroke:none;fill-rule:nonzero;fill:rgb(19.607843%,36.862745%,39.215686%);fill-opacity:1;" d="M 119.167969 89.097656 C 119.167969 89.964844 119.203125 90.832031 119.167969 91.667969 C 118.992188 93.644531 117.605469 95.035156 115.765625 95.140625 C 113.921875 95.277344 112.222656 94.0625 112.015625 92.117188 C 111.96875 91.585938 111.933594 91.066406 111.910156 90.554688 C 111.863281 90.023438 111.839844 89.503906 111.839844 88.992188 C 111.839844 88.484375 111.863281 87.964844 111.910156 87.429688 C 111.933594 86.921875 111.96875 86.402344 112.015625 85.867188 C 112.222656 83.921875 113.890625 82.777344 115.765625 82.882812 C 117.605469 82.984375 118.992188 84.375 119.132812 86.355469 C 119.203125 87.257812 119.167969 88.195312 119.167969 89.097656 Z M 119.167969 89.097656 "/>
<path style=" stroke:none;fill-rule:nonzero;fill:rgb(19.607843%,36.862745%,39.215686%);fill-opacity:1;" d="M 122.742188 96.109375 C 122.882812 95.589844 122.847656 94.894531 123.195312 94.546875 C 124.894531 92.742188 126.527344 90.796875 128.472656 89.269531 C 129.828125 88.195312 131.421875 88.820312 132.605469 89.964844 C 133.75 91.078125 134.027344 93.089844 132.984375 94.339844 C 132.617188 94.757812 132.246094 95.171875 131.875 95.589844 C 131.503906 95.984375 131.121094 96.378906 130.730469 96.769531 C 130.359375 97.164062 129.964844 97.546875 129.546875 97.917969 C 129.15625 98.285156 128.75 98.65625 128.332031 99.027344 C 128.101562 99.234375 127.835938 99.410156 127.535156 99.546875 C 127.234375 99.664062 126.910156 99.734375 126.5625 99.757812 C 126.238281 99.78125 125.925781 99.746094 125.625 99.652344 C 125.300781 99.535156 125.011719 99.386719 124.757812 99.203125 C 123.820312 98.472656 123.195312 97.394531 122.429688 96.421875 Z M 122.742188 96.109375 "/>
<path style=" stroke:none;fill-rule:nonzero;fill:rgb(19.607843%,36.862745%,39.215686%);fill-opacity:1;" d="M 97.707031 110.589844 C 96.597656 110.554688 95.484375 110.554688 94.410156 110.417969 C 93.992188 110.347656 93.597656 110.207031 93.230469 110 C 92.882812 109.792969 92.570312 109.535156 92.292969 109.234375 C 92.015625 108.910156 91.804688 108.554688 91.667969 108.160156 C 91.503906 107.765625 91.421875 107.359375 91.421875 106.945312 C 91.421875 105.347656 92.535156 103.679688 94.167969 103.507812 C 94.722656 103.460938 95.289062 103.425781 95.867188 103.402344 C 96.445312 103.378906 97.027344 103.367188 97.605469 103.367188 C 98.183594 103.367188 98.761719 103.378906 99.339844 103.402344 C 99.917969 103.425781 100.496094 103.460938 101.078125 103.507812 C 102.8125 103.679688 103.855469 105.382812 103.75 107.152344 C 103.726562 107.546875 103.644531 107.929688 103.507812 108.296875 C 103.34375 108.667969 103.136719 109.003906 102.882812 109.304688 C 102.605469 109.605469 102.292969 109.847656 101.945312 110.035156 C 101.574219 110.21875 101.191406 110.347656 100.796875 110.417969 C 99.792969 110.554688 98.75 110.554688 97.707031 110.589844 Z M 97.707031 110.589844 "/>
<path style=" stroke:none;fill-rule:nonzero;fill:rgb(19.607843%,36.862745%,39.215686%);fill-opacity:1;" d="M 108.230469 117.984375 C 108.160156 118.265625 108.195312 118.957031 107.882812 119.304688 C 106.179688 121.109375 104.546875 123.019531 102.605469 124.546875 C 101.25 125.589844 99.617188 125.070312 98.4375 123.855469 C 97.292969 122.640625 96.945312 120.972656 97.984375 119.652344 C 99.410156 117.847656 101.042969 116.109375 102.882812 114.757812 C 105.140625 113.125 108.195312 114.929688 108.230469 117.984375 Z M 108.230469 117.984375 "/>
<path style=" stroke:none;fill-rule:nonzero;fill:rgb(19.607843%,36.862745%,39.215686%);fill-opacity:1;" d="M 108.230469 95.9375 C 108.265625 98.785156 105.242188 100.730469 102.984375 99.132812 C 101.078125 97.777344 99.445312 95.9375 97.953125 94.132812 C 97.71875 93.855469 97.546875 93.542969 97.429688 93.195312 C 97.339844 92.847656 97.304688 92.488281 97.328125 92.117188 C 97.371094 91.769531 97.476562 91.433594 97.640625 91.109375 C 97.800781 90.785156 98.019531 90.507812 98.296875 90.277344 C 99.203125 89.515625 100.867188 88.714844 101.804688 89.0625 C 104.652344 90.035156 106.457031 92.464844 108.089844 94.929688 C 108.265625 95.207031 108.195312 95.660156 108.230469 95.9375 Z M 108.230469 95.9375 "/>
<path style="fill-rule:nonzero;fill:rgb(19.607843%,36.862745%,39.215686%);fill-opacity:1;stroke-width:0.6;stroke-linecap:butt;stroke-linejoin:miter;stroke:rgb(19.607843%,36.862745%,39.215686%);stroke-opacity:1;stroke-miterlimit:4;" d="M 607.995 187.605 L 607.995 502.30125 C 607.995 505.5975 607.2975 508.995 606.00375 512.1 C 604.8 515.205 602.89875 517.995 600.5025 520.4025 C 598.095 522.79875 595.305 524.7 592.2 525.90375 C 589.095 527.1975 585.6975 527.895 582.40125 527.895 L 136.5975 527.895 C 133.30125 527.895 129.90375 527.1975 126.79875 525.90375 C 123.705 524.59875 120.90375 522.79875 118.49625 520.4025 C 116.1 517.995 114.19875 515.205 112.995 512.1 C 111.70125 508.995 111.00375 505.5975 111.00375 502.30125 L 111.00375 187.605 C 111.00375 184.2975 111.70125 180.9 112.995 177.795 C 114.19875 174.70125 116.1 171.9 118.49625 169.50375 C 120.90375 167.09625 123.705 165.29625 126.79875 164.0025 C 129.90375 162.6975 133.30125 162 136.5975 162 L 176.1975 162 L 176.1975 176.895 L 136.5975 176.895 C 135.2025 176.895 133.79625 177.19875 132.5025 177.795 C 131.1975 178.30125 130.095 179.1 129.105 180.10125 C 128.10375 181.1025 127.305 182.205 126.79875 183.49875 C 126.2025 184.80375 125.89875 186.19875 125.89875 187.605 L 125.89875 502.30125 C 125.89875 503.69625 126.2025 505.1025 126.79875 506.39625 C 127.305 507.70125 128.10375 508.80375 129.105 509.805 C 130.095 510.795 131.1975 511.605 132.5025 512.1 C 133.79625 512.69625 135.2025 513 136.5975 513 L 582.40125 513 C 583.79625 513 585.2025 512.69625 586.49625 512.1 C 587.80125 511.605 588.90375 510.795 589.905 509.805 C 590.895 508.80375 591.705 507.70125 592.2 506.39625 C 592.79625 505.1025 593.1 503.69625 593.1 502.30125 L 593.1 187.605 C 593.1 186.19875 592.79625 184.80375 592.2 183.49875 C 591.705 182.205 590.895 181.1025 589.905 180.10125 C 588.90375 179.1 587.80125 178.30125 586.49625 177.795 C 585.2025 177.19875 583.79625 176.895 582.40125 176.895 L 530.40375 176.895 L 530.505 162 L 582.40125 162 C 585.6975 162 589.095 162.6975 592.2 164.0025 C 595.305 165.195 598.095 167.09625 600.5025 169.50375 C 602.89875 171.9 604.8 174.70125 606.00375 177.795 C 607.2975 180.9 607.995 184.2975 607.995 187.605 Z M 607.995 187.605 " transform="matrix(0.347222,0,0,0.347222,0,0)"/>
<path style="fill-rule:nonzero;fill:rgb(19.607843%,36.862745%,39.215686%);fill-opacity:1;stroke-width:0.6;stroke-linecap:butt;stroke-linejoin:miter;stroke:rgb(19.607843%,36.862745%,39.215686%);stroke-opacity:1;stroke-miterlimit:4;" d="M 581.99625 202.19625 L 581.99625 451.90125 L 137.0025 451.90125 L 137.0025 202.19625 L 173.0025 202.39875 L 173.0025 217.305 L 151.8975 217.1025 L 151.8975 436.905 L 188.505 436.905 L 188.505 439.99875 L 545.70375 439.99875 L 545.70375 436.905 L 567.10125 436.905 L 567.10125 217.1025 L 530.40375 217.1025 L 530.40375 202.19625 Z M 581.99625 202.19625 " transform="matrix(0.347222,0,0,0.347222,0,0)"/>
<path style="fill-rule:evenodd;fill:rgb(19.607843%,36.862745%,39.215686%);fill-opacity:1;stroke-width:0.6;stroke-linecap:butt;stroke-linejoin:miter;stroke:rgb(19.607843%,36.862745%,39.215686%);stroke-opacity:1;stroke-miterlimit:4;" d="M 279.2025 602.595 C 277.8975 602.595 276.5025 602.20125 275.4 601.50375 C 274.19625 600.795 273.195 599.805 272.59875 598.60125 C 272.0025 597.29625 271.69875 596.0025 271.8 594.59625 C 271.90125 593.3025 272.295 591.89625 273.105 590.805 L 275.70375 587.10375 C 290.10375 566.595 296.505 543.8025 294.19875 521.20125 C 294.0975 520.09875 294.19875 519.0975 294.5025 518.09625 C 294.89625 517.095 295.4025 516.195 296.1 515.39625 C 296.7975 514.5975 297.6975 514.00125 298.5975 513.59625 C 299.59875 513.2025 300.6 513 301.7025 513 L 417.3975 513 C 418.39875 513 419.50125 513.2025 420.40125 513.59625 C 421.4025 514.00125 422.20125 514.5975 422.89875 515.39625 C 423.59625 516.195 424.20375 517.095 424.49625 518.09625 C 424.8 519.0975 424.90125 520.09875 424.8 521.20125 C 422.595 543.8025 428.99625 566.595 443.295 587.10375 L 445.905 590.805 C 446.70375 591.89625 447.19875 593.3025 447.3 594.59625 C 447.40125 596.0025 447.0975 597.29625 446.4 598.60125 C 445.80375 599.805 444.8025 600.795 443.7 601.50375 C 442.49625 602.20125 441.2025 602.595 439.79625 602.595 Z M 309.49875 527.895 C 310.005 548.40375 304.4025 568.8 293.09625 587.59875 L 425.80125 587.59875 C 414.59625 568.8 409.005 548.40375 409.39875 527.895 Z M 309.49875 527.895 " transform="matrix(0.347222,0,0,0.347222,0,0)"/>
<path style="fill-rule:evenodd;fill:rgb(19.607843%,36.862745%,39.215686%);fill-opacity:1;stroke-width:0.6;stroke-linecap:butt;stroke-linejoin:miter;stroke:rgb(19.607843%,36.862745%,39.215686%);stroke-opacity:1;stroke-miterlimit:4;" d="M 459.2025 636.19875 L 259.79625 636.19875 C 253.395 636.19875 247.19625 633.6 242.595 629.1 C 238.095 624.49875 235.49625 618.3 235.49625 611.89875 C 235.49625 605.4975 238.095 599.29875 242.595 594.6975 C 247.19625 590.1975 253.395 587.59875 259.79625 587.59875 L 459.2025 587.59875 C 465.60375 587.59875 471.8025 590.1975 476.3025 594.6975 C 480.90375 599.29875 483.5025 605.4975 483.5025 611.89875 C 483.5025 618.3 480.90375 624.49875 476.3025 629.1 C 471.8025 633.6 465.60375 636.19875 459.2025 636.19875 Z M 259.79625 602.595 C 257.29875 602.595 255.00375 603.59625 253.20375 605.295 C 251.505 607.095 250.50375 609.40125 250.50375 611.89875 C 250.50375 614.39625 251.505 616.80375 253.20375 618.5025 C 255.00375 620.3025 257.29875 621.2025 259.79625 621.2025 L 459.2025 621.2025 C 461.7 621.2025 463.995 620.3025 465.795 618.5025 C 467.505 616.80375 468.495 614.39625 468.495 611.89875 C 468.495 609.40125 467.505 607.095 465.795 605.295 C 463.995 603.59625 461.7 602.595 459.2025 602.595 Z M 259.79625 602.595 " transform="matrix(0.347222,0,0,0.347222,0,0)"/>
<path style="fill-rule:nonzero;fill:rgb(19.607843%,36.862745%,39.215686%);fill-opacity:1;stroke-width:0.6;stroke-linecap:butt;stroke-linejoin:miter;stroke:rgb(19.607843%,36.862745%,39.215686%);stroke-opacity:1;stroke-miterlimit:4;" d="M 173.0025 202.2975 L 530.40375 202.2975 L 530.40375 217.20375 L 173.0025 217.20375 Z M 173.0025 202.2975 " transform="matrix(0.347222,0,0,0.347222,0,0)"/>
<path style="fill-rule:nonzero;fill:rgb(19.607843%,36.862745%,39.215686%);fill-opacity:1;stroke-width:0.6;stroke-linecap:butt;stroke-linejoin:miter;stroke:rgb(19.607843%,36.862745%,39.215686%);stroke-opacity:1;stroke-miterlimit:4;" d="M 176.1975 176.895 L 176.1975 162 L 530.505 162 L 530.40375 176.895 Z M 176.1975 176.895 " transform="matrix(0.347222,0,0,0.347222,0,0)"/>
</g>
</svg>
