<?xml version="1.0" encoding="UTF-8"?>
<svg xmlns="http://www.w3.org/2000/svg" xmlns:xlink="http://www.w3.org/1999/xlink" width="250px" height="250px" viewBox="0 0 250 250" version="1.1">
<g id="surface1">
<path style="fill:none;stroke-width:12.5;stroke-linecap:butt;stroke-linejoin:miter;stroke:rgb(19.607843%,36.862745%,39.215686%);stroke-opacity:1;stroke-miterlimit:4;" d="M 129.105 358.09875 C 130.005 354.70125 130.905 351.2025 131.895 347.805 C 139.995 319.7025 166.5 299.7 195.795 299.59875 C 215.7975 299.59875 235.90125 299.4975 255.90375 299.7 C 259.30125 299.7 260.505 299.0025 260.40375 295.4025 C 260.3025 275.4 260.3025 255.3975 260.3025 235.5975 C 260.3025 226.69875 262.1025 218.0025 265.5 209.9025 C 268.79625 201.70125 273.8025 194.4 280.1025 188.1 C 286.30125 181.90125 293.70375 176.805 301.80375 173.39625 C 310.005 170.1 318.6 168.40125 327.49875 168.40125 C 348.76125 168.33375 370.035 168.33375 391.2975 168.40125 C 428.09625 168.40125 458.1 198.405 458.20125 235.20375 C 458.20125 255.3975 458.3025 275.4 458.1 295.50375 C 458.1 298.90125 458.89875 299.7 462.29625 299.7 C 482.29875 299.4975 502.2 299.59875 522.10125 299.59875 C 531 299.59875 539.69625 301.2975 547.99875 304.695 C 556.09875 308.10375 563.50125 312.9975 569.80125 319.2975 C 576.10125 325.49625 580.995 333 584.40375 341.20125 C 587.80125 349.4025 589.5 358.2 589.5 366.9975 C 589.5675 388.13625 589.5675 409.26375 589.5 430.4025 C 589.5 439.2 587.7 447.89625 584.3025 455.99625 C 580.905 464.1975 576 471.6 569.7 477.79875 C 563.50125 483.9975 556.09875 488.9025 547.99875 492.3 C 539.7975 495.6975 531.10125 497.39625 522.30375 497.39625 C 502.30125 497.4975 482.4 497.59875 462.49875 497.295 C 458.7975 497.295 458.1 498.3975 458.1 501.89625 C 458.3025 521.595 458.20125 541.395 458.20125 561.195 C 458.1 594.495 434.7 622.20375 401.70375 627.89625 C 401.56875 627.96375 401.4 628.03125 401.1975 628.09875 C 401.0625 628.16625 400.905 628.23375 400.7025 628.30125 C 400.5675 628.36875 400.4325 628.43625 400.2975 628.50375 C 400.095 628.63875 399.9375 628.72875 399.8025 628.79625 L 318.90375 628.79625 C 318.70125 628.72875 318.5325 628.63875 318.3975 628.50375 C 318.195 628.43625 318.0375 628.36875 317.9025 628.30125 C 317.7 628.23375 317.53125 628.16625 317.39625 628.09875 C 317.205 628.03125 317.0025 627.96375 316.8 627.89625 C 283.7025 622.1025 260.40375 594.495 260.40375 560.9025 C 260.40375 541.1025 260.3025 521.40375 260.505 501.60375 C 260.505 498.29625 259.695 497.295 256.2975 497.39625 C 236.23875 497.46375 216.16875 497.46375 196.09875 497.39625 C 188.89875 497.39625 181.8 496.20375 174.90375 493.8975 C 168.0975 491.6025 161.595 488.205 155.80125 483.795 C 150.0975 479.4975 145.00125 474.19875 140.99625 468.30375 C 136.90125 462.29625 133.695 455.805 131.805 448.79625 C 130.905 445.60125 130.005 442.305 129.105 439.09875 Z M 275.70375 384.9975 C 265.7025 384.9975 260.40375 390.195 260.40375 400.095 C 260.40375 421.8975 260.3025 443.9025 260.505 465.705 C 260.505 469.305 259.8975 470.4975 255.90375 470.4975 C 236.80125 470.295 217.5975 470.4975 198.405 470.4975 C 173.59875 470.39625 156.195 452.9025 156.105 427.905 C 156.0375 408.29625 156.0375 388.665 156.105 369 C 156.195 343.90125 173.59875 326.4975 198.79875 326.4975 C 252 326.4975 305.20125 326.4975 358.4025 326.4975 C 369.30375 326.4975 376.09875 316.395 371.39625 307.20375 C 368.7975 301.995 364.5 299.59875 358.695 299.59875 C 336.3975 299.59875 313.99875 299.4975 291.70125 299.7 C 288.2025 299.7 287.3025 298.69875 287.3025 295.2 C 287.40375 276.0975 287.3025 256.905 287.40375 237.70125 C 287.40375 212.805 304.8975 195.3 329.805 195.3 C 349.4025 195.2325 369 195.2325 388.5975 195.3 C 413.7975 195.3 431.20125 212.70375 431.20125 237.90375 C 431.3025 285.40125 431.20125 332.89875 431.40375 380.39625 C 431.40375 384.0975 430.50375 385.2 426.70125 385.2 C 401.1975 384.89625 375.795 384.9975 350.3025 384.9975 Z M 359.7975 470.4975 C 348.795 470.4975 342.30375 481.39875 347.6025 490.7025 C 350.3025 495.405 354.49875 497.4975 359.89875 497.4975 C 382.095 497.4975 404.3025 497.59875 426.49875 497.39625 C 430.50375 497.295 431.40375 498.3975 431.40375 502.30125 C 431.1 521.7975 431.40375 541.305 431.20125 560.80125 C 430.99875 580.095 418.995 595.8 400.80375 600.40125 C 399.8025 600.60375 398.80125 600.795 397.8 600.9975 C 396.79875 601.1325 395.7975 601.2675 394.79625 601.4025 C 393.795 601.5375 392.805 601.605 391.80375 601.605 C 390.8025 601.66125 389.7675 601.695 388.69875 601.695 C 369.10125 601.8975 349.50375 601.8975 329.805 601.79625 C 304.99875 601.695 287.40375 584.3025 287.40375 559.395 C 287.3025 511.79625 287.40375 464.09625 287.3025 416.39625 C 287.20125 412.4025 288.59625 411.89625 292.095 411.89625 C 342.2025 412.09875 392.1975 411.795 442.305 412.2 C 452.39625 412.30125 458.595 405.495 458.3025 396.2025 C 457.8975 374.4 458.3025 352.8 458.1 330.9975 C 458.1 327.6 458.7975 326.39625 462.49875 326.4975 C 481.80375 326.7 501.19875 326.4975 520.50375 326.59875 C 544.905 326.7 562.39875 344.205 562.60125 368.505 C 562.66875 388.42875 562.66875 408.36375 562.60125 428.29875 C 562.39875 453.00375 544.995 470.4975 520.30125 470.4975 C 493.695 470.4975 467.20125 470.4975 440.69625 470.4975 C 413.69625 470.4975 386.7975 470.4975 359.7975 470.4975 Z M 359.7975 470.4975 " transform="matrix(0.347222,0,0,0.347222,0,0)"/>
<path style="fill:none;stroke-width:12.5;stroke-linecap:butt;stroke-linejoin:miter;stroke:rgb(19.607843%,36.862745%,39.215686%);stroke-opacity:1;stroke-miterlimit:4;" d="M 341.3025 249.40125 C 341.20125 254.80125 337.905 259.79625 332.7975 261.6975 C 327.70125 263.80125 321.89625 262.49625 318.105 258.60375 C 314.40375 254.7 313.30125 248.805 315.495 243.79875 C 317.7 238.80375 322.695 235.5975 328.19625 235.8 C 329.895 235.8 331.695 236.205 333.30375 236.9025 C 334.90125 237.6 336.3975 238.60125 337.60125 239.895 C 338.805 241.2 339.795 242.595 340.4025 244.305 C 341.1 245.9025 341.3025 247.60125 341.3025 249.40125 Z M 341.3025 249.40125 " transform="matrix(0.347222,0,0,0.347222,0,0)"/>
<path style="fill:none;stroke-width:12.5;stroke-linecap:butt;stroke-linejoin:miter;stroke:rgb(19.607843%,36.862745%,39.215686%);stroke-opacity:1;stroke-miterlimit:4;" d="M 404.3025 547.99875 C 404.20125 553.39875 400.905 558.30375 395.7975 560.39625 C 390.70125 562.2975 384.89625 561.105 381.105 557.20125 C 377.3025 553.19625 376.2 547.50375 378.405 542.4975 C 380.7 537.40125 385.695 534.195 391.095 534.3975 C 392.895 534.3975 394.605 534.8025 396.2025 535.5 C 397.8 536.1975 399.29625 537.19875 400.5 538.50375 C 401.70375 539.69625 402.705 541.20375 403.30125 542.80125 C 403.8975 544.5 404.3025 546.19875 404.3025 547.99875 Z M 404.3025 547.99875 " transform="matrix(0.347222,0,0,0.347222,0,0)"/>
</g>
</svg>
