<?xml version="1.0" encoding="UTF-8"?>
<svg xmlns="http://www.w3.org/2000/svg" xmlns:xlink="http://www.w3.org/1999/xlink" width="250px" height="250px" viewBox="0 0 250 250" version="1.1">
<g id="surface1">
<path style=" stroke:none;fill-rule:evenodd;fill:rgb(19.607843%,36.862745%,39.215686%);fill-opacity:1;" d="M 126.214844 178.785156 C 150.820312 178.785156 175.417969 178.785156 200 178.785156 C 202.292969 178.785156 204.445312 178.4375 206.320312 177.082031 C 209.0625 175.140625 210.277344 172.394531 210.277344 169.0625 C 210.277344 159.339844 210.277344 149.617188 210.347656 139.894531 C 210.347656 139.617188 210.359375 139.351562 210.382812 139.097656 C 210.429688 138.84375 210.496094 138.589844 210.589844 138.332031 C 210.660156 138.078125 210.753906 137.835938 210.867188 137.605469 C 210.984375 137.371094 211.109375 137.152344 211.25 136.945312 C 212.046875 135.902344 213.332031 135.765625 214.546875 136.320312 C 215.867188 136.875 216.390625 137.953125 216.390625 139.375 C 216.390625 144.582031 216.390625 149.792969 216.390625 155 C 216.390625 159.964844 216.421875 164.929688 216.390625 169.894531 C 216.355469 171.839844 215.972656 173.785156 215.207031 175.589844 C 214.445312 177.394531 213.332031 179.027344 211.980469 180.417969 C 210.589844 181.804688 208.921875 182.917969 207.152344 183.679688 C 205.347656 184.445312 203.402344 184.828125 201.457031 184.859375 C 188.230469 184.894531 175 184.859375 161.769531 184.859375 C 159.792969 184.859375 159.792969 184.859375 160.730469 186.597656 C 161.515625 188.078125 162.417969 189.480469 163.4375 190.796875 C 164.457031 192.117188 165.589844 193.332031 166.839844 194.445312 C 168.066406 195.578125 169.386719 196.597656 170.796875 197.5 C 172.210938 198.402344 173.679688 199.167969 175.207031 199.792969 C 177.671875 200.867188 180.105469 202.015625 182.640625 202.742188 C 184.410156 203.230469 186.390625 202.984375 188.265625 203.195312 C 189.6875 203.367188 191.214844 203.402344 192.5 203.957031 C 196.042969 205.453125 197.917969 208.230469 198.054688 212.117188 C 198.125 214.027344 198.054688 215.9375 198.054688 217.847656 C 198.054688 220.453125 196.980469 221.492188 194.339844 221.492188 C 188.367188 221.492188 121.734375 221.492188 115.765625 221.492188 C 113.855469 221.492188 112.640625 220.171875 112.640625 218.402344 C 112.640625 216.703125 113.890625 215.519531 115.695312 215.417969 C 116.214844 215.382812 116.734375 215.417969 117.222656 215.417969 C 141.273438 215.417969 165.3125 215.40625 189.339844 215.382812 C 190.207031 215.382812 191.492188 216.144531 191.945312 214.792969 C 192.640625 212.707031 191.734375 210.3125 190.105469 209.6875 C 189.941406 209.617188 189.78125 209.558594 189.617188 209.515625 C 189.457031 209.46875 189.292969 209.433594 189.132812 209.410156 C 188.945312 209.386719 188.773438 209.363281 188.609375 209.339844 C 188.425781 209.339844 188.253906 209.339844 188.089844 209.339844 C 145.9375 209.339844 103.796875 209.339844 61.667969 209.339844 C 58.542969 209.339844 56.910156 211.667969 57.777344 214.792969 C 57.800781 214.859375 57.835938 214.929688 57.882812 215 C 57.953125 215.070312 58.007812 215.128906 58.054688 215.171875 C 58.125 215.242188 58.195312 215.289062 58.265625 215.3125 C 58.332031 215.359375 58.414062 215.394531 58.507812 215.417969 C 58.621094 215.441406 58.75 215.453125 58.890625 215.453125 C 59.003906 215.453125 59.132812 215.464844 59.269531 215.484375 C 59.386719 215.484375 59.515625 215.472656 59.652344 215.453125 C 59.769531 215.453125 59.894531 215.453125 60.035156 215.453125 L 102.1875 215.453125 C 102.671875 215.453125 103.195312 215.417969 103.714844 215.453125 C 104.445312 215.554688 105.105469 215.9375 105.589844 216.492188 C 106.078125 217.046875 106.355469 217.777344 106.320312 218.507812 C 106.320312 219.269531 106.042969 219.964844 105.554688 220.519531 C 105.035156 221.078125 104.375 221.421875 103.644531 221.527344 C 103.265625 221.527344 102.882812 221.527344 102.5 221.527344 L 55.695312 221.527344 C 52.5 221.527344 51.632812 220.625 51.632812 217.464844 L 51.632812 212.882812 C 51.632812 207.015625 55.417969 203.125 61.25 203.195312 C 72.535156 203.4375 85.277344 194.652344 88.785156 186.945312 C 88.992188 186.527344 89.203125 186.144531 89.410156 185.765625 C 89.757812 185.171875 89.652344 184.828125 88.921875 184.894531 C 88.472656 184.894531 88.019531 184.894531 87.570312 184.894531 C 75.742188 184.894531 63.921875 184.894531 52.117188 184.894531 C 41.285156 184.894531 33.332031 176.945312 33.332031 166.144531 C 33.332031 134.917969 33.332031 103.703125 33.332031 72.5 C 33.332031 63.332031 39.894531 56.734375 49.027344 56.734375 C 65.878906 56.734375 82.71875 56.734375 99.546875 56.734375 C 99.734375 56.734375 99.90625 56.734375 100.070312 56.734375 C 100.253906 56.734375 100.429688 56.746094 100.589844 56.769531 C 100.753906 56.792969 100.925781 56.816406 101.109375 56.839844 C 101.273438 56.886719 101.433594 56.933594 101.597656 56.980469 C 101.921875 57.09375 102.210938 57.257812 102.464844 57.464844 C 102.742188 57.671875 102.964844 57.929688 103.125 58.230469 C 103.285156 58.53125 103.402344 58.84375 103.472656 59.167969 C 103.519531 59.515625 103.507812 59.847656 103.4375 60.171875 C 103.414062 60.496094 103.332031 60.820312 103.195312 61.144531 C 103.054688 61.445312 102.871094 61.714844 102.640625 61.945312 C 102.382812 62.199219 102.105469 62.394531 101.804688 62.535156 C 101.503906 62.671875 101.179688 62.753906 100.832031 62.777344 C 100.695312 62.800781 100.554688 62.8125 100.417969 62.8125 C 100.277344 62.835938 100.140625 62.847656 100 62.847656 C 99.859375 62.847656 99.710938 62.847656 99.546875 62.847656 C 99.410156 62.824219 99.269531 62.8125 99.132812 62.8125 L 49.722656 62.8125 C 43.160156 62.8125 39.410156 66.527344 39.410156 73.054688 C 39.410156 103.933594 39.410156 134.828125 39.410156 165.730469 C 39.410156 171.875 42.640625 176.597656 48.089844 178.160156 C 48.484375 178.277344 48.890625 178.367188 49.304688 178.4375 C 49.699219 178.507812 50.105469 178.566406 50.519531 178.609375 C 50.914062 178.679688 51.320312 178.726562 51.734375 178.75 C 52.152344 178.773438 52.570312 178.773438 52.984375 178.75 C 77.382812 178.773438 101.792969 178.785156 126.214844 178.785156 Z M 124.828125 203.195312 C 138.597656 203.195312 152.382812 203.195312 166.179688 203.195312 C 166.296875 203.195312 166.410156 203.183594 166.527344 203.160156 C 166.644531 203.136719 166.757812 203.113281 166.875 203.089844 C 166.992188 203.089844 167.105469 203.066406 167.222656 203.019531 C 167.339844 202.996094 167.441406 202.972656 167.535156 202.953125 C 167.464844 202.882812 167.394531 202.8125 167.328125 202.742188 C 167.234375 202.671875 167.152344 202.605469 167.082031 202.535156 C 166.992188 202.464844 166.898438 202.394531 166.804688 202.328125 C 166.734375 202.257812 166.65625 202.1875 166.5625 202.117188 C 165.152344 201.167969 163.808594 200.117188 162.535156 198.957031 C 161.261719 197.800781 160.082031 196.550781 158.992188 195.207031 C 157.929688 193.890625 156.957031 192.488281 156.078125 191.007812 C 155.195312 189.527344 154.421875 187.984375 153.75 186.390625 C 153.265625 185.207031 152.671875 184.859375 151.390625 184.859375 C 133.703125 184.90625 116.03125 184.90625 98.367188 184.859375 C 97.082031 184.859375 96.390625 185.171875 95.832031 186.492188 C 95.183594 188.042969 94.433594 189.546875 93.578125 191.007812 C 92.71875 192.464844 91.757812 193.84375 90.695312 195.140625 C 89.628906 196.457031 88.484375 197.683594 87.257812 198.820312 C 86.03125 199.976562 84.722656 201.03125 83.332031 201.980469 C 83.054688 202.1875 82.777344 202.328125 82.535156 202.5 C 82.488281 202.546875 82.453125 202.59375 82.429688 202.640625 C 82.382812 202.683594 82.347656 202.730469 82.328125 202.777344 C 82.28125 202.824219 82.246094 202.871094 82.222656 202.917969 C 82.199219 202.964844 82.164062 203.007812 82.117188 203.054688 C 82.1875 203.078125 82.246094 203.089844 82.292969 203.089844 C 82.359375 203.113281 82.417969 203.125 82.464844 203.125 C 82.535156 203.148438 82.59375 203.160156 82.640625 203.160156 C 82.707031 203.183594 82.765625 203.195312 82.8125 203.195312 C 83.277344 203.195312 83.726562 203.195312 84.167969 203.195312 Z M 124.828125 203.195312 "/>
<path style=" stroke:none;fill-rule:evenodd;fill:rgb(19.607843%,36.862745%,39.215686%);fill-opacity:1;" d="M 137.082031 95.832031 C 137.082031 95.832031 137.082031 95.84375 137.082031 95.867188 C 137.082031 95.890625 137.082031 95.902344 137.082031 95.902344 C 137.082031 95.925781 137.082031 95.949219 137.082031 95.972656 C 137.082031 95.972656 137.082031 95.984375 137.082031 96.007812 C 136.457031 99.375 137.671875 101.5625 140.796875 103.296875 C 145.140625 105.765625 149.167969 108.820312 153.367188 111.5625 C 153.667969 111.722656 153.945312 111.933594 154.203125 112.1875 C 154.433594 112.417969 154.640625 112.683594 154.828125 112.984375 C 155.011719 113.285156 155.160156 113.597656 155.277344 113.921875 C 155.371094 114.246094 155.429688 114.582031 155.453125 114.929688 C 156.144531 121.5625 156.945312 128.195312 157.640625 134.828125 C 157.640625 135.152344 157.683594 135.464844 157.777344 135.765625 C 157.871094 136.066406 158.007812 136.355469 158.195312 136.632812 C 158.378906 136.886719 158.589844 137.128906 158.820312 137.359375 C 159.074219 137.570312 159.339844 137.742188 159.617188 137.882812 C 164.617188 140.625 167.292969 144.929688 167.570312 150.660156 C 167.671875 153.054688 166.527344 154.234375 164.167969 154.234375 C 157.292969 154.234375 150.429688 154.234375 143.578125 154.234375 C 141.421875 154.234375 140.171875 153.089844 140.140625 151.25 C 140.105469 149.339844 141.390625 148.160156 143.644531 148.160156 C 148.785156 148.160156 153.933594 148.160156 159.097656 148.160156 C 159.234375 148.160156 159.363281 148.148438 159.480469 148.125 C 159.617188 148.101562 159.757812 148.078125 159.894531 148.054688 C 160.011719 148.03125 160.140625 148.007812 160.277344 147.984375 C 160.417969 147.964844 160.542969 147.929688 160.660156 147.882812 C 160.613281 147.742188 160.566406 147.617188 160.519531 147.5 C 160.472656 147.359375 160.417969 147.234375 160.347656 147.117188 C 160.300781 146.980469 160.242188 146.851562 160.171875 146.734375 C 160.128906 146.597656 160.070312 146.46875 160 146.355469 C 158.160156 143.507812 155.484375 142.152344 152.152344 142.082031 C 149.375 142.015625 146.5625 142.082031 143.75 142.082031 C 141.457031 142.082031 140.519531 141.355469 140.105469 139.097656 C 139.234375 134.097656 138.367188 129.097656 137.570312 124.097656 C 137.570312 123.890625 137.535156 123.691406 137.464844 123.507812 C 137.394531 123.320312 137.304688 123.148438 137.1875 122.984375 C 137.070312 122.800781 136.933594 122.652344 136.769531 122.535156 C 136.632812 122.417969 136.46875 122.316406 136.285156 122.222656 C 134.304688 121.320312 132.394531 120.347656 130.484375 119.339844 C 129.515625 118.785156 129.132812 119.0625 128.679688 120 C 126.492188 124.445312 124.234375 128.820312 122.082031 133.296875 C 121.25 135 120.140625 135.9375 118.195312 136.109375 C 110.902344 136.769531 103.644531 137.570312 96.390625 138.230469 C 94.445312 138.367188 93.160156 138.855469 92.046875 140.765625 C 89.410156 145.453125 85.140625 147.882812 79.722656 148.160156 C 77.1875 148.265625 76.078125 147.117188 76.078125 144.652344 C 76.078125 137.847656 76.078125 131.054688 76.078125 124.269531 C 76.078125 121.839844 77.117188 120.765625 79.515625 120.730469 C 79.90625 120.730469 80.289062 120.730469 80.660156 120.730469 C 88.089844 121.320312 95.3125 119.859375 102.535156 118.4375 C 104.132812 118.089844 104.0625 116.980469 104.234375 115.9375 C 104.964844 111.703125 105.625 107.429688 106.355469 103.195312 C 106.910156 99.929688 107.640625 99.375 110.902344 99.375 C 116.980469 99.375 123.089844 99.339844 129.203125 99.410156 C 130.554688 99.445312 131.109375 99.167969 131.007812 97.671875 C 130.867188 95 131.144531 92.328125 130.9375 89.6875 C 130.695312 86.734375 133.542969 84.929688 136.25 86.703125 C 139.269531 88.714844 142.394531 90.484375 145.554688 92.292969 C 145.742188 92.40625 145.949219 92.5 146.179688 92.570312 C 146.390625 92.660156 146.609375 92.730469 146.839844 92.777344 C 147.046875 92.847656 147.269531 92.882812 147.5 92.882812 C 147.730469 92.90625 147.964844 92.917969 148.195312 92.917969 C 153.679688 92.328125 159.167969 91.632812 164.652344 90.9375 C 166.492188 90.695312 167.707031 89.304688 167.570312 87.777344 C 167.394531 86.109375 166.007812 84.964844 163.992188 85.242188 C 159.710938 85.753906 155.441406 86.34375 151.179688 87.015625 C 149.375 87.292969 147.882812 87.082031 146.421875 85.867188 C 142.328125 82.429688 138.125 79.132812 133.921875 75.867188 C 133.761719 75.730469 133.578125 75.613281 133.367188 75.519531 C 133.183594 75.40625 132.984375 75.3125 132.777344 75.242188 C 132.59375 75.171875 132.394531 75.117188 132.1875 75.070312 C 131.957031 75.046875 131.734375 75.023438 131.527344 75 C 124.6875 74.964844 117.8125 74.792969 110.9375 75.035156 C 107.292969 75.171875 103.679688 76.078125 100.035156 76.632812 C 99.097656 76.804688 98.160156 77.152344 97.257812 77.152344 C 94.339844 77.117188 92.984375 78.507812 92.152344 81.285156 C 90.695312 85.9375 88.75 90.453125 87.117188 95.035156 C 87.070312 95.242188 87.035156 95.464844 87.015625 95.695312 C 87.015625 95.902344 87.027344 96.121094 87.046875 96.355469 C 87.09375 96.5625 87.152344 96.769531 87.222656 96.980469 C 87.292969 97.1875 87.382812 97.382812 87.5 97.570312 C 87.847656 98.089844 89.097656 98.265625 89.6875 98.089844 C 90.3125 97.917969 90.832031 97.152344 91.214844 96.527344 C 93.296875 93.195312 95.347656 89.828125 97.292969 86.421875 C 98.230469 84.792969 99.445312 84.0625 101.320312 84.167969 C 103.992188 84.269531 106.667969 84.167969 109.339844 84.203125 C 111.492188 84.203125 112.570312 85.3125 112.605469 87.5 C 112.652344 88.449219 112.652344 89.398438 112.605469 90.347656 C 112.605469 91.042969 112.359375 91.703125 111.945312 92.222656 C 111.492188 92.742188 110.902344 93.125 110.207031 93.265625 C 109.546875 93.402344 108.855469 93.296875 108.230469 92.984375 C 107.640625 92.707031 107.117188 92.1875 106.839844 91.5625 C 106.492188 90.796875 106.320312 90.035156 105.207031 90.277344 C 103.957031 90.554688 102.464844 89.617188 101.527344 91.355469 C 99.722656 94.570312 97.8125 97.71875 95.796875 100.796875 C 94.792969 102.292969 93.296875 103.4375 91.597656 104.027344 C 89.859375 104.617188 87.984375 104.617188 86.25 104.027344 C 84.546875 103.4375 83.054688 102.292969 82.046875 100.765625 C 81.042969 99.269531 80.554688 97.464844 80.660156 95.660156 C 80.683594 95.359375 80.71875 95.070312 80.765625 94.792969 C 80.832031 94.515625 80.902344 94.234375 80.972656 93.957031 C 81.042969 93.679688 81.109375 93.414062 81.179688 93.160156 C 81.273438 92.882812 81.378906 92.605469 81.492188 92.328125 C 83.609375 86.5625 85.832031 80.832031 87.917969 75.070312 C 88.609375 73.125 89.722656 72.046875 91.839844 71.769531 C 93.4375 71.539062 95.035156 71.296875 96.632812 71.042969 L 96.945312 71.042969 L 97.152344 71.007812 L 97.429688 70.9375 L 98.367188 70.796875 L 99.027344 70.695312 L 99.546875 70.625 L 104.828125 69.792969 L 106.285156 69.546875 L 107.359375 69.410156 L 108.332031 69.234375 L 108.785156 69.167969 L 108.957031 69.132812 L 109.339844 69.097656 L 110.277344 68.957031 C 110.765625 68.890625 110.972656 68.785156 110.972656 68.542969 C 110.972656 68.496094 110.972656 68.449219 110.972656 68.402344 C 110.949219 68.355469 110.9375 68.320312 110.9375 68.296875 C 110.914062 68.253906 110.890625 68.207031 110.867188 68.160156 C 110.84375 68.136719 110.820312 68.101562 110.796875 68.054688 C 110.613281 67.640625 110.441406 67.222656 110.277344 66.804688 C 110.140625 66.390625 110.011719 65.949219 109.894531 65.484375 C 109.804688 65.046875 109.722656 64.605469 109.652344 64.167969 C 109.605469 63.703125 109.582031 63.253906 109.582031 62.8125 L 115.695312 62.8125 C 115.730469 64.375 116.390625 65.902344 117.535156 67.015625 C 118.644531 68.125 120.171875 68.75 121.769531 68.75 C 123.332031 68.75 124.859375 68.160156 126.007812 67.046875 C 127.152344 65.972656 127.8125 64.445312 127.882812 62.882812 C 127.882812 62.835938 127.882812 62.800781 127.882812 62.777344 L 133.855469 62.777344 C 133.832031 63.054688 133.796875 63.332031 133.75 63.609375 C 133.714844 63.679688 133.75 63.75 133.714844 63.785156 C 133.679688 63.855469 133.679688 63.921875 133.679688 63.992188 C 133.507812 64.929688 133.296875 65.902344 133.089844 66.839844 C 133.054688 66.945312 132.984375 67.046875 132.984375 67.152344 C 132.984375 67.152344 132.984375 67.164062 132.984375 67.1875 C 132.953125 67.328125 132.953125 67.394531 132.917969 67.570312 C 132.882812 67.707031 132.847656 67.777344 132.847656 67.8125 C 132.707031 68.507812 132.359375 68.820312 133.4375 68.992188 C 133.679688 69.027344 133.921875 69.0625 134.203125 69.132812 C 134.234375 69.132812 134.304688 69.167969 134.375 69.167969 C 134.582031 69.214844 134.78125 69.269531 134.964844 69.339844 C 135.152344 69.410156 135.335938 69.480469 135.519531 69.546875 C 135.707031 69.640625 135.878906 69.734375 136.042969 69.828125 C 136.203125 69.917969 136.378906 70.023438 136.5625 70.140625 L 136.597656 70.171875 L 136.667969 70.242188 C 140.765625 73.367188 144.792969 76.597656 148.75 79.859375 C 148.957031 80.046875 149.191406 80.207031 149.445312 80.347656 C 149.675781 80.484375 149.929688 80.589844 150.207031 80.660156 C 150.484375 80.730469 150.765625 80.777344 151.042969 80.796875 C 151.320312 80.796875 151.597656 80.777344 151.875 80.730469 C 155.589844 80.171875 159.269531 79.6875 162.984375 79.132812 C 168.160156 78.367188 172.953125 81.667969 173.609375 86.5625 C 174.339844 91.945312 170.765625 96.492188 165.3125 97.117188 C 159.546875 97.777344 153.75 98.578125 147.953125 99.304688 C 147.582031 99.375 147.210938 99.410156 146.839844 99.410156 C 146.445312 99.410156 146.066406 99.375 145.695312 99.304688 C 145.324219 99.234375 144.964844 99.132812 144.617188 98.992188 C 144.269531 98.832031 143.933594 98.644531 143.609375 98.4375 C 141.875 97.292969 140 96.320312 138.230469 95.171875 C 137.1875 94.515625 136.945312 94.859375 137.082031 95.832031 Z M 88.019531 133.367188 C 88.066406 132.765625 88.101562 132.152344 88.125 131.527344 C 88.171875 130.902344 88.195312 130.277344 88.195312 129.652344 C 88.195312 129.050781 88.195312 128.4375 88.195312 127.8125 C 88.230469 127.5 87.570312 126.945312 87.1875 126.910156 C 85.867188 126.804688 84.515625 126.910156 83.195312 126.875 C 82.359375 126.839844 82.117188 127.152344 82.117188 127.953125 C 82.152344 130 82.117188 131.980469 82.117188 134.097656 C 82.117188 136.179688 82.152344 138.265625 82.117188 140.382812 C 82.082031 141.492188 82.5 141.527344 83.332031 141.042969 C 85.660156 139.722656 87.394531 137.882812 87.8125 135.207031 C 87.882812 134.605469 87.953125 133.992188 88.019531 133.367188 Z M 133.992188 106.214844 C 133.832031 106.097656 133.65625 106.007812 133.472656 105.9375 C 133.285156 105.84375 133.089844 105.777344 132.882812 105.730469 C 132.695312 105.683594 132.5 105.648438 132.292969 105.625 C 132.105469 105.578125 131.910156 105.554688 131.703125 105.554688 C 128.785156 105.484375 125.9375 105.519531 122.953125 105.519531 C 119.964844 105.519531 116.945312 105.625 113.957031 105.484375 C 112.429688 105.417969 112.046875 106.042969 111.839844 107.394531 C 111.179688 111.910156 110.347656 116.390625 109.652344 120.902344 C 109.375 122.640625 108.4375 123.609375 106.734375 123.921875 C 103.921875 124.445312 101.109375 125 98.332031 125.589844 C 94.339844 126.390625 94.339844 126.421875 94.339844 130.453125 C 94.339844 132.394531 94.339844 132.394531 96.355469 132.1875 C 102.570312 131.5625 108.75 130.9375 114.929688 130.347656 C 115.207031 130.347656 115.484375 130.300781 115.765625 130.207031 C 116.042969 130.140625 116.296875 130.023438 116.527344 129.859375 C 116.757812 129.699219 116.957031 129.515625 117.117188 129.304688 C 117.304688 129.074219 117.453125 128.832031 117.570312 128.578125 C 119.964844 123.609375 122.429688 118.679688 124.929688 113.75 C 125.972656 111.703125 127.5 111.109375 129.445312 112.046875 C 133.402344 113.957031 137.292969 115.9375 141.214844 117.917969 C 141.492188 118.03125 141.746094 118.195312 141.980469 118.402344 C 142.210938 118.589844 142.40625 118.808594 142.570312 119.0625 C 142.753906 119.292969 142.894531 119.558594 142.984375 119.859375 C 143.101562 120.140625 143.171875 120.429688 143.195312 120.730469 C 143.75 124.339844 144.480469 127.953125 145.035156 131.597656 C 145.730469 136.355469 145.695312 136.320312 150.417969 136.078125 C 151.355469 136.042969 151.597656 135.796875 151.492188 134.859375 C 150.832031 129.203125 150.277344 123.507812 149.546875 117.847656 C 149.527344 117.640625 149.46875 117.429688 149.375 117.222656 C 149.304688 117.035156 149.214844 116.851562 149.097656 116.667969 C 148.980469 116.480469 148.855469 116.320312 148.714844 116.179688 C 148.578125 116.019531 148.414062 115.878906 148.230469 115.765625 C 143.542969 112.535156 138.785156 109.339844 133.992188 106.214844 Z M 110.417969 48.714844 C 110.554688 48.230469 110.730469 47.753906 110.9375 47.292969 C 111.144531 46.804688 111.378906 46.34375 111.632812 45.902344 C 111.886719 45.464844 112.164062 45.035156 112.464844 44.617188 C 112.1875 45.035156 111.921875 45.472656 111.667969 45.9375 C 111.410156 46.378906 111.191406 46.828125 111.007812 47.292969 C 110.796875 47.753906 110.613281 48.230469 110.453125 48.714844 C 110.289062 49.203125 110.160156 49.699219 110.070312 50.207031 C 110.160156 49.699219 110.277344 49.203125 110.417969 48.714844 Z M 130.242188 38.402344 L 124.515625 38.402344 C 126.457031 38.402344 128.367188 38.402344 130.242188 38.402344 Z M 130.242188 38.402344 "/>
<path style=" stroke:none;fill-rule:evenodd;fill:rgb(19.607843%,36.862745%,39.215686%);fill-opacity:1;" d="M 146.390625 166.5625 C 132.59375 166.5625 118.796875 166.5625 105 166.5625 C 103.679688 166.5625 102.917969 166.804688 102.1875 168.089844 C 101.421875 169.480469 100.277344 170.625 98.921875 171.457031 C 97.535156 172.257812 95.972656 172.707031 94.375 172.707031 C 92.777344 172.707031 91.214844 172.292969 89.828125 171.492188 C 88.472656 170.695312 87.328125 169.546875 86.527344 168.160156 C 85.765625 166.839844 84.929688 166.527344 83.542969 166.5625 C 78.089844 166.597656 72.605469 166.5625 67.152344 166.597656 C 65.625 166.597656 64.546875 166.007812 63.992188 164.582031 C 63.507812 163.296875 63.785156 161.980469 64.964844 161.179688 C 65.152344 161.089844 65.335938 160.996094 65.519531 160.902344 C 65.730469 160.808594 65.9375 160.742188 66.144531 160.695312 C 66.355469 160.625 66.5625 160.578125 66.769531 160.554688 C 67.003906 160.53125 67.222656 160.519531 67.429688 160.519531 C 72.964844 160.453125 78.496094 160.453125 84.027344 160.519531 C 85.171875 160.519531 85.796875 160.242188 86.390625 159.167969 C 86.734375 158.4375 87.1875 157.742188 87.742188 157.152344 C 88.296875 156.5625 88.921875 156.042969 89.617188 155.625 C 90.3125 155.207031 91.078125 154.894531 91.875 154.6875 C 92.640625 154.480469 93.472656 154.375 94.269531 154.410156 C 97.847656 154.410156 100.589844 155.972656 102.222656 159.0625 C 102.917969 160.382812 103.714844 160.519531 104.894531 160.519531 C 132.417969 160.496094 159.953125 160.496094 187.5 160.519531 C 188.054688 160.519531 188.644531 160.484375 189.203125 160.519531 C 189.929688 160.589844 190.589844 160.972656 191.078125 161.492188 C 191.5625 162.046875 191.804688 162.742188 191.839844 163.472656 C 191.839844 164.203125 191.597656 164.929688 191.144531 165.484375 C 190.660156 166.042969 190.035156 166.421875 189.304688 166.5625 C 189.167969 166.5625 189.027344 166.5625 188.890625 166.5625 C 188.726562 166.5625 188.578125 166.5625 188.4375 166.5625 C 188.296875 166.5625 188.160156 166.5625 188.019531 166.5625 C 187.882812 166.5625 187.742188 166.5625 187.605469 166.5625 Z M 97.328125 163.472656 C 97.328125 162.257812 96.597656 161.144531 95.453125 160.660156 C 94.304688 160.171875 92.984375 160.453125 92.117188 161.355469 C 91.25 162.222656 90.972656 163.542969 91.457031 164.6875 C 91.945312 165.832031 93.089844 166.5625 94.304688 166.5625 C 94.722656 166.539062 95.105469 166.445312 95.453125 166.285156 C 95.820312 166.121094 96.144531 165.890625 96.421875 165.589844 C 96.703125 165.3125 96.921875 164.988281 97.082031 164.617188 C 97.246094 164.269531 97.328125 163.890625 97.328125 163.472656 Z M 97.328125 163.472656 "/>
<path style=" stroke:none;fill-rule:evenodd;fill:rgb(19.607843%,36.862745%,39.215686%);fill-opacity:1;" d="M 185.867188 123.75 C 185.867188 115.925781 185.867188 108.101562 185.867188 100.277344 C 185.867188 97.359375 186.839844 96.390625 189.722656 96.390625 C 193.355469 96.390625 196.980469 96.390625 200.589844 96.390625 C 203.125 96.390625 204.167969 97.464844 204.167969 100 C 204.167969 115.878906 204.167969 131.769531 204.167969 147.671875 C 204.167969 150.207031 203.125 151.285156 200.589844 151.285156 C 196.839844 151.285156 193.089844 151.285156 189.339844 151.285156 C 186.980469 151.285156 185.902344 150.171875 185.902344 147.777344 C 185.878906 139.769531 185.867188 131.757812 185.867188 123.75 Z M 198.089844 105.589844 C 198.089844 102.464844 198.089844 102.464844 195.070312 102.464844 C 192.015625 102.464844 191.980469 102.464844 191.980469 105.519531 C 191.980469 108.578125 191.980469 108.578125 195.105469 108.578125 C 198.089844 108.609375 198.089844 108.609375 198.089844 105.625 Z M 195.035156 114.652344 C 191.980469 114.652344 191.980469 114.652344 191.980469 117.605469 C 191.980469 120.765625 191.980469 120.765625 195.140625 120.765625 C 198.089844 120.765625 198.089844 120.765625 198.089844 117.742188 C 198.089844 114.722656 198.089844 114.652344 195 114.652344 Z M 198.089844 129.894531 C 198.089844 126.875 198.089844 126.875 195.140625 126.875 L 194.964844 126.875 C 191.980469 126.875 191.980469 126.875 191.980469 129.859375 C 191.980469 132.984375 191.980469 132.984375 195.035156 132.984375 C 198.089844 132.984375 198.089844 133.019531 198.089844 129.929688 Z M 194.964844 145.171875 C 198.089844 145.171875 198.089844 145.171875 198.089844 142.117188 L 198.089844 141.945312 C 198.089844 139.027344 198.089844 139.027344 195.207031 139.027344 C 191.980469 139.027344 191.980469 139.027344 191.980469 142.1875 C 191.980469 145.207031 191.980469 145.207031 194.964844 145.207031 Z M 194.964844 145.171875 "/>
<path style=" stroke:none;fill-rule:nonzero;fill:rgb(19.607843%,36.862745%,39.215686%);fill-opacity:1;" d="M 172.847656 56.734375 C 182.128906 56.734375 191.410156 56.734375 200.695312 56.734375 C 209.859375 56.734375 216.390625 63.296875 216.390625 72.464844 C 216.390625 90.265625 216.390625 108.054688 216.390625 125.832031 C 216.390625 125.972656 216.390625 126.097656 216.390625 126.214844 C 216.390625 126.355469 216.390625 126.480469 216.390625 126.597656 C 216.390625 126.734375 216.378906 126.863281 216.355469 126.980469 C 216.355469 127.117188 216.355469 127.246094 216.355469 127.359375 C 216.214844 128.089844 215.832031 128.714844 215.277344 129.167969 C 214.722656 129.617188 214.027344 129.859375 213.296875 129.859375 C 212.570312 129.859375 211.875 129.582031 211.320312 129.132812 C 210.796875 128.644531 210.417969 128.019531 210.3125 127.292969 C 210.3125 127.152344 210.3125 127.015625 210.3125 126.875 C 210.289062 126.734375 210.277344 126.585938 210.277344 126.421875 C 210.277344 126.285156 210.289062 126.144531 210.3125 126.007812 C 210.3125 125.867188 210.3125 125.730469 210.3125 125.589844 L 210.3125 73.332031 C 210.3125 66.421875 206.703125 62.8125 199.722656 62.8125 L 144.410156 62.8125 C 144.269531 62.8125 144.132812 62.8125 143.992188 62.8125 C 143.832031 62.8125 143.679688 62.8125 143.542969 62.8125 C 143.402344 62.8125 143.265625 62.8125 143.125 62.8125 C 142.984375 62.8125 142.847656 62.800781 142.707031 62.777344 C 141.980469 62.671875 141.355469 62.292969 140.867188 61.734375 C 140.417969 61.179688 140.171875 60.484375 140.171875 59.757812 C 140.171875 59.027344 140.417969 58.332031 140.902344 57.777344 C 141.355469 57.222656 142.015625 56.875 142.707031 56.734375 C 142.847656 56.734375 142.972656 56.734375 143.089844 56.734375 C 143.230469 56.714844 143.367188 56.703125 143.507812 56.703125 C 143.621094 56.703125 143.75 56.703125 143.890625 56.703125 C 144.003906 56.703125 144.132812 56.714844 144.269531 56.734375 Z M 172.847656 56.734375 "/>
<path style=" stroke:none;fill-rule:nonzero;fill:rgb(19.607843%,36.862745%,39.215686%);fill-opacity:1;" d="M 54.652344 96.390625 C 52.683594 96.390625 50.71875 96.390625 48.75 96.390625 C 46.769531 96.390625 45.519531 95.171875 45.519531 93.367188 C 45.484375 91.597656 46.734375 90.3125 48.644531 90.3125 C 52.652344 90.289062 56.65625 90.289062 60.660156 90.3125 C 62.605469 90.3125 63.820312 91.632812 63.785156 93.402344 C 63.75 95.207031 62.535156 96.355469 60.554688 96.390625 C 58.578125 96.421875 56.632812 96.390625 54.652344 96.390625 Z M 54.652344 96.390625 "/>
<path style=" stroke:none;fill-rule:nonzero;fill:rgb(19.607843%,36.862745%,39.215686%);fill-opacity:1;" d="M 54.792969 102.5 C 56.667969 102.5 58.578125 102.464844 60.484375 102.5 C 62.570312 102.535156 63.855469 103.75 63.785156 105.589844 C 63.75 107.359375 62.535156 108.542969 60.554688 108.578125 C 56.597656 108.597656 52.652344 108.597656 48.714844 108.578125 C 46.769531 108.578125 45.519531 107.328125 45.519531 105.554688 C 45.519531 103.785156 46.734375 102.535156 48.679688 102.5 C 50.695312 102.464844 52.742188 102.5 54.792969 102.5 Z M 54.792969 102.5 "/>
<path style=" stroke:none;fill-rule:nonzero;fill:rgb(19.607843%,36.862745%,39.215686%);fill-opacity:1;" d="M 54.546875 120.796875 C 52.652344 120.796875 50.742188 120.796875 48.820312 120.796875 C 46.734375 120.765625 45.484375 119.546875 45.519531 117.707031 C 45.519531 115.9375 46.769531 114.722656 48.75 114.722656 C 52.683594 114.699219 56.632812 114.699219 60.589844 114.722656 C 62.535156 114.722656 63.785156 115.9375 63.785156 117.707031 C 63.785156 119.546875 62.570312 120.765625 60.453125 120.765625 C 58.507812 120.796875 56.527344 120.796875 54.546875 120.796875 Z M 54.546875 120.796875 "/>
<path style=" stroke:none;fill-rule:nonzero;fill:rgb(19.607843%,36.862745%,39.215686%);fill-opacity:1;" d="M 53.054688 132.984375 C 51.597656 132.984375 50.140625 133.019531 48.679688 132.984375 C 46.734375 132.953125 45.519531 131.734375 45.519531 129.929688 C 45.519531 128.160156 46.769531 126.945312 48.714844 126.945312 C 51.65625 126.898438 54.582031 126.898438 57.5 126.945312 C 59.480469 126.945312 60.730469 128.125 60.765625 129.894531 C 60.796875 131.769531 59.515625 132.953125 57.429688 133.019531 C 55.972656 133.019531 54.515625 132.984375 53.054688 132.984375 Z M 53.054688 132.984375 "/>
<path style=" stroke:none;fill-rule:nonzero;fill:rgb(19.607843%,36.862745%,39.215686%);fill-opacity:1;" d="M 51.492188 145.207031 C 50.484375 145.207031 49.480469 145.242188 48.4375 145.207031 C 48.054688 145.207031 47.640625 145.105469 47.292969 144.964844 C 46.910156 144.792969 46.597656 144.546875 46.320312 144.269531 C 46.042969 143.992188 45.832031 143.644531 45.695312 143.265625 C 45.554688 142.882812 45.484375 142.5 45.519531 142.082031 C 45.484375 141.703125 45.554688 141.320312 45.695312 140.972656 C 45.832031 140.625 46.042969 140.277344 46.320312 140 C 46.597656 139.722656 46.910156 139.515625 47.257812 139.375 C 47.605469 139.203125 47.984375 139.132812 48.367188 139.132812 C 50.519531 139.039062 52.683594 139.039062 54.859375 139.132812 C 55.242188 139.132812 55.589844 139.203125 55.972656 139.375 C 56.320312 139.515625 56.632812 139.757812 56.875 140.035156 C 57.152344 140.277344 57.359375 140.625 57.5 140.972656 C 57.640625 141.320312 57.707031 141.703125 57.671875 142.082031 C 57.707031 142.5 57.640625 142.882812 57.5 143.265625 C 57.359375 143.644531 57.152344 143.957031 56.875 144.269531 C 56.597656 144.546875 56.25 144.757812 55.902344 144.929688 C 55.519531 145.070312 55.140625 145.171875 54.722656 145.140625 C 53.679688 145.242188 52.605469 145.207031 51.492188 145.207031 Z M 51.492188 145.207031 "/>
<path style=" stroke:none;fill-rule:nonzero;fill:rgb(19.607843%,36.862745%,39.215686%);fill-opacity:1;" d="M 115.660156 57.882812 C 115.730469 59.515625 115.625 61.144531 115.695312 62.8125 L 109.582031 62.8125 C 109.582031 62.09375 109.582031 61.367188 109.582031 60.625 C 109.617188 59.339844 109.617188 58.019531 109.617188 56.734375 L 116.285156 56.734375 C 115.867188 56.839844 115.625 57.152344 115.660156 57.882812 Z M 115.660156 57.882812 "/>
<path style=" stroke:none;fill-rule:nonzero;fill:rgb(19.607843%,36.862745%,39.215686%);fill-opacity:1;" d="M 99.546875 56.734375 L 109.652344 56.734375 C 109.652344 58.019531 109.652344 59.339844 109.582031 60.625 C 109.582031 61.355469 109.546875 62.082031 109.582031 62.8125 L 99.167969 62.8125 Z M 99.546875 56.734375 "/>
<path style=" stroke:none;fill-rule:nonzero;fill:rgb(19.607843%,36.862745%,39.215686%);fill-opacity:1;" d="M 133.957031 61.910156 C 133.957031 62.1875 133.890625 62.5 133.855469 62.777344 L 127.882812 62.777344 C 127.953125 61.179688 127.847656 59.546875 127.917969 57.917969 C 127.953125 57.1875 127.742188 56.875 127.292969 56.734375 L 134.027344 56.734375 C 134.027344 58.472656 134.027344 60.207031 133.957031 61.910156 Z M 133.957031 61.910156 "/>
<path style=" stroke:none;fill-rule:nonzero;fill:rgb(19.607843%,36.862745%,39.215686%);fill-opacity:1;" d="M 142.742188 56.769531 L 142.707031 62.777344 L 133.855469 62.777344 C 133.902344 62.476562 133.933594 62.1875 133.957031 61.910156 C 134.027344 60.171875 134.027344 58.472656 134.027344 56.734375 Z M 142.742188 56.769531 "/>
<path style=" stroke:none;fill-rule:nonzero;fill:rgb(19.607843%,36.862745%,39.215686%);fill-opacity:1;" d="M 210.277344 125.589844 L 216.390625 125.832031 L 216.390625 139.375 L 210.347656 139.894531 Z M 210.277344 125.589844 "/>
<path style=" stroke:none;fill-rule:nonzero;fill:rgb(19.607843%,36.862745%,39.215686%);fill-opacity:1;" d="M 102.429688 221.492188 L 102.152344 215.417969 L 117.222656 215.417969 L 115.765625 221.457031 Z M 102.429688 221.492188 "/>
<path style=" stroke:none;fill-rule:nonzero;fill:rgb(19.607843%,36.862745%,39.215686%);fill-opacity:1;" d="M 106.839844 91.5625 L 112.605469 90.347656 L 112.953125 102.5 L 106.320312 103.230469 Z M 106.839844 91.5625 "/>
<path style=" stroke:none;fill-rule:nonzero;fill:rgb(19.607843%,36.862745%,39.215686%);fill-opacity:1;" d="M 145.453125 134.097656 L 147.046875 151.355469 L 140.105469 151.355469 L 140.070312 139.167969 "/>
<path style=" stroke:none;fill-rule:evenodd;fill:rgb(19.607843%,36.862745%,39.215686%);fill-opacity:1;" d="M 134.027344 56.703125 L 127.328125 56.703125 C 127.257812 56.679688 127.1875 56.667969 127.117188 56.667969 C 127.070312 56.644531 127.015625 56.632812 126.945312 56.632812 C 126.898438 56.632812 126.839844 56.632812 126.769531 56.632812 C 126.703125 56.632812 126.644531 56.632812 126.597656 56.632812 C 125 56.667969 123.472656 56.632812 121.839844 56.632812 C 120.171875 56.632812 118.542969 56.667969 116.875 56.632812 C 116.828125 56.632812 116.78125 56.632812 116.734375 56.632812 C 116.691406 56.632812 116.644531 56.632812 116.597656 56.632812 C 116.550781 56.632812 116.503906 56.632812 116.457031 56.632812 C 116.410156 56.65625 116.367188 56.667969 116.320312 56.667969 L 109.652344 56.667969 C 109.628906 56.132812 109.628906 55.589844 109.652344 55.035156 C 109.652344 54.480469 109.675781 53.933594 109.722656 53.402344 C 109.746094 52.847656 109.792969 52.304688 109.859375 51.769531 C 109.90625 51.214844 109.976562 50.671875 110.070312 50.140625 C 110.183594 49.628906 110.3125 49.132812 110.453125 48.644531 C 110.613281 48.160156 110.796875 47.683594 111.007812 47.222656 C 111.214844 46.757812 111.433594 46.308594 111.667969 45.867188 C 111.921875 45.40625 112.1875 44.964844 112.464844 44.546875 L 112.605469 44.375 C 112.996094 43.84375 113.425781 43.34375 113.890625 42.882812 C 114.351562 42.417969 114.839844 41.992188 115.347656 41.597656 C 115.855469 41.203125 116.390625 40.832031 116.945312 40.484375 C 117.5 40.160156 118.078125 39.871094 118.679688 39.617188 L 118.714844 39.617188 C 119.109375 39.457031 119.503906 39.304688 119.894531 39.167969 C 120.3125 39.027344 120.71875 38.910156 121.109375 38.820312 C 121.527344 38.726562 121.945312 38.644531 122.359375 38.578125 C 122.777344 38.507812 123.207031 38.449219 123.644531 38.402344 L 130.277344 38.402344 C 132.953125 38.4375 133.992188 39.445312 133.992188 42.082031 C 133.992188 45.625 133.992188 49.167969 133.992188 52.742188 C 133.992188 54.097656 134.027344 55.417969 134.027344 56.703125 Z M 127.882812 49.617188 C 127.847656 48.230469 127.917969 46.839844 127.847656 45.417969 C 127.824219 45.324219 127.800781 45.230469 127.777344 45.140625 C 127.730469 45.070312 127.683594 44.988281 127.640625 44.894531 C 127.570312 44.828125 127.5 44.757812 127.429688 44.6875 C 127.359375 44.640625 127.28125 44.59375 127.1875 44.546875 C 123.472656 43.578125 118.296875 46.078125 116.703125 49.515625 C 116.320312 50.347656 116.421875 50.625 117.394531 50.625 C 118.957031 50.589844 120.625 50.625 122.152344 50.625 C 123.679688 50.625 125.207031 50.625 126.734375 50.625 C 127.464844 50.660156 127.953125 50.519531 127.882812 49.617188 Z M 127.882812 49.617188 "/>
<path style=" stroke:none;fill-rule:nonzero;fill:rgb(19.607843%,36.862745%,39.215686%);fill-opacity:1;" d="M 110.070312 50.207031 C 109.976562 50.742188 109.90625 51.285156 109.859375 51.839844 C 109.792969 52.371094 109.734375 52.917969 109.6875 53.472656 C 109.664062 54.003906 109.640625 54.546875 109.617188 55.105469 C 109.617188 55.636719 109.617188 56.179688 109.617188 56.734375 C 109.570312 56.203125 109.546875 55.660156 109.546875 55.105469 C 109.546875 54.546875 109.570312 53.992188 109.617188 53.4375 C 109.640625 52.90625 109.6875 52.359375 109.757812 51.804688 C 109.847656 51.273438 109.953125 50.742188 110.070312 50.207031 Z M 110.070312 50.207031 "/>
<path style=" stroke:none;fill-rule:nonzero;fill:rgb(19.607843%,36.862745%,39.215686%);fill-opacity:1;" d="M 118.679688 39.6875 C 118.078125 39.941406 117.5 40.230469 116.945312 40.554688 C 116.390625 40.902344 115.84375 41.273438 115.3125 41.667969 C 114.804688 42.058594 114.328125 42.488281 113.890625 42.953125 C 113.425781 43.414062 112.996094 43.902344 112.605469 44.410156 C 112.972656 43.878906 113.390625 43.378906 113.855469 42.917969 C 114.292969 42.453125 114.769531 42.015625 115.277344 41.597656 C 115.785156 41.203125 116.332031 40.84375 116.910156 40.519531 C 117.464844 40.195312 118.054688 39.917969 118.679688 39.6875 Z M 118.679688 39.6875 "/>
<path style=" stroke:none;fill-rule:nonzero;fill:rgb(19.607843%,36.862745%,39.215686%);fill-opacity:1;" d="M 118.75 39.652344 C 119.121094 39.492188 119.515625 39.339844 119.929688 39.203125 C 120.324219 39.0625 120.730469 38.945312 121.144531 38.855469 C 121.5625 38.761719 121.980469 38.679688 122.394531 38.609375 C 122.8125 38.542969 123.230469 38.484375 123.644531 38.4375 C 122.394531 38.542969 120.140625 38.785156 118.75 39.652344 Z M 118.75 39.652344 "/>
<path style=" stroke:none;fill-rule:nonzero;fill:rgb(19.607843%,36.862745%,39.215686%);fill-opacity:1;" d="M 133.992188 42.082031 C 133.992188 39.445312 132.953125 38.4375 130.277344 38.402344 C 134.445312 38.019531 133.992188 42.082031 133.992188 42.082031 Z M 133.992188 42.082031 "/>
<path style=" stroke:none;fill-rule:nonzero;fill:rgb(19.607843%,36.862745%,39.215686%);fill-opacity:1;" d="M 133.992188 52.742188 C 133.992188 49.167969 133.992188 45.625 133.992188 42.082031 L 134.027344 56.734375 C 134.027344 55.417969 133.992188 54.097656 133.992188 52.742188 Z M 133.992188 52.742188 "/>
<path style=" stroke:none;fill-rule:nonzero;fill:rgb(19.607843%,36.862745%,39.215686%);fill-opacity:1;" d="M 136.667969 70.207031 L 135.3125 74.617188 C 135.3125 74.617188 121.527344 73.542969 120.695312 73.160156 C 119.859375 72.8125 97.222656 76.214844 97.222656 76.214844 L 96.632812 71.042969 L 96.945312 71.042969 L 97.152344 71.007812 L 97.429688 70.9375 L 98.367188 70.796875 L 99.027344 70.730469 L 99.546875 70.625 L 104.828125 69.828125 L 106.285156 69.582031 L 107.359375 69.410156 L 108.332031 69.269531 L 108.75 69.203125 L 108.957031 69.167969 L 109.304688 69.097656 L 110.242188 68.957031 C 110.765625 68.890625 110.9375 68.714844 110.972656 68.542969 C 110.972656 68.519531 110.972656 68.484375 110.972656 68.4375 C 110.949219 68.390625 110.9375 68.34375 110.9375 68.296875 C 110.914062 68.253906 110.890625 68.21875 110.867188 68.195312 C 110.84375 68.148438 110.820312 68.113281 110.796875 68.089844 C 109.515625 66.421875 109.582031 62.847656 109.582031 62.847656 L 115.695312 62.847656 C 115.730469 64.410156 116.390625 65.9375 117.5 67.046875 C 118.644531 68.160156 120.171875 68.785156 121.734375 68.785156 C 123.332031 68.785156 124.859375 68.195312 126.007812 67.082031 C 127.152344 65.972656 127.8125 64.480469 127.882812 62.882812 C 127.882812 62.859375 127.882812 62.835938 127.882812 62.8125 L 133.855469 62.8125 C 133.855469 62.882812 133.855469 62.953125 133.855469 63.019531 C 133.832031 63.089844 133.820312 63.160156 133.820312 63.230469 C 133.796875 63.296875 133.785156 63.367188 133.785156 63.4375 C 133.761719 63.507812 133.75 63.578125 133.75 63.644531 C 133.75 63.714844 133.714844 63.75 133.714844 63.820312 C 133.714844 63.890625 133.714844 63.957031 133.679688 64.027344 C 133.507812 64.894531 133.230469 66.042969 133.054688 66.875 C 133.03125 66.992188 133.007812 67.09375 132.984375 67.1875 C 132.984375 67.1875 132.984375 67.199219 132.984375 67.222656 C 132.964844 67.359375 132.941406 67.476562 132.917969 67.570312 C 132.882812 67.671875 132.847656 67.8125 132.847656 67.847656 C 132.777344 68.125 131.703125 68.820312 133.4375 69.027344 C 133.507812 69.027344 133.566406 69.027344 133.609375 69.027344 C 133.679688 69.050781 133.75 69.0625 133.820312 69.0625 C 133.867188 69.085938 133.921875 69.097656 133.992188 69.097656 C 134.0625 69.121094 134.121094 69.144531 134.167969 69.167969 C 134.234375 69.167969 134.304688 69.203125 134.375 69.203125 C 134.558594 69.246094 134.746094 69.304688 134.929688 69.375 C 135.117188 69.445312 135.300781 69.527344 135.484375 69.617188 C 135.671875 69.6875 135.84375 69.769531 136.007812 69.859375 C 136.191406 69.953125 136.367188 70.058594 136.527344 70.171875 L 136.597656 70.207031 Z M 136.667969 70.207031 "/>
<path style=" stroke:none;fill-rule:nonzero;fill:rgb(19.607843%,36.862745%,39.215686%);fill-opacity:1;" d="M 110.660156 62.117188 C 110.636719 62.1875 110.601562 62.257812 110.554688 62.328125 C 110.507812 62.394531 110.453125 62.453125 110.382812 62.5 C 110.3125 62.546875 110.242188 62.59375 110.171875 62.640625 C 110.105469 62.683594 110.023438 62.71875 109.929688 62.742188 C 109.859375 62.765625 109.78125 62.789062 109.6875 62.8125 C 109.617188 62.8125 109.535156 62.8125 109.445312 62.8125 C 109.351562 62.8125 109.269531 62.800781 109.203125 62.777344 C 109.109375 62.753906 109.027344 62.71875 108.957031 62.671875 C 108.890625 62.652344 108.820312 62.605469 108.75 62.535156 C 108.679688 62.488281 108.621094 62.441406 108.578125 62.394531 C 108.53125 62.328125 108.484375 62.257812 108.4375 62.1875 C 108.390625 62.117188 108.355469 62.035156 108.332031 61.945312 C 108.308594 61.875 108.285156 61.792969 108.265625 61.703125 C 108.265625 61.609375 108.265625 61.527344 108.265625 61.457031 C 108.265625 61.367188 108.277344 61.285156 108.296875 61.214844 C 108.320312 61.054688 108.355469 60.890625 108.402344 60.730469 L 108.332031 61.078125 C 108.355469 60.820312 108.378906 60.566406 108.402344 60.3125 C 108.425781 60.058594 108.4375 59.804688 108.4375 59.546875 C 108.4375 59.292969 108.4375 59.039062 108.4375 58.785156 C 108.414062 58.53125 108.390625 58.277344 108.367188 58.019531 C 108.367188 57.777344 108.472656 57.535156 108.609375 57.292969 C 108.75 57.082031 108.921875 56.945312 109.167969 56.839844 C 109.410156 56.734375 109.652344 56.703125 109.894531 56.769531 C 110.140625 56.804688 110.382812 56.945312 110.554688 57.117188 C 110.601562 57.164062 110.648438 57.222656 110.695312 57.292969 C 110.742188 57.359375 110.785156 57.441406 110.832031 57.535156 C 110.855469 57.605469 110.878906 57.683594 110.902344 57.777344 C 110.925781 57.847656 110.9375 57.929688 110.9375 58.019531 C 110.960938 58.34375 110.972656 58.667969 110.972656 58.992188 C 110.972656 59.316406 110.972656 59.640625 110.972656 59.964844 C 110.949219 60.289062 110.925781 60.601562 110.902344 60.902344 C 110.855469 61.226562 110.808594 61.550781 110.765625 61.875 C 110.742188 61.96875 110.707031 62.046875 110.660156 62.117188 Z M 110.660156 62.117188 "/>
<path style=" stroke:none;fill-rule:nonzero;fill:rgb(19.607843%,36.862745%,39.215686%);fill-opacity:1;" d="M 132.777344 58.402344 C 132.777344 58.308594 132.765625 58.21875 132.742188 58.125 C 132.742188 58.054688 132.753906 57.972656 132.777344 57.882812 C 132.777344 57.8125 132.789062 57.730469 132.8125 57.640625 C 132.835938 57.570312 132.871094 57.488281 132.917969 57.394531 C 133.054688 57.1875 133.230469 57.015625 133.472656 56.910156 C 133.679688 56.804688 133.921875 56.734375 134.167969 56.769531 C 134.445312 56.804688 134.652344 56.910156 134.859375 57.082031 C 135.035156 57.257812 135.171875 57.464844 135.242188 57.707031 C 135.289062 57.871094 135.324219 58.03125 135.347656 58.195312 C 135.371094 58.355469 135.394531 58.519531 135.417969 58.679688 C 135.441406 58.84375 135.464844 59.003906 135.484375 59.167969 C 135.484375 59.328125 135.484375 59.492188 135.484375 59.652344 C 135.484375 60.207031 135.453125 60.765625 135.453125 61.320312 C 135.453125 61.503906 135.417969 61.667969 135.347656 61.804688 C 135.277344 61.96875 135.183594 62.105469 135.070312 62.222656 C 134.953125 62.339844 134.816406 62.429688 134.652344 62.5 C 134.492188 62.570312 134.328125 62.605469 134.167969 62.605469 C 134.003906 62.605469 133.84375 62.570312 133.679688 62.5 C 133.519531 62.429688 133.378906 62.339844 133.265625 62.222656 C 133.148438 62.105469 133.054688 61.96875 132.984375 61.804688 C 132.917969 61.667969 132.882812 61.503906 132.882812 61.320312 L 132.917969 60.207031 C 132.941406 60.09375 132.953125 59.988281 132.953125 59.894531 C 132.953125 59.804688 132.953125 59.710938 132.953125 59.617188 C 132.953125 59.527344 132.953125 59.433594 132.953125 59.339844 C 132.953125 59.246094 132.941406 59.15625 132.917969 59.0625 L 132.984375 59.375 C 132.917969 59.027344 132.847656 58.714844 132.8125 58.367188 Z M 132.777344 58.402344 "/>
<path style=" stroke:none;fill-rule:nonzero;fill:rgb(19.607843%,36.862745%,39.215686%);fill-opacity:1;" d="M 132.953125 60.277344 C 132.953125 60.207031 132.953125 60.152344 132.953125 60.105469 C 132.953125 60.035156 132.964844 59.976562 132.984375 59.929688 C 133.007812 59.882812 133.019531 59.839844 133.019531 59.792969 C 133.042969 59.722656 133.078125 59.664062 133.125 59.617188 L 133.296875 59.375 C 133.34375 59.328125 133.390625 59.292969 133.4375 59.269531 C 133.484375 59.222656 133.53125 59.191406 133.578125 59.167969 C 133.621094 59.144531 133.667969 59.121094 133.714844 59.097656 C 133.761719 59.074219 133.820312 59.050781 133.890625 59.027344 L 134.203125 58.992188 C 134.292969 58.992188 134.386719 59.003906 134.480469 59.027344 C 134.546875 59.050781 134.628906 59.074219 134.722656 59.097656 C 134.792969 59.144531 134.859375 59.191406 134.929688 59.234375 C 135 59.28125 135.070312 59.328125 135.140625 59.375 C 135.160156 59.398438 135.195312 59.433594 135.242188 59.480469 C 135.265625 59.503906 135.289062 59.535156 135.3125 59.582031 C 135.335938 59.605469 135.347656 59.640625 135.347656 59.6875 C 135.371094 59.710938 135.394531 59.746094 135.417969 59.792969 C 135.441406 59.839844 135.453125 59.871094 135.453125 59.894531 C 135.472656 59.941406 135.484375 59.988281 135.484375 60.035156 C 135.507812 60.082031 135.519531 60.128906 135.519531 60.171875 C 135.519531 60.21875 135.519531 60.265625 135.519531 60.3125 C 135.519531 60.335938 135.519531 60.371094 135.519531 60.417969 C 135.519531 60.464844 135.519531 60.507812 135.519531 60.554688 C 135.519531 60.601562 135.519531 60.648438 135.519531 60.695312 C 135.519531 60.71875 135.519531 60.753906 135.519531 60.796875 C 135.519531 60.867188 135.519531 60.925781 135.519531 60.972656 C 135.496094 61.042969 135.484375 61.097656 135.484375 61.144531 C 135.464844 61.191406 135.441406 61.238281 135.417969 61.285156 C 135.394531 61.355469 135.371094 61.410156 135.347656 61.457031 L 135.140625 61.703125 C 135.117188 61.746094 135.082031 61.78125 135.035156 61.804688 C 134.988281 61.851562 134.941406 61.886719 134.894531 61.910156 C 134.847656 61.933594 134.792969 61.957031 134.722656 61.980469 C 134.675781 62.003906 134.628906 62.027344 134.582031 62.046875 L 134.234375 62.082031 C 134.191406 62.082031 134.144531 62.082031 134.097656 62.082031 C 134.074219 62.082031 134.039062 62.070312 133.992188 62.046875 C 133.945312 62.046875 133.902344 62.035156 133.855469 62.015625 C 133.808594 62.015625 133.773438 62.003906 133.75 61.980469 C 133.703125 61.957031 133.65625 61.945312 133.609375 61.945312 C 133.589844 61.921875 133.554688 61.898438 133.507812 61.875 C 133.484375 61.851562 133.449219 61.828125 133.402344 61.804688 C 133.378906 61.78125 133.355469 61.746094 133.332031 61.703125 C 133.285156 61.679688 133.253906 61.65625 133.230469 61.632812 C 133.207031 61.585938 133.183594 61.550781 133.160156 61.527344 C 133.136719 61.480469 133.113281 61.445312 133.089844 61.421875 C 133.089844 61.378906 133.078125 61.332031 133.054688 61.285156 C 133.03125 61.261719 133.019531 61.226562 133.019531 61.179688 C 132.996094 61.132812 132.972656 61.089844 132.953125 61.042969 C 132.953125 60.996094 132.953125 60.949219 132.953125 60.902344 C 132.953125 60.878906 132.953125 60.84375 132.953125 60.796875 C 132.953125 60.753906 132.953125 60.707031 132.953125 60.660156 C 132.953125 60.613281 132.953125 60.566406 132.953125 60.519531 C 132.953125 60.496094 132.953125 60.464844 132.953125 60.417969 C 132.953125 60.371094 132.953125 60.324219 132.953125 60.277344 Z M 132.953125 60.277344 "/>
<path style=" stroke:none;fill-rule:nonzero;fill:rgb(19.607843%,36.862745%,39.215686%);fill-opacity:1;" d="M 134.792969 62.394531 C 134.746094 62.417969 134.699219 62.453125 134.652344 62.5 C 134.605469 62.523438 134.558594 62.546875 134.515625 62.570312 C 134.46875 62.617188 134.421875 62.640625 134.375 62.640625 C 134.328125 62.660156 134.28125 62.683594 134.234375 62.707031 L 133.890625 62.742188 C 133.820312 62.742188 133.761719 62.742188 133.714844 62.742188 C 133.667969 62.742188 133.609375 62.730469 133.542969 62.707031 C 133.496094 62.683594 133.449219 62.671875 133.402344 62.671875 C 133.332031 62.652344 133.277344 62.617188 133.230469 62.570312 L 132.984375 62.394531 C 132.964844 62.347656 132.929688 62.316406 132.882812 62.292969 C 132.859375 62.269531 132.835938 62.234375 132.8125 62.1875 C 132.789062 62.164062 132.777344 62.128906 132.777344 62.082031 C 132.753906 62.035156 132.730469 62.003906 132.707031 61.980469 C 132.683594 61.886719 132.660156 61.804688 132.640625 61.734375 C 132.617188 61.644531 132.605469 61.5625 132.605469 61.492188 C 132.605469 61.402344 132.617188 61.308594 132.640625 61.214844 C 132.660156 61.144531 132.683594 61.066406 132.707031 60.972656 C 132.730469 60.949219 132.753906 60.914062 132.777344 60.867188 C 132.777344 60.84375 132.789062 60.808594 132.8125 60.765625 C 132.835938 60.742188 132.859375 60.707031 132.882812 60.660156 C 132.929688 60.636719 132.964844 60.613281 132.984375 60.589844 L 132.777344 60.832031 C 132.777344 60.832031 132.789062 60.820312 132.8125 60.796875 C 132.8125 60.796875 132.8125 60.785156 132.8125 60.765625 C 132.835938 60.765625 132.847656 60.753906 132.847656 60.730469 C 132.847656 60.707031 132.847656 60.695312 132.847656 60.695312 L 132.742188 61.007812 C 132.765625 60.9375 132.789062 60.878906 132.8125 60.832031 C 132.8125 60.785156 132.824219 60.730469 132.847656 60.660156 C 132.871094 60.613281 132.894531 60.554688 132.917969 60.484375 C 132.917969 60.441406 132.929688 60.382812 132.953125 60.3125 C 132.953125 60.265625 132.964844 60.21875 132.984375 60.171875 C 133.007812 60.128906 133.03125 60.082031 133.054688 60.035156 C 133.101562 59.988281 133.136719 59.941406 133.160156 59.894531 C 133.207031 59.847656 133.242188 59.804688 133.265625 59.757812 L 133.542969 59.546875 C 133.589844 59.527344 133.632812 59.503906 133.679688 59.480469 C 133.726562 59.457031 133.785156 59.445312 133.855469 59.445312 C 133.902344 59.421875 133.945312 59.410156 133.992188 59.410156 C 134.0625 59.386719 134.121094 59.375 134.167969 59.375 L 134.515625 59.445312 C 134.582031 59.46875 134.664062 59.492188 134.757812 59.515625 C 134.828125 59.558594 134.882812 59.605469 134.929688 59.652344 C 135 59.699219 135.070312 59.757812 135.140625 59.828125 C 135.183594 59.894531 135.230469 59.964844 135.277344 60.035156 C 135.300781 60.058594 135.324219 60.09375 135.347656 60.140625 C 135.347656 60.160156 135.359375 60.195312 135.382812 60.242188 C 135.40625 60.289062 135.417969 60.335938 135.417969 60.382812 C 135.417969 60.429688 135.417969 60.464844 135.417969 60.484375 C 135.441406 60.53125 135.453125 60.578125 135.453125 60.625 C 135.453125 60.671875 135.453125 60.71875 135.453125 60.765625 C 135.453125 60.808594 135.453125 60.84375 135.453125 60.867188 C 135.453125 60.914062 135.441406 60.960938 135.417969 61.007812 C 135.417969 61.054688 135.417969 61.089844 135.417969 61.109375 C 135.394531 61.15625 135.382812 61.203125 135.382812 61.25 C 135.359375 61.273438 135.347656 61.308594 135.347656 61.355469 C 135.324219 61.402344 135.300781 61.433594 135.277344 61.457031 C 135.277344 61.480469 135.277344 61.503906 135.277344 61.527344 C 135.277344 61.550781 135.265625 61.5625 135.242188 61.5625 C 135.242188 61.585938 135.242188 61.609375 135.242188 61.632812 C 135.242188 61.65625 135.230469 61.667969 135.207031 61.667969 C 135.207031 61.714844 135.195312 61.746094 135.171875 61.769531 C 135.171875 61.816406 135.160156 61.851562 135.140625 61.875 C 135.117188 61.898438 135.105469 61.933594 135.105469 61.980469 C 135.082031 62.003906 135.070312 62.027344 135.070312 62.046875 C 135.046875 62.09375 135.023438 62.128906 135 62.152344 C 134.976562 62.175781 134.953125 62.199219 134.929688 62.222656 C 134.90625 62.269531 134.882812 62.304688 134.859375 62.328125 C 134.839844 62.347656 134.816406 62.371094 134.792969 62.394531 Z M 134.792969 62.394531 "/>
<path style=" stroke:none;fill-rule:nonzero;fill:rgb(19.607843%,36.862745%,39.215686%);fill-opacity:1;" d="M 129.167969 64.132812 C 129.074219 64.132812 128.992188 64.121094 128.921875 64.097656 C 128.832031 64.074219 128.75 64.050781 128.679688 64.027344 C 128.589844 64.003906 128.507812 63.96875 128.4375 63.921875 C 128.367188 63.878906 128.308594 63.820312 128.265625 63.75 C 128.148438 63.632812 128.054688 63.496094 127.984375 63.332031 C 127.917969 63.195312 127.882812 63.03125 127.882812 62.847656 C 127.882812 62.683594 127.917969 62.523438 127.984375 62.359375 C 128.054688 62.222656 128.148438 62.082031 128.265625 61.945312 C 128.308594 61.898438 128.367188 61.851562 128.4375 61.804688 C 128.507812 61.757812 128.589844 61.714844 128.679688 61.667969 C 128.75 61.644531 128.820312 61.621094 128.890625 61.597656 C 128.980469 61.597656 129.074219 61.597656 129.167969 61.597656 C 129.546875 61.632812 129.929688 61.632812 130.347656 61.632812 C 130.441406 61.632812 130.53125 61.632812 130.625 61.632812 C 130.71875 61.632812 130.820312 61.632812 130.9375 61.632812 C 131.03125 61.632812 131.121094 61.632812 131.214844 61.632812 C 131.308594 61.632812 131.402344 61.621094 131.492188 61.597656 L 131.179688 61.667969 C 131.203125 61.644531 131.238281 61.632812 131.285156 61.632812 C 131.332031 61.609375 131.367188 61.597656 131.390625 61.597656 C 131.433594 61.574219 131.46875 61.5625 131.492188 61.5625 C 131.539062 61.539062 131.585938 61.515625 131.632812 61.492188 C 131.703125 61.46875 131.78125 61.457031 131.875 61.457031 C 131.96875 61.433594 132.046875 61.421875 132.117188 61.421875 C 132.210938 61.421875 132.304688 61.433594 132.394531 61.457031 C 132.464844 61.457031 132.546875 61.46875 132.640625 61.492188 C 132.953125 61.597656 133.230469 61.804688 133.402344 62.117188 C 133.578125 62.394531 133.609375 62.742188 133.542969 63.054688 C 133.4375 63.402344 133.230469 63.679688 132.917969 63.855469 C 132.640625 63.992188 132.292969 64.0625 131.945312 63.957031 C 131.921875 63.957031 131.910156 63.957031 131.910156 63.957031 C 131.910156 63.957031 131.898438 63.957031 131.875 63.957031 L 132.1875 63.992188 L 132.117188 63.992188 L 132.464844 63.957031 C 132.417969 63.957031 132.382812 63.96875 132.359375 63.992188 C 132.339844 63.992188 132.316406 63.992188 132.292969 63.992188 C 132.246094 64.015625 132.210938 64.027344 132.1875 64.027344 C 132.164062 64.050781 132.140625 64.0625 132.117188 64.0625 C 132.070312 64.085938 132.027344 64.097656 131.980469 64.097656 C 131.933594 64.121094 131.875 64.132812 131.804688 64.132812 C 131.757812 64.15625 131.714844 64.167969 131.667969 64.167969 C 131.621094 64.167969 131.574219 64.179688 131.527344 64.203125 C 131.457031 64.203125 131.390625 64.203125 131.320312 64.203125 C 131.25 64.203125 131.191406 64.203125 131.144531 64.203125 C 131.078125 64.203125 131.007812 64.214844 130.9375 64.234375 C 130.867188 64.234375 130.796875 64.222656 130.730469 64.203125 C 130.207031 64.234375 129.6875 64.203125 129.167969 64.167969 Z M 129.167969 64.132812 "/>
<path style=" stroke:none;fill-rule:nonzero;fill:rgb(19.607843%,36.862745%,39.215686%);fill-opacity:1;" d="M 132.328125 64.027344 C 132.28125 64.027344 132.222656 64.015625 132.152344 63.992188 C 132.105469 63.992188 132.046875 63.980469 131.980469 63.957031 C 131.933594 63.957031 131.886719 63.945312 131.839844 63.921875 C 131.792969 63.902344 131.734375 63.878906 131.667969 63.855469 L 131.421875 63.644531 C 131.378906 63.597656 131.34375 63.554688 131.320312 63.507812 C 131.273438 63.460938 131.238281 63.414062 131.214844 63.367188 C 131.191406 63.320312 131.167969 63.277344 131.144531 63.230469 C 131.121094 63.183594 131.109375 63.136719 131.109375 63.089844 L 131.042969 62.742188 C 131.042969 62.695312 131.042969 62.652344 131.042969 62.605469 C 131.042969 62.558594 131.054688 62.511719 131.078125 62.464844 C 131.078125 62.417969 131.089844 62.382812 131.109375 62.359375 C 131.132812 62.316406 131.15625 62.269531 131.179688 62.222656 C 131.203125 62.152344 131.238281 62.082031 131.285156 62.015625 C 131.308594 61.945312 131.355469 61.875 131.421875 61.804688 C 131.492188 61.757812 131.5625 61.714844 131.632812 61.667969 C 131.703125 61.621094 131.769531 61.585938 131.839844 61.5625 C 131.886719 61.539062 131.921875 61.515625 131.945312 61.492188 C 131.992188 61.492188 132.035156 61.480469 132.082031 61.457031 C 132.128906 61.457031 132.175781 61.457031 132.222656 61.457031 C 132.269531 61.457031 132.316406 61.457031 132.359375 61.457031 L 132.464844 61.457031 C 132.535156 61.457031 132.59375 61.457031 132.640625 61.457031 C 132.683594 61.457031 132.742188 61.46875 132.8125 61.492188 C 132.859375 61.515625 132.90625 61.527344 132.953125 61.527344 C 133.019531 61.550781 133.078125 61.585938 133.125 61.632812 L 133.367188 61.804688 C 133.414062 61.851562 133.449219 61.898438 133.472656 61.945312 C 133.519531 61.992188 133.554688 62.035156 133.578125 62.082031 C 133.597656 62.128906 133.621094 62.175781 133.644531 62.222656 C 133.667969 62.269531 133.679688 62.328125 133.679688 62.394531 L 133.75 62.707031 C 133.75 62.753906 133.75 62.800781 133.75 62.847656 C 133.75 62.894531 133.738281 62.941406 133.714844 62.984375 C 133.714844 63.03125 133.703125 63.078125 133.679688 63.125 C 133.65625 63.148438 133.644531 63.183594 133.644531 63.230469 C 133.621094 63.277344 133.597656 63.308594 133.578125 63.332031 C 133.578125 63.378906 133.566406 63.414062 133.542969 63.4375 C 133.519531 63.484375 133.496094 63.519531 133.472656 63.542969 C 133.425781 63.589844 133.390625 63.621094 133.367188 63.644531 C 133.296875 63.691406 133.230469 63.738281 133.160156 63.785156 C 133.089844 63.832031 133.019531 63.878906 132.953125 63.921875 C 132.882812 63.945312 132.800781 63.96875 132.707031 63.992188 C 132.640625 63.992188 132.558594 64.003906 132.464844 64.027344 Z M 132.328125 64.027344 "/>
<path style=" stroke:none;fill-rule:nonzero;fill:rgb(19.607843%,36.862745%,39.215686%);fill-opacity:1;" d="M 132.464844 64.027344 C 132.417969 64.027344 132.371094 64.015625 132.328125 63.992188 C 132.257812 63.992188 132.199219 63.980469 132.152344 63.957031 C 132.082031 63.957031 132.027344 63.945312 131.980469 63.921875 C 131.933594 63.902344 131.886719 63.878906 131.839844 63.855469 L 131.5625 63.644531 C 131.539062 63.597656 131.503906 63.554688 131.457031 63.507812 C 131.433594 63.460938 131.410156 63.414062 131.390625 63.367188 C 131.34375 63.320312 131.320312 63.277344 131.320312 63.230469 C 131.296875 63.183594 131.273438 63.136719 131.25 63.089844 L 131.214844 62.742188 C 131.214844 62.695312 131.214844 62.652344 131.214844 62.605469 C 131.214844 62.558594 131.214844 62.511719 131.214844 62.464844 C 131.238281 62.417969 131.25 62.382812 131.25 62.359375 C 131.273438 62.316406 131.296875 62.269531 131.320312 62.222656 C 131.34375 62.152344 131.378906 62.082031 131.421875 62.015625 C 131.46875 61.945312 131.515625 61.875 131.5625 61.804688 C 131.632812 61.757812 131.703125 61.714844 131.769531 61.667969 C 131.839844 61.621094 131.910156 61.585938 131.980469 61.5625 C 132.027344 61.539062 132.070312 61.515625 132.117188 61.492188 C 132.164062 61.492188 132.199219 61.480469 132.222656 61.457031 C 132.269531 61.457031 132.316406 61.457031 132.359375 61.457031 C 132.40625 61.457031 132.453125 61.457031 132.5 61.457031 L 132.570312 61.457031 C 132.640625 61.457031 132.695312 61.457031 132.742188 61.457031 C 132.789062 61.457031 132.847656 61.46875 132.917969 61.492188 C 132.964844 61.515625 133.007812 61.527344 133.054688 61.527344 C 133.125 61.550781 133.183594 61.585938 133.230469 61.632812 L 133.472656 61.804688 C 133.519531 61.851562 133.554688 61.898438 133.578125 61.945312 C 133.621094 61.992188 133.65625 62.035156 133.679688 62.082031 C 133.703125 62.128906 133.726562 62.175781 133.75 62.222656 C 133.773438 62.269531 133.796875 62.328125 133.820312 62.394531 L 133.855469 62.707031 C 133.855469 62.753906 133.855469 62.800781 133.855469 62.847656 C 133.855469 62.894531 133.84375 62.941406 133.820312 62.984375 C 133.820312 63.03125 133.808594 63.078125 133.785156 63.125 C 133.785156 63.148438 133.773438 63.183594 133.75 63.230469 C 133.726562 63.277344 133.703125 63.308594 133.679688 63.332031 C 133.679688 63.378906 133.667969 63.414062 133.644531 63.4375 C 133.621094 63.484375 133.597656 63.519531 133.578125 63.542969 C 133.53125 63.589844 133.496094 63.621094 133.472656 63.644531 C 133.425781 63.691406 133.355469 63.738281 133.265625 63.785156 C 133.195312 63.832031 133.125 63.878906 133.054688 63.921875 C 132.984375 63.945312 132.90625 63.96875 132.8125 63.992188 C 132.742188 63.992188 132.660156 64.003906 132.570312 64.027344 Z M 132.464844 64.027344 "/>
<path style=" stroke:none;fill-rule:nonzero;fill:rgb(19.607843%,36.862745%,39.215686%);fill-opacity:1;" d="M 132.605469 64.027344 C 134.234375 64.027344 134.234375 61.457031 132.605469 61.457031 C 130.972656 61.457031 130.972656 64.027344 132.605469 64.027344 Z M 132.605469 64.027344 "/>
<path style=" stroke:none;fill-rule:nonzero;fill:rgb(19.607843%,36.862745%,39.215686%);fill-opacity:1;" d="M 133.265625 55.832031 C 133.402344 55.902344 133.53125 55.996094 133.644531 56.109375 C 133.761719 56.226562 133.855469 56.367188 133.921875 56.527344 C 133.992188 56.667969 134.027344 56.816406 134.027344 56.980469 C 134.027344 57.164062 133.992188 57.328125 133.921875 57.464844 C 133.878906 57.628906 133.785156 57.765625 133.644531 57.882812 C 133.53125 57.996094 133.402344 58.089844 133.265625 58.160156 C 133.101562 58.230469 132.941406 58.265625 132.777344 58.265625 C 131.734375 58.230469 130.660156 58.230469 129.617188 58.230469 C 129.457031 58.207031 129.292969 58.171875 129.132812 58.125 C 128.992188 58.054688 128.855469 57.964844 128.714844 57.847656 C 128.597656 57.707031 128.507812 57.570312 128.4375 57.429688 C 128.390625 57.269531 128.355469 57.105469 128.332031 56.945312 C 128.355469 56.851562 128.367188 56.769531 128.367188 56.703125 C 128.390625 56.609375 128.414062 56.527344 128.4375 56.457031 C 128.484375 56.367188 128.53125 56.285156 128.578125 56.214844 C 128.621094 56.144531 128.667969 56.089844 128.714844 56.042969 C 128.785156 55.972656 128.855469 55.914062 128.921875 55.867188 C 128.992188 55.820312 129.0625 55.785156 129.132812 55.765625 C 129.222656 55.742188 129.304688 55.71875 129.375 55.695312 C 129.46875 55.671875 129.546875 55.660156 129.617188 55.660156 C 130.660156 55.660156 131.734375 55.660156 132.777344 55.730469 C 132.941406 55.730469 133.101562 55.765625 133.265625 55.832031 Z M 133.265625 55.832031 "/>
<path style=" stroke:none;fill-rule:nonzero;fill:rgb(19.607843%,36.862745%,39.215686%);fill-opacity:1;" d="M 129.582031 55.625 C 129.628906 55.625 129.6875 55.636719 129.757812 55.660156 C 129.804688 55.660156 129.847656 55.671875 129.894531 55.695312 C 129.964844 55.695312 130.023438 55.707031 130.070312 55.730469 C 130.117188 55.753906 130.160156 55.777344 130.207031 55.796875 L 130.484375 56.007812 C 130.53125 56.054688 130.566406 56.097656 130.589844 56.144531 C 130.613281 56.191406 130.648438 56.238281 130.695312 56.285156 C 130.71875 56.332031 130.742188 56.378906 130.765625 56.421875 C 130.785156 56.46875 130.796875 56.515625 130.796875 56.5625 L 130.867188 56.910156 C 130.867188 56.957031 130.867188 57.003906 130.867188 57.046875 C 130.84375 57.09375 130.832031 57.140625 130.832031 57.1875 C 130.832031 57.234375 130.820312 57.269531 130.796875 57.292969 C 130.777344 57.339844 130.753906 57.382812 130.730469 57.429688 C 130.707031 57.5 130.671875 57.570312 130.625 57.640625 C 130.578125 57.707031 130.53125 57.777344 130.484375 57.847656 C 130.417969 57.894531 130.347656 57.941406 130.277344 57.984375 C 130.207031 58.03125 130.140625 58.066406 130.070312 58.089844 C 130.023438 58.113281 129.976562 58.136719 129.929688 58.160156 C 129.90625 58.160156 129.871094 58.171875 129.828125 58.195312 C 129.78125 58.195312 129.734375 58.195312 129.6875 58.195312 C 129.640625 58.21875 129.59375 58.21875 129.546875 58.195312 L 129.480469 58.195312 L 129.097656 58.160156 L 128.957031 58.125 C 128.910156 58.101562 128.855469 58.078125 128.785156 58.054688 C 128.738281 58.03125 128.691406 58.007812 128.644531 57.984375 C 128.597656 57.964844 128.554688 57.941406 128.507812 57.917969 C 128.460938 57.871094 128.425781 57.824219 128.402344 57.777344 L 128.195312 57.535156 C 128.171875 57.488281 128.148438 57.441406 128.125 57.394531 C 128.101562 57.328125 128.078125 57.269531 128.054688 57.222656 C 128.03125 57.175781 128.019531 57.117188 128.019531 57.046875 C 128.019531 57.003906 128.019531 56.957031 128.019531 56.910156 L 128.054688 56.5625 C 128.078125 56.515625 128.089844 56.46875 128.089844 56.421875 C 128.113281 56.402344 128.136719 56.367188 128.160156 56.320312 C 128.160156 56.273438 128.171875 56.238281 128.195312 56.214844 C 128.242188 56.191406 128.277344 56.15625 128.296875 56.109375 C 128.34375 56.042969 128.390625 55.984375 128.4375 55.9375 C 128.507812 55.867188 128.578125 55.820312 128.644531 55.796875 C 128.714844 55.753906 128.796875 55.71875 128.890625 55.695312 C 128.957031 55.671875 129.039062 55.648438 129.132812 55.625 C 129.15625 55.625 129.191406 55.625 129.234375 55.625 C 129.28125 55.625 129.328125 55.625 129.375 55.625 C 129.421875 55.625 129.46875 55.625 129.515625 55.625 C 129.558594 55.648438 129.59375 55.660156 129.617188 55.660156 C 129.640625 55.660156 129.664062 55.671875 129.6875 55.695312 C 129.6875 55.695312 129.699219 55.695312 129.722656 55.695312 C 129.746094 55.695312 129.757812 55.695312 129.757812 55.695312 C 129.78125 55.695312 129.804688 55.695312 129.828125 55.695312 L 129.480469 55.660156 L 129.582031 55.660156 Z M 129.582031 55.625 "/>
<path style=" stroke:none;fill-rule:nonzero;fill:rgb(19.607843%,36.862745%,39.215686%);fill-opacity:1;" d="M 128.957031 57.847656 C 130.589844 57.847656 130.589844 55.277344 128.957031 55.277344 C 127.328125 55.277344 127.328125 57.847656 128.957031 57.847656 Z M 128.957031 57.847656 "/>
<path style=" stroke:none;fill-rule:nonzero;fill:rgb(19.607843%,36.862745%,39.215686%);fill-opacity:1;" d="M 128.957031 57.847656 C 128.890625 57.847656 128.832031 57.847656 128.785156 57.847656 C 128.738281 57.824219 128.679688 57.8125 128.609375 57.8125 C 128.566406 57.789062 128.519531 57.765625 128.472656 57.742188 C 128.402344 57.71875 128.34375 57.695312 128.296875 57.671875 L 128.054688 57.464844 C 128.007812 57.441406 127.972656 57.40625 127.953125 57.359375 C 127.90625 57.316406 127.871094 57.269531 127.847656 57.222656 C 127.824219 57.175781 127.800781 57.128906 127.777344 57.082031 C 127.753906 57.015625 127.730469 56.957031 127.707031 56.910156 L 127.671875 56.5625 C 127.671875 56.515625 127.671875 56.46875 127.671875 56.421875 C 127.671875 56.402344 127.683594 56.367188 127.707031 56.320312 C 127.707031 56.273438 127.71875 56.226562 127.742188 56.179688 C 127.742188 56.132812 127.753906 56.097656 127.777344 56.078125 C 127.800781 56.03125 127.824219 55.984375 127.847656 55.9375 C 127.847656 55.914062 127.859375 55.878906 127.882812 55.832031 C 127.90625 55.808594 127.929688 55.777344 127.953125 55.730469 C 127.996094 55.707031 128.03125 55.683594 128.054688 55.660156 C 128.078125 55.613281 128.113281 55.578125 128.160156 55.554688 C 128.183594 55.53125 128.207031 55.507812 128.230469 55.484375 C 128.277344 55.464844 128.308594 55.441406 128.332031 55.417969 C 128.378906 55.417969 128.425781 55.40625 128.472656 55.382812 C 128.496094 55.359375 128.53125 55.347656 128.578125 55.347656 C 128.621094 55.324219 128.667969 55.3125 128.714844 55.3125 C 128.761719 55.289062 128.808594 55.277344 128.855469 55.277344 C 128.878906 55.277344 128.910156 55.277344 128.957031 55.277344 L 129.0625 55.277344 C 129.109375 55.277344 129.167969 55.277344 129.234375 55.277344 C 129.28125 55.300781 129.339844 55.3125 129.410156 55.3125 C 129.457031 55.335938 129.503906 55.359375 129.546875 55.382812 C 129.617188 55.40625 129.675781 55.429688 129.722656 55.453125 L 129.964844 55.660156 C 130.011719 55.707031 130.046875 55.742188 130.070312 55.765625 C 130.117188 55.808594 130.152344 55.855469 130.171875 55.902344 C 130.195312 55.949219 130.21875 56.007812 130.242188 56.078125 C 130.265625 56.121094 130.289062 56.167969 130.3125 56.214844 L 130.347656 56.5625 C 130.347656 56.609375 130.347656 56.644531 130.347656 56.667969 C 130.347656 56.714844 130.335938 56.757812 130.3125 56.804688 C 130.3125 56.851562 130.300781 56.898438 130.277344 56.945312 C 130.277344 56.992188 130.265625 57.027344 130.242188 57.046875 C 130.195312 57.140625 130.152344 57.222656 130.105469 57.292969 C 130.082031 57.359375 130.035156 57.417969 129.964844 57.464844 C 129.917969 57.535156 129.859375 57.59375 129.792969 57.640625 C 129.722656 57.660156 129.640625 57.695312 129.546875 57.742188 C 129.527344 57.765625 129.492188 57.777344 129.445312 57.777344 C 129.398438 57.800781 129.351562 57.8125 129.304688 57.8125 C 129.257812 57.835938 129.214844 57.847656 129.167969 57.847656 C 129.121094 57.847656 129.085938 57.847656 129.0625 57.847656 Z M 128.957031 57.847656 "/>
<path style=" stroke:none;fill-rule:nonzero;fill:rgb(19.607843%,36.862745%,39.215686%);fill-opacity:1;" d="M 110.902344 57.882812 C 112.570312 57.882812 112.570312 55.347656 110.902344 55.347656 C 109.269531 55.347656 109.269531 57.882812 110.902344 57.882812 Z M 110.902344 57.882812 "/>
<path style=" stroke:none;fill-rule:nonzero;fill:rgb(19.607843%,36.862745%,39.215686%);fill-opacity:1;" d="M 110.902344 57.882812 C 112.570312 57.882812 112.570312 55.347656 110.902344 55.347656 C 109.269531 55.347656 109.269531 57.882812 110.902344 57.882812 Z M 110.902344 57.882812 "/>
<path style=" stroke:none;fill-rule:nonzero;fill:rgb(19.607843%,36.862745%,39.215686%);fill-opacity:1;" d="M 110.765625 57.847656 C 110.695312 57.847656 110.636719 57.835938 110.589844 57.8125 C 110.519531 57.8125 110.464844 57.800781 110.417969 57.777344 C 110.371094 57.753906 110.324219 57.730469 110.277344 57.707031 L 110 57.5 C 109.953125 57.429688 109.90625 57.359375 109.859375 57.292969 C 109.816406 57.222656 109.769531 57.152344 109.722656 57.082031 C 109.699219 57.015625 109.675781 56.933594 109.652344 56.839844 C 109.652344 56.746094 109.652344 56.667969 109.652344 56.597656 C 109.652344 56.503906 109.652344 56.421875 109.652344 56.355469 C 109.675781 56.261719 109.710938 56.179688 109.757812 56.109375 C 109.78125 56.019531 109.816406 55.9375 109.859375 55.867188 C 109.90625 55.796875 109.953125 55.742188 110 55.695312 C 110.070312 55.625 110.140625 55.566406 110.207031 55.519531 C 110.277344 55.472656 110.347656 55.441406 110.417969 55.417969 C 110.507812 55.394531 110.589844 55.371094 110.660156 55.347656 C 110.753906 55.324219 110.832031 55.3125 110.902344 55.3125 C 111.15625 55.359375 111.410156 55.394531 111.667969 55.417969 C 111.921875 55.441406 112.175781 55.453125 112.429688 55.453125 C 112.660156 55.472656 112.90625 55.484375 113.160156 55.484375 C 113.414062 55.507812 113.667969 55.507812 113.921875 55.484375 C 114.167969 55.484375 114.410156 55.554688 114.617188 55.695312 C 114.828125 55.832031 115 56.042969 115.105469 56.285156 C 115.207031 56.527344 115.207031 56.769531 115.171875 57.015625 C 115.140625 57.257812 115 57.5 114.828125 57.671875 C 114.757812 57.71875 114.6875 57.765625 114.617188 57.8125 C 114.546875 57.859375 114.480469 57.90625 114.410156 57.953125 C 114.339844 57.972656 114.257812 57.996094 114.167969 58.019531 C 114.097656 58.042969 114.015625 58.054688 113.921875 58.054688 C 113.667969 58.054688 113.414062 58.054688 113.160156 58.054688 C 112.90625 58.03125 112.660156 58.019531 112.429688 58.019531 C 112.175781 57.996094 111.921875 57.972656 111.667969 57.953125 C 111.410156 57.929688 111.15625 57.90625 110.902344 57.882812 C 110.855469 57.882812 110.808594 57.871094 110.765625 57.847656 Z M 110.765625 57.847656 "/>
<path style=" stroke:none;fill-rule:nonzero;fill:rgb(19.607843%,36.862745%,39.215686%);fill-opacity:1;" d="M 113.992188 58.054688 C 113.921875 58.054688 113.867188 58.042969 113.820312 58.019531 C 113.75 58.019531 113.691406 58.007812 113.644531 57.984375 C 113.597656 57.984375 113.542969 57.972656 113.472656 57.953125 C 113.425781 57.929688 113.378906 57.90625 113.332031 57.882812 L 113.089844 57.671875 C 113.042969 57.628906 113.007812 57.582031 112.984375 57.535156 C 112.941406 57.488281 112.90625 57.441406 112.882812 57.394531 C 112.859375 57.347656 112.835938 57.304688 112.8125 57.257812 C 112.789062 57.210938 112.765625 57.164062 112.742188 57.117188 L 112.707031 56.769531 C 112.707031 56.679688 112.71875 56.597656 112.742188 56.527344 C 112.765625 56.433594 112.789062 56.355469 112.8125 56.285156 C 112.835938 56.214844 112.871094 56.144531 112.917969 56.078125 C 112.964844 56.007812 113.019531 55.9375 113.089844 55.867188 C 113.113281 55.84375 113.136719 55.808594 113.160156 55.765625 C 113.207031 55.742188 113.242188 55.71875 113.265625 55.695312 C 113.308594 55.671875 113.34375 55.660156 113.367188 55.660156 C 113.414062 55.636719 113.460938 55.613281 113.507812 55.589844 C 113.53125 55.566406 113.566406 55.554688 113.609375 55.554688 C 113.65625 55.53125 113.703125 55.519531 113.75 55.519531 C 113.773438 55.496094 113.808594 55.484375 113.855469 55.484375 C 113.902344 55.484375 113.945312 55.484375 113.992188 55.484375 L 114.445312 55.484375 C 114.515625 55.484375 114.570312 55.484375 114.617188 55.484375 C 114.664062 55.507812 114.722656 55.519531 114.792969 55.519531 C 114.839844 55.542969 114.882812 55.566406 114.929688 55.589844 C 115 55.613281 115.058594 55.636719 115.105469 55.660156 L 115.347656 55.867188 C 115.394531 55.914062 115.429688 55.949219 115.453125 55.972656 C 115.496094 56.019531 115.53125 56.066406 115.554688 56.109375 C 115.578125 56.15625 115.601562 56.214844 115.625 56.285156 C 115.648438 56.332031 115.660156 56.378906 115.660156 56.421875 L 115.730469 56.769531 C 115.730469 56.816406 115.730469 56.863281 115.730469 56.910156 C 115.730469 56.957031 115.71875 56.992188 115.695312 57.015625 C 115.695312 57.058594 115.683594 57.105469 115.660156 57.152344 C 115.636719 57.199219 115.625 57.246094 115.625 57.292969 C 115.601562 57.316406 115.578125 57.347656 115.554688 57.394531 C 115.554688 57.417969 115.542969 57.453125 115.519531 57.5 C 115.496094 57.523438 115.472656 57.558594 115.453125 57.605469 C 115.40625 57.628906 115.371094 57.652344 115.347656 57.671875 C 115.324219 57.71875 115.300781 57.753906 115.277344 57.777344 C 115.230469 57.800781 115.195312 57.824219 115.171875 57.847656 C 115.128906 57.871094 115.09375 57.894531 115.070312 57.917969 C 115.023438 57.917969 114.976562 57.929688 114.929688 57.953125 C 114.90625 57.972656 114.871094 57.984375 114.828125 57.984375 C 114.78125 58.007812 114.734375 58.03125 114.6875 58.054688 C 114.640625 58.054688 114.59375 58.054688 114.546875 58.054688 C 114.503906 58.054688 114.46875 58.054688 114.445312 58.054688 Z M 113.992188 58.054688 "/>
<path style=" stroke:none;fill-rule:nonzero;fill:rgb(19.607843%,36.862745%,39.215686%);fill-opacity:1;" d="M 114.546875 57.882812 C 116.179688 57.882812 116.179688 55.347656 114.546875 55.347656 C 112.917969 55.347656 112.917969 57.882812 114.546875 57.882812 Z M 114.546875 57.882812 "/>
<path style=" stroke:none;fill-rule:nonzero;fill:rgb(19.607843%,36.862745%,39.215686%);fill-opacity:1;" d="M 114.6875 57.707031 C 116.320312 57.707031 116.320312 55.171875 114.6875 55.171875 C 113.019531 55.171875 113.019531 57.707031 114.6875 57.707031 Z M 114.6875 57.707031 "/>
<path style=" stroke:none;fill-rule:nonzero;fill:rgb(19.607843%,36.862745%,39.215686%);fill-opacity:1;" d="M 115.070312 57.222656 C 116.734375 57.222656 116.734375 54.6875 115.070312 54.6875 C 113.4375 54.6875 113.4375 57.222656 115.070312 57.222656 Z M 115.070312 57.222656 "/>
<path style=" stroke:none;fill-rule:nonzero;fill:rgb(19.607843%,36.862745%,39.215686%);fill-opacity:1;" d="M 110 63.957031 C 109.757812 63.714844 109.617188 63.402344 109.617188 63.054688 C 109.617188 62.707031 109.757812 62.394531 110 62.152344 C 110.242188 61.910156 110.554688 61.769531 110.902344 61.769531 C 112.058594 61.769531 113.230469 61.792969 114.410156 61.839844 C 114.570312 61.839844 114.734375 61.875 114.894531 61.945312 C 115.058594 61.992188 115.195312 62.082031 115.3125 62.222656 C 115.429688 62.339844 115.519531 62.464844 115.589844 62.605469 C 115.636719 62.765625 115.671875 62.929688 115.695312 63.089844 C 115.695312 63.277344 115.660156 63.4375 115.589844 63.578125 C 115.519531 63.738281 115.429688 63.878906 115.3125 63.992188 C 115.195312 64.109375 115.058594 64.203125 114.894531 64.269531 C 114.734375 64.339844 114.570312 64.375 114.410156 64.375 C 113.230469 64.339844 112.046875 64.339844 110.902344 64.339844 C 110.554688 64.339844 110.242188 64.203125 110 63.957031 Z M 110 63.957031 "/>
<path style=" stroke:none;fill-rule:nonzero;fill:rgb(19.607843%,36.862745%,39.215686%);fill-opacity:1;" d="M 114.410156 61.769531 C 114.480469 61.769531 114.535156 61.769531 114.582031 61.769531 C 114.628906 61.769531 114.6875 61.78125 114.757812 61.804688 C 114.804688 61.828125 114.847656 61.851562 114.894531 61.875 C 114.941406 61.875 115 61.898438 115.070312 61.945312 L 115.3125 62.117188 C 115.359375 62.164062 115.394531 62.210938 115.417969 62.257812 C 115.464844 62.304688 115.496094 62.347656 115.519531 62.394531 C 115.542969 62.441406 115.566406 62.488281 115.589844 62.535156 C 115.613281 62.582031 115.625 62.640625 115.625 62.707031 L 115.695312 63.019531 C 115.695312 63.066406 115.695312 63.113281 115.695312 63.160156 C 115.695312 63.207031 115.683594 63.253906 115.660156 63.296875 C 115.660156 63.34375 115.648438 63.390625 115.625 63.4375 C 115.601562 63.460938 115.589844 63.496094 115.589844 63.542969 C 115.566406 63.589844 115.542969 63.621094 115.519531 63.644531 C 115.519531 63.691406 115.507812 63.726562 115.484375 63.75 C 115.464844 63.796875 115.441406 63.832031 115.417969 63.855469 C 115.371094 63.902344 115.335938 63.933594 115.3125 63.957031 C 115.289062 63.980469 115.265625 64.003906 115.242188 64.027344 C 115.195312 64.050781 115.160156 64.074219 115.140625 64.097656 C 115.09375 64.121094 115.058594 64.144531 115.035156 64.167969 C 114.988281 64.191406 114.941406 64.203125 114.894531 64.203125 C 114.871094 64.222656 114.839844 64.246094 114.792969 64.269531 C 114.746094 64.292969 114.699219 64.304688 114.652344 64.304688 C 114.605469 64.304688 114.558594 64.304688 114.515625 64.304688 C 114.46875 64.328125 114.421875 64.328125 114.375 64.304688 C 114.351562 64.328125 114.316406 64.339844 114.269531 64.339844 C 114.222656 64.339844 114.179688 64.339844 114.132812 64.339844 C 114.085938 64.339844 114.039062 64.339844 113.992188 64.339844 C 113.96875 64.339844 113.933594 64.328125 113.890625 64.304688 C 113.820312 64.304688 113.75 64.304688 113.679688 64.304688 C 113.609375 64.28125 113.542969 64.269531 113.472656 64.269531 C 113.402344 64.246094 113.332031 64.234375 113.265625 64.234375 C 113.195312 64.214844 113.125 64.191406 113.054688 64.167969 C 113.007812 64.144531 112.953125 64.121094 112.882812 64.097656 C 112.835938 64.097656 112.789062 64.074219 112.742188 64.027344 C 112.695312 64.003906 112.652344 63.980469 112.605469 63.957031 C 112.558594 63.910156 112.523438 63.878906 112.5 63.855469 L 112.292969 63.578125 C 112.269531 63.53125 112.246094 63.484375 112.222656 63.4375 C 112.199219 63.390625 112.175781 63.332031 112.152344 63.265625 C 112.128906 63.21875 112.117188 63.171875 112.117188 63.125 C 112.09375 63.054688 112.082031 62.996094 112.082031 62.953125 L 112.152344 62.605469 C 112.152344 62.558594 112.164062 62.523438 112.1875 62.5 C 112.1875 62.453125 112.199219 62.40625 112.222656 62.359375 C 112.246094 62.339844 112.269531 62.304688 112.292969 62.257812 C 112.316406 62.234375 112.339844 62.210938 112.359375 62.1875 C 112.382812 62.140625 112.40625 62.105469 112.429688 62.082031 C 112.453125 62.035156 112.488281 62.003906 112.535156 61.980469 C 112.558594 61.957031 112.582031 61.933594 112.605469 61.910156 C 112.652344 61.886719 112.683594 61.863281 112.707031 61.839844 C 112.753906 61.816406 112.800781 61.792969 112.847656 61.769531 C 112.871094 61.769531 112.90625 61.757812 112.953125 61.734375 C 112.996094 61.734375 113.03125 61.722656 113.054688 61.703125 C 113.101562 61.703125 113.148438 61.703125 113.195312 61.703125 C 113.242188 61.679688 113.285156 61.667969 113.332031 61.667969 C 113.355469 61.667969 113.390625 61.667969 113.4375 61.667969 C 113.484375 61.667969 113.53125 61.667969 113.578125 61.667969 C 113.621094 61.667969 113.667969 61.679688 113.714844 61.703125 C 113.738281 61.703125 113.773438 61.714844 113.820312 61.734375 C 113.84375 61.734375 113.878906 61.746094 113.921875 61.769531 C 113.96875 61.769531 114.003906 61.769531 114.027344 61.769531 C 114.074219 61.792969 114.109375 61.804688 114.132812 61.804688 L 113.820312 61.734375 C 113.867188 61.757812 113.910156 61.769531 113.957031 61.769531 C 114.003906 61.769531 114.050781 61.769531 114.097656 61.769531 C 114.144531 61.769531 114.191406 61.769531 114.234375 61.769531 C 114.28125 61.769531 114.328125 61.757812 114.375 61.734375 Z M 114.410156 61.769531 "/>
<path style=" stroke:none;fill-rule:nonzero;fill:rgb(19.607843%,36.862745%,39.215686%);fill-opacity:1;" d="M 114.652344 61.945312 C 114.746094 61.96875 114.828125 61.992188 114.894531 62.015625 C 114.964844 62.058594 115.035156 62.105469 115.105469 62.152344 C 115.171875 62.199219 115.242188 62.246094 115.3125 62.292969 C 115.359375 62.359375 115.40625 62.429688 115.453125 62.5 C 115.496094 62.570312 115.542969 62.640625 115.589844 62.707031 C 115.613281 62.777344 115.636719 62.859375 115.660156 62.953125 C 115.683594 63.019531 115.695312 63.101562 115.695312 63.195312 C 115.695312 63.285156 115.683594 63.367188 115.660156 63.4375 C 115.636719 63.53125 115.613281 63.609375 115.589844 63.679688 C 115.542969 63.75 115.496094 63.820312 115.453125 63.890625 C 115.40625 63.957031 115.359375 64.027344 115.3125 64.097656 C 115.242188 64.167969 115.171875 64.222656 115.105469 64.269531 C 115.035156 64.316406 114.964844 64.351562 114.894531 64.375 C 114.828125 64.398438 114.746094 64.421875 114.652344 64.445312 C 114.582031 64.46875 114.503906 64.480469 114.410156 64.480469 C 114.085938 64.457031 113.773438 64.433594 113.472656 64.410156 C 113.148438 64.410156 112.824219 64.398438 112.5 64.375 C 112.199219 64.328125 111.886719 64.292969 111.5625 64.269531 C 111.261719 64.222656 110.949219 64.191406 110.625 64.167969 C 110.554688 64.144531 110.484375 64.109375 110.417969 64.0625 C 110.324219 64.015625 110.253906 63.96875 110.207031 63.921875 C 110.140625 63.878906 110.070312 63.820312 110 63.75 C 109.953125 63.703125 109.90625 63.644531 109.859375 63.578125 C 109.792969 63.414062 109.746094 63.253906 109.722656 63.089844 C 109.699219 62.929688 109.699219 62.765625 109.722656 62.605469 C 109.769531 62.441406 109.847656 62.292969 109.964844 62.152344 C 110.058594 62.015625 110.171875 61.898438 110.3125 61.804688 C 110.40625 61.78125 110.484375 61.757812 110.554688 61.734375 C 110.648438 61.691406 110.730469 61.667969 110.796875 61.667969 C 110.890625 61.644531 110.972656 61.644531 111.042969 61.667969 C 111.132812 61.667969 111.226562 61.679688 111.320312 61.703125 C 111.480469 61.722656 111.644531 61.746094 111.804688 61.769531 L 111.492188 61.734375 C 111.945312 61.804688 112.429688 61.804688 112.953125 61.804688 C 113.4375 61.839844 113.890625 61.875 114.410156 61.910156 C 114.480469 61.910156 114.558594 61.921875 114.652344 61.945312 Z M 114.652344 61.945312 "/>
<path style=" stroke:none;fill-rule:nonzero;fill:rgb(19.607843%,36.862745%,39.215686%);fill-opacity:1;" d="M 110.9375 61.667969 C 110.984375 61.667969 111.042969 61.667969 111.109375 61.667969 C 111.15625 61.667969 111.203125 61.679688 111.25 61.703125 C 111.320312 61.722656 111.378906 61.734375 111.421875 61.734375 C 111.46875 61.757812 111.515625 61.792969 111.5625 61.839844 L 111.839844 62.015625 C 111.863281 62.058594 111.898438 62.105469 111.945312 62.152344 C 111.96875 62.199219 112.003906 62.246094 112.046875 62.292969 C 112.070312 62.339844 112.09375 62.382812 112.117188 62.429688 C 112.140625 62.476562 112.152344 62.535156 112.152344 62.605469 L 112.222656 62.917969 C 112.222656 62.964844 112.210938 63.007812 112.1875 63.054688 C 112.1875 63.101562 112.1875 63.148438 112.1875 63.195312 C 112.1875 63.242188 112.175781 63.285156 112.152344 63.332031 C 112.128906 63.355469 112.105469 63.390625 112.082031 63.4375 C 112.082031 63.484375 112.070312 63.519531 112.046875 63.542969 C 112.027344 63.589844 112.003906 63.621094 111.980469 63.644531 C 111.957031 63.691406 111.933594 63.726562 111.910156 63.75 C 111.886719 63.796875 111.863281 63.832031 111.839844 63.855469 C 111.769531 63.902344 111.703125 63.945312 111.632812 63.992188 C 111.5625 64.039062 111.492188 64.074219 111.421875 64.097656 C 111.332031 64.144531 111.25 64.179688 111.179688 64.203125 C 111.089844 64.203125 111.007812 64.214844 110.9375 64.234375 C 110.867188 64.234375 110.808594 64.222656 110.765625 64.203125 C 110.71875 64.203125 110.660156 64.191406 110.589844 64.167969 C 110.542969 64.167969 110.496094 64.15625 110.453125 64.132812 C 110.382812 64.109375 110.324219 64.085938 110.277344 64.0625 L 110.035156 63.855469 C 109.988281 63.808594 109.953125 63.761719 109.929688 63.714844 C 109.882812 63.667969 109.847656 63.621094 109.828125 63.578125 C 109.804688 63.53125 109.78125 63.484375 109.757812 63.4375 C 109.734375 63.390625 109.710938 63.34375 109.6875 63.296875 L 109.652344 62.953125 C 109.652344 62.90625 109.652344 62.859375 109.652344 62.8125 C 109.652344 62.765625 109.664062 62.71875 109.6875 62.671875 C 109.6875 62.652344 109.699219 62.617188 109.722656 62.570312 C 109.722656 62.523438 109.734375 62.476562 109.757812 62.429688 C 109.78125 62.40625 109.804688 62.371094 109.828125 62.328125 C 109.828125 62.28125 109.839844 62.246094 109.859375 62.222656 C 109.882812 62.175781 109.90625 62.140625 109.929688 62.117188 C 109.976562 62.09375 110.011719 62.070312 110.035156 62.046875 C 110.058594 62.003906 110.09375 61.96875 110.140625 61.945312 C 110.160156 61.921875 110.183594 61.898438 110.207031 61.875 C 110.253906 61.851562 110.289062 61.828125 110.3125 61.804688 C 110.359375 61.78125 110.40625 61.769531 110.453125 61.769531 C 110.472656 61.746094 110.507812 61.722656 110.554688 61.703125 C 110.601562 61.703125 110.648438 61.691406 110.695312 61.667969 C 110.742188 61.667969 110.785156 61.667969 110.832031 61.667969 C 110.878906 61.667969 110.914062 61.667969 110.9375 61.667969 Z M 110.9375 61.667969 "/>
<path style=" stroke:none;fill-rule:nonzero;fill:rgb(19.607843%,36.862745%,39.215686%);fill-opacity:1;" d="M 110.902344 64.203125 C 112.535156 64.203125 112.535156 61.632812 110.902344 61.632812 C 109.269531 61.632812 109.234375 64.203125 110.902344 64.203125 Z M 110.902344 64.203125 "/>
<path style=" stroke:none;fill-rule:nonzero;fill:rgb(19.607843%,36.862745%,39.215686%);fill-opacity:1;" d="M 110.207031 63.992188 C 110 63.855469 109.828125 63.644531 109.722656 63.402344 C 109.617188 63.195312 109.617188 62.917969 109.652344 62.671875 C 109.6875 62.429688 109.828125 62.1875 110 62.015625 C 110.070312 61.96875 110.140625 61.921875 110.207031 61.875 C 110.277344 61.828125 110.347656 61.78125 110.417969 61.734375 C 110.484375 61.714844 110.566406 61.691406 110.660156 61.667969 C 110.730469 61.667969 110.808594 61.667969 110.902344 61.667969 C 111.179688 61.644531 111.46875 61.632812 111.769531 61.632812 C 112.046875 61.609375 112.328125 61.597656 112.605469 61.597656 C 112.882812 61.597656 113.171875 61.609375 113.472656 61.632812 C 113.75 61.632812 114.027344 61.644531 114.304688 61.667969 C 114.398438 61.667969 114.480469 61.679688 114.546875 61.703125 C 114.640625 61.722656 114.722656 61.746094 114.792969 61.769531 C 114.882812 61.816406 114.964844 61.863281 115.035156 61.910156 C 115.105469 61.957031 115.160156 62.003906 115.207031 62.046875 C 115.382812 62.222656 115.519531 62.464844 115.554688 62.707031 C 115.625 62.953125 115.589844 63.195312 115.484375 63.4375 C 115.382812 63.679688 115.242188 63.855469 115.035156 63.992188 C 114.828125 64.167969 114.582031 64.234375 114.304688 64.234375 C 114.027344 64.214844 113.75 64.191406 113.472656 64.167969 C 113.171875 64.167969 112.882812 64.167969 112.605469 64.167969 C 112.328125 64.167969 112.046875 64.167969 111.769531 64.167969 C 111.46875 64.167969 111.179688 64.179688 110.902344 64.203125 C 110.660156 64.203125 110.417969 64.132812 110.207031 63.992188 Z M 110.207031 63.992188 "/>
<path style=" stroke:none;fill-rule:nonzero;fill:rgb(19.607843%,36.862745%,39.215686%);fill-opacity:1;" d="M 114.304688 64.234375 C 114.257812 64.234375 114.203125 64.234375 114.132812 64.234375 C 114.085938 64.234375 114.039062 64.222656 113.992188 64.203125 C 113.921875 64.179688 113.867188 64.167969 113.820312 64.167969 C 113.773438 64.144531 113.726562 64.109375 113.679688 64.0625 L 113.402344 63.890625 C 113.378906 63.84375 113.34375 63.796875 113.296875 63.75 C 113.277344 63.703125 113.242188 63.65625 113.195312 63.609375 C 113.171875 63.566406 113.148438 63.519531 113.125 63.472656 C 113.101562 63.425781 113.089844 63.367188 113.089844 63.296875 L 113.019531 62.984375 C 113.019531 62.941406 113.019531 62.894531 113.019531 62.847656 C 113.042969 62.800781 113.054688 62.753906 113.054688 62.707031 C 113.054688 62.660156 113.066406 62.617188 113.089844 62.570312 C 113.113281 62.546875 113.136719 62.511719 113.160156 62.464844 C 113.160156 62.417969 113.171875 62.382812 113.195312 62.359375 C 113.21875 62.316406 113.242188 62.28125 113.265625 62.257812 C 113.285156 62.210938 113.308594 62.175781 113.332031 62.152344 C 113.355469 62.105469 113.378906 62.070312 113.402344 62.046875 C 113.425781 62.027344 113.460938 62.003906 113.507812 61.980469 C 113.53125 61.957031 113.566406 61.933594 113.609375 61.910156 C 113.632812 61.886719 113.667969 61.863281 113.714844 61.839844 C 113.738281 61.816406 113.773438 61.804688 113.820312 61.804688 C 113.867188 61.78125 113.910156 61.757812 113.957031 61.734375 C 113.980469 61.714844 114.015625 61.703125 114.0625 61.703125 C 114.109375 61.703125 114.15625 61.703125 114.203125 61.703125 C 114.246094 61.679688 114.292969 61.679688 114.339844 61.703125 L 114.375 61.703125 C 114.445312 61.703125 114.503906 61.703125 114.546875 61.703125 C 114.59375 61.703125 114.652344 61.714844 114.722656 61.734375 C 114.769531 61.734375 114.816406 61.746094 114.859375 61.769531 C 114.929688 61.792969 114.988281 61.828125 115.035156 61.875 L 115.277344 62.046875 C 115.324219 62.09375 115.359375 62.140625 115.382812 62.1875 C 115.429688 62.234375 115.464844 62.28125 115.484375 62.328125 C 115.507812 62.371094 115.53125 62.417969 115.554688 62.464844 C 115.578125 62.511719 115.601562 62.558594 115.625 62.605469 L 115.660156 62.953125 C 115.660156 62.996094 115.660156 63.042969 115.660156 63.089844 C 115.660156 63.136719 115.648438 63.183594 115.625 63.230469 C 115.625 63.277344 115.613281 63.308594 115.589844 63.332031 C 115.589844 63.378906 115.578125 63.425781 115.554688 63.472656 C 115.53125 63.519531 115.519531 63.554688 115.519531 63.578125 C 115.496094 63.621094 115.472656 63.65625 115.453125 63.679688 C 115.429688 63.726562 115.40625 63.761719 115.382812 63.785156 C 115.359375 63.808594 115.324219 63.84375 115.277344 63.890625 C 115.253906 63.910156 115.230469 63.933594 115.207031 63.957031 C 115.160156 63.980469 115.128906 64.003906 115.105469 64.027344 C 115.058594 64.050781 115.023438 64.074219 115 64.097656 C 114.953125 64.121094 114.90625 64.132812 114.859375 64.132812 C 114.839844 64.15625 114.804688 64.179688 114.757812 64.203125 C 114.710938 64.222656 114.664062 64.234375 114.617188 64.234375 C 114.570312 64.234375 114.535156 64.234375 114.515625 64.234375 C 114.46875 64.257812 114.421875 64.269531 114.375 64.269531 L 114.339844 64.269531 Z M 114.304688 64.234375 "/>
<path style=" stroke:none;fill-rule:nonzero;fill:rgb(19.607843%,36.862745%,39.215686%);fill-opacity:1;" d="M 114.375 64.269531 C 116.007812 64.269531 116.007812 61.703125 114.375 61.703125 C 112.742188 61.703125 112.742188 64.269531 114.375 64.269531 Z M 114.375 64.269531 "/>
<path style=" stroke:none;fill-rule:nonzero;fill:rgb(19.607843%,36.862745%,39.215686%);fill-opacity:1;" d="M 114.445312 64.339844 C 116.078125 64.339844 116.078125 61.804688 114.445312 61.804688 C 112.777344 61.804688 112.777344 64.339844 114.445312 64.339844 Z M 114.445312 64.339844 "/>
</g>
</svg>
