<?xml version="1.0" encoding="UTF-8"?>
<svg xmlns="http://www.w3.org/2000/svg" xmlns:xlink="http://www.w3.org/1999/xlink" width="250px" height="250px" viewBox="0 0 250 250" version="1.1">
<g id="surface1">
<path style="fill:none;stroke-width:8.8;stroke-linecap:butt;stroke-linejoin:miter;stroke:rgb(19.607843%,36.862745%,39.215686%);stroke-opacity:1;stroke-miterlimit:4;" d="M 235.20375 318.90375 L 235.20375 297.405 L 213.705 297.405 L 213.705 275.805 L 235.20375 275.805 L 235.20375 254.295 L 256.80375 254.295 L 256.80375 275.805 L 278.3025 275.805 L 278.3025 297.405 L 256.80375 297.405 L 256.80375 318.90375 Z M 235.20375 318.90375 " transform="matrix(0.347222,0,0,0.347222,0,0)"/>
<path style="fill:none;stroke-width:8.8;stroke-linecap:butt;stroke-linejoin:miter;stroke:rgb(19.607843%,36.862745%,39.215686%);stroke-opacity:1;stroke-miterlimit:4;" d="M 451.69875 323.595 L 450.405 340.4025 L 471.90375 340.4025 L 471.90375 361.90125 L 493.4025 361.90125 L 493.4025 383.4 L 514.90125 383.4 L 514.90125 404.89875 L 536.4 404.89875 L 536.4 426.3975 L 557.89875 426.3975 L 557.89875 447.89625 L 127.69875 447.89625 L 127.69875 361.90125 L 149.1975 361.90125 L 149.1975 340.4025 L 170.69625 340.4025 L 170.69625 318.90375 L 192.195 318.90375 L 192.195 340.4025 L 213.705 340.4025 L 213.705 361.90125 L 235.20375 361.90125 L 235.20375 383.4 L 256.80375 383.4 L 256.80375 361.90125 L 278.3025 361.90125 L 278.3025 340.4025 L 299.80125 340.4025 L 299.80125 318.90375 L 321.3 318.90375 L 321.3 297.405 L 342.79875 297.405 L 342.79875 275.805 L 364.2975 275.805 L 364.2975 254.295 L 385.79625 254.295 L 385.79625 275.805 L 407.295 275.805 L 407.295 297.405 L 424.00125 297.405 " transform="matrix(0.347222,0,0,0.347222,0,0)"/>
<path style="fill-rule:nonzero;fill:rgb(19.607843%,36.862745%,39.215686%);fill-opacity:1;stroke-width:0.6;stroke-linecap:butt;stroke-linejoin:miter;stroke:rgb(19.607843%,36.862745%,39.215686%);stroke-opacity:1;stroke-miterlimit:4;" d="M 550.90125 438.89625 L 550.90125 245.205 C 555.89625 239.805 560.86875 234.3375 565.79625 228.8025 L 565.79625 453.8025 L 120.195 453.8025 L 120.195 203.805 L 497.7 203.805 C 492.5025 208.7325 487.33875 213.73875 482.1975 218.80125 L 135.2025 218.80125 L 135.2025 438.89625 " transform="matrix(0.347222,0,0,0.347222,0,0)"/>
<path style="fill-rule:evenodd;fill:rgb(19.607843%,36.862745%,39.215686%);fill-opacity:1;stroke-width:0.6;stroke-linecap:butt;stroke-linejoin:miter;stroke:rgb(19.607843%,36.862745%,39.215686%);stroke-opacity:1;stroke-miterlimit:4;" d="M 591.795 199.00125 L 591.795 504.30375 C 591.795 507.70125 591.19875 510.9975 589.905 514.1025 C 588.6 517.19625 586.69875 519.9975 584.3025 522.405 C 581.895 524.80125 579.105 526.7025 576 527.99625 C 572.895 529.30125 569.4975 529.8975 566.20125 529.8975 L 408.00375 529.8975 C 407.4975 550.395 413.89875 570.70125 426.90375 589.19625 L 427.2975 589.80375 L 442.8 589.80375 C 449.20125 589.80375 455.4 592.30125 460.00125 596.9025 C 464.50125 601.4025 467.1 607.60125 467.1 614.10375 C 467.1 620.505 464.50125 626.70375 460.00125 631.20375 C 455.4 635.805 449.20125 638.40375 442.8 638.40375 L 243.2025 638.40375 C 236.7 638.40375 230.6025 635.805 226.00125 631.20375 C 221.4 626.70375 218.9025 620.505 218.9025 614.10375 C 218.9025 607.60125 221.4 601.4025 226.00125 596.9025 C 230.6025 592.30125 236.7 589.80375 243.2025 589.80375 L 258.705 589.80375 L 259.09875 589.19625 C 272.0025 570.70125 278.505 550.395 277.99875 529.8975 L 119.9025 529.8975 C 116.505 529.8975 113.1975 529.30125 110.0025 527.99625 C 106.8975 526.7025 104.09625 524.80125 101.7 522.405 C 99.30375 519.9975 97.4025 517.19625 96.19875 514.1025 C 94.905 510.9975 94.19625 507.70125 94.19625 504.30375 L 94.19625 189.30375 C 94.19625 185.895 94.905 182.4975 96.19875 179.40375 C 97.4025 176.29875 99.30375 173.4975 101.7 171.10125 C 104.09625 168.705 106.8975 166.80375 110.0025 165.49875 C 113.1975 164.295 116.505 163.5975 119.9025 163.5975 L 542.7 163.5975 L 526.60125 177.60375 L 525.49875 178.50375 L 119.9025 178.50375 C 118.395 178.50375 117.10125 178.79625 115.79625 179.40375 C 114.5025 179.89875 113.29875 180.6975 112.2975 181.69875 C 111.29625 182.7 110.4975 183.90375 110.0025 185.1975 C 109.395 186.5025 109.1025 187.79625 109.1025 189.30375 L 109.1025 504.30375 C 109.1025 505.69875 109.395 507.105 110.0025 508.39875 C 110.4975 509.70375 111.29625 510.89625 112.2975 511.8975 C 113.29875 512.7975 114.5025 513.59625 115.79625 514.20375 C 117.10125 514.69875 118.395 515.0025 119.9025 515.0025 L 566.20125 515.0025 C 567.59625 515.0025 569.0025 514.69875 570.29625 514.20375 C 571.60125 513.59625 572.70375 512.7975 573.705 511.8975 C 574.695 510.89625 575.505 509.70375 576 508.39875 C 576.59625 507.105 576.9 505.69875 576.9 504.30375 L 576.9 216.10125 Z M 243.10125 604.8 C 240.705 604.8 238.2975 605.80125 236.4975 607.5 C 234.79875 609.3 233.7975 611.595 233.7975 614.10375 C 233.7975 616.60125 234.79875 618.9975 236.4975 620.69625 C 238.2975 622.49625 240.705 623.4975 243.10125 623.4975 L 442.8 623.4975 C 445.19625 623.4975 447.60375 622.49625 449.40375 620.69625 C 451.1025 618.9975 452.10375 616.60125 452.10375 614.10375 C 452.10375 611.595 451.1025 609.3 449.40375 607.5 C 447.60375 605.80125 445.19625 604.8 442.8 604.8 Z M 292.905 529.99875 C 293.29875 550.5975 287.69625 571.005 276.40125 589.80375 L 409.2975 589.80375 C 398.10375 571.005 392.50125 550.5975 392.895 529.99875 Z M 292.905 529.99875 " transform="matrix(0.347222,0,0,0.347222,0,0)"/>
<path style="fill-rule:evenodd;fill:rgb(19.607843%,36.862745%,39.215686%);fill-opacity:1;stroke-width:0.6;stroke-linecap:butt;stroke-linejoin:miter;stroke:rgb(19.607843%,36.862745%,39.215686%);stroke-opacity:1;stroke-miterlimit:4;" d="M 576.9 193.39875 L 576.9 216.10125 L 571.39875 222.40125 C 569.53125 224.53875 567.66375 226.665 565.79625 228.8025 L 565.79625 206.1 Z M 490.19625 284.6025 C 497.26125 278.06625 504.2025 271.42875 510.9975 264.70125 C 517.87125 257.9625 524.6325 251.13375 531.30375 244.20375 C 537.89625 237.2625 544.4325 230.1975 550.90125 222.9975 L 550.90125 245.205 C 544.77 251.73 538.57125 258.19875 532.305 264.6 C 525.97125 271.00125 519.57 277.30125 513.10125 283.5 C 506.6325 289.69875 500.09625 295.83 493.50375 301.905 C 486.8325 307.90125 480.105 313.83 473.29875 319.7025 L 472.995 319.995 C 461.1375 330.13125 449.06625 339.93 436.80375 349.4025 L 434.7 351.405 C 435.49875 355.19625 435.8025 359.1 435.6 363.00375 C 435.49875 366.9975 434.80125 370.8 433.69875 374.6025 C 432.59625 378.30375 430.99875 382.005 428.99625 385.30125 C 427.005 388.69875 424.5975 391.80375 421.8975 394.605 C 419.6025 397.1025 398.9025 418.39875 360.59625 418.39875 C 358.86375 418.39875 357.165 418.365 355.5 418.2975 C 353.835 418.23 352.17 418.12875 350.505 418.005 C 348.82875 417.8025 347.16375 417.6 345.49875 417.3975 C 343.83375 417.13875 342.16875 416.86875 340.50375 416.59875 C 324.405 413.69625 312.5025 410.99625 305.40375 408.8025 C 300.70125 407.295 293.6025 405 292.995 398.59875 C 292.93875 397.665 293.02875 396.765 293.29875 395.89875 C 293.50125 395.0325 293.86125 394.2 294.40125 393.40125 C 294.8625 392.67 295.47 392.02875 296.20125 391.5 C 296.865 390.90375 297.63 390.465 298.49625 390.195 C 302.50125 388.8 306.59625 388.395 310.60125 388.00125 C 311.13 387.93375 311.70375 387.86625 312.3 387.79875 C 312.82875 387.73125 313.36875 387.66375 313.8975 387.59625 C 314.4375 387.52875 315 387.43875 315.59625 387.30375 C 316.13625 387.23625 316.665 387.135 317.205 387 C 324.2025 385.4025 335.9025 382.7025 339.60375 376.695 C 341.3025 373.995 341.20125 370.5975 340.79625 365.4 C 340.66125 364.46625 340.57125 363.5325 340.50375 362.59875 C 340.50375 361.665 340.50375 360.73125 340.50375 359.7975 C 340.50375 358.86375 340.50375 357.93 340.50375 356.99625 C 340.57125 356.0625 340.66125 355.12875 340.79625 354.195 C 341.69625 347.805 343.90125 341.595 347.29875 336.105 C 350.69625 330.5025 355.19625 325.69875 360.59625 321.9975 C 365.895 318.195 371.9025 315.59625 378.30375 314.3025 C 384.705 312.89625 391.2975 312.89625 397.5975 314.3025 L 399.6 312.19875 C 409.12875 299.86875 418.93875 287.7975 428.99625 275.99625 C 429.13125 275.86125 429.26625 275.7375 429.40125 275.6025 C 446.265 255.9375 463.905 237.00375 482.29875 218.80125 L 503.69625 218.80125 C 483.2325 238.39875 463.7025 258.89625 445.095 280.305 L 468.6975 303.89625 C 475.965 297.5625 483.13125 291.13875 490.19625 284.6025 Z M 457.30125 313.695 L 435.3975 291.70125 C 427.53375 300.97125 419.86125 310.39875 412.4025 319.995 C 414.135 320.99625 415.76625 322.09875 417.29625 323.3025 C 418.905 324.5625 420.40125 325.90125 421.79625 327.29625 C 423.2025 328.7025 424.49625 330.165 425.7 331.695 C 426.90375 333.30375 427.995 334.935 428.99625 336.6 C 438.60375 329.13 448.03125 321.5025 457.30125 313.695 Z M 457.30125 313.695 " transform="matrix(0.347222,0,0,0.347222,0,0)"/>
<path style="fill-rule:nonzero;fill:rgb(19.607843%,36.862745%,39.215686%);fill-opacity:1;stroke-width:0.6;stroke-linecap:butt;stroke-linejoin:miter;stroke:rgb(19.607843%,36.862745%,39.215686%);stroke-opacity:1;stroke-miterlimit:4;" d="M 565.4025 163.5975 L 548.20125 178.50375 L 525.49875 178.50375 L 526.60125 177.60375 L 542.7 163.5975 Z M 565.4025 163.5975 " transform="matrix(0.347222,0,0,0.347222,0,0)"/>
<path style="fill-rule:nonzero;fill:rgb(19.607843%,36.862745%,39.215686%);fill-opacity:1;stroke-width:0.6;stroke-linecap:butt;stroke-linejoin:miter;stroke:rgb(19.607843%,36.862745%,39.215686%);stroke-opacity:1;stroke-miterlimit:4;" d="M 591.795 189.30375 L 591.795 199.00125 L 576.9 216.2025 L 576.9 193.39875 L 589.60125 178.79625 C 589.93875 179.595 590.265 180.43875 590.6025 181.305 C 590.86125 182.17125 591.0975 183.0375 591.3 183.90375 C 591.435 184.77 591.57 185.67 591.705 186.60375 C 591.76125 187.47 591.795 188.37 591.795 189.30375 Z M 591.795 189.30375 " transform="matrix(0.347222,0,0,0.347222,0,0)"/>
<path style="fill-rule:nonzero;fill:rgb(19.607843%,36.862745%,39.215686%);fill-opacity:1;stroke-width:0.6;stroke-linecap:butt;stroke-linejoin:miter;stroke:rgb(19.607843%,36.862745%,39.215686%);stroke-opacity:1;stroke-miterlimit:4;" d="M 565.79625 206.1 L 565.79625 228.8025 C 560.86875 234.3375 555.89625 239.805 550.90125 245.205 L 550.90125 222.9975 C 553.96125 219.6 557.0325 216.135 560.10375 212.6025 Z M 565.79625 206.1 " transform="matrix(0.347222,0,0,0.347222,0,0)"/>
<path style="fill-rule:nonzero;fill:rgb(19.607843%,36.862745%,39.215686%);fill-opacity:1;stroke-width:0.6;stroke-linecap:butt;stroke-linejoin:miter;stroke:rgb(19.607843%,36.862745%,39.215686%);stroke-opacity:1;stroke-miterlimit:4;" d="M 519.60375 203.805 C 514.27125 208.7325 508.96125 213.73875 503.69625 218.80125 L 482.1975 218.80125 C 487.33875 213.73875 492.5025 208.7325 497.7 203.805 Z M 519.60375 203.805 " transform="matrix(0.347222,0,0,0.347222,0,0)"/>
<path style="fill-rule:nonzero;fill:rgb(19.607843%,36.862745%,39.215686%);fill-opacity:1;stroke-width:0.6;stroke-linecap:butt;stroke-linejoin:miter;stroke:rgb(19.607843%,36.862745%,39.215686%);stroke-opacity:1;stroke-miterlimit:4;" d="M 624.49875 161.505 L 591.795 199.00125 L 591.795 189.30375 C 591.795 188.37 591.76125 187.47 591.705 186.60375 C 591.57 185.67 591.435 184.77 591.3 183.90375 C 591.0975 183.0375 590.86125 182.17125 590.6025 181.305 C 590.265 180.43875 589.93875 179.595 589.60125 178.79625 L 608.70375 156.90375 L 592.09875 140.29875 L 565.4025 163.5975 L 542.59875 163.5975 L 587.4975 124.50375 C 588.22875 123.82875 589.03875 123.3675 589.905 123.0975 C 590.83875 122.77125 591.76125 122.6025 592.695 122.6025 C 593.62875 122.67 594.52875 122.895 595.395 123.3 C 596.26125 123.6375 597.0375 124.1325 597.70125 124.79625 L 624.195 151.2 C 624.87 151.93125 625.39875 152.73 625.80375 153.59625 C 626.13 154.4625 626.3325 155.3625 626.4 156.29625 C 626.4 157.23 626.23125 158.13 625.905 158.99625 C 625.635 159.93 625.1625 160.7625 624.49875 161.505 Z M 624.49875 161.505 " transform="matrix(0.347222,0,0,0.347222,0,0)"/>
<path style="fill-rule:nonzero;fill:rgb(19.607843%,36.862745%,39.215686%);fill-opacity:1;stroke-width:0.6;stroke-linecap:butt;stroke-linejoin:miter;stroke:rgb(19.607843%,36.862745%,39.215686%);stroke-opacity:1;stroke-miterlimit:4;" d="M 548.20125 178.50375 L 536.4 188.89875 C 530.73 193.77 525.13875 198.73125 519.60375 203.805 L 497.7 203.805 C 506.835 195.19875 516.105 186.76125 525.49875 178.50375 Z M 548.20125 178.50375 " transform="matrix(0.347222,0,0,0.347222,0,0)"/>
<path style="fill:none;stroke-width:8.8;stroke-linecap:butt;stroke-linejoin:miter;stroke:rgb(19.607843%,36.862745%,39.215686%);stroke-opacity:1;stroke-miterlimit:4;" d="M 235.20375 318.90375 L 235.20375 297.405 L 213.705 297.405 L 213.705 275.805 L 235.20375 275.805 L 235.20375 254.295 L 256.80375 254.295 L 256.80375 275.805 L 278.3025 275.805 L 278.3025 297.405 L 256.80375 297.405 L 256.80375 318.90375 Z M 235.20375 318.90375 " transform="matrix(0.347222,0,0,0.347222,0,0)"/>
<path style="fill:none;stroke-width:8.8;stroke-linecap:butt;stroke-linejoin:miter;stroke:rgb(19.607843%,36.862745%,39.215686%);stroke-opacity:1;stroke-miterlimit:4;" d="M 451.69875 323.595 L 450.405 340.4025 L 471.90375 340.4025 L 471.90375 361.90125 L 493.4025 361.90125 L 493.4025 383.4 L 514.90125 383.4 L 514.90125 404.89875 L 536.4 404.89875 L 536.4 426.3975 L 557.89875 426.3975 L 557.89875 447.89625 L 127.69875 447.89625 L 127.69875 361.90125 L 149.1975 361.90125 L 149.1975 340.4025 L 170.69625 340.4025 L 170.69625 318.90375 L 192.195 318.90375 L 192.195 340.4025 L 213.705 340.4025 L 213.705 361.90125 L 235.20375 361.90125 L 235.20375 383.4 L 256.80375 383.4 L 256.80375 361.90125 L 278.3025 361.90125 L 278.3025 340.4025 L 299.80125 340.4025 L 299.80125 318.90375 L 321.3 318.90375 L 321.3 297.405 L 342.79875 297.405 L 342.79875 275.805 L 364.2975 275.805 L 364.2975 254.295 L 385.79625 254.295 L 385.79625 275.805 L 407.295 275.805 L 407.295 297.405 L 424.00125 297.405 " transform="matrix(0.347222,0,0,0.347222,0,0)"/>
<path style="fill-rule:nonzero;fill:rgb(19.607843%,36.862745%,39.215686%);fill-opacity:1;stroke-width:0.6;stroke-linecap:butt;stroke-linejoin:miter;stroke:rgb(19.607843%,36.862745%,39.215686%);stroke-opacity:1;stroke-miterlimit:4;" d="M 550.90125 438.89625 L 550.90125 245.205 C 555.89625 239.805 560.86875 234.3375 565.79625 228.8025 L 565.79625 453.8025 L 120.195 453.8025 L 120.195 203.805 L 497.7 203.805 C 492.5025 208.7325 487.33875 213.73875 482.1975 218.80125 L 135.2025 218.80125 L 135.2025 438.89625 " transform="matrix(0.347222,0,0,0.347222,0,0)"/>
<path style="fill-rule:evenodd;fill:rgb(19.607843%,36.862745%,39.215686%);fill-opacity:1;stroke-width:0.6;stroke-linecap:butt;stroke-linejoin:miter;stroke:rgb(19.607843%,36.862745%,39.215686%);stroke-opacity:1;stroke-miterlimit:4;" d="M 591.795 199.00125 L 591.795 504.30375 C 591.795 507.70125 591.19875 510.9975 589.905 514.1025 C 588.6 517.19625 586.69875 519.9975 584.3025 522.405 C 581.895 524.80125 579.105 526.7025 576 527.99625 C 572.895 529.30125 569.4975 529.8975 566.20125 529.8975 L 408.00375 529.8975 C 407.4975 550.395 413.89875 570.70125 426.90375 589.19625 L 427.2975 589.80375 L 442.8 589.80375 C 449.20125 589.80375 455.4 592.30125 460.00125 596.9025 C 464.50125 601.4025 467.1 607.60125 467.1 614.10375 C 467.1 620.505 464.50125 626.70375 460.00125 631.20375 C 455.4 635.805 449.20125 638.40375 442.8 638.40375 L 243.2025 638.40375 C 236.7 638.40375 230.6025 635.805 226.00125 631.20375 C 221.4 626.70375 218.9025 620.505 218.9025 614.10375 C 218.9025 607.60125 221.4 601.4025 226.00125 596.9025 C 230.6025 592.30125 236.7 589.80375 243.2025 589.80375 L 258.705 589.80375 L 259.09875 589.19625 C 272.0025 570.70125 278.505 550.395 277.99875 529.8975 L 119.9025 529.8975 C 116.505 529.8975 113.1975 529.30125 110.0025 527.99625 C 106.8975 526.7025 104.09625 524.80125 101.7 522.405 C 99.30375 519.9975 97.4025 517.19625 96.19875 514.1025 C 94.905 510.9975 94.19625 507.70125 94.19625 504.30375 L 94.19625 189.30375 C 94.19625 185.895 94.905 182.4975 96.19875 179.40375 C 97.4025 176.29875 99.30375 173.4975 101.7 171.10125 C 104.09625 168.705 106.8975 166.80375 110.0025 165.49875 C 113.1975 164.295 116.505 163.5975 119.9025 163.5975 L 542.7 163.5975 L 526.60125 177.60375 L 525.49875 178.50375 L 119.9025 178.50375 C 118.395 178.50375 117.10125 178.79625 115.79625 179.40375 C 114.5025 179.89875 113.29875 180.6975 112.2975 181.69875 C 111.29625 182.7 110.4975 183.90375 110.0025 185.1975 C 109.395 186.5025 109.1025 187.79625 109.1025 189.30375 L 109.1025 504.30375 C 109.1025 505.69875 109.395 507.105 110.0025 508.39875 C 110.4975 509.70375 111.29625 510.89625 112.2975 511.8975 C 113.29875 512.7975 114.5025 513.59625 115.79625 514.20375 C 117.10125 514.69875 118.395 515.0025 119.9025 515.0025 L 566.20125 515.0025 C 567.59625 515.0025 569.0025 514.69875 570.29625 514.20375 C 571.60125 513.59625 572.70375 512.7975 573.705 511.8975 C 574.695 510.89625 575.505 509.70375 576 508.39875 C 576.59625 507.105 576.9 505.69875 576.9 504.30375 L 576.9 216.10125 Z M 243.10125 604.8 C 240.705 604.8 238.2975 605.80125 236.4975 607.5 C 234.79875 609.3 233.7975 611.595 233.7975 614.10375 C 233.7975 616.60125 234.79875 618.9975 236.4975 620.69625 C 238.2975 622.49625 240.705 623.4975 243.10125 623.4975 L 442.8 623.4975 C 445.19625 623.4975 447.60375 622.49625 449.40375 620.69625 C 451.1025 618.9975 452.10375 616.60125 452.10375 614.10375 C 452.10375 611.595 451.1025 609.3 449.40375 607.5 C 447.60375 605.80125 445.19625 604.8 442.8 604.8 Z M 292.905 529.99875 C 293.29875 550.5975 287.69625 571.005 276.40125 589.80375 L 409.2975 589.80375 C 398.10375 571.005 392.50125 550.5975 392.895 529.99875 Z M 292.905 529.99875 " transform="matrix(0.347222,0,0,0.347222,0,0)"/>
<path style="fill-rule:evenodd;fill:rgb(19.607843%,36.862745%,39.215686%);fill-opacity:1;stroke-width:0.6;stroke-linecap:butt;stroke-linejoin:miter;stroke:rgb(19.607843%,36.862745%,39.215686%);stroke-opacity:1;stroke-miterlimit:4;" d="M 576.9 193.39875 L 576.9 216.10125 L 571.39875 222.40125 C 569.53125 224.53875 567.66375 226.665 565.79625 228.8025 L 565.79625 206.1 Z M 490.19625 284.6025 C 497.26125 278.06625 504.2025 271.42875 510.9975 264.70125 C 517.87125 257.9625 524.6325 251.13375 531.30375 244.20375 C 537.89625 237.2625 544.4325 230.1975 550.90125 222.9975 L 550.90125 245.205 C 544.77 251.73 538.57125 258.19875 532.305 264.6 C 525.97125 271.00125 519.57 277.30125 513.10125 283.5 C 506.6325 289.69875 500.09625 295.83 493.50375 301.905 C 486.8325 307.90125 480.105 313.83 473.29875 319.7025 L 472.995 319.995 C 461.1375 330.13125 449.06625 339.93 436.80375 349.4025 L 434.7 351.405 C 435.49875 355.19625 435.8025 359.1 435.6 363.00375 C 435.49875 366.9975 434.80125 370.8 433.69875 374.6025 C 432.59625 378.30375 430.99875 382.005 428.99625 385.30125 C 427.005 388.69875 424.5975 391.80375 421.8975 394.605 C 419.6025 397.1025 398.9025 418.39875 360.59625 418.39875 C 358.86375 418.39875 357.165 418.365 355.5 418.2975 C 353.835 418.23 352.17 418.12875 350.505 418.005 C 348.82875 417.8025 347.16375 417.6 345.49875 417.3975 C 343.83375 417.13875 342.16875 416.86875 340.50375 416.59875 C 324.405 413.69625 312.5025 410.99625 305.40375 408.8025 C 300.70125 407.295 293.6025 405 292.995 398.59875 C 292.93875 397.665 293.02875 396.765 293.29875 395.89875 C 293.50125 395.0325 293.86125 394.2 294.40125 393.40125 C 294.8625 392.67 295.47 392.02875 296.20125 391.5 C 296.865 390.90375 297.63 390.465 298.49625 390.195 C 302.50125 388.8 306.59625 388.395 310.60125 388.00125 C 311.13 387.93375 311.70375 387.86625 312.3 387.79875 C 312.82875 387.73125 313.36875 387.66375 313.8975 387.59625 C 314.4375 387.52875 315 387.43875 315.59625 387.30375 C 316.13625 387.23625 316.665 387.135 317.205 387 C 324.2025 385.4025 335.9025 382.7025 339.60375 376.695 C 341.3025 373.995 341.20125 370.5975 340.79625 365.4 C 340.66125 364.46625 340.57125 363.5325 340.50375 362.59875 C 340.50375 361.665 340.50375 360.73125 340.50375 359.7975 C 340.50375 358.86375 340.50375 357.93 340.50375 356.99625 C 340.57125 356.0625 340.66125 355.12875 340.79625 354.195 C 341.69625 347.805 343.90125 341.595 347.29875 336.105 C 350.69625 330.5025 355.19625 325.69875 360.59625 321.9975 C 365.895 318.195 371.9025 315.59625 378.30375 314.3025 C 384.705 312.89625 391.2975 312.89625 397.5975 314.3025 L 399.6 312.19875 C 409.12875 299.86875 418.93875 287.7975 428.99625 275.99625 C 429.13125 275.86125 429.26625 275.7375 429.40125 275.6025 C 446.265 255.9375 463.905 237.00375 482.29875 218.80125 L 503.69625 218.80125 C 483.2325 238.39875 463.7025 258.89625 445.095 280.305 L 468.6975 303.89625 C 475.965 297.5625 483.13125 291.13875 490.19625 284.6025 Z M 457.30125 313.695 L 435.3975 291.70125 C 427.53375 300.97125 419.86125 310.39875 412.4025 319.995 C 414.135 320.99625 415.76625 322.09875 417.29625 323.3025 C 418.905 324.5625 420.40125 325.90125 421.79625 327.29625 C 423.2025 328.7025 424.49625 330.165 425.7 331.695 C 426.90375 333.30375 427.995 334.935 428.99625 336.6 C 438.60375 329.13 448.03125 321.5025 457.30125 313.695 Z M 457.30125 313.695 " transform="matrix(0.347222,0,0,0.347222,0,0)"/>
<path style="fill-rule:nonzero;fill:rgb(19.607843%,36.862745%,39.215686%);fill-opacity:1;stroke-width:0.6;stroke-linecap:butt;stroke-linejoin:miter;stroke:rgb(19.607843%,36.862745%,39.215686%);stroke-opacity:1;stroke-miterlimit:4;" d="M 565.4025 163.5975 L 548.20125 178.50375 L 525.49875 178.50375 L 526.60125 177.60375 L 542.7 163.5975 Z M 565.4025 163.5975 " transform="matrix(0.347222,0,0,0.347222,0,0)"/>
<path style="fill-rule:nonzero;fill:rgb(19.607843%,36.862745%,39.215686%);fill-opacity:1;stroke-width:0.6;stroke-linecap:butt;stroke-linejoin:miter;stroke:rgb(19.607843%,36.862745%,39.215686%);stroke-opacity:1;stroke-miterlimit:4;" d="M 591.795 189.30375 L 591.795 199.00125 L 576.9 216.2025 L 576.9 193.39875 L 589.60125 178.79625 C 589.93875 179.595 590.265 180.43875 590.6025 181.305 C 590.86125 182.17125 591.0975 183.0375 591.3 183.90375 C 591.435 184.77 591.57 185.67 591.705 186.60375 C 591.76125 187.47 591.795 188.37 591.795 189.30375 Z M 591.795 189.30375 " transform="matrix(0.347222,0,0,0.347222,0,0)"/>
<path style="fill-rule:nonzero;fill:rgb(19.607843%,36.862745%,39.215686%);fill-opacity:1;stroke-width:0.6;stroke-linecap:butt;stroke-linejoin:miter;stroke:rgb(19.607843%,36.862745%,39.215686%);stroke-opacity:1;stroke-miterlimit:4;" d="M 565.79625 206.1 L 565.79625 228.8025 C 560.86875 234.3375 555.89625 239.805 550.90125 245.205 L 550.90125 222.9975 C 553.96125 219.6 557.0325 216.135 560.10375 212.6025 Z M 565.79625 206.1 " transform="matrix(0.347222,0,0,0.347222,0,0)"/>
<path style="fill-rule:nonzero;fill:rgb(19.607843%,36.862745%,39.215686%);fill-opacity:1;stroke-width:0.6;stroke-linecap:butt;stroke-linejoin:miter;stroke:rgb(19.607843%,36.862745%,39.215686%);stroke-opacity:1;stroke-miterlimit:4;" d="M 519.60375 203.805 C 514.27125 208.7325 508.96125 213.73875 503.69625 218.80125 L 482.1975 218.80125 C 487.33875 213.73875 492.5025 208.7325 497.7 203.805 Z M 519.60375 203.805 " transform="matrix(0.347222,0,0,0.347222,0,0)"/>
<path style="fill-rule:nonzero;fill:rgb(19.607843%,36.862745%,39.215686%);fill-opacity:1;stroke-width:0.6;stroke-linecap:butt;stroke-linejoin:miter;stroke:rgb(19.607843%,36.862745%,39.215686%);stroke-opacity:1;stroke-miterlimit:4;" d="M 624.49875 161.505 L 591.795 199.00125 L 591.795 189.30375 C 591.795 188.37 591.76125 187.47 591.705 186.60375 C 591.57 185.67 591.435 184.77 591.3 183.90375 C 591.0975 183.0375 590.86125 182.17125 590.6025 181.305 C 590.265 180.43875 589.93875 179.595 589.60125 178.79625 L 608.70375 156.90375 L 592.09875 140.29875 L 565.4025 163.5975 L 542.59875 163.5975 C 542.59875 163.5975 595.00125 121.995 597.70125 124.79625 L 624.195 151.2 C 624.87 151.93125 625.39875 152.73 625.80375 153.59625 C 626.13 154.4625 626.3325 155.3625 626.4 156.29625 C 626.4 157.23 626.23125 158.13 625.905 158.99625 C 625.635 159.93 625.1625 160.7625 624.49875 161.505 Z M 624.49875 161.505 " transform="matrix(0.347222,0,0,0.347222,0,0)"/>
<path style="fill-rule:nonzero;fill:rgb(19.607843%,36.862745%,39.215686%);fill-opacity:1;stroke-width:0.6;stroke-linecap:butt;stroke-linejoin:miter;stroke:rgb(19.607843%,36.862745%,39.215686%);stroke-opacity:1;stroke-miterlimit:4;" d="M 548.20125 178.50375 L 536.4 188.89875 C 530.73 193.77 525.13875 198.73125 519.60375 203.805 L 497.7 203.805 C 506.835 195.19875 516.105 186.76125 525.49875 178.50375 Z M 548.20125 178.50375 " transform="matrix(0.347222,0,0,0.347222,0,0)"/>
<path style="fill-rule:nonzero;fill:rgb(19.607843%,36.862745%,39.215686%);fill-opacity:1;stroke-width:0.6;stroke-linecap:butt;stroke-linejoin:miter;stroke:rgb(19.607843%,36.862745%,39.215686%);stroke-opacity:1;stroke-miterlimit:4;" d="M 597.70125 124.79625 L 624.195 151.30125 C 629.505 156.6 625.995 158.895 624.49875 161.505 C 623.0025 164.10375 576.9 216.10125 550.90125 245.205 C 524.80125 274.2975 473.29875 319.7025 473.29875 319.7025 L 468.6975 303.89625 C 514.00125 268.50375 608.70375 156.90375 608.70375 156.90375 L 592.09875 140.29875 L 503.69625 218.80125 C 497.9025 221.50125 412.4025 319.995 412.4025 319.995 L 399.49875 312.19875 C 412.30125 290.9025 482.1975 218.80125 482.1975 218.80125 C 482.99625 212.4 587.59875 124.50375 587.59875 124.50375 C 593.40375 119.4975 597.70125 124.79625 597.70125 124.79625 Z M 597.70125 124.79625 " transform="matrix(0.347222,0,0,0.347222,0,0)"/>
</g>
</svg>
