<?xml version="1.0" encoding="UTF-8"?>
<svg xmlns="http://www.w3.org/2000/svg" xmlns:xlink="http://www.w3.org/1999/xlink" width="250px" height="250px" viewBox="0 0 250 250" version="1.1">
<g id="surface1">
<path style="fill-rule:nonzero;fill:rgb(19.607843%,36.862745%,39.215686%);fill-opacity:1;stroke-width:0.6;stroke-linecap:butt;stroke-linejoin:miter;stroke:rgb(19.607843%,36.862745%,39.215686%);stroke-opacity:1;stroke-miterlimit:4;" d="M 609.9975 186.89625 L 609.9975 503.505 C 609.9975 506.9025 609.3 510.3 607.995 513.405 C 606.70125 516.49875 604.8 519.40125 602.40375 521.69625 C 599.99625 524.10375 597.195 526.005 594.10125 527.29875 C 590.895 528.60375 587.59875 529.30125 584.20125 529.30125 L 135.6975 529.30125 C 132.3 529.30125 129.00375 528.60375 125.7975 527.29875 C 122.70375 526.005 119.9025 524.10375 117.495 521.7975 C 115.09875 519.40125 113.1975 516.49875 111.90375 513.405 C 110.59875 510.3 109.90125 506.9025 109.90125 503.505 L 109.90125 186.89625 C 109.90125 183.6 110.59875 180.2025 111.90375 177.0975 C 113.1975 173.9025 115.09875 171.10125 117.405 168.705 C 119.80125 166.2975 122.70375 164.39625 125.7975 163.1025 C 128.9025 161.7975 132.3 161.1 135.6975 161.1 L 175.5 161.1 L 175.5 176.1975 L 135.6975 176.1975 C 134.3025 176.1975 132.89625 176.50125 131.6025 176.99625 C 130.2975 177.5025 129.105 178.30125 128.10375 179.3025 C 127.1025 180.30375 126.30375 181.49625 125.69625 182.80125 C 125.20125 184.095 124.8975 185.50125 124.8975 186.89625 L 124.8975 503.505 C 124.8975 504.9 125.20125 506.295 125.69625 507.6 C 126.30375 508.905 127.1025 510.0975 128.10375 511.09875 C 129.105 512.1 130.2975 512.89875 131.6025 513.495 C 132.89625 514.00125 134.3025 514.305 135.6975 514.305 L 584.20125 514.305 C 585.59625 514.305 587.0025 514.00125 588.29625 513.495 C 589.60125 512.89875 590.805 512.1 591.795 511.09875 C 592.79625 510.0975 593.595 508.905 594.10125 507.6 C 594.6975 506.295 595.00125 504.9 595.00125 503.505 L 595.00125 186.89625 C 595.00125 185.50125 594.6975 184.095 594.10125 182.80125 C 593.595 181.49625 592.79625 180.30375 591.795 179.3025 C 590.805 178.30125 589.60125 177.5025 588.29625 176.99625 C 587.0025 176.50125 585.59625 176.1975 584.20125 176.1975 L 532.00125 176.1975 L 532.00125 161.1 L 584.20125 161.1 C 587.59875 161.1 590.895 161.7975 594 163.1025 C 597.195 164.39625 599.99625 166.2975 602.40375 168.705 C 604.8 171.10125 606.70125 173.9025 607.995 177.0975 C 609.3 180.2025 609.9975 183.49875 609.9975 186.89625 Z M 609.9975 186.89625 " transform="matrix(0.347222,0,0,0.347222,0,0)"/>
<path style="fill-rule:nonzero;fill:rgb(19.607843%,36.862745%,39.215686%);fill-opacity:1;stroke-width:0.6;stroke-linecap:butt;stroke-linejoin:miter;stroke:rgb(19.607843%,36.862745%,39.215686%);stroke-opacity:1;stroke-miterlimit:4;" d="M 583.8975 201.6 L 583.8975 452.80125 L 136.00125 452.80125 L 136.00125 201.6 L 172.305 201.8025 L 172.305 216.79875 L 151.09875 216.59625 L 151.09875 437.805 L 187.79625 437.805 L 187.79625 440.7975 L 547.4025 440.7975 L 547.4025 437.805 L 568.8 437.805 L 568.8 216.59625 L 531.9 216.59625 L 531.9 201.6 Z M 583.8975 201.6 " transform="matrix(0.347222,0,0,0.347222,0,0)"/>
<path style="fill-rule:evenodd;fill:rgb(19.607843%,36.862745%,39.215686%);fill-opacity:1;stroke-width:0.6;stroke-linecap:butt;stroke-linejoin:miter;stroke:rgb(19.607843%,36.862745%,39.215686%);stroke-opacity:1;stroke-miterlimit:4;" d="M 279.2025 604.49625 C 277.79625 604.49625 276.5025 604.1025 275.29875 603.405 C 274.095 602.595 273.195 601.605 272.4975 600.40125 C 271.90125 599.1975 271.5975 597.8025 271.69875 596.39625 C 271.8 595.1025 272.205 593.7975 273.00375 592.605 L 275.70375 588.90375 C 290.10375 568.305 296.505 545.29875 294.3 522.59625 C 294.0975 521.505 294.3 520.50375 294.60375 519.5025 C 294.89625 518.50125 295.50375 517.5 296.20125 516.8025 C 296.89875 516.00375 297.6975 515.39625 298.69875 514.90125 C 299.7 514.49625 300.70125 514.305 301.80375 514.305 L 418.19625 514.305 C 419.29875 514.305 420.3 514.49625 421.30125 515.0025 C 422.20125 515.39625 423.10125 516.00375 423.79875 516.8025 C 424.49625 517.60125 425.0025 518.50125 425.39625 519.5025 C 425.7 520.50375 425.80125 521.505 425.7 522.59625 C 423.405 545.29875 429.795 568.305 444.29625 588.90375 L 446.895 592.605 C 447.705 593.7975 448.2 595.1025 448.30125 596.39625 C 448.4025 597.8025 448.09875 599.1975 447.40125 600.40125 C 446.805 601.605 445.80375 602.595 444.70125 603.405 C 443.4975 604.1025 442.1025 604.49625 440.7975 604.49625 Z M 309.70125 529.30125 C 310.095 550.00125 304.50375 570.49875 293.1975 589.39875 L 426.70125 589.39875 C 415.305 570.49875 409.7025 550.00125 410.09625 529.30125 Z M 309.70125 529.30125 " transform="matrix(0.347222,0,0,0.347222,0,0)"/>
<path style="fill-rule:evenodd;fill:rgb(19.607843%,36.862745%,39.215686%);fill-opacity:1;stroke-width:0.6;stroke-linecap:butt;stroke-linejoin:miter;stroke:rgb(19.607843%,36.862745%,39.215686%);stroke-opacity:1;stroke-miterlimit:4;" d="M 460.305 638.3025 L 259.695 638.3025 C 253.20375 638.3025 247.005 635.70375 242.40375 631.1025 C 237.8025 626.50125 235.20375 620.3025 235.20375 613.8 C 235.20375 607.39875 237.8025 601.2 242.40375 596.59875 C 247.005 591.9975 253.20375 589.39875 259.695 589.39875 L 460.305 589.39875 C 466.695 589.39875 472.995 591.9975 477.495 596.59875 C 482.09625 601.2 484.695 607.39875 484.695 613.8 C 484.695 620.3025 482.09625 626.50125 477.495 631.1025 C 472.995 635.70375 466.695 638.3025 460.305 638.3025 Z M 259.695 604.49625 C 257.1975 604.49625 254.80125 605.39625 253.00125 607.19625 C 251.20125 608.99625 250.30125 611.40375 250.30125 613.8 C 250.30125 616.2975 251.20125 618.705 253.00125 620.505 C 254.80125 622.20375 257.1975 623.205 259.695 623.205 L 460.305 623.205 C 462.8025 623.205 465.0975 622.20375 466.8975 620.505 C 468.6975 618.705 469.69875 616.2975 469.69875 613.8 C 469.69875 611.40375 468.6975 608.99625 466.8975 607.19625 C 465.0975 605.39625 462.8025 604.49625 460.305 604.49625 Z M 259.695 604.49625 " transform="matrix(0.347222,0,0,0.347222,0,0)"/>
<path style="fill-rule:nonzero;fill:rgb(19.607843%,36.862745%,39.215686%);fill-opacity:1;stroke-width:0.6;stroke-linecap:butt;stroke-linejoin:miter;stroke:rgb(19.607843%,36.862745%,39.215686%);stroke-opacity:1;stroke-miterlimit:4;" d="M 172.305 201.70125 L 531.9 201.70125 L 531.9 216.6975 L 172.305 216.6975 Z M 172.305 201.70125 " transform="matrix(0.347222,0,0,0.347222,0,0)"/>
<path style="fill-rule:nonzero;fill:rgb(19.607843%,36.862745%,39.215686%);fill-opacity:1;stroke-width:0.6;stroke-linecap:butt;stroke-linejoin:miter;stroke:rgb(19.607843%,36.862745%,39.215686%);stroke-opacity:1;stroke-miterlimit:4;" d="M 175.5 176.1975 L 175.5 161.1 L 532.00125 161.1 L 532.00125 176.1975 Z M 175.5 176.1975 " transform="matrix(0.347222,0,0,0.347222,0,0)"/>
<path style=" stroke:none;fill-rule:nonzero;fill:rgb(19.607843%,36.862745%,39.215686%);fill-opacity:1;" d="M 164.894531 116.492188 C 164.664062 116.585938 164.433594 116.667969 164.203125 116.734375 C 163.96875 116.804688 163.75 116.863281 163.542969 116.910156 C 163.308594 116.980469 163.066406 117.035156 162.8125 117.082031 C 162.582031 117.105469 162.347656 117.140625 162.117188 117.1875 C 162.09375 117.1875 162.070312 117.1875 162.046875 117.1875 C 162.027344 117.1875 162.015625 117.1875 162.015625 117.1875 C 161.992188 117.210938 161.96875 117.222656 161.945312 117.222656 C 161.921875 117.222656 161.898438 117.234375 161.875 117.257812 C 161.898438 117.234375 161.921875 117.210938 161.945312 117.1875 C 161.945312 117.164062 161.957031 117.140625 161.980469 117.117188 C 162.003906 117.09375 162.027344 117.070312 162.046875 117.046875 C 162.046875 117.027344 162.058594 117.003906 162.082031 116.980469 C 162.1875 116.839844 162.222656 116.703125 162.328125 116.527344 C 162.328125 116.503906 162.339844 116.480469 162.359375 116.457031 C 162.359375 116.433594 162.371094 116.410156 162.394531 116.390625 C 162.394531 116.367188 162.394531 116.332031 162.394531 116.285156 C 162.417969 116.261719 162.429688 116.238281 162.429688 116.214844 C 162.429688 116.191406 162.429688 116.167969 162.429688 116.144531 C 162.453125 116.121094 162.464844 116.097656 162.464844 116.078125 C 162.464844 116.054688 162.464844 116.03125 162.464844 116.007812 C 162.464844 115.984375 162.464844 115.949219 162.464844 115.902344 C 162.671875 115.878906 162.871094 115.84375 163.054688 115.796875 C 163.242188 115.753906 163.4375 115.707031 163.644531 115.660156 C 163.832031 115.613281 164.015625 115.554688 164.203125 115.484375 C 164.386719 115.417969 164.570312 115.347656 164.757812 115.277344 C 164.804688 115.695312 164.847656 116.097656 164.894531 116.492188 Z M 163.921875 108.367188 C 163.945312 108.578125 163.96875 108.773438 163.992188 108.957031 L 162.984375 108.957031 C 162.359375 108.957031 162.257812 108.855469 162.082031 108.265625 C 162.082031 108.21875 162.070312 108.171875 162.046875 108.125 C 162.046875 108.101562 162.046875 108.078125 162.046875 108.054688 C 162.046875 108.03125 162.046875 108.007812 162.046875 107.984375 C 162.046875 107.964844 162.046875 107.929688 162.046875 107.882812 C 162.046875 107.859375 162.035156 107.835938 162.015625 107.8125 C 161.992188 107.765625 161.980469 107.707031 161.980469 107.640625 C 161.957031 107.59375 161.945312 107.546875 161.945312 107.5 C 161.921875 107.429688 161.898438 107.371094 161.875 107.328125 C 161.875 107.28125 161.875 107.222656 161.875 107.152344 C 161.875 107.105469 161.875 107.058594 161.875 107.015625 C 161.875 106.945312 161.863281 106.886719 161.839844 106.839844 C 161.839844 106.792969 161.839844 106.734375 161.839844 106.667969 C 161.839844 106.621094 161.839844 106.574219 161.839844 106.527344 C 162.394531 106.667969 162.847656 107.070312 163.195312 107.742188 L 163.855469 107.742188 C 163.878906 107.953125 163.902344 108.160156 163.921875 108.367188 Z M 163.019531 100.207031 C 163.195312 101.355469 163.296875 102.5 163.4375 103.644531 C 163.367188 103.714844 163.285156 103.761719 163.195312 103.785156 C 163.101562 103.832031 163.007812 103.867188 162.917969 103.890625 C 162.824219 103.910156 162.730469 103.933594 162.640625 103.957031 C 162.546875 103.980469 162.441406 103.992188 162.328125 103.992188 C 162.328125 103.992188 162.316406 103.980469 162.292969 103.957031 C 162.269531 103.957031 162.246094 103.957031 162.222656 103.957031 C 162.199219 103.957031 162.1875 103.957031 162.1875 103.957031 C 162.164062 103.957031 162.140625 103.957031 162.117188 103.957031 C 162.117188 103.542969 162.105469 103.136719 162.082031 102.742188 C 162.105469 102.742188 162.128906 102.753906 162.152344 102.777344 C 162.175781 102.777344 162.199219 102.777344 162.222656 102.777344 C 162.246094 102.777344 162.269531 102.777344 162.292969 102.777344 C 162.316406 102.800781 162.339844 102.8125 162.359375 102.8125 C 162.453125 102.789062 162.546875 102.765625 162.640625 102.742188 C 162.730469 102.695312 162.8125 102.640625 162.882812 102.570312 C 162.953125 102.5 163.007812 102.417969 163.054688 102.328125 C 163.101562 102.257812 163.125 102.164062 163.125 102.046875 C 163.125 101.957031 163.113281 101.863281 163.089844 101.769531 C 163.042969 101.679688 162.984375 101.585938 162.917969 101.492188 C 162.847656 101.421875 162.765625 101.367188 162.671875 101.320312 C 162.582031 101.296875 162.488281 101.285156 162.394531 101.285156 C 162.347656 101.285156 162.304688 101.285156 162.257812 101.285156 C 162.234375 101.285156 162.199219 101.285156 162.152344 101.285156 C 162.128906 101.308594 162.09375 101.320312 162.046875 101.320312 C 162.027344 101.34375 162.003906 101.367188 161.980469 101.390625 C 161.957031 101.296875 161.945312 101.214844 161.945312 101.144531 C 161.921875 101.054688 161.898438 100.972656 161.875 100.902344 C 161.851562 100.808594 161.839844 100.730469 161.839844 100.660156 C 161.816406 100.566406 161.792969 100.484375 161.769531 100.417969 C 161.769531 100.394531 161.757812 100.371094 161.734375 100.347656 C 161.734375 100.347656 161.734375 100.335938 161.734375 100.3125 C 161.714844 100.289062 161.703125 100.265625 161.703125 100.242188 C 161.703125 100.21875 161.691406 100.207031 161.667969 100.207031 C 161.734375 100.183594 161.792969 100.160156 161.839844 100.140625 C 161.910156 100.117188 161.96875 100.105469 162.015625 100.105469 C 162.082031 100.082031 162.140625 100.070312 162.1875 100.070312 C 162.257812 100.070312 162.328125 100.070312 162.394531 100.070312 C 162.441406 100.070312 162.488281 100.070312 162.535156 100.070312 C 162.605469 100.070312 162.660156 100.082031 162.707031 100.105469 C 162.753906 100.105469 162.8125 100.117188 162.882812 100.140625 C 162.929688 100.160156 162.972656 100.171875 163.019531 100.171875 Z M 163.019531 100.207031 "/>
<path style=" stroke:none;fill-rule:evenodd;fill:rgb(19.607843%,36.862745%,39.215686%);fill-opacity:1;" d="M 165.035156 133.785156 C 161.734375 141.355469 151.597656 142.359375 146.667969 135.519531 C 145.730469 134.269531 145.105469 132.742188 144.546875 131.25 C 143.609375 128.855469 142.882812 126.355469 142.046875 123.921875 C 141.945312 123.609375 141.632812 123.402344 141.320312 123.019531 C 139.859375 126.667969 137.640625 128.367188 134.617188 128.332031 C 131.25 128.265625 129.097656 126.457031 127.953125 123.296875 L 117.707031 123.296875 C 116.492188 126.632812 114.203125 128.542969 110.589844 128.296875 C 107.464844 128.125 105.519531 126.285156 104.375 123.054688 C 104.027344 123.4375 103.679688 123.644531 103.578125 123.957031 C 102.605469 126.839844 101.734375 129.792969 100.625 132.640625 C 98.265625 138.957031 91.285156 141.875 85.519531 138.992188 C 82.082031 137.292969 80.382812 134.304688 79.6875 130.660156 C 79.6875 130.613281 79.675781 130.566406 79.652344 130.519531 C 79.652344 130.453125 79.640625 130.394531 79.617188 130.347656 C 79.59375 130.300781 79.582031 130.253906 79.582031 130.207031 C 79.558594 130.140625 79.535156 130.082031 79.515625 130.035156 L 79.515625 126.492188 C 79.757812 124.828125 80 123.160156 80.207031 121.492188 C 80.867188 115.867188 81.492188 110.242188 82.1875 104.617188 C 82.464844 102.046875 82.640625 99.445312 83.195312 96.945312 C 84.6875 90.589844 90.796875 85.832031 97.429688 85.832031 C 114.351562 85.785156 131.273438 85.785156 148.195312 85.832031 C 149.144531 85.832031 150.09375 85.925781 151.042969 86.109375 C 151.96875 86.320312 152.882812 86.597656 153.785156 86.945312 C 154.664062 87.316406 155.496094 87.765625 156.285156 88.296875 C 157.09375 88.832031 157.835938 89.433594 158.507812 90.105469 C 158.484375 90.128906 158.449219 90.140625 158.402344 90.140625 C 158.355469 90.160156 158.320312 90.183594 158.296875 90.207031 C 158.253906 90.230469 158.21875 90.253906 158.195312 90.277344 C 158.148438 90.300781 158.113281 90.335938 158.089844 90.382812 C 158.019531 90.453125 157.953125 90.519531 157.882812 90.589844 C 157.835938 90.683594 157.800781 90.765625 157.777344 90.832031 C 157.730469 90.925781 157.707031 91.019531 157.707031 91.109375 C 157.683594 91.226562 157.671875 91.332031 157.671875 91.421875 C 157.671875 92.488281 157.671875 93.566406 157.671875 94.652344 C 155.554688 91.457031 151.875 89.167969 147.984375 89.234375 C 144.167969 89.304688 140.382812 89.234375 136.5625 89.234375 L 135.589844 89.234375 C 135.589844 90.589844 135.589844 91.804688 135.589844 92.984375 C 135.589844 94.828125 135.660156 96.667969 135.484375 98.507812 C 135.3125 100.832031 133.125 102.742188 130.796875 102.8125 C 129.617188 102.847656 128.855469 102.222656 128.75 101.25 C 128.679688 100.277344 129.375 99.582031 130.519531 99.410156 C 131.390625 99.304688 132.082031 98.855469 132.117188 97.953125 C 132.1875 95.070312 132.152344 92.222656 132.152344 89.304688 L 113.609375 89.304688 C 113.578125 89.375 113.542969 89.445312 113.542969 89.480469 C 113.519531 92.027344 113.507812 94.558594 113.507812 97.082031 C 113.507812 98.785156 113.785156 99.132812 115.453125 99.445312 C 115.660156 99.46875 115.855469 99.535156 116.042969 99.652344 C 116.226562 99.769531 116.390625 99.90625 116.527344 100.070312 C 116.644531 100.253906 116.734375 100.441406 116.804688 100.625 C 116.875 100.832031 116.898438 101.042969 116.875 101.25 C 116.875 101.480469 116.828125 101.691406 116.734375 101.875 C 116.644531 102.058594 116.515625 102.222656 116.355469 102.359375 C 116.191406 102.523438 116.007812 102.640625 115.796875 102.707031 C 115.613281 102.777344 115.40625 102.8125 115.171875 102.8125 C 115.082031 102.8125 114.976562 102.8125 114.859375 102.8125 C 114.769531 102.8125 114.664062 102.800781 114.546875 102.777344 C 114.457031 102.777344 114.351562 102.765625 114.234375 102.742188 C 114.144531 102.71875 114.039062 102.695312 113.921875 102.671875 C 111.492188 102.046875 110.070312 100.070312 110.070312 97.394531 C 110.035156 94.722656 110.070312 92.046875 110.070312 89.269531 L 109.269531 89.269531 C 105.277344 89.269531 101.285156 89.234375 97.257812 89.269531 C 92.570312 89.304688 87.707031 92.847656 86.667969 97.464844 C 85.902344 100.796875 85.695312 104.234375 85.277344 107.640625 C 84.617188 113.230469 83.957031 118.820312 83.332031 124.410156 C 83.089844 126.5625 82.742188 128.644531 83.230469 130.796875 C 84.234375 135 87.847656 137.429688 91.910156 136.457031 C 95 135.695312 96.804688 133.507812 97.777344 130.589844 C 98.785156 127.5 99.859375 124.445312 100.832031 121.355469 C 101.179688 120.242188 101.875 119.757812 102.984375 119.792969 C 103.507812 119.828125 103.992188 119.792969 104.445312 119.792969 C 105.554688 116.703125 107.640625 114.828125 110.867188 114.722656 C 114.339844 114.652344 116.5625 116.5625 117.742188 119.792969 L 127.953125 119.792969 C 129.0625 116.667969 131.179688 114.792969 134.480469 114.757812 C 137.882812 114.722656 140.070312 116.597656 141.214844 119.828125 L 142.328125 119.828125 C 144.097656 119.828125 144.410156 120.070312 144.964844 121.703125 C 146.042969 124.929688 147.046875 128.195312 148.195312 131.390625 C 149.722656 135.519531 153.992188 137.640625 157.847656 136.25 C 161.109375 135.140625 163.160156 131.421875 162.707031 127.464844 C 161.632812 118.125 160.382812 108.820312 159.480469 99.445312 C 159.457031 99.167969 159.410156 98.878906 159.339844 98.578125 C 159.292969 98.296875 159.234375 98.019531 159.167969 97.742188 C 159.074219 97.464844 158.980469 97.1875 158.890625 96.910156 C 158.773438 96.65625 158.65625 96.390625 158.542969 96.109375 C 158.589844 96.042969 158.632812 95.960938 158.679688 95.867188 C 158.703125 95.777344 158.726562 95.683594 158.75 95.589844 C 158.796875 95.519531 158.820312 95.441406 158.820312 95.347656 C 158.84375 95.230469 158.855469 95.128906 158.855469 95.035156 C 158.921875 93.957031 158.890625 92.882812 158.921875 91.769531 C 158.921875 91.609375 158.921875 91.433594 158.921875 91.25 L 159.617188 91.25 C 160.011719 91.734375 160.371094 92.234375 160.695312 92.742188 C 161.019531 93.253906 161.308594 93.785156 161.5625 94.339844 C 161.816406 94.894531 162.035156 95.464844 162.222656 96.042969 C 162.40625 96.621094 162.546875 97.210938 162.640625 97.8125 C 162.777344 98.597656 162.90625 99.398438 163.019531 100.207031 C 162.972656 100.183594 162.917969 100.160156 162.847656 100.140625 C 162.800781 100.140625 162.753906 100.128906 162.707031 100.105469 C 162.640625 100.105469 162.582031 100.105469 162.535156 100.105469 C 162.488281 100.082031 162.429688 100.070312 162.359375 100.070312 C 162.316406 100.070312 162.257812 100.070312 162.1875 100.070312 C 162.117188 100.09375 162.058594 100.105469 162.015625 100.105469 C 161.945312 100.128906 161.886719 100.140625 161.839844 100.140625 C 161.769531 100.160156 161.714844 100.183594 161.667969 100.207031 C 161.667969 100.230469 161.679688 100.253906 161.703125 100.277344 C 161.703125 100.277344 161.703125 100.289062 161.703125 100.3125 C 161.722656 100.335938 161.734375 100.359375 161.734375 100.382812 C 161.734375 100.40625 161.746094 100.429688 161.769531 100.453125 C 161.792969 100.519531 161.804688 100.589844 161.804688 100.660156 C 161.828125 100.753906 161.851562 100.832031 161.875 100.902344 C 161.898438 100.996094 161.910156 101.078125 161.910156 101.144531 C 161.933594 101.238281 161.945312 101.320312 161.945312 101.390625 C 161.992188 101.367188 162.027344 101.355469 162.046875 101.355469 C 162.09375 101.332031 162.128906 101.320312 162.152344 101.320312 C 162.199219 101.296875 162.234375 101.285156 162.257812 101.285156 C 162.304688 101.285156 162.339844 101.285156 162.359375 101.285156 C 162.476562 101.285156 162.582031 101.308594 162.671875 101.355469 C 162.765625 101.402344 162.847656 101.457031 162.917969 101.527344 C 162.984375 101.597656 163.03125 101.679688 163.054688 101.769531 C 163.101562 101.863281 163.125 101.96875 163.125 102.082031 C 163.125 102.175781 163.101562 102.269531 163.054688 102.359375 C 163.007812 102.453125 162.953125 102.535156 162.882812 102.605469 C 162.8125 102.671875 162.730469 102.71875 162.640625 102.742188 C 162.546875 102.789062 162.453125 102.8125 162.359375 102.8125 C 162.339844 102.8125 162.316406 102.8125 162.292969 102.8125 C 162.269531 102.8125 162.246094 102.8125 162.222656 102.8125 C 162.199219 102.789062 162.175781 102.777344 162.152344 102.777344 C 162.128906 102.777344 162.105469 102.765625 162.082031 102.742188 C 162.105469 103.160156 162.117188 103.578125 162.117188 103.992188 C 162.117188 103.992188 162.128906 103.992188 162.152344 103.992188 C 162.175781 103.992188 162.199219 103.992188 162.222656 103.992188 C 162.246094 103.992188 162.257812 103.992188 162.257812 103.992188 C 162.28125 103.992188 162.304688 103.992188 162.328125 103.992188 C 162.417969 103.992188 162.511719 103.980469 162.605469 103.957031 C 162.71875 103.957031 162.824219 103.945312 162.917969 103.921875 C 163.007812 103.902344 163.101562 103.867188 163.195312 103.820312 C 163.265625 103.773438 163.34375 103.726562 163.4375 103.679688 C 163.578125 105.035156 163.714844 106.390625 163.855469 107.742188 L 163.195312 107.742188 C 162.847656 107.070312 162.394531 106.667969 161.839844 106.527344 C 161.839844 106.574219 161.839844 106.621094 161.839844 106.667969 C 161.839844 106.734375 161.839844 106.792969 161.839844 106.839844 C 161.863281 106.886719 161.875 106.945312 161.875 107.015625 C 161.875 107.058594 161.875 107.105469 161.875 107.152344 C 161.875 107.222656 161.875 107.28125 161.875 107.328125 C 161.898438 107.371094 161.921875 107.429688 161.945312 107.5 C 161.945312 107.546875 161.957031 107.59375 161.980469 107.640625 C 161.980469 107.707031 161.992188 107.765625 162.015625 107.8125 C 162.035156 107.835938 162.046875 107.859375 162.046875 107.882812 C 162.046875 107.929688 162.046875 107.964844 162.046875 107.984375 C 162.046875 108.007812 162.046875 108.03125 162.046875 108.054688 C 162.046875 108.078125 162.046875 108.101562 162.046875 108.125 C 162.082031 108.195312 162.082031 108.230469 162.082031 108.265625 C 162.257812 108.855469 162.359375 108.957031 162.984375 108.957031 L 163.992188 108.957031 C 164.246094 111.066406 164.503906 113.171875 164.757812 115.277344 C 164.570312 115.347656 164.386719 115.417969 164.203125 115.484375 C 164.015625 115.554688 163.832031 115.613281 163.644531 115.660156 C 163.4375 115.707031 163.242188 115.753906 163.054688 115.796875 C 162.871094 115.84375 162.671875 115.890625 162.464844 115.9375 C 162.464844 115.960938 162.464844 115.984375 162.464844 116.007812 C 162.464844 116.03125 162.464844 116.054688 162.464844 116.078125 C 162.464844 116.097656 162.453125 116.121094 162.429688 116.144531 C 162.429688 116.167969 162.429688 116.191406 162.429688 116.214844 C 162.429688 116.238281 162.417969 116.273438 162.394531 116.320312 C 162.394531 116.34375 162.394531 116.367188 162.394531 116.390625 C 162.371094 116.410156 162.359375 116.433594 162.359375 116.457031 C 162.339844 116.480469 162.328125 116.515625 162.328125 116.5625 C 162.222656 116.703125 162.1875 116.839844 162.082031 116.980469 C 162.058594 117.003906 162.046875 117.027344 162.046875 117.046875 C 162.027344 117.070312 162.003906 117.09375 161.980469 117.117188 C 161.957031 117.140625 161.945312 117.164062 161.945312 117.1875 C 161.921875 117.210938 161.898438 117.234375 161.875 117.257812 C 161.898438 117.234375 161.921875 117.222656 161.945312 117.222656 C 161.96875 117.222656 161.992188 117.210938 162.015625 117.1875 C 162.015625 117.1875 162.027344 117.1875 162.046875 117.1875 C 162.070312 117.1875 162.09375 117.1875 162.117188 117.1875 C 162.347656 117.140625 162.582031 117.105469 162.8125 117.082031 C 163.066406 117.035156 163.308594 116.980469 163.542969 116.910156 C 163.75 116.863281 163.96875 116.804688 164.203125 116.734375 C 164.433594 116.667969 164.664062 116.585938 164.894531 116.492188 C 165.21875 119.363281 165.554688 122.222656 165.902344 125.070312 C 166.285156 128.054688 166.285156 130.972656 165.035156 133.785156 Z M 112.394531 124.652344 C 112.777344 124.480469 113.160156 124.234375 113.472656 123.921875 C 113.785156 123.609375 114.027344 123.230469 114.203125 122.8125 C 114.375 122.429688 114.445312 121.980469 114.445312 121.527344 C 114.480469 120.625 114.132812 119.757812 113.507812 119.097656 C 112.882812 118.4375 112.015625 118.089844 111.109375 118.089844 C 110.171875 118.089844 109.304688 118.4375 108.679688 119.097656 C 108.054688 119.757812 107.707031 120.625 107.742188 121.527344 C 107.742188 121.980469 107.8125 122.429688 107.984375 122.8125 C 108.160156 123.230469 108.402344 123.609375 108.714844 123.921875 C 109.027344 124.234375 109.410156 124.480469 109.792969 124.652344 C 110.207031 124.828125 110.660156 124.929688 111.109375 124.929688 C 111.527344 124.929688 111.980469 124.828125 112.394531 124.652344 Z M 134.582031 124.929688 C 135.035156 124.929688 135.453125 124.828125 135.867188 124.6875 C 136.285156 124.515625 136.667969 124.269531 136.980469 123.957031 C 137.292969 123.609375 137.535156 123.265625 137.707031 122.847656 C 137.882812 122.429688 137.953125 122.015625 137.953125 121.5625 C 137.984375 120.660156 137.640625 119.757812 137.015625 119.097656 C 136.390625 118.472656 135.519531 118.089844 134.617188 118.089844 C 133.714844 118.089844 132.847656 118.4375 132.1875 119.097656 C 131.5625 119.722656 131.214844 120.625 131.214844 121.527344 C 131.214844 121.980469 131.320312 122.394531 131.492188 122.8125 C 131.632812 123.230469 131.910156 123.609375 132.1875 123.921875 C 132.5 124.234375 132.882812 124.480469 133.296875 124.652344 C 133.679688 124.828125 134.132812 124.929688 134.582031 124.929688 Z M 134.582031 124.929688 "/>
<path style=" stroke:none;fill-rule:evenodd;fill:rgb(19.607843%,36.862745%,39.215686%);fill-opacity:1;" d="M 103.609375 101.078125 C 106.5625 101.457031 108.507812 103.367188 108.609375 105.9375 C 108.75 108.785156 107.046875 110.660156 103.644531 111.390625 C 103.296875 114.546875 101.144531 116.457031 98.332031 116.457031 C 95.660156 116.457031 94.0625 114.792969 93.195312 111.421875 C 89.410156 110.972656 88.054688 108.089844 88.195312 105.902344 C 88.367188 103.296875 90.242188 101.492188 93.195312 101.078125 C 94.234375 97.359375 95.832031 95.902344 98.855469 96.042969 C 101.285156 96.144531 103.019531 97.984375 103.609375 101.078125 Z M 98.4375 112.984375 C 98.621094 112.984375 98.808594 112.953125 98.992188 112.882812 C 99.179688 112.8125 99.351562 112.71875 99.515625 112.605469 C 99.652344 112.464844 99.769531 112.304688 99.859375 112.117188 C 99.953125 111.957031 100.011719 111.769531 100.035156 111.5625 C 100.105469 110.972656 100.070312 110.347656 100.105469 109.722656 C 100.171875 108.542969 100.832031 107.953125 101.980469 107.882812 C 102.5 107.882812 103.054688 107.917969 103.609375 107.882812 C 104.546875 107.8125 105.105469 107.222656 105.171875 106.320312 C 105.207031 105.417969 104.757812 104.757812 103.855469 104.617188 C 103.714844 104.59375 103.566406 104.570312 103.402344 104.546875 C 103.242188 104.546875 103.089844 104.535156 102.953125 104.515625 C 102.789062 104.515625 102.628906 104.515625 102.464844 104.515625 C 102.328125 104.515625 102.175781 104.515625 102.015625 104.515625 C 100.765625 104.480469 100.171875 103.890625 100.105469 102.640625 C 100.070312 102.117188 100.105469 101.5625 100.070312 101.042969 C 100.070312 100.625 99.859375 100.171875 99.582031 99.894531 C 99.269531 99.582031 98.820312 99.410156 98.402344 99.410156 C 97.953125 99.410156 97.535156 99.582031 97.222656 99.894531 C 96.910156 100.207031 96.734375 100.625 96.769531 101.078125 C 96.734375 101.597656 96.769531 102.152344 96.734375 102.671875 C 96.667969 103.855469 96.042969 104.480469 94.859375 104.515625 C 94.722656 104.515625 94.570312 104.515625 94.410156 104.515625 C 94.246094 104.515625 94.085938 104.515625 93.921875 104.515625 C 93.785156 104.515625 93.632812 104.527344 93.472656 104.546875 C 93.308594 104.546875 93.160156 104.558594 93.019531 104.582031 C 92.082031 104.757812 91.597656 105.382812 91.667969 106.320312 C 91.734375 107.292969 92.292969 107.8125 93.265625 107.882812 C 93.75 107.917969 94.269531 107.882812 94.757812 107.882812 C 96.007812 107.882812 96.703125 108.542969 96.734375 109.792969 C 96.769531 110.347656 96.734375 110.867188 96.769531 111.390625 C 96.769531 111.621094 96.804688 111.828125 96.875 112.015625 C 96.96875 112.222656 97.09375 112.394531 97.257812 112.535156 C 97.417969 112.695312 97.59375 112.8125 97.777344 112.882812 C 97.984375 112.953125 98.207031 112.984375 98.4375 112.984375 Z M 98.4375 112.984375 "/>
<path style=" stroke:none;fill-rule:nonzero;fill:rgb(19.607843%,36.862745%,39.215686%);fill-opacity:1;" d="M 154.582031 107.777344 C 154.882812 107.753906 155.183594 107.753906 155.484375 107.777344 C 155.765625 107.800781 156.042969 107.847656 156.320312 107.917969 C 156.621094 107.964844 156.910156 108.03125 157.1875 108.125 C 157.070312 108.378906 156.945312 108.609375 156.804688 108.820312 C 156.667969 109.050781 156.503906 109.257812 156.320312 109.445312 C 156.15625 109.652344 155.972656 109.828125 155.765625 109.964844 C 155.554688 110.128906 155.335938 110.277344 155.105469 110.417969 C 154.894531 110.53125 154.6875 110.636719 154.480469 110.730469 C 154.269531 110.820312 154.050781 110.914062 153.820312 111.007812 C 153.609375 111.078125 153.402344 111.144531 153.195312 111.214844 C 152.964844 111.285156 152.730469 111.355469 152.5 111.421875 C 151.910156 113.644531 150.972656 115.105469 149.6875 115.867188 C 149.503906 115.984375 149.304688 116.078125 149.097656 116.144531 C 148.890625 116.238281 148.679688 116.308594 148.472656 116.355469 C 148.265625 116.402344 148.042969 116.433594 147.8125 116.457031 C 147.605469 116.480469 147.382812 116.480469 147.152344 116.457031 C 146.714844 116.457031 146.285156 116.390625 145.867188 116.25 C 145.453125 116.132812 145.058594 115.960938 144.6875 115.730469 C 144.316406 115.496094 143.980469 115.21875 143.679688 114.894531 C 143.378906 114.59375 143.136719 114.246094 142.953125 113.855469 L 147.359375 113.855469 C 147.429688 113.53125 147.523438 113.230469 147.640625 112.953125 C 148.367188 112.8125 148.890625 112.222656 148.921875 111.355469 C 148.96875 111.007812 148.992188 110.695312 148.992188 110.417969 C 150.105469 109.027344 151.667969 108.160156 153.714844 107.847656 C 154.015625 107.800781 154.304688 107.777344 154.582031 107.777344 Z M 144.480469 96.910156 C 144.617188 96.839844 144.746094 96.78125 144.859375 96.734375 C 145 96.667969 145.128906 96.609375 145.242188 96.5625 C 145.382812 96.515625 145.519531 96.46875 145.660156 96.421875 C 145.777344 96.378906 145.902344 96.34375 146.042969 96.320312 C 145.507812 96.921875 145 97.546875 144.515625 98.195312 C 144.050781 98.867188 143.621094 99.546875 143.230469 100.242188 C 142.835938 100.960938 142.488281 101.703125 142.1875 102.464844 C 141.863281 103.207031 141.597656 103.96875 141.390625 104.757812 C 140.796875 105 140.519531 105.554688 140.519531 106.285156 C 140.519531 106.378906 140.53125 106.46875 140.554688 106.5625 C 140.554688 106.632812 140.566406 106.714844 140.589844 106.804688 C 140.636719 106.875 140.671875 106.945312 140.695312 107.015625 C 140.742188 107.105469 140.785156 107.175781 140.832031 107.222656 C 140.808594 107.339844 140.796875 107.453125 140.796875 107.570312 C 140.753906 107.847656 140.71875 108.125 140.695312 108.402344 C 140.671875 108.679688 140.648438 108.957031 140.625 109.234375 C 140.601562 109.535156 140.589844 109.828125 140.589844 110.105469 C 140.566406 110.382812 140.566406 110.660156 140.589844 110.9375 C 140.335938 110.84375 140.082031 110.742188 139.828125 110.625 C 139.59375 110.507812 139.375 110.371094 139.167969 110.207031 C 138.933594 110.070312 138.726562 109.90625 138.542969 109.722656 C 138.332031 109.535156 138.148438 109.339844 137.984375 109.132812 C 138.007812 108.53125 138.066406 107.917969 138.160156 107.292969 C 138.230469 106.667969 138.332031 106.054688 138.472656 105.453125 C 138.589844 104.847656 138.738281 104.246094 138.921875 103.644531 C 139.109375 103.066406 139.316406 102.488281 139.546875 101.910156 C 139.734375 101.792969 139.929688 101.691406 140.140625 101.597656 C 140.347656 101.503906 140.566406 101.421875 140.796875 101.355469 C 141.007812 101.285156 141.226562 101.226562 141.457031 101.179688 C 141.667969 101.132812 141.886719 101.097656 142.117188 101.078125 C 142.292969 99.339844 142.882812 97.742188 144.480469 96.910156 Z M 144.480469 96.910156 "/>
<path style=" stroke:none;fill-rule:nonzero;fill:rgb(19.607843%,36.862745%,39.215686%);fill-opacity:1;" d="M 147.640625 112.953125 C 147.523438 113.230469 147.429688 113.53125 147.359375 113.855469 L 142.953125 113.855469 C 142.835938 113.667969 142.730469 113.472656 142.640625 113.265625 C 142.570312 113.054688 142.5 112.859375 142.429688 112.671875 C 142.359375 112.464844 142.292969 112.257812 142.222656 112.046875 C 142.175781 111.839844 142.128906 111.632812 142.082031 111.421875 C 141.96875 111.378906 141.839844 111.34375 141.703125 111.320312 C 141.585938 111.273438 141.457031 111.238281 141.320312 111.214844 C 141.203125 111.167969 141.078125 111.121094 140.9375 111.078125 C 140.820312 111.03125 140.707031 110.984375 140.589844 110.9375 C 140.589844 110.660156 140.589844 110.382812 140.589844 110.105469 C 140.589844 109.828125 140.601562 109.546875 140.625 109.269531 C 140.648438 108.96875 140.671875 108.679688 140.695312 108.402344 C 140.71875 108.125 140.753906 107.847656 140.796875 107.570312 C 140.796875 107.453125 140.808594 107.347656 140.832031 107.257812 C 140.925781 107.347656 141.019531 107.429688 141.109375 107.5 C 141.203125 107.59375 141.308594 107.660156 141.421875 107.707031 C 141.539062 107.777344 141.667969 107.824219 141.804688 107.847656 C 141.921875 107.871094 142.046875 107.882812 142.1875 107.882812 C 142.707031 107.917969 143.230469 107.882812 143.785156 107.882812 C 144.859375 107.917969 145.519531 108.542969 145.589844 109.617188 C 145.660156 110.207031 145.589844 110.796875 145.660156 111.390625 C 145.730469 112.394531 146.390625 112.984375 147.359375 112.953125 C 147.382812 112.953125 147.40625 112.953125 147.429688 112.953125 C 147.453125 112.953125 147.476562 112.953125 147.5 112.953125 C 147.523438 112.953125 147.546875 112.953125 147.570312 112.953125 C 147.59375 112.953125 147.617188 112.953125 147.640625 112.953125 Z M 147.640625 112.953125 "/>
<path style=" stroke:none;fill-rule:nonzero;fill:rgb(19.607843%,36.862745%,39.215686%);fill-opacity:1;" d="M 139.515625 101.910156 C 139.304688 102.488281 139.109375 103.066406 138.921875 103.644531 C 138.738281 104.246094 138.578125 104.847656 138.4375 105.453125 C 138.320312 106.078125 138.21875 106.691406 138.125 107.292969 C 138.054688 107.917969 138.007812 108.542969 137.984375 109.167969 C 137.292969 108.265625 136.992188 107.164062 137.082031 105.867188 C 137.105469 105.453125 137.175781 105.058594 137.292969 104.6875 C 137.40625 104.292969 137.570312 103.921875 137.777344 103.578125 C 138.007812 103.230469 138.265625 102.917969 138.542969 102.640625 C 138.84375 102.339844 139.167969 102.09375 139.515625 101.910156 Z M 139.515625 101.910156 "/>
<path style=" stroke:none;fill-rule:nonzero;fill:rgb(19.607843%,36.862745%,39.215686%);fill-opacity:1;" d="M 157.5 106.214844 C 157.5 106.378906 157.5 106.539062 157.5 106.703125 C 157.476562 106.863281 157.453125 107.027344 157.429688 107.1875 C 157.40625 107.347656 157.371094 107.511719 157.328125 107.671875 C 157.28125 107.835938 157.222656 107.984375 157.152344 108.125 C 156.875 108.03125 156.597656 107.964844 156.320312 107.917969 C 156.042969 107.847656 155.753906 107.800781 155.453125 107.777344 C 155.171875 107.753906 154.882812 107.753906 154.582031 107.777344 C 154.304688 107.777344 154.015625 107.800781 153.714844 107.847656 C 151.667969 108.160156 150.105469 109.027344 148.992188 110.417969 C 149.203125 108.125 149.515625 108.089844 152.429688 107.882812 C 152.660156 107.882812 152.882812 107.835938 153.089844 107.742188 C 153.296875 107.652344 153.472656 107.511719 153.609375 107.328125 C 153.773438 107.164062 153.890625 106.980469 153.957031 106.769531 C 154.027344 106.539062 154.050781 106.308594 154.027344 106.078125 C 154.027344 105.890625 153.992188 105.71875 153.921875 105.554688 C 153.878906 105.394531 153.785156 105.242188 153.644531 105.105469 C 153.53125 104.964844 153.390625 104.847656 153.230469 104.757812 C 153.066406 104.664062 152.894531 104.617188 152.707031 104.617188 C 152.546875 104.59375 152.382812 104.570312 152.222656 104.546875 C 152.082031 104.546875 151.933594 104.546875 151.769531 104.546875 C 151.609375 104.527344 151.457031 104.515625 151.320312 104.515625 C 151.15625 104.515625 150.996094 104.515625 150.832031 104.515625 C 149.652344 104.480469 149.027344 103.890625 148.957031 102.707031 C 148.921875 102.152344 148.957031 101.5625 148.921875 101.007812 C 148.921875 100.796875 148.878906 100.589844 148.785156 100.382812 C 148.691406 100.195312 148.578125 100.035156 148.4375 99.894531 C 148.277344 99.734375 148.089844 99.617188 147.882812 99.546875 C 147.695312 99.480469 147.488281 99.445312 147.257812 99.445312 C 146.355469 99.515625 145.730469 100 145.660156 100.972656 C 145.589844 101.5625 145.660156 102.1875 145.589844 102.8125 C 145.519531 103.921875 144.894531 104.480469 143.785156 104.515625 C 143.621094 104.515625 143.472656 104.515625 143.332031 104.515625 C 143.171875 104.515625 143.007812 104.527344 142.847656 104.546875 C 142.707031 104.546875 142.558594 104.546875 142.394531 104.546875 C 142.234375 104.570312 142.082031 104.582031 141.945312 104.582031 C 141.875 104.605469 141.816406 104.617188 141.769531 104.617188 C 141.722656 104.617188 141.691406 104.628906 141.667969 104.652344 C 141.621094 104.675781 141.574219 104.6875 141.527344 104.6875 C 141.480469 104.710938 141.433594 104.734375 141.390625 104.757812 C 141.597656 103.96875 141.863281 103.207031 142.1875 102.464844 C 142.488281 101.703125 142.835938 100.972656 143.230469 100.277344 C 143.621094 99.558594 144.050781 98.878906 144.515625 98.230469 C 145 97.558594 145.507812 96.921875 146.042969 96.320312 C 146.203125 96.273438 146.355469 96.238281 146.492188 96.214844 C 146.632812 96.191406 146.78125 96.167969 146.945312 96.144531 C 147.082031 96.121094 147.234375 96.109375 147.394531 96.109375 C 147.535156 96.089844 147.683594 96.078125 147.847656 96.078125 C 150.242188 96.109375 151.910156 98.019531 152.429688 101.007812 C 155.972656 102.015625 157.5 103.578125 157.5 106.214844 Z M 157.5 106.214844 "/>
<path style=" stroke:none;fill-rule:nonzero;fill:rgb(19.607843%,36.862745%,39.215686%);fill-opacity:1;" d="M 122.847656 106.214844 C 124.398438 106.214844 125.9375 106.214844 127.464844 106.214844 C 128.644531 106.214844 129.410156 106.875 129.445312 107.847656 C 129.480469 108.890625 128.75 109.617188 127.535156 109.652344 C 124.410156 109.675781 121.285156 109.675781 118.160156 109.652344 C 116.945312 109.652344 116.214844 108.921875 116.25 107.847656 C 116.285156 106.804688 117.046875 106.214844 118.265625 106.179688 C 119.792969 106.179688 121.320312 106.191406 122.847656 106.214844 Z M 122.847656 106.214844 "/>
<path style=" stroke:none;fill-rule:nonzero;fill:rgb(19.607843%,36.862745%,39.215686%);fill-opacity:1;" d="M 122.847656 112.984375 C 123.507812 112.984375 124.203125 112.953125 124.859375 112.984375 C 125.9375 113.054688 126.703125 113.785156 126.703125 114.722656 C 126.703125 115.660156 125.9375 116.421875 124.859375 116.457031 C 123.519531 116.480469 122.164062 116.480469 120.796875 116.457031 C 119.722656 116.421875 118.992188 115.660156 118.992188 114.722656 C 118.992188 113.785156 119.722656 113.054688 120.796875 112.984375 C 121.492188 112.953125 122.152344 112.984375 122.847656 112.984375 Z M 122.847656 112.984375 "/>
<path style=" stroke:none;fill-rule:nonzero;fill:rgb(19.607843%,36.862745%,39.215686%);fill-opacity:1;" d="M 124.546875 101.109375 C 124.546875 101.527344 124.375 101.980469 124.0625 102.292969 C 123.75 102.640625 123.332031 102.8125 122.882812 102.847656 C 122.464844 102.847656 122.015625 102.671875 121.703125 102.359375 C 121.355469 102.082031 121.179688 101.632812 121.144531 101.214844 C 121.144531 100.765625 121.320312 100.3125 121.597656 100 C 121.910156 99.652344 122.359375 99.480469 122.777344 99.445312 C 123.230469 99.445312 123.679688 99.617188 123.992188 99.929688 C 124.339844 100.207031 124.515625 100.660156 124.546875 101.109375 Z M 124.546875 101.109375 "/>
<path style="fill-rule:evenodd;fill:rgb(19.607843%,36.862745%,39.215686%);fill-opacity:1;stroke-width:0.6;stroke-linecap:butt;stroke-linejoin:miter;stroke:rgb(19.607843%,36.862745%,39.215686%);stroke-opacity:1;stroke-miterlimit:4;" d="M 532.5975 350.69625 C 532.13625 351.37125 531.59625 351.93375 531 352.395 C 530.40375 352.935 529.72875 353.3625 528.9975 353.7 C 528.26625 354.0375 527.50125 354.29625 526.7025 354.49875 C 525.97125 354.63375 525.195 354.70125 524.39625 354.70125 C 517.7025 354.6 511.09875 354.70125 504.405 354.6 C 504.0675 354.6 503.76375 354.63375 503.505 354.70125 C 503.1675 354.76875 502.86375 354.87 502.605 355.005 C 502.2675 355.12875 501.9975 355.2975 501.795 355.5 C 501.53625 355.7025 501.3 355.93875 501.0975 356.1975 C 500.29875 357.26625 499.39875 358.30125 498.3975 359.3025 C 497.39625 360.23625 496.36125 361.1025 495.30375 361.90125 C 494.1675 362.7 492.9975 363.43125 491.805 364.095 C 490.60125 364.77 489.36375 365.36625 488.10375 365.895 C 487.96875 364.7025 487.83375 363.49875 487.69875 362.295 C 488.565 361.96875 489.43125 361.53 490.2975 361.00125 C 491.16375 360.52875 491.99625 360.03375 492.795 359.505 C 493.605 358.8975 494.37 358.30125 495.10125 357.705 C 495.8325 357.03 496.49625 356.3325 497.10375 355.60125 C 497.9025 354.8025 498.63375 353.97 499.2975 353.10375 C 499.96125 352.17 500.56875 351.23625 501.0975 350.3025 C 501.6375 349.30125 502.1325 348.3 502.605 347.29875 C 502.99875 346.2975 503.33625 345.22875 503.595 344.10375 L 471.8025 343.5975 C 471.70125 343.00125 471.70125 342.495 471.6 341.89875 C 471.5325 341.3025 471.465 340.695 471.3975 340.09875 L 504.30375 340.605 C 504.43875 340.2675 504.52875 339.93 504.59625 339.60375 C 504.59625 339.19875 504.63 338.83875 504.6975 338.50125 C 504.6975 338.09625 504.6975 337.73625 504.6975 337.39875 C 504.6975 337.005 504.6975 336.63375 504.6975 336.29625 C 504.30375 324.10125 498.49875 315.405 487.305 310.39875 C 483.89625 308.80125 482.09625 306.405 482.09625 302.50125 C 482.09625 299.39625 482.09625 296.40375 482.09625 293.1975 L 472.905 293.1975 C 472.7025 292.87125 472.46625 292.5675 472.19625 292.2975 C 471.9375 292.03875 471.6675 291.76875 471.3975 291.49875 C 471.13875 291.16125 470.9025 290.86875 470.7 290.59875 C 470.43 290.32875 470.17125 290.07 469.90125 289.8 C 469.96875 289.8 470.03625 289.8 470.10375 289.8 C 470.23875 289.7325 470.32875 289.69875 470.39625 289.69875 C 470.53125 289.69875 470.6325 289.69875 470.7 289.69875 C 470.835 289.63125 470.93625 289.5975 471.00375 289.5975 C 474.705 289.5975 478.305 289.5975 481.905 289.5975 C 482.43375 289.5975 482.92875 289.69875 483.40125 289.90125 C 483.795 290.03625 484.2 290.295 484.605 290.7 C 484.93125 291.0375 485.1675 291.43125 485.3025 291.90375 C 485.505 292.365 485.56125 292.8375 485.505 293.29875 C 485.505 296.4375 485.505 299.565 485.505 302.70375 C 485.505 303.165 485.56125 303.6375 485.69625 304.09875 C 485.76375 304.57125 485.9325 304.99875 486.2025 305.40375 C 486.46125 305.7975 486.79875 306.135 487.20375 306.405 C 487.53 306.66375 487.935 306.9 488.39625 307.1025 C 489.2625 307.42875 490.095 307.8 490.905 308.205 C 491.77125 308.66625 492.60375 309.16125 493.4025 309.70125 C 494.20125 310.1625 494.96625 310.7025 495.6975 311.29875 C 496.49625 311.83875 497.23875 312.435 497.9025 313.09875 C 497.97 313.09875 498.00375 313.1325 498.00375 313.2 C 498.07125 313.2 498.105 313.2 498.105 313.2 C 498.16125 313.2675 498.195 313.30125 498.195 313.30125 C 498.2625 313.36875 498.29625 313.4025 498.29625 313.4025 C 499.095 311.805 499.80375 310.19625 500.6025 308.7 C 500.99625 307.96875 501.33375 307.2375 501.60375 306.495 C 501.8625 305.76375 502.065 305.0325 502.2 304.30125 C 502.4025 303.5025 502.5375 302.7375 502.605 301.995 C 502.66125 301.19625 502.66125 300.3975 502.605 299.59875 C 502.50375 285.19875 502.605 270.6975 502.605 256.2975 C 502.605 255.97125 502.605 255.63375 502.605 255.29625 C 502.605 254.7675 502.66125 254.295 502.79625 253.90125 C 502.99875 253.49625 503.26875 253.13625 503.595 252.79875 C 503.9325 252.46125 504.3375 252.2025 504.79875 252 C 505.20375 251.7975 505.63125 251.69625 506.10375 251.69625 C 508.7025 251.69625 511.2675 251.69625 513.79875 251.69625 C 514.27125 251.69625 514.7325 251.7975 515.205 252 C 515.59875 252.135 515.97 252.37125 516.29625 252.6975 C 516.63375 252.9675 516.90375 253.33875 517.095 253.8 C 517.2975 254.205 517.4325 254.6325 517.5 255.105 C 517.5 255.49875 517.5 255.90375 517.5 256.2975 C 517.5 271.69875 517.5 287.1 517.5 302.50125 C 517.5 302.83875 517.5 303.13125 517.5 303.40125 C 517.5675 303.73875 517.60125 304.03125 517.60125 304.30125 C 517.66875 304.63875 517.77 304.93125 517.905 305.20125 C 517.96125 305.47125 518.0625 305.73 518.1975 306 C 523.395 317.07 528.60375 328.12875 533.80125 339.19875 C 535.7025 343.305 535.39875 347.1975 532.5975 350.69625 Z M 530.505 347.895 C 530.89875 347.16375 531.2025 346.39875 531.405 345.6 C 531.59625 344.80125 531.63 344.0025 531.495 343.20375 C 531.37125 342.405 531.135 341.62875 530.7975 340.8975 C 528.13125 335.23875 525.49875 329.6025 522.9 324 C 522.765 323.73 522.63 323.505 522.495 323.3025 L 512.1 323.3025 C 510.705 323.3025 509.99625 322.695 509.99625 321.60375 C 509.99625 320.50125 510.705 319.905 512.1 319.905 L 520.8975 319.905 C 520.695 319.2975 520.605 319.005 520.4025 318.70125 C 518.70375 315 517.005 311.29875 515.295 307.69875 C 515.10375 307.305 514.90125 306.86625 514.69875 306.405 C 514.56375 305.9325 514.42875 305.47125 514.305 304.99875 C 514.2375 304.5375 514.17 304.065 514.1025 303.60375 C 514.035 303.13125 514.00125 302.67 514.00125 302.1975 C 514.00125 286.99875 514.00125 270.405 514.00125 255.195 L 506.0025 255.195 L 506.0025 256.60125 C 505.935 271.935 505.935 287.26875 506.0025 302.6025 C 506.0025 302.99625 505.96875 303.40125 505.90125 303.795 C 505.90125 304.2 505.83375 304.605 505.69875 304.99875 C 505.63125 305.40375 505.53 305.7975 505.395 306.2025 C 505.27125 306.59625 505.1025 307.00125 504.9 307.395 C 503.69625 309.90375 502.50375 312.60375 501.3 315.2025 C 501.0975 315.495 500.99625 315.79875 500.895 316.1025 C 509.1975 327.105 510.3 338.70375 504.59625 351.10125 C 504.59625 351.10125 504.63 351.10125 504.6975 351.10125 C 504.6975 351.16875 504.73125 351.2025 504.79875 351.2025 C 504.79875 351.2025 504.8325 351.2025 504.9 351.2025 C 504.9 351.2025 504.93375 351.2025 505.00125 351.2025 C 511.66125 351.2025 518.29875 351.2025 524.9025 351.2025 C 525.29625 351.2025 525.6675 351.16875 526.005 351.10125 C 526.33125 351.03375 526.7025 350.9325 527.09625 350.7975 C 527.43375 350.6625 527.7375 350.505 527.99625 350.3025 C 528.33375 350.1 528.6375 349.8975 528.89625 349.695 C 529.57125 349.16625 530.1 348.57 530.505 347.895 Z M 530.505 347.895 " transform="matrix(0.347222,0,0,0.347222,0,0)"/>
<path style="fill-rule:nonzero;fill:rgb(19.607843%,36.862745%,39.215686%);fill-opacity:1;stroke-width:0.6;stroke-linecap:butt;stroke-linejoin:miter;stroke:rgb(19.607843%,36.862745%,39.215686%);stroke-opacity:1;stroke-miterlimit:4;" d="M 470.9025 293.09625 C 470.9025 293.63625 470.9025 294.13125 470.9025 294.60375 C 470.80125 297.79875 470.9025 300.90375 470.7 303.9975 C 470.7675 304.2675 470.7675 304.50375 470.7 304.695 C 470.7 304.965 470.66625 305.235 470.59875 305.505 C 470.53125 305.69625 470.46375 305.89875 470.39625 306.10125 C 470.26125 306.37125 470.1375 306.59625 470.0025 306.79875 C 469.8675 306.405 469.69875 306.03375 469.49625 305.69625 C 469.305 305.37 469.1025 304.99875 468.9 304.605 C 468.6975 304.2675 468.495 303.93 468.30375 303.60375 C 468.10125 303.26625 467.865 302.895 467.595 302.50125 C 467.595 299.39625 467.40375 296.69625 467.40375 293.50125 C 467.40375 293.23125 467.40375 292.96125 467.40375 292.7025 C 467.47125 292.4325 467.53875 292.1625 467.595 291.90375 C 467.73 291.63375 467.865 291.3975 468 291.195 C 468.2025 290.93625 468.37125 290.7 468.495 290.4975 C 468.63 290.43 468.73125 290.3625 468.79875 290.295 C 468.93375 290.23875 469.035 290.17125 469.1025 290.10375 C 469.2375 290.03625 469.36125 289.96875 469.49625 289.90125 C 469.56375 289.83375 469.665 289.8 469.8 289.8 C 470.07 290.07 470.32875 290.32875 470.59875 290.59875 C 470.86875 290.86875 471.13875 291.13875 471.3975 291.3975 C 471.6675 291.6675 471.9375 291.9375 472.19625 292.19625 C 472.39875 292.53375 472.635 292.8375 472.905 293.09625 Z M 470.9025 293.09625 " transform="matrix(0.347222,0,0,0.347222,0,0)"/>
<path style="fill-rule:evenodd;fill:rgb(19.607843%,36.862745%,39.215686%);fill-opacity:1;stroke-width:0.6;stroke-linecap:butt;stroke-linejoin:miter;stroke:rgb(19.607843%,36.862745%,39.215686%);stroke-opacity:1;stroke-miterlimit:4;" d="M 493.2 279.79875 C 497.4975 280.1025 499.80375 282.29625 499.60125 285.795 C 499.60125 286.5375 499.4325 287.235 499.095 287.89875 C 498.76875 288.5625 498.33 289.13625 497.80125 289.5975 C 497.26125 290.1375 496.665 290.53125 496.00125 290.80125 C 495.3375 291.07125 494.62875 291.16125 493.8975 291.105 C 490.39875 291.105 488.4975 288.59625 488.39625 283.905 C 484.99875 285.0975 481.7025 284.805 478.8 282.6 C 478.395 282.2625 478.00125 281.93625 477.59625 281.59875 C 477.27 281.205 476.9325 280.8 476.595 280.395 C 476.33625 279.93375 476.1 279.46125 475.8975 279 C 475.63875 278.53875 475.43625 278.06625 475.30125 277.605 C 474.705 275.6025 474.795 273.3975 475.50375 271.395 C 476.20125 269.505 477.495 267.795 479.295 266.6025 C 481.005 265.5 483.0975 264.90375 485.20125 265.005 C 487.305 265.095 489.29625 265.905 490.905 267.19875 C 493.79625 269.595 496.00125 274.19625 493.2 279.79875 Z M 490.995 274.80375 C 490.995 273.9375 490.87125 273.13875 490.60125 272.39625 C 490.26375 271.5975 489.8025 270.9 489.195 270.30375 C 488.59875 269.69625 487.935 269.235 487.20375 268.8975 C 486.405 268.57125 485.56125 268.4025 484.695 268.4025 C 482.99625 268.4025 481.39875 269.1 480.195 270.30375 C 479.10375 271.49625 478.395 273.105 478.395 274.80375 C 478.395 276.5025 479.10375 278.1 480.195 279.30375 C 481.39875 280.49625 482.99625 281.10375 484.695 281.10375 C 485.56125 281.10375 486.405 280.96875 487.20375 280.69875 C 487.935 280.36125 488.59875 279.9 489.195 279.30375 C 489.8025 278.69625 490.26375 277.99875 490.60125 277.2 C 490.87125 276.46875 490.995 275.67 490.995 274.80375 Z M 496.20375 285.5025 C 496.20375 284.895 496.00125 284.29875 495.59625 283.905 C 495.2025 283.5 494.595 283.19625 493.99875 283.19625 C 493.4025 283.19625 492.795 283.5 492.40125 283.905 C 491.99625 284.29875 491.805 284.895 491.805 285.5025 C 491.805 285.82875 491.86125 286.1325 491.99625 286.4025 C 492.06375 286.605 492.19875 286.83 492.40125 287.1 C 492.60375 287.3025 492.82875 287.4375 493.09875 287.505 C 493.36875 287.62875 493.63875 287.69625 493.8975 287.69625 C 494.235 287.69625 494.53875 287.6625 494.7975 287.595 C 495.0675 287.47125 495.3375 287.3025 495.59625 287.1 C 495.79875 286.8975 495.93375 286.66125 496.00125 286.4025 C 496.13625 286.1325 496.20375 285.82875 496.20375 285.5025 Z M 496.20375 285.5025 " transform="matrix(0.347222,0,0,0.347222,0,0)"/>
<path style="fill-rule:nonzero;fill:rgb(19.607843%,36.862745%,39.215686%);fill-opacity:1;stroke-width:0.6;stroke-linecap:butt;stroke-linejoin:miter;stroke:rgb(19.607843%,36.862745%,39.215686%);stroke-opacity:1;stroke-miterlimit:4;" d="M 479.205 323.7975 C 479.205 324.27 479.1375 324.73125 479.0025 325.20375 C 478.935 325.665 478.76625 326.10375 478.49625 326.4975 C 478.305 326.9025 478.035 327.2625 477.6975 327.6 C 477.37125 327.9375 477.03375 328.23 476.69625 328.5 C 476.4375 328.635 476.1675 328.77 475.8975 328.905 C 475.63875 329.02875 475.36875 329.13 475.09875 329.1975 C 474.82875 329.265 474.57 329.3325 474.3 329.4 C 474.03 329.4 473.77125 329.4 473.50125 329.4 C 473.43375 329.4 473.36625 329.4 473.29875 329.4 C 473.23125 329.4 473.16375 329.4 473.09625 329.4 C 473.09625 329.4 473.0625 329.4 472.995 329.4 C 472.93875 329.4 472.87125 329.4 472.80375 329.4 C 472.80375 328.19625 472.80375 327.0375 472.80375 325.90125 C 472.87125 325.90125 472.93875 325.90125 472.995 325.90125 C 473.0625 325.96875 473.09625 326.0025 473.09625 326.0025 C 473.16375 326.0025 473.23125 326.0025 473.29875 326.0025 C 473.36625 326.0025 473.43375 326.0025 473.50125 326.0025 C 473.83875 326.0025 474.13125 325.96875 474.40125 325.90125 C 474.60375 325.76625 474.82875 325.5975 475.09875 325.395 C 475.30125 325.20375 475.43625 324.9675 475.50375 324.6975 C 475.63875 324.43875 475.695 324.16875 475.695 323.89875 C 475.7625 323.62875 475.72875 323.33625 475.605 322.99875 C 475.47 322.72875 475.30125 322.50375 475.09875 322.30125 C 474.89625 322.09875 474.67125 321.93 474.40125 321.795 C 474.13125 321.73875 473.86125 321.67125 473.6025 321.60375 C 473.4675 321.60375 473.36625 321.6375 473.29875 321.705 C 473.16375 321.705 473.0625 321.705 472.995 321.705 C 472.87125 321.76125 472.77 321.795 472.7025 321.795 C 472.5675 321.8625 472.46625 321.93 472.39875 321.9975 C 472.33125 321.73875 472.2975 321.5025 472.2975 321.3 C 472.23 321.03 472.1625 320.805 472.095 320.6025 C 472.095 320.3325 472.06125 320.09625 472.005 319.905 C 471.9375 319.635 471.87 319.39875 471.8025 319.19625 C 471.8025 319.12875 471.8025 319.06125 471.8025 319.005 C 471.735 318.9375 471.70125 318.90375 471.70125 318.90375 C 471.70125 318.83625 471.6675 318.76875 471.6 318.70125 C 471.6 318.63375 471.56625 318.56625 471.49875 318.49875 C 471.70125 318.43125 471.87 318.3975 472.005 318.3975 C 472.19625 318.33 472.365 318.29625 472.5 318.29625 C 472.7025 318.22875 472.905 318.195 473.09625 318.195 C 473.23125 318.195 473.4 318.195 473.6025 318.195 C 473.7375 318.195 473.895 318.195 474.0975 318.195 C 474.2325 318.195 474.3675 318.22875 474.5025 318.29625 C 474.705 318.29625 474.8625 318.33 474.9975 318.3975 C 475.1325 318.3975 475.2675 318.43125 475.4025 318.49875 C 475.99875 318.70125 476.53875 319.005 477 319.39875 C 477.46125 319.73625 477.86625 320.13 478.20375 320.6025 C 478.53 321.06375 478.76625 321.57 478.90125 322.09875 C 479.10375 322.695 479.205 323.26875 479.205 323.7975 Z M 479.205 323.7975 " transform="matrix(0.347222,0,0,0.347222,0,0)"/>
<path style="fill-rule:evenodd;fill:rgb(19.607843%,36.862745%,39.215686%);fill-opacity:1;stroke-width:0.6;stroke-linecap:butt;stroke-linejoin:miter;stroke:rgb(19.607843%,36.862745%,39.215686%);stroke-opacity:1;stroke-miterlimit:4;" d="M 481.005 256.995 C 481.005 257.7375 480.87 258.435 480.6 259.09875 C 480.33 259.83 479.93625 260.47125 479.39625 261 C 478.8675 261.52875 478.27125 261.93375 477.59625 262.20375 C 476.865 262.4625 476.13375 262.5975 475.4025 262.5975 C 473.09625 262.69875 471.00375 261.30375 470.10375 259.2 C 469.20375 257.09625 469.69875 254.7 471.29625 253.00125 C 472.905 251.40375 475.4025 250.8975 477.495 251.69625 C 479.59875 252.59625 481.005 254.7 481.005 256.995 Z M 473.1975 256.995 C 473.1975 257.265 473.23125 257.535 473.29875 257.805 C 473.43375 258.06375 473.6025 258.33375 473.805 258.60375 C 473.99625 258.795 474.2325 258.93 474.5025 258.9975 C 474.76125 259.1325 475.065 259.2 475.4025 259.2 C 475.66125 259.2 475.93125 259.16625 476.20125 259.09875 C 476.47125 258.96375 476.73 258.795 477 258.60375 C 477.2025 258.33375 477.3375 258.06375 477.405 257.805 C 477.52875 257.535 477.59625 257.265 477.59625 256.995 C 477.59625 256.66875 477.52875 256.39875 477.405 256.19625 C 477.3375 255.9375 477.2025 255.70125 477 255.49875 C 476.7975 255.22875 476.56125 255.07125 476.3025 255.00375 C 476.0325 254.86875 475.7625 254.80125 475.50375 254.80125 C 475.16625 254.73375 474.8625 254.7675 474.60375 254.9025 C 474.33375 254.97 474.0975 255.13875 473.895 255.3975 C 473.63625 255.6 473.4675 255.83625 473.4 256.095 C 473.265 256.365 473.1975 256.635 473.1975 256.905 Z M 473.1975 256.995 " transform="matrix(0.347222,0,0,0.347222,0,0)"/>
<path style="fill-rule:evenodd;fill:rgb(19.607843%,36.862745%,39.215686%);fill-opacity:1;stroke-width:0.6;stroke-linecap:butt;stroke-linejoin:miter;stroke:rgb(19.607843%,36.862745%,39.215686%);stroke-opacity:1;stroke-miterlimit:4;" d="M 470.0025 271.305 C 468.2025 271.305 466.50375 270.2025 465.795 268.4025 C 465.0975 266.70375 465.5025 264.70125 466.79625 263.39625 C 468.2025 262.1025 470.10375 261.6975 471.90375 262.49625 C 473.6025 263.205 474.705 264.90375 474.705 266.70375 C 474.705 267.3675 474.57 267.96375 474.3 268.50375 C 474.03 269.0325 473.70375 269.53875 473.29875 270 C 472.8375 270.405 472.33125 270.73125 471.8025 271.00125 C 471.195 271.20375 470.59875 271.305 470.0025 271.305 Z M 470.10375 265.5 C 469.96875 265.5 469.8 265.53375 469.5975 265.60125 C 469.4625 265.66875 469.36125 265.73625 469.305 265.80375 C 469.17 265.93875 469.06875 266.0625 469.00125 266.1975 C 468.93375 266.3325 468.9 266.4675 468.9 266.6025 C 468.9 266.805 468.9 266.9625 468.9 267.0975 C 468.9675 267.2325 469.06875 267.3675 469.20375 267.5025 C 469.27125 267.6375 469.395 267.73875 469.5975 267.795 C 469.7325 267.8625 469.8675 267.89625 470.0025 267.89625 C 470.205 267.89625 470.3625 267.8625 470.4975 267.795 C 470.6325 267.73875 470.7675 267.67125 470.9025 267.60375 C 471.0375 267.46875 471.13875 267.33375 471.195 267.19875 C 471.195 266.99625 471.195 266.83875 471.195 266.70375 C 471.195 266.56875 471.195 266.4 471.195 266.1975 C 471.13875 266.0625 471.0375 265.96125 470.9025 265.905 C 470.835 265.77 470.7 265.66875 470.4975 265.60125 C 470.3625 265.53375 470.23875 265.5 470.10375 265.5 Z M 470.10375 265.5 " transform="matrix(0.347222,0,0,0.347222,0,0)"/>
<path style=" stroke:none;fill-rule:nonzero;fill:rgb(19.607843%,36.862745%,39.215686%);fill-opacity:1;" d="M 158.542969 90.105469 L 159.617188 91.25 L 159.097656 96.320312 L 158.542969 96.109375 C 158.496094 95.972656 158.4375 95.84375 158.367188 95.730469 C 158.296875 95.589844 158.230469 95.464844 158.160156 95.347656 C 158.089844 95.230469 158.019531 95.105469 157.953125 94.964844 C 157.882812 94.847656 157.800781 94.734375 157.707031 94.617188 C 157.152344 93.855469 157.152344 90.105469 157.152344 90.105469 Z M 158.542969 90.105469 "/>
<path style="fill-rule:nonzero;fill:rgb(19.607843%,36.862745%,39.215686%);fill-opacity:1;stroke-width:0.6;stroke-linecap:butt;stroke-linejoin:miter;stroke:rgb(19.607843%,36.862745%,39.215686%);stroke-opacity:1;stroke-miterlimit:4;" d="M 488.10375 365.805 C 487.035 366.26625 486 366.67125 484.99875 366.9975 C 483.93 367.4025 482.86125 367.7625 481.80375 368.1 C 480.735 368.4375 479.6325 368.73 478.49625 369 C 477.43875 369.2025 476.37 369.405 475.30125 369.59625 L 475.8975 365.70375 C 479.295 365.895 487.69875 362.295 487.69875 362.295 Z M 488.10375 365.805 " transform="matrix(0.347222,0,0,0.347222,0,0)"/>
</g>
</svg>
