<?xml version="1.0" encoding="UTF-8"?>
<svg xmlns="http://www.w3.org/2000/svg" xmlns:xlink="http://www.w3.org/1999/xlink" width="250px" height="250px" viewBox="0 0 250 250" version="1.1">
<g id="surface1">
<path style="fill-rule:nonzero;fill:rgb(19.607843%,36.862745%,39.215686%);fill-opacity:1;stroke-width:0.6;stroke-linecap:butt;stroke-linejoin:miter;stroke:rgb(19.607843%,36.862745%,39.215686%);stroke-opacity:1;stroke-miterlimit:4;" d="M 608.4 188.595 L 608.4 502.8975 C 608.4 506.205 607.80375 509.6025 606.49875 512.69625 C 605.205 515.80125 603.30375 518.6025 600.89625 520.99875 C 598.5 523.395 595.69875 525.29625 592.605 526.5 C 589.5 527.805 586.20375 528.5025 582.795 528.5025 L 137.59875 528.5025 C 134.20125 528.5025 130.905 527.805 127.8 526.5 C 124.695 525.29625 121.905 523.395 119.4975 520.99875 C 117.10125 518.6025 115.2 515.80125 113.99625 512.69625 C 112.7025 509.6025 112.005 506.295 112.005 502.8975 L 112.005 188.595 C 112.005 185.1975 112.7025 181.90125 113.99625 178.79625 C 115.30125 175.7025 117.10125 172.90125 119.4975 170.505 C 121.905 168.19875 124.695 166.2975 127.8 165.00375 C 130.905 163.69875 134.20125 163.00125 137.59875 163.00125 L 177.0975 163.00125 L 177.0975 177.9975 L 137.59875 177.9975 C 136.20375 177.9975 134.7975 178.2 133.50375 178.79625 C 132.19875 179.3025 130.995 180.10125 130.005 181.1025 C 129.105 182.10375 128.295 183.29625 127.69875 184.60125 C 127.20375 185.895 126.9 187.2 126.9 188.595 L 126.9 502.8975 C 126.9 504.30375 127.20375 505.69875 127.69875 507.00375 C 128.295 508.2975 129.00375 509.4 130.005 510.40125 C 130.995 511.4025 132.19875 512.20125 133.50375 512.7975 C 134.7975 513.30375 136.20375 513.59625 137.59875 513.59625 L 582.795 513.59625 C 584.20125 513.59625 585.59625 513.30375 586.90125 512.7975 C 588.195 512.20125 589.39875 511.4025 590.4 510.5025 C 591.40125 509.50125 592.09875 508.2975 592.695 507.00375 C 593.20125 505.69875 593.505 504.30375 593.505 502.8975 L 593.505 188.595 C 593.505 187.2 593.20125 185.805 592.695 184.5 C 592.09875 183.195 591.3 182.10375 590.29875 181.1025 C 589.39875 180.10125 588.195 179.3025 586.90125 178.79625 C 585.59625 178.2 584.20125 177.9975 582.795 177.9975 L 530.89875 177.9975 L 530.89875 163.00125 L 582.795 163.00125 C 586.1025 163.00125 589.5 163.69875 592.605 165.00375 C 595.69875 166.2975 598.5 168.0975 600.89625 170.505 C 603.30375 172.90125 605.10375 175.7025 606.3975 178.79625 C 607.7025 181.90125 608.4 185.1975 608.4 188.595 Z M 608.4 188.595 " transform="matrix(0.347222,0,0,0.347222,0,0)"/>
<path style="fill-rule:nonzero;fill:rgb(19.607843%,36.862745%,39.215686%);fill-opacity:1;stroke-width:0.6;stroke-linecap:butt;stroke-linejoin:miter;stroke:rgb(19.607843%,36.862745%,39.215686%);stroke-opacity:1;stroke-miterlimit:4;" d="M 582.5025 203.09625 L 582.5025 452.4975 L 137.9025 452.4975 L 137.9025 203.09625 L 174.00375 203.4 L 174.00375 218.295 L 152.89875 218.10375 L 152.89875 437.6025 L 189.405 437.6025 L 189.405 440.595 L 546.19875 440.595 L 546.19875 437.6025 L 567.495 437.6025 L 567.495 218.10375 L 530.89875 218.10375 L 530.89875 203.09625 Z M 582.5025 203.09625 " transform="matrix(0.347222,0,0,0.347222,0,0)"/>
<path style="fill-rule:evenodd;fill:rgb(19.607843%,36.862745%,39.215686%);fill-opacity:1;stroke-width:0.6;stroke-linecap:butt;stroke-linejoin:miter;stroke:rgb(19.607843%,36.862745%,39.215686%);stroke-opacity:1;stroke-miterlimit:4;" d="M 440.40375 603.10125 L 280.00125 603.10125 C 278.69625 603.10125 277.30125 602.69625 276.19875 601.99875 C 274.995 601.30125 274.005 600.3 273.3975 599.09625 C 272.80125 597.90375 272.4975 596.4975 272.59875 595.1025 C 272.7 593.7975 273.105 592.50375 273.90375 591.3 L 276.5025 587.59875 C 290.9025 567.2025 297.2025 544.39875 294.9975 521.7975 C 294.89625 520.79625 294.9975 519.705 295.30125 518.70375 C 295.605 517.7025 296.20125 516.8025 296.89875 516.105 C 297.59625 515.295 298.395 514.69875 299.39625 514.20375 C 300.29625 513.79875 301.39875 513.59625 302.4 513.59625 L 418.005 513.59625 C 419.09625 513.59625 420.0975 513.79875 421.09875 514.20375 C 421.99875 514.69875 422.89875 515.295 423.59625 516.00375 C 424.305 516.8025 424.8 517.7025 425.10375 518.70375 C 425.4975 519.705 425.59875 520.79625 425.4975 521.7975 C 423.2025 544.39875 429.60375 567.2025 443.9025 587.59875 L 446.50125 591.3 C 447.3 592.50375 447.795 593.7975 447.89625 595.1025 C 447.9975 596.4975 447.705 597.90375 446.99625 599.09625 C 446.4 600.3 445.39875 601.30125 444.29625 601.99875 C 443.10375 602.69625 441.79875 603.10125 440.40375 603.10125 Z M 310.2975 528.5025 C 310.80375 549 305.20125 569.39625 293.895 588.195 L 426.3975 588.195 C 415.20375 569.39625 409.60125 549 409.995 528.5025 Z M 310.2975 528.5025 " transform="matrix(0.347222,0,0,0.347222,0,0)"/>
<path style="fill-rule:evenodd;fill:rgb(19.607843%,36.862745%,39.215686%);fill-opacity:1;stroke-width:0.6;stroke-linecap:butt;stroke-linejoin:miter;stroke:rgb(19.607843%,36.862745%,39.215686%);stroke-opacity:1;stroke-miterlimit:4;" d="M 459.79875 636.705 L 260.595 636.705 C 254.205 636.705 247.995 634.095 243.495 629.595 C 238.995 625.005 236.39625 618.795 236.39625 612.405 C 236.39625 606.00375 238.995 599.805 243.495 595.305 C 247.995 590.70375 254.205 588.195 260.595 588.195 L 459.79875 588.195 C 466.2 588.195 472.39875 590.70375 476.89875 595.305 C 481.5 599.805 483.9975 606.00375 483.9975 612.405 C 483.9975 618.795 481.5 625.005 476.89875 629.595 C 472.39875 634.095 466.2 636.705 459.79875 636.705 Z M 260.595 603.10125 C 258.19875 603.10125 255.8025 604.1025 254.0025 605.80125 C 252.30375 607.60125 251.3025 609.89625 251.3025 612.405 C 251.3025 614.9025 252.30375 617.29875 254.0025 618.9975 C 255.8025 620.7975 258.19875 621.6975 260.595 621.6975 L 459.79875 621.6975 C 462.29625 621.6975 464.6025 620.7975 466.4025 618.9975 C 468.10125 617.29875 469.1025 614.9025 469.1025 612.405 C 469.1025 609.89625 468.10125 607.60125 466.4025 605.80125 C 464.6025 604.1025 462.29625 603.10125 459.79875 603.10125 Z M 260.595 603.10125 " transform="matrix(0.347222,0,0,0.347222,0,0)"/>
<path style="fill-rule:nonzero;fill:rgb(19.607843%,36.862745%,39.215686%);fill-opacity:1;stroke-width:0.6;stroke-linecap:butt;stroke-linejoin:miter;stroke:rgb(19.607843%,36.862745%,39.215686%);stroke-opacity:1;stroke-miterlimit:4;" d="M 174.00375 203.1975 L 530.89875 203.1975 L 530.89875 218.205 L 174.00375 218.205 Z M 174.00375 203.1975 " transform="matrix(0.347222,0,0,0.347222,0,0)"/>
<path style="fill-rule:nonzero;fill:rgb(19.607843%,36.862745%,39.215686%);fill-opacity:1;stroke-width:0.6;stroke-linecap:butt;stroke-linejoin:miter;stroke:rgb(19.607843%,36.862745%,39.215686%);stroke-opacity:1;stroke-miterlimit:4;" d="M 177.0975 177.89625 L 177.0975 163.00125 L 531 163.00125 L 530.89875 177.89625 Z M 177.0975 177.89625 " transform="matrix(0.347222,0,0,0.347222,0,0)"/>
<path style=" stroke:none;fill-rule:evenodd;fill:rgb(19.607843%,36.862745%,39.215686%);fill-opacity:1;" d="M 75.453125 131.179688 C 75.730469 129.269531 76.007812 127.359375 76.25 125.453125 C 77.015625 118.992188 77.742188 112.570312 78.507812 106.109375 C 78.855469 103.195312 79.027344 100.171875 79.6875 97.328125 C 81.390625 90.035156 88.367188 84.617188 96.007812 84.582031 C 115.382812 84.535156 134.757812 84.535156 154.132812 84.582031 C 162.222656 84.617188 169.339844 90.484375 170.730469 98.332031 C 171.421875 102.328125 171.703125 106.390625 172.1875 110.417969 C 172.953125 116.804688 173.644531 123.195312 174.445312 129.546875 C 174.859375 132.953125 174.894531 136.320312 173.472656 139.515625 C 169.652344 148.195312 158.054688 149.339844 152.394531 141.527344 C 151.320312 140.070312 150.589844 138.332031 149.964844 136.632812 C 148.921875 133.855469 148.089844 131.007812 147.117188 128.230469 C 147.015625 127.882812 146.632812 127.640625 146.285156 127.222656 C 144.582031 131.355469 142.046875 133.332031 138.609375 133.296875 C 134.722656 133.230469 132.257812 131.144531 130.9375 127.535156 L 119.234375 127.535156 C 117.8125 131.320312 115.171875 133.507812 111.042969 133.265625 C 107.5 133.019531 105.207031 130.9375 103.921875 127.222656 C 103.542969 127.671875 103.160156 127.917969 103.054688 128.265625 C 101.875 131.597656 100.902344 134.964844 99.652344 138.230469 C 96.945312 145.453125 88.921875 148.785156 82.328125 145.519531 C 78.402344 143.542969 76.421875 140.171875 75.660156 135.972656 C 75.636719 135.902344 75.625 135.84375 75.625 135.796875 C 75.601562 135.730469 75.578125 135.671875 75.554688 135.625 C 75.554688 135.554688 75.542969 135.496094 75.519531 135.453125 C 75.496094 135.382812 75.472656 135.3125 75.453125 135.242188 Z M 110.453125 88.542969 L 109.546875 88.542969 C 104.964844 88.542969 100.382812 88.507812 95.796875 88.542969 C 90.382812 88.542969 84.828125 92.640625 83.644531 97.917969 C 82.777344 101.734375 82.535156 105.695312 82.046875 109.617188 C 81.285156 116.007812 80.519531 122.429688 79.792969 128.820312 C 79.515625 131.25 79.132812 133.679688 79.6875 136.144531 C 80.832031 140.9375 84.964844 143.714844 89.617188 142.605469 C 93.160156 141.734375 95.242188 139.269531 96.355469 135.902344 C 97.535156 132.394531 98.714844 128.890625 99.859375 125.347656 C 100.242188 124.0625 101.042969 123.507812 102.328125 123.542969 C 102.917969 123.578125 103.472656 123.542969 103.992188 123.542969 C 105.277344 119.964844 107.640625 117.847656 111.320312 117.742188 C 115.347656 117.640625 117.882812 119.828125 119.203125 123.507812 L 130.9375 123.507812 C 132.222656 119.929688 134.652344 117.8125 138.4375 117.742188 C 142.328125 117.671875 144.828125 119.859375 146.144531 123.542969 L 147.429688 123.542969 C 149.445312 123.542969 149.792969 123.820312 150.417969 125.695312 C 151.667969 129.410156 152.8125 133.125 154.167969 136.804688 C 155.902344 141.5625 160.765625 143.957031 165.207031 142.394531 C 168.921875 141.078125 171.285156 136.839844 170.730469 132.328125 C 169.515625 121.597656 168.089844 110.9375 167.046875 100.207031 C 166.457031 94.027344 160.382812 88.367188 153.890625 88.507812 C 149.546875 88.609375 145.171875 88.507812 140.796875 88.507812 L 139.722656 88.507812 C 139.722656 90.035156 139.722656 91.421875 139.722656 92.8125 C 139.6875 94.929688 139.757812 97.015625 139.582031 99.097656 C 139.375 101.769531 136.875 103.957031 134.234375 104.0625 C 132.847656 104.097656 131.980469 103.4375 131.875 102.292969 C 131.804688 101.144531 132.570312 100.347656 133.921875 100.171875 C 134.929688 100.035156 135.695312 99.515625 135.730469 98.472656 C 135.796875 95.207031 135.730469 91.910156 135.730469 88.578125 L 114.515625 88.578125 C 114.445312 88.679688 114.410156 88.714844 114.410156 88.785156 C 114.410156 91.703125 114.398438 94.605469 114.375 97.5 C 114.375 99.445312 114.6875 99.828125 116.632812 100.207031 C 116.863281 100.253906 117.082031 100.335938 117.292969 100.453125 C 117.5 100.566406 117.683594 100.730469 117.847656 100.9375 C 117.984375 101.121094 118.089844 101.332031 118.160156 101.5625 C 118.253906 101.792969 118.285156 102.035156 118.265625 102.292969 C 118.242188 102.523438 118.183594 102.753906 118.089844 102.984375 C 117.972656 103.195312 117.824219 103.378906 117.640625 103.542969 C 117.453125 103.726562 117.246094 103.855469 117.015625 103.921875 C 116.78125 104.015625 116.550781 104.0625 116.320312 104.0625 C 116.203125 104.0625 116.078125 104.0625 115.9375 104.0625 C 115.820312 104.039062 115.707031 104.027344 115.589844 104.027344 C 115.472656 104.003906 115.359375 103.980469 115.242188 103.957031 C 115.128906 103.933594 115.011719 103.910156 114.894531 103.890625 C 112.082031 103.195312 110.453125 100.972656 110.453125 97.847656 C 110.417969 94.757812 110.453125 91.734375 110.453125 88.542969 Z M 115.484375 125.519531 C 115.484375 124.515625 115.070312 123.507812 114.339844 122.8125 C 113.609375 122.082031 112.640625 121.667969 111.632812 121.667969 C 110.589844 121.667969 109.617188 122.082031 108.890625 122.8125 C 108.160156 123.507812 107.777344 124.515625 107.777344 125.519531 C 107.777344 126.527344 108.160156 127.535156 108.890625 128.230469 C 109.617188 128.957031 110.589844 129.375 111.632812 129.375 C 112.640625 129.375 113.609375 128.957031 114.339844 128.230469 C 115.070312 127.535156 115.484375 126.527344 115.484375 125.519531 Z M 138.578125 121.667969 C 138.054688 121.667969 137.570312 121.769531 137.082031 121.945312 C 136.597656 122.117188 136.179688 122.394531 135.796875 122.777344 C 135.453125 123.125 135.171875 123.542969 134.964844 124.027344 C 134.792969 124.480469 134.6875 125 134.6875 125.519531 C 134.6875 126.527344 135.070312 127.5 135.796875 128.230469 C 136.527344 128.957031 137.5 129.375 138.507812 129.375 C 139.546875 129.375 140.519531 128.992188 141.25 128.265625 C 141.980469 127.535156 142.394531 126.5625 142.394531 125.554688 C 142.394531 125.035156 142.328125 124.546875 142.117188 124.0625 C 141.945312 123.578125 141.667969 123.160156 141.285156 122.8125 C 140.9375 122.429688 140.519531 122.152344 140.035156 121.945312 C 139.582031 121.769531 139.0625 121.667969 138.578125 121.667969 Z M 138.578125 121.667969 "/>
<path style=" stroke:none;fill-rule:evenodd;fill:rgb(19.607843%,36.862745%,39.215686%);fill-opacity:1;" d="M 103.019531 102.046875 C 106.421875 102.464844 108.644531 104.652344 108.785156 107.605469 C 108.921875 110.902344 107.015625 113.019531 103.089844 113.890625 C 102.707031 117.5 100.207031 119.6875 96.980469 119.652344 C 93.921875 119.652344 92.082031 117.777344 91.109375 113.921875 C 86.769531 113.402344 85.242188 110.070312 85.382812 107.605469 C 85.554688 104.617188 87.707031 102.535156 91.078125 102.046875 C 92.257812 97.777344 94.132812 96.109375 97.570312 96.285156 C 100.382812 96.421875 102.359375 98.507812 103.019531 102.046875 Z M 97.082031 115.695312 C 97.316406 115.71875 97.546875 115.683594 97.777344 115.589844 C 97.984375 115.519531 98.171875 115.417969 98.332031 115.277344 C 98.519531 115.117188 98.65625 114.929688 98.75 114.722656 C 98.867188 114.535156 98.933594 114.328125 98.957031 114.097656 C 99.027344 113.367188 98.957031 112.671875 99.027344 111.945312 C 99.097656 110.625 99.859375 109.929688 101.179688 109.894531 C 101.804688 109.859375 102.429688 109.929688 103.019531 109.859375 C 104.132812 109.792969 104.757812 109.132812 104.828125 108.054688 C 104.894531 107.046875 104.375 106.320312 103.332031 106.109375 C 103.148438 106.089844 102.972656 106.078125 102.8125 106.078125 C 102.628906 106.054688 102.441406 106.042969 102.257812 106.042969 C 102.09375 106.019531 101.921875 106.007812 101.734375 106.007812 C 101.550781 106.007812 101.378906 106.007812 101.214844 106.007812 C 99.792969 105.972656 99.097656 105.3125 98.992188 103.890625 C 98.992188 103.265625 99.027344 102.640625 98.957031 102.046875 C 98.890625 100.9375 98.054688 100.140625 97.015625 100.171875 C 96.78125 100.195312 96.550781 100.253906 96.320312 100.347656 C 96.089844 100.464844 95.890625 100.601562 95.730469 100.765625 C 95.566406 100.949219 95.441406 101.144531 95.347656 101.355469 C 95.253906 101.585938 95.195312 101.828125 95.171875 102.082031 C 95.171875 102.671875 95.171875 103.296875 95.171875 103.921875 C 95.105469 105.277344 94.375 105.972656 93.019531 106.007812 C 92.835938 106.007812 92.660156 106.007812 92.5 106.007812 C 92.316406 106.007812 92.140625 106.019531 91.980469 106.042969 C 91.792969 106.042969 91.609375 106.054688 91.421875 106.078125 C 91.261719 106.078125 91.089844 106.089844 90.902344 106.109375 C 89.828125 106.285156 89.269531 107.015625 89.339844 108.089844 C 89.410156 109.203125 90.070312 109.792969 91.144531 109.859375 C 91.734375 109.894531 92.328125 109.859375 92.917969 109.894531 C 94.339844 109.929688 95.105469 110.660156 95.171875 112.082031 C 95.171875 112.707031 95.140625 113.332031 95.171875 113.921875 C 95.195312 114.179688 95.253906 114.421875 95.347656 114.652344 C 95.441406 114.859375 95.578125 115.046875 95.765625 115.207031 C 95.949219 115.394531 96.15625 115.519531 96.390625 115.589844 C 96.621094 115.683594 96.851562 115.71875 97.082031 115.695312 Z M 97.082031 115.695312 "/>
<path style=" stroke:none;fill-rule:evenodd;fill:rgb(19.607843%,36.862745%,39.215686%);fill-opacity:1;" d="M 147.117188 113.890625 C 143.089844 112.953125 141.214844 110.832031 141.390625 107.535156 C 141.5625 104.617188 143.820312 102.429688 147.152344 102.046875 C 147.359375 100.105469 148.054688 98.230469 149.894531 97.292969 C 150.171875 97.128906 150.472656 96.992188 150.796875 96.875 C 151.097656 96.757812 151.410156 96.667969 151.734375 96.597656 C 152.058594 96.503906 152.394531 96.445312 152.742188 96.421875 C 153.066406 96.378906 153.390625 96.355469 153.714844 96.355469 C 156.457031 96.355469 158.367188 98.542969 158.992188 101.980469 C 163.054688 103.125 164.792969 104.929688 164.792969 107.953125 C 164.792969 111.007812 163.019531 112.847656 159.0625 113.921875 C 157.953125 117.917969 155.972656 119.828125 152.917969 119.6875 C 149.859375 119.546875 147.8125 117.535156 147.117188 113.890625 Z M 160.832031 107.8125 C 160.832031 107.605469 160.785156 107.394531 160.695312 107.1875 C 160.625 106.980469 160.519531 106.804688 160.382812 106.667969 C 160.242188 106.503906 160.070312 106.378906 159.859375 106.285156 C 159.675781 106.191406 159.480469 106.132812 159.269531 106.109375 C 159.085938 106.089844 158.910156 106.066406 158.75 106.042969 C 158.566406 106.042969 158.378906 106.03125 158.195312 106.007812 C 158.03125 106.007812 157.859375 106.007812 157.671875 106.007812 C 157.511719 106.007812 157.339844 106.007812 157.152344 106.007812 C 155.796875 105.972656 155.070312 105.277344 155 103.921875 C 154.964844 103.265625 155 102.640625 154.964844 101.980469 C 154.894531 100.9375 154.0625 100.105469 153.054688 100.171875 C 152.015625 100.277344 151.285156 100.796875 151.214844 101.910156 C 151.144531 102.640625 151.214844 103.332031 151.144531 104.0625 C 151.042969 105.3125 150.347656 105.972656 149.0625 106.007812 C 148.878906 106.007812 148.703125 106.007812 148.542969 106.007812 C 148.355469 106.007812 148.171875 106.007812 147.984375 106.007812 C 147.824219 106.03125 147.652344 106.042969 147.464844 106.042969 C 147.304688 106.066406 147.128906 106.078125 146.945312 106.078125 C 145.867188 106.25 145.3125 106.980469 145.3125 108.054688 C 145.3125 109.0625 146.144531 109.828125 147.222656 109.859375 C 147.8125 109.894531 148.4375 109.859375 149.0625 109.894531 C 150.277344 109.929688 151.042969 110.625 151.109375 111.839844 C 151.179688 112.535156 151.109375 113.195312 151.179688 113.890625 C 151.25 115.035156 152.046875 115.730469 153.125 115.695312 C 154.167969 115.660156 154.894531 114.929688 154.964844 113.820312 C 155.207031 110.105469 155.207031 110.105469 158.957031 109.859375 C 160.105469 109.792969 160.832031 108.992188 160.832031 107.8125 Z M 160.832031 107.8125 "/>
<path style=" stroke:none;fill-rule:nonzero;fill:rgb(19.607843%,36.862745%,39.215686%);fill-opacity:1;" d="M 125.070312 107.917969 C 126.851562 107.917969 128.632812 107.917969 130.417969 107.917969 C 131.734375 107.953125 132.605469 108.679688 132.640625 109.828125 C 132.671875 111.042969 131.875 111.875 130.453125 111.875 C 126.886719 111.921875 123.308594 111.921875 119.722656 111.875 C 118.296875 111.875 117.5 111.042969 117.535156 109.828125 C 117.570312 108.644531 118.4375 107.953125 119.859375 107.917969 C 121.597656 107.917969 123.332031 107.917969 125.070312 107.917969 Z M 125.070312 107.917969 "/>
<path style=" stroke:none;fill-rule:nonzero;fill:rgb(19.607843%,36.862745%,39.215686%);fill-opacity:1;" d="M 125.070312 115.730469 C 125.832031 115.730469 126.632812 115.695312 127.394531 115.730469 C 128.644531 115.765625 129.515625 116.597656 129.515625 117.671875 C 129.515625 118.785156 128.644531 119.652344 127.429688 119.6875 C 125.867188 119.722656 124.339844 119.722656 122.777344 119.6875 C 121.5625 119.652344 120.695312 118.785156 120.695312 117.707031 C 120.695312 116.632812 121.527344 115.796875 122.777344 115.730469 C 123.542969 115.695312 124.304688 115.730469 125.070312 115.730469 Z M 125.070312 115.730469 "/>
<path style=" stroke:none;fill-rule:nonzero;fill:rgb(19.607843%,36.862745%,39.215686%);fill-opacity:1;" d="M 127.015625 102.082031 C 127.046875 102.605469 126.839844 103.089844 126.492188 103.472656 C 126.144531 103.820312 125.660156 104.0625 125.140625 104.0625 C 124.617188 104.097656 124.132812 103.890625 123.75 103.542969 C 123.367188 103.195312 123.160156 102.707031 123.160156 102.1875 C 123.125 101.667969 123.296875 101.144531 123.644531 100.765625 C 123.992188 100.382812 124.480469 100.140625 125.035156 100.105469 C 125.554688 100.105469 126.042969 100.3125 126.421875 100.660156 C 126.804688 101.042969 127.015625 101.5625 127.015625 102.082031 Z M 127.015625 102.082031 "/>
</g>
</svg>
