<?xml version="1.0" encoding="UTF-8"?>
<svg xmlns="http://www.w3.org/2000/svg" xmlns:xlink="http://www.w3.org/1999/xlink" width="250px" height="250px" viewBox="0 0 250 250" version="1.1">
<g id="surface1">
<path style=" stroke:none;fill-rule:evenodd;fill:rgb(19.607843%,36.862745%,39.215686%);fill-opacity:1;" d="M 46.632812 102.917969 L 203.367188 102.917969 L 203.367188 175.242188 L 46.632812 175.242188 Z M 52.359375 169.515625 L 197.640625 169.515625 L 197.640625 108.644531 L 52.359375 108.644531 Z M 52.359375 169.515625 "/>
<path style=" stroke:none;fill-rule:evenodd;fill:rgb(19.607843%,36.862745%,39.215686%);fill-opacity:1;" d="M 31.945312 89.828125 L 218.054688 89.828125 L 218.054688 188.195312 L 31.945312 188.195312 Z M 37.671875 182.464844 L 212.328125 182.464844 L 212.328125 95.695312 L 37.671875 95.695312 Z M 37.671875 182.464844 "/>
<path style=" stroke:none;fill-rule:nonzero;fill:rgb(19.607843%,36.862745%,39.215686%);fill-opacity:1;" d="M 111.667969 156.457031 L 111.667969 120.484375 L 138.332031 138.472656 Z M 111.667969 156.457031 "/>
<path style=" stroke:none;fill-rule:nonzero;fill:rgb(19.607843%,36.862745%,39.215686%);fill-opacity:1;" d="M 76.421875 201.492188 C 76.421875 201.746094 76.421875 201.992188 76.421875 202.222656 C 76.445312 202.476562 76.480469 202.71875 76.527344 202.953125 C 76.550781 203.183594 76.597656 203.425781 76.667969 203.679688 C 76.714844 203.910156 76.769531 204.144531 76.839844 204.375 L 68.125 204.375 L 68.125 198.644531 L 76.839844 198.644531 C 76.769531 198.878906 76.714844 199.109375 76.667969 199.339844 C 76.597656 199.570312 76.550781 199.816406 76.527344 200.070312 C 76.480469 200.300781 76.445312 200.53125 76.421875 200.765625 C 76.421875 201.019531 76.421875 201.261719 76.421875 201.492188 Z M 76.421875 201.492188 "/>
<path style=" stroke:none;fill-rule:nonzero;fill:rgb(19.607843%,36.862745%,39.215686%);fill-opacity:1;" d="M 204.480469 198.644531 L 204.480469 204.375 L 94.582031 204.375 C 94.746094 203.910156 94.859375 203.4375 94.929688 202.953125 C 95 202.464844 95.035156 201.980469 95.035156 201.492188 C 95.035156 201.007812 95 200.53125 94.929688 200.070312 C 94.859375 199.582031 94.746094 199.109375 94.582031 198.644531 Z M 204.480469 198.644531 "/>
<path style=" stroke:none;fill-rule:nonzero;fill:rgb(19.607843%,36.862745%,39.215686%);fill-opacity:1;" d="M 94.582031 204.375 C 93.992188 206.25 92.8125 207.882812 91.214844 209.0625 C 89.617188 210.207031 87.707031 210.832031 85.730469 210.832031 C 83.75 210.832031 81.839844 210.207031 80.242188 209.0625 C 78.644531 207.882812 77.464844 206.25 76.839844 204.375 L 83.542969 204.375 C 83.867188 204.605469 84.214844 204.78125 84.582031 204.894531 C 84.953125 205.035156 85.335938 205.105469 85.730469 205.105469 C 86.121094 205.105469 86.503906 205.035156 86.875 204.894531 C 87.246094 204.78125 87.582031 204.605469 87.882812 204.375 Z M 94.582031 204.375 "/>
<path style=" stroke:none;fill-rule:nonzero;fill:rgb(19.607843%,36.862745%,39.215686%);fill-opacity:1;" d="M 95.035156 201.492188 C 95.035156 201.746094 95.035156 201.992188 95.035156 202.222656 C 95.011719 202.476562 94.976562 202.71875 94.929688 202.953125 C 94.90625 203.183594 94.859375 203.425781 94.792969 203.679688 C 94.746094 203.910156 94.675781 204.144531 94.582031 204.375 L 87.917969 204.375 C 88.332031 204.027344 88.714844 203.609375 88.957031 203.089844 C 89.203125 202.605469 89.339844 202.046875 89.339844 201.492188 C 89.339844 200.9375 89.203125 200.417969 88.957031 199.894531 C 88.714844 199.410156 88.332031 198.957031 87.917969 198.644531 L 94.617188 198.644531 C 94.6875 198.878906 94.746094 199.109375 94.792969 199.339844 C 94.859375 199.570312 94.90625 199.816406 94.929688 200.070312 C 94.976562 200.300781 95.011719 200.53125 95.035156 200.765625 C 95.035156 201.019531 95.035156 201.261719 95.035156 201.492188 Z M 95.035156 201.492188 "/>
<path style=" stroke:none;fill-rule:nonzero;fill:rgb(19.607843%,36.862745%,39.215686%);fill-opacity:1;" d="M 83.542969 204.375 L 76.839844 204.375 C 76.703125 203.910156 76.597656 203.4375 76.527344 202.953125 C 76.457031 202.464844 76.421875 201.980469 76.421875 201.492188 C 76.421875 201.007812 76.457031 200.53125 76.527344 200.070312 C 76.597656 199.582031 76.703125 199.109375 76.839844 198.644531 L 83.578125 198.644531 C 83.125 198.957031 82.742188 199.410156 82.5 199.894531 C 82.257812 200.417969 82.152344 200.9375 82.152344 201.492188 C 82.152344 202.046875 82.257812 202.605469 82.5 203.089844 C 82.742188 203.609375 83.125 204.027344 83.578125 204.375 Z M 83.542969 204.375 "/>
<path style=" stroke:none;fill-rule:nonzero;fill:rgb(19.607843%,36.862745%,39.215686%);fill-opacity:1;" d="M 94.582031 198.644531 L 87.882812 198.644531 C 87.582031 198.414062 87.246094 198.230469 86.875 198.089844 C 86.503906 197.972656 86.121094 197.917969 85.730469 197.917969 C 85.335938 197.917969 84.953125 197.972656 84.582031 198.089844 C 84.214844 198.230469 83.878906 198.414062 83.578125 198.644531 L 76.839844 198.644531 C 77.464844 196.769531 78.644531 195.105469 80.242188 193.957031 C 81.839844 192.777344 83.75 192.152344 85.730469 192.152344 C 87.707031 192.152344 89.617188 192.777344 91.214844 193.957031 C 92.8125 195.105469 93.992188 196.769531 94.617188 198.644531 Z M 94.582031 198.644531 "/>
<path style=" stroke:none;fill-rule:nonzero;fill:rgb(19.607843%,36.862745%,39.215686%);fill-opacity:1;" d="M 45.695312 196.597656 L 51.421875 196.597656 L 51.421875 206.734375 L 45.695312 206.734375 Z M 45.695312 196.597656 "/>
<path style=" stroke:none;fill-rule:nonzero;fill:rgb(19.607843%,36.862745%,39.215686%);fill-opacity:1;" d="M 55.105469 196.597656 L 60.832031 196.597656 L 60.832031 206.734375 L 55.105469 206.734375 Z M 55.105469 196.597656 "/>
<path style=" stroke:none;fill-rule:nonzero;fill:rgb(19.607843%,36.862745%,39.215686%);fill-opacity:1;" d="M 218.054688 56.667969 L 218.054688 95.695312 L 31.945312 95.589844 L 31.945312 56.527344 L 97.742188 56.667969 C 97.71875 56.78125 97.683594 56.910156 97.640625 57.046875 C 97.617188 57.164062 97.59375 57.292969 97.570312 57.429688 C 97.546875 57.546875 97.535156 57.671875 97.535156 57.8125 C 97.535156 57.953125 97.535156 58.089844 97.535156 58.230469 L 97.535156 60.796875 C 97.535156 60.9375 97.535156 61.078125 97.535156 61.214844 C 97.535156 61.332031 97.546875 61.457031 97.570312 61.597656 C 97.59375 61.734375 97.617188 61.863281 97.640625 61.980469 C 97.683594 62.117188 97.71875 62.246094 97.742188 62.359375 L 37.671875 62.359375 L 37.671875 89.964844 L 212.328125 89.964844 L 212.328125 62.359375 L 152.257812 62.359375 C 152.28125 62.246094 152.316406 62.117188 152.359375 61.980469 C 152.382812 61.863281 152.40625 61.734375 152.429688 61.597656 C 152.453125 61.457031 152.464844 61.332031 152.464844 61.214844 C 152.488281 61.078125 152.5 60.9375 152.5 60.796875 L 152.5 58.230469 C 152.5 58.089844 152.488281 57.953125 152.464844 57.8125 C 152.464844 57.671875 152.453125 57.546875 152.429688 57.429688 C 152.40625 57.292969 152.382812 57.164062 152.359375 57.046875 C 152.316406 56.910156 152.28125 56.78125 152.257812 56.667969 Z M 218.054688 56.667969 "/>
<path style=" stroke:none;fill-rule:evenodd;fill:rgb(19.607843%,36.862745%,39.215686%);fill-opacity:1;" d="M 218.054688 221.390625 L 31.945312 221.527344 L 31.945312 182.464844 L 218.054688 182.464844 Z M 37.671875 215.796875 L 212.328125 215.796875 L 212.328125 188.195312 L 37.671875 188.195312 Z M 37.671875 215.796875 "/>
<path style="fill:none;stroke-width:8.8;stroke-linecap:butt;stroke-linejoin:miter;stroke:rgb(19.607843%,36.862745%,39.215686%);stroke-opacity:1;stroke-miterlimit:4;" d="M 170.40375 219.3975 C 170.40375 229.17375 162.4725 237.105 152.69625 237.105 C 142.92 237.105 135 229.17375 135 219.3975 C 135 209.62125 142.92 201.70125 152.69625 201.70125 C 162.4725 201.70125 170.40375 209.62125 170.40375 219.3975 Z M 170.40375 219.3975 " transform="matrix(0.347222,0,0,0.347222,0,0)"/>
<path style="fill:none;stroke-width:8.8;stroke-linecap:butt;stroke-linejoin:miter;stroke:rgb(19.607843%,36.862745%,39.215686%);stroke-opacity:1;stroke-miterlimit:4;" d="M 584.69625 219.3975 C 584.69625 229.17375 576.77625 237.105 567 237.105 C 557.22375 237.105 549.30375 229.17375 549.30375 219.3975 C 549.30375 209.62125 557.22375 201.70125 567 201.70125 C 576.77625 201.70125 584.69625 209.62125 584.69625 219.3975 Z M 584.69625 219.3975 " transform="matrix(0.347222,0,0,0.347222,0,0)"/>
<path style="fill:none;stroke-width:8.8;stroke-linecap:butt;stroke-linejoin:miter;stroke:rgb(19.607843%,36.862745%,39.215686%);stroke-opacity:1;stroke-miterlimit:4;" d="M 524.80125 219.3975 C 524.80125 229.17375 516.87 237.105 507.105 237.105 C 497.32875 237.105 489.3975 229.17375 489.3975 219.3975 C 489.3975 209.62125 497.32875 201.70125 507.105 201.70125 C 516.87 201.70125 524.80125 209.62125 524.80125 219.3975 Z M 524.80125 219.3975 " transform="matrix(0.347222,0,0,0.347222,0,0)"/>
<path style=" stroke:none;fill-rule:evenodd;fill:rgb(19.607843%,36.862745%,39.215686%);fill-opacity:1;" d="M 126.320312 87.015625 L 123.714844 87.015625 C 123.089844 87.015625 122.5 86.910156 121.945312 86.703125 C 121.355469 86.492188 120.832031 86.179688 120.382812 85.796875 C 119.894531 85.417969 119.515625 84.964844 119.203125 84.445312 C 118.890625 83.921875 118.679688 83.367188 118.542969 82.777344 L 117.5 77.570312 L 113.125 80.519531 C 112.59375 80.867188 112.035156 81.109375 111.457031 81.25 C 110.867188 81.390625 110.277344 81.421875 109.6875 81.390625 C 109.0625 81.320312 108.507812 81.144531 107.953125 80.902344 C 107.394531 80.648438 106.910156 80.300781 106.492188 79.859375 L 104.652344 78.019531 C 104.234375 77.605469 103.890625 77.117188 103.609375 76.5625 C 103.367188 76.007812 103.195312 75.453125 103.125 74.828125 C 103.089844 74.234375 103.125 73.644531 103.265625 73.054688 C 103.402344 72.464844 103.644531 71.910156 103.992188 71.421875 L 106.945312 66.980469 L 101.734375 65.972656 C 101.144531 65.832031 100.589844 65.625 100.070312 65.3125 C 99.546875 65 99.097656 64.617188 98.714844 64.132812 C 98.332031 63.679688 98.019531 63.125 97.8125 62.570312 C 97.605469 62.015625 97.5 61.421875 97.5 60.796875 L 97.5 58.195312 C 97.5 57.59375 97.605469 57.003906 97.8125 56.421875 C 98.019531 55.867188 98.332031 55.347656 98.714844 54.859375 C 99.085938 54.398438 99.535156 54.015625 100.070312 53.714844 C 100.589844 53.402344 101.144531 53.160156 101.734375 53.054688 L 106.945312 52.015625 L 103.992188 47.605469 C 103.679688 47.117188 103.4375 46.5625 103.265625 45.972656 C 103.125 45.371094 103.089844 44.78125 103.160156 44.203125 C 103.195312 43.609375 103.367188 43.019531 103.609375 42.464844 C 103.890625 41.945312 104.234375 41.421875 104.652344 41.007812 L 106.492188 39.167969 C 106.910156 38.75 107.394531 38.402344 107.953125 38.160156 C 108.507812 37.882812 109.0625 37.707031 109.6875 37.671875 C 110.277344 37.605469 110.867188 37.640625 111.457031 37.8125 C 112.046875 37.953125 112.605469 38.195312 113.125 38.507812 L 117.535156 41.492188 L 118.578125 36.25 C 118.667969 35.648438 118.878906 35.09375 119.203125 34.582031 C 119.515625 34.0625 119.929688 33.609375 120.382812 33.230469 C 120.832031 32.847656 121.390625 32.535156 121.945312 32.359375 C 122.5 32.152344 123.125 32.046875 123.714844 32.046875 L 126.320312 32.046875 C 126.898438 32.046875 127.488281 32.152344 128.089844 32.359375 C 128.644531 32.535156 129.167969 32.847656 129.652344 33.230469 C 130.117188 33.597656 130.496094 34.050781 130.796875 34.582031 C 131.109375 35.105469 131.355469 35.660156 131.457031 36.25 L 132.5 41.492188 L 136.910156 38.507812 C 137.394531 38.160156 137.953125 37.917969 138.542969 37.777344 C 139.132812 37.640625 139.722656 37.605469 140.3125 37.640625 C 140.9375 37.707031 141.527344 37.882812 142.046875 38.125 C 142.605469 38.367188 143.089844 38.75 143.542969 39.167969 L 145.347656 41.007812 C 145.808594 41.421875 146.15625 41.910156 146.390625 42.464844 C 146.632812 43.019531 146.804688 43.578125 146.875 44.203125 C 146.945312 44.792969 146.875 45.382812 146.734375 45.972656 C 146.597656 46.5625 146.355469 47.117188 146.007812 47.605469 L 143.054688 52.046875 L 148.265625 53.054688 C 148.855469 53.195312 149.445312 53.402344 149.929688 53.714844 C 150.453125 54.027344 150.9375 54.410156 151.320312 54.894531 C 151.703125 55.347656 151.980469 55.902344 152.1875 56.457031 C 152.394531 57.015625 152.5 57.640625 152.5 58.230469 L 152.5 60.832031 C 152.5 61.433594 152.394531 62.027344 152.1875 62.605469 C 151.980469 63.160156 151.703125 63.679688 151.320312 64.167969 C 150.9375 64.617188 150.453125 65 149.929688 65.3125 C 149.445312 65.625 148.855469 65.867188 148.265625 65.972656 L 143.054688 67.015625 L 146.007812 71.421875 C 146.355469 71.945312 146.597656 72.5 146.734375 73.054688 C 146.875 73.644531 146.945312 74.269531 146.875 74.859375 C 146.804688 75.453125 146.632812 76.042969 146.390625 76.597656 C 146.144531 77.117188 145.796875 77.640625 145.347656 78.054688 L 143.542969 79.894531 C 143.089844 80.3125 142.605469 80.660156 142.046875 80.902344 C 141.527344 81.179688 140.9375 81.320312 140.3125 81.390625 C 139.722656 81.457031 139.132812 81.390625 138.542969 81.25 C 137.953125 81.109375 137.394531 80.867188 136.910156 80.519531 L 132.5 77.570312 L 131.457031 82.777344 C 131.320312 83.367188 131.109375 83.921875 130.796875 84.445312 C 130.484375 84.964844 130.105469 85.417969 129.617188 85.796875 C 129.167969 86.179688 128.644531 86.492188 128.054688 86.703125 C 127.5 86.875 126.910156 86.980469 126.320312 87.015625 Z M 124.097656 81.285156 L 125.902344 81.285156 L 127.015625 75.765625 C 127.082031 75.324219 127.210938 74.917969 127.394531 74.546875 C 127.582031 74.15625 127.8125 73.785156 128.089844 73.4375 C 128.367188 73.113281 128.679688 72.824219 129.027344 72.570312 C 129.375 72.316406 129.746094 72.105469 130.140625 71.945312 L 130.171875 71.945312 C 130.566406 71.757812 130.984375 71.644531 131.421875 71.597656 C 131.839844 71.527344 132.269531 71.515625 132.707031 71.5625 C 133.125 71.609375 133.542969 71.703125 133.957031 71.839844 C 134.351562 71.980469 134.734375 72.175781 135.105469 72.429688 L 139.757812 75.519531 L 141.042969 74.269531 L 137.917969 69.582031 C 137.660156 69.234375 137.464844 68.855469 137.328125 68.4375 C 137.1875 68.042969 137.09375 67.628906 137.046875 67.1875 C 137.003906 66.746094 137.015625 66.320312 137.082031 65.902344 C 137.152344 65.484375 137.269531 65.070312 137.429688 64.652344 L 137.429688 64.617188 C 137.617188 64.222656 137.835938 63.855469 138.089844 63.507812 C 138.34375 63.160156 138.632812 62.847656 138.957031 62.570312 C 139.28125 62.316406 139.640625 62.09375 140.035156 61.910156 C 140.429688 61.722656 140.832031 61.585938 141.25 61.492188 L 146.769531 60.417969 L 146.769531 58.609375 L 141.25 57.535156 C 140.832031 57.441406 140.429688 57.304688 140.035156 57.117188 C 139.664062 56.933594 139.304688 56.703125 138.957031 56.421875 C 138.632812 56.167969 138.34375 55.867188 138.089844 55.519531 C 137.835938 55.171875 137.617188 54.804688 137.429688 54.410156 L 137.429688 54.375 C 137.269531 53.980469 137.152344 53.566406 137.082031 53.125 C 137.015625 52.707031 137.003906 52.28125 137.046875 51.839844 C 137.09375 51.402344 137.1875 50.984375 137.328125 50.589844 C 137.464844 50.171875 137.660156 49.792969 137.917969 49.445312 L 141.042969 44.757812 L 139.757812 43.472656 L 135.105469 46.632812 C 134.375 47.082031 133.542969 47.394531 132.671875 47.464844 C 131.839844 47.570312 130.972656 47.429688 130.171875 47.082031 C 129.375 46.769531 128.644531 46.25 128.089844 45.589844 C 127.570312 44.894531 127.1875 44.132812 127.015625 43.265625 L 125.902344 37.742188 L 124.097656 37.742188 L 123.019531 43.265625 C 122.929688 43.679688 122.789062 44.085938 122.605469 44.480469 C 122.417969 44.871094 122.199219 45.242188 121.945312 45.589844 C 121.667969 45.914062 121.355469 46.203125 121.007812 46.457031 C 120.660156 46.714844 120.277344 46.921875 119.859375 47.082031 L 119.828125 47.117188 C 119.433594 47.28125 119.027344 47.382812 118.609375 47.429688 C 118.171875 47.5 117.742188 47.511719 117.328125 47.464844 C 116.886719 47.417969 116.46875 47.328125 116.078125 47.1875 C 115.660156 47.046875 115.277344 46.863281 114.929688 46.632812 L 110.242188 43.472656 L 108.992188 44.757812 L 112.117188 49.445312 C 112.347656 49.792969 112.535156 50.171875 112.671875 50.589844 C 112.835938 50.984375 112.929688 51.402344 112.953125 51.839844 C 112.996094 52.257812 112.996094 52.683594 112.953125 53.125 C 112.882812 53.542969 112.765625 53.957031 112.605469 54.375 L 112.605469 54.410156 C 112.417969 54.804688 112.199219 55.171875 111.945312 55.519531 C 111.691406 55.867188 111.402344 56.167969 111.078125 56.421875 C 110.753906 56.703125 110.394531 56.933594 110 57.117188 C 109.605469 57.304688 109.203125 57.429688 108.785156 57.5 L 103.265625 58.609375 L 103.265625 60.417969 L 108.785156 61.492188 C 109.203125 61.585938 109.605469 61.722656 110 61.910156 C 110.371094 62.09375 110.730469 62.328125 111.078125 62.605469 C 111.402344 62.859375 111.691406 63.160156 111.945312 63.507812 C 112.199219 63.855469 112.40625 64.222656 112.570312 64.617188 L 112.570312 64.652344 C 112.730469 65.070312 112.847656 65.484375 112.917969 65.902344 C 112.984375 66.320312 112.996094 66.746094 112.953125 67.1875 C 112.90625 67.628906 112.8125 68.042969 112.671875 68.4375 C 112.535156 68.855469 112.339844 69.234375 112.082031 69.582031 L 108.957031 74.269531 L 110.242188 75.519531 L 114.929688 72.394531 C 115.625 71.945312 116.457031 71.632812 117.328125 71.5625 C 118.195312 71.457031 119.0625 71.597656 119.859375 71.910156 C 120.660156 72.257812 121.355469 72.777344 121.910156 73.4375 C 122.464844 74.132812 122.8125 74.894531 122.984375 75.765625 Z M 115.832031 63.332031 C 114.304688 59.617188 115.140625 55.347656 117.984375 52.5 C 120.832031 49.652344 125.105469 48.820312 128.785156 50.347656 C 132.5 51.875 134.929688 55.484375 134.929688 59.515625 C 134.929688 60.832031 134.652344 62.117188 134.167969 63.296875 C 133.679688 64.515625 132.953125 65.625 132.015625 66.527344 C 131.078125 67.464844 130 68.195312 128.785156 68.679688 C 127.605469 69.203125 126.285156 69.445312 125 69.445312 C 120.972656 69.445312 117.359375 67.015625 115.832031 63.332031 Z M 125 55.3125 C 123.296875 55.3125 121.769531 56.355469 121.109375 57.917969 C 120.484375 59.480469 120.832031 61.285156 122.046875 62.5 C 123.230469 63.679688 125.035156 64.0625 126.597656 63.402344 C 128.195312 62.742188 129.203125 61.214844 129.203125 59.515625 C 129.203125 58.957031 129.097656 58.4375 128.890625 57.917969 C 128.679688 57.40625 128.367188 56.957031 127.953125 56.5625 C 127.570312 56.179688 127.117188 55.867188 126.597656 55.660156 C 126.078125 55.453125 125.554688 55.347656 125 55.347656 Z M 125 69.445312 Z M 125 69.445312 "/>
<path style=" stroke:none;fill-rule:nonzero;fill:rgb(19.607843%,36.862745%,39.215686%);fill-opacity:1;" d="M 110.765625 62.359375 L 97.742188 62.359375 C 97.71875 62.246094 97.683594 62.117188 97.640625 61.980469 C 97.617188 61.863281 97.59375 61.734375 97.570312 61.597656 C 97.546875 61.457031 97.535156 61.332031 97.535156 61.214844 C 97.511719 61.078125 97.5 60.9375 97.5 60.796875 L 97.5 58.230469 C 97.5 58.089844 97.511719 57.953125 97.535156 57.8125 C 97.535156 57.671875 97.546875 57.546875 97.570312 57.429688 C 97.59375 57.292969 97.617188 57.164062 97.640625 57.046875 C 97.683594 56.910156 97.71875 56.78125 97.742188 56.667969 L 110.765625 56.667969 C 110.625 56.757812 110.472656 56.851562 110.3125 56.945312 C 110.152344 57.035156 109.988281 57.117188 109.828125 57.1875 C 109.640625 57.257812 109.46875 57.316406 109.304688 57.359375 C 109.121094 57.429688 108.933594 57.476562 108.75 57.5 L 103.265625 58.609375 L 103.265625 60.417969 L 108.75 61.492188 C 108.933594 61.539062 109.121094 61.585938 109.304688 61.632812 C 109.46875 61.703125 109.640625 61.769531 109.828125 61.839844 C 109.988281 61.910156 110.152344 61.992188 110.3125 62.082031 C 110.472656 62.175781 110.625 62.269531 110.765625 62.359375 Z M 110.765625 62.359375 "/>
<path style=" stroke:none;fill-rule:nonzero;fill:rgb(19.607843%,36.862745%,39.215686%);fill-opacity:1;" d="M 152.257812 56.667969 L 139.234375 56.667969 C 139.027344 56.503906 138.832031 56.34375 138.644531 56.179688 C 138.484375 56.019531 138.320312 55.84375 138.160156 55.660156 C 138.019531 55.453125 137.882812 55.242188 137.742188 55.035156 C 137.628906 54.828125 137.523438 54.617188 137.429688 54.410156 L 137.429688 54.375 C 137.269531 53.980469 137.152344 53.566406 137.082031 53.125 C 137.015625 52.707031 137.003906 52.28125 137.046875 51.839844 C 137.09375 51.421875 137.1875 51.007812 137.328125 50.589844 C 137.464844 50.171875 137.660156 49.792969 137.917969 49.445312 L 141.042969 44.757812 L 139.757812 43.472656 L 135.070312 46.632812 C 134.375 47.082031 133.542969 47.394531 132.671875 47.464844 C 131.804688 47.570312 130.9375 47.429688 130.140625 47.082031 C 129.339844 46.769531 128.644531 46.25 128.089844 45.589844 C 127.535156 44.894531 127.1875 44.132812 127.015625 43.265625 L 125.902344 37.742188 L 124.097656 37.742188 L 123.019531 43.265625 C 122.929688 43.679688 122.789062 44.085938 122.605469 44.480469 C 122.417969 44.871094 122.1875 45.242188 121.910156 45.589844 C 121.632812 45.914062 121.320312 46.203125 120.972656 46.457031 C 120.625 46.714844 120.253906 46.921875 119.859375 47.082031 L 119.828125 47.082031 C 119.433594 47.246094 119.027344 47.359375 118.609375 47.429688 C 118.171875 47.5 117.742188 47.511719 117.328125 47.464844 C 116.886719 47.417969 116.46875 47.328125 116.078125 47.1875 C 115.660156 47.046875 115.277344 46.851562 114.929688 46.597656 L 110.242188 43.472656 L 108.992188 44.757812 L 112.117188 49.410156 C 112.347656 49.78125 112.535156 50.160156 112.671875 50.554688 C 112.835938 50.972656 112.929688 51.402344 112.953125 51.839844 C 112.996094 52.257812 112.984375 52.683594 112.917969 53.125 C 112.871094 53.542969 112.753906 53.945312 112.570312 54.339844 C 112.59375 54.339844 112.605469 54.339844 112.605469 54.339844 C 112.605469 54.363281 112.605469 54.375 112.605469 54.375 C 112.605469 54.375 112.59375 54.375 112.570312 54.375 C 112.476562 54.605469 112.371094 54.828125 112.257812 55.035156 C 112.140625 55.242188 112.003906 55.441406 111.839844 55.625 C 111.703125 55.832031 111.539062 56.019531 111.355469 56.179688 C 111.167969 56.34375 110.984375 56.492188 110.796875 56.632812 L 97.742188 56.632812 C 97.882812 56.191406 98.078125 55.777344 98.332031 55.382812 C 98.589844 54.988281 98.902344 54.628906 99.269531 54.304688 C 99.617188 53.980469 100 53.714844 100.417969 53.507812 C 100.832031 53.296875 101.273438 53.148438 101.734375 53.054688 L 106.945312 52.015625 L 103.992188 47.605469 C 103.679688 47.117188 103.4375 46.5625 103.265625 45.972656 C 103.125 45.371094 103.089844 44.78125 103.160156 44.203125 C 103.195312 43.609375 103.367188 43.019531 103.609375 42.464844 C 103.890625 41.945312 104.234375 41.421875 104.652344 41.007812 L 106.492188 39.167969 C 106.910156 38.75 107.394531 38.402344 107.953125 38.160156 C 108.507812 37.882812 109.0625 37.707031 109.6875 37.671875 C 110.277344 37.605469 110.867188 37.640625 111.457031 37.8125 C 112.046875 37.953125 112.605469 38.195312 113.125 38.507812 L 117.535156 41.492188 L 118.542969 36.25 C 118.679688 35.660156 118.890625 35.105469 119.203125 34.582031 C 119.515625 34.0625 119.894531 33.609375 120.382812 33.230469 C 120.832031 32.847656 121.390625 32.570312 121.945312 32.359375 C 122.5 32.152344 123.089844 32.046875 123.714844 32.046875 L 126.320312 32.046875 C 126.898438 32.046875 127.488281 32.152344 128.089844 32.359375 C 128.644531 32.535156 129.167969 32.847656 129.652344 33.230469 C 130.117188 33.597656 130.496094 34.050781 130.796875 34.582031 C 131.109375 35.105469 131.355469 35.660156 131.457031 36.25 L 132.5 41.492188 L 136.910156 38.507812 C 137.394531 38.160156 137.953125 37.917969 138.542969 37.777344 C 139.132812 37.640625 139.722656 37.605469 140.3125 37.640625 C 140.9375 37.707031 141.527344 37.882812 142.046875 38.125 C 142.605469 38.402344 143.089844 38.75 143.507812 39.167969 L 145.347656 41.007812 C 145.808594 41.421875 146.15625 41.910156 146.390625 42.464844 C 146.632812 43.019531 146.804688 43.578125 146.875 44.203125 C 146.945312 44.792969 146.875 45.382812 146.734375 45.972656 C 146.597656 46.5625 146.355469 47.117188 146.007812 47.605469 L 143.054688 52.046875 L 148.265625 53.054688 C 148.726562 53.148438 149.167969 53.308594 149.582031 53.542969 C 150 53.75 150.382812 54.003906 150.730469 54.304688 C 151.097656 54.628906 151.410156 54.988281 151.667969 55.382812 C 151.921875 55.777344 152.117188 56.203125 152.257812 56.667969 Z M 152.257812 56.667969 "/>
<path style=" stroke:none;fill-rule:nonzero;fill:rgb(19.607843%,36.862745%,39.215686%);fill-opacity:1;" d="M 152.5 58.230469 L 152.5 60.796875 C 152.5 60.9375 152.488281 61.078125 152.464844 61.214844 C 152.464844 61.332031 152.453125 61.457031 152.429688 61.597656 C 152.40625 61.734375 152.382812 61.863281 152.359375 61.980469 C 152.316406 62.117188 152.28125 62.246094 152.257812 62.359375 L 139.234375 62.359375 C 139.375 62.269531 139.527344 62.175781 139.6875 62.082031 C 139.847656 61.992188 140.011719 61.910156 140.171875 61.839844 C 140.359375 61.769531 140.53125 61.714844 140.695312 61.667969 C 140.878906 61.597656 141.066406 61.550781 141.25 61.527344 L 146.769531 60.417969 L 146.769531 58.609375 L 141.25 57.535156 C 141.066406 57.488281 140.890625 57.441406 140.730469 57.394531 C 140.542969 57.347656 140.371094 57.292969 140.207031 57.222656 C 140.023438 57.128906 139.847656 57.046875 139.6875 56.980469 C 139.546875 56.886719 139.398438 56.78125 139.234375 56.667969 L 152.257812 56.667969 C 152.304688 56.78125 152.339844 56.910156 152.359375 57.046875 C 152.382812 57.164062 152.40625 57.292969 152.429688 57.429688 C 152.453125 57.570312 152.464844 57.695312 152.464844 57.8125 C 152.488281 57.953125 152.5 58.089844 152.5 58.230469 Z M 152.5 58.230469 "/>
<path style=" stroke:none;fill-rule:nonzero;fill:rgb(19.607843%,36.862745%,39.215686%);fill-opacity:1;" d="M 152.257812 62.359375 C 152.117188 62.824219 151.921875 63.253906 151.667969 63.644531 C 151.390625 64.039062 151.078125 64.398438 150.730469 64.722656 C 150.382812 65.023438 150 65.277344 149.582031 65.484375 C 149.167969 65.695312 148.726562 65.84375 148.265625 65.9375 L 143.054688 66.980469 L 146.007812 71.390625 C 146.355469 71.898438 146.597656 72.453125 146.734375 73.054688 C 146.875 73.644531 146.910156 74.234375 146.875 74.828125 C 146.804688 75.417969 146.632812 76.007812 146.390625 76.5625 C 146.109375 77.117188 145.765625 77.605469 145.347656 78.019531 L 143.507812 79.859375 C 143.089844 80.277344 142.605469 80.625 142.046875 80.902344 C 141.492188 81.144531 140.9375 81.320312 140.3125 81.390625 C 139.722656 81.421875 139.132812 81.390625 138.542969 81.25 C 137.953125 81.109375 137.394531 80.867188 136.910156 80.519531 L 132.5 77.570312 L 131.457031 82.777344 C 131.320312 83.367188 131.109375 83.921875 130.796875 84.445312 C 130.484375 84.964844 130.105469 85.417969 129.617188 85.796875 C 129.167969 86.179688 128.644531 86.492188 128.054688 86.703125 C 127.5 86.910156 126.910156 87.015625 126.285156 87.015625 L 123.714844 87.015625 C 123.089844 87.015625 122.5 86.910156 121.945312 86.703125 C 121.355469 86.492188 120.832031 86.179688 120.382812 85.796875 C 119.894531 85.417969 119.515625 84.964844 119.203125 84.445312 C 118.890625 83.921875 118.679688 83.367188 118.542969 82.777344 L 117.5 77.570312 L 113.089844 80.519531 C 112.605469 80.867188 112.046875 81.109375 111.457031 81.25 C 110.867188 81.390625 110.277344 81.421875 109.6875 81.390625 C 109.0625 81.320312 108.507812 81.144531 107.953125 80.902344 C 107.394531 80.648438 106.910156 80.300781 106.492188 79.859375 L 104.652344 78.019531 C 104.234375 77.605469 103.890625 77.117188 103.609375 76.5625 C 103.367188 76.007812 103.195312 75.453125 103.125 74.828125 C 103.089844 74.234375 103.125 73.644531 103.265625 73.054688 C 103.402344 72.464844 103.644531 71.910156 103.992188 71.421875 L 106.945312 66.980469 L 101.734375 65.972656 C 101.273438 65.878906 100.832031 65.730469 100.417969 65.519531 C 100 65.289062 99.617188 65.023438 99.269531 64.722656 C 98.902344 64.398438 98.589844 64.039062 98.332031 63.644531 C 98.078125 63.253906 97.882812 62.835938 97.742188 62.394531 L 110.765625 62.394531 C 110.972656 62.535156 111.15625 62.683594 111.320312 62.847656 C 111.503906 63.007812 111.679688 63.183594 111.839844 63.367188 C 111.980469 63.578125 112.105469 63.785156 112.222656 63.992188 C 112.359375 64.203125 112.476562 64.410156 112.570312 64.617188 L 112.570312 64.652344 C 112.730469 65.046875 112.847656 65.464844 112.917969 65.902344 C 112.964844 66.320312 112.972656 66.746094 112.953125 67.1875 C 112.90625 67.605469 112.8125 68.019531 112.671875 68.4375 C 112.511719 68.832031 112.316406 69.214844 112.082031 69.582031 L 108.957031 74.234375 L 110.242188 75.519531 L 114.894531 72.394531 C 115.625 71.910156 116.457031 71.632812 117.292969 71.527344 C 118.160156 71.457031 119.027344 71.597656 119.828125 71.910156 C 120.625 72.257812 121.355469 72.777344 121.875 73.4375 C 122.429688 74.097656 122.8125 74.894531 122.984375 75.765625 L 124.0625 81.25 L 125.867188 81.25 L 126.980469 75.765625 C 127.046875 75.324219 127.175781 74.90625 127.359375 74.515625 C 127.546875 74.144531 127.777344 73.785156 128.054688 73.4375 C 128.332031 73.113281 128.644531 72.824219 128.992188 72.570312 C 129.339844 72.316406 129.710938 72.09375 130.105469 71.910156 L 130.140625 71.910156 C 130.554688 71.746094 130.972656 71.632812 131.390625 71.5625 C 131.804688 71.492188 132.234375 71.480469 132.671875 71.527344 C 133.089844 71.574219 133.507812 71.667969 133.921875 71.804688 C 134.316406 71.96875 134.699219 72.164062 135.070312 72.394531 L 139.722656 75.519531 L 141.007812 74.234375 L 137.882812 69.582031 C 137.652344 69.214844 137.453125 68.832031 137.292969 68.4375 C 137.152344 68.019531 137.058594 67.605469 137.015625 67.1875 C 136.96875 66.746094 136.980469 66.320312 137.046875 65.902344 C 137.117188 65.464844 137.234375 65.046875 137.394531 64.652344 C 137.394531 64.628906 137.394531 64.617188 137.394531 64.617188 C 137.488281 64.410156 137.59375 64.203125 137.707031 63.992188 C 137.847656 63.761719 137.984375 63.554688 138.125 63.367188 C 138.285156 63.183594 138.460938 63.007812 138.644531 62.847656 C 138.808594 62.660156 138.992188 62.5 139.203125 62.359375 Z M 152.257812 62.359375 "/>
<path style=" stroke:none;fill-rule:nonzero;fill:rgb(19.607843%,36.862745%,39.215686%);fill-opacity:1;" d="M 77.464844 203.609375 C 77.535156 204.027344 77.117188 204.339844 76.769531 204.339844 C 76.679688 204.339844 76.585938 204.316406 76.492188 204.269531 C 76.402344 204.246094 76.320312 204.203125 76.25 204.132812 C 76.203125 204.0625 76.15625 203.980469 76.109375 203.890625 C 76.066406 203.796875 76.042969 203.703125 76.042969 203.609375 C 75.9375 202.777344 75.765625 201.910156 75.730469 201.109375 C 75.695312 200.277344 75.902344 199.410156 76.527344 198.855469 C 76.597656 198.785156 76.679688 198.726562 76.769531 198.679688 C 76.839844 198.65625 76.921875 198.644531 77.015625 198.644531 C 77.105469 198.644531 77.199219 198.65625 77.292969 198.679688 C 77.382812 198.726562 77.464844 198.785156 77.535156 198.855469 C 77.605469 198.921875 77.652344 198.992188 77.671875 199.0625 C 77.71875 199.15625 77.742188 199.246094 77.742188 199.339844 C 77.742188 199.433594 77.71875 199.527344 77.671875 199.617188 C 77.652344 199.710938 77.605469 199.792969 77.535156 199.859375 C 77.5 199.859375 77.328125 200.070312 77.429688 199.964844 C 77.40625 199.964844 77.394531 199.976562 77.394531 200 C 77.394531 200 77.382812 200.011719 77.359375 200.035156 C 77.359375 200.058594 77.347656 200.070312 77.328125 200.070312 C 77.328125 200.09375 77.328125 200.105469 77.328125 200.105469 C 77.328125 200.128906 77.316406 200.140625 77.292969 200.140625 C 77.292969 200.160156 77.292969 200.171875 77.292969 200.171875 C 77.292969 200.195312 77.28125 200.207031 77.257812 200.207031 C 77.257812 200.207031 77.257812 200.21875 77.257812 200.242188 C 77.28125 200.171875 77.28125 200.160156 77.257812 200.207031 C 77.257812 200.230469 77.246094 200.253906 77.222656 200.277344 C 77.222656 200.300781 77.222656 200.324219 77.222656 200.347656 C 77.222656 200.347656 77.222656 200.359375 77.222656 200.382812 C 77.199219 200.40625 77.1875 200.429688 77.1875 200.453125 C 77.1875 200.453125 77.152344 200.695312 77.1875 200.519531 C 77.164062 200.542969 77.152344 200.566406 77.152344 200.589844 C 77.152344 200.613281 77.152344 200.636719 77.152344 200.660156 C 77.152344 200.683594 77.152344 200.707031 77.152344 200.730469 C 77.152344 200.753906 77.152344 200.777344 77.152344 200.796875 C 77.152344 200.84375 77.152344 200.890625 77.152344 200.9375 C 77.152344 200.984375 77.152344 201.03125 77.152344 201.078125 C 77.152344 201.121094 77.152344 201.167969 77.152344 201.214844 C 77.175781 201.261719 77.1875 201.308594 77.1875 201.355469 C 77.257812 202.117188 77.359375 202.847656 77.464844 203.609375 Z M 77.464844 203.609375 "/>
<path style=" stroke:none;fill-rule:nonzero;fill:rgb(19.607843%,36.862745%,39.215686%);fill-opacity:1;" d="M 95.382812 203.921875 C 95.359375 203.992188 95.3125 204.0625 95.242188 204.132812 C 95.171875 204.203125 95.09375 204.257812 95 204.304688 C 94.929688 204.328125 94.847656 204.339844 94.757812 204.339844 C 94.640625 204.339844 94.546875 204.328125 94.480469 204.304688 C 94.386719 204.257812 94.304688 204.203125 94.234375 204.132812 C 94.167969 204.0625 94.109375 203.992188 94.0625 203.921875 C 94.039062 203.832031 94.027344 203.738281 94.027344 203.644531 L 94.269531 201.527344 C 94.269531 201.433594 94.28125 201.355469 94.304688 201.285156 C 94.304688 201.214844 94.292969 201.144531 94.269531 201.078125 C 94.269531 200.984375 94.257812 200.902344 94.234375 200.832031 C 94.214844 200.765625 94.191406 200.695312 94.167969 200.625 L 93.785156 199.582031 C 93.761719 199.492188 93.761719 199.398438 93.785156 199.304688 C 93.785156 199.214844 93.808594 199.132812 93.855469 199.0625 C 93.902344 198.96875 93.957031 198.902344 94.027344 198.855469 C 94.097656 198.785156 94.179688 198.738281 94.269531 198.714844 C 94.363281 198.691406 94.457031 198.679688 94.546875 198.679688 C 94.640625 198.703125 94.734375 198.738281 94.828125 198.785156 C 94.917969 198.832031 94.988281 198.890625 95.035156 198.957031 C 95.105469 199.027344 95.152344 199.109375 95.171875 199.203125 C 95.417969 199.929688 95.796875 200.695312 95.695312 201.421875 C 95.625 202.164062 95.542969 202.90625 95.453125 203.644531 C 95.453125 203.738281 95.429688 203.832031 95.382812 203.921875 Z M 95.382812 203.921875 "/>
<path style=" stroke:none;fill-rule:nonzero;fill:rgb(19.607843%,36.862745%,39.215686%);fill-opacity:1;" d="M 94.480469 200.070312 C 95.417969 200.070312 95.417969 198.609375 94.480469 198.609375 C 93.578125 198.609375 93.578125 200.070312 94.480469 200.070312 Z M 94.480469 200.070312 "/>
<path style=" stroke:none;fill-rule:nonzero;fill:rgb(19.607843%,36.862745%,39.215686%);fill-opacity:1;" d="M 77.535156 199.617188 C 78.472656 199.617188 78.472656 198.195312 77.535156 198.195312 C 76.632812 198.195312 76.632812 199.617188 77.535156 199.617188 Z M 77.535156 199.617188 "/>
<path style=" stroke:none;fill-rule:nonzero;fill:rgb(19.607843%,36.862745%,39.215686%);fill-opacity:1;" d="M 77.046875 199.410156 C 76.910156 199.269531 76.839844 199.097656 76.839844 198.921875 C 76.839844 198.714844 76.910156 198.542969 77.046875 198.402344 C 77.1875 198.265625 77.359375 198.195312 77.535156 198.195312 L 82.1875 198.265625 C 82.359375 198.265625 82.570312 198.332031 82.707031 198.472656 C 82.8125 198.578125 82.917969 198.785156 82.917969 198.957031 C 82.917969 199.167969 82.8125 199.339844 82.707031 199.480469 C 82.570312 199.617188 82.359375 199.6875 82.1875 199.6875 L 77.535156 199.617188 C 77.359375 199.617188 77.1875 199.546875 77.046875 199.410156 Z M 77.046875 199.410156 "/>
<path style=" stroke:none;fill-rule:nonzero;fill:rgb(19.607843%,36.862745%,39.215686%);fill-opacity:1;" d="M 82.429688 199.410156 C 83.332031 199.410156 83.332031 197.984375 82.429688 197.984375 C 81.492188 197.984375 81.492188 199.410156 82.429688 199.410156 Z M 82.429688 199.410156 "/>
<path style=" stroke:none;fill-rule:nonzero;fill:rgb(19.607843%,36.862745%,39.215686%);fill-opacity:1;" d="M 82.707031 198.054688 C 82.800781 198.101562 82.882812 198.160156 82.953125 198.230469 C 83.019531 198.296875 83.066406 198.378906 83.089844 198.472656 C 83.136719 198.542969 83.160156 198.621094 83.160156 198.714844 C 83.160156 198.808594 83.136719 198.902344 83.089844 198.992188 C 83.042969 199.085938 82.996094 199.167969 82.953125 199.234375 C 82.882812 199.304688 82.800781 199.351562 82.707031 199.375 C 82.617188 199.421875 82.523438 199.445312 82.429688 199.445312 C 82.152344 199.46875 81.886719 199.492188 81.632812 199.515625 C 81.355469 199.535156 81.078125 199.546875 80.796875 199.546875 C 80.542969 199.546875 80.277344 199.558594 80 199.582031 C 79.722656 199.582031 79.445312 199.582031 79.167969 199.582031 C 78.992188 199.582031 78.820312 199.480469 78.679688 199.339844 C 78.542969 199.234375 78.472656 199.027344 78.472656 198.855469 C 78.472656 198.644531 78.542969 198.472656 78.679688 198.332031 C 78.820312 198.195312 78.992188 198.125 79.167969 198.125 C 79.445312 198.125 79.722656 198.125 80 198.125 C 80.277344 198.125 80.542969 198.125 80.796875 198.125 C 81.078125 198.101562 81.355469 198.089844 81.632812 198.089844 C 81.886719 198.066406 82.152344 198.042969 82.429688 198.019531 C 82.523438 198.019531 82.617188 198.03125 82.707031 198.054688 Z M 82.707031 198.054688 "/>
<path style=" stroke:none;fill-rule:nonzero;fill:rgb(19.607843%,36.862745%,39.215686%);fill-opacity:1;" d="M 88.019531 198.644531 C 87.929688 198.597656 87.859375 198.53125 87.8125 198.4375 C 87.765625 198.367188 87.742188 198.285156 87.742188 198.195312 C 87.71875 198.101562 87.71875 198.007812 87.742188 197.917969 C 87.789062 197.824219 87.835938 197.742188 87.882812 197.671875 C 87.953125 197.582031 88.019531 197.511719 88.089844 197.464844 C 88.183594 197.417969 88.277344 197.394531 88.367188 197.394531 C 88.460938 197.371094 88.554688 197.371094 88.644531 197.394531 C 89.546875 197.558594 90.453125 197.695312 91.355469 197.8125 C 91.585938 197.835938 91.816406 197.859375 92.046875 197.882812 C 92.304688 197.929688 92.546875 197.964844 92.777344 197.984375 C 93.007812 198.03125 93.242188 198.078125 93.472656 198.125 C 93.703125 198.171875 93.933594 198.21875 94.167969 198.265625 C 95.070312 198.507812 94.6875 199.894531 93.785156 199.652344 C 93.578125 199.605469 93.355469 199.558594 93.125 199.515625 C 92.917969 199.46875 92.695312 199.433594 92.464844 199.410156 C 92.257812 199.363281 92.035156 199.328125 91.804688 199.304688 C 91.597656 199.257812 91.378906 199.222656 91.144531 199.203125 C 90.171875 199.085938 89.214844 198.945312 88.265625 198.785156 C 88.171875 198.761719 88.089844 198.714844 88.019531 198.644531 Z M 88.019531 198.644531 "/>
<path style=" stroke:none;fill-rule:nonzero;fill:rgb(19.607843%,36.862745%,39.215686%);fill-opacity:1;" d="M 77.328125 204.894531 C 77.234375 204.847656 77.152344 204.804688 77.082031 204.757812 C 77.015625 204.6875 76.957031 204.605469 76.910156 204.515625 C 76.886719 204.421875 76.875 204.328125 76.875 204.234375 C 76.875 204.144531 76.898438 204.050781 76.945312 203.957031 C 76.96875 203.867188 77.015625 203.796875 77.082031 203.75 C 77.152344 203.679688 77.234375 203.621094 77.328125 203.578125 C 77.394531 203.53125 77.476562 203.507812 77.570312 203.507812 C 77.917969 203.484375 78.265625 203.460938 78.609375 203.4375 C 78.980469 203.4375 79.339844 203.425781 79.6875 203.402344 C 80.035156 203.402344 80.382812 203.414062 80.730469 203.4375 C 81.078125 203.460938 81.421875 203.484375 81.769531 203.507812 C 81.863281 203.507812 81.945312 203.53125 82.015625 203.578125 C 82.105469 203.597656 82.1875 203.644531 82.257812 203.714844 C 82.328125 203.785156 82.382812 203.867188 82.429688 203.957031 C 82.453125 204.027344 82.464844 204.121094 82.464844 204.234375 C 82.464844 204.328125 82.453125 204.410156 82.429688 204.480469 C 82.382812 204.570312 82.328125 204.652344 82.257812 204.722656 C 82.1875 204.792969 82.117188 204.847656 82.046875 204.894531 C 81.957031 204.917969 81.863281 204.929688 81.769531 204.929688 C 81.421875 204.90625 81.078125 204.882812 80.730469 204.859375 C 80.382812 204.859375 80.035156 204.859375 79.6875 204.859375 C 79.339844 204.859375 78.980469 204.859375 78.609375 204.859375 C 78.265625 204.882812 77.917969 204.917969 77.570312 204.964844 C 77.476562 204.964844 77.394531 204.941406 77.328125 204.894531 Z M 77.328125 204.894531 "/>
<path style=" stroke:none;fill-rule:nonzero;fill:rgb(19.607843%,36.862745%,39.215686%);fill-opacity:1;" d="M 81.769531 204.964844 C 81.746094 204.964844 81.714844 204.964844 81.667969 204.964844 C 81.644531 204.964844 81.621094 204.953125 81.597656 204.929688 C 81.550781 204.929688 81.515625 204.917969 81.492188 204.894531 C 81.46875 204.894531 81.445312 204.882812 81.421875 204.859375 L 81.285156 204.757812 C 81.261719 204.734375 81.238281 204.710938 81.214844 204.6875 C 81.191406 204.664062 81.167969 204.640625 81.144531 204.617188 C 81.144531 204.59375 81.132812 204.558594 81.109375 204.515625 C 81.109375 204.492188 81.097656 204.46875 81.078125 204.445312 L 81.078125 204.234375 C 81.054688 204.214844 81.054688 204.191406 81.078125 204.167969 C 81.078125 204.144531 81.078125 204.121094 81.078125 204.097656 C 81.078125 204.074219 81.078125 204.050781 81.078125 204.027344 C 81.097656 204.003906 81.109375 203.980469 81.109375 203.957031 C 81.132812 203.933594 81.144531 203.910156 81.144531 203.890625 C 81.144531 203.867188 81.15625 203.855469 81.179688 203.855469 C 81.203125 203.832031 81.214844 203.808594 81.214844 203.785156 C 81.238281 203.761719 81.261719 203.75 81.285156 203.75 C 81.285156 203.726562 81.296875 203.703125 81.320312 203.679688 C 81.34375 203.65625 81.367188 203.644531 81.390625 203.644531 C 81.390625 203.621094 81.402344 203.609375 81.421875 203.609375 C 81.445312 203.609375 81.46875 203.597656 81.492188 203.578125 C 81.515625 203.578125 81.539062 203.566406 81.5625 203.542969 C 81.585938 203.542969 81.609375 203.542969 81.632812 203.542969 C 81.65625 203.542969 81.679688 203.53125 81.703125 203.507812 C 81.722656 203.507812 81.746094 203.507812 81.769531 203.507812 C 81.792969 203.507812 81.816406 203.519531 81.839844 203.542969 C 81.863281 203.542969 81.886719 203.542969 81.910156 203.542969 C 81.933594 203.542969 81.957031 203.542969 81.980469 203.542969 C 81.980469 203.542969 81.992188 203.542969 82.015625 203.542969 C 82.152344 203.566406 82.292969 203.589844 82.429688 203.609375 C 82.476562 203.609375 82.511719 203.621094 82.535156 203.644531 C 82.558594 203.644531 82.582031 203.65625 82.605469 203.679688 C 82.628906 203.679688 82.652344 203.691406 82.671875 203.714844 C 82.695312 203.738281 82.71875 203.761719 82.742188 203.785156 L 82.882812 203.921875 C 82.882812 203.945312 82.894531 203.980469 82.917969 204.027344 C 82.917969 204.050781 82.929688 204.074219 82.953125 204.097656 C 82.953125 204.121094 82.953125 204.15625 82.953125 204.203125 C 82.953125 204.222656 82.953125 204.257812 82.953125 204.304688 L 82.953125 204.480469 C 82.929688 204.527344 82.90625 204.570312 82.882812 204.617188 C 82.859375 204.640625 82.835938 204.675781 82.8125 204.722656 C 82.789062 204.769531 82.753906 204.804688 82.707031 204.828125 C 82.683594 204.847656 82.652344 204.871094 82.605469 204.894531 C 82.582031 204.917969 82.558594 204.929688 82.535156 204.929688 C 82.535156 204.953125 82.523438 204.964844 82.5 204.964844 C 82.476562 204.964844 82.453125 204.976562 82.429688 205 C 82.40625 205 82.382812 205 82.359375 205 C 82.339844 205 82.316406 205 82.292969 205 C 82.246094 205 82.210938 205 82.1875 205 C 82.164062 205 82.140625 205 82.117188 205 C 82.09375 205 82.070312 205 82.046875 205 L 81.875 204.964844 L 82.082031 205 C 82.058594 205 82.035156 204.988281 82.015625 204.964844 C 81.992188 204.964844 81.96875 204.964844 81.945312 204.964844 C 81.921875 204.964844 81.898438 204.964844 81.875 204.964844 C 81.851562 204.964844 81.828125 204.964844 81.804688 204.964844 Z M 81.769531 204.964844 "/>
<path style=" stroke:none;fill-rule:nonzero;fill:rgb(19.607843%,36.862745%,39.215686%);fill-opacity:1;" d="M 82.464844 205.070312 C 83.367188 205.070312 83.367188 203.644531 82.464844 203.644531 C 81.527344 203.644531 81.527344 205.070312 82.464844 205.070312 Z M 82.464844 205.070312 "/>
<path style=" stroke:none;fill-rule:nonzero;fill:rgb(19.607843%,36.862745%,39.215686%);fill-opacity:1;" d="M 82.5 205.105469 C 83.4375 205.105469 83.4375 203.644531 82.5 203.644531 C 81.5625 203.644531 81.5625 205.105469 82.5 205.105469 Z M 82.5 205.105469 "/>
<path style=" stroke:none;fill-rule:nonzero;fill:rgb(19.607843%,36.862745%,39.215686%);fill-opacity:1;" d="M 82.8125 205.382812 C 83.714844 205.382812 83.714844 203.957031 82.8125 203.957031 C 81.875 203.957031 81.875 205.382812 82.8125 205.382812 Z M 82.8125 205.382812 "/>
<path style=" stroke:none;fill-rule:nonzero;fill:rgb(19.607843%,36.862745%,39.215686%);fill-opacity:1;" d="M 88.4375 205.589844 C 88.265625 205.589844 88.089844 205.519531 87.953125 205.382812 C 87.8125 205.242188 87.742188 205.070312 87.742188 204.894531 C 87.742188 204.6875 87.8125 204.515625 87.953125 204.375 C 88.089844 204.234375 88.265625 204.167969 88.4375 204.167969 C 88.667969 204.167969 88.890625 204.167969 89.097656 204.167969 C 89.304688 204.167969 89.527344 204.15625 89.757812 204.132812 C 89.964844 204.109375 90.171875 204.085938 90.382812 204.0625 C 90.589844 204.039062 90.808594 204.003906 91.042969 203.957031 C 91.921875 203.84375 92.8125 203.714844 93.714844 203.578125 C 93.808594 203.554688 93.902344 203.554688 93.992188 203.578125 C 94.085938 203.578125 94.167969 203.597656 94.234375 203.644531 C 94.328125 203.691406 94.398438 203.75 94.445312 203.820312 C 94.515625 203.910156 94.558594 203.992188 94.582031 204.0625 C 94.605469 204.15625 94.617188 204.257812 94.617188 204.375 C 94.59375 204.46875 94.558594 204.546875 94.515625 204.617188 C 94.46875 204.710938 94.410156 204.78125 94.339844 204.828125 C 94.246094 204.894531 94.167969 204.941406 94.097656 204.964844 C 93.171875 205.105469 92.246094 205.242188 91.320312 205.382812 C 91.066406 205.40625 90.820312 205.441406 90.589844 205.484375 C 90.359375 205.507812 90.117188 205.53125 89.859375 205.554688 C 89.628906 205.578125 89.398438 205.589844 89.167969 205.589844 C 88.910156 205.589844 88.667969 205.589844 88.4375 205.589844 Z M 88.4375 205.589844 "/>
</g>
</svg>
