<?xml version="1.0" encoding="UTF-8"?>
<svg xmlns="http://www.w3.org/2000/svg" xmlns:xlink="http://www.w3.org/1999/xlink" width="250px" height="250px" viewBox="0 0 250 250" version="1.1">
<g id="surface1">
<path style="fill-rule:nonzero;fill:rgb(19.607843%,36.862745%,39.215686%);fill-opacity:1;stroke-width:0.6;stroke-linecap:butt;stroke-linejoin:miter;stroke:rgb(19.607843%,36.862745%,39.215686%);stroke-opacity:1;stroke-miterlimit:4;" d="M 608.895 188.595 L 608.895 503.7975 C 608.895 507.195 608.1975 510.60375 606.90375 513.6975 C 605.7 516.8025 603.79875 519.60375 601.4025 522 C 598.995 524.39625 596.205 526.2975 593.1 527.6025 C 589.905 528.795 586.5975 529.50375 583.2 529.50375 L 136.69875 529.50375 C 133.30125 529.50375 130.005 528.795 126.9 527.6025 C 123.705 526.2975 120.90375 524.39625 118.49625 522 C 116.1 519.60375 114.3 516.8025 112.995 513.6975 C 111.70125 510.60375 111.00375 507.195 111.00375 503.7975 L 111.00375 188.595 C 111.00375 185.29875 111.70125 181.90125 112.995 178.79625 C 114.3 175.7025 116.1 172.90125 118.49625 170.505 C 120.90375 168.0975 123.705 166.19625 126.9 164.9025 C 130.005 163.5975 133.30125 163.00125 136.69875 162.9 L 176.29875 162.9 L 176.29875 177.89625 L 136.69875 177.89625 C 135.30375 177.89625 133.8975 178.2 132.60375 178.695 C 131.29875 179.3025 130.095 180.10125 129.105 181.1025 C 128.10375 182.10375 127.305 183.195 126.79875 184.5 C 126.2025 185.805 126 187.2 126 188.595 L 126 503.7975 C 126 505.20375 126.2025 506.59875 126.79875 507.90375 C 127.305 509.1975 128.10375 510.40125 129.105 511.4025 C 130.095 512.40375 131.29875 513.2025 132.60375 513.6975 C 133.8975 514.305 135.30375 514.5975 136.69875 514.5975 L 583.2 514.5975 C 584.595 514.5975 586.00125 514.305 587.295 513.6975 C 588.6 513.2025 589.80375 512.40375 590.805 511.4025 C 591.795 510.40125 592.605 509.1975 593.1 507.90375 C 593.69625 506.59875 593.89875 505.305 594 503.7975 L 594 188.595 C 593.89875 187.2 593.69625 185.805 593.1 184.5 C 592.605 183.195 591.795 182.10375 590.805 181.1025 C 589.80375 180.10125 588.6 179.3025 587.295 178.695 C 586.00125 178.2 584.595 177.89625 583.2 177.89625 L 531.2025 177.89625 L 531.2025 162.9 L 583.2 162.9 C 586.5975 163.00125 589.905 163.5975 592.99875 164.9025 C 596.205 166.19625 598.995 168.0975 601.4025 170.505 C 603.79875 172.90125 605.7 175.7025 606.90375 178.79625 C 608.1975 181.90125 608.895 185.29875 608.895 188.595 Z M 608.895 188.595 " transform="matrix(0.347222,0,0,0.347222,0,0)"/>
<path style="fill-rule:nonzero;fill:rgb(19.607843%,36.862745%,39.215686%);fill-opacity:1;stroke-width:0.6;stroke-linecap:butt;stroke-linejoin:miter;stroke:rgb(19.607843%,36.862745%,39.215686%);stroke-opacity:1;stroke-miterlimit:4;" d="M 582.89625 203.1975 L 582.89625 453.29625 L 137.0025 453.29625 L 137.0025 203.1975 L 173.205 203.4 L 173.205 218.39625 L 151.99875 218.205 L 151.99875 438.40125 L 188.595 438.40125 L 188.595 441.405 L 546.5025 441.405 L 546.5025 438.40125 L 567.9 438.40125 L 567.9 218.205 L 531.2025 218.205 L 531.2025 203.1975 Z M 582.89625 203.1975 " transform="matrix(0.347222,0,0,0.347222,0,0)"/>
<path style="fill-rule:evenodd;fill:rgb(19.607843%,36.862745%,39.215686%);fill-opacity:1;stroke-width:0.6;stroke-linecap:butt;stroke-linejoin:miter;stroke:rgb(19.607843%,36.862745%,39.215686%);stroke-opacity:1;stroke-miterlimit:4;" d="M 440.40375 604.305 L 279.495 604.305 C 278.20125 604.305 276.795 604.00125 275.70375 603.30375 C 274.5 602.505 273.49875 601.50375 272.9025 600.3 C 272.295 599.09625 272.0025 597.70125 272.10375 596.39625 C 272.205 595.00125 272.59875 593.69625 273.3975 592.605 L 275.99625 588.8025 C 290.39625 568.305 296.7975 545.50125 294.5025 522.79875 C 294.40125 521.7975 294.5025 520.695 294.89625 519.705 C 295.2 518.70375 295.695 517.80375 296.40375 517.005 C 297.10125 516.29625 298.00125 515.7 298.90125 515.205 C 299.9025 514.8 300.90375 514.5975 301.995 514.5975 L 417.90375 514.5975 C 418.995 514.5975 419.99625 514.8 420.9975 515.205 C 421.8975 515.7 422.7975 516.29625 423.495 517.005 C 424.20375 517.80375 424.69875 518.70375 425.0025 519.705 C 425.39625 520.695 425.4975 521.7975 425.39625 522.79875 C 423.10125 545.50125 429.5025 568.305 443.9025 588.8025 L 446.50125 592.605 C 447.3 593.69625 447.795 595.00125 447.795 596.39625 C 447.89625 597.70125 447.705 599.09625 446.99625 600.3 C 446.4 601.50375 445.39875 602.505 444.29625 603.30375 C 443.10375 604.00125 441.6975 604.305 440.40375 604.305 Z M 309.90375 529.50375 C 310.39875 550.1025 304.79625 570.49875 293.50125 589.39875 L 426.49875 589.39875 C 415.20375 570.49875 409.60125 550.1025 409.995 529.50375 Z M 309.90375 529.50375 " transform="matrix(0.347222,0,0,0.347222,0,0)"/>
<path style="fill-rule:evenodd;fill:rgb(19.607843%,36.862745%,39.215686%);fill-opacity:1;stroke-width:0.6;stroke-linecap:butt;stroke-linejoin:miter;stroke:rgb(19.607843%,36.862745%,39.215686%);stroke-opacity:1;stroke-miterlimit:4;" d="M 459.79875 637.99875 L 260.1 637.99875 C 253.5975 637.99875 247.5 635.4 242.89875 630.9 C 238.2975 626.29875 235.8 620.1 235.8 613.69875 C 235.8 607.19625 238.2975 601.09875 242.89875 596.4975 C 247.5 591.89625 253.5975 589.39875 260.1 589.39875 L 459.79875 589.39875 C 466.30125 589.39875 472.5 591.89625 477 596.4975 C 481.60125 601.09875 484.09875 607.19625 484.09875 613.69875 C 484.09875 620.1 481.60125 626.29875 477 630.9 C 472.5 635.4 466.30125 637.99875 459.79875 637.99875 Z M 260.1 604.305 C 257.6025 604.305 255.195 605.295 253.49625 607.095 C 251.69625 608.805 250.695 611.20125 250.695 613.69875 C 250.695 616.19625 251.69625 618.5025 253.49625 620.3025 C 255.195 622.1025 257.6025 623.0025 260.1 623.0025 L 459.79875 623.0025 C 462.29625 623.0025 464.70375 622.1025 466.4025 620.3025 C 468.2025 618.5025 469.20375 616.19625 469.20375 613.69875 C 469.20375 611.20125 468.2025 608.805 466.4025 607.095 C 464.70375 605.295 462.29625 604.305 459.79875 604.305 Z M 260.1 604.305 " transform="matrix(0.347222,0,0,0.347222,0,0)"/>
<path style="fill:none;stroke-width:8.8;stroke-linecap:butt;stroke-linejoin:miter;stroke:rgb(19.607843%,36.862745%,39.215686%);stroke-opacity:1;stroke-miterlimit:4;" d="M 531.2025 137.39625 L 531.2025 445.60125 L 173.205 445.60125 L 173.205 137.4975 C 173.205 121.19625 182.0025 112.39875 198.30375 112.39875 L 505.90125 112.39875 C 522.30375 112.39875 531.10125 121.095 531.2025 137.39625 Z M 531.2025 137.39625 " transform="matrix(0.347222,0,0,0.347222,0,0)"/>
<path style="fill:none;stroke-width:8.8;stroke-linecap:butt;stroke-linejoin:miter;stroke:rgb(19.607843%,36.862745%,39.215686%);stroke-opacity:1;stroke-miterlimit:4;" d="M 193.7025 447.19875 C 189.495 447.19875 188.3025 446.29875 188.3025 441.9 C 188.40375 382.095 188.1 311.99625 187.99875 252.2025 C 187.8975 248.1975 188.7975 246.8025 193.005 246.90375 C 202.19625 247.19625 211.39875 247.095 220.5 247.005 C 225 247.005 228.6 245.59875 229.80375 240.705 C 230.895 235.90125 227.205 231.89625 221.29875 231.795 C 211.7025 231.60375 202.005 231.60375 192.3975 231.795 C 188.89875 231.89625 187.99875 230.895 187.99875 227.4975 C 188.1 201.00375 188.1 174.3975 188.1 147.8025 C 188.1 140.1975 190.8 137.4975 198.495 137.4975 C 301.03875 137.4975 403.57125 137.4975 506.10375 137.4975 C 513.59625 137.4975 516.29625 140.29875 516.29625 148.005 C 516.29625 174.105 516.195 200.10375 516.3975 226.20375 C 516.3975 230.6025 515.295 231.795 510.795 231.795 C 429.19875 231.73875 347.63625 231.705 266.09625 231.705 C 265.5675 231.705 265.03875 231.705 264.49875 231.705 C 263.97 231.705 263.43 231.73875 262.90125 231.795 C 262.36125 231.795 261.8325 231.82875 261.30375 231.89625 C 260.76375 231.96375 260.235 232.03125 259.695 232.09875 C 256.005 233.1 253.8 235.5975 254.0025 239.6025 C 254.205 243.30375 256.19625 245.80125 259.8975 246.49875 C 260.4375 246.56625 261 246.63375 261.59625 246.70125 C 262.13625 246.76875 262.69875 246.83625 263.295 246.90375 C 263.835 246.90375 264.3975 246.9375 265.005 247.005 C 265.53375 247.005 266.09625 247.005 266.70375 247.005 C 347.77125 247.06125 428.83875 247.03875 509.895 246.90375 C 514.90125 246.90375 516.3975 247.995 516.3975 253.20375 C 516.195 312.19875 516.6 381.49875 516.6 440.505 C 516.6 447.89625 517.7025 447.0975 510.19875 447.0975 C 457.605 447.0975 404.7975 445.60125 352.20375 445.60125 C 299.295 445.60125 246.6 447.0975 193.7025 447.19875 Z M 193.7025 447.19875 " transform="matrix(0.347222,0,0,0.347222,0,0)"/>
<path style=" stroke:none;fill-rule:evenodd;fill:rgb(19.607843%,36.862745%,39.215686%);fill-opacity:1;" d="M 72.847656 120.867188 C 72.847656 113.183594 72.847656 105.496094 72.847656 97.8125 C 72.847656 95.207031 73.714844 94.339844 76.320312 94.339844 C 91.691406 94.339844 107.046875 94.339844 122.394531 94.339844 C 125.070312 94.339844 126.007812 95.277344 126.007812 97.917969 C 126.03125 113.21875 126.03125 128.519531 126.007812 143.820312 C 126.007812 146.5625 125.035156 147.535156 122.292969 147.535156 C 107.058594 147.535156 91.816406 147.535156 76.5625 147.535156 C 73.714844 147.535156 72.847656 146.632812 72.847656 143.714844 C 72.847656 136.097656 72.847656 128.484375 72.847656 120.867188 Z M 99.652344 99.582031 C 92.984375 99.582031 86.355469 99.617188 79.6875 99.546875 C 78.4375 99.546875 78.019531 99.894531 78.054688 101.179688 C 78.101562 107.941406 78.101562 114.710938 78.054688 121.492188 C 78.054688 122.847656 78.296875 123.089844 79.652344 122.671875 C 84.0625 121.320312 88.296875 121.667969 92.1875 124.339844 C 94.792969 126.144531 97.257812 128.160156 99.894531 129.964844 C 102.984375 132.046875 106.25 132.1875 109.445312 130.070312 C 110.242188 129.546875 111.078125 129.027344 111.875 128.507812 C 114.167969 127.082031 116.597656 126.25 119.304688 126.527344 C 120.484375 126.667969 120.695312 126.320312 120.695312 125.242188 C 120.660156 117.222656 120.660156 109.203125 120.695312 101.179688 C 120.695312 99.894531 120.347656 99.546875 119.0625 99.582031 C 112.605469 99.617188 106.109375 99.582031 99.652344 99.582031 Z M 99.304688 142.1875 C 105.9375 142.1875 112.605469 142.152344 119.269531 142.1875 C 120.347656 142.1875 120.765625 141.910156 120.695312 140.765625 C 120.625 138.265625 120.660156 135.765625 120.695312 133.265625 C 120.730469 132.257812 120.382812 131.910156 119.375 131.804688 C 116.804688 131.492188 114.929688 132.777344 112.953125 134.097656 C 107.707031 137.570312 102.359375 137.882812 97.015625 134.304688 C 95.035156 132.984375 93.160156 131.492188 91.320312 130 C 87.671875 127.082031 83.785156 126.25 79.410156 128.296875 C 78.507812 128.714844 78.019531 129.234375 78.054688 130.347656 C 78.125 133.75 78.125 137.152344 78.054688 140.589844 C 78.019531 141.875 78.402344 142.222656 79.6875 142.1875 C 86.214844 142.152344 92.742188 142.1875 99.304688 142.1875 Z M 99.304688 142.1875 "/>
<path style=" stroke:none;fill-rule:evenodd;fill:rgb(19.607843%,36.862745%,39.215686%);fill-opacity:1;" d="M 84.269531 73.679688 C 81.597656 73.679688 78.957031 73.714844 76.285156 73.679688 C 73.472656 73.644531 72.394531 71.769531 73.785156 69.304688 C 76.421875 64.675781 79.085938 60.058594 81.769531 55.453125 C 83.230469 53.019531 85.484375 53.054688 86.910156 55.519531 C 89.570312 60.082031 92.222656 64.652344 94.859375 69.234375 C 96.285156 71.734375 95.171875 73.644531 92.292969 73.679688 C 89.617188 73.714844 86.945312 73.679688 84.269531 73.679688 Z M 88.332031 68.472656 L 84.339844 61.527344 C 82.953125 63.921875 81.703125 66.109375 80.347656 68.472656 Z M 88.332031 68.472656 "/>
<path style=" stroke:none;fill-rule:nonzero;fill:rgb(19.607843%,36.862745%,39.215686%);fill-opacity:1;" d="M 134.757812 56.875 C 141.980469 56.875 149.203125 56.875 156.421875 56.875 C 158.472656 56.875 159.617188 57.953125 159.445312 59.6875 C 159.339844 60.972656 158.609375 61.769531 157.328125 61.980469 C 157.1875 62.003906 157.046875 62.027344 156.910156 62.046875 C 156.769531 62.046875 156.632812 62.046875 156.492188 62.046875 C 156.355469 62.046875 156.214844 62.046875 156.078125 62.046875 C 155.9375 62.046875 155.785156 62.046875 155.625 62.046875 L 113.195312 62.046875 C 110.902344 62.015625 109.722656 61.109375 109.757812 59.410156 C 109.792969 57.777344 110.972656 56.875 113.125 56.875 C 116.179688 56.875 119.234375 56.875 122.328125 56.875 Z M 134.757812 56.875 "/>
<path style=" stroke:none;fill-rule:nonzero;fill:rgb(19.607843%,36.862745%,39.215686%);fill-opacity:1;" d="M 151.875 124.652344 C 145.972656 124.652344 140.070312 124.6875 134.167969 124.652344 C 133.402344 124.652344 132.429688 124.652344 131.910156 124.234375 C 131.214844 123.714844 130.554688 122.707031 130.589844 121.910156 C 130.589844 121.144531 131.320312 120.207031 132.015625 119.6875 C 132.570312 119.304688 133.542969 119.339844 134.304688 119.339844 C 146.019531 119.316406 157.71875 119.316406 169.410156 119.339844 C 170.140625 119.339844 171.078125 119.269531 171.5625 119.652344 C 172.257812 120.242188 173.089844 121.179688 173.089844 121.980469 C 173.089844 122.777344 172.292969 123.75 171.5625 124.304688 C 171.078125 124.722656 170.171875 124.652344 169.445312 124.652344 C 163.578125 124.652344 157.742188 124.652344 151.875 124.652344 Z M 151.875 124.652344 "/>
<path style=" stroke:none;fill-rule:nonzero;fill:rgb(19.607843%,36.862745%,39.215686%);fill-opacity:1;" d="M 151.734375 101.804688 C 145.765625 101.804688 139.792969 101.839844 133.855469 101.734375 C 133.578125 101.714844 133.308594 101.679688 133.054688 101.632812 C 132.777344 101.5625 132.511719 101.46875 132.257812 101.355469 C 132.003906 101.261719 131.769531 101.132812 131.5625 100.972656 C 131.332031 100.832031 131.109375 100.671875 130.902344 100.484375 C 129.828125 99.304688 130.554688 97.257812 132.117188 96.769531 C 132.328125 96.703125 132.523438 96.65625 132.707031 96.632812 C 132.894531 96.585938 133.089844 96.550781 133.296875 96.527344 C 133.484375 96.503906 133.679688 96.492188 133.890625 96.492188 C 134.074219 96.46875 134.269531 96.457031 134.480469 96.457031 C 146.054688 96.457031 157.640625 96.457031 169.234375 96.457031 C 169.582031 96.457031 169.929688 96.457031 170.242188 96.457031 C 172.152344 96.632812 173.195312 97.570312 173.195312 99.132812 C 173.195312 100.730469 172.082031 101.769531 170.140625 101.769531 C 163.992188 101.804688 157.882812 101.804688 151.734375 101.804688 Z M 151.734375 101.804688 "/>
<path style=" stroke:none;fill-rule:nonzero;fill:rgb(19.607843%,36.862745%,39.215686%);fill-opacity:1;" d="M 151.703125 113.160156 C 145.984375 113.160156 140.253906 113.160156 134.515625 113.160156 C 134.351562 113.160156 134.191406 113.160156 134.027344 113.160156 C 133.890625 113.160156 133.738281 113.160156 133.578125 113.160156 C 133.414062 113.136719 133.253906 113.125 133.089844 113.125 C 132.953125 113.101562 132.800781 113.078125 132.640625 113.054688 C 131.285156 112.847656 130.519531 111.980469 130.484375 110.625 C 130.453125 109.203125 131.25 108.296875 132.671875 108.019531 C 132.765625 107.996094 132.859375 107.984375 132.953125 107.984375 C 133.042969 107.964844 133.148438 107.953125 133.265625 107.953125 C 133.355469 107.953125 133.449219 107.953125 133.542969 107.953125 C 133.632812 107.953125 133.738281 107.964844 133.855469 107.984375 L 169.792969 107.984375 C 170.105469 107.984375 170.453125 107.953125 170.796875 107.984375 C 172.222656 108.125 173.230469 109.203125 173.195312 110.554688 C 173.160156 112.117188 172.292969 113.054688 170.765625 113.089844 C 167.707031 113.195312 164.652344 113.160156 161.597656 113.160156 C 158.296875 113.160156 155 113.160156 151.703125 113.160156 Z M 151.703125 113.160156 "/>
<path style=" stroke:none;fill-rule:nonzero;fill:rgb(19.607843%,36.862745%,39.215686%);fill-opacity:1;" d="M 151.804688 136.007812 C 146.019531 136.007812 140.230469 136.007812 134.445312 136.007812 C 134.28125 136.007812 134.121094 136.007812 133.957031 136.007812 C 133.796875 136.007812 133.644531 136.007812 133.507812 136.007812 C 133.34375 136.007812 133.183594 135.996094 133.019531 135.972656 C 132.882812 135.972656 132.730469 135.960938 132.570312 135.9375 C 131.214844 135.695312 130.484375 134.792969 130.484375 133.4375 C 130.484375 132.082031 131.214844 131.179688 132.535156 130.902344 C 132.671875 130.878906 132.800781 130.867188 132.917969 130.867188 C 133.054688 130.84375 133.183594 130.832031 133.296875 130.832031 C 133.4375 130.832031 133.566406 130.832031 133.679688 130.832031 C 133.820312 130.832031 133.945312 130.832031 134.0625 130.832031 L 169.652344 130.832031 C 170 130.832031 170.347656 130.84375 170.695312 130.867188 C 172.222656 130.972656 173.089844 131.769531 173.195312 133.332031 C 173.296875 134.792969 172.292969 135.9375 170.730469 135.972656 C 166.804688 136.042969 162.882812 136.007812 158.957031 136.007812 C 156.574219 136.007812 154.191406 136.007812 151.804688 136.007812 Z M 151.804688 136.007812 "/>
<path style=" stroke:none;fill-rule:nonzero;fill:rgb(19.607843%,36.862745%,39.215686%);fill-opacity:1;" d="M 122.359375 67.882812 C 125.382812 67.882812 128.402344 67.882812 131.390625 67.882812 C 133.542969 67.882812 134.722656 68.820312 134.792969 70.453125 C 134.828125 72.117188 133.578125 73.195312 131.390625 73.195312 C 125.300781 73.21875 119.222656 73.21875 113.160156 73.195312 C 110.9375 73.195312 109.722656 72.152344 109.757812 70.453125 C 109.828125 68.855469 111.007812 67.882812 113.125 67.882812 C 116.214844 67.882812 119.304688 67.882812 122.359375 67.882812 Z M 122.359375 67.882812 "/>
<path style=" stroke:none;fill-rule:nonzero;fill:rgb(19.607843%,36.862745%,39.215686%);fill-opacity:1;" d="M 141.703125 147.5 L 134.375 147.5 C 133.992188 147.5 133.578125 147.535156 133.195312 147.5 C 131.457031 147.328125 130.453125 146.320312 130.484375 144.828125 C 130.484375 143.367188 131.421875 142.257812 133.054688 142.222656 C 138.910156 142.128906 144.757812 142.128906 150.589844 142.222656 C 152.222656 142.257812 153.160156 143.402344 153.160156 144.859375 C 153.125 146.355469 152.117188 147.429688 150.382812 147.464844 C 147.464844 147.535156 144.582031 147.5 141.703125 147.5 Z M 141.703125 147.5 "/>
<path style=" stroke:none;fill-rule:evenodd;fill:rgb(19.607843%,36.862745%,39.215686%);fill-opacity:1;" d="M 115.796875 113.332031 C 115.796875 115.453125 114.929688 117.464844 113.4375 118.921875 C 111.945312 120.417969 109.929688 121.25 107.8125 121.25 C 105.730469 121.214844 103.714844 120.382812 102.222656 118.890625 C 100.765625 117.394531 99.929688 115.382812 99.929688 113.265625 C 99.929688 112.222656 100.140625 111.214844 100.554688 110.242188 C 100.972656 109.304688 101.527344 108.4375 102.257812 107.671875 C 102.984375 106.945312 103.855469 106.355469 104.828125 105.972656 C 105.765625 105.554688 106.804688 105.347656 107.8125 105.3125 C 112.1875 105.277344 115.796875 108.890625 115.796875 113.332031 Z M 107.8125 115.9375 C 108.890625 115.9375 109.828125 115.3125 110.242188 114.339844 C 110.660156 113.332031 110.453125 112.222656 109.722656 111.457031 C 108.992188 110.695312 107.847656 110.453125 106.875 110.832031 C 105.867188 111.214844 105.207031 112.152344 105.171875 113.195312 C 105.171875 113.566406 105.242188 113.910156 105.382812 114.234375 C 105.496094 114.558594 105.683594 114.847656 105.9375 115.105469 C 106.191406 115.382812 106.480469 115.589844 106.804688 115.730469 C 107.128906 115.867188 107.464844 115.9375 107.8125 115.9375 Z M 107.8125 115.9375 "/>
</g>
</svg>
